<svg width="1201" height="638" viewBox="0 0 1201 638" fill="none" xmlns="http://www.w3.org/2000/svg">
<rect width="1200.23" height="636.705" transform="matrix(1 -0.00097958 0.00114398 0.999999 0 1.17578)" fill="black"/>
<path d="M960.717 533.086L957.705 531.262C994.017 508.461 1010.43 507.966 1059.18 506.48L1067.02 506.246C1072.58 506.063 1077.84 505.933 1082.8 505.803C1137.19 504.344 1157.55 503.796 1168.75 470.988C1181.69 433.281 1179.44 365.658 1169.3 328.576C1161.71 300.589 1130.7 285.162 1097.86 268.823C1074.11 257.018 1049.55 244.797 1034.74 227.39C1002.2 189.135 1041.57 127.297 1076.31 72.7039C1092.09 47.9479 1106.98 24.547 1112.8 6.56641L1117.04 7.06153C1111.14 25.3028 1096.21 48.7558 1080.34 73.6681C1045.94 127.714 1006.91 188.979 1038.6 226.191C1052.98 243.103 1077.2 255.168 1100.62 266.817C1132.61 282.713 1165.69 299.182 1173.58 328.133C1183.77 365.45 1186.01 433.515 1172.99 471.457C1161.07 506.246 1138.25 506.871 1083.06 508.357L1067.32 508.8L1059.47 509.034C1011.88 510.519 995.884 511.015 960.717 533.086Z" fill="white"/>
<path d="M944.046 535.38L941.076 533.53C977.982 510.963 993.593 510.077 1045.26 507.471L1057.18 506.898C1112.33 504.292 1130.74 503.38 1142.02 471.327C1156.28 431.64 1159.71 364.486 1149.4 327.795C1141.43 299.13 1109.49 283.677 1075.68 267.234C1050.86 255.195 1025.24 242.713 1010.01 224.68C977.855 186.634 1017.82 126.855 1053.02 74.1115C1069.99 48.7823 1085.9 24.8863 1091.8 6.3584L1096.04 6.85351C1090.1 25.6941 1074.02 49.7204 1057.05 75.1539C1022.14 127.272 982.606 186.556 1013.83 223.533C1028.67 241.071 1053.96 253.371 1078.39 265.227C1111.35 281.254 1145.42 297.827 1153.69 327.378C1164.04 364.434 1160.56 431.978 1146.27 471.901C1134.09 505.777 1113.18 506.846 1057.18 509.504L1045.73 510.077C993.805 512.787 979.849 513.491 944.046 535.38Z" fill="white"/>
<path d="M934.162 540.905L931.022 539.133C963.856 516.957 977.473 514.976 1024.35 510.885H1025.75C1085.65 505.673 1098.16 504.553 1110.34 472.579C1127.01 429.034 1142.7 364.617 1132.27 326.414C1124.16 296.681 1089.85 280.551 1053.32 263.456C1026.68 250.974 999.15 238.075 983.073 219.39C950.579 181.553 992.66 124.223 1029.74 73.6429C1048.15 48.5742 1065.5 24.9127 1071.86 6.22852L1076.1 6.7497C1069.65 25.7206 1052.18 49.5123 1033.68 74.7113C996.944 124.744 955.287 181.553 987.018 218.166C1002.63 236.407 1029.78 249.071 1056.04 261.397C1091.54 278.023 1128.15 295.274 1136.64 325.997C1147.2 364.565 1131.38 429.399 1114.66 473.178C1101.94 506.898 1087.34 508.149 1026.51 513.465H1025.11C978.322 517.53 966.105 519.302 934.162 540.905Z" fill="white"/>
<path d="M929.962 548.748L926.017 547.758C940.737 525.425 970.728 519.588 999.659 513.881C1029.35 508.122 1057.22 502.676 1071.35 481.021C1080.05 467.705 1083.74 451.079 1087.26 434.975C1089.44 423.456 1092.7 412.023 1097.01 400.733C1098.67 396.824 1100.49 392.916 1102.32 388.798C1112.03 367.482 1122.04 345.436 1115.26 324.329C1105.41 293.735 1068.13 276.589 1028.67 258.426C995.629 243.233 961.48 227.52 945.827 203.285C921.478 165.5 962.286 119.245 1001.74 74.502C1023.75 49.5375 1044.58 25.9282 1052.13 5.57617L1056.38 6.14947C1048.66 26.9966 1027.74 50.6059 1005.47 75.7528C966.486 120.053 926.186 165.682 949.772 202.321C964.959 225.774 998.641 241.409 1031.22 256.341C1069.4 273.983 1109.27 292.25 1119.41 323.807C1126.41 345.541 1116.23 367.899 1106.43 389.502C1104.61 393.515 1102.78 397.476 1101.13 401.385C1096.85 412.553 1093.64 423.864 1091.5 435.261C1087.89 451.496 1084.2 468.304 1075.3 481.907C1060.41 504.708 1030.2 510.572 1000.97 516.305C971.746 522.037 943.918 527.536 929.962 548.748Z" fill="white"/>
<path d="M929.538 558.807L925.296 558.234C932.507 539.029 949.772 533.4 969.752 526.963C977.574 524.508 985.165 521.784 992.49 518.807C1017.35 508.383 1019.43 504.553 1027.15 490.481C1028.34 488.344 1029.65 485.947 1031.18 483.262C1038.35 470.858 1043.9 457.516 1048.91 444.617C1054.55 429.546 1061.63 414.693 1070.12 400.135C1072.54 396.252 1075.13 392.317 1077.76 388.252C1092.01 366.44 1106.77 343.952 1100.11 321.437C1090.4 288.707 1048.87 270.518 1004.88 251.234C968.437 235.208 930.81 218.817 913.842 193.305C888.983 155.963 933.737 112.523 976.964 70.4635C1001.23 46.828 1024.14 24.6258 1032.87 5.13379L1037.12 5.81132C1028.21 25.7985 1005.17 48.2352 980.739 71.9749C938.064 113.461 893.904 156.354 917.957 192.445C934.416 217.175 971.534 233.436 1007.46 249.175C1050.18 267.886 1094.38 287.247 1104.44 321.02C1111.31 344.212 1096.34 367.118 1081.83 389.268C1079.2 393.281 1076.61 397.242 1074.23 401.125C1065.82 415.62 1058.84 430.414 1053.32 445.425C1048.1 458.454 1042.67 471.797 1035.5 484.305C1033.98 486.911 1032.66 489.36 1031.47 491.497C1023.8 505.491 1021.21 510.181 995.163 521.126C987.728 524.173 980.008 526.949 972.043 529.439C952.021 535.641 936.325 540.774 929.538 558.807Z" fill="white"/>
<path d="M931.871 570.272L927.629 570.064C929.75 553.1 945.022 537.516 959.742 522.454C971.28 510.676 983.243 498.48 988.97 485.607C996.351 469.19 1012.6 448.864 1029.82 427.365C1059.52 390.023 1093.45 347.703 1085.52 317.918C1076.1 282.869 1027.53 262.517 980.57 242.816C940.44 225.982 898.91 208.601 880.585 181.969C855.132 144.757 904.171 104.47 951.767 65.5376C978.492 43.6742 1003.73 23.0355 1013.83 4.24707L1017.86 5.08095C1007.51 24.2603 982.097 45.0553 955.16 67.1011C908.285 105.46 859.798 145.121 884.487 180.952C902.346 207.011 943.325 224.054 982.946 240.679C1030.67 260.667 1080 281.357 1089.72 317.475C1097.95 348.094 1063.76 390.805 1033.6 428.486C1016.63 449.88 1000.34 470.18 993.084 486.285C987.145 499.496 975.098 511.848 963.39 523.783C948.246 539.341 933.907 553.933 931.871 570.272Z" fill="white"/>
<path d="M931.447 582.598C930.344 553.517 934.034 509.269 944.852 480.838C953.675 457.542 979.934 434.61 1007.76 410.323C1043.65 379.052 1080.73 346.583 1075.89 313.905C1070.5 277.579 1013.96 254.256 959.275 231.741C919.993 215.533 879.354 198.803 859.289 177.487C819.923 135.793 873.754 98.4502 925.847 62.4108C953.76 43.1272 982.564 23.3224 994.951 3.43945L998.896 4.35152C986.169 24.5732 957.154 44.6907 929.029 64.1306C878.124 99.4665 825.098 136.027 862.937 176.184C882.536 197.031 920.969 212.666 961.608 229.579C1017.14 252.432 1074.53 276.094 1080.13 313.671C1085.09 347.208 1047.55 379.991 1011.2 411.73C983.667 435.783 957.62 458.636 948.966 481.308C938.234 509.555 934.586 553.517 935.689 582.442L931.447 582.598Z" fill="white"/>
<path d="M939.719 595.107H935.477C935.731 577.986 926.017 561.778 916.642 546.116C904.807 526.285 892.547 505.803 900.14 483.21C909.218 456.343 945.276 430.832 980.146 406.206C1022.91 375.978 1067.11 344.707 1063.12 310.439C1058.67 272.472 995.757 247.273 934.883 222.908C889.917 204.875 847.369 187.858 826.371 165.969C784.586 122.477 842.448 89.7466 898.486 58.0851C929.411 40.5735 961.396 22.4886 976.243 2.78809L980.103 3.88256C964.747 24.0261 932.465 42.2934 901.116 59.9874C843.89 92.3525 789.846 122.946 829.891 164.614C850.423 185.982 892.505 202.842 937.089 220.693C998.811 245.422 1062.61 270.96 1067.19 310.231C1071.44 345.593 1026.55 377.254 983.2 407.874C948.712 432.265 912.994 457.386 904.17 483.705C896.831 505.568 908.412 524.8 920.502 545.178C930.132 561.074 939.973 577.491 939.719 595.107Z" fill="white"/>
<path d="M938.532 607.459C931.617 593.048 916.43 578.482 900.353 563.159C874.179 538.064 847.115 512.083 856.363 485.477C866.416 456.578 909.728 430.259 951.64 404.695C1001.53 374.336 1053.15 342.961 1049.89 306.922C1047.93 285.058 1004.2 263.065 975.268 248.524L965.087 243.312C949.391 235.182 930.132 227.025 909.94 218.348C867.01 200.106 818.311 179.494 794.046 154.634C749.844 109.447 811.481 80.9129 871.04 53.3426C904.977 37.7073 940.059 21.3683 957.324 1.90234L961.057 3.15318C943.368 23.1143 907.904 39.6356 873.585 55.4273C812.839 83.5449 755.486 110.151 797.652 153.305C821.493 177.67 869.767 198.152 912.188 216.211C932.677 224.914 952.021 233.123 967.844 241.305L977.983 246.517C1007.68 261.345 1052.09 283.755 1054.34 306.791C1057.69 344.004 1005.39 375.795 954.821 406.545C913.376 431.718 870.531 457.777 860.732 485.92C851.824 511.484 878.421 536.996 904.128 561.647C920.333 577.283 935.689 591.928 942.774 606.677L938.532 607.459Z" fill="white"/>
<path d="M939.295 618.378C928.647 602.221 905.358 586.846 880.33 570.586C844.612 547.133 807.663 522.95 810.802 495.562C815.044 459.34 869.343 430.728 921.86 403.053C978.067 373.476 1036.14 342.883 1029.18 304.029C1021.46 260.797 953.633 236.12 888.05 212.25C830.443 191.403 770.884 169.643 750.862 135.298C731.178 101.421 743.65 90.0335 793.876 70.359C808.681 64.574 822.765 59.7791 836.297 55.1406C875.876 41.6682 910.067 30.0459 938.107 1.48535L941.713 2.81436C913.291 31.9743 878.633 43.779 838.503 57.5381C824.928 62.1505 810.887 66.9192 796.082 72.6783C747.256 91.7794 735.887 102.229 754.764 134.516C774.278 167.976 833.2 189.396 890.129 210.087C956.602 234.269 1025.37 259.286 1033.3 303.899C1040.51 344.264 981.546 375.3 924.575 405.32C872.694 432.5 819.032 460.617 815.002 495.745C811.99 522.012 848.302 545.804 883.384 568.709C908.497 585.153 932.21 600.71 943.155 617.309L939.295 618.378Z" fill="white"/>
<path d="M936.283 627.498C912.485 597.426 889.196 585.387 856.999 568.709C846.775 563.497 835.152 557.426 822.468 550.259C799.858 537.517 770.036 518.155 771.903 497.386C775.339 459.47 835.916 430.336 894.499 402.193C956.263 372.564 1020.4 341.658 1013.49 301.293C1005.77 256.524 934.12 230.934 864.804 206.178C804.1 184.523 741.36 162.112 720.574 126.724C708.484 120.679 701.824 114.06 700.805 107.076C699.702 99.5187 705.047 91.4405 717.053 82.9974L717.519 82.7629L765.964 63.6356C782.084 58.4238 797.185 54.0981 811.821 50.0589C852.969 38.6191 888.56 28.7688 918.678 0.807617L922.242 2.24085C891.402 30.9056 855.344 40.8341 813.56 52.4303C799.009 56.4694 783.865 60.6388 768.127 65.8767L720.064 84.8476C709.078 92.6652 704.029 100.066 705.005 106.841C705.938 113.174 712.259 119.271 723.713 124.926L724.179 125.135V125.499C744.414 160.184 806.688 182.438 866.925 203.937C937.174 229.005 1009.76 254.934 1017.69 301.006C1024.86 342.831 959.911 373.971 897.129 404.225C839.309 432.03 779.496 460.799 776.145 497.542C774.363 517.191 803.379 535.953 825.353 548.331C838.079 555.471 849.533 561.361 859.714 566.729C892.335 583.589 915.921 595.784 940.101 626.352L936.283 627.498Z" fill="white"/>
<path d="M928.35 634.091C901.243 602.586 874.221 590.104 836.891 572.879C824.589 567.198 810.675 560.788 795.616 553.074C776.187 543.146 735.717 522.429 737.669 498.741C740.893 459.653 806.009 430.154 869.173 401.672C935.35 371.756 1003.82 340.798 996.775 299.391C988.927 253.527 914.394 227.26 842.278 201.852C779.071 179.598 713.701 156.562 692.236 120.21C679.807 114.164 672.977 107.545 671.917 100.561C670.814 93.0303 676.456 84.926 688.63 76.5611L689.139 76.2745L739.62 58.6326C756.588 53.7074 772.708 50.0071 788.149 46.437C830.57 36.6649 867.01 28.1958 898.656 0.416992L902.134 1.90235C869.725 30.3847 832.607 38.9581 789.677 48.8084C774.278 52.3524 758.37 56.0267 741.572 60.8736L691.557 78.3592C680.358 86.1768 675.183 93.4994 676.159 100.249C677.092 106.581 683.54 112.679 695.333 118.334L695.8 118.542L696.012 118.907C716.755 154.555 781.659 177.409 844.484 199.507C917.49 225.253 992.957 251.859 1001.06 299.052C1008.4 341.945 938.913 373.346 871.761 403.705C809.53 431.822 745.22 461.034 742.123 498.793C740.299 521.178 779.623 541.322 798.543 550.911C813.517 558.547 827.389 564.957 839.648 570.612C876.003 587.394 904.722 600.658 932.338 632.71L928.35 634.091Z" fill="white"/>
<path d="M914.181 637.583C886.226 604.983 855.513 591.824 816.613 575.042C802.827 569.126 787.173 562.403 770.417 554.195C746.746 542.703 707.168 523.497 709.246 499.315C712.725 459.444 780.471 429.868 845.968 401.255C914.648 371.287 985.66 340.277 978.321 298.244C970.219 251.755 893.989 225.123 820.219 199.377C755.443 176.758 688.503 153.383 666.656 116.405C654.227 110.333 647.355 103.714 646.336 96.7046C645.191 89.1475 650.791 81.0692 662.965 72.6001L663.559 72.3134L715.27 55.5576C733.214 50.8409 749.843 47.5314 765.963 44.3001C808.808 35.7268 845.841 28.326 877.996 0L881.475 1.48536C848.514 30.515 810.844 37.9678 767.278 46.7497C751.243 49.9549 734.699 53.2644 717.052 57.8768L665.85 74.4763C654.693 82.294 649.518 89.6687 650.536 96.444C651.512 102.802 657.96 108.9 669.753 114.555L670.262 114.789L670.474 115.154C691.684 151.402 758.03 174.621 822.34 197.083C897.001 223.142 974.206 250.139 982.521 297.931C990.157 341.502 918.084 372.955 848.429 403.366C783.737 431.614 716.924 460.695 713.488 499.445C711.537 522.246 750.013 540.957 772.877 552.11C789.549 560.214 804.439 566.599 818.862 572.801C858.228 589.687 889.322 603.003 917.787 636.176L914.181 637.583Z" fill="white"/>
<path d="M892.632 638C864.677 605.739 833.837 592.214 794.81 575.093C780.514 568.813 765.751 562.351 749.292 554.246C724.221 541.894 686.382 523.21 688.249 499.523C691.43 459.6 759.261 429.945 824.843 401.254C893.523 371.235 964.535 340.198 957.366 298.139C949.391 251.52 872.864 225.174 798.797 199.48C733.978 177.122 666.784 153.669 644.895 116.795C632.55 110.724 625.763 104.079 624.702 97.0428C623.557 89.4597 628.944 81.4075 641.034 72.8862L641.628 72.5996L693.594 55.8177C711.75 51.101 728.591 47.7915 744.88 44.5863C787.937 36.1432 825.098 28.9509 857.041 0.286133L860.562 1.77149C827.77 31.0356 789.974 38.4885 746.026 47.0879C729.821 50.2671 713.107 53.5505 695.121 58.189L643.664 74.7886C632.635 82.6062 627.587 90.0069 628.605 96.8083C629.581 103.193 635.986 109.317 647.694 115.05L648.203 115.284V115.623C669.414 151.897 736.099 174.959 800.579 197.239C875.579 223.142 953.081 249.93 961.269 297.905C968.692 341.449 896.662 372.955 827.007 403.417C762.23 431.717 695.248 461.008 692.194 499.679C690.412 522.038 727.276 540.201 751.583 552.24C767.915 560.318 782.635 566.781 796.888 573.087C836.382 590.39 867.561 604.071 895.983 636.879L892.632 638Z" fill="white"/>
<path d="M865.185 638C838.333 606.729 809.359 592.371 772.665 574.129C759.939 567.849 747.213 561.387 732.705 553.569C710.519 541.504 673.316 521.256 674.97 498.845C677.813 459.444 743.565 429.581 807.153 400.734C873.881 370.453 942.9 339.13 935.816 297.514C927.925 251.208 851.78 225.696 778.138 201.096C713.531 179.441 646.633 157.057 624.787 120.522C612.442 114.451 605.612 107.832 604.552 100.796C603.406 93.2386 608.794 85.1604 620.884 76.6652L621.435 76.3785L673.486 58.893C691.387 53.9679 708.143 50.3978 724.391 46.932C767.829 37.6811 805.329 29.681 837.23 1.14648L840.708 2.63184C808.044 31.8439 769.908 39.9742 725.79 49.5379C709.671 52.9776 692.999 56.5216 675.395 61.3425L623.853 78.6978C612.866 86.5154 607.776 93.9161 608.836 100.691C609.897 107.467 616.218 113.174 627.926 118.933L628.392 119.167L628.604 119.532C649.815 155.337 716.076 177.539 780.216 199.038C854.792 224.028 931.955 249.905 940.058 297.566C947.396 340.642 877.402 372.408 809.699 403.131C746.916 431.639 681.97 461.112 679.255 499.262C677.728 520.552 713.913 540.279 735.547 552.058C749.843 559.875 762.824 566.26 775.38 572.514C812.414 590.964 841.726 605.504 869.003 637.192L865.185 638Z" fill="white"/>
<path d="M832.521 637.948C818.947 620.436 789.676 602.977 758.709 584.475C712.471 556.878 664.663 528.318 667.293 497.334C670.559 458.871 732.621 428.851 792.646 399.795C856.277 369.072 921.775 337.254 914.181 296.394C905.697 250.816 830.443 226.816 757.649 203.598C693.636 183.194 627.46 162.086 605.358 126.229C593.056 120.261 586.269 113.668 585.166 106.685C584.021 99.1276 589.408 91.0493 601.583 82.476L602.092 82.1893L654.269 63.5572C671.959 58.3454 688.673 54.3323 704.793 50.5277C748.698 40.1042 786.622 31.1399 818.395 2.18848L821.874 3.64778C789.38 33.2768 750.904 42.3974 706.32 52.9773C690.242 56.7819 673.656 60.795 656.263 66.0067L604.552 84.5086C593.438 92.3262 588.348 99.8051 589.408 106.607C590.384 112.939 596.789 118.984 608.455 124.561L608.922 124.796V125.134C630.132 160.262 695.884 181.187 759.388 201.435C833.2 224.888 909.515 249.305 918.211 296.263C926.017 338.609 859.459 370.844 795.191 402.01C735.802 430.675 674.631 460.356 671.45 497.62C668.905 527.432 716.034 555.549 761.594 582.755C792.858 601.413 822.383 619.055 836.254 636.983L832.521 637.948Z" fill="white"/>
<path d="M795.828 637.844C785.096 620.723 761.892 602.821 736.948 583.876C699.151 554.977 660.082 525.113 664.154 495.432C669.202 458.663 725.834 428.487 780.599 399.301C842.618 366.258 901.201 335.066 892.675 295.065C883.173 250.504 809.106 228.485 737.457 207.168C674.208 188.354 608.838 168.888 586.482 133.917C574.265 128.054 567.477 121.565 566.374 114.633C565.144 107.05 570.616 98.8416 582.961 90.2421L583.427 90.0076L635.732 69.838C653.294 64.1832 669.881 59.7532 685.958 55.4795C730.415 43.6227 768.764 33.4077 800.495 3.72656L804.058 5.1598C771.733 35.4924 732.791 45.8638 687.74 57.8509C671.748 62.1246 655.203 66.5285 637.938 72.1051L585.973 92.1705C574.689 100.171 569.513 107.676 570.616 114.477C571.592 120.731 577.998 126.672 589.536 132.171L590.045 132.379L590.257 132.718C611.765 166.96 676.626 186.243 739.281 204.901C812.033 226.634 887.075 248.863 896.874 294.778C905.698 336.108 843.509 369.229 783.399 401.281C729.27 430.102 673.105 459.94 668.396 495.64C664.451 524.305 702.969 553.752 740.257 582.26C765.243 601.362 788.829 619.42 799.646 636.984L795.828 637.844Z" fill="white"/>
<path d="M756.207 637.713C748.698 620.436 732.069 602.143 714.465 582.781C687.316 552.918 659.318 522.038 664.366 493.165C670.475 458.585 721.04 428.252 769.909 398.91C827.05 364.746 881.009 332.277 871.422 293.684C860.477 250.452 787.895 230.673 717.646 211.572C655.076 194.608 590.724 177.122 568.071 143.246C555.896 137.539 549.151 131.181 548.006 124.327C546.733 116.718 552.248 108.431 564.974 99.6753L565.398 99.4669L617.873 77.5774C635.223 71.4014 651.809 66.4502 667.76 61.6814C712.81 48.1829 751.71 36.5607 783.187 5.86328L786.75 7.27046C754.637 38.5411 715.228 50.3719 669.626 64.0268C653.718 68.7955 637.217 73.7207 620.121 79.6621L567.986 101.421C556.448 109.552 551.018 117.057 552.333 123.962C553.351 130.138 559.714 135.975 571.21 141.291L571.677 141.5L571.889 141.839C593.693 175.038 657.536 192.419 719.301 209.201C790.568 228.615 864.253 248.654 875.537 293.293C885.633 333.241 828.365 367.587 773.005 400.812C724.646 429.816 674.674 459.809 668.693 493.477C663.73 521.543 691.473 552.032 718.283 581.531C736.015 601.049 752.813 619.498 760.449 637.062L756.207 637.713Z" fill="white"/>
<path d="M714.804 637.557C710.986 620.228 701.696 601.856 691.897 582.39C676.286 551.432 660.124 519.432 666.657 490.689C673.868 459.053 717.562 428.773 759.643 399.483C809.488 364.876 860.986 329.124 849.83 292.12C837.103 250.426 766.176 233.07 697.539 216.315C636.029 201.331 572.483 185.826 549.66 152.809C524.929 117.056 551.357 104.6 600.226 85.6292C617.194 79.0102 633.738 73.5118 649.646 68.1958C695.333 52.9253 734.742 39.7395 766.049 7.89551L769.697 9.25057C737.796 41.6157 697.879 55.01 651.682 70.4369C635.817 75.6486 619.443 81.2513 602.474 87.8182C550.297 108.066 531.25 119.532 553.563 151.767C575.876 184.002 638.405 199.09 699.066 213.865C768.806 230.882 840.921 248.471 853.987 291.625C865.525 329.853 813.305 366.101 762.825 401.072C721.083 430.102 677.983 460.096 670.856 490.949C664.451 519.119 680.444 550.885 695.927 581.53C705.811 601.074 715.144 619.55 719.004 637.114L714.804 637.557Z" fill="white"/>
<path d="M676.88 637.375H672.638C672.638 620.827 670.729 603.785 668.692 585.7C665.002 552.814 661.184 518.781 669.88 488.109C677.77 460.122 713.998 430.285 749.037 401.438C794.258 364.173 841.006 325.658 828.407 290.479C814.026 250.296 744.668 235.494 677.643 221.162C617.279 208.289 554.878 194.947 531.589 163.129C506.348 128.679 534.558 114.477 582.706 94.1249C599.674 87.0108 615.963 80.9391 631.786 75.0758C678.067 57.9291 718.07 43.1537 749.25 10.085L752.898 11.3879C721.167 45.0299 680.782 59.9878 634.12 77.2909C618.339 83.1541 602.007 89.1998 585.251 96.2878C537.527 116.431 511.693 129.435 535.576 162.06C558.102 192.862 619.654 205.996 679.128 218.713C747.298 233.279 817.801 248.315 832.691 289.931C845.714 326.258 798.33 365.268 752.558 403.001C717.816 431.666 681.885 461.191 674.165 488.552C665.681 518.911 669.371 552.788 673.062 585.544C674.971 603.629 676.88 620.749 676.88 637.375Z" fill="white"/>
<path d="M635.01 637.557L630.768 637.218C638.87 598.807 650.579 559.823 661.862 522.116C665.511 509.921 669.159 497.751 672.68 485.634C679.976 460.461 708.44 432.656 738.559 403.209C779.113 363.574 821.068 322.609 806.984 288.915C790.864 250.296 723.118 237.918 657.663 225.957C598.274 215.142 537.188 203.963 513.432 173.396C486.283 138.529 521.068 122.659 565.101 102.568C581.814 94.9326 598.104 88.3397 613.885 81.9553C660.759 62.9583 701.229 46.5412 732.323 12.2998L736.014 13.5506C704.495 48.3393 663.559 64.9127 616.26 84.0921C600.522 90.4765 584.275 97.1215 567.688 104.626C519.117 126.777 492.858 140.848 517.293 172.223C540.242 201.748 600.564 212.771 658.893 223.429C725.536 235.599 794.639 248.185 811.141 288.237C825.649 323 783.228 364.486 742.207 404.564C712.301 433.803 684.049 461.399 676.879 486.077C673.359 498.194 669.71 510.39 666.062 522.559C654.778 560.188 643.112 599.277 635.01 637.557Z" fill="white"/>
<path d="M594.498 637.688L590.256 637.062C600.14 612.28 615.412 588.593 630.174 565.661C647.143 539.289 664.705 512.032 673.868 483.237C685.491 446.754 708.653 416.917 733.257 385.229C736.905 380.512 740.596 375.744 744.329 370.871C747.595 366.597 751.413 362.011 755.443 357.138C773.429 335.587 795.785 308.746 785.604 287.378C767.914 250.218 701.696 240.107 637.64 230.335C579.524 221.475 519.456 212.328 495.149 182.934C467.406 149.422 502.7 132.197 547.327 110.412C563.871 102.334 580.118 95.2456 595.813 88.366C643.24 67.5189 684.176 49.6686 715.228 14.3066L718.961 15.5314C687.442 51.4406 644.131 70.4115 598.274 90.5029C582.621 97.3564 566.416 104.418 549.957 112.471C506.815 133.5 472.751 150.126 499.052 181.761C522.468 210.087 581.603 219.104 638.786 227.807C703.986 237.762 771.435 248.029 789.804 286.648C800.451 309.007 777.671 336.343 759.345 358.336C755.315 363.157 751.498 367.744 748.274 371.991C744.541 376.864 740.85 381.633 737.202 386.35C711.749 419.236 689.818 447.666 678.322 483.758C669.032 512.761 651.385 540.149 634.331 566.625C619.527 589.453 604.17 613.062 594.498 637.688Z" fill="white"/>
<path d="M556.362 637.792L552.374 636.958C565.991 612.15 587.753 589.635 608.794 567.85C634.883 540.905 661.82 513.126 672.425 481.204C686.339 439.796 706.15 407.327 730.584 369.151C733.426 364.694 736.82 359.9 740.426 354.818C755.74 333.241 774.829 306.401 764.054 285.971C745.092 250.009 680.146 241.931 617.321 234.113C560.265 226.999 501.215 219.651 476.441 191.351C448.147 159.038 484.628 140.197 526.88 118.386L529.001 117.317C545.417 108.848 561.58 101.291 577.191 93.9946C625.084 71.6361 666.274 52.3004 697.453 16.0264L701.229 17.2251C669.795 54.0463 626.059 74.5547 579.736 96.0793C564.167 103.35 548.047 110.881 531.758 119.298L529.637 120.392C487.216 142.334 453.492 159.663 480.174 190.1C504.015 217.331 562.046 224.576 618.169 231.56C682.182 239.507 748.358 247.742 768.084 285.163C779.368 306.531 759.939 333.893 744.328 355.86C740.723 360.916 737.371 365.685 734.529 370.089C710.18 408.109 690.454 440.448 676.582 481.673C665.765 513.934 638.616 541.999 612.357 569.127C591.444 590.86 569.852 613.244 556.362 637.792Z" fill="white"/>
<path d="M521.747 637.87L517.844 636.906C534.388 611.42 561.707 589.322 588.093 567.954C621.224 541.139 655.5 513.439 667.038 479.562C679.58 441.788 695.699 404.495 715.313 367.874C717.858 363.157 720.955 358.049 724.264 352.655C737.329 331.183 753.619 304.446 742.589 284.902C722.779 249.749 658.851 243.208 597.001 237.136C540.751 231.507 482.465 225.67 457.352 198.204C428.591 166.933 466.218 146.634 506.051 125.239L510.293 122.972C526.54 114.19 542.66 106.268 558.229 98.6331C604.467 75.9097 648.161 54.3329 679.17 17.5117L682.946 18.7104C651.512 56.1571 607.479 77.786 560.859 100.666C545.333 108.301 529.255 116.301 513.093 124.927L508.851 127.194C468.721 148.796 434.063 167.455 461.128 196.953C485.308 223.325 542.448 229.058 597.723 234.582C660.802 240.915 726.003 247.455 746.619 284.094C758.158 304.551 741.571 331.756 728.294 353.619C724.985 358.988 721.888 364.043 719.385 368.76C699.809 405.284 683.732 442.482 671.238 480.161C659.317 514.533 624.914 542.494 591.444 569.517C565.228 590.755 538.079 612.723 521.747 637.87Z" fill="white"/>
<path d="M491.756 637.895L487.853 636.879C506.094 610.273 537.613 588.279 568.071 567.015C607.352 539.575 644.428 513.646 656.348 478.415L661.015 464.552C672.044 431.535 682.48 400.368 697.793 366.961C700.127 361.879 703.054 356.381 706.278 350.596C718.113 328.342 731.73 303.117 721.04 283.937C701.739 248.992 638.107 243.833 576.385 238.829C520.644 234.321 462.952 229.657 437.584 202.868C408.526 172.197 445.602 151.662 484.841 129.903L490.568 126.724C506.73 117.734 522.808 109.551 538.334 101.629C584.997 77.9938 628.732 55.6353 659.784 18.3711L663.56 19.5698C632.084 57.251 587.881 79.844 541.049 103.662C525.523 111.48 509.488 119.714 493.41 128.678L487.683 131.858C449.759 152.861 413.914 172.718 441.233 201.565C465.582 227.233 522.214 231.82 576.979 236.25C639.847 241.461 704.878 246.673 724.985 283.156C735.972 303.143 722.27 328.811 710.223 351.456C707.126 357.241 704.199 362.687 701.739 367.717C686.51 401.02 676.286 432.16 665.045 465.125L660.378 479.014C648.288 514.845 609.049 542.233 571.295 568.709C541.006 589.843 509.742 611.68 491.756 637.895Z" fill="white"/>
<path d="M467.363 637.87L463.461 636.906C481.829 608.553 515.808 586.482 548.726 565.113C589.323 538.716 627.714 513.803 639.21 478.129C641.303 471.701 643.339 465.316 645.319 458.975C655.33 427.705 664.79 397.919 677.516 366.753C679.764 361.254 682.776 355.235 686 348.824C696.987 326.805 709.459 301.918 699.193 283.677C679.425 248.576 616.303 244.12 555.302 239.794C499.943 235.859 442.717 231.82 417.052 205.057C387.825 174.516 426.003 153.018 463.079 132.197L469.866 128.392C485.944 119.272 502.021 110.933 517.547 102.881C564.21 78.6979 608.073 55.9745 639.252 18.7363L643.028 19.935C611.467 57.538 567.18 80.522 520.262 104.861C504.779 112.913 488.744 121.226 472.751 130.294L465.964 134.125C428.548 155.155 393.254 175.012 420.658 203.598C445.262 229.24 501.258 233.227 555.726 237.058C618.084 241.488 682.522 246.048 703.138 282.713C713.87 301.788 701.229 327.196 690.03 349.606C686.848 355.965 683.879 361.958 681.546 367.378C668.82 398.493 659.402 428.122 649.391 459.47C647.383 465.811 645.347 472.196 643.282 478.624C631.532 515.106 590.935 541.4 551.696 566.911C519.329 588.097 485.392 609.987 467.363 637.87Z" fill="white"/>
<path d="M447.68 635.081L443.735 634.117C462.146 605.452 496.549 583.406 529.807 562.116C570.488 536.057 608.922 511.458 620.587 475.679C624.532 463.509 628.35 451.21 631.998 439.327C639.337 415.613 646.888 391.092 656.136 366.753C658.257 361.098 661.226 354.922 664.323 348.381C674.504 326.961 686 302.726 675.989 284.849C656.645 250.269 594.838 244.953 535.067 239.794C480.938 235.129 424.773 230.308 399.575 203.911C370.474 173.604 406.914 152.991 445.517 131.154L451.456 127.61C467.024 118.75 482.55 110.62 497.567 102.75C543.424 78.6975 586.651 56.0002 618 19.2051L621.733 20.4298C590.256 57.7462 546.605 80.7041 500.452 104.835C485.477 112.652 469.994 120.809 454.468 129.643L448.401 133.082C411.071 154.164 375.862 174.073 403.266 202.582C427.573 227.885 482.55 232.627 535.661 237.214C596.704 242.426 659.784 247.924 679.892 283.99C690.327 302.648 678.619 327.325 668.268 349.137C665.171 355.678 662.244 361.827 660.123 367.378C650.918 391.665 643.155 416.134 636.028 439.822C632.38 451.731 628.605 464.031 624.617 476.304C612.697 512.787 572.058 538.846 532.734 564.019C499.9 585.022 465.794 606.859 447.68 635.081Z" fill="white"/>
<path d="M430.67 627.394L426.767 626.429C445.305 597.765 480.26 576.136 514.027 555.184C555.344 529.568 594.372 505.36 605.825 469.581C609.516 457.933 616.006 442.844 622.793 426.87C643.325 379.078 668.862 319.586 651.3 287.273C632.89 253.396 573.713 246.595 516.445 240.028C464.649 234.087 411.071 227.937 386.764 201.852C358.427 171.415 394.358 150.881 432.367 129.121L436.863 126.515C451.753 117.968 466.558 110.124 480.769 102.567C525.014 79.1143 566.798 56.9643 597.044 20.9248L600.82 22.1235C570.192 58.606 528.11 80.9124 483.569 104.548C469.315 112.079 454.595 119.896 439.79 128.418L435.251 131.024C397.073 152.939 363.772 171.884 390.455 200.549C413.786 225.565 466.388 231.611 517.251 237.448C575.664 244.145 636.029 251.077 655.33 286.413C673.274 319.482 647.567 379.391 626.908 427.522C620.036 443.444 613.588 458.48 609.94 470.05C598.274 506.532 556.956 532.226 516.996 557.009C483.568 577.804 448.911 599.276 430.67 627.394Z" fill="white"/>
<path d="M415.865 615.719L411.962 614.703C431.433 586.664 466.346 565.191 500.07 544.344C544.315 517.165 586.1 491.471 595.262 452.434C598.062 440.604 603.747 425.151 609.685 408.812C624.49 368.29 642.943 317.866 630.09 288.941C615.752 256.706 556.829 246.647 499.858 236.823C457.098 229.501 412.896 221.943 388.376 204.953C347.228 176.445 374.165 155.754 416.671 129.591C434.064 118.907 451.456 109.473 468.297 100.327C509.106 78.2287 547.666 57.3294 576.216 23.3486L579.991 24.5473C551.06 58.9711 512.118 80.0007 471.097 102.281C454.341 111.402 437.16 120.809 419.64 131.441C377.517 157.5 352.785 176.366 391.558 203.233C415.229 219.65 458.837 227.103 501.003 234.321C559.12 244.25 619.23 254.517 634.162 288.185C647.313 317.736 628.732 368.499 613.8 409.307C607.861 425.594 602.219 440.995 599.462 452.747C590.087 492.617 545.885 519.823 503.082 546.116C469.612 566.859 434.997 588.149 415.865 615.719Z" fill="white"/>
<path d="M402.714 600.996L398.812 599.954C418.283 572.957 453.959 552.24 488.574 532.201C534.728 505.438 578.294 480.083 585.717 441.49C587.372 432.656 589.96 421.92 592.929 410.558C602.686 371.47 614.903 322.609 602.728 293.475C589.493 261.709 535.915 249.54 483.95 237.761C444.711 228.823 404.157 219.52 381.249 201.904C343.071 172.432 369.414 151.689 407.72 127.636C423.967 117.421 440.129 108.535 455.783 99.9097C493.58 79.0626 529.255 59.3881 555.259 26.7363L559.077 27.8829C532.819 60.9517 496.846 80.7043 458.752 101.812C443.141 110.411 427.064 119.298 410.902 129.434C374.08 152.549 348.755 172.458 384.728 200.263C406.872 217.409 446.874 226.478 485.562 235.286C538.418 247.299 593.056 259.703 606.843 292.798C619.187 322.453 606.843 371.496 597.086 410.923C594.286 422.258 591.614 432.995 589.917 441.776C582.324 481.386 536.297 508.07 491.501 534.129C457.267 553.96 421.761 574.494 402.714 600.996Z" fill="white"/>
<path d="M390.667 584.162L386.891 583.042C407.635 556.748 443.523 537.074 478.266 518.051C522.001 494.103 563.107 471.457 575.833 437.007C586.905 406.649 586.311 330.166 571.082 299.26C555.853 268.354 509.911 254.595 465.412 241.279C425.706 229.37 384.813 217.07 364.663 192.757C344.513 168.444 369.456 146.529 393.085 129.851C410.922 117.503 430.037 105.874 450.31 95.0366C482.635 77.1341 510.548 61.6551 534.643 30.3584L538.46 31.4529C514.026 63.2447 485.816 78.8801 453.152 96.991C433.006 107.741 414.019 119.283 396.309 131.545C373.571 147.623 349.646 168.992 368.481 191.481C387.867 214.934 428.251 227.129 467.321 238.856C512.626 252.432 559.501 266.478 575.197 298.426C590.553 329.697 591.147 406.857 580.033 437.503C567.307 472.786 525.395 495.666 481.108 519.927C446.662 538.872 411.071 558.364 390.667 584.162Z" fill="white"/>
<path d="M379.34 566.155L375.564 564.931C403.562 532.774 429.057 517.191 475.592 494.415L489.082 487.874C533.878 466.246 563.446 451.965 569.47 416.525C574.348 387.86 558.567 333.475 545.841 303.977C532.394 272.941 493.536 257.357 452.515 240.836C421.973 228.562 390.411 215.898 370.771 196.354C337.979 163.78 370.134 141.812 404.198 118.568L406.744 116.822C419.47 108.118 430.923 101.186 441.995 94.3329C470.375 76.9516 492.9 63.2186 514.11 34.3975L517.971 35.4659C496.421 64.8603 473.768 78.7497 445.049 96.3134C434.02 103.063 422.609 110.046 410.01 118.672L407.422 120.444C373.019 143.897 343.324 164.197 374.461 195.129C393.593 214.152 424.772 226.686 455.061 238.777C495.064 254.83 536.424 271.455 550.253 303.456C562.979 333.137 578.972 387.965 574.051 416.916C567.815 453.399 537.654 468.018 492.009 490.037L478.562 496.578C432.154 518.989 406.956 534.416 379.34 566.155Z" fill="white"/>
<path d="M368.099 547.862L364.408 546.585C393.424 514.897 418.41 500.461 467.024 478.102C472.496 475.496 478.011 473.125 483.398 470.727C524.801 452.2 560.562 436.225 561.919 403.495C562.683 385.619 547.793 361.801 534.685 340.615C527.643 329.306 521.026 318.648 517.038 309.527C503.973 279.69 471.69 261.813 437.457 242.921C411.156 228.38 383.964 213.344 366.826 192.444C335.647 154.477 384.473 121.382 431.645 89.3815C457.564 71.8178 482.041 55.2183 493.155 38.2539L497.1 39.2181C485.689 56.6254 461 73.3813 434.784 91.1274C388.546 122.398 340.737 154.92 370.602 191.272C387.358 211.728 414.295 226.608 440.299 240.966C473.472 259.207 507.748 278.256 520.898 308.85C524.843 317.84 531.419 328.446 538.418 339.677C551.696 360.993 566.713 385.176 565.949 403.574C564.549 437.45 527.983 453.919 485.689 472.838C480.302 475.236 474.829 477.659 469.357 480.187C421.464 502.311 396.775 516.591 368.099 547.862Z" fill="white"/>
<path d="M356.518 530.272L352.912 528.891C387.103 495.015 416.883 480.943 466.6 459.053C470.842 457.151 475.635 455.145 480.683 453.034C513.008 439.483 557.253 420.955 557.677 396.33C557.932 380.929 538.545 363.495 519.795 346.635C506.56 334.726 494.046 323.495 488.489 313.202C475.763 289.592 450.31 269.11 425.876 249.331C399.49 228.041 372.214 206.022 361.269 180.327C345.828 143.845 380.316 119.089 416.883 92.7695C438.517 77.1342 460.915 61.0037 472.411 42.085L476.399 42.997C464.648 62.3327 441.996 78.6717 420.107 94.4633C384.303 120.262 350.494 144.627 365.384 179.676C376.116 204.849 401.908 225.696 429.269 247.742C454.001 267.703 479.538 288.368 492.519 312.368C497.906 322.322 510.208 333.423 523.274 345.15C542.406 362.349 562.174 380.147 561.919 396.356C561.452 422.415 516.147 441.333 483.101 455.171C478.053 457.281 473.302 459.288 469.06 461.164C419.81 482.845 390.285 496.761 356.518 530.272Z" fill="white"/>
<path d="M344.174 514.09L340.313 513.021C352.365 496.396 369.794 481.45 391.54 469.09C413.286 456.731 438.895 447.216 466.812 441.125C518.184 429.972 545.291 408.447 547.412 377.098C542.151 364.355 524.844 356.955 506.518 349.085C488.192 341.215 469.994 333.449 460.661 319.821V319.404C457.964 292.377 441.373 266.573 413.277 245.709C383.374 222.644 361.564 196.027 349.222 167.532C344.089 136.913 373.699 114.529 402.333 92.8737C421.761 78.2547 441.741 63.1666 451.456 45.5508L455.698 46.4107C445.517 64.4695 425.367 79.714 405.854 94.4633C376.456 116.692 348.67 137.669 353.591 167.011C365.798 195.096 387.316 221.33 416.798 244.067C445.265 265.315 462.072 291.546 464.818 319.013C473.727 331.834 491.671 339.521 509.021 346.948C528.11 355.131 546.139 362.844 551.696 376.655V376.838V377.02C549.533 409.646 521.45 432.03 468.212 443.574C440.844 449.559 415.739 458.895 394.417 471.016C373.096 483.137 356.003 497.791 344.174 514.09V514.09Z" fill="white"/>
<path d="M330.344 500.643L326.526 499.523C352.827 465.464 396.139 441.881 455.231 429.398C507.239 419.183 534.727 398.128 536.976 366.857C529.594 354.088 510.845 350.857 490.992 347.417C470.205 343.821 446.662 339.73 433.978 323.964L433.724 323.443C432.369 296.089 419.193 269.449 395.545 246.256C370.334 220.88 352.573 192.982 343.07 163.832C339.592 134.594 363.051 115.154 387.909 94.5676C404.665 80.6782 421.846 66.2937 430.754 48.5215L434.996 49.2772C426.045 67.5184 408.483 82.0332 391.473 96.1832C367.123 116.353 344.089 135.428 347.44 163.519C356.833 192.281 374.333 219.813 399.151 244.875C423.144 268.359 436.54 295.34 437.966 323.052C449.886 337.671 471.351 341.293 492.137 344.968C512.923 348.642 533.115 352.082 541.133 366.31V366.544V366.805C538.927 399.352 510.463 421.242 456.504 431.952C398.642 444.096 356.178 467.236 330.344 500.643Z" fill="white"/>
<path d="M314.564 490.663L310.831 489.465C341.247 453.816 388.885 429.373 452.347 416.864C508.3 406.102 530.231 385.594 519.414 354.323C497.245 347.119 471.497 345.261 447.214 349.111H446.874H446.535C432.154 348.486 421.846 345.828 415.865 341.163C409.884 336.499 408.484 330.61 410.562 322.922C407.227 302.613 399.406 282.677 387.316 263.664C365.903 234.152 348.549 203.592 335.435 172.302C327.969 138.425 349.391 118.125 372.087 96.5745C386.34 83.05 401.102 69.0303 409.799 50.7891L414.041 51.5187C405.132 70.1248 390.243 84.3008 375.862 98.0078C353.591 119.142 332.593 139.103 339.804 171.807C352.856 202.919 370.125 233.306 391.43 262.648C403.723 281.961 411.672 302.212 415.059 322.844V323.052C413.107 330.167 414.592 335.691 419.301 339.496C424.01 343.3 433.639 345.854 446.62 346.453C472.179 342.52 499.212 344.641 522.341 352.395L523.189 352.681V353.255C534.897 385.933 511.396 408.161 453.45 419.34C391.261 431.64 344.471 455.64 314.564 490.663Z" fill="white"/>
<path d="M296.408 485.06L292.675 483.862C323.26 448.109 371.238 423.926 435.336 412.147C491.671 401.724 513.899 381.294 503.209 349.841C478.311 343.721 450.583 343.553 425.494 349.372H424.858C409.502 349.684 398.557 347.6 392.236 343.143C385.916 338.687 384.473 332.72 386.679 324.694C382.938 304.213 375.934 284.007 365.766 264.367C347.633 233.643 332.713 202.239 321.097 170.347C314.818 137.356 334.12 117.526 354.524 96.5481C367.25 83.3363 380.613 69.7075 388.8 51.8311L393.042 52.5347C384.558 70.7759 371.238 84.535 358.3 97.8771C338.235 118.464 319.315 137.93 325.424 169.93C337.014 201.676 351.863 232.94 369.881 263.534C380.179 283.411 387.283 303.861 391.091 324.59V324.954C389.012 332.329 390.539 337.984 395.588 341.424C400.636 344.863 410.732 347.026 424.561 346.635C450.907 340.582 480.006 340.88 506.009 347.469L507.069 347.73L507.324 348.407C518.947 381.346 495.234 403.548 436.736 414.415C373.571 426.271 326.442 449.959 296.408 485.06Z" fill="white"/>
<path d="M276.173 484.461L272.44 483.262C302.856 447.666 350.579 423.665 414.253 411.939C469.994 401.515 492.392 380.981 482.593 349.554C457.172 343.546 429.026 343.546 403.605 349.554H402.969C387.57 349.945 376.541 347.912 370.093 343.482C363.645 339.052 362.033 333.059 364.069 325.006C359.585 304.577 352.71 284.372 343.495 264.55C327.63 233.696 313.801 202.008 302.771 170.347C296.79 137.539 315.497 117.004 335.181 95.2451C346.974 82.2156 359.148 68.9256 367.251 51.9873L371.493 52.743C363.009 69.9419 350.961 83.4404 339.083 96.522C319.655 117.89 301.329 138.06 307.098 169.93C318.212 201.357 331.872 232.992 347.737 263.742C357.029 283.762 363.961 304.166 368.481 324.798V325.163C366.572 332.563 368.227 338.192 373.402 341.684C378.577 345.176 388.716 347.235 402.63 346.896C429.334 340.661 458.88 340.829 485.393 347.365L486.453 347.626L486.708 348.303C497.398 381.242 473.515 403.47 415.653 414.388C352.913 425.959 306.038 449.542 276.173 484.461Z" fill="white"/>
<path d="M259.375 486.702L255.6 485.504C269.22 468.741 288.295 453.873 311.644 441.82C334.993 429.767 362.12 420.786 391.346 415.431C444.669 404.617 466.176 384.473 457.098 353.828C433.035 346.665 405.609 344.993 379.723 349.111H379.426H379.341C364.451 348.799 353.888 346.271 347.313 341.632C340.738 336.994 339.168 331.209 340.865 323.157C335.732 303.248 329.369 283.156 322.031 263.482C308.965 233.306 297.426 202.426 287.755 171.754C282.537 139.676 299.293 117.031 316.982 92.77C327.539 79.2215 336.347 65.1847 343.326 50.7891L347.568 51.4927C340.566 66.0198 331.686 80.1801 321.012 93.8384C303.535 117.63 287.076 140.119 292.124 171.364C301.753 201.879 313.334 232.706 326.315 262.856C333.739 282.687 340.102 302.909 345.277 322.948V323.313C343.708 330.557 345.532 336.16 350.707 339.939C355.882 343.717 365.894 346.193 379.341 346.505C406.359 342.274 434.949 344.123 459.94 351.717L460.916 352.004V352.655C470.843 384.708 447.85 406.649 392.534 417.803C363.841 423.074 337.217 431.909 314.311 443.761C291.406 455.613 272.707 470.229 259.375 486.702V486.702Z" fill="white"/>
<path d="M246.436 490.897L242.618 489.777C254.552 473.714 271.836 459.366 293.355 447.66C314.873 435.954 340.147 427.15 367.547 421.815C417.561 410.453 437.329 390.544 427.997 360.941C405.958 351.961 379.589 347.87 353.252 349.345H352.7C325.169 346.427 312.74 336.837 315.752 320.915C290.045 288.576 282.536 226.191 277.573 184.861C277.149 181.083 276.682 177.487 276.258 174.125C272.355 142.854 285.166 116.796 298.698 89.1731C305.019 76.2739 311.425 62.9579 316.388 48.9121L320.63 49.4333C315.752 63.5833 309.219 76.9775 302.856 89.9288C289.408 117.343 276.724 143.219 280.585 173.917C281.009 177.278 281.433 180.874 281.9 184.679C286.905 225.956 294.414 288.315 320.078 320.185L320.333 320.524V320.915C317.364 335.612 328.223 344.081 353.464 346.974C380.958 345.474 408.456 349.826 431.348 359.3L432.112 359.586V360.107C442.208 391.039 420.997 412.694 369.117 424.525C342.253 429.707 317.455 438.291 296.324 449.723C275.194 461.155 258.199 475.182 246.436 490.897V490.897Z" fill="white"/>
<path d="M236.595 496.631L232.649 495.641C242.238 480.482 257.11 466.795 276.222 455.541C295.334 444.287 318.223 435.738 343.283 430.493C389.055 418.298 406.447 398.571 396.266 370.245C376.467 359.015 351.443 351.871 324.702 349.815H324.278C298.529 344.134 286.906 333.294 289.705 317.606C271.04 288.603 270.022 243.312 269.174 206.882C268.919 196.198 268.707 186.035 268.071 177.175C265.695 144.236 273.119 111.506 280.288 79.8709C282.791 68.848 285.378 57.4603 287.542 46.1768L291.784 46.4895C289.62 57.773 287.033 69.1868 284.53 80.366C277.531 111.715 269.937 144.341 272.313 177.123C272.949 186.061 273.161 196.172 273.416 206.908C274.264 243.234 275.282 288.446 293.82 317.007V317.32V317.632C291.063 332.303 301.371 342.023 325.381 347.366C353.122 349.517 379.054 356.985 399.49 368.708L399.999 368.994V369.385C410.859 398.91 392.194 420.33 344.598 433.021C320.141 438.153 297.804 446.504 279.148 457.491C260.493 468.479 245.97 481.836 236.595 496.631V496.631Z" fill="white"/>
<path d="M229.044 503.458L224.802 502.728C230.546 489.375 241.411 477.06 256.489 466.814C271.566 456.568 290.418 448.689 311.467 443.835C350.155 432.603 368.693 413.711 366.614 387.782C360.845 371.078 339.72 362.948 317.364 354.323C294.075 345.358 269.98 336.081 261.368 316.198C248.897 287.534 253.436 251.52 257.847 216.705C259.969 200.158 262.09 184.523 262.09 170.451C262.09 150.542 260.902 130.372 259.756 110.88C258.441 88.626 257.084 65.6159 257.508 42.8926H261.75C261.326 65.5638 262.683 88.5478 263.998 110.646C265.144 130.19 266.332 150.359 266.332 170.321C266.332 184.497 264.295 200.184 262.09 216.784C257.847 251.364 253.181 287.143 265.441 315.39C273.628 334.257 297.044 343.274 319.612 351.873C342.18 360.472 364.663 369.228 370.814 387.209C373.19 414.519 353.846 434.115 313.334 445.998C292.82 450.729 274.457 458.417 259.788 468.417C245.12 478.416 234.576 490.433 229.044 503.458Z" fill="white"/>
<path d="M222.934 511.041L218.692 510.572C226.328 484.8 249.575 466.116 287.838 455.093C321.011 443.002 335.646 424.734 331.065 400.89C326.059 382.128 305.612 370.688 284.105 358.597C261.749 346.036 238.63 333.059 233.2 311.117C226.583 285.059 235.958 257.28 245.078 230.335C251.314 211.833 257.804 192.706 258.695 174.751C260.053 147.415 250.762 120.679 241.727 94.8286C234.755 76.4933 229.514 57.9258 226.031 39.2189L230.273 38.9844C233.722 57.5875 238.934 76.0513 245.884 94.2814C254.92 120.34 264.252 147.181 262.852 174.829C261.919 193.071 255.429 212.25 249.15 230.882C240.115 257.566 230.782 285.137 237.315 310.674C242.66 331.73 265.228 344.395 287.075 356.642C308.285 368.525 330.089 380.799 335.349 400.5C340.143 425.542 324.829 444.643 289.917 457.36C272.287 462.111 256.9 469.524 245.189 478.91C233.477 488.296 225.822 499.349 222.934 511.041V511.041Z" fill="white"/>
<path d="M217.336 519.275L213.306 518.467C221.281 503.171 237.825 490.115 253.86 477.503C278.421 458.115 301.626 439.795 295.135 414.518C289.96 394.27 270.149 379.026 250.975 364.277C229.341 347.625 206.985 330.4 204.694 305.827C202.403 281.253 216.742 258.295 230.571 236.067C241.982 217.826 253.775 198.829 256.023 179.259C259.629 149.03 241.091 119.323 223.147 90.7886C211.863 72.7297 200.155 54.0455 194.174 35.4394L198.416 34.9443C204.312 53.1856 215.936 71.8959 227.177 89.8504C245.291 118.75 263.998 148.639 260.308 179.467C257.932 199.402 246.054 218.555 234.516 237.005C220.856 258.973 206.688 281.722 209.063 305.67C211.439 329.618 233.243 346.322 254.454 362.635C273.967 377.645 294.16 393.176 299.505 414.101C306.292 440.525 281.433 460.121 257.381 479.092C241.388 491.548 225.099 504.421 217.336 519.275Z" fill="white"/>
<path d="M211.779 527.067L207.536 526.624C211.991 511.406 223.19 498.611 233.965 486.259C247.666 470.623 260.605 455.822 260.393 436.747C260.138 412.173 239.734 391.222 220.008 370.948C199.264 349.658 177.799 327.638 179.157 301.162C180.345 277.397 198.119 257.879 215.257 238.986C228.917 223.898 243.085 208.341 248.769 190.673C260.011 156.275 230.868 121.591 202.828 88.1049C187.217 69.4727 171.055 50.2152 162.655 31.6352L166.897 30.9316C175.127 49.1729 190.483 67.5444 206.73 86.9322C235.152 120.809 264.592 155.832 253.139 191.168C247.285 209.227 232.946 225.044 219.202 240.211C201.513 259.703 184.841 278.1 183.654 301.215C182.338 326.909 203.464 348.616 223.911 369.593C243.933 390.154 264.635 411.418 264.889 436.695C265.101 456.421 251.315 472.187 237.952 487.458C227.092 499.679 216.105 512.266 211.779 527.067Z" fill="white"/>
<path d="M201.173 534.442C199.307 518.599 206.391 504.579 213.221 491.028C219.711 478.155 226.413 464.969 225.48 449.985C223.911 425.125 205.797 401.803 188.277 379.236C168.043 353.177 147.129 326.258 152.007 296.994C156.037 272.863 178.308 255.899 199.858 239.482C217.505 226.035 235.788 212.146 243.933 194.322C259.756 159.741 220.05 121.357 181.702 84.0402C161.213 64.1573 141.826 45.3949 131.942 28.0396L135.93 27.1797C145.687 44.2483 164.903 62.9064 185.265 82.6591C224.165 120.366 264.338 159.35 248.006 195.025C239.521 213.266 221.068 227.468 203.167 241.123C181.023 257.983 160.11 273.905 156.207 297.254C151.456 325.919 171.224 351.222 192.137 378.037C209.827 400.838 228.153 424.396 229.722 449.803C230.656 465.126 223.868 478.65 217.251 491.706C210.251 505.673 203.591 518.833 205.415 534.182L201.173 534.442Z" fill="white"/>
<path d="M192.69 541.087C190.78 527.046 190.412 512.942 191.587 498.871C193.046 483.079 192.308 467.238 189.381 451.522C184.757 431.718 171.14 410.584 156.717 388.199C135.506 355.495 113.829 321.697 121.508 291.39C127.743 266.661 155.784 252.484 182.89 238.777C202.489 228.875 222.766 218.634 234.601 204.458C263.278 170.164 207.622 122.398 158.753 80.3915C134.616 59.8571 112.09 40.5475 101.909 24.86L105.854 23.9219C115.781 39.2966 138.221 58.5281 161.977 78.8801C211.779 121.565 268.241 170.086 238.334 205.657C226.075 220.302 205.501 230.699 185.563 240.784C157.82 254.804 131.646 268.042 125.622 291.781C118.156 321.41 139.748 354.87 160.619 387.235C175.127 409.776 188.872 431.04 193.538 451.157C196.497 467.02 197.25 483.009 195.786 498.95C194.61 512.899 194.979 526.881 196.889 540.8L192.69 541.087Z" fill="white"/>
<path d="M181.787 546.351C179.284 529.726 173.982 512.866 168.849 496.579C165.116 484.722 161.213 472.474 158.456 460.357C154.214 441.151 141.488 419.262 128.761 396.07C107.551 358.467 85.4073 319.587 95.7155 287.925C104.2 262.179 135.676 249.983 166.219 238.179C188.278 229.657 211.058 220.876 225.056 206.908C252.715 179.598 223.741 156.223 195.744 133.604C191.799 130.399 187.853 127.246 184.163 124.093C173.091 114.738 162.443 106.269 152.135 98.0339C122.186 74.2682 96.3094 53.7338 73.9961 22.1765L77.8988 21.1602C100 52.4308 125.707 72.8089 155.486 96.4443C165.795 104.653 176.485 113.148 187.599 122.503C191.29 125.604 195.192 128.757 199.137 131.937C226.668 154.165 257.848 179.364 228.832 208.211C214.324 222.569 191.12 231.534 168.679 240.185C137.5 252.224 108.06 263.638 100.042 288.264C89.9888 319.222 111.793 357.763 132.919 395.105C146.111 418.428 158.371 440.422 162.995 459.888C165.752 471.927 169.613 484.175 173.346 495.979C179.043 512.512 183.375 529.211 186.326 546.012L181.787 546.351Z" fill="white"/>
<path d="M167.533 549.895C166.218 534.442 157.819 520.449 148.911 505.595C141.487 493.191 133.766 480.344 130.542 466.507C126.3 447.901 114.889 425.881 102.842 402.558C81.6313 361.124 59.4028 318.31 71.1534 285.58C80.8253 258.739 114.889 248.185 147.808 237.97C171.775 230.543 196.549 222.882 212.033 208.966C242.067 181.865 209.445 157.135 180.641 135.35C175.975 131.832 171.606 128.497 167.491 125.187C155.104 115.233 143.184 106.32 131.688 97.6949C99.5753 73.6947 71.8745 52.9779 47.9492 20.5606L51.8095 19.4922C75.4803 51.5707 103.054 72.1833 134.954 96.0532C146.493 104.679 158.455 113.617 170.842 123.597C175.084 126.881 179.326 130.19 183.908 133.708C213.602 156.223 247.539 181.735 215.511 210.426C199.434 224.915 174.193 232.732 149.759 240.289C116.204 250.713 84.5159 260.485 75.3106 286.153C63.7722 318.179 85.7037 360.655 106.872 401.75C118.962 425.203 130.373 447.327 134.742 466.142C137.881 479.718 145.517 492.435 152.898 504.735C161.382 519.067 170.418 533.895 171.775 549.739L167.533 549.895Z" fill="white"/>
<path d="M153.408 551.301H149.166C149.166 540.695 143.524 534.493 137.415 527.848C134.197 524.499 131.362 521.016 128.931 517.425C117.859 500.278 111.75 490.845 106.448 469.503C101.951 451.47 91.4733 429.919 80.3591 407.092C60.0819 365.397 37.1323 318.491 48.798 284.615C58.5548 256.523 93.9337 247.064 128.167 237.917C153.238 231.22 179.072 224.314 195.362 210.112C226.287 183.063 192.265 157.994 162.231 135.766C157.522 132.274 153.026 128.991 148.911 125.734C135.633 115.31 122.822 106.059 110.478 97.0688C77.5169 73.303 49.095 52.7686 25 19.752L28.8603 18.6836C52.7007 51.3615 80.953 71.7656 113.702 95.3749C126.089 104.339 138.9 113.616 152.262 124.04C156.504 127.245 160.746 130.528 165.498 133.994C194.938 155.753 231.589 182.829 198.84 211.493C181.872 226.295 155.486 233.383 129.864 240.158C95.0791 249.461 62.2454 258.217 52.9553 285.006C41.5017 318.074 64.3241 364.85 84.4315 406.127C95.5882 429.033 106.109 450.662 110.648 468.877C115.908 489.933 121.55 498.715 132.876 516.226C135.3 519.744 138.135 523.149 141.36 526.415C147.511 533.477 153.535 539.992 153.408 551.301Z" fill="white"/>
</svg>
