<svg width="2285" height="1384" viewBox="0 0 2285 1384" fill="none" xmlns="http://www.w3.org/2000/svg">
<rect y="2.41675" width="2283" height="1377" transform="rotate(-0.0606528 0 2.41675)" fill="#000080"/>
<path d="M1803.39 1159.21L1797.86 1155.3C1864.58 1106.45 1894.75 1105.38 1984.31 1102.2L1998.73 1101.7C2008.94 1101.31 2018.61 1101.03 2027.73 1100.75C2127.66 1097.62 2165.07 1096.45 2185.65 1026.16C2209.42 945.362 2205.29 800.471 2186.66 721.019C2172.71 661.052 2115.73 627.998 2055.4 592.99C2011.75 567.697 1966.61 541.51 1939.41 504.213C1879.62 422.247 1951.96 289.752 2015.8 172.778C2044.8 119.735 2072.16 69.5957 2082.84 31.0698L2090.63 32.1307C2079.8 71.215 2052.36 121.466 2023.21 174.844C1959.99 290.645 1888.28 421.912 1946.5 501.644C1972.93 537.881 2017.44 563.733 2060.46 588.691C2119.24 622.75 2180.04 658.037 2194.54 720.07C2213.24 800.025 2217.38 945.865 2193.45 1027.16C2171.54 1101.7 2129.61 1103.04 2028.19 1106.22L1999.28 1107.17L1984.85 1107.67C1897.4 1110.86 1868.01 1111.92 1803.39 1159.21Z" fill="white"/>
<path d="M1772.76 1164.12L1767.3 1160.16C1835.12 1111.81 1863.8 1109.91 1958.74 1104.32L1980.65 1103.1C2081.98 1097.51 2115.81 1095.56 2136.54 1026.88C2162.73 941.845 2169.05 797.959 2150.11 719.344C2135.45 657.926 2076.76 624.816 2014.63 589.584C1969.03 563.788 1921.95 537.044 1893.97 498.406C1834.88 416.887 1908.31 288.803 1973.01 175.793C2004.19 121.522 2033.42 70.3217 2044.25 30.6233L2052.05 31.6841C2041.13 72.0526 2011.59 123.532 1980.41 178.027C1916.26 289.696 1843.61 416.72 1900.98 495.949C1928.26 533.526 1974.72 559.88 2019.62 585.285C2080.19 619.623 2142.78 655.134 2157.98 718.45C2177 797.847 2170.61 942.571 2144.34 1028.11C2121.97 1100.69 2083.54 1102.98 1980.65 1108.68L1959.6 1109.91C1864.19 1115.71 1838.54 1117.22 1772.76 1164.12Z" fill="white"/>
<path d="M1754.59 1175.96L1748.83 1172.16C1809.16 1124.65 1834.18 1120.4 1920.31 1111.64H1922.89C2032.95 1100.47 2055.94 1098.07 2078.31 1029.56C2108.95 936.262 2137.79 798.239 2118.61 716.385C2103.73 652.678 2040.67 618.116 1973.55 581.489C1924.6 554.744 1874.01 527.106 1844.47 487.072C1784.76 406 1862.09 283.164 1930.21 174.789C1964.04 121.076 1995.92 70.3779 2007.62 30.3445L2015.41 31.4612C2003.56 72.1088 1971.45 123.086 1937.46 177.078C1869.96 284.281 1793.41 406 1851.72 484.448C1880.4 523.532 1930.29 550.668 1978.54 577.078C2043.78 612.7 2111.05 649.663 2126.64 715.492C2146.05 798.127 2116.98 937.044 2086.27 1030.85C2062.88 1103.1 2036.07 1105.78 1924.29 1117.17H1921.72C1835.74 1125.88 1813.29 1129.67 1754.59 1175.96Z" fill="white"/>
<path d="M1746.88 1192.77L1739.63 1190.64C1766.68 1142.79 1821.79 1130.29 1874.95 1118.06C1929.51 1105.72 1980.72 1094.05 2006.68 1047.65C2022.66 1019.12 2029.44 983.498 2035.91 948.992C2039.93 924.312 2045.91 899.816 2053.84 875.626C2056.88 867.25 2060.23 858.875 2063.58 850.053C2081.43 804.38 2099.83 757.144 2087.36 711.918C2069.27 646.368 2000.76 609.629 1928.26 570.712C1867.54 538.161 1804.79 504.493 1776.03 452.566C1731.29 371.606 1806.27 272.5 1878.77 176.631C1919.22 123.142 1957.49 72.5556 1971.37 28.9487L1979.16 30.1771C1964.98 74.8448 1926.55 125.431 1885.63 179.311C1813.99 274.23 1739.94 371.997 1783.28 450.5C1811.18 500.752 1873.08 534.252 1932.94 566.246C2003.09 604.046 2076.37 643.186 2095 710.802C2107.86 757.368 2089.15 805.274 2071.14 851.561C2067.79 860.159 2064.44 868.646 2061.4 877.021C2053.54 900.95 2047.63 925.186 2043.71 949.606C2037.08 984.391 2030.3 1020.4 2013.93 1049.55C1986.57 1098.41 1931.07 1110.97 1877.36 1123.25C1823.66 1135.54 1772.52 1147.32 1746.88 1192.77Z" fill="white"/>
<path d="M1746.1 1214.32L1738.3 1213.09C1751.55 1171.94 1783.28 1159.88 1819.99 1146.09C1834.36 1140.83 1848.31 1134.99 1861.77 1128.61C1907.45 1106.28 1911.27 1098.07 1925.46 1067.92C1927.64 1063.34 1930.06 1058.2 1932.86 1052.45C1946.04 1025.88 1956.25 997.289 1965.44 969.651C1975.81 937.36 1988.82 905.534 2004.42 874.341C2008.86 866.022 2013.62 857.591 2018.45 848.881C2044.64 802.147 2071.77 753.962 2059.53 705.721C2041.68 635.592 1965.37 596.62 1884.53 555.302C1817.58 520.964 1748.44 485.844 1717.26 431.181C1671.58 351.17 1753.81 258.094 1833.24 167.977C1877.83 117.335 1919.92 69.7636 1935.98 27.9993L1943.78 29.451C1927.41 72.2762 1885.08 120.35 1840.18 171.215C1761.77 260.104 1680.62 352.008 1724.82 429.339C1755.06 482.326 1823.27 517.167 1889.29 550.891C1967.78 590.98 2049.01 632.465 2067.48 704.827C2080.11 754.52 2052.59 803.599 2025.93 851.058C2021.1 859.657 2016.35 868.144 2011.98 876.463C1996.52 907.521 1983.69 939.218 1973.55 971.382C1963.96 999.299 1953.99 1027.89 1940.81 1054.69C1938.01 1060.27 1935.59 1065.52 1933.41 1070.1C1919.3 1100.08 1914.54 1110.13 1866.68 1133.58C1853.02 1140.11 1838.84 1146.06 1824.2 1151.39C1787.41 1164.68 1758.57 1175.68 1746.1 1214.32Z" fill="white"/>
<path d="M1750.39 1238.89L1742.59 1238.44C1746.49 1202.09 1774.55 1168.7 1801.6 1136.43C1822.8 1111.19 1844.78 1085.06 1855.3 1057.48C1868.87 1022.3 1898.72 978.752 1930.37 932.688C1984.93 852.677 2047.29 762.002 2032.72 698.183C2015.41 623.085 1926.16 579.478 1839.87 537.267C1766.13 501.198 1689.82 463.956 1656.15 406.893C1609.38 327.161 1699.49 240.841 1786.94 157.424C1836.05 110.579 1882.43 66.3577 1900.98 26.101L1908.39 27.8877C1889.37 68.982 1842.68 113.538 1793.18 160.774C1707.05 242.963 1617.95 327.943 1663.32 404.716C1696.13 460.55 1771.43 497.066 1844.24 532.689C1931.93 575.514 2022.58 619.847 2040.43 697.234C2055.55 762.839 1992.73 854.352 1937.31 935.089C1906.13 980.93 1876.19 1024.42 1862.87 1058.93C1851.95 1087.24 1829.82 1113.7 1808.3 1139.28C1780.47 1172.61 1754.13 1203.88 1750.39 1238.89Z" fill="white"/>
<path d="M1749.61 1265.3C1747.58 1202.98 1754.36 1108.18 1774.24 1047.26C1790.45 997.345 1838.7 948.21 1889.83 896.172C1955.78 829.171 2023.91 759.601 2015.02 689.584C2005.12 611.751 1901.22 561.779 1800.74 513.537C1728.56 478.808 1653.88 442.962 1617.01 397.29C1544.68 307.954 1643.59 227.943 1739.32 150.724C1790.61 109.406 1843.53 66.9717 1866.29 24.3699L1873.54 26.3241C1850.16 69.6518 1796.84 112.756 1745.16 154.409C1651.62 230.121 1554.19 308.457 1623.72 394.498C1659.73 439.166 1730.35 472.666 1805.03 508.903C1907.06 557.87 2012.53 608.568 2022.82 689.081C2031.94 760.941 1962.95 831.181 1896.15 899.187C1845.56 950.723 1797.7 999.69 1781.8 1048.27C1762.08 1108.79 1755.37 1202.98 1757.4 1264.96L1749.61 1265.3Z" fill="white"/>
<path d="M1764.81 1292.1H1757.01C1757.48 1255.41 1739.63 1220.68 1722.4 1187.13C1700.65 1144.64 1678.13 1100.75 1692.08 1052.34C1708.76 994.776 1775.02 940.114 1839.09 887.35C1917.66 822.582 1998.89 755.581 1991.56 682.158C1983.37 600.807 1867.78 546.815 1755.92 494.609C1673.29 455.972 1595.11 419.512 1556.53 372.611C1479.75 279.423 1586.07 209.294 1689.04 141.455C1745.86 103.934 1804.64 65.185 1831.92 22.974L1839.01 25.3191C1810.8 68.4793 1751.48 107.619 1693.87 145.531C1588.72 214.878 1489.41 280.428 1563 369.707C1600.72 415.492 1678.05 451.617 1759.97 489.863C1873.39 542.851 1990.62 597.569 1999.04 681.711C2006.84 757.479 1924.37 825.318 1844.7 890.924C1781.33 943.185 1715.7 997.01 1699.48 1053.4C1686 1100.25 1707.28 1141.45 1729.5 1185.12C1747.19 1219.18 1765.27 1254.35 1764.81 1292.1Z" fill="white"/>
<path d="M1762.62 1318.56C1749.92 1287.69 1722.01 1256.47 1692.47 1223.64C1644.38 1169.87 1594.64 1114.21 1611.64 1057.2C1630.11 995.279 1709.7 938.886 1786.71 884.112C1878.38 819.065 1973.24 751.84 1967.24 674.621C1963.65 627.775 1883.29 580.651 1830.13 549.495L1811.42 538.328C1782.58 520.908 1747.19 503.432 1710.09 484.839C1631.2 445.754 1541.72 401.589 1497.13 348.323C1415.91 251.505 1529.17 190.367 1638.61 131.293C1700.97 97.7926 1765.43 62.7843 1797.15 21.0758L1804.01 23.7559C1771.51 66.5252 1706.34 101.924 1643.28 135.76C1531.66 196.006 1426.28 253.013 1503.76 345.475C1547.56 397.681 1636.27 441.567 1714.22 480.26C1751.87 498.909 1787.41 516.497 1816.49 534.029L1835.12 545.196C1889.68 576.966 1971.29 624.984 1975.42 674.341C1981.58 754.073 1885.47 822.192 1792.56 888.076C1716.4 942.013 1637.67 997.847 1619.67 1058.15C1603.3 1112.92 1652.17 1167.58 1699.41 1220.4C1729.18 1253.91 1757.4 1285.28 1770.42 1316.89L1762.62 1318.56Z" fill="white"/>
<path d="M1764.03 1341.96C1744.46 1307.34 1701.67 1274.4 1655.68 1239.56C1590.04 1189.3 1522.15 1137.49 1527.92 1078.81C1535.71 1001.2 1635.49 939.891 1731.99 880.594C1835.27 817.222 1941.98 751.672 1929.2 668.423C1915.01 575.793 1790.37 522.918 1669.86 471.773C1564.01 427.105 1454.57 380.483 1417.78 306.893C1381.61 234.308 1404.53 209.908 1496.82 167.753C1524.02 155.358 1549.9 145.084 1574.77 135.146C1647.49 106.279 1710.32 81.377 1761.84 20.1823L1768.47 23.0298C1716.24 85.5088 1652.56 110.802 1578.82 140.283C1553.88 150.165 1528.08 160.383 1500.87 172.723C1411.15 213.649 1390.26 236.039 1424.95 305.218C1460.81 376.91 1569.08 422.806 1673.68 467.139C1795.83 518.953 1922.18 572.555 1936.76 668.144C1950.01 754.631 1841.66 821.131 1736.98 885.452C1641.65 943.688 1543.04 1003.93 1535.64 1079.2C1530.1 1135.48 1596.83 1186.46 1661.29 1235.54C1707.44 1270.77 1751.01 1304.1 1771.12 1339.67L1764.03 1341.96Z" fill="white"/>
<path d="M1758.49 1361.5C1714.76 1297.07 1671.97 1271.27 1612.81 1235.54C1594.02 1224.37 1572.66 1211.36 1549.36 1196C1507.81 1168.7 1453.01 1127.22 1456.44 1082.72C1462.75 1001.48 1574.07 939.053 1681.71 878.752C1795.21 815.268 1913.06 749.048 1900.36 662.56C1886.17 566.636 1754.52 511.806 1627.15 458.764C1515.6 412.365 1400.32 364.347 1362.12 288.524C1339.91 275.57 1327.67 261.388 1325.8 246.424C1323.77 230.232 1333.59 212.924 1355.65 194.833L1356.51 194.331L1445.53 153.348C1475.15 142.181 1502.9 132.912 1529.79 124.258C1605.4 99.7467 1670.8 78.6412 1726.14 18.7306L1732.69 21.8015C1676.02 83.2196 1609.77 104.493 1532.99 129.339C1506.25 137.993 1478.42 146.927 1449.5 158.15L1361.19 198.797C1341 215.548 1331.72 231.405 1333.52 245.922C1335.23 259.49 1346.84 272.555 1367.89 284.671L1368.75 285.118V285.899C1405.93 360.215 1520.36 407.898 1631.05 453.962C1760.13 507.675 1893.5 563.23 1908.08 661.946C1921.25 751.56 1801.91 818.283 1686.54 883.107C1580.3 942.683 1470.39 1004.32 1464.24 1083.05C1460.96 1125.15 1514.28 1165.35 1554.66 1191.87C1578.04 1207.17 1599.09 1219.79 1617.79 1231.29C1677.74 1267.42 1721.08 1293.55 1765.51 1359.04L1758.49 1361.5Z" fill="white"/>
<path d="M1743.92 1375.62C1694.11 1308.12 1644.45 1281.38 1575.86 1244.47C1553.25 1232.3 1527.69 1218.56 1500.01 1202.03C1464.31 1180.76 1389.95 1136.37 1393.54 1085.62C1399.46 1001.87 1519.11 938.662 1635.18 877.635C1756.78 813.537 1882.59 747.205 1869.65 658.484C1855.23 560.215 1718.27 503.934 1585.76 449.495C1469.61 401.812 1349.5 352.454 1310.05 274.565C1287.21 261.611 1274.66 247.429 1272.72 232.465C1270.69 216.329 1281.06 198.965 1303.43 181.042L1304.36 180.428L1397.12 142.627C1428.3 132.075 1457.92 124.146 1486.3 116.497C1564.24 95.5588 1631.2 77.4126 1689.35 17.8928L1695.74 21.0754C1636.19 82.1027 1567.99 100.472 1489.1 121.578C1460.81 129.171 1431.58 137.044 1400.71 147.429L1308.81 184.894C1288.23 201.645 1278.72 217.334 1280.51 231.795C1282.23 245.363 1294.07 258.429 1315.74 270.545L1316.6 270.991L1316.99 271.773C1355.11 348.155 1474.37 397.122 1589.81 444.47C1723.96 499.634 1862.63 556.641 1877.52 657.758C1891 749.662 1763.32 816.943 1639.93 881.99C1525.58 942.236 1407.41 1004.83 1401.72 1085.73C1398.37 1133.69 1470.63 1176.85 1505.39 1197.4C1532.91 1213.76 1558.4 1227.49 1580.92 1239.61C1647.73 1275.57 1700.5 1303.99 1751.24 1372.67L1743.92 1375.62Z" fill="white"/>
<path d="M1717.88 1383.11C1666.51 1313.26 1610.08 1285.06 1538.6 1249.1C1513.27 1236.43 1484.5 1222.02 1453.71 1204.44C1410.22 1179.81 1337.49 1138.66 1341.31 1086.85C1347.7 1001.42 1472.19 938.049 1592.54 876.742C1718.74 812.532 1849.22 746.089 1835.74 656.028C1820.85 556.419 1680.78 499.356 1545.22 444.191C1426.2 395.727 1303.19 345.643 1263.05 266.413C1240.21 253.404 1227.58 239.222 1225.71 224.202C1223.61 208.01 1233.9 190.702 1256.27 172.555L1257.36 171.941L1352.38 136.04C1385.35 125.933 1415.91 118.842 1445.53 111.919C1524.26 93.5493 1592.31 77.6923 1651.39 17L1657.78 20.1826C1597.22 82.3824 1528 98.3511 1447.94 117.167C1418.48 124.035 1388.08 131.126 1355.65 141.009L1261.57 176.575C1241.07 193.326 1231.56 209.127 1233.43 223.644C1235.22 237.268 1247.07 250.333 1268.74 262.449L1269.68 262.952L1270.07 263.733C1309.04 341.399 1430.95 391.148 1549.12 439.278C1686.31 495.112 1828.18 552.957 1843.46 655.358C1857.49 748.713 1725.05 816.106 1597.06 881.265C1478.19 941.79 1355.42 1004.1 1349.11 1087.13C1345.52 1135.98 1416.22 1176.07 1458.23 1199.97C1488.87 1217.33 1516.23 1231.01 1542.73 1244.3C1615.07 1280.48 1672.2 1309.01 1724.51 1380.09L1717.88 1383.11Z" fill="white"/>
<path d="M1678.28 1384C1626.91 1314.88 1570.25 1285.9 1498.53 1249.22C1472.26 1235.76 1445.14 1221.91 1414.89 1204.55C1368.83 1178.08 1299.3 1138.05 1302.73 1087.29C1308.57 1001.76 1433.21 938.216 1553.72 876.742C1679.92 812.421 1810.41 745.922 1797.23 655.804C1782.58 555.916 1641.96 499.467 1505.86 444.414C1386.75 396.508 1263.28 346.257 1223.06 267.251C1200.38 254.241 1187.91 240.004 1185.96 224.928C1183.85 208.68 1193.75 191.427 1215.97 173.169L1217.06 172.555L1312.55 136.598C1345.91 126.492 1376.86 119.401 1406.79 112.533C1485.91 94.4425 1554.19 79.0322 1612.88 17.614L1619.35 20.7966C1559.1 83.4989 1489.65 99.4676 1408.89 117.893C1379.12 124.705 1348.4 131.74 1315.35 141.679L1220.8 177.245C1200.54 193.996 1191.26 209.853 1193.13 224.426C1194.92 238.105 1206.69 251.226 1228.21 263.51L1229.14 264.012V264.738C1268.12 342.46 1390.65 391.874 1509.13 439.612C1646.95 495.112 1789.36 552.51 1804.4 655.302C1818.04 748.602 1685.69 816.106 1557.7 881.376C1438.67 942.013 1315.59 1004.77 1309.98 1087.63C1306.7 1135.54 1374.44 1174.45 1419.1 1200.25C1449.11 1217.56 1476.16 1231.4 1502.35 1244.92C1574.92 1281.99 1632.21 1311.3 1684.44 1381.6L1678.28 1384Z" fill="white"/>
<path d="M1627.85 1384C1578.51 1317 1525.27 1286.23 1457.84 1247.15C1434.46 1233.69 1411.07 1219.85 1384.42 1203.1C1343.65 1177.24 1275.29 1133.86 1278.33 1085.84C1283.55 1001.42 1404.37 937.434 1521.22 875.625C1643.83 810.745 1770.65 743.632 1757.63 654.464C1743.14 555.246 1603.22 500.584 1467.9 447.876C1349.18 401.477 1226.26 353.515 1186.12 275.235C1163.43 262.225 1150.88 248.043 1148.93 232.968C1146.83 216.776 1156.73 199.467 1178.94 181.265L1179.96 180.651L1275.6 143.186C1308.49 132.633 1339.28 124.984 1369.14 117.558C1448.96 97.7365 1517.86 80.5953 1576.48 19.4563L1582.87 22.6389C1522.85 85.2295 1452.78 102.65 1371.71 123.141C1342.09 130.511 1311.46 138.105 1279.11 148.434L1184.4 185.62C1164.21 202.371 1154.86 218.228 1156.81 232.745C1158.76 247.262 1170.37 259.489 1191.88 271.829L1192.74 272.331L1193.13 273.113C1232.1 349.83 1353.86 397.401 1471.72 443.465C1608.75 497.01 1750.54 552.454 1765.43 654.576C1778.91 746.87 1650.3 814.933 1525.89 880.762C1410.53 941.845 1291.19 1004.99 1286.2 1086.74C1283.4 1132.35 1349.89 1174.62 1389.64 1199.86C1415.91 1216.61 1439.76 1230.29 1462.83 1243.69C1530.88 1283.22 1584.74 1314.37 1634.87 1382.27L1627.85 1384Z" fill="white"/>
<path d="M1567.83 1383.89C1542.89 1346.37 1489.1 1308.96 1432.2 1269.32C1347.24 1210.19 1259.39 1148.99 1264.22 1082.6C1270.22 1000.19 1384.26 935.871 1494.56 873.615C1611.48 807.786 1731.83 739.612 1717.88 652.063C1702.29 554.409 1564.01 502.985 1430.25 453.236C1312.63 409.518 1191.03 364.292 1150.42 287.463C1127.81 274.677 1115.34 260.551 1113.31 245.587C1111.21 229.395 1121.11 212.086 1143.48 193.717L1144.41 193.102L1240.29 153.181C1272.79 142.014 1303.51 133.415 1333.13 125.263C1413.8 102.929 1483.49 83.7224 1541.87 21.6901L1548.26 24.8168C1488.56 88.3008 1417.86 107.843 1335.93 130.512C1306.39 138.664 1275.91 147.262 1243.95 158.429L1148.93 198.072C1128.51 214.822 1119.16 230.847 1121.11 245.42C1122.9 258.987 1134.67 271.941 1156.11 283.89L1156.96 284.392V285.118C1195.94 360.383 1316.76 405.218 1433.45 448.602C1569.08 498.853 1709.31 551.17 1725.29 651.784C1739.63 742.516 1617.33 811.583 1499.24 878.361C1390.11 939.78 1277.71 1003.38 1271.86 1083.22C1267.18 1147.09 1353.78 1207.34 1437.5 1265.63C1494.95 1305.61 1549.2 1343.41 1574.69 1381.82L1567.83 1383.89Z" fill="white"/>
<path d="M1500.4 1383.66C1480.68 1346.98 1438.05 1308.62 1392.21 1268.03C1322.76 1206.11 1250.97 1142.12 1258.45 1078.53C1267.73 999.746 1371.79 935.089 1472.42 872.554C1586.38 801.756 1694.03 734.922 1678.36 649.216C1660.9 553.738 1524.8 506.558 1393.15 460.885C1276.93 420.573 1156.81 378.864 1115.73 303.934C1093.28 291.371 1080.81 277.468 1078.78 262.616C1076.52 246.368 1086.58 228.78 1109.26 210.355L1110.12 209.852L1206.23 166.636C1238.5 154.52 1268.98 145.028 1298.52 135.872C1380.21 110.467 1450.67 88.5796 1508.98 24.9839L1515.53 28.0548C1456.13 93.0464 1384.57 115.269 1301.79 140.953C1272.41 150.109 1242.01 159.545 1210.28 171.494L1114.79 214.487C1094.06 231.628 1084.55 247.708 1086.58 262.281C1088.37 275.682 1100.14 288.412 1121.34 300.193L1122.28 300.64L1122.67 301.366C1162.19 374.732 1281.37 416.05 1396.5 456.028C1530.18 502.594 1668.07 550.221 1686.08 648.601C1702.29 737.155 1588.02 808.121 1477.57 876.798C1378.1 938.551 1274.9 1002.48 1266.25 1078.97C1259 1140.39 1329.78 1203.49 1398.29 1264.57C1444.2 1305.5 1487.54 1344.19 1507.42 1381.82L1500.4 1383.66Z" fill="white"/>
<path d="M1427.6 1383.39C1413.8 1346.37 1383.25 1307.17 1350.9 1265.69C1301.01 1201.7 1249.57 1135.54 1258.84 1073.67C1270.07 999.578 1362.98 934.587 1452.78 871.717C1557.77 798.518 1656.92 728.948 1639.31 646.257C1619.2 553.627 1485.83 511.248 1356.74 470.322C1241.77 433.973 1123.52 396.508 1081.9 323.923C1059.53 311.695 1047.13 298.072 1045.03 283.387C1042.69 267.083 1052.82 249.328 1076.21 230.568L1076.99 230.121L1173.41 183.22C1205.29 169.987 1235.77 159.378 1265.08 149.161C1347.86 120.238 1419.34 95.336 1477.18 29.5627L1483.72 32.5778C1424.72 99.5794 1352.3 124.928 1268.51 154.186C1239.28 164.403 1208.95 174.956 1177.54 187.687L1081.74 234.308C1060.54 251.729 1050.56 267.809 1052.98 282.605C1054.85 295.838 1066.54 308.345 1087.67 319.736L1088.52 320.182L1088.91 320.908C1128.98 392.041 1246.29 429.283 1359.78 465.241C1490.74 506.837 1626.13 549.774 1646.87 645.419C1665.42 731.014 1560.19 804.604 1458.47 875.793C1369.61 937.937 1277.78 1002.2 1266.79 1074.34C1257.67 1134.48 1308.65 1199.8 1357.91 1263.01C1390.5 1304.83 1421.36 1344.36 1435.39 1381.99L1427.6 1383.39Z" fill="white"/>
<path d="M1351.52 1383.05C1344.51 1345.92 1327.44 1306.56 1309.43 1264.85C1280.75 1198.52 1251.05 1129.95 1263.05 1068.37C1276.3 1000.58 1356.59 935.703 1433.91 872.945C1525.5 798.796 1620.13 722.191 1599.63 642.906C1576.25 553.571 1445.92 516.385 1319.8 480.483C1206.77 448.378 1090.01 415.156 1048.07 344.414C1002.62 267.809 1051.19 241.12 1140.98 200.472C1172.16 186.29 1202.56 174.509 1231.79 163.119C1315.74 130.4 1388.16 102.147 1445.68 33.9174L1452.39 36.8208C1393.77 106.167 1320.42 134.866 1235.54 167.921C1206.38 179.087 1176.29 191.092 1145.11 205.162C1049.24 248.546 1014.24 273.113 1055.24 342.18C1096.24 411.248 1211.14 443.576 1322.6 475.235C1450.75 511.695 1583.26 549.383 1607.27 641.845C1628.47 723.755 1532.52 801.421 1439.76 876.351C1363.06 938.551 1283.86 1002.82 1270.77 1068.92C1259 1129.28 1288.38 1197.34 1316.84 1263.01C1335 1304.88 1352.15 1344.47 1359.24 1382.1L1351.52 1383.05Z" fill="white"/>
<path d="M1281.84 1382.66H1274.04C1274.04 1347.2 1270.53 1310.69 1266.79 1271.94C1260.01 1201.48 1253 1128.56 1268.97 1062.84C1283.47 1002.87 1350.04 938.942 1414.43 877.133C1497.52 797.289 1583.42 714.766 1560.27 639.389C1533.84 553.292 1406.4 521.578 1283.24 490.869C1172.32 463.286 1057.66 434.699 1014.86 366.525C968.483 292.711 1020.32 262.282 1108.79 218.675C1139.97 203.432 1169.9 190.422 1198.98 177.86C1284.02 141.12 1357.52 109.462 1414.82 38.6079L1421.52 41.3996C1363.21 113.482 1289.01 145.531 1203.26 182.606C1174.27 195.168 1144.26 208.122 1113.47 223.309C1025.78 266.469 978.304 294.331 1022.19 364.236C1063.58 430.232 1176.68 458.373 1285.97 485.62C1411.23 516.832 1540.78 549.048 1568.14 638.216C1592.07 716.05 1505 799.634 1420.9 880.483C1357.06 941.901 1291.03 1005.16 1276.85 1063.79C1261.26 1128.84 1268.04 1201.42 1274.82 1271.6C1278.33 1310.35 1281.84 1347.04 1281.84 1382.66Z" fill="white"/>
<path d="M1204.9 1383.05L1197.11 1382.32C1211.99 1300.02 1233.51 1216.5 1254.24 1135.7C1260.95 1109.57 1267.65 1083.5 1274.12 1057.53C1287.53 1003.6 1339.83 944.023 1395.17 880.93C1469.69 796.005 1546.78 708.233 1520.9 636.039C1491.28 553.292 1366.8 526.77 1246.52 501.142C1137.4 477.971 1025.15 454.018 981.5 388.524C931.613 313.817 995.53 279.814 1076.44 236.765C1107.15 220.406 1137.09 206.279 1166.08 192.6C1252.22 151.896 1326.58 116.721 1383.71 43.3539L1390.5 46.0339C1332.58 120.573 1257.36 156.084 1170.45 197.178C1141.53 210.858 1111.67 225.096 1081.2 241.176C991.945 288.636 943.695 318.786 988.593 386.011C1030.76 449.272 1141.61 472.89 1248.79 495.726C1371.24 521.801 1498.22 548.769 1528.54 634.587C1555.2 709.071 1477.25 797.959 1401.88 883.833C1346.92 946.48 1295.01 1005.61 1281.84 1058.48C1275.37 1084.45 1268.66 1110.58 1261.96 1136.65C1241.22 1217.28 1219.79 1301.03 1204.9 1383.05Z" fill="white"/>
<path d="M1130.46 1383.33L1122.67 1381.99C1140.83 1328.89 1168.89 1278.14 1196.02 1229C1227.19 1172.5 1259.47 1114.1 1276.3 1052.4C1297.66 974.23 1340.22 910.299 1385.43 842.404C1392.13 832.298 1398.92 822.08 1405.78 811.639C1411.78 802.482 1418.79 792.655 1426.2 782.214C1459.25 736.039 1500.33 678.529 1481.62 632.745C1449.11 553.124 1327.44 531.461 1209.73 510.523C1102.94 491.539 992.569 471.941 947.905 408.959C896.927 337.156 961.78 300.249 1043.78 253.571C1074.18 236.263 1104.04 221.076 1132.88 206.335C1220.02 161.668 1295.24 123.421 1352.3 47.6532L1359.16 50.2774C1301.25 127.218 1221.66 167.865 1137.4 210.914C1108.63 225.598 1078.86 240.729 1048.61 257.982C969.341 303.041 906.748 338.663 955.076 406.447C998.104 467.139 1106.76 486.458 1211.84 505.107C1331.65 526.435 1455.58 548.434 1489.34 631.181C1508.9 679.087 1467.04 737.658 1433.37 784.782C1425.96 795.112 1418.95 804.939 1413.02 814.04C1406.16 824.481 1399.38 834.699 1392.68 844.805C1345.91 915.268 1305.61 976.184 1284.49 1053.51C1267.42 1115.66 1234.99 1174.34 1203.65 1231.07C1176.45 1279.98 1148.23 1330.57 1130.46 1383.33Z" fill="white"/>
<path d="M1060.38 1383.55L1053.06 1381.77C1078.08 1328.61 1118.07 1280.37 1156.73 1233.69C1204.67 1175.96 1254.16 1116.44 1273.65 1048.04C1299.22 959.321 1335.62 889.751 1380.52 807.953C1385.74 798.406 1391.98 788.132 1398.6 777.244C1426.74 731.013 1461.82 673.504 1442.02 629.729C1407.18 552.677 1287.84 535.368 1172.4 518.618C1067.55 503.375 959.05 487.63 913.528 426.993C861.536 357.758 928.572 317.39 1006.21 270.656L1010.11 268.367C1040.27 250.221 1069.97 234.029 1098.66 218.395C1186.66 170.489 1262.35 129.06 1319.64 51.3378L1326.58 53.9062C1268.82 132.801 1188.45 176.742 1103.33 222.862C1074.73 238.44 1045.11 254.576 1015.17 272.611L1011.28 274.956C933.327 321.968 871.358 359.098 920.388 424.313C964.195 482.661 1070.83 498.183 1173.95 513.146C1291.58 530.176 1413.18 547.82 1449.42 627.998C1470.16 673.783 1434.46 732.409 1405.77 779.478C1399.15 790.31 1392.99 800.527 1387.77 809.963C1343.03 891.426 1306.78 960.717 1281.29 1049.05C1261.41 1118.17 1211.53 1178.3 1163.28 1236.43C1124.85 1282.99 1085.17 1330.96 1060.38 1383.55Z" fill="white"/>
<path d="M996.778 1383.72L989.607 1381.65C1020.01 1327.05 1070.21 1279.7 1118.69 1233.92C1179.57 1176.46 1242.55 1117.11 1263.75 1044.53C1286.8 963.588 1316.42 883.683 1352.46 805.218C1357.13 795.112 1362.82 784.168 1368.9 772.61C1392.91 726.603 1422.85 669.316 1402.58 627.44C1366.18 552.119 1248.71 538.105 1135.06 525.095C1031.7 513.035 924.598 500.528 878.452 441.678C825.603 374.677 894.743 331.181 967.937 285.341L975.732 280.484C1005.59 261.667 1035.21 244.694 1063.81 228.334C1148.78 179.646 1229.06 133.415 1286.05 54.5208L1292.98 57.0891C1235.22 137.324 1154.31 183.666 1068.65 232.689C1040.12 249.049 1010.58 266.19 980.877 284.671L973.082 289.529C899.342 335.816 835.658 375.793 885.39 438.998C929.82 495.503 1034.82 507.787 1136.38 519.624C1252.29 533.191 1372.1 547.206 1409.98 625.709C1431.19 669.54 1400.71 727.831 1376.31 774.676C1370.23 786.178 1364.54 797.01 1359.94 807.116C1323.97 885.375 1294.43 965.076 1271.47 1045.81C1249.57 1119.46 1186.35 1179.37 1124.85 1237.27C1076.68 1282.77 1026.79 1329.84 996.778 1383.72Z" fill="white"/>
<path d="M941.668 1383.78L934.497 1381.6C968.015 1324.59 1025.93 1277.47 1081.9 1231.91C1154.08 1173.11 1222.21 1117.56 1244.11 1042.07L1252.68 1012.36C1272.95 941.622 1292.13 874.843 1320.26 803.263C1324.55 792.376 1329.93 780.595 1335.85 768.199C1357.6 720.516 1382.62 666.468 1362.98 625.374C1327.51 550.5 1210.59 539.445 1097.18 528.724C994.751 519.065 888.741 509.071 842.128 451.672C788.733 385.955 856.86 341.957 928.962 295.335L939.486 288.524C969.184 269.261 998.726 251.729 1027.26 234.755C1113 184.113 1193.36 136.207 1250.42 56.363L1257.36 58.9314C1199.52 139.668 1118.3 188.077 1032.24 239.11C1003.72 255.86 974.251 273.504 944.708 292.711L934.185 299.523C864.499 344.526 798.632 387.072 848.831 448.881C893.574 503.878 997.635 513.705 1098.27 523.197C1213.79 534.364 1333.28 545.531 1370.23 623.699C1390.42 666.524 1365.24 721.521 1343.1 770.042C1337.41 782.437 1332.03 794.106 1327.51 804.883C1299.53 876.239 1280.74 942.962 1260.09 1013.59L1251.51 1043.35C1229.3 1120.13 1157.2 1178.81 1087.82 1235.54C1032.17 1280.82 974.718 1327.61 941.668 1383.78Z" fill="white"/>
<path d="M896.848 1383.72L889.676 1381.65C923.428 1320.91 985.865 1273.61 1046.35 1227.83C1120.95 1171.27 1191.49 1117.89 1212.62 1041.45C1216.46 1027.68 1220.2 1014 1223.84 1000.42C1242.24 933.414 1259.62 869.595 1283.01 802.817C1287.14 791.036 1292.67 778.138 1298.59 764.402C1318.78 717.222 1341.7 663.9 1322.84 624.816C1286.51 549.607 1170.53 540.059 1058.44 530.79C956.712 522.359 851.56 513.705 804.401 456.363C750.694 390.924 820.848 344.861 888.975 300.249L901.447 292.097C930.989 272.555 960.532 254.688 989.061 237.435C1074.8 185.62 1155.4 136.933 1212.7 57.1448L1219.63 59.7132C1161.64 140.283 1080.26 189.529 994.05 241.678C965.598 258.931 936.134 276.743 906.747 296.173L894.275 304.381C825.525 349.439 760.671 391.985 811.026 453.236C856.236 508.177 959.129 516.72 1059.21 524.928C1173.8 534.419 1292.2 544.191 1330.09 622.75C1349.81 663.621 1326.58 718.06 1306 766.078C1300.15 779.701 1294.7 792.543 1290.41 804.157C1267.03 870.823 1249.72 934.307 1231.33 1001.48C1227.64 1015.06 1223.89 1028.74 1220.1 1042.51C1198.51 1120.68 1123.91 1177.02 1051.81 1231.68C992.335 1277.08 929.976 1323.98 896.848 1383.72Z" fill="white"/>
<path d="M860.68 1377.75L853.431 1375.68C887.26 1314.26 950.477 1267.03 1011.59 1221.41C1086.34 1165.57 1156.96 1112.87 1178.4 1036.21C1185.65 1010.13 1192.66 983.777 1199.37 958.317C1212.85 907.507 1226.73 854.967 1243.72 802.817C1247.62 790.701 1253.07 777.468 1258.76 763.454C1277.47 717.558 1298.6 665.631 1280.2 627.329C1244.65 553.236 1131.08 541.846 1021.25 530.791C921.792 520.796 818.588 510.467 772.286 453.906C718.813 388.971 785.771 344.805 856.705 298.016L867.617 290.422C896.224 271.439 924.754 254.018 952.347 237.156C1036.61 185.621 1116.04 136.989 1173.64 58.1501L1180.5 60.7744C1122.67 140.73 1042.46 189.92 957.648 241.623C930.132 258.373 901.681 275.85 873.152 294.777L862.005 302.148C793.41 347.318 728.713 389.976 779.068 451.059C823.732 505.274 924.754 515.436 1022.35 525.263C1134.51 536.43 1250.42 548.211 1287.37 625.486C1306.55 665.464 1285.03 718.339 1266.01 765.073C1260.32 779.087 1254.94 792.264 1251.05 804.157C1234.13 856.195 1219.87 908.624 1206.77 959.378C1200.07 984.894 1193.13 1011.25 1185.8 1037.55C1163.9 1115.71 1089.23 1171.55 1016.97 1225.49C956.635 1270.49 893.964 1317.28 860.68 1377.75Z" fill="white"/>
<path d="M829.422 1361.28L822.25 1359.21C856.314 1297.79 920.544 1251.45 982.591 1206.56C1058.51 1151.67 1130.23 1099.8 1151.27 1023.14C1158.05 998.182 1169.98 965.854 1182.45 931.627C1220.18 829.226 1267.1 701.756 1234.83 632.521C1201 559.936 1092.26 545.363 987.034 531.293C891.859 518.562 793.41 505.385 748.745 449.495C696.675 384.28 762.698 340.282 832.54 293.66L840.802 288.077C868.162 269.763 895.366 252.957 921.479 236.765C1002.78 186.514 1079.56 139.054 1135.14 61.8347L1142.07 64.4031C1085.79 142.572 1008.47 190.366 926.624 241.008C900.433 257.144 873.385 273.895 846.181 292.153L837.84 297.736C767.686 344.693 706.497 385.285 755.527 446.703C798.398 500.304 895.055 513.258 988.515 525.765C1095.85 540.114 1206.77 554.967 1242.24 630.678C1275.21 701.533 1227.97 829.896 1190.01 933.023C1177.38 967.138 1165.54 999.355 1158.83 1024.15C1137.4 1102.31 1061.47 1157.37 988.047 1210.47C926.624 1255.02 862.94 1301.03 829.422 1361.28Z" fill="white"/>
<path d="M802.218 1336.26L795.047 1334.08C830.825 1274.01 894.977 1228 956.946 1183.33C1038.25 1125.09 1115.03 1070.04 1131.86 986.401C1137.01 961.052 1147.45 927.942 1158.37 892.934C1185.57 806.111 1219.48 698.071 1195.86 636.094C1169.51 567.027 1061.24 545.475 956.556 524.425C877.984 508.736 796.762 492.544 751.708 456.139C676.097 395.056 725.595 350.724 803.699 294.666C835.658 271.773 867.617 251.561 898.563 231.963C973.549 184.615 1044.4 139.836 1096.86 67.0276L1103.8 69.596C1050.64 143.354 979.084 188.412 903.707 236.151C872.918 255.693 841.348 275.849 809.156 298.63C731.753 354.464 686.309 394.889 757.554 452.454C801.049 487.63 881.18 503.599 958.661 519.065C1065.45 540.338 1175.9 562.337 1203.34 634.475C1227.51 697.792 1193.36 806.558 1165.93 893.995C1155.01 928.891 1144.65 961.89 1139.58 987.071C1122.35 1072.5 1041.13 1130.79 962.48 1187.13C900.979 1231.57 837.373 1277.19 802.218 1336.26Z" fill="white"/>
<path d="M778.054 1304.71L770.883 1302.48C806.662 1244.64 872.216 1200.25 935.823 1157.31C1020.63 1099.97 1100.68 1045.64 1114.32 962.951C1117.36 944.023 1122.12 921.019 1127.58 896.675C1145.5 812.923 1167.95 708.233 1145.58 645.81C1121.26 577.748 1022.81 551.673 927.326 526.436C855.224 507.284 780.705 487.351 738.613 449.607C668.459 386.458 716.865 342.014 787.252 290.478C817.107 268.591 846.805 249.551 875.568 231.07C945.02 186.402 1010.58 144.247 1058.36 74.2864L1065.37 76.7431C1017.12 147.597 951.022 189.92 881.025 235.146C852.34 253.571 822.797 272.611 793.099 294.331C725.439 343.856 678.904 386.514 745.004 446.089C785.694 482.829 859.199 502.259 930.288 521.131C1027.41 546.871 1127.81 573.448 1153.14 644.358C1175.83 707.898 1153.14 812.979 1135.22 897.457C1130.07 921.745 1125.16 944.749 1122.04 963.565C1108.09 1048.43 1023.51 1105.61 941.201 1161.44C878.296 1203.93 813.053 1247.93 778.054 1304.71Z" fill="white"/>
<path d="M755.916 1268.65L748.979 1266.24C787.096 1209.91 853.04 1167.75 916.88 1126.99C997.245 1075.68 1072.78 1027.16 1096.16 953.347C1116.51 888.299 1115.42 724.425 1087.43 658.205C1059.45 591.985 975.03 562.504 893.262 533.973C820.302 508.456 745.159 482.102 708.134 430.008C671.108 377.915 716.942 330.958 760.359 295.224C793.136 268.766 828.259 243.849 865.512 220.628C924.909 182.27 976.199 149.104 1020.47 82.0468L1027.49 84.3918C982.591 152.51 930.755 186.011 870.734 224.816C833.716 247.849 798.826 272.58 766.283 298.853C724.503 333.303 680.54 379.087 715.149 427.272C750.772 477.524 824.979 503.654 896.769 528.78C980.018 557.87 1066.15 587.965 1094.99 656.418C1123.21 723.42 1124.3 888.746 1103.88 954.408C1080.49 1030.01 1003.48 1079.03 922.103 1131.01C858.808 1171.6 793.409 1213.37 755.916 1268.65Z" fill="white"/>
<path d="M735.104 1230.06L728.166 1227.44C779.612 1158.54 826.459 1125.15 911.969 1076.35L936.757 1062.34C1019.07 1015.99 1073.4 985.396 1084.47 909.461C1093.43 848.043 1064.44 731.516 1041.05 668.311C1016.34 601.812 944.941 568.423 869.565 533.024C813.442 506.725 755.448 479.59 719.358 437.714C659.104 367.92 718.189 320.852 780.782 271.047L785.459 267.306C808.843 248.658 829.889 233.806 850.234 219.121C902.381 181.879 943.772 152.455 982.746 90.7014L989.84 92.9906C950.242 155.972 908.617 185.732 855.846 223.365C835.58 237.826 814.611 252.789 791.461 271.271L786.706 275.067C723.489 325.319 668.925 368.814 726.14 435.09C761.294 475.849 818.587 502.705 874.242 528.613C947.748 563.007 1023.75 598.629 1049.16 667.194C1072.54 730.79 1101.93 848.266 1092.89 910.299C1081.43 988.467 1026.01 1019.79 942.135 1066.97L917.425 1080.98C832.15 1129 785.848 1162.06 735.104 1230.06Z" fill="white"/>
<path d="M714.448 1190.87L707.667 1188.13C760.983 1120.24 806.895 1089.3 896.224 1041.4C906.28 1035.81 916.413 1030.73 926.312 1025.6C1002.39 985.899 1068.1 951.672 1070.6 881.544C1072 843.241 1044.64 792.208 1020.55 746.815C1007.61 722.582 995.453 699.746 988.126 680.204C964.118 616.273 904.799 577.971 841.894 537.49C793.566 506.335 743.601 474.118 712.11 429.339C654.817 347.988 744.536 277.078 831.215 208.513C878.842 170.88 923.818 135.313 944.241 98.965L951.49 101.031C930.522 138.328 885.156 174.23 836.983 212.254C752.019 279.255 664.171 348.937 719.047 426.826C749.837 470.656 799.334 502.538 847.117 533.303C908.072 572.387 971.055 613.202 995.219 678.752C1002.47 698.015 1014.55 720.74 1027.41 744.805C1051.81 790.477 1079.4 842.292 1078 881.711C1075.43 954.296 1008.24 989.584 930.522 1030.12C920.622 1035.26 910.567 1040.45 900.511 1045.87C812.507 1093.27 767.141 1123.87 714.448 1190.87Z" fill="white"/>
<path d="M693.168 1153.18L686.542 1150.22C749.369 1077.63 804.089 1047.48 895.444 1000.58C903.239 996.507 912.047 992.208 921.323 987.685C980.72 958.651 1062.02 918.953 1062.8 866.189C1063.27 833.191 1027.65 795.837 993.192 759.712C968.872 734.196 945.877 710.131 935.666 688.076C912.281 637.49 865.512 593.604 820.614 551.225C772.13 505.609 722.009 458.428 701.898 403.375C673.525 325.207 736.897 272.164 804.088 215.771C843.842 182.27 884.999 147.708 906.123 107.172L913.45 109.127C891.859 150.556 850.234 185.564 810.013 219.4C744.224 274.676 682.099 326.882 709.459 401.979C729.18 455.916 776.573 500.583 826.849 547.82C872.294 590.589 919.218 634.866 943.071 686.289C952.97 707.618 975.575 731.404 999.583 756.529C1034.74 793.38 1071.06 831.516 1070.59 866.245C1069.74 922.079 986.488 962.615 925.766 992.263C916.49 996.786 907.76 1001.09 899.965 1005.11C809.467 1051.56 755.215 1081.38 693.168 1153.18Z" fill="white"/>
<path d="M670.485 1118.51L663.392 1116.22C685.537 1080.6 717.562 1048.57 757.52 1022.09C797.479 995.607 844.536 975.221 895.834 962.169C990.23 938.272 1040.04 892.152 1043.94 824.983C1034.27 797.68 1002.47 781.823 968.794 764.961C935.12 748.099 901.68 731.46 884.532 702.259V701.365C879.576 643.457 849.089 588.169 797.463 543.465C742.515 494.045 702.44 437.014 679.761 375.961C670.329 310.355 724.737 262.393 777.352 215.994C813.053 184.671 849.767 152.343 867.617 114.599L875.412 116.441C856.704 155.135 819.679 187.798 783.822 219.4C729.804 267.027 678.747 311.974 687.789 374.844C710.219 435.02 749.76 491.229 803.933 539.947C856.241 585.473 887.125 641.677 892.171 700.528C908.54 727.998 941.512 744.47 973.393 760.382C1008.47 777.915 1041.6 794.442 1051.81 824.034V824.425V824.816C1047.83 894.721 996.232 942.683 898.407 967.417C848.117 980.24 801.986 1000.24 762.808 1026.21C723.63 1052.19 692.222 1083.58 670.485 1118.51V1118.51Z" fill="white"/>
<path d="M645.073 1089.7L638.058 1087.29C686.386 1014.32 765.972 963.788 874.554 937.044C970.119 915.156 1020.63 870.042 1024.76 803.04C1011.2 775.681 976.745 768.758 940.265 761.388C902.07 753.682 858.809 744.916 835.502 711.136L835.034 710.02C832.546 651.411 808.333 594.331 764.881 544.637C718.556 490.266 685.919 430.49 668.458 368.032C662.066 305.386 705.172 263.733 750.85 219.624C781.639 189.864 813.209 159.043 829.578 120.964L837.373 122.583C820.925 161.667 788.655 192.767 757.397 223.086C712.655 266.302 670.329 307.173 676.487 367.362C693.748 428.988 725.904 487.98 771.506 541.678C815.594 591.996 840.209 649.805 842.829 709.182C864.733 740.505 904.175 748.267 942.369 756.139C980.564 764.012 1017.67 771.382 1032.4 801.868V802.37V802.929C1028.35 872.666 976.043 919.567 876.893 942.515C770.571 968.534 692.544 1018.12 645.073 1089.7Z" fill="white"/>
<path d="M616.077 1068.31L609.217 1065.74C665.106 989.36 752.643 936.988 869.254 910.187C972.068 887.127 1012.37 843.185 992.491 776.184C951.756 760.749 904.442 756.766 859.822 765.017H859.198H858.575C832.15 763.677 813.209 757.982 802.218 747.987C791.227 737.993 788.655 725.374 792.474 708.903C786.345 665.388 771.975 622.673 749.759 581.935C710.413 518.702 678.525 453.222 654.427 386.179C640.708 313.594 680.072 270.098 721.775 223.923C747.966 194.945 775.092 164.906 791.071 125.822L798.866 127.385C782.497 167.251 755.137 197.625 728.712 226.994C687.789 272.276 649.205 315.045 662.456 385.118C686.438 451.78 718.17 516.888 757.32 579.758C779.907 621.137 794.514 664.529 800.737 708.736V709.182C797.151 724.425 799.88 736.262 808.532 744.414C817.184 752.566 834.878 758.038 858.731 759.322C905.696 750.893 955.37 755.438 997.869 772.052L999.428 772.666V773.895C1020.94 843.911 977.758 891.538 871.28 915.491C757.008 941.845 671.03 993.269 616.077 1068.31Z" fill="white"/>
<path d="M582.715 1056.31L575.855 1053.74C632.056 977.133 720.216 925.318 837.997 900.081C941.512 877.747 982.357 833.973 962.714 766.58C916.964 753.467 866.014 753.109 819.913 765.575H818.743C790.526 766.245 770.415 761.779 758.801 752.231C747.186 742.683 744.536 729.897 748.589 712.7C741.716 668.817 728.845 625.524 710.161 583.443C676.841 517.612 649.425 450.325 628.081 381.991C616.545 311.305 652.011 268.814 689.504 223.867C712.889 195.559 737.443 166.358 752.487 128.055L760.282 129.563C744.692 168.647 720.216 198.128 696.442 226.715C659.572 270.824 624.807 312.533 636.032 381.098C657.33 449.118 684.614 516.104 717.722 581.656C736.646 624.247 749.699 668.063 756.696 712.477V713.258C752.877 729.059 755.683 741.176 764.959 748.546C774.235 755.916 792.786 760.55 818.198 759.713C866.608 746.742 920.079 747.38 967.859 761.499L969.808 762.058L970.275 763.509C991.633 834.085 948.06 881.656 840.569 904.939C724.503 930.343 637.902 981.097 582.715 1056.31Z" fill="white"/>
<path d="M545.534 1055.02L538.674 1052.45C594.563 976.184 682.256 924.76 799.256 899.634C901.681 877.3 942.838 833.303 924.832 765.966C878.12 753.094 826.403 753.094 779.691 765.966H778.522C750.227 766.803 729.96 762.448 718.112 752.956C706.264 743.465 703.302 730.623 707.043 713.37C698.804 669.596 686.17 626.305 669.238 583.833C640.085 517.725 614.674 449.83 594.408 381.991C583.417 311.695 617.792 267.697 653.96 221.075C675.63 193.158 698.001 164.682 712.889 128.39L720.684 130.009C705.095 166.86 682.957 195.782 661.132 223.811C625.431 269.596 591.757 312.812 602.358 381.098C622.781 448.434 647.88 516.218 677.033 582.102C694.106 624.997 706.845 668.717 715.15 712.923V713.705C711.642 729.562 714.682 741.622 724.192 749.104C733.702 756.586 752.331 760.997 777.899 760.271C826.968 746.912 881.259 747.271 929.976 761.276L931.925 761.834L932.393 763.286C952.036 833.861 908.151 881.488 801.829 904.883C686.543 929.673 600.41 980.204 545.534 1055.02Z" fill="white"/>
<path d="M514.666 1059.82L507.729 1057.26C532.756 1021.34 567.806 989.482 610.71 963.658C653.614 937.833 703.46 918.589 757.164 907.116C855.145 883.945 894.665 840.785 877.984 775.123C833.767 759.776 783.372 756.194 735.806 765.017H735.261H735.105C707.745 764.347 688.335 758.931 676.253 748.992C664.171 739.054 661.287 726.659 664.405 709.406C654.973 666.748 643.281 623.699 629.796 581.544C605.788 516.888 584.586 450.724 566.814 385.006C557.226 316.274 588.016 267.753 620.52 215.771C639.917 186.742 656.102 156.666 668.926 125.822L676.721 127.329C663.855 158.456 647.538 188.796 627.925 218.061C595.81 269.038 565.566 317.223 574.842 384.169C592.537 449.551 613.817 515.603 637.669 580.204C651.31 622.694 663.002 666.022 672.512 708.959V709.741C669.628 725.263 672.98 737.267 682.489 745.363C691.999 753.459 710.395 758.763 735.105 759.434C784.75 750.368 837.285 754.329 883.207 770.6L885 771.215V772.61C903.24 841.287 860.992 888.3 759.347 912.197C706.623 923.491 657.701 942.422 615.612 967.817C573.523 993.211 539.164 1024.53 514.666 1059.82V1059.82Z" fill="white"/>
<path d="M490.891 1068.81L483.876 1066.41C505.805 1031.99 537.564 1001.25 577.105 976.172C616.645 951.09 663.087 932.225 713.435 920.795C805.336 896.451 841.66 853.793 824.511 790.365C784.014 771.124 735.562 762.359 687.166 765.519H686.153C635.564 759.265 612.725 738.718 618.259 704.603C571.022 635.312 557.226 501.644 548.106 413.09C547.326 404.994 546.469 397.289 545.689 390.087C538.518 323.085 562.058 267.25 586.924 208.066C598.538 180.427 610.309 151.896 619.429 121.801L627.223 122.918C618.259 153.236 606.255 181.935 594.563 209.685C569.853 268.423 546.547 323.867 553.64 389.64C554.419 396.843 555.199 404.548 556.056 412.7C565.254 501.142 579.051 634.754 626.21 703.04L626.678 703.766V704.603C621.221 736.094 641.176 754.24 687.556 760.438C738.077 757.225 788.604 766.549 830.669 786.848L832.072 787.462V788.579C850.624 854.854 811.65 901.253 716.319 926.602C666.955 937.705 621.39 956.098 582.562 980.592C543.734 1005.09 512.505 1035.14 490.891 1068.81V1068.81Z" fill="white"/>
<path d="M472.807 1081.1L465.558 1078.98C483.178 1046.5 510.505 1017.17 545.623 993.057C580.741 968.943 622.8 950.626 668.848 939.389C752.955 913.258 784.914 870.991 766.206 810.299C729.824 786.236 683.843 770.929 634.707 766.525H633.927C586.612 754.353 565.254 731.125 570.399 697.513C536.102 635.369 534.231 538.328 532.672 460.271C532.204 437.379 531.814 415.604 530.645 396.62C526.28 326.045 539.921 255.916 553.094 188.133C557.693 164.515 562.448 140.115 566.424 115.939L574.218 116.609C570.243 140.785 565.488 165.241 560.889 189.194C548.028 256.363 534.075 326.268 538.44 396.508C539.609 415.659 539.999 437.323 540.467 460.327C542.026 538.161 543.896 635.034 577.96 696.229V696.899V697.569C572.893 729.004 591.835 749.83 635.954 761.276C686.928 765.886 734.578 781.887 772.13 807.005L773.065 807.619V808.456C793.02 871.717 758.723 917.613 671.264 944.805C626.324 955.8 585.28 973.694 551.001 997.235C516.721 1020.78 490.035 1049.4 472.807 1081.1V1081.1Z" fill="white"/>
<path d="M458.933 1095.73L451.138 1094.16C461.693 1065.55 481.658 1039.17 509.363 1017.21C537.068 995.259 571.708 978.376 610.387 967.976C681.476 943.911 715.539 903.431 711.72 847.875C701.119 812.085 662.3 794.665 621.221 776.184C578.428 756.977 534.153 737.099 518.329 694.498C495.412 633.079 503.753 555.916 511.86 481.321C515.757 445.866 519.654 412.365 519.654 382.214C519.654 339.557 517.472 296.341 515.367 254.576C512.951 206.893 510.457 157.591 511.236 108.904H519.031C518.251 157.48 520.746 206.726 523.162 254.074C525.267 295.95 527.449 339.166 527.449 381.935C527.449 412.309 523.708 445.922 519.654 481.488C511.86 555.581 503.285 632.242 525.812 692.767C540.856 733.191 583.884 752.51 625.353 770.935C666.821 789.361 708.134 808.121 719.437 846.647C723.802 905.162 688.257 947.149 613.816 972.61C576.122 982.747 542.379 999.221 515.426 1020.65C488.472 1042.07 469.098 1067.82 458.933 1095.73Z" fill="white"/>
<path d="M447.707 1111.97L439.913 1110.97C453.943 1055.75 496.659 1015.71 566.969 992.096C627.925 966.189 654.817 927.049 646.398 875.96C637.2 835.759 599.629 811.248 560.109 785.341C519.03 758.428 476.548 730.623 466.571 683.61C454.411 627.775 471.638 568.255 488.397 510.522C499.855 470.88 511.781 429.897 513.418 391.427C515.912 332.856 498.842 275.57 482.239 220.182C469.427 180.896 459.798 141.113 453.398 101.031L461.193 100.528C467.529 140.388 477.107 179.949 489.878 219.009C506.481 274.844 523.629 332.354 521.057 391.594C519.342 430.679 507.416 471.773 495.88 511.695C479.277 568.87 462.128 627.943 474.132 682.661C483.954 727.775 525.422 754.911 565.566 781.153C604.54 806.614 644.606 832.912 654.271 875.123C663.079 928.78 634.94 969.707 570.788 996.954C538.393 1007.13 510.12 1023.02 488.6 1043.13C467.08 1063.24 453.013 1086.92 447.707 1111.97V1111.97Z" fill="white"/>
<path d="M437.419 1129.62L430.014 1127.89C444.668 1095.11 475.068 1067.14 504.533 1040.11C549.665 998.573 592.303 959.321 580.376 905.161C570.867 861.778 534.465 829.115 499.232 797.512C459.478 761.834 418.399 724.927 414.19 672.275C409.981 619.623 436.327 570.433 461.739 522.806C482.707 483.721 504.377 443.018 508.508 401.086C515.133 336.318 481.07 272.666 448.098 211.527C427.363 172.834 405.85 132.801 394.859 92.9346L402.654 91.8738C413.489 130.958 434.847 171.047 455.503 209.517C488.787 271.438 523.162 335.48 516.381 401.533C512.016 444.246 490.19 485.285 468.988 524.816C443.889 571.884 417.854 620.628 422.219 671.94C426.584 723.252 466.649 759.042 505.624 793.995C541.48 826.155 578.584 859.433 588.405 904.268C600.877 960.884 555.199 1002.87 511.002 1043.52C481.616 1070.21 451.683 1097.79 437.419 1129.62Z" fill="white"/>
<path d="M427.207 1146.31L419.413 1145.36C427.597 1112.76 448.176 1085.34 467.974 1058.87C493.152 1025.37 516.926 993.66 516.537 952.789C516.069 900.137 478.576 855.246 442.329 811.807C404.213 766.19 364.771 719.009 367.265 662.281C369.447 611.36 402.108 569.54 433.599 529.06C458.699 496.731 484.733 463.398 495.179 425.542C515.835 351.84 462.284 277.525 410.76 205.777C382.075 165.855 352.377 124.593 336.943 84.7833L344.738 83.2758C359.86 122.36 388.077 161.723 417.931 203.264C470.157 275.85 524.253 350.891 503.207 426.603C492.45 465.297 466.104 499.188 440.848 531.684C408.344 573.448 377.71 612.868 375.527 662.393C373.111 717.446 411.929 763.956 449.501 808.903C486.292 852.957 524.331 898.518 524.799 952.677C525.189 994.944 499.855 1028.72 475.302 1061.44C455.347 1087.63 435.158 1114.6 427.207 1146.31Z" fill="white"/>
<path d="M407.72 1162.11C404.291 1128.17 417.308 1098.13 429.858 1069.09C441.784 1041.51 454.1 1013.26 452.385 981.153C449.501 927.886 416.217 877.914 384.024 829.562C346.843 773.727 308.414 716.05 317.378 653.347C324.783 601.644 365.706 565.296 405.304 530.12C437.731 501.309 471.327 471.55 486.293 433.359C515.368 359.266 442.408 277.022 371.942 197.066C334.293 154.465 298.67 114.264 280.508 77.0777L287.835 75.2351C305.764 111.807 341.074 151.784 378.49 194.107C449.969 274.9 523.786 358.429 493.776 434.866C478.186 473.951 444.278 504.38 411.384 533.638C370.695 569.763 332.266 603.878 325.095 653.906C316.365 715.324 352.689 769.539 391.117 826.993C423.622 875.849 457.296 926.323 460.18 980.762C461.895 1013.59 449.423 1042.57 437.263 1070.54C424.401 1100.47 412.164 1128.67 415.515 1161.55L407.72 1162.11Z" fill="white"/>
<path d="M392.131 1176.35C388.623 1146.27 387.946 1116.05 390.104 1085.9C392.786 1052.06 391.43 1018.12 386.051 984.447C377.554 942.012 352.533 896.731 326.03 848.769C287.056 778.696 247.224 706.278 261.333 641.343C272.791 588.356 324.315 557.982 374.125 528.613C410.137 507.395 447.396 485.452 469.144 455.078C521.837 381.6 419.569 279.255 329.772 189.249C285.419 145.252 244.028 103.878 225.321 70.2658L232.57 68.2557C250.81 101.198 292.045 142.404 335.696 186.011C427.208 277.468 530.957 381.432 476.003 457.647C453.476 489.026 415.671 511.304 379.035 532.912C328.057 562.951 279.963 591.315 268.894 642.18C255.175 705.664 294.851 777.356 333.202 846.703C359.86 895 385.115 940.561 393.69 983.665C399.128 1017.65 400.51 1051.91 397.821 1086.07C395.66 1115.95 396.337 1145.91 399.848 1175.74L392.131 1176.35Z" fill="white"/>
<path d="M372.098 1187.63C367.499 1152.01 357.755 1115.88 348.323 1080.99C341.464 1055.58 334.293 1029.34 329.226 1003.38C321.431 962.225 298.046 915.324 274.662 865.631C235.688 785.062 194.998 701.756 213.94 633.917C229.53 578.752 287.368 552.622 343.491 527.329C384.024 509.071 425.882 490.254 451.605 460.327C502.428 401.812 449.189 351.729 397.743 303.264C390.494 296.397 383.244 289.641 376.463 282.885C356.118 262.84 336.553 244.694 317.612 227.05C262.58 176.129 215.031 132.131 174.03 64.5152L181.202 62.3376C221.813 129.339 269.05 173.002 323.77 223.644C342.711 241.232 362.354 259.434 382.777 279.479C389.558 286.123 396.729 292.879 403.979 299.691C454.567 347.318 511.86 401.31 458.543 463.119C431.884 493.884 389.246 513.091 348.012 531.628C290.719 557.424 236.623 581.879 221.891 634.643C203.417 700.975 243.483 783.554 282.301 863.565C306.543 913.537 329.07 960.661 337.566 1002.37C342.633 1028.17 349.726 1054.41 356.586 1079.7C367.055 1115.12 375.016 1150.9 380.438 1186.9L372.098 1187.63Z" fill="white"/>
<path d="M345.907 1195.22C343.49 1162.11 328.056 1132.13 311.687 1100.3C298.046 1073.73 283.86 1046.2 277.935 1016.55C270.141 976.686 249.172 929.506 227.035 879.534C188.061 790.757 147.216 699.02 168.807 628.892C186.58 571.382 249.172 548.769 309.66 526.882C353.701 510.969 399.223 494.554 427.675 464.738C482.862 406.67 422.92 353.683 369.993 307.005C361.418 299.467 353.39 292.321 345.829 285.23C323.068 263.901 301.164 244.805 280.04 226.324C221.033 174.9 170.132 130.512 126.169 61.0534L133.263 58.7642C176.758 127.497 227.425 171.662 286.042 222.806C307.244 241.288 329.226 260.439 351.987 281.824C359.781 288.859 367.576 295.95 375.995 303.487C430.559 351.729 492.918 406.391 434.066 467.865C404.524 498.909 358.145 515.659 313.246 531.851C251.589 554.185 193.361 575.123 176.446 630.12C155.244 698.741 195.544 789.752 234.44 877.803C256.655 928.054 277.624 975.458 285.652 1015.77C291.42 1044.86 305.451 1072.11 319.014 1098.46C334.604 1129.17 351.207 1160.94 353.701 1194.89L345.907 1195.22Z" fill="white"/>
<path d="M319.95 1198.24H312.156C312.156 1175.51 301.788 1162.22 290.564 1147.99C284.651 1140.81 279.442 1133.35 274.974 1125.65C254.629 1088.91 243.405 1068.7 233.661 1022.97C225.399 984.335 206.145 938.16 185.723 889.249C148.463 799.913 106.293 699.411 127.729 626.826C145.657 566.636 210.666 546.368 273.571 526.77C319.639 512.42 367.109 497.624 397.042 467.194C453.866 409.238 391.351 355.525 336.164 307.898C327.511 300.416 319.249 293.381 311.688 286.402C287.29 264.068 263.749 244.246 241.066 224.983C180.5 174.062 128.275 130.065 84 59.3221L91.0933 57.0328C134.9 127.05 186.814 170.768 246.991 221.354C269.752 240.561 293.292 260.439 317.846 282.772C325.641 289.64 333.435 296.675 342.166 304.101C396.262 350.723 463.61 408.735 403.433 470.154C372.254 501.868 323.77 517.055 276.689 531.572C212.771 551.505 152.439 570.265 135.368 627.663C114.322 698.517 156.258 798.741 193.206 887.183C213.706 936.261 233.038 982.604 241.378 1021.63C251.044 1066.75 261.411 1085.56 282.223 1123.08C286.677 1130.62 291.887 1137.92 297.813 1144.92C309.116 1160.05 320.184 1174.01 319.95 1198.24Z" fill="white"/>
</svg>
