<svg width="1142" height="689" viewBox="0 0 1142 689" fill="none" xmlns="http://www.w3.org/2000/svg">
<rect width="1140.77" height="685.018" transform="matrix(0.999999 -0.00105391 0.00106329 0.999999 0 1.20227)" fill="#000080"/>
<path d="M901.12 576.673L898.355 574.729C931.696 550.425 946.769 549.897 991.522 548.314L998.728 548.064C1003.83 547.869 1008.66 547.73 1013.22 547.591C1063.15 546.036 1081.85 545.453 1092.13 510.483C1104.01 470.29 1101.94 398.211 1092.63 358.686C1085.66 328.854 1057.19 312.411 1027.04 294.995C1005.23 282.413 982.681 269.386 969.087 250.831C939.213 210.056 975.358 144.143 1007.26 85.9521C1021.75 59.5648 1035.42 34.6218 1040.75 15.4563L1044.65 15.9841C1039.24 35.4273 1025.52 60.4259 1010.96 86.9798C979.37 144.588 943.536 209.889 972.632 249.554C985.835 267.58 1008.08 280.441 1029.58 292.857C1058.94 309.8 1089.32 327.354 1096.57 358.214C1105.92 397.989 1107.98 470.54 1096.02 510.982C1085.08 548.064 1064.12 548.73 1013.45 550.313L999 550.786L991.795 551.036C948.093 552.619 933.409 553.147 901.12 576.673Z" fill="white"/>
<path d="M885.813 579.117L883.086 577.145C916.972 553.091 931.306 552.147 978.746 549.369L989.691 548.758C1040.33 545.981 1057.23 545.008 1067.59 510.844C1080.68 468.541 1083.83 396.962 1074.37 357.853C1067.04 327.299 1037.72 310.828 1006.67 293.301C983.888 280.469 960.362 267.164 946.379 247.943C916.856 207.39 953.546 143.671 985.874 87.4522C1001.45 60.4538 1016.06 34.9831 1021.47 15.2343L1025.37 15.762C1019.92 35.8441 1005.15 61.4537 989.574 88.5632C957.519 144.115 921.218 207.306 949.885 246.721C963.517 265.414 986.731 278.524 1009.17 291.162C1039.43 308.245 1070.71 325.91 1078.3 357.408C1087.8 396.906 1084.61 468.902 1071.48 511.455C1060.31 547.564 1041.1 548.703 989.691 551.536L979.175 552.147C931.501 555.036 918.686 555.786 885.813 579.117Z" fill="white"/>
<path d="M876.738 585.006L873.855 583.118C904.002 559.48 916.505 557.369 959.544 553.008H960.83C1015.83 547.453 1027.32 546.259 1038.49 512.177C1053.8 465.763 1068.21 397.101 1058.63 356.381C1051.19 324.688 1019.68 307.495 986.147 289.274C961.687 275.969 936.408 262.22 921.647 242.304C891.811 201.973 930.449 140.866 964.491 86.9525C981.395 60.2318 997.325 35.0111 1003.17 15.0956L1007.06 15.6511C1001.14 35.8721 985.095 61.2317 968.113 88.0913C934.383 141.421 896.135 201.973 925.269 240.999C939.602 260.442 964.53 273.941 988.64 287.08C1021.24 304.801 1054.85 323.189 1062.64 355.937C1072.34 397.045 1057.81 466.152 1042.47 512.816C1030.78 548.758 1017.38 550.092 961.531 555.758H960.245C917.284 560.091 906.067 561.98 876.738 585.006Z" fill="white"/>
<path d="M872.882 593.367L869.259 592.311C882.775 568.507 910.312 562.285 936.876 556.202C964.14 550.064 989.73 544.259 1002.7 521.177C1010.68 506.983 1014.07 489.262 1017.31 472.096C1019.31 459.818 1022.3 447.633 1026.26 435.598C1027.78 431.432 1029.46 427.266 1031.13 422.877C1040.05 400.156 1049.24 376.657 1043.01 354.159C1033.98 321.55 999.74 303.273 963.517 283.913C933.175 267.719 901.821 250.97 887.449 225.139C865.092 184.863 902.561 135.561 938.784 87.869C958.999 61.2595 978.123 36.0943 985.056 14.4011L988.951 15.0122C981.862 37.2331 962.66 62.3983 942.212 89.2022C906.417 136.422 869.415 185.058 891.071 224.111C905.015 249.109 935.941 265.775 965.854 281.691C1000.91 300.495 1037.52 319.966 1046.83 353.603C1053.26 376.769 1043.91 400.6 1034.91 423.627C1033.24 427.904 1031.56 432.126 1030.04 436.293C1026.12 448.197 1023.16 460.253 1021.2 472.402C1017.89 489.706 1014.5 507.622 1006.32 522.121C992.651 546.425 964.919 552.675 938.083 558.786C911.247 564.896 885.696 570.757 872.882 593.367Z" fill="white"/>
<path d="M872.492 604.088L868.597 603.477C875.219 583.006 891.071 577.007 909.416 570.146C916.597 567.528 923.567 564.626 930.293 561.452C953.117 550.341 955.026 546.258 962.115 531.259C963.205 528.982 964.413 526.426 965.815 523.565C972.397 510.344 977.5 496.122 982.096 482.373C987.274 466.309 993.777 450.477 1001.57 434.959C1003.79 430.821 1006.17 426.627 1008.58 422.294C1021.67 399.045 1035.22 375.074 1029.11 351.076C1020.19 316.189 982.057 296.801 941.666 276.247C908.209 259.164 873.66 241.693 858.081 214.5C835.256 174.697 876.348 128.394 916.037 83.5636C938.317 58.3706 959.349 34.7054 967.373 13.9288L971.268 14.651C963.088 35.9553 941.939 59.8706 919.504 85.1746C880.321 129.394 839.774 175.114 861.859 213.584C876.971 239.943 911.052 257.276 944.042 274.052C983.264 293.996 1023.85 314.633 1033.08 350.631C1039.39 375.352 1025.64 399.767 1012.32 423.377C1009.91 427.654 1007.53 431.876 1005.35 436.015C997.624 451.465 991.211 467.234 986.147 483.234C981.356 497.122 976.37 511.344 969.788 524.676C968.386 527.454 967.178 530.065 966.088 532.343C959.038 547.258 956.662 552.258 932.747 563.924C925.921 567.172 918.833 570.13 911.519 572.785C893.135 579.395 878.724 584.867 872.492 604.088Z" fill="white"/>
<path d="M874.635 616.31L870.74 616.088C872.687 598.005 886.709 581.395 900.224 565.341C910.819 552.786 921.802 539.787 927.06 526.065C933.838 508.566 948.755 486.901 964.569 463.986C991.833 424.182 1022.99 379.074 1015.71 347.326C1007.06 309.967 962.466 288.274 919.349 267.275C882.502 249.332 844.371 230.805 827.545 202.418C804.175 162.753 849.201 119.811 892.902 78.314C917.44 55.0098 940.615 33.0111 949.885 12.9845L953.585 13.8733C944.081 34.3166 920.751 56.4819 896.018 79.9805C852.979 120.867 808.459 163.142 831.128 201.334C847.526 229.111 885.151 247.276 921.53 264.997C965.348 286.302 1010.65 308.356 1019.57 346.854C1027.12 379.491 995.728 425.016 968.035 465.18C952.456 487.984 937.499 509.622 930.839 526.787C925.386 540.87 914.324 554.036 903.574 566.757C889.669 583.34 876.504 598.894 874.635 616.31Z" fill="white"/>
<path d="M874.245 629.448C873.232 598.45 876.621 551.286 886.553 520.982C894.655 496.15 918.764 471.707 944.315 445.82C977.266 412.488 1011.31 377.879 1006.87 343.048C1001.92 304.328 950.002 279.469 899.796 255.47C863.729 238.193 826.415 220.361 807.992 197.64C771.847 153.198 821.274 113.395 869.104 74.9807C894.732 54.4263 921.179 33.3165 932.552 12.1233L936.175 13.0955C924.49 34.6497 897.848 56.0929 872.025 76.8139C825.286 114.478 776.599 153.448 811.342 196.251C829.336 218.472 864.625 235.138 901.938 253.165C952.923 277.524 1005.62 302.745 1010.76 342.798C1015.32 378.546 980.85 413.488 947.47 447.32C922.192 472.957 898.277 497.317 890.331 521.482C880.477 551.591 877.127 598.45 878.14 629.281L874.245 629.448Z" fill="white"/>
<path d="M881.84 642.78H877.945C878.179 624.531 869.26 607.255 860.652 590.561C849.785 569.424 838.529 547.592 845.5 523.51C853.836 494.873 886.943 467.68 918.959 441.431C958.22 409.211 998.806 375.88 995.144 339.354C991.055 298.884 933.293 272.025 877.4 246.054C836.114 226.833 797.047 208.695 777.767 185.363C739.402 139.005 792.529 104.118 843.981 70.3699C872.376 51.7043 901.743 32.4277 915.376 11.429L918.92 12.5956C904.82 34.0665 875.18 53.5376 846.396 72.3976C793.854 106.896 744.232 139.505 781 183.919C799.852 206.695 838.49 224.666 879.426 243.693C936.097 270.053 994.677 297.273 998.883 339.132C1002.78 376.824 961.57 410.572 921.764 443.209C890.098 469.207 857.302 495.983 849.201 524.037C842.462 547.342 853.096 567.84 864.196 589.561C873.038 606.505 882.074 624.004 881.84 642.78Z" fill="white"/>
<path d="M880.75 655.946C874.401 640.586 860.457 625.059 845.695 608.727C821.664 581.979 796.814 554.286 805.305 525.926C814.536 495.123 854.303 467.069 892.785 439.82C938.59 407.461 985.991 374.019 982.992 335.604C981.201 312.3 941.044 288.857 914.48 273.358L905.132 267.803C890.721 259.137 873.038 250.443 854.498 241.193C815.081 221.75 770.367 199.779 748.088 173.281C707.503 125.117 764.096 94.7019 818.781 65.3147C849.941 48.649 882.152 31.2334 898.004 10.4846L901.432 11.8179C885.19 33.0944 852.628 50.7045 821.118 67.5368C765.343 97.5073 712.683 125.867 751.399 171.864C773.288 197.835 817.613 219.667 856.562 238.916C875.375 248.193 893.136 256.942 907.664 265.664L916.973 271.219C944.237 287.024 985.018 310.911 987.082 335.465C990.159 375.13 942.134 409.017 895.706 441.792C857.653 468.624 818.314 496.4 809.317 526.399C801.137 553.647 825.558 580.84 849.162 607.116C864.041 623.782 878.14 639.392 884.645 655.113L880.75 655.946Z" fill="white"/>
<path d="M881.451 667.584C871.674 650.363 850.291 633.975 827.311 616.643C794.515 591.645 760.59 565.868 763.473 536.676C767.368 498.067 817.223 467.569 865.442 438.07C917.05 406.544 970.372 373.935 963.984 332.521C956.896 286.44 894.616 260.136 834.4 234.694C781.506 212.473 726.821 189.28 708.437 152.671C690.365 116.562 701.816 104.423 747.932 83.4525C761.525 77.2862 774.456 72.1754 786.881 67.2312C823.221 52.871 854.614 40.4828 880.36 10.0402L883.671 11.4567C857.575 42.5382 825.753 55.1208 788.907 69.7866C776.443 74.703 763.551 79.786 749.957 85.9246C705.126 106.284 694.688 117.423 712.02 151.837C729.937 187.502 784.038 210.334 836.308 232.388C897.342 258.164 960.479 284.829 967.763 332.382C974.384 375.407 920.244 408.489 867.935 440.487C820.3 469.457 771.029 499.428 767.329 536.87C764.563 564.868 797.904 590.228 830.115 614.643C853.173 632.17 874.946 648.752 884.995 666.446L881.451 667.584Z" fill="white"/>
<path d="M878.685 677.306C856.834 645.252 835.451 632.42 805.888 614.643C796.502 609.088 785.829 602.616 774.183 594.978C753.423 581.395 726.042 560.757 727.756 538.62C730.911 498.206 786.531 467.152 840.32 437.154C897.03 405.572 955.922 372.63 949.573 329.604C942.484 281.885 876.698 254.609 813.055 228.222C757.318 205.14 699.712 181.252 680.627 143.532C669.526 137.088 663.411 130.033 662.476 122.589C661.464 114.534 666.371 105.923 677.394 96.9238L677.823 96.6738L722.303 76.2861C737.104 70.7309 750.97 66.12 764.407 61.8147C802.188 49.621 834.867 39.1217 862.521 9.31787L865.793 10.8456C837.476 41.3993 804.369 51.982 766.004 64.3424C752.644 68.6477 738.739 73.0919 724.289 78.6749L680.16 98.8959C670.072 107.229 665.437 115.117 666.332 122.339C667.189 129.089 672.993 135.588 683.509 141.616L683.938 141.838V142.227C702.517 179.197 759.694 202.917 815.003 225.833C879.503 252.553 946.145 280.191 953.429 329.299C960.011 373.88 900.38 407.072 842.735 439.32C789.646 468.957 734.728 499.622 731.651 538.786C730.015 559.73 756.656 579.729 776.832 592.922C788.517 600.533 799.033 606.81 808.381 612.532C838.333 630.503 859.989 643.503 882.19 676.084L878.685 677.306Z" fill="white"/>
<path d="M871.402 684.333C846.513 650.752 821.702 637.447 787.427 619.087C776.131 613.032 763.356 606.199 749.529 597.977C731.69 587.395 694.532 565.313 696.324 540.064C699.284 498.4 759.072 466.957 817.067 436.598C877.829 404.711 940.693 371.713 934.227 327.577C927.022 278.691 858.588 250.692 792.373 223.611C734.339 199.89 674.318 175.336 654.609 136.588C643.197 130.144 636.926 123.089 635.952 115.645C634.94 107.618 640.12 98.9793 651.299 90.0631L651.766 89.7576L698.116 70.9531C713.696 65.7034 728.496 61.7592 742.674 57.9539C781.623 47.5378 815.081 38.5106 844.137 8.90125L847.331 10.4845C817.574 40.8438 783.493 49.9822 744.076 60.4815C729.937 64.2591 715.331 68.1755 699.907 73.3419L653.986 91.9797C643.703 100.312 638.952 108.118 639.847 115.312C640.704 122.061 646.625 128.561 657.452 134.588L657.881 134.81L658.076 135.199C677.122 173.197 736.715 197.557 794.399 221.111C861.431 248.554 930.722 276.913 938.161 327.216C944.899 372.935 881.1 406.405 819.443 438.765C762.304 468.735 703.257 499.872 700.414 540.12C698.739 563.979 734.845 585.45 752.217 595.672C765.966 603.81 778.702 610.643 789.959 616.671C823.338 634.559 849.707 648.697 875.063 682.861L871.402 684.333Z" fill="white"/>
<path d="M858.392 688.056C832.725 653.308 804.525 639.281 768.809 621.393C756.15 615.088 741.778 607.922 726.393 599.172C704.659 586.923 668.319 566.452 670.228 540.675C673.421 498.178 735.624 466.652 795.762 436.154C858.821 404.211 924.022 371.158 917.284 326.355C909.845 276.802 839.852 248.415 772.119 220.972C712.644 196.863 651.181 171.947 631.122 132.533C619.71 126.061 613.4 119.006 612.466 111.534C611.414 103.479 616.555 94.8686 627.734 85.8413L628.279 85.5358L675.758 67.6757C692.234 62.6483 707.502 59.1207 722.303 55.6765C761.642 46.5381 795.645 38.6497 825.169 8.45703L828.362 10.0403C798.099 40.9829 763.512 48.9269 723.511 58.2874C708.788 61.7039 693.597 65.2314 677.394 70.1478L630.382 87.8412C620.139 96.1741 615.387 104.035 616.322 111.257C617.217 118.034 623.138 124.533 633.966 130.561L634.433 130.811L634.628 131.2C654.103 169.836 715.019 194.585 774.067 218.528C842.618 246.304 913.506 275.08 921.14 326.022C928.151 372.463 861.976 405.989 798.021 438.404C738.623 468.513 677.277 499.511 674.123 540.814C672.331 565.118 707.658 585.062 728.652 596.95C743.959 605.588 757.63 612.393 770.873 619.004C807.018 637.003 835.568 651.197 861.703 686.556L858.392 688.056Z" fill="white"/>
<path d="M838.606 688.5C812.939 654.113 784.622 639.697 748.789 621.448C735.663 614.754 722.108 607.866 706.996 599.228C683.977 586.062 649.234 566.146 650.948 540.898C653.869 498.345 716.149 466.735 776.365 436.154C839.424 404.156 904.626 371.074 898.043 326.244C890.721 276.552 820.456 248.471 752.45 221.083C692.935 197.251 631.239 172.253 611.142 132.95C599.807 126.478 593.575 119.395 592.602 111.895C591.55 103.812 596.497 95.2296 607.597 86.1468L608.142 85.8412L655.855 67.9534C672.526 62.9259 687.989 59.3983 702.945 55.9819C742.479 46.9824 776.599 39.3162 805.928 8.76245L809.161 10.3457C779.053 41.5383 744.349 49.4823 703.997 58.6484C689.118 62.0371 673.772 65.5369 657.258 70.481L610.012 88.1744C599.885 96.5073 595.25 104.396 596.185 111.645C597.081 118.45 602.962 124.978 613.712 131.089L614.18 131.339V131.7C633.654 170.364 694.883 194.946 754.086 218.694C822.949 246.304 894.109 274.858 901.626 325.994C908.443 372.408 842.307 405.989 778.352 438.459C718.876 468.624 657.375 499.845 654.57 541.064C652.934 564.896 686.781 584.256 709.099 597.089C724.095 605.699 737.61 612.588 750.697 619.31C786.959 637.753 815.587 652.336 841.683 687.306L838.606 688.5Z" fill="white"/>
<path d="M813.406 688.5C788.751 655.168 762.149 639.864 728.457 620.42C716.772 613.726 705.088 606.838 691.767 598.505C671.396 585.645 637.238 564.063 638.757 540.175C641.366 498.178 701.738 466.346 760.123 435.598C821.391 403.322 884.761 369.935 878.257 325.577C871.012 276.219 801.098 249.026 733.482 222.805C674.162 199.723 612.738 175.864 592.679 136.921C581.345 130.45 575.074 123.394 574.101 115.895C573.049 107.84 577.996 99.2292 589.096 90.1742L589.603 89.8686L637.393 71.2308C653.83 65.9812 669.215 62.1758 684.133 58.4816C724.017 48.6211 758.448 40.0938 787.738 9.67896L790.932 11.2622C760.941 42.3992 725.926 51.0654 685.418 61.2592C670.617 64.9257 655.31 68.7032 639.146 73.8418L591.823 92.3407C581.735 100.674 577.061 108.562 578.035 115.784C579.008 123.006 584.812 129.089 595.562 135.227L595.99 135.477L596.185 135.866C615.66 174.03 676.499 197.696 735.39 220.611C803.863 247.248 874.712 274.83 882.152 325.632C888.89 371.546 824.624 405.405 762.46 438.154C704.815 468.541 645.183 499.955 642.691 540.62C641.288 563.313 674.512 584.339 694.377 596.894C707.502 605.227 719.421 612.032 730.95 618.698C764.953 638.364 791.867 653.863 816.911 687.639L813.406 688.5Z" fill="white"/>
<path d="M783.415 688.444C770.951 669.779 744.076 651.169 715.643 631.448C673.188 602.033 629.292 571.59 631.707 538.564C634.706 497.567 691.689 465.569 746.802 434.598C805.227 401.85 865.365 367.936 858.393 324.383C850.603 275.802 781.506 250.22 714.669 225.472C655.894 203.723 595.133 181.225 574.841 143.005C563.545 136.644 557.313 129.616 556.301 122.172C555.249 114.117 560.196 105.507 571.374 96.3684L571.842 96.0629L619.749 76.2029C635.991 70.6477 651.337 66.3702 666.138 62.3149C706.451 51.2044 741.272 41.6494 770.445 10.7902L773.639 12.3456C743.803 43.9271 708.476 53.6487 667.54 64.9258C652.778 68.9812 637.549 73.2587 621.58 78.8139L574.101 98.535C563.896 106.868 559.222 114.84 560.196 122.089C561.092 128.839 566.973 135.283 577.684 141.227L578.112 141.477V141.838C597.587 179.28 657.959 201.584 716.266 223.166C784.038 248.165 854.108 274.191 862.093 324.244C869.26 369.38 808.148 403.739 749.139 436.959C694.61 467.513 638.445 499.15 635.524 538.87C633.187 570.646 676.46 600.616 718.291 629.615C746.997 649.502 774.106 668.307 786.842 687.417L783.415 688.444Z" fill="white"/>
<path d="M749.724 688.333C739.869 670.084 718.564 651.002 695.662 630.809C660.958 600.005 625.085 568.174 628.825 536.537C633.46 497.345 685.457 465.18 735.741 434.071C792.685 398.85 846.474 365.602 838.645 322.966C829.921 275.469 761.915 251.998 696.129 229.277C638.056 209.223 578.034 188.474 557.508 151.198C546.291 144.949 540.059 138.033 539.046 130.644C537.916 122.561 542.941 113.812 554.275 104.646L554.704 104.396L602.728 82.8969C618.853 76.8695 634.083 72.1475 648.845 67.5922C689.664 54.9541 724.874 44.0659 754.008 12.4288L757.28 13.9565C727.6 46.2879 691.845 57.3429 650.48 70.1199C635.797 74.6752 620.606 79.3693 604.754 85.3134L557.041 106.701C546.68 115.228 541.928 123.228 542.941 130.477C543.837 137.144 549.718 143.477 560.312 149.337L560.78 149.56L560.975 149.921C580.722 186.419 640.276 206.973 697.804 226.861C764.602 250.026 833.504 273.719 842.501 322.66C850.603 366.713 793.503 402.017 738.311 436.182C688.612 466.902 637.043 498.706 632.72 536.759C629.097 567.313 664.463 598.7 698.7 629.087C721.641 649.447 743.297 668.696 753.229 687.417L749.724 688.333Z" fill="white"/>
<path d="M713.345 688.195C706.45 669.779 691.182 650.28 675.018 629.643C650.091 597.811 624.384 564.896 629.019 534.12C634.628 497.261 681.055 464.93 725.925 433.654C778.39 397.24 827.934 362.631 819.131 321.494C809.082 275.413 742.44 254.331 677.939 233.971C620.489 215.889 561.403 197.251 540.604 161.142C529.425 155.059 523.232 148.282 522.181 140.977C521.012 132.866 526.076 124.034 537.76 114.701L538.15 114.479L586.33 91.1466C602.261 84.5637 617.49 79.2862 632.135 74.2031C673.499 59.8151 709.216 47.427 738.116 14.7067L741.388 16.2066C711.903 49.5379 675.719 62.1483 633.849 76.703C619.243 81.786 604.091 87.0357 588.395 93.3687L540.526 116.562C529.932 125.228 524.946 133.227 526.153 140.588C527.088 147.171 532.931 153.393 543.486 159.059L543.914 159.281L544.109 159.643C564.129 195.029 622.748 213.556 679.459 231.444C744.894 252.137 812.549 273.497 822.909 321.077C832.179 363.658 779.598 400.267 728.768 435.682C684.366 466.597 638.484 498.567 632.992 534.454C628.435 564.369 653.908 596.867 678.524 628.309C694.805 649.114 710.229 668.779 717.239 687.5L713.345 688.195Z" fill="white"/>
<path d="M675.33 688.028C671.825 669.556 663.295 649.974 654.298 629.225C639.964 596.227 625.124 562.118 631.123 531.481C637.744 497.761 677.862 465.485 716.5 434.265C762.265 397.378 809.55 359.269 799.306 319.827C787.622 275.385 722.498 256.886 659.478 239.026C603.001 223.055 544.655 206.528 523.7 171.336C500.993 133.227 525.258 119.95 570.128 99.7291C585.708 92.674 600.898 86.8132 615.504 81.1469C657.452 64.8701 693.637 50.8154 722.381 16.8729L725.731 18.3173C696.441 52.8152 659.79 67.0922 617.374 83.5356C602.806 89.0909 587.772 95.0627 572.192 102.062C524.284 123.644 506.796 135.866 527.283 170.225C547.771 204.584 605.182 220.666 660.88 236.415C724.913 254.553 791.127 273.302 803.124 319.299C813.718 360.047 765.771 398.684 719.421 435.959C681.095 466.902 641.522 498.872 634.979 531.759C629.097 561.785 643.781 595.644 657.998 628.309C667.073 649.141 675.642 668.834 679.186 687.555L675.33 688.028Z" fill="white"/>
<path d="M640.509 687.833H636.614C636.614 670.196 634.861 652.03 632.992 632.753C629.603 597.7 626.098 561.424 634.082 528.732C641.327 498.9 674.59 467.096 706.762 436.348C748.282 396.628 791.205 355.575 779.637 318.077C766.433 275.247 702.75 259.47 641.21 244.193C585.785 230.472 528.491 216.25 507.107 182.336C483.932 145.615 509.834 130.477 554.041 108.784C569.621 101.201 584.578 94.7296 599.106 88.48C641.6 70.2033 678.329 54.4542 706.957 19.2063L710.307 20.5951C681.172 56.4541 644.092 72.3976 601.248 90.841C586.759 97.0906 571.763 103.535 556.378 111.09C512.56 132.561 488.84 146.421 510.769 181.197C531.451 214.028 587.966 228.027 642.574 241.582C705.165 257.109 769.899 273.136 783.57 317.494C795.528 356.214 752.021 397.795 709.995 438.015C678.095 468.569 645.105 500.039 638.016 529.204C630.226 561.563 633.615 597.672 637.004 632.587C638.756 651.863 640.509 670.112 640.509 687.833Z" fill="white"/>
<path d="M602.066 688.028L598.171 687.667C605.611 646.725 616.361 605.172 626.721 564.979C630.071 551.98 633.421 539.009 636.653 526.093C643.353 499.261 669.488 469.624 697.142 438.237C734.378 395.989 772.899 352.325 759.967 316.411C745.167 275.247 682.964 262.053 622.865 249.304C568.336 237.777 512.249 225.861 490.437 193.279C465.509 156.115 497.448 139.199 537.878 117.784C553.224 109.645 568.18 102.618 582.669 95.8129C625.709 75.5641 662.866 58.0651 691.416 21.5673L694.805 22.9005C665.865 59.9817 628.279 77.6473 584.851 98.0905C570.4 104.896 555.483 111.979 540.253 119.978C495.656 143.588 471.547 158.587 493.982 192.029C515.053 223.5 570.439 235.249 623.995 246.609C685.184 259.581 748.633 272.997 763.784 315.689C777.105 352.742 738.156 396.962 700.492 439.681C673.032 470.846 647.092 500.261 640.509 526.565C637.277 539.481 633.927 552.48 630.577 565.452C620.217 605.56 609.506 647.225 602.066 688.028Z" fill="white"/>
<path d="M564.87 688.167L560.975 687.5C570.05 661.085 584.072 635.837 597.626 611.394C613.206 583.284 629.331 554.23 637.744 523.538C648.416 484.651 669.683 452.847 692.274 419.072C695.623 414.044 699.012 408.961 702.439 403.767C705.439 399.212 708.944 394.323 712.644 389.129C729.159 366.158 749.685 337.549 740.337 314.772C724.095 275.163 663.295 264.386 604.482 253.97C551.121 244.526 495.968 234.777 473.65 203.445C448.177 167.725 480.583 149.365 521.558 126.144C536.748 117.534 551.666 109.979 566.077 102.646C609.623 80.4249 647.209 61.3983 675.72 23.7061L679.148 25.0115C650.208 63.287 610.441 83.5081 568.336 104.923C553.964 112.229 539.085 119.756 523.973 128.339C484.361 150.754 453.085 168.475 477.234 202.195C498.734 232.388 553.029 241.999 605.533 251.276C665.398 261.886 727.328 272.83 744.193 313.994C753.97 337.826 733.054 366.963 716.227 390.407C712.527 395.545 709.022 400.434 706.062 404.961C702.634 410.155 699.245 415.238 695.896 420.266C672.526 455.319 652.389 485.623 641.834 524.093C633.304 555.008 617.101 584.201 601.443 612.421C587.85 636.753 573.75 661.918 564.87 688.167Z" fill="white"/>
<path d="M529.853 688.278L526.192 687.389C538.695 660.946 558.676 636.947 577.995 613.726C601.949 585.006 626.682 555.397 636.419 521.371C649.194 477.235 667.384 442.625 689.819 401.933C692.428 397.184 695.544 392.073 698.855 386.657C712.916 363.658 730.443 335.049 720.55 313.272C703.139 274.941 643.508 266.33 585.824 257.997C533.437 250.415 479.219 242.582 456.473 212.417C430.493 177.974 463.99 157.892 502.783 134.644L504.731 133.505C519.804 124.478 534.644 116.423 548.978 108.645C592.951 84.8133 630.771 64.2034 659.399 25.5391L662.866 26.8168C634.004 66.0644 593.847 87.9243 551.315 110.867C537.02 118.617 522.219 126.644 507.263 135.616L505.315 136.782C466.366 160.17 435.401 178.641 459.9 211.084C481.79 240.11 535.073 247.831 586.603 255.275C645.377 263.747 706.139 272.524 724.25 312.411C734.611 335.187 716.772 364.352 702.438 387.768C699.128 393.156 696.051 398.239 693.441 402.933C671.084 443.459 652.973 477.929 640.236 521.871C630.304 556.258 605.376 586.173 581.267 615.087C562.065 638.253 542.239 662.112 529.853 688.278Z" fill="white"/>
<path d="M498.071 688.361L494.488 687.333C509.678 660.168 534.761 636.614 558.988 613.838C589.408 585.256 620.879 555.73 631.473 519.621C642.989 479.357 657.789 439.607 675.797 400.573C678.134 395.545 680.978 390.101 684.016 384.351C696.012 361.464 710.969 332.965 700.842 312.133C682.653 274.663 623.956 267.692 567.167 261.22C515.52 255.22 462.004 248.998 438.946 219.722C412.538 186.391 447.086 164.753 483.66 141.949L487.555 139.532C502.472 130.172 517.273 121.728 531.568 113.59C574.022 89.3687 614.14 66.3701 642.612 27.1224L646.079 28.4001C617.217 68.3144 576.788 91.3686 533.982 115.756C519.727 123.894 504.965 132.422 490.125 141.616L486.23 144.032C449.384 167.059 417.563 186.946 442.412 218.389C464.613 246.498 517.078 252.609 567.829 258.498C625.747 265.247 685.613 272.219 704.542 311.272C715.136 333.077 699.907 362.075 687.716 385.379C684.678 391.101 681.835 396.489 679.537 401.517C661.562 440.448 646.801 480.097 635.329 520.26C624.384 556.897 592.796 586.7 562.065 615.504C537.994 638.142 513.067 661.557 498.071 688.361Z" fill="white"/>
<path d="M470.534 688.389L466.951 687.305C483.699 658.946 512.638 635.503 540.604 612.838C576.671 583.589 610.713 555.952 621.658 518.399L625.942 503.622C636.069 468.429 645.651 435.209 659.712 399.6C661.854 394.184 664.541 388.323 667.501 382.157C678.368 358.436 690.871 331.549 681.056 311.105C663.334 273.858 604.91 268.358 548.238 263.025C497.059 258.22 444.087 253.248 420.796 224.694C394.115 192.001 428.157 170.114 464.185 146.921L469.443 143.532C484.283 133.949 499.045 125.228 513.301 116.784C556.145 91.5907 596.302 67.7588 624.813 28.0389L628.279 29.3166C599.379 69.4809 558.793 93.5628 515.793 118.95C501.538 127.283 486.815 136.06 472.053 145.615L466.795 149.004C431.974 171.392 399.062 192.557 424.145 223.305C446.502 250.665 498.5 255.553 548.783 260.275C606.507 265.83 666.216 271.386 684.678 310.272C694.766 331.576 682.185 358.936 671.124 383.073C668.28 389.24 665.593 395.045 663.334 400.406C649.351 435.904 639.964 469.096 629.643 504.233L625.358 519.038C614.258 557.23 578.229 586.422 543.564 614.643C515.754 637.169 487.049 660.446 470.534 688.389Z" fill="white"/>
<path d="M448.138 688.361L444.555 687.333C461.42 657.113 492.618 633.586 522.843 610.81C560.118 582.673 595.367 556.119 605.922 518.093C607.844 511.242 609.713 504.437 611.531 497.678C620.723 464.346 629.409 432.598 641.094 399.378C643.158 393.517 645.923 387.101 648.884 380.268C658.971 356.797 670.423 330.271 660.997 310.828C642.846 273.413 584.89 268.664 528.88 264.053C478.051 259.859 425.508 255.553 401.944 227.027C375.108 194.474 410.162 171.558 444.204 149.365L450.436 145.31C465.198 135.588 479.96 126.7 494.215 118.117C537.06 92.3407 577.333 68.1199 605.961 28.4279L609.428 29.7056C580.449 69.7865 539.786 94.2851 496.708 120.228C482.491 128.811 467.769 137.671 453.085 147.337L446.853 151.421C412.499 173.836 380.093 195.001 405.255 225.472C427.845 252.803 479.259 257.053 529.27 261.136C586.525 265.858 645.69 270.719 664.619 309.8C674.473 330.132 662.866 357.214 652.584 381.101C649.662 387.879 646.936 394.267 644.794 400.045C633.109 433.209 624.462 464.791 615.27 498.206C613.427 504.964 611.557 511.77 609.661 518.621C598.872 557.508 561.598 585.534 525.57 612.727C495.851 635.309 464.692 658.64 448.138 688.361Z" fill="white"/>
<path d="M430.065 685.389L426.443 684.361C443.347 653.808 474.935 630.309 505.472 607.616C542.824 579.84 578.112 553.619 588.823 515.483C592.446 502.511 595.951 489.401 599.301 476.735C606.039 451.459 612.972 425.321 621.463 399.378C623.41 393.351 626.137 386.768 628.98 379.796C638.328 356.964 648.883 331.132 639.691 312.078C621.93 275.219 565.181 269.553 510.301 264.053C460.602 259.081 409.033 253.942 385.897 225.805C359.177 193.502 392.635 171.531 428.079 148.254L433.532 144.477C447.826 135.033 462.082 126.367 475.87 117.978C517.974 92.3409 557.664 68.1479 586.447 28.928L589.875 30.2334C560.974 70.0089 520.896 94.4797 478.519 120.2C464.769 128.533 450.553 137.227 436.297 146.643L430.728 150.31C396.452 172.781 364.124 194.002 389.285 224.389C411.603 251.359 462.082 256.415 510.847 261.303C566.895 266.858 624.813 272.719 643.275 311.161C652.856 331.049 642.106 357.353 632.602 380.602C629.759 387.573 627.072 394.129 625.124 400.045C616.672 425.932 609.545 452.014 603.001 477.263C599.651 489.956 596.185 503.067 592.524 516.149C581.579 555.036 544.265 582.812 508.159 609.644C478.012 632.031 446.697 655.308 430.065 685.389Z" fill="white"/>
<path d="M414.447 677.195L410.863 676.167C427.884 645.613 459.978 622.559 490.982 600.227C528.919 572.923 564.752 547.119 575.269 508.983C578.657 496.567 584.617 480.484 590.849 463.458C609.7 412.516 633.148 349.103 617.023 314.661C600.119 278.552 545.784 271.302 493.202 264.303C445.645 257.97 396.452 251.415 374.134 223.611C348.116 191.168 381.106 169.281 416.005 146.087L420.133 143.31C433.804 134.199 447.398 125.839 460.446 117.784C501.07 92.7851 539.435 69.1754 567.206 30.761L570.673 32.0387C542.551 70.9253 503.913 94.7016 463.017 119.895C449.93 127.922 436.414 136.255 422.821 145.338L418.653 148.115C383.599 171.475 353.023 191.668 377.522 222.222C398.945 248.887 447.242 255.331 493.942 261.553C547.576 268.691 603.001 276.08 620.723 313.744C637.198 348.992 613.595 412.849 594.627 464.152C588.317 481.123 582.397 497.15 579.047 509.483C568.336 548.369 530.399 575.756 493.709 602.172C463.017 624.337 431.195 647.224 414.447 677.195Z" fill="white"/>
<path d="M400.853 664.751L397.27 663.668C415.148 633.781 447.203 610.893 478.168 588.672C518.792 559.702 557.158 532.315 565.571 490.706C568.141 478.096 573.361 461.624 578.814 444.209C592.407 401.017 609.35 347.27 597.548 316.439C584.383 282.079 530.283 271.358 477.973 260.886C438.712 253.081 398.127 245.026 375.614 226.916C337.833 196.529 362.566 174.475 401.594 146.588C417.563 135.199 433.532 125.144 448.995 115.395C486.464 91.8408 521.869 69.5643 548.082 33.3442L551.549 34.6219C524.985 71.3142 489.23 93.7295 451.566 117.478C436.181 127.2 420.406 137.227 404.32 148.56C365.643 176.336 342.936 196.446 378.535 225.083C400.269 242.582 440.309 250.526 479.025 258.22C532.386 268.802 587.577 279.746 601.287 315.633C613.362 347.131 596.302 401.239 582.592 444.737C577.139 462.097 571.958 478.512 569.427 491.039C560.819 533.537 520.234 562.535 480.934 590.561C450.202 612.671 418.42 635.364 400.853 664.751Z" fill="white"/>
<path d="M388.779 649.058L385.196 647.947C403.074 619.171 435.83 597.089 467.613 575.729C509.99 547.203 549.991 520.177 556.807 479.04C558.326 469.624 560.702 458.18 563.429 446.07C572.387 404.406 583.604 352.326 572.426 321.272C560.274 287.413 511.08 274.441 463.367 261.886C427.339 252.359 390.103 242.443 369.071 223.666C334.016 192.252 358.204 170.142 393.375 144.505C408.293 133.616 423.133 124.145 437.505 114.951C472.209 92.7298 504.965 71.7588 528.841 36.9553L532.347 38.1775C508.237 73.4254 475.208 94.4797 440.231 116.978C425.898 126.144 411.136 135.616 396.296 146.421C362.488 171.058 339.235 192.279 372.265 221.917C392.596 240.193 429.326 249.859 464.847 259.248C513.378 272.053 563.545 285.274 576.204 320.55C587.538 352.159 576.204 404.434 567.246 446.459C564.675 458.541 562.221 469.985 560.663 479.346C553.691 521.565 511.431 550.008 470.3 577.784C438.868 598.922 406.267 620.81 388.779 649.058Z" fill="white"/>
<path d="M377.717 631.114L374.25 629.92C393.297 601.894 426.248 580.923 458.147 560.646C498.304 535.12 536.046 510.982 547.731 474.262C557.897 441.903 557.352 360.38 543.369 327.438C529.386 294.495 487.204 279.83 446.346 265.636C409.889 252.942 372.342 239.832 353.841 213.917C335.34 188.002 358.242 164.642 379.937 146.865C396.315 133.703 413.865 121.308 432.48 109.756C462.159 90.6741 487.788 74.1751 509.911 40.8159L513.417 41.9825C490.982 75.8694 465.08 92.5351 435.089 111.839C416.592 123.298 399.158 135.601 382.897 148.671C362.02 165.809 340.053 188.585 357.346 212.556C375.146 237.554 412.226 250.553 448.099 263.053C489.697 277.524 532.736 292.495 547.147 326.549C561.247 359.88 561.792 442.125 551.587 474.79C539.902 512.399 501.42 536.787 460.757 562.646C429.13 582.839 396.452 603.616 377.717 631.114Z" fill="white"/>
<path d="M367.318 611.921L363.851 610.616C389.558 576.34 412.966 559.73 455.694 535.453L468.08 528.482C509.21 505.427 536.358 490.206 541.889 452.43C546.368 421.877 531.879 363.908 520.194 332.465C507.847 299.384 472.17 282.774 434.505 265.164C406.462 252.081 377.483 238.582 359.45 217.75C329.342 183.03 358.866 159.615 390.142 134.838L392.479 132.977C404.164 123.7 414.68 116.312 424.846 109.006C450.903 90.4798 471.585 75.8417 491.06 45.1213L494.604 46.2601C474.818 77.5916 454.019 92.3963 427.65 111.117C417.523 118.311 407.046 125.755 395.478 134.949L393.102 136.838C361.514 161.837 334.25 183.474 362.838 216.445C380.405 236.721 409.033 250.081 436.842 262.97C473.572 280.08 511.547 297.801 524.245 331.91C535.93 363.547 550.614 421.988 546.096 452.847C540.37 491.734 512.677 507.316 470.767 530.787L458.42 537.759C415.81 561.646 392.674 578.09 367.318 611.921Z" fill="white"/>
<path d="M356.996 592.422L353.608 591.061C380.249 557.286 403.19 541.898 447.826 518.066C452.851 515.288 457.914 512.76 462.861 510.205C500.876 490.456 533.71 473.429 534.956 438.543C535.657 419.488 521.986 394.101 509.951 371.519C503.485 359.464 497.409 348.103 493.748 338.382C481.751 306.578 452.111 287.524 420.679 267.386C396.53 251.887 371.563 235.86 355.828 213.584C327.2 173.114 372.031 137.838 415.343 103.729C439.141 85.008 461.615 67.3146 471.819 49.2323L475.442 50.26C464.964 68.8145 442.296 86.6745 418.225 105.59C375.77 138.921 331.874 173.586 359.294 212.334C374.679 234.138 399.412 249.998 423.288 265.303C453.747 284.746 485.218 305.051 497.292 337.66C500.915 347.242 506.952 358.547 513.378 370.519C525.57 393.24 539.358 419.016 538.657 438.626C537.371 474.735 503.797 492.289 464.964 512.455C460.018 515.01 454.993 517.593 449.969 520.288C405.995 543.87 383.326 559.091 356.996 592.422Z" fill="white"/>
<path d="M346.363 573.673L343.052 572.201C374.446 536.092 401.788 521.093 447.437 497.761C451.332 495.733 455.733 493.595 460.368 491.345C490.047 476.901 530.672 457.152 531.061 430.904C531.295 414.488 513.495 395.906 496.279 377.935C484.127 365.241 472.637 353.27 467.535 342.298C455.85 317.133 432.48 295.301 410.045 274.219C385.819 251.526 360.774 228.055 350.725 200.668C336.548 161.781 368.214 135.394 401.788 107.34C421.652 90.6741 442.218 73.4807 452.773 53.3152L456.434 54.2873C445.645 74.8972 424.846 92.3129 404.748 109.145C371.875 136.644 340.832 162.614 354.503 199.973C364.358 226.805 388.039 249.026 413.161 272.524C435.869 293.801 459.316 315.827 471.235 341.409C476.181 352.02 487.477 363.852 499.473 376.352C517.039 394.684 535.19 413.655 534.956 430.932C534.528 458.708 492.93 478.873 462.588 493.622C457.953 495.872 453.591 498.011 449.696 500.011C404.475 523.121 377.367 537.953 346.363 573.673Z" fill="white"/>
<path d="M335.029 556.424L331.484 555.286C342.55 537.565 358.552 521.634 378.519 508.46C398.485 495.286 421.999 485.144 447.632 478.651C494.799 466.763 519.688 443.82 521.636 410.405C516.806 396.823 500.914 388.934 484.088 380.546C467.262 372.158 450.553 363.88 441.984 349.353V348.909C439.507 320.101 424.274 292.597 398.477 270.358C371.021 245.773 350.996 217.402 339.664 187.03C334.951 154.393 362.138 130.533 388.428 107.451C406.267 91.8687 424.612 75.7863 433.532 57.0096L437.427 57.9262C428.079 77.1751 409.578 93.4241 391.661 109.145C364.669 132.838 339.157 155.198 343.676 186.474C354.883 216.41 374.641 244.372 401.71 268.608C427.848 291.256 443.28 319.216 445.801 348.492C453.98 362.158 470.456 370.352 486.386 378.268C503.914 386.99 520.467 395.212 525.569 409.933V410.128V410.322C523.583 445.098 497.798 468.957 448.917 481.262C423.788 487.641 400.737 497.592 381.161 510.512C361.585 523.432 345.89 539.051 335.029 556.424V556.424Z" fill="white"/>
<path d="M322.331 542.092L318.826 540.898C342.974 504.594 382.742 479.457 436.998 466.152C484.75 455.264 509.99 432.821 512.054 399.489C505.277 385.879 488.061 382.435 469.833 378.768C450.747 374.935 429.131 370.574 417.485 353.77L417.251 353.214C416.008 324.058 403.909 295.662 382.196 270.941C359.049 243.893 342.741 214.156 334.016 183.086C330.822 151.921 352.361 131.2 375.186 109.257C390.571 94.4519 406.345 79.1195 414.524 60.1761L418.419 60.9817C410.201 80.425 394.076 95.8963 378.457 110.979C356.1 132.477 334.951 152.81 338.028 182.752C346.653 213.409 362.721 242.756 385.507 269.469C407.537 294.501 419.837 323.259 421.146 352.798C432.091 368.38 451.799 372.241 470.884 376.157C489.97 380.074 508.509 383.74 515.871 398.906V399.156V399.434C513.846 434.126 487.711 457.458 438.167 468.874C385.04 481.818 346.051 506.483 322.331 542.092Z" fill="white"/>
<path d="M307.842 531.454L304.415 530.176C332.341 492.178 376.082 466.124 434.35 452.792C485.724 441.32 505.861 419.46 495.929 386.129C475.575 378.451 451.933 376.469 429.637 380.574H429.325H429.014C415.81 379.907 406.345 377.074 400.853 372.102C395.362 367.13 394.076 360.853 395.985 352.659C392.922 331.011 385.741 309.762 374.64 289.496C354.98 258.039 339.046 225.465 327.005 192.113C320.15 156.004 339.82 134.366 360.658 111.395C373.745 96.9795 387.299 82.0359 395.284 62.5927L399.179 63.3704C390.999 83.2026 377.328 98.3128 364.124 112.923C343.676 135.449 324.396 156.726 331.017 191.585C343 224.748 358.856 257.137 378.419 288.413C389.705 308.998 397.004 330.584 400.113 352.575V352.798C398.322 360.381 399.685 366.269 404.008 370.324C408.332 374.38 417.173 377.102 429.092 377.741C452.559 373.548 477.38 375.809 498.617 384.074L499.396 384.379V384.99C510.146 419.821 488.568 443.514 435.363 455.43C378.263 468.541 335.301 494.123 307.842 531.454Z" fill="white"/>
<path d="M291.172 525.482L287.744 524.204C315.827 486.096 359.878 460.319 418.731 447.764C470.456 436.654 490.866 414.877 481.05 381.352C458.189 374.828 432.731 374.65 409.695 380.852H409.111C395.011 381.185 384.962 378.963 379.158 374.213C373.355 369.464 372.031 363.103 374.056 354.548C370.621 332.717 364.19 311.18 354.854 290.246C338.205 257.497 324.506 224.024 313.84 190.03C308.076 154.865 325.798 133.727 344.532 111.368C356.217 97.2852 368.486 82.7583 376.004 63.7039L379.899 64.4538C372.109 83.8971 359.878 98.5629 347.999 112.784C329.576 134.727 312.204 155.476 317.813 189.585C328.455 223.423 342.089 256.747 358.632 289.357C368.088 310.545 374.611 332.342 378.107 354.437V354.825C376.198 362.686 377.601 368.714 382.236 372.38C386.87 376.046 396.14 378.352 408.838 377.935C433.028 371.483 459.746 371.8 483.621 378.824L484.595 379.102L484.828 379.824C495.501 414.933 473.728 438.598 420.016 450.181C362.021 462.819 318.748 488.068 291.172 525.482Z" fill="white"/>
<path d="M272.593 524.843L269.165 523.565C297.092 485.623 340.91 460.041 399.373 447.542C450.553 436.432 471.118 414.544 462.121 381.046C438.78 374.643 412.938 374.643 389.597 381.046H389.013C374.874 381.463 364.747 379.296 358.827 374.574C352.906 369.852 351.426 363.464 353.296 354.881C349.179 333.105 342.866 311.569 334.405 290.44C319.838 257.553 307.141 223.777 297.014 190.029C291.522 155.059 308.699 133.172 326.771 109.979C337.599 96.0906 348.778 81.9247 356.217 63.8702L360.112 64.6757C352.322 83.008 341.26 97.396 330.355 111.34C312.516 134.116 295.69 155.615 300.987 189.585C311.191 223.083 323.733 256.803 338.3 289.579C346.831 310.918 353.197 332.667 357.347 354.659V355.047C355.594 362.936 357.113 368.935 361.865 372.657C366.617 376.379 375.925 378.574 388.701 378.213C413.22 371.567 440.348 371.746 464.691 378.713L465.665 378.99L465.899 379.713C475.714 414.822 453.785 438.515 400.658 450.153C343.052 462.486 300.013 487.623 272.593 524.843Z" fill="white"/>
<path d="M257.169 527.232L253.702 525.954C266.208 508.086 283.722 492.239 305.16 479.392C326.599 466.545 351.506 456.971 378.34 451.264C427.3 439.737 447.047 418.266 438.712 385.601C416.618 377.967 391.436 376.185 367.668 380.574H367.396H367.318C353.646 380.241 343.948 377.546 337.911 372.602C331.874 367.658 330.433 361.492 331.991 352.909C327.278 331.688 321.435 310.272 314.697 289.301C302.701 257.137 292.106 224.222 283.226 191.529C278.435 157.337 293.82 133.2 310.062 107.34C319.754 92.8987 327.842 77.9369 334.25 62.5927L338.145 63.3426C331.716 78.8271 323.562 93.9205 313.762 108.479C297.715 133.838 282.603 157.809 287.238 191.113C296.079 223.639 306.712 256.498 318.631 288.635C325.447 309.772 331.289 331.327 336.041 352.687V353.075C334.6 360.797 336.275 366.769 341.027 370.797C345.779 374.824 354.971 377.463 367.318 377.796C392.124 373.286 418.375 375.257 441.322 383.351L442.217 383.657V384.351C451.332 418.516 430.221 441.903 379.431 453.792C353.086 459.41 328.641 468.828 307.609 481.461C286.578 494.094 269.41 509.673 257.169 527.232V527.232Z" fill="white"/>
<path d="M245.289 531.703L241.784 530.509C252.741 513.388 268.611 498.095 288.368 485.617C308.126 473.14 331.332 463.755 356.49 458.069C402.411 445.959 420.562 424.738 411.993 393.184C391.757 383.612 367.546 379.251 343.364 380.824H342.858C317.579 377.713 306.167 367.491 308.933 350.52C285.329 316.05 278.435 249.554 273.878 205.501C273.489 201.473 273.06 197.64 272.671 194.057C269.087 160.725 280.85 132.949 293.275 103.507C299.078 89.7575 304.96 75.5639 309.517 60.5925L313.412 61.148C308.933 76.2305 302.934 90.5074 297.092 104.312C284.745 133.533 273.099 161.114 276.643 193.835C277.033 197.418 277.422 201.251 277.851 205.306C282.447 249.304 289.341 315.772 312.905 349.742L313.139 350.103V350.52C310.413 366.185 320.384 375.213 343.559 378.296C368.803 376.697 394.051 381.336 415.07 391.434L415.771 391.74V392.295C425.041 425.265 405.566 448.347 357.931 460.958C333.265 466.481 310.497 475.631 291.095 487.816C271.693 500.002 256.089 514.952 245.289 531.703V531.703Z" fill="white"/>
<path d="M236.253 537.815L232.63 536.759C241.435 520.601 255.09 506.013 272.637 494.017C290.185 482.021 311.201 472.909 334.211 467.319C376.237 454.319 392.206 433.293 382.858 403.1C364.679 391.13 341.703 383.515 317.151 381.324H316.761C293.119 375.269 282.447 363.714 285.017 346.992C267.88 316.078 266.945 267.803 266.166 228.972C265.932 217.583 265.737 206.751 265.153 197.307C262.972 162.198 269.788 127.311 276.371 93.5908C278.669 81.8415 281.045 69.7033 283.031 57.6763L286.926 58.0096C284.939 70.0367 282.564 82.2026 280.266 94.1186C273.839 127.533 266.867 162.309 269.048 197.251C269.632 206.779 269.827 217.556 270.061 228.999C270.84 267.719 271.775 315.911 288.795 346.354V346.687V347.02C286.264 362.658 295.728 373.019 317.774 378.713C343.245 381.006 367.054 388.966 385.819 401.461L386.286 401.767V402.184C396.257 433.654 379.119 456.486 335.418 470.013C312.962 475.483 292.453 484.384 275.324 496.096C258.196 507.807 244.861 522.045 236.253 537.815V537.815Z" fill="white"/>
<path d="M229.32 545.092L225.425 544.314C230.699 530.081 240.675 516.955 254.519 506.034C268.362 495.113 285.672 486.714 304.998 481.54C340.52 469.568 357.541 449.431 355.633 421.794C350.336 403.989 330.939 395.323 310.412 386.129C289.029 376.574 266.906 366.686 258.999 345.492C247.548 314.939 251.716 276.552 255.766 239.443C257.714 221.805 259.661 205.14 259.661 190.141C259.661 168.92 258.571 147.421 257.519 126.644C256.312 102.924 255.065 78.3972 255.455 54.1764H259.35C258.96 78.3416 260.207 102.84 261.414 126.394C262.466 147.226 263.556 168.725 263.556 190.002C263.556 205.112 261.687 221.833 259.661 239.527C255.766 276.385 251.482 314.522 262.738 344.631C270.256 364.741 291.756 374.352 312.477 383.518C333.198 392.684 353.841 402.017 359.489 421.182C361.67 450.292 343.909 471.179 306.712 483.845C287.877 488.888 271.016 497.083 257.548 507.742C244.08 518.4 234.399 531.209 229.32 545.092Z" fill="white"/>
<path d="M223.711 553.175L219.816 552.675C226.827 525.204 248.171 505.288 283.303 493.539C313.762 480.651 327.2 461.18 322.993 435.765C318.397 415.766 299.623 403.572 279.876 390.684C259.35 377.296 238.122 363.464 233.137 340.076C227.061 312.3 235.668 282.691 244.042 253.97C249.768 234.249 255.727 213.861 256.545 194.724C257.792 165.586 249.262 137.088 240.965 109.534C234.564 89.9906 229.752 70.1995 226.554 50.2599L230.449 50.0099C233.615 69.839 238.401 89.5194 244.782 108.951C253.079 136.727 261.648 165.336 260.362 194.807C259.505 214.25 253.546 234.693 247.782 254.553C239.485 282.996 230.917 312.383 236.915 339.604C241.822 362.047 262.543 375.546 282.602 388.601C302.077 401.267 322.097 414.349 326.927 435.348C331.328 462.041 317.267 482.401 285.212 495.956C269.025 501.019 254.897 508.921 244.144 518.926C233.391 528.93 226.362 540.712 223.711 553.175V553.175Z" fill="white"/>
<path d="M218.57 561.952L214.869 561.091C222.192 544.786 237.382 530.87 252.105 517.427C274.657 496.761 295.962 477.235 290.003 450.292C285.251 428.71 267.062 412.461 249.457 396.739C229.592 378.99 209.066 360.63 206.963 334.437C204.859 308.245 218.024 283.774 230.722 260.081C241.199 240.637 252.027 220.389 254.091 199.529C257.402 167.308 240.381 135.644 223.906 105.229C213.545 85.98 202.795 66.0645 197.303 46.2323L201.198 45.7046C206.612 65.1479 217.284 85.0911 227.606 104.229C244.237 135.033 261.414 166.892 258.025 199.751C255.844 221 244.938 241.415 234.344 261.081C221.802 284.496 208.793 308.745 210.974 334.271C213.156 359.797 233.176 377.602 252.65 394.989C270.567 410.988 289.107 427.543 294.015 449.847C300.247 478.012 277.422 498.9 255.338 519.121C240.654 532.398 225.697 546.119 218.57 561.952Z" fill="white"/>
<path d="M213.467 570.257L209.572 569.785C213.662 553.564 223.945 539.926 233.838 526.76C246.418 510.094 258.298 494.317 258.103 473.985C257.87 447.792 239.135 425.46 221.023 403.85C201.977 381.157 182.269 357.686 183.515 329.466C184.606 304.134 200.926 283.33 216.661 263.192C229.203 247.11 242.212 230.527 247.431 211.695C257.753 175.03 230.995 138.06 205.249 102.368C190.916 82.5081 176.076 61.9816 168.364 42.1772L172.259 41.4272C179.815 60.8705 193.915 80.4527 208.832 101.118C234.928 137.227 261.959 174.558 251.443 212.223C246.068 231.472 232.903 248.332 220.283 264.497C204.041 285.274 188.734 304.884 187.644 329.521C186.436 356.909 205.833 380.046 224.607 402.406C242.991 424.321 261.998 446.987 262.232 473.929C262.427 494.956 249.768 511.76 237.499 528.037C227.528 541.064 217.44 554.48 213.467 570.257Z" fill="white"/>
<path d="M203.73 578.117C202.016 561.23 208.521 546.286 214.792 531.842C220.751 518.121 226.905 504.066 226.048 488.095C224.607 461.597 207.976 436.737 191.889 412.683C173.311 384.907 154.108 356.214 158.588 325.021C162.288 299.301 182.736 281.218 202.523 263.719C218.726 249.387 235.513 234.582 242.991 215.583C257.519 178.724 221.063 137.81 185.852 98.0348C167.04 76.8416 149.24 56.8428 140.165 38.3439L143.826 37.4272C152.784 55.6206 170.428 75.5083 189.124 96.5626C224.841 136.755 261.726 178.308 246.73 216.333C238.94 235.777 221.997 250.915 205.561 265.469C185.229 283.44 166.027 300.412 162.444 325.299C158.081 355.853 176.232 382.824 195.434 411.405C211.676 435.709 228.502 460.819 229.943 487.901C230.8 504.233 224.568 518.649 218.492 532.565C212.065 547.453 205.95 561.48 207.625 577.84L203.73 578.117Z" fill="white"/>
<path d="M195.94 585.2C194.187 570.235 193.849 555.201 194.928 540.203C196.267 523.37 195.59 506.485 192.902 489.734C188.657 468.624 176.154 446.098 162.911 422.238C143.436 387.379 123.533 351.353 130.583 319.05C136.309 292.69 162.054 277.58 186.943 262.97C204.938 252.415 223.555 241.499 234.422 226.388C260.752 189.835 209.65 138.921 164.781 94.1462C142.618 72.2586 121.936 51.6765 112.588 34.9553L116.211 33.9553C125.325 50.3432 145.929 70.842 167.741 92.5352C213.467 138.032 265.309 189.752 237.85 227.666C226.593 243.276 207.703 254.359 189.397 265.108C163.924 280.052 139.892 294.162 134.361 319.466C127.506 351.048 147.331 386.712 166.494 421.21C179.815 445.237 192.435 467.902 196.719 489.345C199.436 506.253 200.127 523.295 198.783 540.286C197.704 555.155 198.042 570.059 199.796 584.895L195.94 585.2Z" fill="white"/>
<path d="M185.93 590.811C183.632 573.09 178.763 555.119 174.05 537.759C170.623 525.121 167.04 512.066 164.508 499.15C160.613 478.679 148.928 455.347 137.243 430.626C117.768 390.545 97.4369 349.103 106.902 315.355C114.691 287.913 143.592 274.913 171.636 262.331C191.889 253.248 212.805 243.887 225.659 228.999C251.054 199.89 224.451 174.975 198.744 150.865C195.122 147.449 191.5 144.088 188.111 140.727C177.945 130.755 168.169 121.728 158.704 112.951C131.206 87.619 107.447 65.7314 86.9595 32.0945L90.5428 31.0112C110.836 64.3426 134.439 86.0635 161.781 111.256C171.246 120.006 181.061 129.061 191.266 139.033C194.655 142.338 198.238 145.699 201.86 149.088C227.139 172.781 255.766 199.64 229.125 230.388C215.804 245.693 194.499 255.248 173.895 264.47C145.267 277.302 118.236 289.468 110.874 315.717C101.643 348.715 121.663 389.796 141.06 429.599C153.174 454.458 164.43 477.901 168.675 498.65C171.207 511.483 174.752 524.538 178.179 537.12C183.41 554.742 187.388 572.542 190.098 590.45L185.93 590.811Z" fill="white"/>
<path d="M172.843 594.589C171.636 578.118 163.923 563.202 155.744 547.37C148.928 534.148 141.839 520.454 138.879 505.705C134.984 485.873 124.507 462.402 113.445 437.543C93.9703 393.379 73.5608 347.742 84.3498 312.856C93.2303 284.246 124.507 272.997 154.731 262.109C176.738 254.192 199.484 246.026 213.701 231.194C241.277 202.307 211.325 175.947 184.878 152.726C180.594 148.976 176.582 145.421 172.804 141.894C161.431 131.283 150.486 121.784 139.931 112.59C110.446 87.0079 85.0119 64.9258 63.0444 30.3723L66.5888 29.2335C88.3226 63.4259 113.64 85.3969 142.93 110.84C153.524 120.034 164.508 129.561 175.881 140.199C179.776 143.699 183.671 147.227 187.877 150.976C215.142 174.975 246.302 202.168 216.895 232.749C202.133 248.193 178.958 256.526 156.523 264.581C125.714 275.691 96.6189 286.107 88.1668 313.467C77.5726 347.604 97.7095 392.879 117.145 436.682C128.246 461.68 138.723 485.262 142.735 505.316C145.617 519.788 152.628 533.343 159.405 546.453C167.195 561.73 175.492 577.534 176.738 594.422L172.843 594.589Z" fill="white"/>
<path d="M159.873 596.089H155.978C155.978 584.784 150.798 578.173 145.189 571.09C142.235 567.52 139.632 563.807 137.399 559.98C127.233 541.703 121.625 531.648 116.756 508.899C112.627 489.678 103.007 466.707 92.8022 442.375C74.1843 397.934 53.1127 347.937 63.8238 311.828C72.7822 281.885 105.266 271.802 136.698 262.053C159.717 254.914 183.438 247.554 198.394 232.416C226.788 203.584 195.551 176.863 167.975 153.17C163.651 149.448 159.523 145.949 155.744 142.477C143.553 131.366 131.791 121.506 120.456 111.923C90.1925 86.591 64.0964 64.7034 41.9731 29.511L45.5175 28.3722C67.4071 63.2035 93.3475 84.9522 123.416 110.117C134.79 119.672 146.552 129.561 158.821 140.671C162.716 144.088 166.611 147.587 170.974 151.282C198.005 174.475 231.657 203.334 201.588 233.888C186.008 249.665 161.782 257.22 138.256 264.442C106.318 274.358 76.1707 283.69 67.6408 312.244C57.1245 347.492 78.0793 397.35 96.5413 441.348C106.785 465.763 116.445 488.817 120.612 508.233C125.442 530.676 130.622 540.036 141.022 558.702C143.247 562.451 145.85 566.081 148.811 569.562C154.459 577.09 159.99 584.034 159.873 596.089Z" fill="white"/>
</svg>
