<svg width="1201" height="640" viewBox="0 0 1201 640" fill="none" xmlns="http://www.w3.org/2000/svg">
<rect width="1200.23" height="638.879" transform="matrix(1 -0.000934228 0.00119951 0.999999 0 1.12158)" fill="#4F443F"/>
<path d="M396.172 527.992C379.754 527.992 362.839 525.598 345.47 519.941C320.982 511.962 302.78 496.801 285.174 482.136C270.402 469.83 255.128 457.106 236.509 449.167C215.71 440.3 189.792 437.019 164.724 433.843C124.894 428.803 83.7077 423.585 60.2965 396.133C18.9675 347.659 62.4706 317.261 104.544 287.86L110.254 283.865C154.158 253.021 167.674 221.586 181.976 188.305C186.436 177.931 191.048 167.203 196.648 156.479C221.199 109.464 362.142 117.092 390.156 119.1C441.311 122.756 482.861 110.876 519.483 100.376C549.369 91.8096 577.599 83.7319 606.083 85.6565C633.162 87.5063 668.3 107.03 693.009 123.079C718.384 139.574 750.477 146.579 781.071 142.335C787.71 141.408 794.371 140.059 800.862 138.324C813.217 135.022 827.102 132.687 842.122 131.386L844.576 131.173C905.463 125.875 958.06 121.297 990.364 176.105C993.431 181.308 996.169 186.123 998.734 190.636C1013.24 216.162 1022 231.569 1052.82 252.078C1062.98 258.843 1075.87 263.915 1089.51 269.283C1098.98 273.01 1108.77 276.864 1117.91 281.431C1148.63 296.774 1165.43 313.352 1167.86 330.702C1170.02 346.152 1160.71 361.948 1140.18 377.662C1129.1 386.146 1116.94 390.146 1105.19 394.011C1090.03 398.996 1074.35 404.152 1060.45 419.08C1048.63 431.761 1043.37 442.335 1038.28 452.567C1030.78 467.637 1024.3 480.649 999.151 496.095C925.413 541.39 812.505 506.65 721.772 478.744C673.651 463.945 632.095 451.174 607.486 454.006C586.92 456.385 563.17 468.683 535.669 482.921C495.85 503.538 448.61 527.992 396.172 527.992ZM340.668 119.001C288.626 119.001 215.426 124.961 198.664 157.062C193.086 167.747 188.483 178.448 184.035 188.797C169.643 222.284 156.048 253.913 111.732 285.04L106.016 289.04C62.6873 319.323 21.754 347.923 62.1225 395.265C85.0111 422.113 125.717 427.268 165.088 432.254C190.336 435.449 216.449 438.758 237.576 447.762C256.506 455.833 271.896 468.655 286.784 481.056C304.236 495.594 322.281 510.621 346.336 518.458C418.069 541.828 482.592 508.436 534.434 481.592C562.157 467.239 586.096 454.846 607.159 452.413C632.333 449.455 674.174 462.36 722.595 477.249C812.789 504.989 925.048 539.513 997.779 494.848C1022.48 479.679 1028.86 466.853 1036.25 452.002C1041.39 441.681 1046.7 431.008 1058.67 418.157C1072.92 402.857 1088.88 397.608 1104.32 392.532C1116.42 388.552 1127.84 384.793 1138.63 376.534C1158.69 361.183 1167.8 345.817 1165.71 330.872C1163.35 314.019 1146.87 297.839 1116.71 282.772C1107.66 278.256 1097.93 274.422 1088.5 270.715C1074.74 265.296 1061.74 260.18 1051.38 253.285C1020.2 232.535 1011.37 217.003 996.745 191.271C994.185 186.762 991.451 181.95 988.39 176.76C956.714 123.036 907.321 127.343 844.824 132.774L842.375 132.987C827.514 134.277 813.792 136.584 801.59 139.846C794.993 141.609 788.222 142.982 781.461 143.92C750.213 148.263 717.455 141.104 691.595 124.302C657.006 101.832 626.565 88.6779 605.882 87.2659C577.947 85.3725 549.908 93.3873 520.253 101.887C483.415 112.446 441.654 124.393 389.944 120.709C381.595 120.109 363.092 119.001 340.668 119.001Z" fill="white"/>
<path d="M598.811 377.141C569.567 377.141 537.701 371.615 504.004 365.773C475.838 360.89 446.716 355.842 416.723 353.57C410.359 353.085 397.766 353.901 381.823 354.927C324.941 358.595 229.749 364.732 207.784 328.189C196.97 310.203 214.254 288.096 226.873 271.952C231.903 265.519 236.246 259.966 237.444 256.313C242.679 240.355 244.622 223.245 246.495 206.696C248.463 189.301 250.321 172.874 255.826 159.294C266.74 132.351 324.746 131.803 386.156 131.227C422.56 130.884 460.211 130.529 488.593 124.467C501.128 121.063 514.047 116.858 526.539 112.788C555.893 103.231 583.659 94.171 606.215 95.2243C630.951 96.3403 653.159 108.181 676.665 120.712C705.93 136.311 739.183 154.068 782.876 152.999C797.263 152.676 814.579 149.11 832.908 145.339C865.365 138.658 898.93 131.751 921.181 141.841C932.164 146.822 939.262 155.381 942.877 167.999C945.199 176.092 945.262 184.963 945.336 194.35C945.436 207.922 945.542 221.952 952.836 233.958C956.393 239.815 973.429 257.958 979.693 263.381C994.46 276.177 996.824 289.311 986.544 301.368C973.919 316.159 897.49 332.918 800.673 342.124C761.819 345.82 719.429 355.025 682.033 363.15C647.839 370.581 618.311 376.994 600.589 377.133C599.998 377.137 599.407 377.141 598.811 377.141ZM412.116 351.811C413.968 351.811 415.588 351.858 416.945 351.961C447.069 354.248 476.26 359.309 504.495 364.2C538.065 370.021 569.815 375.523 598.811 375.523C599.401 375.523 599.982 375.519 600.568 375.515C617.994 375.381 647.39 368.996 681.426 361.6C718.901 353.459 761.381 344.23 800.398 340.523C895.094 331.514 972.616 314.684 984.718 300.501C994.576 288.944 992.333 276.808 978.057 264.439C971.561 258.814 954.562 240.71 950.867 234.628C943.383 222.306 943.278 208.099 943.173 194.362C943.104 185.058 943.035 176.266 940.766 168.338C937.277 156.174 930.506 147.958 920.056 143.221C898.609 133.487 865.502 140.307 833.483 146.897C815.022 150.696 797.59 154.285 782.94 154.616C738.36 155.586 704.948 137.774 675.409 122.029C652.161 109.633 630.202 97.9259 606.088 96.8334C583.949 95.8278 556.516 104.793 527.405 114.271C514.881 118.349 501.93 122.565 489.259 126.005C460.522 132.142 422.729 132.497 386.182 132.84C325.585 133.412 268.349 133.949 257.895 159.759C252.459 173.178 250.606 189.526 248.648 206.834C246.764 223.443 244.822 240.62 239.544 256.7C238.273 260.577 233.855 266.225 228.741 272.769C216.36 288.609 199.398 310.302 209.758 327.526C231.1 363.032 325.342 356.954 381.633 353.317C394.378 352.497 404.997 351.811 412.116 351.811Z" fill="white"/>
<path d="M612.812 303.842C609.402 303.842 606.067 303.815 602.805 303.764C562.432 303.097 424.845 297.504 349.513 253.439C312.248 231.644 285.865 194.087 315.979 163.141C332.039 146.638 395.476 143.514 446.452 141.002C465.356 140.071 481.685 139.267 493.222 137.91C516.448 135.176 534.413 128.779 550.267 123.135C568.39 116.678 585.527 110.564 606.642 111.31C629.668 112.107 652.752 124.397 677.188 137.405C701.021 150.097 725.667 163.219 753.016 167.535C774.522 170.919 796.904 166.99 816.658 163.52C841.283 159.189 862.536 155.454 874.358 167.168C890.206 181.643 896.381 197.929 892.191 214.234C886.702 235.6 864.251 255.404 828.976 270.001C772.063 293.56 679.378 303.842 612.812 303.842ZM602.847 302.146C606.104 302.202 609.44 302.229 612.833 302.229C679.114 302.229 771.35 292.006 827.931 268.589C862.636 254.228 884.702 234.815 890.069 213.93C894.133 198.11 888.111 182.286 872.653 168.166C861.66 157.268 841.019 160.896 817.154 165.093C797.189 168.6 774.548 172.591 752.572 169.112C724.781 164.731 699.944 151.509 675.932 138.722C651.765 125.852 628.935 113.696 606.547 112.927C585.943 112.146 569.847 117.952 551.196 124.594C535.21 130.285 517.092 136.738 493.56 139.503C481.923 140.872 465.552 141.68 446.594 142.615C396.072 145.104 333.19 148.2 317.731 164.087C288.457 194.174 314.375 230.835 350.843 252.17C425.653 295.927 562.638 301.484 602.847 302.146Z" fill="white"/>
<path d="M606.018 280.874C583.716 280.874 550.973 276.078 513.787 267.373C482.835 260.132 450.589 250.599 431.637 243.085C412.094 235.339 396.615 218.785 393.121 201.9C390.831 190.824 394.172 181.22 402.526 174.862C412.701 167.112 439.606 162.414 468.089 157.445C488.144 153.942 508.885 150.321 526.332 145.355C564.637 134.45 585.879 131.432 607.454 133.799C631.166 136.406 652.044 144.188 680.95 154.959C690.112 158.375 700.498 162.244 711.829 166.248C722.511 170.022 737.119 174.322 751.242 178.475C776.072 185.784 799.526 192.682 804.957 197.419C811.005 202.692 812.942 209.977 810.419 217.929C805.406 233.698 784.696 248.65 755.015 257.923C742.006 261.989 726.231 263.682 710.979 265.318C700.25 266.47 690.122 267.559 681.952 269.397L680.876 269.641C656.921 275.033 634.291 280.129 606.018 280.874ZM593.78 134.662C576.496 134.662 557.116 138.323 527.103 146.862C509.518 151.871 488.708 155.504 468.58 159.014C440.408 163.933 413.804 168.579 404.067 175.99C396.203 181.981 393.073 191.092 395.258 201.651C398.652 218.059 413.682 234.135 432.65 241.657C451.206 249.013 484.07 258.728 514.432 265.835C551.417 274.488 583.932 279.257 605.981 279.257C633.937 278.524 656.435 273.455 680.253 268.091L681.33 267.851C689.652 265.977 699.865 264.88 710.673 263.721C725.793 262.096 741.425 260.42 754.181 256.432C783.229 247.357 803.463 232.826 808.314 217.558C810.678 210.119 808.899 203.339 803.316 198.468C798.238 194.039 773.94 186.892 750.45 179.978C736.29 175.813 721.65 171.505 710.9 167.707C699.553 163.7 689.156 159.823 679.984 156.403C651.263 145.698 630.507 137.964 607.138 135.4C602.726 134.915 598.324 134.662 593.78 134.662Z" fill="white"/>
<path d="M614.296 257.478C611.32 257.478 608.47 257.423 605.778 257.309C569.052 255.79 504.074 239.678 482.652 214.534C474.43 204.883 473.116 194.675 478.742 184.195C488.664 165.697 531.022 157.934 608.175 160.36C666.465 162.222 728.218 203.695 732.789 216.66C734.731 222.174 733.037 227.419 727.759 232.255C709.963 248.553 652.057 257.478 614.296 257.478ZM605.895 255.7C642.426 257.202 707.314 248.422 726.086 231.234C730.899 226.824 732.456 222.055 730.699 217.07C726.228 204.389 665.494 163.807 608.079 161.977C533.011 159.56 490.157 167.258 480.747 184.794C475.396 194.766 476.647 204.48 484.473 213.666C505.51 238.361 569.622 254.193 605.895 255.7Z" fill="white"/>
<path d="M606.611 231.931C579.875 231.931 559.456 221.14 550.093 211.902C543.681 205.568 541.096 199.032 543.006 193.96C547.313 182.51 572.323 182.845 601.318 183.263C603.756 183.299 606.216 183.33 608.691 183.358C640.182 183.705 667.599 197.194 671.072 209.023C672.095 212.502 670.971 215.791 667.731 218.801C659.018 226.898 635.596 231.931 606.611 231.931ZM585.981 184.735C564.813 184.735 548.22 186.071 545.085 194.398C543.359 198.977 545.813 205 551.819 210.924C560.881 219.87 580.672 230.314 606.611 230.314C634.957 230.314 657.73 225.514 666.047 217.787C668.855 215.18 669.836 212.348 668.96 209.37C665.725 198.358 638.683 185.303 608.659 184.975C606.178 184.948 603.714 184.912 601.275 184.876C596.008 184.806 590.868 184.735 585.981 184.735Z" fill="white"/>
<path d="M606.25 453.276C598.107 378.186 602.055 300.947 605.87 226.252C606.277 218.316 606.677 210.388 607.068 202.472L609.232 202.535C608.841 210.447 608.435 218.375 608.029 226.315C604.219 300.963 600.271 378.151 608.404 453.142L606.25 453.276Z" fill="white"/>
<path d="M1140.71 376.577C1048.36 311.399 981.352 292.711 866.075 275.475L858.982 274.414C765.241 260.42 684.283 248.331 607.479 203.138L608.819 201.868C685.217 246.824 765.938 258.874 859.404 272.832L866.497 273.889C982.197 291.189 1049.46 309.951 1142.2 375.401L1140.71 376.577Z" fill="white"/>
<path d="M1046.89 249.837L1041.78 248.117C976.418 226.109 940.383 213.98 889.339 216.923C881.385 217.36 869.516 218.224 855.773 219.226C815.627 222.141 760.634 226.128 736.511 224.563C735.207 224.472 733.914 224.574 732.536 224.689C730.832 224.819 729.058 224.957 727.264 224.725C684.658 219.155 651.151 214.359 607.801 203.268L608.498 201.737C651.7 212.793 685.128 217.577 727.634 223.131C729.143 223.324 730.679 223.206 732.309 223.079C733.735 222.973 735.196 222.847 736.7 222.953C760.624 224.523 815.505 220.532 855.567 217.617C869.321 216.615 881.201 215.751 889.175 215.314C940.769 212.343 976.983 224.527 1042.67 246.646L1047.77 248.362L1046.89 249.837Z" fill="white"/>
<path d="M714.143 207.315C698.986 207.315 683.47 206.167 668.218 205.039C648.031 203.548 627.158 202.002 608.249 203.308L608.048 201.698C627.164 200.381 648.142 201.931 668.429 203.43C697.925 205.611 728.408 207.867 755.071 201.687C783.95 194.997 806.29 181.551 827.902 168.547C856.142 151.552 885.343 133.976 929.257 131.507L929.416 133.116C886.176 135.55 857.239 152.964 829.258 169.805C807.487 182.904 784.984 196.449 755.715 203.233C742.542 206.285 728.503 207.315 714.143 207.315Z" fill="white"/>
<path d="M608.547 203.253L607.745 201.755C647.691 189.855 694.355 170.552 750.398 142.745L751.591 144.094C695.421 171.96 648.63 191.314 608.547 203.253Z" fill="white"/>
<path d="M609.231 202.527L607.067 202.479C608.08 175.123 607.035 147.217 606.027 120.227C605.611 109.16 605.183 97.7137 604.903 86.4767L607.067 86.4448C607.347 97.6741 607.775 109.116 608.186 120.184C609.199 147.194 610.244 175.123 609.231 202.527Z" fill="white"/>
<path d="M607.194 202.878C587.519 174.902 549.062 156.861 518.161 142.37C497.21 132.545 479.123 124.057 470.437 114.595L472.22 113.68C480.648 122.87 498.566 131.271 519.307 141.001C550.429 155.599 589.161 173.762 609.105 202.128L607.194 202.878Z" fill="white"/>
<path d="M607.853 203.281C569.158 195.029 530.051 184.388 488.643 173.123C412.841 152.499 334.458 131.173 259.105 125.71L259.316 124.101C334.939 129.587 413.453 150.945 489.382 171.605C530.753 182.857 569.828 193.491 608.444 201.726L607.853 203.281Z" fill="white"/>
<path d="M159.803 236.108L159.561 234.499C202.404 230.894 245.617 226.441 287.404 222.13C391.462 211.402 499.167 200.315 608.165 201.695L608.134 203.312C499.173 201.924 391.679 213.007 287.695 223.732C245.897 228.042 202.673 232.5 159.803 236.108Z" fill="white"/>
<path d="M78.9181 409.89L77.4189 408.73C161.549 348.127 257.611 296.667 347.905 263.831C388.659 249.009 430.436 242.162 470.836 235.54C515.875 228.16 562.449 220.528 607.626 201.797L608.671 203.209C563.22 222.054 516.492 229.714 471.3 237.121C431.022 243.72 389.372 250.547 348.855 265.283C258.756 298.048 162.89 349.405 78.9181 409.89Z" fill="white"/>
</svg>
