<svg width="1201" height="640" viewBox="0 0 1201 640" fill="none" xmlns="http://www.w3.org/2000/svg">
<rect width="1200.23" height="638.879" transform="matrix(1 -0.000934228 0.00119951 0.999999 0 1.12129)" fill="#590505"/>
<path d="M477.129 72.6073C460.753 72.657 444.458 65.5941 432.998 53.3476C410.953 29.7824 388.046 17.8741 364.906 17.9444L364.576 17.9454C337.884 18.1574 309.896 34.2899 281.388 65.8895L279.225 64.3102C308.282 32.0994 336.99 15.6556 364.552 15.4371L364.899 15.4361C388.904 15.3632 412.531 27.5729 435.129 51.7302C446.766 64.1693 463.557 71.035 480.153 70.0021C508.497 68.2932 532.9 59.0243 552.689 42.4577C574.442 24.2372 608.017 23.9948 629.141 41.8884C649.829 59.4164 675.56 67.6364 705.803 66.4422C721.84 65.7841 737.421 59.1387 748.552 48.2132C771.991 25.2023 796.108 13.828 820.473 14.4583C848.011 15.1586 876.321 31.2914 904.616 62.4158L902.458 64.002C874.7 33.4672 847.089 17.6446 820.394 16.9662C797.023 16.4 773.48 27.4547 750.608 49.9095C738.982 61.3199 722.697 68.2584 705.929 68.9464C674.947 70.1673 648.487 61.7262 627.229 43.7133C607.174 26.7164 575.266 26.9781 554.588 44.2949C534.318 61.2643 509.34 70.7557 480.34 72.506C479.272 72.5707 478.201 72.6041 477.129 72.6073Z" fill="white"/>
<path d="M474.444 78.8318C458.755 78.8794 443.639 72.9918 432.734 62.5251C409.852 40.5703 386.178 29.4758 362.365 29.548C362.208 29.5485 362.051 29.549 361.895 29.5526C334.948 29.7993 306.873 44.3367 278.447 72.7581L276.372 71.0801C305.343 42.1152 334.108 27.2973 361.868 27.0419L362.355 27.0404C386.975 26.9657 411.333 38.3247 434.769 60.8108C445.523 71.1331 460.598 76.7856 476.088 76.2978C506.469 75.3515 532.73 65.9547 554.141 48.3692C575.091 31.1651 607.666 31.0324 628.308 48.0614C650.372 66.2618 677.594 74.6699 709.153 73.0403C724.369 72.2592 738.61 66.6431 749.257 57.2235C773.37 35.8974 798.235 25.43 823.038 25.9975C850.74 26.676 879.16 41.2013 907.513 69.1651L905.451 70.8557C877.631 43.4133 849.879 29.165 822.963 28.5054C798.98 27.9167 774.76 38.1776 751.211 59.0116C740.082 68.8585 725.202 74.7273 709.312 75.5443C676.889 77.1922 649.061 68.5778 626.423 49.9107C606.829 33.7452 575.905 33.8848 556.02 50.219C534.106 68.2193 507.247 77.8386 476.186 78.802C475.604 78.8226 475.022 78.83 474.444 78.8318Z" fill="white"/>
<path d="M472.622 85.1814C471.199 85.1857 469.77 85.1712 468.334 85.1392C455.492 84.869 442.637 80.4376 432.137 72.6554C381.761 35.3517 329.021 37.7504 275.378 79.812L273.547 77.9193C328.378 34.938 382.332 32.515 433.906 70.7212C443.931 78.1461 456.18 82.3743 468.399 82.6345C501.865 83.3657 531.3 74.4183 555.872 56.1158C576.87 40.4768 606.189 40.4518 627.185 56.0437C652.672 74.9743 683.312 82.8152 718.269 79.3687C729.329 78.2753 740.259 74.2094 749.876 67.6097C802.179 31.7064 856.191 34.5311 910.388 75.984L908.585 77.8939C855.512 37.3068 802.687 34.5217 751.565 69.6069C741.548 76.4806 730.139 80.7197 718.571 81.8597C682.856 85.4039 651.505 77.3539 625.41 57.978C605.461 43.1605 577.598 43.193 557.65 58.0456C533.602 75.9633 505.016 85.0831 472.622 85.1814Z" fill="white"/>
<path d="M473.748 91.5227C468.77 91.5378 463.731 91.3568 458.622 90.9748C450.1 90.3391 441.973 88.1834 435.111 84.7415C381.876 58.0164 327.045 58.7892 272.147 87.0363L270.764 84.8601C326.565 56.1418 382.319 55.3663 436.469 82.5514C442.985 85.82 450.723 87.869 458.85 88.4752C494.683 91.1344 527.189 83.914 555.588 66.9933C577.765 53.7813 605.508 53.3973 626.268 66.0044C656.052 84.0893 690.32 90.5897 728.145 85.3003C734.695 84.3868 741.427 82.3635 748.159 79.2842C802.438 54.4472 857.964 55.6683 913.215 82.902L911.876 85.1046C857.481 58.2847 802.826 57.0759 749.42 81.5222C742.427 84.7214 735.412 86.8246 728.57 87.7797C690.038 93.1628 655.092 86.5328 624.711 68.0848C604.885 56.0442 578.361 56.4376 557.127 69.0831C532.248 83.9075 504.255 91.4302 473.748 91.5227Z" fill="white"/>
<path d="M474.807 97.7888C465.522 97.8169 456.085 97.2542 446.512 96.105C444.038 95.809 441.396 95.2997 438.436 94.5461C382.382 80.2671 325.291 80.2139 268.77 94.3724L268.018 91.9554C325.037 77.6669 382.631 77.7223 439.195 92.1315C442.025 92.8516 444.539 93.34 446.88 93.6175C486.916 98.4318 524.519 92.7724 558.649 76.7963C579.403 67.082 604.17 67.0313 624.898 76.653C659.785 92.8461 698.198 97.6465 739.066 90.8999C740.623 90.6438 742.191 90.3117 743.724 89.9546C800.735 76.6619 858.7 76.6754 916.016 89.9862L915.317 92.4132C858.472 79.2057 800.963 79.1965 744.42 92.3837C742.826 92.7528 741.191 93.0977 739.573 93.366C698.075 100.213 659.067 95.3372 623.62 78.8799C603.689 69.6326 579.883 69.6829 559.937 79.021C533.452 91.4166 504.916 97.6974 474.807 97.7888Z" fill="white"/>
<path d="M470.389 103.567C453.683 103.618 437.601 102.167 417.32 99.0656C365.639 91.1569 311.552 95.9909 265.464 101.764L265.08 99.2792C311.378 93.4893 365.732 88.637 417.787 96.5897C450.675 101.625 472.412 102.278 503.934 99.1947C515.189 98.092 527.693 95.3959 540.931 92.5389C558.432 88.7628 576.529 84.8558 591.999 84.8088C608.182 84.7597 624.659 87.9342 640.594 91.0024C646.298 92.1 652.195 93.236 657.918 94.1862C695.547 100.453 719.731 101.871 772.131 94.4674C813.397 88.6383 882.594 92.9627 919.027 97.295L918.663 99.7825C882.386 95.4741 813.54 91.1605 772.563 96.9468C719.755 104.403 695.373 102.961 657.411 96.6559C651.65 95.6964 645.736 94.5574 640.012 93.4542C624.219 90.4156 607.892 87.2714 592.009 87.3196C576.865 87.3656 558.929 91.2351 541.58 94.9775C528.253 97.8529 515.664 100.571 504.237 101.686C491.877 102.896 481.004 103.535 470.389 103.567Z" fill="white"/>
<path d="M756.628 109.61C738.707 109.665 720.81 109.523 703.108 109.059C686.169 108.618 669.102 106.853 652.596 105.146C633.347 103.156 613.445 101.101 593.806 101.16C571.918 101.227 549.633 103.263 528.082 105.23C510.464 106.842 492.247 108.505 474.263 109.098C429.125 110.595 382.853 110.141 338.101 109.698C313.201 109.455 287.453 109.203 261.921 109.28L261.911 106.77C287.464 106.695 313.222 106.947 338.132 107.19C382.853 107.627 429.095 108.078 474.158 106.594C492.056 106.004 510.226 104.341 527.801 102.735C549.419 100.76 571.773 98.7164 593.796 98.6496C613.599 98.5895 633.586 100.657 652.913 102.656C669.361 104.354 686.367 106.113 703.187 106.554C748.016 107.723 794.129 106.817 838.719 105.944C866.036 105.408 894.285 104.854 922.263 104.766L922.273 107.277C894.318 107.362 866.086 107.916 838.78 108.451C811.749 108.983 784.161 109.527 756.628 109.61Z" fill="white"/>
<path d="M715.167 115.568C694.092 115.631 672.865 114.927 652.335 114.245C631.876 113.57 610.717 112.868 589.789 112.932C567.512 112.999 544.695 113.834 522.633 114.639C500.486 115.45 477.588 116.288 455.148 116.356L455.084 116.357L256.207 116.938L256.197 114.427L455.074 113.846L455.139 113.846C477.527 113.778 500.398 112.943 522.518 112.134C544.607 111.327 567.452 110.489 589.779 110.421C610.765 110.357 631.948 111.062 652.437 111.74C672.94 112.419 694.14 113.121 715.157 113.057L715.218 113.057L928.178 112.388L928.188 114.899L715.228 115.567L715.167 115.568Z" fill="white"/>
<path d="M568.237 123.793C462.012 124.115 355.74 124.435 248.467 124.757L248.457 122.246C479.232 121.556 705.454 120.869 936.243 120.16L936.253 122.67C812.747 123.048 690.528 123.422 568.237 123.793Z" fill="white"/>
<path d="M945.139 130.595C709.574 131.289 475.557 131.999 239.937 132.735L239.927 130.224C475.547 129.494 709.571 128.784 945.129 128.085L945.139 130.595Z" fill="white"/>
<path d="M953.531 138.683C712.722 139.371 472.771 140.099 231.874 140.872L231.864 138.362C472.758 137.594 712.716 136.866 953.522 136.172L953.531 138.683Z" fill="white"/>
<path d="M960.103 144.435L225.514 146.663L225.523 149.174L960.113 146.945L960.103 144.435Z" fill="white"/>
<path d="M963.847 152.88L221.83 155.132L221.84 157.642L963.857 155.391L963.847 152.88Z" fill="white"/>
<path d="M965.803 161.509L219.812 163.773L219.821 166.284L965.813 164.02L965.803 161.509Z" fill="white"/>
<path d="M591.684 173.973C561.725 174.064 533.163 170.225 505.53 166.512C481.21 163.245 456.067 159.868 430.321 159.248C393.768 158.394 358.572 162.552 321.318 166.976C288.132 170.92 253.817 174.998 218.642 175.105L218.632 172.594C253.63 172.488 287.856 168.421 320.954 164.491C356.667 160.249 393.598 155.85 430.393 156.743C456.308 157.365 481.541 160.755 505.94 164.031C533.47 167.731 561.933 171.555 591.674 171.465C591.895 171.464 592.113 171.463 592.334 171.46C618.499 171.331 643.543 168.273 667.763 165.315C684.89 163.224 702.599 161.061 720.706 159.919C769.672 156.828 812.078 160.496 856.956 164.374C891.476 167.359 927.169 170.444 966.845 170.324L966.855 172.835C927.04 172.955 891.278 169.861 856.69 166.873C811.929 163.004 769.673 159.357 720.899 162.423C702.884 163.558 685.22 165.716 668.137 167.801C643.831 170.771 618.692 173.839 592.351 173.971L591.684 173.973Z" fill="white"/>
<path d="M591.746 182.985C560.79 183.079 531.713 177.973 503.583 173.035C477.904 168.528 451.353 163.866 423.975 163.368C388.927 162.779 356.064 167.921 321.278 173.416C288.305 178.623 254.206 184.009 217.616 184.12L217.606 181.609C253.958 181.499 287.938 176.135 320.796 170.943C355.718 165.43 388.691 160.189 424.032 160.863C451.649 161.364 478.322 166.044 504.117 170.574C532.112 175.489 561.056 180.57 591.74 180.477C591.951 180.476 592.158 180.476 592.369 180.472C619.871 180.324 645.34 176.319 669.966 172.444C687.668 169.659 705.973 166.78 725.105 165.292C775.696 161.36 815.098 166.14 856.829 171.197C890.363 175.26 925.037 179.463 967.721 179.333L967.73 181.844C924.856 181.974 890.083 177.759 856.454 173.681C814.887 168.645 775.627 163.878 725.347 167.79C706.336 169.268 688.089 172.14 670.448 174.916C645.707 178.806 620.122 182.831 592.386 182.983L591.746 182.985Z" fill="white"/>
<path d="M592.104 192.187C560.074 192.284 530.277 185.88 501.454 179.684C473.407 173.655 446.91 167.961 418.295 167.647C384.084 167.294 353.349 173.425 320.779 179.948C288.222 186.468 254.554 193.211 216.059 193.328L216.049 190.817C254.241 190.701 287.76 183.992 320.175 177.5C352.908 170.947 383.82 164.821 418.325 165.136C447.258 165.458 475.138 171.449 502.101 177.246C530.76 183.405 560.398 189.772 592.095 189.676L592.404 189.675C621.301 189.551 647.25 184.717 672.342 180.042C690.515 176.658 709.304 173.157 729.355 171.366C782.463 166.627 818.864 172.335 857.397 178.387C889.622 183.442 922.946 188.672 969.161 188.532L969.171 191.043C922.71 191.184 889.264 185.933 856.917 180.856C818.581 174.843 782.367 169.16 729.63 173.864C709.726 175.639 691.008 179.128 672.909 182.499C647.682 187.199 621.593 192.058 592.421 192.186L592.104 192.187Z" fill="white"/>
<path d="M593.608 201.593L592.451 201.596C559.41 201.638 528.972 194.805 499.535 188.195C470.82 181.748 443.695 175.66 414.341 175.403C379.975 175.073 350.524 181.543 319.197 188.362C286.992 195.374 253.693 202.624 213.285 202.747L213.275 200.236C253.353 200.114 286.492 192.901 318.54 185.924C350.038 179.068 379.825 172.606 414.365 172.893C444.053 173.154 472.601 179.562 500.209 185.761C529.483 192.332 559.75 199.129 592.448 199.085C592.829 199.087 593.217 199.086 593.598 199.085C644.737 198.93 682.025 192.812 732.699 181.618C790.42 168.858 825.856 176.396 866.893 185.117C896.85 191.484 927.828 198.068 971.91 197.934L971.92 200.445C927.508 200.58 894.963 193.661 866.253 187.56C825.566 178.91 790.437 171.445 733.362 184.053C682.483 195.294 645.022 201.437 593.608 201.593Z" fill="white"/>
<path d="M975.571 210.05C934.694 210.174 903.531 204.868 873.395 199.739C830.07 192.362 792.648 185.99 737.01 197.338C684.572 208.033 643.033 210.306 593.183 210.457L592.462 210.459C556.179 210.554 523.205 205.397 491.318 200.414C465.229 196.335 438.251 192.118 409.648 190.815C374.222 189.186 342.522 194.91 308.933 200.955C278.04 206.514 246.096 212.263 209.692 212.374L209.682 209.863C245.813 209.753 277.625 204.033 308.385 198.495C342.152 192.421 374.028 186.67 409.788 188.31C438.561 189.621 465.624 193.85 491.795 197.942C523.563 202.909 556.413 208.043 592.452 207.948L593.174 207.946C642.84 207.796 684.202 205.536 736.395 194.891C792.6 183.431 832.096 190.157 873.913 197.272C903.919 202.383 934.95 207.662 975.561 207.539L975.571 210.05Z" fill="white"/>
<path d="M591.964 223.842C557.428 223.946 524.21 220.447 492.081 217.066C464.669 214.178 436.325 211.194 407.377 210.476C371.743 209.601 338.656 212.764 303.633 216.119C272.879 219.066 241.078 222.114 207.112 222.217L207.102 219.706C240.925 219.604 272.655 216.564 303.338 213.627C338.455 210.263 371.621 207.069 407.456 207.971C436.526 208.688 464.932 211.679 492.405 214.572C524.452 217.947 557.586 221.435 591.954 221.331L592.403 221.33C644.872 221.121 687.523 219.486 737.946 211.996C792.997 203.816 836.417 207.787 882.398 211.993C911.895 214.689 942.392 217.475 978.169 217.367L978.179 219.877C942.256 219.986 911.683 217.188 882.115 214.486C836.336 210.305 793.091 206.354 738.397 214.469C687.794 221.99 645.024 223.629 592.412 223.84L591.964 223.842Z" fill="white"/>
<path d="M980.214 227.423L205.061 229.775L205.07 232.285L980.224 229.933L980.214 227.423Z" fill="white"/>
<path d="M982.297 237.708L202.985 240.072L202.995 242.583L982.307 240.219L982.297 237.708Z" fill="white"/>
<path d="M985.002 248.231L200.305 250.612L200.314 253.122L985.012 250.741L985.002 248.231Z" fill="white"/>
<path d="M799.724 267.236C765.635 267.339 731.088 264.146 697.673 261.06C664.426 257.992 630.048 254.817 596.296 254.92C558.471 255.034 519.958 258.428 482.71 261.709C445.221 265.011 406.455 268.429 368.137 268.545C339.73 268.632 310.756 267.415 282.736 266.239C254.497 265.054 225.299 263.829 196.456 263.916L196.446 261.405C225.36 261.318 254.593 262.546 282.865 263.734C310.852 264.907 339.792 266.121 368.127 266.035C406.313 265.919 445.013 262.51 482.438 259.212C519.75 255.923 558.332 252.524 596.286 252.409C630.185 252.306 664.641 255.49 697.96 258.567C731.299 261.644 765.772 264.828 799.715 264.725C830.976 264.63 862.877 263.232 893.725 261.877C924.866 260.512 957.069 259.097 988.922 259.001L988.932 261.512C957.14 261.608 924.971 263.019 893.861 264.384C862.981 265.74 831.047 267.141 799.724 267.236Z" fill="white"/>
<path d="M391.208 282.396C357.837 282.498 324.339 280.566 291.79 278.693C259.116 276.811 225.328 274.865 191.766 274.967L191.756 272.457C225.41 272.354 259.249 274.303 291.971 276.188C329.686 278.361 368.674 280.591 407.214 279.675C437.506 278.94 468.787 272.296 499.041 265.869C529.954 259.302 561.918 252.512 592.114 252.325L592.624 252.324C619.16 252.243 648.538 258.63 676.956 264.805C698.237 269.432 720.242 274.215 740.477 276.104C792.694 280.97 845.1 277.593 895.784 274.319C927.715 272.257 960.731 270.123 993.694 270.023L993.704 272.534C960.836 272.634 927.868 274.761 895.984 276.82C845.187 280.1 792.663 283.496 740.187 278.597C719.772 276.693 697.671 271.889 676.302 267.245C648.048 261.102 618.833 254.752 592.634 254.832C592.468 254.832 592.3 254.833 592.13 254.836C562.254 255.018 530.443 261.778 499.679 268.31C469.29 274.765 437.867 281.44 407.291 282.179C401.936 282.312 396.574 282.38 391.208 282.396Z" fill="white"/>
<path d="M383.623 293.177C350.71 293.276 317.665 291.485 285.515 289.742C253.287 287.994 219.96 286.187 186.962 286.287L186.952 283.776C220.038 283.676 253.41 285.489 285.682 287.237C324.809 289.359 365.277 291.542 405.129 290.313C436.067 289.347 468.656 280.668 500.176 272.275C532.703 263.612 563.427 255.429 592.235 255.143L593 255.14C617.685 255.066 646.787 263.107 674.946 270.89C697.736 277.19 721.303 283.701 742.149 285.778C795.609 291.103 850.499 287.994 903.587 284.998C934.76 283.234 966.996 281.41 998.591 281.314L998.601 283.825C967.087 283.92 934.896 285.739 903.761 287.499C850.564 290.508 795.541 293.624 741.845 288.272C720.738 286.171 697.041 279.62 674.129 273.287C646.171 265.561 617.269 257.575 593.009 257.648C592.758 257.649 592.513 257.65 592.265 257.654C563.848 257.935 533.302 266.069 500.964 274.682C469.282 283.119 436.52 291.843 405.227 292.818C398.038 293.041 390.833 293.155 383.623 293.177Z" fill="white"/>
<path d="M372.019 305.104C340.076 305.201 307.31 303.304 275.251 301.448C244.2 299.65 212.097 297.791 182.039 297.882L182.03 295.371C212.179 295.28 244.333 297.142 275.429 298.943C324.303 301.78 374.841 304.707 421.402 300.487C449.649 297.934 475.897 290.291 501.278 282.899C531.73 274.031 560.489 265.655 592.485 265.246C624.956 264.774 655.502 272.997 687.784 281.647C712.812 288.35 738.691 295.284 765.444 297.75C813.845 302.202 864.738 299.277 913.955 296.439C943.563 294.733 974.179 292.968 1003.6 292.879L1003.61 295.389C974.273 295.478 943.699 297.24 914.131 298.943C864.802 301.781 813.79 304.731 765.161 300.243C738.146 297.756 712.141 290.79 686.987 284.05C654.916 275.458 624.731 267.343 592.522 267.757C560.951 268.158 532.382 276.479 502.138 285.285C476.614 292.717 450.224 300.403 421.683 302.985C405.513 304.446 388.878 305.053 372.019 305.104Z" fill="white"/>
<path d="M356.328 315.012C325.893 315.104 294.677 313.708 264.059 312.337C233.591 310.972 204.812 309.685 176.996 309.769L176.987 307.259C204.876 307.174 233.69 308.464 264.199 309.832C316.399 312.166 370.368 314.59 419.011 309.54C448.543 306.477 475.144 297.729 500.867 289.264C531.291 279.257 560.026 269.806 592.603 269.313C593.253 269.305 593.906 269.3 594.556 269.298C626.41 269.201 656.582 278.442 688.494 288.22C713.866 295.99 740.104 304.028 767.352 306.968C818.319 312.472 872.592 309.922 925.076 307.463C952.778 306.163 981.421 304.818 1008.74 304.735L1008.75 307.245C981.5 307.328 952.889 308.67 925.222 309.967C872.616 312.441 818.22 314.985 767.021 309.461C739.483 306.489 713.107 298.409 687.595 290.593C655.273 280.691 624.863 271.358 592.647 271.823C560.543 272.307 532.022 281.689 501.826 291.622C475.946 300.133 449.189 308.934 419.334 312.032C399.063 314.132 377.889 314.947 356.328 315.012Z" fill="white"/>
<path d="M340.861 325.69C311.912 325.777 282.327 324.765 253.259 323.773C224.716 322.796 197.757 321.874 171.824 321.953L171.814 319.442C197.805 319.363 224.794 320.288 253.365 321.265C308.602 323.151 365.724 325.103 416.603 319.437C447.182 316.028 474.147 306.488 500.224 297.264C530.744 286.466 559.568 276.268 592.699 275.736C593.342 275.728 593.992 275.72 594.635 275.718C626.614 275.621 657.079 285.761 689.301 296.484C715.048 305.053 741.673 313.913 769.385 317.203C822.584 323.521 879.716 321.259 934.957 319.074C961.163 318.039 988.263 316.965 1014.01 316.887L1014.02 319.397C988.331 319.475 961.258 320.546 935.08 321.581C879.706 323.77 822.461 326.038 769.021 319.691C740.998 316.362 714.227 307.453 688.334 298.836C655.713 287.979 624.84 277.714 592.749 278.247C560.122 278.768 531.522 288.886 501.245 299.596C475.007 308.88 447.875 318.479 416.946 321.928C392.68 324.633 367.033 325.61 340.861 325.69Z" fill="white"/>
<path d="M332.068 337.624C303.586 337.71 274.556 336.843 246.006 335.99C218.065 335.153 191.676 334.367 166.256 334.444L166.246 331.933C191.717 331.856 218.134 332.648 246.099 333.482C303.046 335.189 361.919 336.949 414.332 331.058C445.367 327.574 472.688 317.895 499.109 308.534C530.016 297.59 559.207 287.246 592.767 286.707C625.816 286.285 657.214 296.71 690.514 307.862C716.601 316.601 743.574 325.634 771.607 328.997C826.191 335.549 884.845 333.412 941.563 331.341C967.429 330.396 994.172 329.421 1019.58 329.344L1019.59 331.855C994.237 331.931 967.517 332.904 941.678 333.845C884.834 335.919 826.058 338.06 771.235 331.484C742.896 328.083 715.774 318.998 689.544 310.213C656.499 299.147 625.282 288.678 592.817 289.218C559.761 289.746 530.794 300.006 500.13 310.871C473.548 320.287 446.06 330.022 414.676 333.549C388.382 336.501 360.499 337.538 332.068 337.624Z" fill="white"/>
<path d="M875.035 347.514C840.796 347.618 806.662 346.671 773.604 343.278C745.709 340.414 718.415 332.741 692.017 325.322C658.002 315.762 625.898 306.65 592.886 307.246C559.554 307.763 529.309 316.468 497.286 325.683C470.451 333.408 442.701 341.394 412.403 344.423C354.365 350.229 290.673 349.134 229.063 348.074C203.019 347.627 178.421 347.205 154.304 347.278L154.294 344.768C178.442 344.695 203.057 345.119 229.118 345.567C290.619 346.617 354.227 347.716 412.094 341.931C442.116 338.929 469.73 330.982 496.437 323.295C528.66 314.021 559.095 305.26 592.836 304.735C626.362 304.201 658.612 313.305 692.848 322.929C719.12 330.31 746.288 337.947 773.921 340.784C832.106 346.756 893.76 345.13 953.396 343.544C978.517 342.88 1004.5 342.189 1029.42 342.113L1029.43 344.623C1004.54 344.699 978.581 345.387 953.477 346.051C927.567 346.739 901.271 347.434 875.035 347.514Z" fill="white"/>
<path d="M991.042 357.896C926.433 358.092 860.281 357.898 795.338 354.365C767.108 352.828 733.402 344.862 700.807 337.156C662.606 328.129 623.108 318.785 592.973 320.027C561.828 321.307 530.883 328.324 498.122 335.754C463.474 343.608 427.65 351.733 390.71 352.801C361.088 353.659 331.195 354.834 302.285 355.965C248.082 358.093 192.037 360.293 136.206 360.462L136.196 357.951C191.969 357.782 247.99 355.585 302.163 353.461C331.079 352.326 360.983 351.151 390.619 350.296C427.259 349.236 462.938 341.145 497.439 333.322C530.342 325.86 561.421 318.813 592.848 317.523C623.428 316.236 663.114 325.657 701.516 334.732C733.981 342.405 767.55 350.34 795.505 351.86C869.096 355.862 944.276 355.564 1017.03 355.294L1043.36 355.199L1043.37 357.709L1017.04 357.801C1008.42 357.837 999.739 357.869 991.042 357.896Z" fill="white"/>
<path d="M1059.04 371.14C993.082 371.341 926.5 369.167 862.103 367.066C840.798 366.371 819.468 365.673 798.091 365.055C769.157 364.222 737.397 360.475 706.679 356.851C668.097 352.305 628.181 347.61 593.061 348.509C522.844 350.339 450.786 355.637 381.099 360.763C294.407 367.138 204.768 373.732 115.582 374.003L115.573 371.492C204.649 371.222 294.235 364.634 380.871 358.262C450.592 353.136 522.691 347.835 592.983 346.005C628.317 345.074 668.349 349.799 707.04 354.364C737.69 357.979 769.385 361.719 798.183 362.55C819.56 363.165 840.893 363.863 862.206 364.558C926.572 366.659 993.133 368.83 1059.03 368.63L1059.04 371.14Z" fill="white"/>
<path d="M1074.03 384.932C995.743 385.169 916.562 383.137 839.992 381.171C759.095 379.095 675.488 376.958 593.147 377.505C513.227 378.041 433.07 380.376 355.554 382.632C271.171 385.09 183.917 387.632 96.0523 387.899L96.0425 385.388C183.867 385.122 271.1 382.582 355.462 380.124C432.996 377.868 513.17 375.534 593.123 374.994C675.509 374.478 759.144 376.588 840.07 378.666C916.62 380.629 995.773 382.658 1074.02 382.421L1074.03 384.932Z" fill="white"/>
<path d="M1085.98 399.113C1005.64 399.357 924.899 399.21 846.818 399.067C763.987 398.914 678.325 398.77 593.223 399.074L592.917 399.075C552.214 399.198 511.793 394.242 472.7 389.449C437.485 385.134 401.074 380.67 365.329 380.114C318.711 379.325 268.626 385.288 220.156 391.002C174.155 396.42 126.593 402.024 81.2313 402.161L81.2215 399.651C126.406 399.514 173.88 393.923 219.792 388.514C268.368 382.791 318.606 376.873 365.374 377.603C401.286 378.165 437.781 382.638 473.075 386.965C512.073 391.745 552.401 396.687 592.908 396.564L593.214 396.563C678.36 396.268 763.991 396.409 846.825 396.559C924.903 396.699 1005.63 396.846 1085.97 396.603L1085.98 399.113Z" fill="white"/>
<path d="M593.287 415.239C552.359 415.363 511.51 409.737 472.01 404.3C435.961 399.335 398.691 394.204 362.361 393.699C315.502 393.002 264.955 399.169 216.094 405.094C169.257 410.773 120.828 416.645 74.6269 416.785L74.6171 414.275C120.639 414.135 168.975 408.275 215.72 402.607C264.686 396.671 315.312 390.54 362.405 391.188C398.923 391.698 436.292 396.842 472.429 401.818C511.827 407.244 552.566 412.852 593.277 412.728L1092.55 411.187L1092.56 413.697L593.287 415.239Z" fill="white"/>
<path d="M1093.64 428.708C1046.39 428.851 998.328 425.243 951.864 421.759C899.259 417.81 844.885 413.724 792.752 415.291C762.456 416.197 731.614 419.368 701.787 422.435C666.405 426.072 629.815 429.834 593.344 429.944C552.314 430.069 511.272 423.515 471.581 417.178C434.828 411.309 396.829 405.243 360.074 404.852C314.832 404.393 265.707 411.345 218.245 418.094C171.364 424.758 122.885 431.653 76.4553 431.794L76.4455 429.283C122.661 429.143 171.031 422.267 217.81 415.615C265.388 408.851 314.633 401.904 360.105 402.341C397.088 402.738 435.206 408.822 472.064 414.709C511.636 421.024 552.553 427.557 593.335 427.434C629.652 427.323 666.163 423.572 701.471 419.944C731.353 416.871 762.252 413.697 792.66 412.787C844.933 411.205 899.41 415.307 952.093 419.26C998.502 422.741 1046.49 426.34 1093.63 426.197L1093.64 428.708Z" fill="white"/>
<path d="M1091.49 444.148C1043.31 444.295 994.827 438.351 947.939 432.606C894.933 426.11 844.859 419.988 795.615 421.978C764.879 423.229 733.578 428.222 703.308 433.054C667.614 438.747 630.703 444.637 593.402 444.75C557.625 444.859 518.002 436.712 479.684 428.833C435.926 419.842 394.573 411.342 358.371 413.99C319.035 416.862 280.681 423.338 243.587 429.602C192.828 438.17 140.341 447.034 83.2793 447.207L83.2695 444.697C140.077 444.524 192.437 435.685 243.071 427.136C280.235 420.863 318.665 414.374 358.143 411.492C394.784 408.794 436.331 417.351 480.303 426.388C518.468 434.236 557.935 442.347 593.392 442.24C630.452 442.127 667.241 436.259 702.819 430.584C733.177 425.74 764.57 420.731 795.49 419.474C844.982 417.45 895.179 423.608 948.313 430.122C995.11 435.855 1043.5 441.783 1091.48 441.638L1091.49 444.148Z" fill="white"/>
<path d="M1088.51 460.04C1039.06 460.19 990.475 451.516 943.499 443.125C892.786 434.075 844.914 425.519 798.562 428.087C767.705 429.797 737.799 436.422 706.135 443.432C669.831 451.473 632.294 459.789 593.461 459.907C557.568 460.016 516.966 450.179 477.701 440.665C433.512 429.957 391.772 419.836 356.629 422.851C318.061 426.146 281.144 434.103 245.445 441.798C197.336 452.171 147.593 462.895 91.4592 463.065L91.4494 460.554C147.26 460.385 196.844 449.699 244.792 439.36C280.587 431.643 317.602 423.664 356.368 420.353C392.034 417.318 433.986 427.481 478.423 438.244C517.511 447.712 557.929 457.504 593.451 457.396C631.95 457.28 669.325 449.003 705.469 440.997C735.857 434.267 767.283 427.309 798.389 425.583C845.071 422.967 893.141 431.578 944.044 440.665C990.888 449.032 1039.32 457.678 1088.5 457.529L1088.51 460.04Z" fill="white"/>
<path d="M1087.1 476.389C1035.99 476.544 987.43 465.408 940.471 454.644C891.806 443.484 845.872 432.968 801.601 436.03C770.613 438.193 740.794 446.349 709.222 454.981C672.273 465.082 634.066 475.531 593.522 475.654C557.344 475.764 515.772 464.451 475.574 453.51C431.005 441.386 388.902 429.933 354.563 433.152C316.578 436.711 280.789 445.993 246.18 454.972C200.215 466.893 152.682 479.224 97.3685 479.392L97.3587 476.881C152.284 476.715 199.627 464.436 245.409 452.561C280.133 443.555 316.044 434.242 354.274 430.654C389.206 427.422 431.54 438.91 476.381 451.11C516.386 461.997 557.75 473.252 593.513 473.143C633.645 473.022 671.654 462.631 708.413 452.58C740.131 443.907 770.092 435.715 801.387 433.532C846.077 430.383 892.259 441 941.159 452.211C987.948 462.939 1036.33 474.032 1087.09 473.878L1087.1 476.389Z" fill="white"/>
<path d="M1089.66 493.207C1037.12 493.366 988.334 480.844 941.155 468.737C893.377 456.477 848.236 444.921 804.738 448.244C773.457 450.65 743.449 459.657 711.676 469.191C674.129 480.459 635.304 492.114 593.587 492.24C556.987 492.352 514.633 480.193 473.672 468.437C428.606 455.503 386.042 443.295 351.785 446.617C313.936 450.305 280.112 459.887 244.299 470.033C199.15 482.822 152.465 496.05 97.369 496.217L97.3593 493.707C152.033 493.541 198.514 480.374 243.463 467.641C277.828 457.904 313.362 447.836 351.482 444.126C386.338 440.701 429.158 453.03 474.52 466.049C515.273 477.744 557.416 489.839 593.577 489.73C634.849 489.604 673.456 478.017 710.796 466.811C742.728 457.228 772.89 448.175 804.497 445.746C848.556 442.336 893.892 453.999 941.918 466.324C988.913 478.387 1037.5 490.854 1089.65 490.696L1089.66 493.207Z" fill="white"/>
<path d="M1098.21 510.509C1045.46 510.669 995.98 498.624 948.13 486.975C899.088 475.035 852.756 463.767 807.965 466.999C776.079 469.306 745.432 478.071 712.988 487.346C674.943 498.227 635.603 509.476 593.654 509.603C556.448 509.716 513.862 498.033 472.678 486.737C426.852 474.165 383.591 462.273 347.942 465.654C309.535 469.273 273.371 478.949 238.395 488.305C192.268 500.643 144.574 513.403 89.0968 513.571L89.0871 511.061C144.163 510.894 191.663 498.189 237.6 485.9C272.698 476.511 308.988 466.801 347.653 463.157C383.853 459.758 427.39 471.69 473.489 484.337C514.475 495.581 556.857 507.204 593.645 507.093C635.165 506.967 674.301 495.779 712.146 484.957C744.746 475.635 775.538 466.831 807.744 464.501C853.001 461.21 899.575 472.554 948.859 484.554C996.529 496.158 1045.83 508.158 1098.2 507.999L1098.21 510.509Z" fill="white"/>
<path d="M1111.82 528.323C1059.74 528.481 1009.24 518.766 960.399 509.373C908.383 499.369 859.232 489.901 811.304 492.557C778.429 494.365 746.573 501.764 712.851 509.601C674.482 518.514 634.807 527.735 593.726 527.859C555.792 527.974 513.747 518.424 473.089 509.19C428.327 499.022 382.05 488.51 343.149 491.733C304.056 494.971 266.424 502.884 230.031 510.533C181.473 520.742 131.263 531.298 75.5336 531.468L75.5239 528.957C130.936 528.789 180.99 518.266 229.398 508.092C265.881 500.421 303.607 492.489 342.893 489.235C382.254 485.98 428.777 496.537 473.771 506.756C514.262 515.954 556.132 525.462 593.716 525.348C634.447 525.225 673.951 516.048 712.151 507.172C744.52 499.652 777.991 491.877 811.131 490.053C859.449 487.383 908.768 496.875 960.981 506.919C1009.68 516.285 1060.03 525.97 1111.81 525.813L1111.82 528.323Z" fill="white"/>
<path d="M591.901 548.311C556.682 548.418 521.301 543.556 487.063 538.852C455.689 534.541 423.25 530.084 391.659 529.631C333.902 528.778 276.38 534.292 220.747 539.605C168.486 544.595 114.448 549.756 59.0629 549.925L59.0531 547.414C114.295 547.246 168.263 542.095 220.451 537.11C276.17 531.789 333.787 526.28 391.704 527.121C423.482 527.578 456.019 532.051 487.482 536.374C522.23 541.146 558.118 545.939 593.789 545.791C634.502 545.46 672.861 539.213 709.959 533.176C738.291 528.564 767.588 523.793 797.767 521.681C858.182 517.435 915.728 524.545 976.632 532.061C1025.5 538.091 1076.03 544.328 1128.28 544.17L1128.29 546.68C1075.84 546.839 1025.22 540.591 976.254 534.545C915.501 527.05 858.113 519.976 797.981 524.179C767.944 526.285 738.719 531.043 710.455 535.645C673.245 541.701 634.767 547.966 593.813 548.302C593.177 548.307 592.537 548.309 591.901 548.311Z" fill="white"/>
<path d="M409.238 568.067C347.725 568.254 286.621 568.387 226.533 568.514C165.194 568.645 103.732 568.78 41.9018 568.967L41.892 566.457C103.722 566.269 165.187 566.138 226.523 566.007C346.542 565.756 470.64 565.489 593.865 564.782C633.364 564.558 672.649 561.113 710.642 557.783C740.169 555.195 770.703 552.521 801.134 551.372C864.333 548.979 928.322 552.983 990.218 556.843C1040.86 560.002 1093.22 563.267 1145.44 563.108L1145.45 565.619C1093.13 565.778 1040.71 562.507 990.024 559.345C928.202 555.488 864.274 551.499 801.252 553.877C770.897 555.022 740.403 557.696 710.914 560.281C672.86 563.617 633.506 567.065 593.882 567.293C532.345 567.642 470.588 567.881 409.238 568.067Z" fill="white"/>
<path d="M310.619 598.196C263.196 598.34 214.987 595.828 168.366 593.401C121.787 590.976 73.6213 588.468 26.2764 588.611L26.2666 586.101C73.6965 585.957 121.906 588.468 168.53 590.896C215.106 593.323 263.272 595.829 310.609 595.685C359.938 595.535 410.103 593.261 458.61 591.06C507.152 588.858 557.343 586.577 606.73 586.428C654.358 586.283 702.78 586.669 749.61 587.038C796.426 587.41 844.835 587.793 892.439 587.649C937.205 587.513 982.722 586.316 1026.74 585.153C1070.77 583.994 1116.31 582.793 1161.1 582.657L1161.11 585.168C1116.35 585.304 1070.84 586.501 1026.83 587.661C982.786 588.823 937.252 590.024 892.449 590.16C844.828 590.304 796.409 589.918 749.585 589.549C702.766 589.177 654.35 588.794 606.74 588.938C557.418 589.088 507.26 591.362 458.753 593.564C410.211 595.765 360.016 598.046 310.619 598.196Z" fill="white"/>
<path d="M870.503 622.627C824.366 622.767 777.478 618.748 732.134 614.866C686.856 610.989 640.036 606.979 594.038 607.119C544.937 607.268 494.999 611.571 446.703 615.732C398.342 619.902 348.338 624.212 299.109 624.361C251.6 624.505 203.314 620.493 156.62 616.612C109.99 612.739 61.7715 608.734 14.3994 608.877L14.3896 606.367C61.8948 606.223 110.181 610.234 156.875 614.116C203.505 617.988 251.723 621.994 299.099 621.85C348.2 621.701 398.138 617.398 446.434 613.237C494.794 609.067 544.798 604.757 594.028 604.608C640.165 604.468 687.053 608.484 732.397 612.37C777.675 616.246 824.495 620.256 870.493 620.116C920.87 619.964 972.109 615.656 1021.66 611.492C1071.27 607.318 1122.58 603.004 1173.08 602.851L1173.09 605.362C1122.71 605.515 1071.47 609.822 1021.92 613.989C972.305 618.16 921.006 622.474 870.503 622.627Z" fill="white"/>
</svg>
