<svg width="1201" height="638" viewBox="0 0 1201 638" fill="none" xmlns="http://www.w3.org/2000/svg">
<rect width="1200.23" height="636.705" transform="matrix(1 -0.00097958 0.00114398 0.999999 0 1.17578)" fill="#1B0531"/>
<path d="M959.334 531.415L956.317 529.597C992.692 506.867 1009.14 506.373 1057.96 504.893L1065.82 504.659C1071.39 504.477 1076.66 504.347 1081.63 504.217C1136.11 502.763 1156.51 502.217 1167.73 469.512C1180.69 431.923 1178.43 364.512 1168.28 327.546C1160.67 299.647 1129.61 284.268 1096.72 267.981C1072.92 256.213 1048.32 244.03 1033.49 226.677C1000.89 188.542 1040.33 126.898 1075.13 72.4761C1090.94 47.7977 1105.85 24.4702 1111.68 6.5459L1115.93 7.03947C1110.02 25.2235 1095.06 48.603 1079.17 73.4372C1044.71 127.314 1005.61 188.386 1037.35 225.482C1051.76 242.341 1076.02 254.368 1099.48 265.98C1131.52 281.826 1164.67 298.244 1172.57 327.105C1182.77 364.304 1185.02 432.157 1171.97 469.979C1160.03 504.659 1137.17 505.282 1081.89 506.763L1066.12 507.205L1058.26 507.438C1010.58 508.919 994.562 509.413 959.334 531.415Z" fill="#F3E8FF"/>
<path d="M942.635 533.701L939.66 531.857C976.63 509.361 992.268 508.477 1044.03 505.88L1055.97 505.308C1111.21 502.71 1129.65 501.801 1140.95 469.849C1155.23 430.286 1158.67 363.343 1148.35 326.767C1140.36 298.192 1108.36 282.787 1074.49 266.396C1049.63 254.394 1023.97 241.951 1008.71 223.975C976.503 186.048 1016.53 126.456 1051.8 73.8786C1068.8 48.6288 1084.73 24.8077 1090.64 6.33789L1094.89 6.83145C1088.94 25.613 1072.84 49.564 1055.84 74.9177C1020.87 126.872 981.262 185.97 1012.54 222.832C1027.41 240.315 1052.74 252.576 1077.21 264.395C1110.23 280.371 1144.35 296.893 1152.64 326.351C1163.01 363.291 1159.52 430.624 1145.2 470.421C1133.01 504.191 1112.06 505.256 1055.97 507.906L1044.49 508.477C992.48 511.179 978.5 511.88 942.635 533.701Z" fill="#F3E8FF"/>
<path d="M932.734 539.209L929.589 537.443C962.479 515.336 976.12 513.362 1023.08 509.284H1024.48C1084.48 504.088 1097.02 502.971 1109.21 471.097C1125.91 427.689 1141.63 363.474 1131.18 325.391C1123.06 295.751 1088.69 279.671 1052.1 262.63C1025.41 250.187 997.834 237.328 981.729 218.703C949.179 180.984 991.333 123.834 1028.47 73.412C1046.92 48.422 1064.3 24.8346 1070.67 6.20898L1074.92 6.72853C1068.46 25.6399 1050.95 49.3571 1032.42 74.4771C995.625 124.353 953.896 180.984 985.681 217.482C1001.32 235.666 1028.52 248.291 1054.82 260.578C1090.39 277.151 1127.06 294.348 1135.56 324.975C1146.14 363.422 1130.29 428.053 1113.55 471.695C1100.8 505.309 1086.18 506.556 1025.24 511.855H1023.84C976.97 515.908 964.732 517.674 932.734 539.209Z" fill="#F3E8FF"/>
<path d="M928.526 547.029L924.574 546.041C939.32 523.779 969.363 517.96 998.344 512.271C1028.09 506.53 1056.01 501.101 1070.16 479.514C1078.87 466.239 1082.57 449.666 1086.09 433.612C1088.28 422.129 1091.55 410.733 1095.87 399.478C1097.53 395.581 1099.35 391.685 1101.18 387.58C1110.91 366.331 1120.94 344.354 1114.14 323.313C1104.28 292.816 1066.93 275.723 1027.41 257.616C994.307 242.472 960.099 226.807 944.419 202.649C920.027 164.982 960.907 118.872 1000.43 74.2693C1022.48 49.3831 1043.35 25.8478 1050.91 5.55957L1055.16 6.13107C1047.42 26.9128 1026.48 50.4482 1004.17 75.5162C965.114 119.677 924.744 165.164 948.371 201.688C963.584 225.067 997.324 240.653 1029.96 255.538C1068.2 273.125 1108.15 291.335 1118.3 322.793C1125.32 344.458 1115.12 366.747 1105.3 388.282C1103.47 392.282 1101.65 396.231 1099.99 400.127C1095.71 411.26 1092.49 422.536 1090.34 433.898C1086.73 450.082 1083.03 466.837 1074.11 480.397C1059.2 503.127 1028.94 508.972 999.661 514.687C970.383 520.402 942.507 525.883 928.526 547.029Z" fill="#F3E8FF"/>
<path d="M928.102 557.055L923.852 556.484C931.076 537.338 948.371 531.727 968.386 525.311C976.221 522.863 983.825 520.148 991.163 517.18C1016.06 506.789 1018.15 502.97 1025.88 488.943C1027.07 486.813 1028.39 484.423 1029.92 481.747C1037.1 469.382 1042.67 456.082 1047.68 443.223C1053.33 428.199 1060.42 413.392 1068.93 398.88C1071.35 395.009 1073.94 391.087 1076.58 387.034C1090.85 365.291 1105.64 342.873 1098.97 320.429C1089.24 287.801 1047.64 269.669 1003.57 250.446C967.069 234.47 929.376 218.13 912.379 192.699C887.477 155.473 932.308 112.169 975.61 70.2421C999.917 46.6807 1022.86 24.5481 1031.62 5.11719L1035.87 5.79259C1026.94 25.7171 1003.87 48.0835 979.392 71.7487C936.643 113.104 892.406 155.863 916.501 191.841C932.988 216.494 970.171 232.704 1006.16 248.394C1048.95 267.045 1093.23 286.347 1103.3 320.013C1110.19 343.133 1095.19 365.967 1080.66 388.047C1078.02 392.048 1075.43 395.996 1073.05 399.867C1064.62 414.317 1057.63 429.064 1052.1 444.028C1046.87 457.017 1041.43 470.317 1034.25 482.786C1032.72 485.384 1031.4 487.826 1030.21 489.956C1022.52 503.906 1019.93 508.582 993.84 519.492C986.393 522.529 978.659 525.296 970.681 527.779C950.623 533.961 934.901 539.079 928.102 557.055Z" fill="#F3E8FF"/>
<path d="M930.439 568.485L926.189 568.278C928.314 551.366 943.612 535.832 958.357 520.817C969.916 509.075 981.899 496.918 987.636 484.085C995.03 467.72 1011.3 447.458 1028.56 426.026C1058.3 388.801 1092.3 346.614 1084.35 316.922C1074.92 281.983 1026.26 261.695 979.222 242.056C939.023 225.274 897.421 207.948 879.063 181.399C853.567 144.303 902.69 104.143 950.368 65.3328C977.14 43.5379 1002.42 22.9639 1012.54 4.23438L1016.57 5.06564C1006.21 24.1849 980.752 44.9147 953.768 66.8914C906.812 105.13 858.241 144.667 882.973 180.386C900.863 206.363 941.912 223.352 981.602 239.926C1029.41 259.85 1078.83 280.476 1088.56 316.48C1096.8 347.004 1062.55 389.58 1032.34 427.143C1015.34 448.471 999.024 468.707 991.758 484.761C985.808 497.931 973.74 510.244 962.012 522.142C946.841 537.65 932.478 552.198 930.439 568.485Z" fill="#F3E8FF"/>
<path d="M930.014 580.772C928.909 551.782 932.606 507.672 943.442 479.331C952.281 456.108 978.585 433.248 1006.46 409.037C1042.41 377.864 1079.55 345.497 1074.71 312.921C1069.31 276.709 1012.66 253.459 957.89 231.015C918.54 214.857 877.831 198.18 857.731 176.93C818.297 135.367 872.222 98.1416 924.405 62.2151C952.366 42.992 981.219 23.2493 993.627 3.42871L997.579 4.33792C984.831 24.4962 955.765 44.5506 927.592 63.9296C876.599 99.1547 823.481 135.601 861.386 175.632C881.018 196.413 919.518 212 960.227 228.859C1015.85 251.641 1073.35 275.228 1078.96 312.687C1083.93 346.12 1046.32 378.799 1009.9 410.44C982.324 434.417 956.233 457.199 947.564 479.799C936.813 507.958 933.158 551.782 934.263 580.616L930.014 580.772Z" fill="#F3E8FF"/>
<path d="M938.3 593.241H934.05C934.305 576.174 924.574 560.016 915.183 544.404C903.327 524.635 891.046 504.217 898.653 481.695C907.747 454.913 943.867 429.481 978.797 404.932C1021.63 374.799 1065.91 343.626 1061.92 309.466C1057.45 271.617 994.434 246.497 933.455 222.209C888.412 204.233 845.79 187.269 824.756 165.449C782.899 122.093 840.861 89.4652 896.996 57.9029C927.974 40.4463 960.014 22.4181 974.887 2.7793L978.754 3.87034C963.371 23.9507 931.033 42.1608 899.63 59.7993C842.306 92.063 788.168 122.56 828.283 164.098C848.85 185.399 891.004 202.206 935.665 220.001C997.494 244.653 1061.41 270.111 1065.99 309.258C1070.24 344.509 1025.29 376.072 981.856 406.595C947.309 430.91 911.529 455.952 902.69 482.189C895.338 503.984 906.939 523.155 919.05 543.469C928.696 559.315 938.555 575.681 938.3 593.241Z" fill="#F3E8FF"/>
<path d="M937.11 605.555C930.183 591.19 914.971 576.668 898.865 561.394C872.647 536.378 845.535 510.478 854.799 483.956C864.87 455.147 908.257 428.91 950.241 403.426C1000.21 373.163 1051.93 341.886 1048.66 305.96C1046.7 284.165 1002.89 262.24 973.91 247.745L963.711 242.549C947.988 234.444 928.696 226.314 908.469 217.663C865.465 199.479 816.682 178.931 792.375 154.149C748.096 109.104 809.84 80.6594 869.502 53.1755C903.497 37.5892 938.64 21.3015 955.935 1.89648L959.674 3.1434C941.954 23.0419 906.429 39.5115 872.052 55.2537C811.2 83.2831 753.748 109.806 795.987 152.824C819.869 177.113 868.227 197.531 910.721 215.533C931.246 224.209 950.623 232.392 966.473 240.549L976.629 245.745C1006.38 260.526 1050.87 282.866 1053.12 305.83C1056.48 342.925 1004.08 374.617 953.428 405.271C911.911 430.365 868.992 456.342 859.176 484.397C850.252 509.881 876.896 535.312 902.647 559.887C918.88 575.473 934.263 590.072 941.359 604.776L937.11 605.555Z" fill="#F3E8FF"/>
<path d="M937.875 616.439C927.209 600.333 903.88 585.007 878.808 568.797C843.028 545.417 806.016 521.311 809.16 494.008C813.41 457.9 867.802 429.377 920.41 401.789C976.715 372.305 1034.89 341.808 1027.92 303.076C1020.19 259.98 952.238 235.379 886.542 211.584C828.835 190.802 769.173 169.111 749.116 134.873C729.399 101.103 741.892 89.751 792.205 70.1382C807.036 64.3713 821.144 59.5915 834.699 54.9676C874.346 41.5373 908.597 29.9515 936.685 1.48047L940.297 2.80531C911.826 31.8738 877.108 43.6415 836.909 57.3575C823.311 61.9554 809.245 66.7093 794.415 72.4502C745.504 91.4915 734.116 101.908 753.026 134.094C772.573 167.449 831.597 188.802 888.624 209.428C955.213 233.535 1024.1 258.473 1032.04 302.946C1039.27 343.185 980.199 374.124 923.13 404.049C871.159 431.144 817.404 459.173 813.367 494.19C810.35 520.375 846.725 544.092 881.868 566.926C907.024 583.318 930.779 598.827 941.742 615.374L937.875 616.439Z" fill="#F3E8FF"/>
<path d="M934.858 625.531C911.019 595.553 887.69 583.551 855.437 566.926C845.196 561.731 833.552 555.678 820.847 548.534C798.197 535.831 768.324 516.53 770.194 495.826C773.636 458.03 834.317 428.987 893.002 400.932C954.873 371.396 1019.12 340.587 1012.2 300.348C1004.46 255.719 932.691 230.209 863.256 205.531C802.447 183.944 739.598 161.604 718.776 126.327C706.665 120.3 699.993 113.702 698.974 106.74C697.869 99.2064 703.223 91.1534 715.249 82.7368L715.716 82.503L764.245 63.4357C780.392 58.2403 795.52 53.9281 810.181 49.9016C851.4 38.4976 887.053 28.6782 917.223 0.804688L920.793 2.23343C889.9 30.8084 853.78 40.7057 811.923 52.2655C797.347 56.292 782.177 60.4484 766.412 65.6698L718.266 84.5812C707.26 92.3743 702.203 99.7519 703.181 106.506C704.115 112.818 710.447 118.897 721.92 124.534L722.388 124.742V125.106C742.658 159.681 805.039 181.866 865.38 203.297C935.751 228.287 1008.46 254.134 1016.4 300.062C1023.59 341.756 958.527 372.798 895.636 402.958C837.717 430.676 777.8 459.354 774.443 495.982C772.658 515.569 801.724 534.273 823.736 546.612C836.485 553.73 847.958 559.6 858.156 564.952C890.834 581.759 914.461 593.916 938.683 624.388L934.858 625.531Z" fill="#F3E8FF"/>
<path d="M926.912 632.103C899.758 600.696 872.689 588.253 835.294 571.082C822.971 565.419 809.033 559.029 793.948 551.34C774.486 541.442 733.946 520.791 735.901 497.177C739.13 458.211 804.359 428.805 867.633 400.412C933.923 370.59 1002.51 339.729 995.455 298.452C987.593 252.732 912.931 226.547 840.691 201.219C777.375 179.034 711.892 156.07 690.39 119.832C677.939 113.806 671.097 107.207 670.035 100.245C668.93 92.7381 674.582 84.6591 686.778 76.3205L687.288 76.0347L737.856 58.4481C754.853 53.5384 771.001 49.8497 786.469 46.2908C828.963 36.5493 865.465 28.1067 897.166 0.415039L900.65 1.89574C868.185 30.2888 831.003 38.8353 787.999 48.6547C772.573 52.1876 756.638 55.8504 739.81 60.6822L689.71 78.1129C678.491 85.906 673.307 93.2056 674.284 99.9337C675.219 106.246 681.678 112.325 693.492 117.962L693.959 118.17L694.172 118.533C714.951 154.07 779.967 176.852 842.901 198.881C916.033 224.546 991.63 251.069 999.747 298.114C1007.1 340.872 937.493 372.175 870.225 402.438C807.886 430.468 743.465 459.588 740.363 497.229C738.535 519.544 777.928 539.624 796.88 549.184C811.88 556.795 825.776 563.185 838.057 568.822C874.474 585.552 903.243 598.774 930.906 630.726L926.912 632.103Z" fill="#F3E8FF"/>
<path d="M912.719 635.584C884.715 603.087 853.949 589.968 814.982 573.239C801.172 567.342 785.491 560.64 768.706 552.457C744.994 541.001 705.347 521.856 707.43 497.749C710.914 458.004 778.777 428.52 844.388 399.997C913.186 370.123 984.321 339.21 976.97 297.309C968.853 250.966 892.491 224.417 818.594 198.752C753.706 176.203 686.65 152.902 664.766 116.04C652.315 109.987 645.431 103.389 644.411 96.4014C643.264 88.868 648.873 80.8151 661.068 72.3725L661.663 72.0868L713.464 55.3834C731.439 50.6815 748.097 47.3824 764.244 44.1613C807.163 35.6148 844.261 28.2372 876.471 0L879.956 1.4807C846.938 30.4193 809.203 37.8488 765.562 46.6031C749.499 49.7983 732.926 53.0974 715.248 57.6954L663.958 74.2429C652.782 82.036 647.598 89.3876 648.618 96.1417C649.595 102.48 656.054 108.559 667.868 114.196L668.377 114.43L668.59 114.793C689.837 150.928 756.298 174.073 820.719 196.466C895.508 222.443 972.848 249.355 981.177 296.997C988.826 340.431 916.628 371.786 846.853 402.101C782.049 430.261 715.121 459.251 711.679 497.879C709.724 520.609 748.266 539.261 771.171 550.379C787.871 558.458 802.786 564.822 817.234 571.005C856.669 587.838 887.817 601.113 916.331 634.182L912.719 635.584Z" fill="#F3E8FF"/>
<path d="M891.131 636C863.128 603.841 832.235 590.359 793.14 573.292C778.819 567.031 764.031 560.589 747.544 552.51C722.43 540.197 684.525 521.571 686.395 497.958C689.582 458.161 757.53 428.598 823.226 399.998C892.024 370.072 963.159 339.133 955.977 297.206C947.988 250.732 871.329 224.469 797.134 198.856C732.203 176.568 664.893 153.188 642.966 116.43C630.6 110.378 623.801 103.753 622.739 96.7395C621.591 89.1801 626.988 81.1532 639.099 72.6587L639.694 72.3729L691.749 55.6436C709.936 50.9417 726.807 47.6426 743.124 44.4474C786.256 36.0308 823.481 28.8611 855.479 0.286133L859.006 1.76683C826.158 30.9392 788.296 38.3687 744.272 46.9412C728.039 50.1104 711.296 53.3836 693.279 58.0075L641.734 74.555C630.685 82.3482 625.628 89.7257 626.648 96.5057C627.625 102.87 634.042 108.975 645.77 114.69L646.28 114.924V115.261C667.527 151.422 734.328 174.411 798.919 196.622C874.049 222.443 951.685 249.148 959.887 296.972C967.323 340.38 895.168 371.786 825.393 402.154C760.504 430.365 693.406 459.563 690.347 498.113C688.562 520.402 725.489 538.508 749.838 550.51C766.199 558.562 780.944 565.005 795.222 571.291C834.784 588.54 866.017 602.178 894.488 634.883L891.131 636Z" fill="#F3E8FF"/>
<path d="M863.638 636C836.739 604.827 807.716 590.513 770.958 572.329C758.21 566.069 745.462 559.627 730.929 551.833C708.704 539.806 671.437 519.622 673.094 497.281C675.941 458.004 741.807 428.234 805.506 399.477C872.349 369.292 941.487 338.067 934.39 296.581C926.486 250.42 850.21 224.988 776.44 200.466C711.721 178.879 644.708 156.564 622.824 120.144C610.458 114.091 603.616 107.493 602.554 100.479C601.407 92.946 606.804 84.8931 618.914 76.4245L619.467 76.1388L671.607 58.7081C689.539 53.7984 706.325 50.2395 722.6 46.7845C766.114 37.5626 803.679 29.5876 835.634 1.14258L839.119 2.62328C806.398 31.7437 768.196 39.8486 724.002 49.3823C707.854 52.8112 691.154 56.3441 673.519 61.1499L621.889 78.4508C610.883 86.2439 605.784 93.6214 606.846 100.376C607.908 107.13 614.24 112.819 625.968 118.56L626.436 118.793L626.648 119.157C647.895 154.85 714.271 176.982 778.522 198.414C853.227 223.326 930.523 249.121 938.64 296.633C945.991 339.574 875.876 371.24 808.056 401.867C745.164 430.286 680.106 459.666 677.386 497.697C675.856 518.92 712.104 538.585 733.776 550.327C748.096 558.12 761.099 564.484 773.678 570.719C810.775 589.111 840.139 603.606 867.462 635.194L863.638 636Z" fill="#F3E8FF"/>
<path d="M830.917 635.948C817.319 618.491 787.998 601.086 756.977 582.642C710.659 555.133 662.768 526.662 665.403 495.775C668.675 457.432 730.843 427.507 790.973 398.542C854.714 367.915 920.325 336.197 912.718 295.464C904.219 250.03 828.835 226.105 755.915 202.96C691.791 182.619 625.501 161.578 603.361 125.833C591.038 119.884 584.239 113.312 583.134 106.35C581.987 98.8169 587.383 90.7639 599.579 82.2174L600.089 81.9317L652.357 63.358C670.077 58.1625 686.82 54.162 702.967 50.3694C746.949 39.9785 784.938 31.0423 816.767 2.18164L820.251 3.63637C787.701 33.1725 749.158 42.2645 704.497 52.8112C688.392 56.6039 671.777 60.6044 654.354 65.7998L602.554 84.2437C591.42 92.0368 586.321 99.4923 587.384 106.272C588.361 112.585 594.777 118.612 606.463 124.171L606.931 124.404V124.742C628.178 159.759 694.044 180.619 757.657 200.803C831.597 224.183 908.044 248.524 916.755 295.334C924.574 337.547 857.901 369.681 793.522 400.75C734.031 429.325 672.754 458.913 669.567 496.06C667.017 525.778 714.228 553.808 759.867 580.928C791.185 599.528 820.761 617.114 834.657 634.987L830.917 635.948Z" fill="#F3E8FF"/>
<path d="M794.161 635.844C783.41 618.777 760.165 600.931 735.179 582.046C697.317 553.237 658.18 523.467 662.259 493.879C667.316 457.225 724.045 427.143 778.905 398.049C841.032 365.11 899.716 334.015 891.175 294.14C881.656 249.719 807.461 227.768 735.689 206.519C672.33 187.763 606.847 168.358 584.452 133.497C572.214 127.652 565.415 121.184 564.31 114.274C563.078 106.714 568.56 98.5317 580.925 89.9592L581.393 89.7254L633.788 69.619C651.381 63.982 667.996 59.5659 684.101 55.3056C728.635 43.486 767.049 33.3029 798.835 3.71484L802.404 5.14359C770.024 35.3811 731.014 45.72 685.886 57.6695C669.866 61.9298 653.293 66.3199 635.998 71.879L583.942 91.8815C572.639 99.8565 567.455 107.338 568.56 114.118C569.537 120.353 575.954 126.275 587.512 131.757L588.022 131.964L588.234 132.302C609.779 166.436 674.752 185.659 737.516 204.259C810.393 225.924 885.565 248.082 895.382 293.854C904.22 335.054 841.924 368.071 781.71 400.023C727.487 428.754 671.225 458.498 666.508 494.087C662.557 522.662 701.141 552.016 738.493 580.435C763.522 599.476 787.149 617.478 797.985 634.987L794.161 635.844Z" fill="#F3E8FF"/>
<path d="M754.47 635.714C746.949 618.491 730.291 600.255 712.656 580.954C685.46 551.184 657.414 520.401 662.471 491.619C668.59 457.147 719.243 426.909 768.196 397.659C825.436 363.603 879.488 331.235 869.884 292.763C858.921 249.667 786.213 229.95 715.843 210.909C653.164 193.998 588.701 176.567 566.009 142.797C553.813 137.108 547.057 130.769 545.909 123.937C544.635 116.352 550.159 108.091 562.907 99.3627L563.332 99.1549L615.897 77.334C633.277 71.1774 649.892 66.2417 665.87 61.4879C710.999 48.0317 749.966 36.4459 781.497 5.84473L785.066 7.2475C752.898 38.4202 713.421 50.2138 667.74 63.8259C651.805 68.5797 635.274 73.4894 618.149 79.4122L565.924 101.103C554.366 109.208 548.926 116.689 550.244 123.573C551.264 129.73 557.638 135.549 569.154 140.848L569.621 141.056L569.834 141.394C591.676 174.489 655.629 191.816 717.501 208.545C788.891 227.898 862.703 247.874 874.006 292.373C884.12 332.196 826.753 366.434 771.298 399.555C722.855 428.468 672.797 458.368 666.805 491.93C661.833 519.908 689.624 550.301 716.481 579.707C734.243 599.164 751.071 617.556 758.72 635.065L754.47 635.714Z" fill="#F3E8FF"/>
<path d="M712.997 635.558C709.172 618.284 699.866 599.97 690.05 580.565C674.412 549.704 658.222 517.804 664.766 489.151C671.99 457.615 715.759 427.429 757.913 398.231C807.844 363.733 859.431 328.092 848.256 291.205C835.507 249.641 764.457 232.34 695.702 215.637C634.085 200.7 570.429 185.243 547.567 152.33C522.793 116.69 549.267 104.273 598.22 85.3611C615.218 78.7629 631.791 73.2817 647.726 67.9823C693.492 52.7597 732.969 39.6152 764.33 7.87109L767.984 9.22191C736.029 41.4856 696.042 54.8379 649.766 70.2164C633.873 75.4118 617.47 80.9969 600.472 87.5432C548.205 107.727 529.125 119.157 551.477 151.291C573.829 183.425 636.465 198.466 697.231 213.195C767.092 230.158 839.332 247.693 852.42 290.711C863.978 328.82 811.668 364.954 761.1 399.815C719.286 428.754 676.112 458.654 668.973 489.411C662.556 517.492 678.577 549.158 694.087 579.707C703.988 599.19 713.337 617.608 717.204 635.117L712.997 635.558Z" fill="#F3E8FF"/>
<path d="M675.007 635.376H670.757C670.757 618.881 668.845 601.892 666.805 583.863C663.108 551.08 659.284 517.154 667.995 486.579C675.899 458.679 712.189 428.935 747.289 400.178C792.588 363.031 839.416 324.637 826.795 289.568C812.39 249.511 742.912 234.756 675.771 220.468C615.302 207.635 552.794 194.335 529.464 162.617C504.18 128.275 532.439 114.117 580.67 93.8292C597.667 86.7375 613.985 80.6848 629.835 74.8399C676.196 57.7469 716.268 43.0178 747.502 10.0527L751.156 11.3516C719.37 44.8882 678.916 59.7991 632.172 77.048C616.365 82.8928 600.004 88.9196 583.219 95.9854C535.413 116.066 509.535 129.028 533.459 161.552C556.023 192.257 617.682 205.349 677.259 218.026C745.547 232.548 816.172 247.536 831.087 289.022C844.133 325.234 796.667 364.122 750.816 401.737C716.013 430.312 680.021 459.744 672.287 487.02C663.788 517.284 667.485 551.054 671.182 583.708C673.094 601.736 675.007 618.803 675.007 635.376Z" fill="#F3E8FF"/>
<path d="M633.065 635.558L628.815 635.22C636.932 596.93 648.66 558.068 659.964 520.479C663.618 508.322 667.273 496.19 670.8 484.111C678.109 459.017 706.622 431.299 736.793 401.945C777.417 362.434 819.444 321.597 805.336 288.009C789.188 249.511 721.325 237.171 655.757 225.248C596.265 214.467 535.074 203.323 511.277 172.852C484.081 138.094 518.926 122.274 563.035 102.246C579.777 94.6345 596.095 88.0623 611.903 81.6978C658.859 62.7605 699.398 46.3948 730.546 12.2607L734.243 13.5076C702.67 48.1872 661.663 64.7087 614.283 83.828C598.517 90.1924 582.242 96.8166 565.627 104.298C516.971 126.379 490.667 140.406 515.144 171.683C538.133 201.115 598.56 212.103 656.989 222.728C723.747 234.859 792.97 247.406 809.5 287.333C824.033 321.987 781.539 363.343 740.448 403.296C710.489 432.442 682.188 459.952 675.007 484.552C671.48 496.632 667.825 508.789 664.171 520.921C652.867 558.432 641.181 597.397 633.065 635.558Z" fill="#F3E8FF"/>
<path d="M592.483 635.689L588.234 635.065C598.135 610.361 613.433 586.747 628.221 563.888C645.218 537.599 662.811 510.426 671.989 481.722C683.633 445.354 706.835 415.61 731.481 384.021C735.136 379.319 738.833 374.566 742.572 369.708C745.844 365.448 749.669 360.876 753.706 356.018C771.723 334.535 794.117 307.778 783.919 286.477C766.199 249.433 699.866 239.354 635.7 229.613C577.483 220.781 517.311 211.663 492.962 182.36C465.171 148.954 500.526 131.783 545.23 110.066C561.802 102.013 578.078 94.9469 593.8 88.089C641.309 67.3072 682.315 49.5128 713.421 14.2617L717.161 15.4827C685.588 51.2792 642.201 70.1907 596.265 90.2191C580.585 97.0511 564.352 104.091 547.864 112.118C504.648 133.081 470.525 149.655 496.871 181.191C520.328 209.428 579.565 218.417 636.847 227.093C702.16 237.016 769.726 247.251 788.126 285.75C798.792 308.038 775.972 335.288 757.615 357.213C753.578 362.019 749.754 366.591 746.524 370.825C742.785 375.683 739.088 380.436 735.433 385.138C709.937 417.922 687.967 446.263 676.451 482.241C667.145 511.154 649.468 538.456 632.385 564.849C617.554 587.605 602.172 611.14 592.483 635.689Z" fill="#F3E8FF"/>
<path d="M554.28 635.792L550.286 634.961C563.926 610.23 585.726 587.786 606.803 566.069C632.937 539.209 659.92 511.517 670.544 479.695C684.482 438.417 704.327 406.049 728.803 367.993C731.65 363.551 735.05 358.771 738.662 353.705C754.002 332.196 773.125 305.44 762.331 285.074C743.336 249.225 678.278 241.172 615.344 233.379C558.19 226.287 499.038 218.962 474.221 190.75C445.878 158.539 482.423 139.757 524.747 118.014L526.871 116.949C543.317 108.506 559.507 100.973 575.145 93.6994C623.121 71.4109 664.382 52.1359 695.615 15.9756L699.397 17.1705C667.909 53.8763 624.098 74.3204 577.694 95.7776C562.099 103.025 545.951 110.533 529.633 118.923L527.509 120.014C485.015 141.887 451.232 159.162 477.961 189.503C501.842 216.65 559.974 223.871 616.194 230.833C680.318 238.756 746.608 246.965 766.368 284.268C777.672 305.57 758.209 332.846 742.571 354.744C738.959 359.784 735.602 364.538 732.755 368.928C708.364 406.829 688.604 439.066 674.708 480.162C663.872 512.322 636.676 540.3 610.372 567.342C589.423 589.007 567.793 611.321 554.28 635.792Z" fill="#F3E8FF"/>
<path d="M519.605 635.871L515.696 634.909C532.268 609.504 559.635 587.475 586.066 566.174C619.254 539.443 653.589 511.829 665.148 478.059C677.712 440.403 693.858 403.227 713.506 366.721C716.055 362.019 719.158 356.927 722.472 351.55C735.56 330.145 751.878 303.492 740.83 284.009C720.985 248.966 656.946 242.446 594.99 236.393C538.643 230.782 480.256 224.963 455.099 197.583C426.288 166.41 463.98 146.174 503.882 124.847L508.132 122.587C524.407 113.832 540.555 105.935 556.15 98.3241C602.469 75.672 646.238 54.1628 677.301 17.457L681.083 18.652C649.595 55.9812 605.486 77.5423 558.785 100.35C543.232 107.962 527.127 115.937 510.936 124.535L506.687 126.795C466.488 148.33 431.77 166.93 458.881 196.336C483.103 222.625 540.342 228.34 595.712 233.847C658.901 240.16 724.214 246.68 744.866 283.204C756.425 303.596 739.81 330.716 726.509 352.511C723.194 357.862 720.092 362.902 717.585 367.604C697.975 404.014 681.871 441.095 669.354 478.656C657.414 512.92 622.951 540.794 589.423 567.732C563.162 588.904 535.966 610.803 519.605 635.871Z" fill="#F3E8FF"/>
<path d="M489.563 635.896L485.653 634.883C503.926 608.36 535.499 586.435 566.01 565.238C605.359 537.884 642.499 512.036 654.44 476.915L659.114 463.095C670.163 430.182 680.616 399.113 695.957 365.811C698.294 360.745 701.226 355.264 704.455 349.497C716.311 327.312 729.952 302.166 719.243 283.047C699.908 248.212 636.167 243.068 574.338 238.081C518.501 233.587 460.709 228.937 435.298 202.232C406.189 171.657 443.329 151.187 482.636 129.496L488.373 126.327C504.563 117.365 520.668 109.208 536.221 101.311C582.965 77.7493 626.776 55.4609 657.882 18.3135L661.664 19.5084C630.133 57.0715 585.854 79.5937 538.941 103.337C523.388 111.13 507.325 119.339 491.22 128.275L485.483 131.444C447.494 152.382 411.586 172.177 438.952 200.933C463.344 226.521 520.073 231.093 574.933 235.509C637.91 240.704 703.053 245.9 723.195 282.268C734.201 302.192 720.476 327.78 708.407 350.354C705.305 356.121 702.373 361.55 699.908 366.564C684.653 399.763 674.412 430.806 663.151 463.667L658.477 477.513C646.366 513.231 607.059 540.533 569.239 566.926C538.898 587.994 507.58 609.763 489.563 635.896Z" fill="#F3E8FF"/>
<path d="M465.128 635.87L461.219 634.909C479.619 606.646 513.657 584.643 546.632 563.342C587.299 537.027 625.756 512.193 637.272 476.63C639.368 470.222 641.408 463.858 643.391 457.537C653.42 426.364 662.896 396.672 675.644 365.603C677.896 360.122 680.914 354.121 684.143 347.731C695.149 325.78 707.642 300.972 697.359 282.788C677.556 247.797 614.325 243.355 553.219 239.042C497.764 235.12 440.439 231.093 414.73 204.415C385.452 173.969 423.697 152.538 460.837 131.783L467.636 127.99C483.741 118.898 499.846 110.585 515.399 102.558C562.143 78.4513 606.081 55.7992 637.315 18.6777L641.097 19.8727C609.481 57.3578 565.117 80.2697 518.119 104.532C502.608 112.559 486.546 120.846 470.525 129.886L463.726 133.705C426.246 154.668 390.891 174.463 418.343 202.96C442.989 228.522 499.081 232.496 553.644 236.315C616.11 240.731 680.658 245.277 701.311 281.827C712.062 300.842 699.398 326.17 688.18 348.51C684.993 354.849 682.018 360.824 679.681 366.227C666.933 397.244 657.499 426.78 647.471 458.03C645.459 464.351 643.42 470.716 641.351 477.124C629.581 513.492 588.914 539.703 549.607 565.134C517.184 586.254 483.188 608.075 465.128 635.87Z" fill="#F3E8FF"/>
<path d="M445.411 633.091L441.459 632.13C459.901 603.555 494.364 581.578 527.679 560.355C568.431 534.378 606.931 509.855 618.616 474.188C622.568 462.057 626.393 449.796 630.047 437.95C637.399 414.311 644.963 389.866 654.226 365.604C656.351 359.967 659.326 353.81 662.428 347.29C672.626 325.936 684.142 301.778 674.114 283.957C654.736 249.485 592.823 244.186 532.948 239.043C478.726 234.393 422.464 229.587 397.222 203.272C368.071 173.06 404.574 152.513 443.243 130.744L449.192 127.211C464.788 118.378 480.341 110.274 495.384 102.428C541.32 78.4515 584.621 55.8253 616.024 19.1455L619.764 20.3664C588.233 57.5658 544.507 80.4517 498.273 104.507C483.273 112.3 467.762 120.431 452.21 129.237L446.133 132.666C408.738 153.681 373.468 173.528 400.919 201.947C425.268 227.171 480.341 231.899 533.543 236.471C594.692 241.666 657.881 247.147 678.023 283.1C688.477 301.7 676.748 326.3 666.38 348.043C663.278 354.563 660.346 360.694 658.221 366.227C649 390.438 641.223 414.83 634.084 438.444C630.43 450.315 626.648 462.577 622.653 474.812C610.713 511.18 570.003 537.157 530.611 562.251C497.721 583.189 463.555 604.958 445.411 633.091Z" fill="#F3E8FF"/>
<path d="M428.371 625.427L424.461 624.466C443.031 595.891 478.046 574.33 511.872 553.444C553.261 527.909 592.355 503.776 603.829 468.109C607.526 456.497 614.027 441.456 620.826 425.532C641.394 377.89 666.975 318.584 649.382 286.372C630.94 252.602 571.661 245.822 514.294 239.276C462.409 233.353 408.738 227.222 384.389 201.219C356.003 170.878 391.996 150.408 430.07 128.717L434.575 126.119C449.49 117.599 464.321 109.779 478.556 102.246C522.878 78.8665 564.734 56.7859 595.033 20.8594L598.815 22.0543C568.134 58.4224 525.98 80.6589 481.361 104.22C467.083 111.728 452.337 119.521 437.507 128.015L432.96 130.613C394.715 152.46 361.358 171.345 388.086 199.92C411.458 224.858 464.151 230.885 515.101 236.704C573.615 243.38 634.085 250.29 653.419 285.515C671.394 318.48 645.643 378.202 624.948 426.182C618.064 442.054 611.605 457.043 607.951 468.577C596.265 504.945 554.876 530.558 514.846 555.263C481.361 575.992 446.643 597.398 428.371 625.427Z" fill="#F3E8FF"/>
<path d="M413.541 613.789L409.631 612.776C429.136 584.825 464.109 563.42 497.891 542.638C542.213 515.544 584.069 489.93 593.248 451.016C596.053 439.222 601.747 423.818 607.696 407.53C622.527 367.136 641.011 316.87 628.136 288.035C613.773 255.901 554.748 245.874 497.679 236.081C454.845 228.781 410.566 221.248 386.004 204.311C344.785 175.891 371.769 155.266 414.348 129.184C431.771 118.534 449.193 109.13 466.063 100.012C506.943 77.9834 545.57 57.1497 574.168 23.2754L577.95 24.4703C548.969 58.7862 509.96 79.7498 468.868 101.96C452.083 111.052 434.873 120.43 417.323 131.029C375.126 157.006 350.352 175.814 389.192 202.596C412.903 218.962 456.587 226.391 498.826 233.587C557.043 243.484 617.257 253.719 632.215 287.282C645.388 316.74 626.776 367.344 611.818 408.024C605.869 424.26 600.217 439.612 597.455 451.328C588.064 491.073 543.785 518.193 500.908 544.404C467.381 565.082 432.705 586.305 413.541 613.789Z" fill="#F3E8FF"/>
<path d="M400.368 599.112L396.458 598.073C415.963 571.161 451.7 550.509 486.376 530.532C532.609 503.854 576.251 478.578 583.687 440.106C585.344 431.299 587.937 420.597 590.911 409.271C600.685 370.305 612.923 321.598 600.727 292.555C587.469 260.889 533.799 248.758 481.744 237.016C442.437 228.106 401.812 218.832 378.866 201.271C340.621 171.891 367.01 151.213 405.382 127.236C421.657 117.053 437.847 108.195 453.528 99.5964C491.39 78.8146 527.127 59.2018 553.176 26.6523L557.001 27.7953C530.697 60.7604 494.662 80.4511 456.502 101.493C440.864 110.065 424.759 118.923 408.569 129.029C371.684 152.07 346.315 171.917 382.35 199.635C404.532 216.728 444.604 225.768 483.359 234.548C536.306 246.523 591.039 258.889 604.849 291.88C617.215 321.442 604.849 370.331 595.076 409.634C592.271 420.934 589.594 431.637 587.894 440.391C580.288 479.877 534.181 506.477 489.308 532.455C455.015 552.223 419.447 572.693 400.368 599.112Z" fill="#F3E8FF"/>
<path d="M388.299 582.33L384.517 581.213C405.296 555.002 441.246 535.39 476.049 516.426C519.86 492.553 561.037 469.979 573.785 435.637C584.876 405.374 584.281 329.13 569.026 298.322C553.77 267.513 507.749 253.797 463.173 240.522C423.399 228.651 382.434 216.389 362.25 192.153C342.065 167.916 367.052 146.069 390.721 129.444C408.589 117.134 427.737 105.541 448.045 94.7381C480.426 76.8918 508.387 61.4613 532.523 30.2627L536.348 31.3537C511.871 63.0459 483.613 78.6323 450.892 96.6864C430.712 107.403 411.691 118.909 393.95 131.132C371.173 147.16 347.207 168.461 366.074 190.88C385.494 214.259 425.948 226.417 465.085 238.106C510.469 251.64 557.425 265.642 573.148 297.49C588.531 328.663 589.126 405.581 577.992 436.131C565.244 471.304 523.26 494.112 478.896 518.297C444.391 537.182 408.738 556.613 388.299 582.33Z" fill="#F3E8FF"/>
<path d="M376.952 564.381L373.17 563.16C401.216 531.104 426.755 515.57 473.371 492.866L486.885 486.345C531.758 464.784 561.377 450.549 567.411 415.22C572.298 386.645 556.49 332.43 543.742 303.024C530.271 272.085 491.346 256.551 450.255 240.082C419.659 227.846 388.043 215.221 368.369 195.738C335.521 163.267 367.731 141.368 401.854 118.196L404.404 116.456C417.152 107.78 428.625 100.87 439.716 94.0376C468.145 76.7108 490.709 63.0208 511.956 34.29L515.823 35.3551C494.236 64.6574 471.544 78.5032 442.776 96.0119C431.727 102.74 420.296 109.702 407.676 118.3L405.083 120.067C370.621 143.446 340.875 163.683 372.066 194.517C391.23 213.481 422.464 225.976 452.804 238.029C492.876 254.031 534.308 270.605 548.161 302.505C560.909 332.093 576.929 386.749 572 415.61C565.754 451.978 535.54 466.551 489.817 488.502L476.346 495.022C429.857 517.362 404.616 532.741 376.952 564.381Z" fill="#F3E8FF"/>
<path d="M365.692 546.145L361.995 544.872C391.061 513.284 416.09 498.893 464.788 476.604C470.27 474.006 475.794 471.642 481.191 469.253C522.665 450.783 558.488 434.859 559.848 402.231C560.613 384.411 545.697 360.668 532.566 339.548C525.512 328.274 518.883 317.65 514.889 308.558C501.801 278.814 469.463 260.993 435.17 242.16C408.824 227.665 381.585 212.676 364.417 191.842C333.184 153.993 382.095 121.002 429.348 89.1021C455.312 71.5934 479.831 55.0459 490.965 38.1348L494.917 39.0959C483.486 56.4487 458.754 73.1521 432.493 90.8425C386.174 122.015 338.284 154.435 368.199 190.673C384.985 211.065 411.968 225.898 438.017 240.212C471.247 258.396 505.583 277.385 518.756 307.882C522.708 316.844 529.294 327.417 536.306 338.613C549.607 359.863 564.65 383.969 563.885 402.309C562.482 436.08 525.852 452.497 483.486 471.357C478.089 473.747 472.607 476.163 467.126 478.682C419.15 500.737 394.418 514.972 365.692 546.145Z" fill="#F3E8FF"/>
<path d="M354.09 528.61L350.479 527.233C384.729 493.463 414.56 479.435 464.363 457.615C468.612 455.718 473.414 453.718 478.471 451.614C510.851 438.106 555.172 419.636 555.597 395.087C555.852 379.735 536.433 362.356 517.65 345.549C504.392 333.677 491.856 322.481 486.29 312.22C473.541 288.685 448.045 268.267 423.568 248.55C397.137 227.327 369.813 205.376 358.85 179.762C343.382 143.394 377.93 118.716 414.56 92.4788C436.232 76.8925 458.668 60.8126 470.184 41.9531L474.179 42.8623C462.408 62.1374 439.716 78.4251 417.789 94.1673C381.924 119.885 348.056 144.173 362.972 179.113C373.723 204.207 399.559 224.989 426.968 246.965C451.742 266.864 477.323 287.464 490.326 311.389C495.723 321.312 508.047 332.378 521.135 344.068C540.3 361.213 560.102 378.956 559.847 395.113C559.379 421.091 513.996 439.95 480.893 453.744C475.836 455.848 471.077 457.848 466.827 459.719C417.492 481.332 387.916 495.203 354.09 528.61Z" fill="#F3E8FF"/>
<path d="M341.725 512.478L337.858 511.413C349.931 494.84 367.389 479.941 389.173 467.62C410.957 455.299 436.61 445.815 464.576 439.742C516.036 428.624 543.19 407.167 545.314 375.916C540.045 363.213 522.708 355.836 504.35 347.991C485.993 340.146 467.763 332.404 458.414 318.818V318.403C455.712 291.461 439.092 265.738 410.948 244.939C380.993 221.947 359.146 195.413 346.782 167.008C341.64 136.484 371.301 114.17 399.985 92.5828C419.447 78.0096 439.462 62.9688 449.193 45.4082L453.442 46.2654C443.244 64.2676 423.059 79.4643 403.512 94.1674C374.063 116.326 346.23 137.238 351.159 166.488C363.387 194.485 384.943 220.636 414.475 243.303C442.991 264.484 459.828 290.632 462.579 318.013C471.502 330.794 489.477 338.457 506.857 345.861C525.98 354.017 544.04 361.707 549.606 375.475V375.656V375.838C547.439 408.362 519.308 430.676 465.978 442.184C438.563 448.15 413.414 457.456 392.056 469.539C370.698 481.622 353.575 496.23 341.725 512.478V512.478Z" fill="#F3E8FF"/>
<path d="M327.872 499.074L324.048 497.957C350.394 464.005 393.781 440.495 452.975 428.052C505.073 417.869 532.609 396.879 534.861 365.707C527.467 352.978 508.685 349.757 488.797 346.328C467.975 342.743 444.391 338.665 431.685 322.948L431.43 322.429C430.074 295.161 416.874 268.604 393.186 245.484C367.932 220.188 350.14 192.377 340.621 163.318C337.136 134.172 360.635 114.793 385.537 94.2709C402.322 80.425 419.532 66.0856 428.456 48.3691L432.705 49.1225C423.739 67.3065 406.146 81.7758 389.106 95.8815C364.715 115.988 341.64 135.003 344.997 163.007C354.407 191.678 371.937 219.124 396.798 244.107C420.832 267.518 434.252 294.414 435.68 322.039C447.621 336.612 469.123 340.223 489.945 343.886C510.767 347.549 530.994 350.978 539.025 365.161V365.395V365.655C536.816 398.1 508.302 419.921 454.25 430.598C396.288 442.703 353.751 465.771 327.872 499.074Z" fill="#F3E8FF"/>
<path d="M312.065 489.125L308.325 487.93C338.793 452.393 386.514 428.027 450.085 415.558C506.135 404.829 528.105 384.385 517.269 353.212C495.062 346.031 469.269 344.178 444.944 348.017H444.604H444.264C429.858 347.394 419.532 344.744 413.541 340.094C407.549 335.444 406.147 329.573 408.229 321.91C404.887 301.664 397.053 281.791 384.942 262.838C363.493 233.418 346.109 202.953 332.972 171.762C325.493 137.991 346.952 117.755 369.687 96.2718C383.965 82.7897 398.753 68.8139 407.464 50.6299L411.713 51.3573C402.79 69.905 387.874 84.0366 373.469 97.7006C351.159 118.768 330.125 138.667 337.349 171.268C350.423 202.283 367.722 232.574 389.064 261.825C401.378 281.077 409.341 301.265 412.733 321.832V322.04C410.778 329.132 412.266 334.639 416.983 338.431C421.699 342.224 431.346 344.77 444.349 345.367C469.952 341.446 497.032 343.56 520.201 351.29L521.051 351.576V352.147C532.779 384.723 509.237 406.881 451.19 418.026C388.894 430.287 342.023 454.212 312.065 489.125Z" fill="#F3E8FF"/>
<path d="M293.877 483.54L290.138 482.345C320.776 446.704 368.837 422.598 433.045 410.856C489.477 400.465 511.744 380.099 501.036 348.744C476.095 342.644 448.319 342.477 423.187 348.277H422.549C407.166 348.589 396.203 346.51 389.871 342.068C383.54 337.626 382.095 331.677 384.305 323.676C380.557 303.26 373.541 283.117 363.355 263.539C345.191 232.911 330.245 201.606 318.609 169.813C312.32 136.926 331.654 117.158 352.094 96.2459C364.842 83.0754 378.228 69.4893 386.429 51.6689L390.679 52.3703C382.18 70.5544 368.837 84.2703 355.876 97.5707C335.776 118.093 316.824 137.498 322.943 169.398C334.554 201.044 349.428 232.21 367.477 262.708C377.793 282.523 384.91 302.909 388.724 323.572V323.936C386.642 331.288 388.172 336.925 393.228 340.354C398.285 343.783 408.399 345.939 422.252 345.549C448.643 339.514 477.793 339.811 503.84 346.38L504.903 346.64L505.158 347.316C516.801 380.151 493.047 402.283 434.448 413.116C371.174 424.936 323.963 448.549 293.877 483.54Z" fill="#F3E8FF"/>
<path d="M273.608 482.942L269.868 481.747C300.336 446.262 348.142 422.337 411.926 410.647C467.763 400.257 490.2 379.787 480.384 348.458C454.919 342.469 426.725 342.469 401.26 348.458H400.622C385.197 348.848 374.149 346.821 367.69 342.405C361.23 337.989 359.616 332.014 361.655 323.987C357.164 303.622 350.276 283.48 341.046 263.72C325.153 232.963 311.3 201.375 300.251 169.813C294.26 137.107 313 116.637 332.717 94.9464C344.53 81.9578 356.726 68.7094 364.842 51.8242L369.092 52.5775C360.593 69.7225 348.525 83.1787 336.626 96.2193C317.164 117.521 298.807 137.627 304.586 169.397C315.719 200.726 329.402 232.262 345.295 262.915C354.603 282.872 361.547 303.213 366.075 323.78V324.143C364.163 331.521 365.82 337.132 371.004 340.613C376.188 344.094 386.344 346.146 400.283 345.808C427.033 339.593 456.63 339.76 483.188 346.276L484.251 346.536L484.506 347.211C495.214 380.046 471.29 402.205 413.328 413.089C350.479 424.623 303.523 448.133 273.608 482.942Z" fill="#F3E8FF"/>
<path d="M256.78 485.177L252.998 483.982C266.642 467.271 285.749 452.45 309.139 440.435C332.529 428.42 359.702 419.467 388.979 414.129C442.394 403.348 463.939 383.268 454.845 352.719C430.74 345.579 403.266 343.912 377.336 348.017H377.038H376.953C362.038 347.705 351.457 345.185 344.87 340.562C338.284 335.938 336.711 330.171 338.411 322.144C333.269 302.297 326.895 282.269 319.544 262.656C306.456 232.574 294.897 201.791 285.209 171.216C279.982 139.238 296.767 116.664 314.487 92.4792C325.062 78.9731 333.885 64.9804 340.876 50.6299L345.125 51.3313C338.111 65.8129 329.216 79.9288 318.524 93.5442C301.016 117.261 284.529 139.68 289.585 170.826C299.232 201.246 310.832 231.977 323.836 262.032C331.272 281.801 337.646 301.959 342.831 321.936V322.3C341.258 329.521 343.086 335.106 348.27 338.873C353.454 342.64 363.483 345.108 376.953 345.419C404.018 341.202 432.658 343.044 457.692 350.615L458.669 350.9V351.55C468.613 383.502 445.581 405.375 390.169 416.493C361.427 421.748 334.756 430.555 311.811 442.37C288.866 454.185 270.135 468.755 256.78 485.177V485.177Z" fill="#F3E8FF"/>
<path d="M243.819 489.358L239.994 488.241C251.949 472.229 269.263 457.926 290.818 446.257C312.374 434.588 337.692 425.811 365.139 420.493C415.24 409.167 435.042 389.32 425.693 359.81C403.616 350.858 377.202 346.78 350.819 348.25H350.266C322.688 345.341 310.237 335.781 313.254 319.909C287.502 287.671 279.981 225.482 275.009 184.282C274.584 180.515 274.117 176.93 273.692 173.579C269.782 142.407 282.616 116.429 296.171 88.8936C302.503 76.0349 308.92 62.7605 313.891 48.7588L318.141 49.2783C313.254 63.3839 306.71 76.7362 300.336 89.6469C286.865 116.975 274.159 142.77 278.026 173.371C278.451 176.723 278.876 180.307 279.344 184.1C284.358 225.248 291.879 287.411 317.588 319.182L317.843 319.519V319.909C314.869 334.56 325.747 343.003 351.031 345.886C378.573 344.391 406.118 348.729 429.05 358.173L429.815 358.459V358.979C439.929 389.814 418.682 411.401 366.711 423.194C339.801 428.36 314.961 436.917 293.793 448.313C272.626 459.71 255.602 473.692 243.819 489.358V489.358Z" fill="#F3E8FF"/>
<path d="M233.961 495.073L230.009 494.086C239.614 478.975 254.512 465.331 273.657 454.112C292.802 442.893 315.73 434.371 340.833 429.143C386.684 416.986 404.107 397.321 393.908 369.084C374.075 357.888 349.008 350.767 322.221 348.718H321.796C296.002 343.055 284.359 332.248 287.163 316.61C268.466 287.697 267.446 242.549 266.596 206.233C266.341 195.582 266.129 185.451 265.491 176.619C263.112 143.783 270.548 111.156 277.73 79.6198C280.237 68.6314 282.829 57.2794 284.996 46.0312L289.246 46.343C287.078 57.5911 284.486 68.9691 281.979 80.1134C274.968 111.364 267.361 143.887 269.741 176.567C270.378 185.477 270.591 195.556 270.846 206.259C271.695 242.471 272.715 287.541 291.285 316.012V316.324V316.636C288.523 331.261 298.849 340.951 322.901 346.276C350.69 348.42 376.666 355.865 397.138 367.551L397.648 367.837V368.227C408.526 397.659 389.829 419.012 342.151 431.663C317.651 436.778 295.276 445.104 276.588 456.056C257.901 467.009 243.352 480.325 233.961 495.073V495.073Z" fill="#F3E8FF"/>
<path d="M226.397 501.88L222.147 501.153C227.902 487.841 238.786 475.565 253.889 465.352C268.993 455.138 287.877 447.283 308.963 442.444C347.717 431.248 366.287 412.415 364.205 386.567C358.426 369.916 337.264 361.811 314.87 353.212C291.54 344.276 267.404 335.028 258.777 315.208C246.284 286.633 250.831 250.732 255.25 216.027C257.375 199.531 259.5 183.945 259.5 169.917C259.5 150.071 258.31 129.964 257.163 110.533C255.845 88.3488 254.485 65.4109 254.91 42.7588H259.16C258.735 65.359 260.095 88.2709 261.412 110.3C262.559 129.782 263.749 149.889 263.749 169.787C263.749 183.919 261.709 199.557 259.5 216.105C255.25 250.576 250.576 286.243 262.857 314.402C271.058 333.21 294.515 342.198 317.122 350.771C339.729 359.343 362.25 368.071 368.412 385.996C370.792 413.22 351.414 432.755 310.833 444.6C290.283 449.316 271.888 456.981 257.194 466.949C242.501 476.917 231.939 488.897 226.397 501.88Z" fill="#F3E8FF"/>
<path d="M220.277 509.439L216.027 508.971C223.676 483.279 246.963 464.654 285.293 453.665C318.523 441.612 333.184 423.402 328.594 399.633C323.58 380.929 303.098 369.525 281.553 357.472C259.159 344.951 236 332.014 230.56 310.141C223.931 284.164 233.322 256.472 242.459 229.612C248.705 211.168 255.207 192.101 256.099 174.203C257.459 146.953 248.153 120.3 239.102 94.5305C232.117 76.2527 226.868 57.7434 223.379 39.0951L227.628 38.8613C231.082 57.4062 236.304 75.812 243.266 93.985C252.317 119.962 261.666 146.719 260.264 174.281C259.329 192.465 252.827 211.584 246.538 230.158C237.487 256.758 228.138 284.242 234.682 309.7C240.037 330.689 262.643 343.314 284.528 355.524C305.775 367.369 327.617 379.604 332.886 399.243C337.688 424.207 322.348 443.249 287.375 455.925C269.715 460.661 254.301 468.051 242.569 477.408C230.838 486.764 223.169 497.783 220.277 509.439V509.439Z" fill="#F3E8FF"/>
<path d="M214.668 517.647L210.631 516.842C218.62 501.593 235.192 488.579 251.255 476.006C275.859 456.679 299.103 438.417 292.602 413.219C287.417 393.035 267.573 377.838 248.365 363.135C226.693 346.535 204.299 329.365 202.004 304.868C199.71 280.372 214.073 257.486 227.926 235.327C239.357 217.143 251.17 198.206 253.422 178.697C257.034 148.563 238.464 118.949 220.489 90.5041C209.186 72.5019 197.457 53.8762 191.466 35.3285L195.715 34.835C201.622 53.019 213.265 71.6706 224.526 89.5689C242.671 118.378 261.411 148.174 257.714 178.905C255.334 198.777 243.436 217.87 231.878 236.262C218.195 258.161 204.002 280.839 206.381 304.712C208.761 328.585 230.603 345.237 251.85 361.498C271.397 376.461 291.624 391.944 296.979 412.803C303.778 439.144 278.876 458.679 254.782 477.59C238.762 490.008 222.444 502.84 214.668 517.647Z" fill="#F3E8FF"/>
<path d="M209.101 525.415L204.851 524.973C209.313 509.803 220.532 497.048 231.325 484.735C245.051 469.148 258.011 454.393 257.799 435.378C257.544 410.882 237.104 389.996 217.345 369.786C196.565 348.562 175.063 326.611 176.423 300.219C177.613 276.527 195.418 257.07 212.585 238.237C226.268 223.196 240.461 207.688 246.156 190.075C257.417 155.785 228.223 121.21 200.134 87.8289C184.497 69.2552 168.306 50.0581 159.893 31.5363L164.142 30.835C172.386 49.019 187.769 67.3329 204.044 86.66C232.515 120.43 262.006 155.344 250.532 190.569C244.668 208.571 230.305 224.339 216.537 239.458C198.817 258.889 182.117 277.229 180.927 300.271C179.61 325.884 200.772 347.523 221.254 368.435C241.311 388.931 262.048 410.128 262.303 435.326C262.516 454.991 248.705 470.707 235.32 485.93C224.441 498.113 213.435 510.66 209.101 525.415Z" fill="#F3E8FF"/>
<path d="M198.477 532.766C196.608 516.972 203.704 502.996 210.546 489.488C217.047 476.655 223.761 463.511 222.826 448.574C221.254 423.792 203.109 400.542 185.559 378.046C165.289 352.069 144.34 325.234 149.227 296.062C153.264 272.007 175.573 255.096 197.16 238.73C214.838 225.326 233.153 211.48 241.311 193.712C257.162 159.24 217.387 120.975 178.973 83.776C158.448 63.9554 139.028 45.2518 129.127 27.951L133.121 27.0938C142.895 44.1088 162.145 62.7085 182.542 82.3992C221.509 119.988 261.751 158.85 245.391 194.413C236.892 212.597 218.407 226.755 200.475 240.367C178.293 257.174 157.343 273.046 153.434 296.322C148.674 324.897 168.476 350.12 189.426 376.851C207.146 399.581 225.504 423.064 227.076 448.392C228.011 463.667 221.212 477.149 214.583 490.164C207.571 504.087 200.899 517.206 202.727 532.506L198.477 532.766Z" fill="#F3E8FF"/>
<path d="M189.979 539.39C188.067 525.394 187.698 511.334 188.874 497.307C190.336 481.564 189.597 465.773 186.665 450.107C182.033 430.364 168.392 409.297 153.944 386.982C132.697 354.381 110.983 320.688 118.674 290.477C124.921 265.824 153.009 251.693 180.163 238.029C199.795 228.157 220.108 217.948 231.963 203.817C260.689 169.631 204.937 122.015 155.984 80.1393C131.805 59.6692 109.241 40.4201 99.042 24.7819L102.994 23.8467C112.938 39.1732 135.417 58.3444 159.214 78.6326C209.102 121.183 265.661 169.553 235.703 205.012C223.422 219.611 202.813 229.976 182.84 240.029C155.049 254.005 128.83 267.201 122.796 290.866C115.317 320.402 136.947 353.757 157.854 386.021C172.387 408.491 186.155 429.689 190.829 449.743C193.794 465.556 194.547 481.494 193.081 497.385C191.903 511.291 192.273 525.23 194.186 539.105L189.979 539.39Z" fill="#F3E8FF"/>
<path d="M179.058 544.638C176.55 528.065 171.239 511.258 166.097 495.022C162.357 483.202 158.448 470.993 155.686 458.914C151.436 439.768 138.688 417.948 125.94 394.828C104.693 357.343 82.511 318.585 92.8371 287.022C101.336 261.357 132.866 249.2 163.462 237.432C185.559 228.937 208.378 220.183 222.402 206.259C250.108 179.035 221.084 155.734 193.038 133.185C189.086 129.99 185.134 126.847 181.437 123.704C170.346 114.378 159.68 105.935 149.354 97.7265C119.353 74.0353 93.432 53.5653 71.0801 22.1069L74.9896 21.0938C97.129 52.2664 122.88 72.5806 152.711 96.1419C163.037 104.325 173.746 112.793 184.879 122.119C188.576 125.21 192.486 128.354 196.438 131.523C224.016 153.681 255.249 178.801 226.184 207.558C211.651 221.872 188.406 230.808 165.927 239.432C134.694 251.434 105.203 262.812 97.1715 287.36C87.1004 318.221 108.942 356.641 130.104 393.867C143.32 417.116 155.601 439.041 160.233 458.446C162.995 470.448 166.862 482.657 170.601 494.424C176.308 510.905 180.648 527.552 183.604 544.301L179.058 544.638Z" fill="#F3E8FF"/>
<path d="M164.78 548.171C163.463 532.766 155.049 518.817 146.125 504.01C138.689 491.644 130.955 478.838 127.725 465.044C123.476 446.496 112.045 424.545 99.9766 401.296C78.7296 359.992 56.4627 317.311 68.2335 284.684C77.9222 257.927 112.045 247.407 145.02 237.224C169.029 229.82 193.846 222.183 209.356 208.311C239.442 181.295 206.764 156.642 177.911 134.925C173.236 131.418 168.86 128.093 164.738 124.794C152.329 114.871 140.388 105.987 128.873 97.3883C96.7045 73.4633 68.9559 52.8114 44.9893 20.4957L48.8562 19.4307C72.5679 51.4086 100.189 71.9566 132.145 95.7517C143.703 104.35 155.686 113.26 168.095 123.21C172.344 126.483 176.593 129.782 181.183 133.289C210.929 155.733 244.924 181.165 212.841 209.766C196.736 224.209 171.452 232.002 146.975 239.536C113.362 249.926 81.6192 259.668 72.398 285.255C60.8396 317.181 82.809 359.524 104.014 400.49C116.124 423.87 127.555 445.925 131.932 464.68C135.077 478.214 142.726 490.891 150.12 503.152C158.618 517.44 167.67 532.221 169.03 548.015L164.78 548.171Z" fill="#F3E8FF"/>
<path d="M150.63 549.573H146.38C146.38 539.001 140.728 532.818 134.609 526.194C131.386 522.855 128.546 519.383 126.111 515.803C115.02 498.71 108.9 489.306 103.589 468.031C99.0843 450.055 88.5882 428.571 77.4548 405.815C57.1426 364.252 34.1533 317.493 45.8392 283.722C55.6128 255.719 91.0529 246.289 125.346 237.171C150.46 230.495 176.339 223.611 192.656 209.454C223.634 182.489 189.554 157.499 159.468 135.341C154.752 131.86 150.247 128.587 146.125 125.339C132.825 114.949 119.991 105.727 107.626 96.7645C74.6077 73.0732 46.1366 52.6032 22 19.6901L25.8669 18.625C49.7486 51.2004 78.0497 71.5406 110.855 95.0759C123.263 104.012 136.097 113.26 149.482 123.651C153.732 126.846 157.981 130.119 162.74 133.574C192.231 155.265 228.946 182.255 196.141 210.83C179.143 225.585 152.712 232.651 127.045 239.405C92.2002 248.679 59.3098 257.408 50.0036 284.112C38.5302 317.077 61.392 363.706 81.5342 404.854C92.7102 427.688 103.249 449.249 107.796 467.407C113.065 488.397 118.717 497.151 130.062 514.608C132.49 518.115 135.331 521.509 138.561 524.765C144.723 531.805 150.757 538.299 150.63 549.573Z" fill="#F3E8FF"/>
</svg>
