<svg width="1201" height="665" viewBox="0 0 1201 665" fill="none" xmlns="http://www.w3.org/2000/svg">
<rect width="1200.23" height="636.705" transform="matrix(1 -0.00097958 0.00114398 0.999999 0 1.17578)" fill="#1B0531"/>
<path d="M957.717 555.647L954.705 553.746C991.017 529.979 1007.43 529.463 1056.18 527.915L1064.02 527.67C1069.58 527.48 1074.84 527.345 1079.8 527.209C1134.19 525.688 1154.55 525.117 1165.75 490.921C1178.69 451.618 1176.44 381.133 1166.3 342.482C1158.71 313.31 1127.7 297.231 1094.86 280.2C1071.11 267.896 1046.55 255.157 1031.74 237.013C999.204 197.14 1038.57 132.685 1073.31 75.7811C1089.09 49.9775 1103.98 25.5863 1109.8 6.84473L1114.04 7.36081C1108.14 26.374 1093.21 50.8195 1077.34 76.7861C1042.94 133.12 1003.91 196.977 1035.6 235.764C1049.98 253.392 1074.2 265.967 1097.62 278.109C1129.61 294.677 1162.69 311.844 1170.58 342.02C1180.77 380.916 1183.01 451.862 1169.99 491.41C1158.07 527.67 1135.25 528.322 1080.06 529.871L1064.32 530.332L1056.47 530.577C1008.88 532.125 992.884 532.641 957.717 555.647Z" fill="#F3E8FF"/>
<path d="M941.046 558.037L938.076 556.108C974.982 532.586 990.593 531.663 1042.26 528.946L1054.18 528.349C1109.33 525.633 1127.74 524.682 1139.02 491.273C1153.28 449.906 1156.71 379.91 1146.4 341.667C1138.43 311.789 1106.49 295.682 1072.68 278.543C1047.86 265.994 1022.24 252.984 1007.01 234.188C974.855 194.532 1014.82 132.223 1050.02 77.2474C1066.99 50.8462 1082.9 25.9389 1088.8 6.62695L1093.04 7.14302C1087.1 26.7809 1071.02 51.824 1054.05 78.3338C1019.14 132.657 979.606 194.45 1010.83 232.993C1025.67 251.272 1050.96 264.093 1075.39 276.451C1108.35 293.156 1142.42 310.431 1150.69 341.232C1161.04 379.856 1157.56 450.259 1143.27 491.871C1131.09 527.181 1110.18 528.295 1054.18 531.065L1042.73 531.663C990.805 534.487 976.849 535.221 941.046 558.037Z" fill="#F3E8FF"/>
<path d="M931.162 563.795L928.022 561.948C960.856 538.834 974.473 536.769 1021.35 532.505H1022.75C1082.65 527.073 1095.16 525.905 1107.34 492.577C1124.01 447.19 1139.7 380.046 1129.27 340.227C1121.16 309.236 1086.85 292.423 1050.32 274.604C1023.68 261.594 996.15 248.149 980.073 228.674C947.579 189.235 989.66 129.479 1026.74 76.7586C1045.15 50.629 1062.5 25.9662 1068.86 6.49121L1073.1 7.03445C1066.65 26.8082 1049.18 51.6068 1030.68 77.8722C993.944 130.023 952.287 189.235 984.018 227.397C999.629 246.411 1026.78 259.611 1053.04 272.459C1088.54 289.788 1125.15 307.769 1133.64 339.793C1144.2 379.992 1128.38 447.57 1111.66 493.202C1098.94 528.349 1084.34 529.653 1023.51 535.194H1022.11C975.322 539.431 963.105 541.278 931.162 563.795Z" fill="#F3E8FF"/>
<path d="M926.962 571.971L923.017 570.939C937.737 547.661 967.728 541.577 996.659 535.629C1026.35 529.626 1054.22 523.949 1068.35 501.378C1077.05 487.498 1080.74 470.169 1084.26 453.383C1086.44 441.377 1089.7 429.461 1094.01 417.693C1095.67 413.618 1097.49 409.544 1099.32 405.253C1109.03 383.034 1119.04 360.055 1112.26 338.055C1102.41 306.167 1065.13 288.294 1025.67 269.363C992.629 253.527 958.48 237.149 942.827 211.888C918.478 172.504 959.286 124.292 998.738 77.6552C1020.75 51.6343 1041.58 27.0258 1049.13 5.8125L1053.38 6.41006C1045.66 28.1394 1024.74 52.7479 1002.47 78.959C963.486 125.134 923.186 172.694 946.772 210.883C961.959 235.329 995.641 251.626 1028.22 267.19C1066.4 285.578 1106.27 304.618 1116.41 337.511C1123.41 360.164 1113.23 383.469 1103.43 405.986C1101.61 410.169 1099.78 414.297 1098.13 418.372C1093.85 430.012 1090.64 441.802 1088.5 453.682C1084.89 470.604 1081.2 488.123 1072.3 502.301C1057.41 526.068 1027.2 532.179 997.974 538.155C968.746 544.13 940.918 549.861 926.962 571.971Z" fill="#F3E8FF"/>
<path d="M926.538 582.455L922.296 581.858C929.507 561.84 946.772 555.973 966.752 549.264C974.574 546.704 982.165 543.866 989.49 540.762C1014.35 529.897 1016.43 525.905 1024.15 511.237C1025.34 509.01 1026.65 506.511 1028.18 503.714C1035.35 490.785 1040.9 476.878 1045.91 463.433C1051.55 447.724 1058.63 432.242 1067.12 417.068C1069.54 413.021 1072.13 408.919 1074.76 404.682C1089.01 381.948 1103.77 358.507 1097.11 335.039C1087.4 300.924 1045.87 281.965 1001.88 261.866C965.437 245.161 927.81 228.077 910.842 201.485C885.983 162.563 930.737 117.284 973.964 73.445C998.229 48.8093 1021.14 25.6675 1029.87 5.35059L1034.12 6.05679C1025.21 26.8898 1002.17 50.2761 977.739 75.0204C935.064 118.262 890.904 162.97 914.957 200.589C931.416 226.365 968.534 243.314 1004.46 259.72C1047.18 279.222 1091.38 299.403 1101.44 334.605C1108.31 358.779 1093.34 382.654 1078.83 405.741C1076.2 409.924 1073.61 414.053 1071.23 418.1C1062.82 433.209 1055.84 448.628 1050.32 464.275C1045.1 477.856 1039.67 491.762 1032.5 504.8C1030.98 507.516 1029.66 510.069 1028.47 512.297C1020.8 526.883 1018.21 531.772 992.163 543.18C984.728 546.355 977.008 549.249 969.043 551.844C949.021 558.309 933.325 563.659 926.538 582.455Z" fill="#F3E8FF"/>
<path d="M928.871 594.407L924.629 594.19C926.75 576.508 942.022 560.265 956.742 544.565C968.28 532.288 980.243 519.577 985.97 506.159C993.351 489.047 1009.6 467.861 1026.82 445.452C1056.52 406.53 1090.45 362.419 1082.52 331.373C1073.1 294.841 1024.53 273.627 977.57 253.093C937.44 235.547 895.91 217.43 877.585 189.671C852.132 150.884 901.171 108.892 948.767 68.3121C975.492 45.5234 1000.73 24.0113 1010.83 4.42773L1014.86 5.29691C1004.51 25.2879 979.097 46.963 952.16 69.9418C905.285 109.924 856.798 151.264 881.487 188.611C899.346 215.773 940.325 233.537 979.946 250.866C1027.67 271.699 1077 293.265 1086.72 330.911C1094.95 362.826 1060.76 407.344 1030.6 446.62C1013.63 468.92 997.338 490.079 990.084 506.865C984.145 520.636 972.098 533.511 960.39 545.951C945.246 562.166 930.907 577.377 928.871 594.407Z" fill="#F3E8FF"/>
<path d="M928.447 607.254C927.344 576.941 931.034 530.821 941.852 501.187C950.675 476.905 976.934 453.003 1004.76 427.688C1040.65 395.094 1077.73 361.25 1072.89 327.19C1067.5 289.326 1010.96 265.016 956.275 241.549C916.993 224.654 876.354 207.216 856.289 184.998C816.923 141.539 870.754 102.617 922.847 65.0519C950.76 44.9523 979.564 24.3093 991.951 3.58496L995.896 4.53563C983.169 25.6131 954.154 46.5819 926.029 66.8446C875.124 103.676 822.098 141.784 859.937 183.64C879.536 205.369 917.969 221.666 958.608 239.294C1014.14 263.115 1071.53 287.778 1077.13 326.945C1082.09 361.902 1044.55 396.072 1008.2 429.155C980.667 454.225 954.62 478.046 945.966 501.676C935.234 531.12 931.586 576.941 932.689 607.091L928.447 607.254Z" fill="#F3E8FF"/>
<path d="M936.719 620.292H932.477C932.731 602.446 923.017 585.552 913.642 569.228C901.807 548.558 889.547 527.209 897.14 503.659C906.218 475.656 942.276 449.064 977.146 423.397C1019.91 391.889 1064.11 359.295 1060.12 323.577C1055.67 284.003 992.757 257.737 931.883 232.341C886.917 213.545 844.369 195.809 823.371 172.993C781.586 127.66 839.448 93.5449 895.486 60.5434C926.411 42.2907 958.396 23.4405 973.243 2.90625L977.103 4.04705C961.747 25.043 929.465 44.0834 898.116 62.5262C840.89 96.261 786.846 128.149 826.891 171.58C847.423 193.853 889.505 211.427 934.089 230.032C995.811 255.809 1059.61 282.427 1064.19 323.36C1068.44 360.218 1023.55 393.22 980.2 425.135C945.712 450.558 909.994 476.742 901.17 504.175C893.831 526.964 905.412 547.009 917.502 568.25C927.132 584.819 936.973 601.93 936.719 620.292Z" fill="#F3E8FF"/>
<path d="M935.532 633.166C928.617 618.146 913.43 602.962 897.353 586.991C871.179 560.835 844.115 533.754 853.363 506.022C863.416 475.9 906.728 448.467 948.64 421.821C998.526 390.178 1050.15 357.475 1046.89 319.91C1044.93 297.122 1001.2 274.197 972.268 259.041L962.087 253.608C946.391 245.134 927.132 236.632 906.94 227.588C864.01 208.574 815.311 187.089 791.046 161.177C746.844 114.079 808.481 84.3367 868.04 55.5996C901.977 39.3026 937.059 22.2722 954.324 1.98242L958.057 3.28619C940.368 24.0921 904.904 41.3126 870.585 57.7726C809.839 87.0801 752.486 114.812 794.652 159.792C818.493 185.188 866.767 206.537 909.188 225.36C929.677 234.432 949.021 242.988 964.844 251.517L974.983 256.949C1004.68 272.404 1049.09 295.763 1051.34 319.774C1054.69 358.561 1002.39 391.699 951.821 423.749C910.376 449.988 867.531 477.149 857.732 506.484C848.824 533.13 875.421 559.721 901.128 585.416C917.333 601.713 932.689 616.978 939.774 632.351L935.532 633.166Z" fill="#F3E8FF"/>
<path d="M936.295 644.547C925.647 627.707 902.358 611.681 877.33 594.732C841.612 570.287 804.663 545.081 807.802 516.534C812.044 478.779 866.343 448.955 918.86 420.11C975.067 389.281 1033.14 357.393 1026.18 316.895C1018.46 271.834 950.633 246.112 885.05 221.232C827.443 199.502 767.884 176.822 747.862 141.023C728.178 105.713 740.65 93.8433 790.876 73.3362C805.681 67.3063 819.765 62.3086 833.297 57.4738C872.876 43.4312 907.067 31.3171 935.107 1.54785L938.713 2.9331C910.291 33.3271 875.633 45.6313 835.503 59.9727C821.928 64.7803 807.887 69.7509 793.082 75.7536C744.256 95.6632 732.887 106.555 751.764 140.208C771.278 175.084 830.2 197.411 887.129 218.977C953.602 244.183 1022.37 270.259 1030.3 316.759C1037.51 358.833 978.546 391.183 921.575 422.473C869.694 450.802 816.032 480.11 812.002 516.724C808.99 544.103 845.302 568.902 880.384 592.777C905.497 609.916 929.21 626.131 940.155 643.433L936.295 644.547Z" fill="#F3E8FF"/>
<path d="M933.283 654.054C909.485 622.709 886.196 610.16 853.999 592.777C843.775 587.344 832.152 581.016 819.468 573.546C796.858 560.264 767.036 540.083 768.903 518.435C772.339 478.915 832.916 448.548 891.499 419.214C953.263 388.331 1017.4 356.117 1010.49 314.043C1002.77 267.38 931.12 240.707 861.804 214.903C801.1 192.332 738.36 168.973 717.574 132.087C705.484 125.786 698.824 118.887 697.805 111.607C696.702 103.73 702.047 95.3102 714.053 86.5098L714.519 86.2654L762.964 66.3287C779.084 60.8963 794.185 56.3875 808.821 52.1774C849.969 40.2534 885.56 29.9863 915.678 0.841797L919.242 2.33569C888.402 32.2136 852.344 42.5622 810.56 54.6491C796.009 58.8592 780.865 63.2051 765.127 68.6646L717.064 88.4383C706.078 96.5868 701.029 104.301 702.005 111.363C702.938 117.963 709.259 124.319 720.713 130.213L721.179 130.43V130.811C741.414 166.963 803.688 190.159 863.925 212.567C934.174 238.697 1006.76 265.723 1014.69 313.745C1021.86 357.339 956.911 389.797 894.129 421.332C836.309 450.314 776.496 480.3 773.145 518.598C771.363 539.078 800.379 558.635 822.353 571.536C835.079 578.979 846.533 585.117 856.714 590.713C889.335 608.286 912.921 620.998 937.101 652.859L933.283 654.054Z" fill="#F3E8FF"/>
<path d="M925.35 660.926C898.243 628.087 871.221 615.077 833.891 597.123C821.589 591.202 807.675 584.52 792.616 576.48C773.187 566.131 732.717 544.538 734.669 519.848C737.893 479.105 803.009 448.358 866.173 418.67C932.35 387.489 1000.82 355.221 993.775 312.061C985.927 264.256 911.394 236.877 839.278 210.395C776.071 187.198 710.701 163.188 689.236 125.297C676.807 118.995 669.977 112.096 668.917 104.817C667.814 96.9673 673.456 88.52 685.63 79.8011L686.139 79.5023L736.62 61.1138C753.588 55.9803 769.708 52.1233 785.149 48.4021C827.57 38.2165 864.01 29.3889 895.656 0.43457L899.134 1.98279C866.725 31.6705 829.607 40.6067 786.677 50.8739C771.278 54.5679 755.37 58.3977 738.572 63.4497L688.557 81.6752C677.358 89.8237 672.183 97.4562 673.159 104.491C674.092 111.091 680.54 117.447 692.333 123.341L692.8 123.559L693.012 123.939C713.755 161.096 778.659 184.917 841.484 207.95C914.49 234.786 989.957 262.518 998.059 311.708C1005.4 356.416 935.913 389.146 868.761 420.789C806.53 450.097 742.22 480.545 739.123 519.902C737.299 543.234 776.623 564.23 795.543 574.226C810.517 582.184 824.389 588.866 836.648 594.76C873.003 612.252 901.722 626.077 929.338 659.486L925.35 660.926Z" fill="#F3E8FF"/>
<path d="M911.181 664.565C883.226 630.586 852.513 616.87 813.613 599.377C799.827 593.212 784.173 586.204 767.417 577.648C743.746 565.67 704.168 545.652 706.246 520.445C709.725 478.888 777.471 448.059 842.968 418.236C911.648 387 982.66 354.678 975.321 310.866C967.219 262.409 890.989 234.65 817.219 207.814C752.443 184.238 685.503 159.874 663.656 121.331C651.227 115.003 644.355 108.104 643.336 100.797C642.191 92.9202 647.791 84.5001 659.965 75.6725L660.559 75.3737L712.27 57.9088C730.214 52.9925 746.843 49.543 762.963 46.1749C805.808 37.2387 842.841 29.5248 874.996 0L878.475 1.54822C845.514 31.8064 807.844 39.5746 764.278 48.7281C748.243 52.069 731.699 55.5185 714.052 60.3261L662.85 77.6282C651.693 85.7767 646.518 93.4634 647.536 100.525C648.512 107.153 654.96 113.509 666.753 119.403L667.262 119.647L667.474 120.028C688.684 157.81 755.03 182.011 819.34 205.424C894.001 232.586 971.206 260.725 979.521 310.54C987.157 355.954 915.084 388.738 845.429 420.436C780.737 449.879 713.924 480.192 710.488 520.581C708.537 544.348 747.013 563.85 769.877 575.475C786.549 583.922 801.439 590.577 815.862 597.041C855.228 614.642 886.322 628.522 914.787 663.099L911.181 664.565Z" fill="#F3E8FF"/>
<path d="M889.632 665C861.677 631.374 830.837 617.277 791.81 599.432C777.514 592.886 762.751 586.15 746.292 577.702C721.221 564.828 683.382 545.353 685.249 520.663C688.43 479.051 756.261 448.141 821.843 418.236C890.523 386.946 961.535 354.596 954.366 310.757C946.391 262.165 869.864 234.704 795.797 207.923C730.978 184.618 663.784 160.173 641.895 121.739C629.55 115.41 622.763 108.484 621.702 101.15C620.557 93.2462 625.944 84.8532 638.034 75.9714L638.628 75.6726L690.594 58.1804C708.75 53.2642 725.591 49.8146 741.88 46.4737C784.937 37.6733 822.098 30.1767 854.041 0.298828L857.562 1.84704C824.77 32.3496 786.974 40.1179 743.026 49.0813C726.821 52.395 710.107 55.8174 692.121 60.6522L640.664 77.9542C629.635 86.1027 624.587 93.8166 625.605 100.906C626.581 107.56 632.986 113.943 644.694 119.919L645.203 120.163V120.517C666.414 158.326 733.099 182.364 797.579 205.587C872.579 232.586 950.081 260.508 958.269 310.513C965.692 355.9 893.662 388.738 824.007 420.49C759.23 449.988 692.248 480.518 689.194 520.826C687.412 544.131 724.276 563.062 748.583 575.611C764.915 584.031 779.635 590.767 793.888 597.34C833.382 615.376 864.561 629.636 892.983 663.832L889.632 665Z" fill="#F3E8FF"/>
<path d="M862.185 665C835.333 632.406 806.359 617.44 769.665 598.427C756.939 591.881 744.213 585.145 729.705 576.996C707.519 564.42 670.316 543.316 671.97 519.957C674.813 478.888 740.565 447.761 804.153 417.693C870.881 386.131 939.9 353.483 932.816 310.105C924.925 261.839 848.78 235.248 775.138 209.607C710.531 187.036 643.633 163.704 621.787 125.623C609.442 119.294 602.612 112.395 601.552 105.062C600.406 97.1848 605.794 88.7646 617.884 79.9099L618.435 79.6111L670.486 61.3856C688.387 56.2521 705.143 52.5309 721.391 48.9184C764.829 39.276 802.329 30.9374 834.23 1.19531L837.708 2.74353C805.044 33.1918 766.908 41.6663 722.79 51.6346C706.671 55.2199 689.999 58.9139 672.395 63.9388L620.853 82.0286C609.866 90.1771 604.776 97.891 605.836 104.953C606.897 112.015 613.218 117.963 624.926 123.966L625.392 124.211L625.604 124.591C646.815 161.911 713.076 185.053 777.216 207.461C851.792 233.509 928.955 260.481 937.058 310.16C944.396 355.058 874.402 388.168 806.699 420.192C743.916 449.907 678.97 480.627 676.255 520.391C674.728 542.582 710.913 563.144 732.547 575.421C746.843 583.569 759.824 590.224 772.38 596.743C809.414 615.973 838.726 631.13 866.003 664.158L862.185 665Z" fill="#F3E8FF"/>
<path d="M829.521 664.945C815.947 646.693 786.676 628.494 755.709 609.21C709.471 580.445 661.663 550.676 664.293 518.381C667.559 478.29 729.621 447 789.646 416.715C853.277 384.691 918.775 351.526 911.181 308.937C902.697 261.431 827.443 236.415 754.649 212.214C690.636 190.946 624.46 168.945 602.358 131.571C590.056 125.351 583.269 118.479 582.166 111.2C581.021 103.323 586.408 94.9027 598.583 85.9665L599.092 85.6677L651.269 66.2471C668.959 60.8147 685.673 56.6318 701.793 52.6662C745.698 41.8015 783.622 32.4579 815.395 2.28125L818.874 3.80231C786.38 34.6852 747.904 44.1918 703.32 55.2194C687.242 59.185 670.656 63.3679 653.263 68.8003L601.552 88.0851C590.438 96.2336 585.348 104.029 586.408 111.118C587.384 117.719 593.789 124.02 605.455 129.833L605.922 130.077V130.43C627.132 167.044 692.884 188.855 756.388 209.96C830.2 234.405 906.515 259.856 915.211 308.801C923.017 352.939 856.459 386.538 792.191 419.023C732.802 448.901 671.631 479.838 668.45 518.68C665.905 549.753 713.034 579.06 758.594 607.417C789.858 626.865 819.383 645.253 833.254 663.94L829.521 664.945Z" fill="#F3E8FF"/>
<path d="M792.828 664.837C782.096 646.992 758.892 628.331 733.948 608.585C696.151 578.463 657.082 547.335 661.154 516.398C666.202 478.073 722.834 446.62 777.599 416.198C839.618 381.757 898.201 349.245 889.675 307.552C880.173 261.105 806.106 238.154 734.457 215.935C671.208 196.324 605.838 176.035 583.482 139.584C571.265 133.472 564.477 126.709 563.374 119.484C562.144 111.58 567.616 103.024 579.961 94.0607L580.427 93.8162L632.732 72.793C650.294 66.899 666.881 62.2815 682.958 57.8269C727.415 45.4684 765.764 34.821 797.495 3.88379L801.058 5.37768C768.733 36.9939 729.791 47.8043 684.74 60.2987C668.748 64.7532 652.203 69.3435 634.938 75.1561L582.973 96.0706C571.689 104.409 566.513 112.232 567.616 119.321C568.592 125.84 574.998 132.033 586.536 137.764L587.045 137.981L587.257 138.334C608.765 174.025 673.626 194.124 736.281 213.572C809.033 236.225 884.075 259.394 893.874 307.253C902.698 350.331 840.509 384.854 780.399 418.263C726.27 448.304 670.105 479.404 665.396 516.615C661.451 546.493 699.969 577.186 737.257 606.901C762.243 626.81 785.829 645.633 796.646 663.94L792.828 664.837Z" fill="#F3E8FF"/>
<path d="M753.207 664.701C745.698 646.693 729.069 627.626 711.465 607.444C684.316 576.317 656.318 544.13 661.366 514.035C667.475 477.992 718.04 446.375 766.909 415.791C824.05 380.182 878.009 346.339 868.422 306.112C857.477 261.051 784.895 240.435 714.646 220.526C652.076 202.844 587.724 184.618 565.071 149.308C552.896 143.359 546.151 136.732 545.006 129.588C543.733 121.657 549.248 113.02 561.974 103.893L562.398 103.676L614.873 80.8604C632.223 74.423 648.809 69.2623 664.76 64.2917C709.81 50.2219 748.71 38.1078 780.187 6.11133L783.75 7.57806C751.637 40.1721 712.228 52.5035 666.626 66.7363C650.718 71.7069 634.217 76.8404 617.121 83.0333L564.986 105.713C553.448 114.188 548.018 122.01 549.333 129.208C550.351 135.646 556.714 141.73 568.21 147.271L568.677 147.488L568.889 147.841C590.693 182.445 654.536 200.562 716.301 218.054C787.568 238.29 861.253 259.177 872.537 305.705C882.633 347.344 825.365 383.143 770.005 417.774C721.646 448.005 671.674 479.268 665.693 514.361C660.73 543.614 688.473 575.394 715.283 606.141C733.015 626.485 749.813 645.715 757.449 664.022L753.207 664.701Z" fill="#F3E8FF"/>
<path d="M711.804 664.538C707.986 646.475 698.696 627.326 688.897 607.036C673.286 574.768 657.124 541.414 663.657 511.454C670.868 478.48 714.562 446.918 756.643 416.388C806.488 380.318 857.986 343.052 846.83 304.482C834.103 261.024 763.176 242.934 694.539 225.469C633.029 209.851 569.483 193.69 546.66 159.276C521.929 122.01 548.357 109.027 597.226 89.2529C614.194 82.3538 630.738 76.6227 646.646 71.0817C692.333 55.1649 731.742 41.4211 763.049 8.22949L766.697 9.6419C734.796 43.3767 694.879 57.3378 648.682 73.4176C632.817 78.8499 616.443 84.6897 599.474 91.5344C547.297 112.639 528.25 124.59 550.563 158.189C572.876 191.788 635.405 207.515 696.066 222.916C765.806 240.652 837.921 258.986 850.987 303.966C862.525 343.812 810.305 381.594 759.825 418.045C718.083 448.303 674.983 479.567 667.856 511.726C661.451 541.088 677.444 574.198 692.927 606.14C702.811 626.511 712.144 645.769 716.004 664.076L711.804 664.538Z" fill="#F3E8FF"/>
<path d="M673.88 664.348H669.638C669.638 647.101 667.729 629.337 665.692 610.487C662.002 576.209 658.184 540.735 666.88 508.766C674.77 479.594 710.998 448.494 746.037 418.426C791.258 379.585 838.006 339.44 825.407 302.772C811.026 260.888 741.668 245.46 674.643 230.522C614.279 217.104 551.878 203.197 528.589 170.032C503.348 134.125 531.558 119.322 579.706 98.1082C596.674 90.6931 612.963 84.3644 628.786 78.253C675.067 60.3806 715.07 44.9799 746.25 10.5117L749.898 11.8698C718.167 46.9356 677.782 62.5264 631.12 80.5618C615.339 86.6732 599.007 92.9747 582.251 100.363C534.527 121.359 508.693 134.912 532.576 168.919C555.102 201.024 616.654 214.713 676.128 227.968C744.298 243.152 814.801 258.824 829.691 302.201C842.714 340.065 795.33 380.726 749.558 420.056C714.816 449.934 678.885 480.708 671.165 509.228C662.681 540.871 666.371 576.181 670.062 610.324C671.971 629.174 673.88 647.019 673.88 664.348Z" fill="#F3E8FF"/>
<path d="M632.01 664.538L627.768 664.185C635.87 624.149 647.579 583.515 658.862 544.212C662.511 531.5 666.159 518.816 669.68 506.186C676.976 479.947 705.44 450.966 735.559 420.273C776.113 378.96 818.068 336.262 803.984 301.142C787.864 260.888 720.118 247.986 654.663 235.519C595.274 224.247 534.188 212.595 510.432 180.734C483.283 144.392 518.068 127.85 562.101 106.908C578.814 98.9501 595.104 92.0782 610.885 85.4236C657.759 65.6227 698.229 48.5108 729.323 12.8203L733.014 14.1241C701.495 50.385 660.559 67.6598 613.26 87.6508C597.522 94.3054 581.275 101.232 564.688 109.054C516.117 132.142 489.858 146.809 514.293 179.512C537.242 210.286 597.564 221.775 655.893 232.884C722.536 245.569 791.639 258.688 808.141 300.436C822.649 336.669 780.228 379.911 739.207 421.685C709.301 452.161 681.049 480.925 673.879 506.647C670.359 519.278 666.71 531.989 663.062 544.674C651.778 583.895 640.112 624.638 632.01 664.538Z" fill="#F3E8FF"/>
<path d="M591.498 664.675L587.256 664.023C597.14 638.192 612.412 613.502 627.174 589.6C644.143 562.112 661.705 533.701 670.868 503.687C682.491 465.661 705.653 434.561 730.257 401.532C733.905 396.616 737.596 391.645 741.329 386.566C744.595 382.111 748.413 377.331 752.443 372.252C770.429 349.789 792.785 321.812 782.604 299.54C764.914 260.807 698.696 250.268 634.64 240.083C576.524 230.848 516.456 221.314 492.149 190.676C464.406 155.746 499.7 137.792 544.327 115.084C560.871 106.664 577.118 99.2764 592.813 92.1057C640.24 70.3763 681.176 51.7705 712.228 14.9121L715.961 16.1887C684.442 53.6175 641.131 73.3913 595.274 94.333C579.621 101.476 563.416 108.837 546.957 117.23C503.815 139.15 469.751 156.479 496.052 189.453C519.468 218.978 578.603 228.376 635.786 237.448C700.986 247.824 768.435 258.525 786.804 298.779C797.451 322.084 774.671 350.576 756.345 373.501C752.315 378.526 748.498 383.306 745.274 387.734C741.541 392.813 737.85 397.784 734.202 402.7C708.749 436.978 686.818 466.611 675.322 504.23C666.032 534.461 648.385 563.008 631.331 590.605C616.527 614.398 601.17 639.007 591.498 664.675Z" fill="#F3E8FF"/>
<path d="M553.362 664.782L549.374 663.913C562.991 638.055 584.753 614.588 605.794 591.88C631.883 563.795 658.82 534.841 669.425 501.568C683.339 458.408 703.15 424.564 727.584 384.772C730.426 380.128 733.82 375.13 737.426 369.833C752.74 347.344 771.829 319.367 761.054 298.072C742.092 260.589 677.146 252.169 614.321 244.02C557.265 236.605 498.215 228.946 473.441 199.448C445.147 165.768 481.628 146.13 523.88 123.395L526.001 122.282C542.417 113.454 558.58 105.577 574.191 97.9719C622.084 74.6672 663.274 54.5132 694.453 16.7041L698.229 17.9535C666.795 56.333 623.059 77.7093 576.736 100.145C561.167 107.723 545.047 115.573 528.758 124.346L526.637 125.487C484.216 148.357 450.492 166.419 477.174 198.144C501.015 226.528 559.046 234.079 615.169 241.359C679.182 249.643 745.358 258.226 765.084 297.23C776.368 319.503 756.939 348.023 741.328 370.92C737.723 376.189 734.371 381.16 731.529 385.75C707.18 425.379 687.454 459.087 673.582 502.057C662.765 535.683 635.616 564.936 609.357 593.211C588.444 615.864 566.852 639.196 553.362 664.782Z" fill="#F3E8FF"/>
<path d="M518.747 664.864L514.844 663.86C531.388 637.295 558.707 614.262 585.093 591.99C618.224 564.04 652.5 535.167 664.038 499.857C676.58 460.484 692.699 421.613 712.313 383.442C714.858 378.526 717.955 373.202 721.264 367.58C734.329 345.198 750.619 317.33 739.589 296.959C719.779 260.318 655.851 253.5 594.001 247.172C537.751 241.305 479.465 235.221 454.352 206.592C425.591 173.998 463.218 152.839 503.051 130.539L507.293 128.176C523.54 119.023 539.66 110.766 555.229 102.807C601.467 79.1223 645.161 56.6324 676.17 18.2529L679.946 19.5024C648.512 58.5337 604.479 81.078 557.859 104.926C542.333 112.884 526.255 121.223 510.093 130.213L505.851 132.577C465.721 155.094 431.063 174.541 458.128 205.288C482.308 232.776 539.448 238.752 594.723 244.51C657.802 251.11 723.003 257.928 743.619 296.117C755.158 317.439 738.571 345.796 725.294 368.585C721.985 374.18 718.888 379.449 716.385 384.366C696.809 422.436 680.732 461.208 668.238 500.482C656.317 536.308 621.914 565.453 588.444 593.619C562.228 615.756 535.079 638.653 518.747 664.864Z" fill="#F3E8FF"/>
<path d="M488.756 664.891L484.853 663.831C503.094 636.099 534.613 613.175 565.071 591.011C604.352 562.41 641.428 535.384 653.348 498.661L658.015 484.211C669.044 449.797 679.48 417.312 694.793 382.491C697.127 377.194 700.054 371.463 703.278 365.433C715.113 342.237 728.73 315.944 718.04 295.953C698.739 259.53 635.107 254.151 573.385 248.936C517.644 244.237 459.952 239.376 434.584 211.453C405.526 179.484 442.602 158.081 481.841 135.401L487.568 132.087C503.73 122.716 519.808 114.187 535.334 105.93C581.997 81.2944 625.732 57.9897 656.784 19.1484L660.56 20.3979C629.084 59.6737 584.881 83.2229 538.049 108.049C522.523 116.197 506.488 124.78 490.41 134.124L484.683 137.438C446.759 159.33 410.914 180.027 438.233 210.095C462.582 236.849 519.214 241.63 573.979 246.247C636.847 251.68 701.878 257.112 721.985 295.139C732.972 315.972 719.27 342.726 707.223 366.329C704.126 372.359 701.199 378.036 698.739 383.278C683.51 417.991 673.286 450.449 662.045 484.809L657.378 499.286C645.288 536.633 606.049 565.18 568.295 592.776C538.006 614.805 506.742 637.566 488.756 664.891Z" fill="#F3E8FF"/>
<path d="M464.363 664.864L460.461 663.859C478.829 634.307 512.808 611.301 545.726 589.029C586.323 561.514 624.714 535.547 636.21 498.363C638.303 491.663 640.339 485.009 642.319 478.399C652.33 445.805 661.79 414.759 674.516 382.274C676.764 376.543 679.776 370.268 683 363.587C693.987 340.635 706.459 314.696 696.193 295.682C676.425 259.096 613.303 254.451 552.302 249.942C496.943 245.841 439.717 241.631 414.052 213.735C384.825 181.902 423.003 159.494 460.079 137.791L466.866 133.826C482.944 124.319 499.021 115.627 514.547 107.234C561.21 82.0284 605.073 58.3434 636.252 19.5293L640.028 20.7787C608.467 59.9731 564.18 83.9297 517.262 109.299C501.779 117.692 485.744 126.356 469.751 135.809L462.964 139.801C425.548 161.721 390.254 182.418 417.658 212.214C442.262 238.942 498.258 243.097 552.726 247.09C615.084 251.708 679.522 256.461 700.138 294.677C710.87 314.56 698.229 341.042 687.03 364.401C683.848 371.029 680.879 377.276 678.546 382.926C665.82 415.357 656.402 446.24 646.391 478.915C644.383 485.525 642.347 492.179 640.282 498.879C628.532 536.905 587.935 564.312 548.696 590.903C516.329 612.985 482.392 635.801 464.363 664.864Z" fill="#F3E8FF"/>
<path d="M444.68 661.958L440.735 660.953C459.146 631.076 493.549 608.097 526.807 585.906C567.488 558.744 605.922 533.103 617.587 495.81C621.532 483.126 625.35 470.305 628.998 457.92C636.337 433.202 643.888 407.643 653.136 382.274C655.257 376.38 658.226 369.943 661.323 363.125C671.504 340.798 683 315.538 672.989 296.905C653.645 260.861 591.838 255.32 532.067 249.942C477.938 245.08 421.773 240.056 396.575 212.541C367.474 180.952 403.914 159.467 442.517 136.705L448.456 133.011C464.024 123.776 479.55 115.302 494.567 107.099C540.424 82.0287 583.651 58.3709 615 20.0186L618.733 21.2951C587.256 60.1907 543.605 84.1202 497.452 109.272C482.477 117.42 466.994 125.922 451.468 135.13L445.401 138.715C408.071 160.689 372.862 181.441 400.266 211.156C424.573 237.53 479.55 242.473 532.661 247.253C593.704 252.686 656.784 258.417 676.892 296.009C687.327 315.456 675.619 341.179 665.268 363.913C662.171 370.731 659.244 377.141 657.123 382.926C647.918 408.241 640.155 433.746 633.028 458.436C629.38 470.849 625.605 483.669 621.617 496.462C609.697 534.488 569.058 561.65 529.734 587.888C496.9 609.781 462.794 632.542 444.68 661.958Z" fill="#F3E8FF"/>
<path d="M427.67 653.945L423.767 652.94C442.305 623.062 477.26 600.518 511.027 578.68C552.344 551.98 591.372 526.747 602.825 489.454C606.516 477.312 613.006 461.586 619.793 444.936C640.325 395.121 665.862 333.111 648.3 299.43C629.89 264.12 570.713 257.031 513.445 250.186C461.649 243.993 408.071 237.583 383.764 210.394C355.427 178.669 391.358 157.266 429.367 134.586L433.863 131.87C448.753 122.961 463.558 114.785 477.769 106.908C522.014 82.4626 563.798 59.3752 594.044 21.8105L597.82 23.06C567.192 61.0864 525.11 84.3368 480.569 108.972C466.315 116.822 451.595 124.971 436.79 133.853L432.251 136.569C394.073 159.412 360.772 179.158 387.455 209.036C410.786 235.111 463.388 241.413 514.251 247.497C572.664 254.478 633.029 261.703 652.33 298.534C670.274 333.002 644.567 395.447 623.908 445.615C617.036 462.21 610.588 477.883 606.94 489.943C595.274 527.969 553.956 554.75 513.996 580.581C480.568 602.256 445.911 624.638 427.67 653.945Z" fill="#F3E8FF"/>
<path d="M412.865 641.777L408.962 640.718C428.433 611.492 463.346 589.11 497.07 567.381C541.315 539.051 583.1 512.27 592.262 471.582C595.062 459.25 600.747 443.143 606.685 426.113C621.49 383.876 639.943 331.319 627.09 301.169C612.752 267.57 553.829 257.086 496.858 246.846C454.098 239.213 409.896 231.336 385.376 213.627C344.228 183.912 371.165 162.346 413.671 135.075C431.064 123.939 448.456 114.106 465.297 104.573C506.106 81.5395 544.666 59.7558 573.216 24.3369L576.991 25.5864C548.06 61.467 509.118 83.3865 468.097 106.61C451.341 116.116 434.16 125.922 416.64 137.004C374.517 164.165 349.785 183.83 388.558 211.834C412.229 228.946 455.837 236.714 498.003 244.238C556.12 254.587 616.23 265.288 631.162 300.381C644.313 331.183 625.732 384.094 610.8 426.629C604.861 443.605 599.219 459.658 596.462 471.907C587.087 513.465 542.885 541.822 500.082 569.228C466.612 590.849 431.997 613.04 412.865 641.777Z" fill="#F3E8FF"/>
<path d="M399.714 626.431L395.812 625.344C415.283 597.205 450.959 575.611 485.574 554.724C531.728 526.829 575.294 500.4 582.717 460.174C584.372 450.966 586.96 439.775 589.929 427.933C599.686 387.19 611.903 336.262 599.728 305.895C586.493 272.785 532.915 260.101 480.95 247.824C441.711 238.507 401.157 228.81 378.249 210.449C340.071 179.729 366.414 158.109 404.72 133.038C420.967 122.391 437.129 113.129 452.783 104.138C490.58 82.4089 526.255 61.9018 552.259 27.8682L556.077 29.0633C529.819 63.5315 493.846 84.12 455.752 106.121C440.141 115.084 424.064 124.347 407.902 134.912C371.08 159.005 345.755 179.756 381.728 208.738C403.872 226.61 443.874 236.063 482.562 245.243C535.418 257.765 590.056 270.694 603.843 305.189C616.187 336.099 603.843 387.218 594.086 428.313C591.286 440.129 588.614 451.319 586.917 460.473C579.324 501.758 533.297 529.572 488.501 556.734C454.267 577.404 418.761 598.807 399.714 626.431Z" fill="#F3E8FF"/>
<path d="M387.667 608.884L383.891 607.716C404.635 580.31 440.523 559.803 475.266 539.975C519.001 515.013 560.107 491.41 572.833 455.502C583.905 423.859 583.311 344.139 568.082 311.925C552.853 279.711 506.911 265.37 462.412 251.49C422.706 239.078 381.813 226.257 361.663 200.915C341.513 175.573 366.456 152.73 390.085 135.347C407.922 122.476 427.037 110.355 447.31 99.0589C479.635 80.3988 507.548 64.2648 531.643 31.6436L535.46 32.7843C511.026 65.9216 482.816 82.2187 450.152 101.096C430.006 112.301 411.019 124.332 393.309 137.112C370.571 153.871 346.646 176.144 365.481 199.584C384.867 224.03 425.251 236.742 464.321 248.964C509.626 263.116 556.501 277.756 572.197 311.056C587.553 343.65 588.147 424.076 577.033 456.018C564.307 492.795 522.395 516.643 478.108 541.931C443.662 561.677 408.071 581.994 387.667 608.884Z" fill="#F3E8FF"/>
<path d="M376.34 590.115L372.564 588.839C400.562 555.321 426.057 539.078 472.592 515.339L486.082 508.521C530.878 485.977 560.446 471.093 566.47 434.153C571.348 404.275 555.567 347.588 542.841 316.841C529.394 284.492 490.536 268.249 449.515 251.029C418.973 238.235 387.411 225.035 367.771 204.663C334.979 170.711 367.134 147.814 401.198 123.586L403.744 121.766C416.47 112.694 427.923 105.469 438.995 98.3254C467.375 80.2086 489.9 65.8944 511.11 35.8535L514.971 36.9671C493.421 67.6055 470.768 82.0827 442.049 100.39C431.02 107.425 419.609 114.704 407.01 123.694L404.422 125.541C370.019 149.987 340.324 171.146 371.461 203.387C390.593 223.215 421.772 236.28 452.061 248.883C492.064 265.614 533.424 282.944 547.253 316.298C559.979 347.235 575.972 404.384 571.051 434.56C564.815 472.587 534.654 487.824 489.009 510.776L475.562 517.593C429.154 540.953 403.956 557.032 376.34 590.115Z" fill="#F3E8FF"/>
<path d="M365.099 571.047L361.408 569.717C390.424 536.688 415.41 521.64 464.024 498.336C469.496 495.619 475.011 493.148 480.398 490.649C521.801 471.337 557.562 454.687 558.919 420.572C559.683 401.939 544.793 377.113 531.685 355.03C524.643 343.242 518.026 332.133 514.038 322.626C500.973 291.526 468.69 272.893 434.457 253.201C408.156 238.045 380.964 222.373 363.826 200.589C332.647 161.014 381.473 126.519 428.645 93.1643C454.564 74.8573 479.041 57.5553 490.155 39.873L494.1 40.878C482.689 59.0221 458 76.487 431.784 94.9842C385.546 127.578 337.737 161.476 367.602 199.367C384.358 220.689 411.295 236.198 437.299 251.164C470.472 270.177 504.748 290.032 517.898 321.92C521.843 331.291 528.419 342.346 535.418 354.053C548.696 376.271 563.713 401.477 562.949 420.653C561.549 455.963 524.983 473.129 482.689 492.849C477.302 495.348 471.829 497.874 466.357 500.508C418.464 523.569 393.775 538.453 365.099 571.047Z" fill="#F3E8FF"/>
<path d="M353.518 552.714L349.912 551.274C384.103 515.964 413.883 501.297 463.6 478.481C467.842 476.498 472.635 474.406 477.683 472.206C510.008 458.082 554.253 438.77 554.677 413.102C554.932 397.05 535.545 378.879 516.795 361.305C503.56 348.892 491.046 337.185 485.489 326.457C472.763 301.848 447.31 280.499 422.876 259.883C396.49 237.692 369.214 214.741 358.269 187.959C342.828 149.933 377.316 124.129 413.883 96.6957C435.517 80.3987 457.915 63.5856 469.411 43.8662L473.399 44.8169C461.648 64.9709 438.996 82.0012 417.107 98.4612C381.303 125.351 347.494 150.748 362.384 187.28C373.116 213.518 398.908 235.248 426.269 258.226C451.001 279.032 476.538 300.571 489.519 325.587C494.906 335.963 507.208 347.534 520.274 359.757C539.406 377.684 559.174 396.235 558.919 413.13C558.452 440.291 513.147 460.011 480.101 474.434C475.053 476.634 470.302 478.725 466.06 480.681C416.81 503.279 387.285 517.784 353.518 552.714Z" fill="#F3E8FF"/>
<path d="M341.174 535.846L337.313 534.732C349.365 517.404 366.794 501.825 388.54 488.942C410.286 476.06 435.895 466.142 463.812 459.793C515.184 448.168 542.291 425.732 544.412 393.057C539.151 379.775 521.844 372.061 503.518 363.858C485.192 355.655 466.994 347.561 457.661 333.355V332.921C454.964 304.75 438.373 277.855 410.277 256.108C380.374 232.067 358.564 204.323 346.222 174.622C341.089 142.707 370.699 119.376 399.333 96.8042C418.761 81.5664 438.741 65.8398 448.456 47.4785L452.698 48.3748C442.517 67.1979 422.367 83.0875 402.854 98.461C373.456 121.63 345.67 143.495 350.591 174.079C362.798 203.353 384.316 230.696 413.798 254.396C442.265 276.543 459.072 303.884 461.818 332.513C470.727 345.877 488.671 353.89 506.021 361.631C525.11 370.16 543.139 378.199 548.696 392.595V392.785V392.975C546.533 426.982 518.45 450.314 465.212 462.346C437.844 468.584 412.739 478.315 391.417 490.949C370.096 503.583 353.003 518.857 341.174 535.846V535.846Z" fill="#F3E8FF"/>
<path d="M327.344 521.831L323.526 520.663C349.827 485.163 393.139 460.581 452.231 447.571C504.239 436.923 531.727 414.977 533.976 382.383C526.594 369.073 507.845 365.705 487.992 362.12C467.205 358.372 443.662 354.107 430.978 337.674L430.724 337.131C429.369 308.62 416.193 280.852 392.545 256.678C367.334 230.228 349.573 201.149 340.07 170.766C336.592 140.29 360.051 120.028 384.909 98.5699C401.665 84.0927 418.846 69.0995 427.754 50.5752L431.996 51.3629C423.045 70.3761 405.483 85.5052 388.473 100.254C364.123 121.277 341.089 141.159 344.44 170.44C353.833 200.418 371.333 229.116 396.151 255.239C420.144 279.716 433.54 307.839 434.966 336.724C446.886 351.962 468.351 355.737 489.137 359.567C509.923 363.397 530.115 366.982 538.133 381.812V382.057V382.328C535.927 416.253 507.463 439.069 453.504 450.233C395.642 462.89 353.178 487.01 327.344 521.831Z" fill="#F3E8FF"/>
<path d="M311.564 511.428L307.831 510.179C338.247 473.021 385.885 447.544 449.347 434.506C505.3 423.288 527.231 401.912 516.414 369.318C494.245 361.809 468.497 359.872 444.214 363.886H443.874H443.535C429.154 363.234 418.846 360.463 412.865 355.601C406.884 350.739 405.484 344.601 407.562 336.588C404.227 315.42 396.406 294.64 384.316 274.822C362.903 244.062 345.549 212.208 332.435 179.594C324.969 144.283 346.391 123.124 369.087 100.662C383.34 86.5647 398.102 71.9517 406.799 52.9385L411.041 53.699C402.132 73.0925 387.243 87.8684 372.862 102.155C350.591 124.184 329.593 144.989 336.804 179.077C349.856 211.507 367.125 243.179 388.43 273.763C400.723 293.893 408.672 315.002 412.059 336.507V336.724C410.107 344.139 411.592 349.897 416.301 353.863C421.01 357.829 430.639 360.49 443.62 361.115C469.179 357.015 496.212 359.226 519.341 367.308L520.189 367.607V368.204C531.897 402.265 508.396 425.434 450.45 437.086C388.261 449.907 341.471 474.923 311.564 511.428Z" fill="#F3E8FF"/>
<path d="M293.408 505.588L289.675 504.338C320.26 467.072 368.238 441.866 432.336 429.589C488.671 418.725 510.899 397.43 500.209 364.646C475.311 358.267 447.583 358.092 422.494 364.157H421.858C406.502 364.483 395.557 362.31 389.236 357.665C382.916 353.02 381.473 346.8 383.679 338.435C379.938 317.087 372.934 296.026 362.766 275.555C344.633 243.531 329.713 210.798 318.097 177.556C311.818 143.169 331.12 122.499 351.524 100.634C364.25 86.8629 377.613 72.6573 385.8 54.0244L390.042 54.7578C381.558 73.771 368.238 88.1123 355.3 102.019C335.235 123.477 316.315 143.767 322.424 177.121C334.014 210.211 348.863 242.797 366.881 274.686C377.179 295.405 384.283 316.72 388.091 338.326V338.706C386.012 346.393 387.539 352.287 392.588 355.872C397.636 359.458 407.732 361.712 421.561 361.305C447.907 354.995 477.006 355.305 503.009 362.174L504.069 362.446L504.324 363.152C515.947 397.484 492.234 420.626 433.736 431.952C370.571 444.311 323.442 469.001 293.408 505.588Z" fill="#F3E8FF"/>
<path d="M273.173 504.963L269.44 503.714C299.856 466.611 347.579 441.595 411.253 429.372C466.994 418.508 489.392 397.104 479.593 364.347C454.172 358.085 426.026 358.085 400.605 364.347H399.969C384.57 364.754 373.541 362.636 367.093 358.018C360.645 353.401 359.033 347.154 361.069 338.761C356.585 317.466 349.71 296.407 340.495 275.746C324.63 243.586 310.801 210.557 299.771 177.556C293.79 143.359 312.497 121.956 332.181 99.2759C343.974 85.6951 356.148 71.8426 364.251 54.1875L368.493 54.9752C360.009 72.9019 347.961 86.9717 336.083 100.607C316.655 122.879 298.329 143.903 304.098 177.121C315.212 209.878 328.872 242.853 344.737 274.904C354.029 295.771 360.961 317.039 365.481 338.543V338.924C363.572 346.638 365.227 352.505 370.402 356.144C375.577 359.784 385.716 361.93 399.63 361.577C426.334 355.078 455.88 355.253 482.393 362.065L483.453 362.337L483.708 363.043C494.398 397.376 470.515 420.545 412.653 431.925C349.913 443.985 303.038 468.566 273.173 504.963Z" fill="#F3E8FF"/>
<path d="M256.375 507.299L252.6 506.05C266.22 488.578 285.295 473.081 308.644 460.518C331.993 447.955 359.12 438.593 388.346 433.012C441.669 421.74 463.176 400.744 454.098 368.802C430.035 361.336 402.609 359.594 376.723 363.886H376.426H376.341C361.451 363.56 350.888 360.925 344.313 356.09C337.738 351.256 336.168 345.226 337.865 336.833C332.732 316.081 326.369 295.139 319.031 274.632C305.965 243.179 294.426 210.992 284.755 179.023C279.537 145.587 296.293 121.984 313.982 96.696C324.539 82.5741 333.347 67.9433 340.326 52.9385L344.568 53.6719C337.566 68.8138 328.686 83.5733 318.012 97.8096C300.535 122.608 284.076 146.049 289.124 178.616C298.753 210.422 310.334 242.554 323.315 273.98C330.739 294.65 337.102 315.728 342.277 336.615V336.996C340.708 344.547 342.532 350.386 347.707 354.325C352.882 358.263 362.894 360.844 376.341 361.17C403.359 356.759 431.949 358.686 456.94 366.602L457.916 366.901V367.58C467.843 400.989 444.85 423.859 389.534 435.484C360.841 440.978 334.217 450.187 311.311 462.541C288.406 474.894 269.707 490.129 256.375 507.299V507.299Z" fill="#F3E8FF"/>
<path d="M243.436 511.672L239.618 510.504C251.552 493.761 268.836 478.807 290.355 466.605C311.873 454.404 337.147 445.227 364.547 439.666C414.561 427.824 434.329 407.072 424.997 376.217C402.958 366.856 376.589 362.592 350.252 364.13H349.7C322.169 361.088 309.74 351.092 312.752 334.496C287.045 300.789 279.536 235.763 274.573 192.685C274.149 188.747 273.682 184.998 273.258 181.494C269.355 148.9 282.166 121.739 295.698 92.9472C302.019 79.5022 308.425 65.6226 313.388 50.9824L317.63 51.5256C312.752 66.2745 306.219 80.2356 299.856 93.7349C286.408 122.309 273.724 149.281 277.585 181.277C278.009 184.781 278.433 188.529 278.9 192.495C283.905 235.519 291.414 300.517 317.078 333.736L317.333 334.089V334.496C314.364 349.815 325.223 358.643 350.464 361.658C377.958 360.095 405.456 364.631 428.348 374.505L429.112 374.804V375.348C439.208 407.588 417.997 430.16 366.117 442.491C339.253 447.893 314.455 456.84 293.324 468.756C272.194 480.672 255.199 495.292 243.436 511.672V511.672Z" fill="#F3E8FF"/>
<path d="M233.595 517.648L229.649 516.616C239.238 500.816 254.11 486.55 273.222 474.819C292.334 463.089 315.223 454.178 340.283 448.712C386.055 436 403.447 415.439 393.266 385.914C373.467 374.208 348.443 366.762 321.702 364.619H321.278C295.529 358.698 283.906 347.399 286.705 331.047C268.04 300.816 267.022 253.609 266.174 215.637C265.919 204.501 265.707 193.908 265.071 184.673C262.695 150.34 270.119 116.225 277.288 83.2509C279.791 71.7615 282.378 59.8919 284.542 48.1309L288.784 48.4568C286.62 60.2178 284.033 72.1147 281.53 83.767C274.531 116.443 266.937 150.449 269.313 184.618C269.949 193.935 270.161 204.474 270.416 215.664C271.264 253.528 272.282 300.653 290.82 330.422V330.748V331.074C288.063 346.366 298.371 356.498 322.381 362.066C350.122 364.308 376.054 372.092 396.49 384.311L396.999 384.61V385.018C407.859 415.792 389.194 438.119 341.598 451.346C317.141 456.695 294.804 465.4 276.148 476.852C257.493 488.304 242.97 502.228 233.595 517.648V517.648Z" fill="#F3E8FF"/>
<path d="M226.044 524.764L221.802 524.003C227.546 510.085 238.411 497.249 253.489 486.57C268.566 475.891 287.418 467.678 308.467 462.618C347.155 450.911 365.693 431.219 363.614 404.193C357.845 386.783 336.72 378.308 314.364 369.318C291.075 359.974 266.98 350.304 258.368 329.58C245.897 299.702 250.436 262.165 254.847 225.877C256.969 208.629 259.09 192.332 259.09 177.665C259.09 156.913 257.902 135.89 256.756 115.573C255.441 92.3768 254.084 68.393 254.508 44.708H258.75C258.326 68.3387 259.683 92.2953 260.998 115.328C262.144 135.7 263.332 156.723 263.332 177.529C263.332 192.305 261.295 208.656 259.09 225.958C254.847 262.002 250.181 299.295 262.441 328.738C270.628 348.403 294.044 357.801 316.612 366.764C339.18 375.728 361.663 384.854 367.814 403.596C370.19 432.061 350.846 452.487 310.334 464.872C289.82 469.804 271.457 477.818 256.788 488.24C242.12 498.663 231.576 511.189 226.044 524.764Z" fill="#F3E8FF"/>
<path d="M219.934 532.668L215.692 532.179C223.328 505.316 246.575 485.841 284.838 474.352C318.011 461.749 332.646 442.709 328.065 417.856C323.059 398.299 302.612 386.375 281.105 373.772C258.749 360.68 235.63 347.154 230.2 324.284C223.583 297.122 232.958 268.167 242.078 240.082C248.314 220.797 254.804 200.861 255.695 182.146C257.053 153.654 247.762 125.786 238.727 98.8413C231.755 79.7301 226.514 60.3768 223.031 40.8783L227.273 40.6338C230.722 60.0242 235.934 79.2693 242.884 98.2709C251.92 125.433 261.252 153.409 259.852 182.228C258.919 201.241 252.429 221.232 246.15 240.653C237.115 268.466 227.782 297.203 234.315 323.822C239.66 345.768 262.228 358.969 284.075 371.735C305.285 384.121 327.089 396.914 332.349 417.448C337.143 443.551 321.829 463.46 286.917 476.715C269.287 481.667 253.9 489.394 242.189 499.177C230.477 508.96 222.822 520.481 219.934 532.668V532.668Z" fill="#F3E8FF"/>
<path d="M214.336 541.251L210.306 540.409C218.281 524.465 234.825 510.857 250.86 497.711C275.421 477.503 298.626 458.408 292.135 432.061C286.96 410.957 267.149 395.067 247.975 379.693C226.341 362.337 203.985 344.383 201.694 318.77C199.403 293.156 213.742 269.227 227.571 246.058C238.982 227.045 250.775 207.244 253.023 186.845C256.629 155.338 238.091 124.373 220.147 94.6314C208.863 75.8083 197.155 56.3333 191.174 36.9399L195.416 36.4238C201.312 55.437 212.936 74.9391 224.177 93.6535C242.291 123.776 260.998 154.93 257.308 187.063C254.932 207.841 243.054 227.805 231.516 247.036C217.856 269.933 203.688 293.645 206.063 318.607C208.439 343.568 230.243 360.979 251.454 377.982C270.967 393.627 291.16 409.816 296.505 431.627C303.292 459.169 278.433 479.594 254.381 499.368C238.388 512.351 222.099 525.769 214.336 541.251Z" fill="#F3E8FF"/>
<path d="M208.779 549.373L204.536 548.911C208.991 533.049 220.19 519.712 230.965 506.838C244.666 490.541 257.605 475.113 257.393 455.231C257.138 429.617 236.734 407.779 217.008 386.647C196.264 364.456 174.799 341.504 176.157 313.908C177.345 289.137 195.119 268.793 212.257 249.1C225.917 233.374 240.085 217.158 245.769 198.742C257.011 162.889 227.868 126.737 199.828 91.834C184.217 72.4134 168.055 52.3409 159.655 32.9746L163.897 32.2412C172.127 51.2544 187.483 70.4034 203.73 90.6117C232.152 125.922 261.592 162.427 250.139 199.259C244.285 218.082 229.946 234.569 216.202 250.377C198.513 270.694 181.841 289.87 180.654 313.962C179.338 340.744 200.464 363.37 220.911 385.235C240.933 406.665 261.635 428.829 261.889 455.176C262.101 475.738 248.315 492.17 234.952 508.087C224.092 520.826 213.105 533.945 208.779 549.373Z" fill="#F3E8FF"/>
<path d="M198.173 557.059C196.307 540.545 203.391 525.932 210.221 511.808C216.711 498.39 223.413 484.646 222.48 469.028C220.911 443.116 202.797 418.806 185.277 395.284C165.043 368.122 144.129 340.064 149.007 309.561C153.037 284.41 175.308 266.727 196.858 249.616C214.505 235.6 232.788 221.123 240.933 202.544C256.756 166.501 217.05 126.492 178.702 87.596C158.213 66.8716 138.826 47.3151 128.942 29.2254L132.93 28.3291C142.687 46.12 161.903 65.5678 182.265 86.1564C221.165 125.459 261.338 166.093 245.006 203.278C236.521 222.291 218.068 237.094 200.167 251.327C178.023 268.9 157.11 285.496 153.207 309.833C148.456 339.711 168.224 366.085 189.137 394.034C206.827 417.801 225.153 442.355 226.722 468.838C227.656 484.809 220.868 498.906 214.251 512.514C207.251 527.072 200.591 540.789 202.415 556.787L198.173 557.059Z" fill="#F3E8FF"/>
<path d="M189.69 563.986C187.78 549.351 187.412 534.65 188.587 519.984C190.046 503.523 189.308 487.012 186.381 470.631C181.757 449.988 168.14 427.96 153.717 404.628C132.506 370.54 110.829 335.311 118.508 303.722C124.743 277.946 152.784 263.17 179.89 248.883C199.489 238.561 219.766 227.887 231.601 213.111C260.278 177.366 204.622 127.579 155.753 83.794C131.616 62.3906 109.09 42.2637 98.9092 25.9124L102.854 24.9346C112.781 40.96 135.221 61.0053 158.977 82.2186C208.779 126.709 265.241 177.285 235.334 214.36C223.075 229.625 202.501 240.463 182.563 250.974C154.82 265.587 128.646 279.385 122.622 304.13C115.156 335.013 136.748 369.888 157.619 403.623C172.127 427.118 185.872 449.282 190.538 470.251C193.497 486.784 194.25 503.45 192.786 520.065C191.61 534.605 191.979 549.179 193.889 563.687L189.69 563.986Z" fill="#F3E8FF"/>
<path d="M178.787 569.473C176.284 552.143 170.982 534.57 165.849 517.594C162.116 505.235 158.213 492.469 155.456 479.839C151.214 459.821 138.488 437.005 125.761 412.831C104.551 373.637 82.4073 333.111 92.7155 300.11C101.2 273.274 132.676 260.563 163.219 248.258C185.278 239.376 208.058 230.223 222.056 215.664C249.715 187.199 220.741 162.835 192.744 139.258C188.799 135.918 184.853 132.631 181.163 129.344C170.091 119.593 159.443 110.766 149.135 102.183C119.186 77.4112 93.3094 56.0078 70.9961 23.115L74.8988 22.0557C97 54.6497 122.707 75.8902 152.486 100.526C162.795 109.082 173.485 117.936 184.599 127.688C188.29 130.92 192.192 134.206 196.137 137.52C223.668 160.689 254.848 186.954 225.832 217.022C211.324 231.988 188.12 241.332 165.679 250.35C134.5 262.898 105.06 274.795 97.0425 300.463C86.9888 332.731 108.793 372.903 129.919 411.826C143.111 436.136 155.371 459.06 159.995 479.35C162.752 491.899 166.613 504.665 170.346 516.969C176.043 534.201 180.375 551.607 183.326 569.12L178.787 569.473Z" fill="#F3E8FF"/>
<path d="M164.533 573.166C163.218 557.059 154.819 542.473 145.911 526.991C138.487 514.062 130.766 500.671 127.542 486.248C123.3 466.855 111.889 443.903 99.8417 419.593C78.6313 376.406 56.4028 331.78 68.1534 297.665C77.8253 269.688 111.889 258.688 144.808 248.04C168.775 240.299 193.549 232.314 209.033 217.809C239.067 189.561 206.445 163.785 177.641 141.077C172.975 137.411 168.606 133.934 164.491 130.484C152.104 120.109 140.184 110.819 128.688 101.829C96.5753 76.8127 68.8745 55.2192 44.9492 21.43L48.8095 20.3164C72.4803 53.7525 100.054 75.2374 131.954 100.117C143.493 109.108 155.455 118.424 167.842 128.827C172.084 132.25 176.326 135.699 180.908 139.366C210.602 162.834 244.539 189.425 212.511 219.33C196.434 234.432 171.193 242.581 146.759 250.458C113.204 261.322 81.5159 271.508 72.3106 298.262C60.7722 331.644 82.7037 375.917 103.872 418.751C115.962 443.197 127.373 466.257 131.742 485.868C134.881 500.019 142.517 513.274 149.898 526.094C158.382 541.033 167.418 556.488 168.775 573.003L164.533 573.166Z" fill="#F3E8FF"/>
<path d="M150.408 574.633H146.166C146.166 563.578 140.524 557.113 134.415 550.187C131.197 546.696 128.362 543.066 125.931 539.323C114.859 521.45 108.75 511.618 103.448 489.372C98.9512 470.576 88.4733 448.114 77.3591 424.32C57.0819 380.861 34.1323 331.97 45.798 296.66C55.5548 267.38 90.9337 257.52 125.167 247.986C150.238 241.006 176.072 233.808 192.362 219.005C223.287 190.811 189.265 164.681 159.231 141.512C154.522 137.872 150.026 134.45 145.911 131.055C132.633 120.19 119.822 110.548 107.478 101.177C74.5169 76.4055 46.095 55.0021 22 20.5882L25.8603 19.4746C49.7007 53.5354 77.953 74.803 110.702 99.4115C123.089 108.755 135.9 118.425 149.262 129.289C153.504 132.63 157.746 136.053 162.498 139.665C191.938 162.345 228.589 190.566 195.84 220.444C178.872 235.872 152.486 243.26 126.864 250.322C92.0791 260.019 59.2454 269.145 49.9553 297.067C38.5017 331.535 61.3241 380.291 81.4315 423.315C92.5882 447.19 103.109 469.734 107.648 488.72C112.908 510.667 118.55 519.82 129.876 538.073C132.3 541.74 135.135 545.289 138.36 548.693C144.511 556.054 150.535 562.845 150.408 574.633Z" fill="#F3E8FF"/>
</svg>
