<svg width="1201" height="640" viewBox="0 0 1201 640" fill="none" xmlns="http://www.w3.org/2000/svg">
<rect width="1200.23" height="638.879" transform="matrix(1 -0.000934228 0.00119951 0.999999 0 1.12134)" fill="#8A698A"/>
<path d="M1141.12 326.479C1135.09 323.865 1129.52 322.051 1124.12 320.298C1114.22 317.078 1105.67 314.297 1097.03 307.529C1085.2 298.258 1076.32 287.071 1067.73 276.253C1065.27 273.163 1062.85 270.115 1060.4 267.167C1030.69 231.371 1033.48 196.458 1069.44 153.963C1072.07 150.856 1076.94 146.188 1083.1 140.276C1107.43 116.923 1148.17 77.8369 1127.16 60.9653C1120.03 55.233 1106.24 52.5288 1086.26 52.9309C996.613 54.7258 896.674 73.5228 816.373 88.6259C721.232 106.521 621.196 127.329 534.155 158.154C484.377 175.781 426.442 200.314 420.2 233.853C415.954 256.648 437.539 276.599 458.409 295.893C460.009 297.372 461.605 298.846 463.181 300.316L465.394 302.374C485.197 320.763 502.3 336.645 462.761 350.809C422.269 365.316 366.227 371.245 316.782 376.478C305.448 377.677 294.742 378.81 284.273 380.028C273.453 381.287 260.881 382.449 247.57 383.679C198.408 388.222 137.225 393.876 106.27 409.803C97.3901 414.371 93.8477 419.153 93.8141 423.961C93.61 423.931 93.4074 423.898 93.2034 423.869L92.5283 425.051C92.9805 425.118 93.4291 425.189 93.8813 425.256C95.2412 436.401 114.705 447.601 130.278 456.552L132.161 457.636C149.949 467.882 169.423 477.364 190.388 486.083L190.174 486.52C190.806 486.6 191.434 486.688 192.066 486.768C226.74 501.064 265.499 513.264 307.795 523.211C307.484 523.206 307.175 523.197 306.864 523.192L306.794 524.423C309.104 524.457 311.411 524.505 313.716 524.56C344.401 531.573 376.885 537.42 410.947 542.062L411.321 542.736C412.094 542.626 412.871 542.535 413.646 542.432C451.69 547.532 491.681 551.127 533.301 553.16C533.875 553.268 534.45 553.376 535.023 553.484C538.021 554.047 541.028 554.612 544.037 555.176C604.115 568.026 665.834 579.301 729.311 581.346C729.322 581.346 729.333 581.346 729.343 581.347L729.422 580.732L729.476 581.347C729.484 581.347 729.493 581.346 729.502 581.346L729.574 581.343C736.062 581.162 742.412 580.739 748.635 580.11C750.223 579.997 751.579 579.856 752.536 579.687C803.384 573.771 845.423 553.649 880.576 530.824C903.067 525.41 923.846 518.88 943.048 511.542C943.422 511.56 943.79 511.567 944.165 511.588L944.276 511.07C1027.78 478.896 1081.38 431.597 1116.56 395.752C1119.22 393.038 1122.43 390.023 1125.83 386.831C1146.4 367.486 1174.58 340.992 1141.12 326.479ZM1152.02 353.122C1144.27 354.823 1136.79 356.801 1129.55 359.009C1133.54 347.834 1131.25 337.138 1115.48 329.181C1114.73 328.804 1113.96 328.439 1113.16 328.084C1120.71 327.063 1128.58 326.439 1136.78 326.266C1137.69 326.634 1138.61 327.012 1139.54 327.415C1154.62 333.956 1156.43 343.195 1152.02 353.122ZM933.229 510.098C931.322 510.108 929.434 510.149 927.564 510.216C964.665 495.868 998.2 477.098 1027.98 454.026C1032.24 452.551 1036.59 451.118 1041.02 449.728C1008.39 474.987 972.609 495.027 933.229 510.098ZM842.077 548.962C841.578 549.196 841.077 549.436 840.579 549.677C839.711 550.094 838.828 550.515 837.961 550.897C839.296 550.238 840.626 549.573 841.946 548.905C841.99 548.924 842.034 548.942 842.077 548.962ZM132.548 417.031C153.093 401.604 211.343 394.581 253.877 389.453C262.524 388.411 270.692 387.426 277.444 386.491C287.572 385.088 300.7 383.64 315.84 381.985C316.3 383.076 316.801 384.166 317.362 385.253C304.508 387.361 291.529 389.524 278.774 391.769C273.612 392.677 267.413 393.666 260.847 394.711C225.962 400.269 173.243 408.667 159.032 424.162C155.742 427.747 154.768 431.422 155.407 435.094C145.768 433.046 136.056 431.114 126.261 429.323C125.584 425.139 127.282 420.985 132.548 417.031ZM523.112 314.662C522.914 314.142 522.687 313.626 522.48 313.107C536.754 315.884 549.477 318.643 554.074 320.446C553.548 321.499 552.943 322.53 552.222 323.528C542.523 336.955 511.857 346.621 483.188 353.742C511.899 344.139 529.489 331.555 523.112 314.662ZM1030.05 280.309C1040.15 291.938 1052.54 305.173 1071.8 315.054C1078.13 318.304 1085.99 320.635 1093.6 322.89C1098.7 324.403 1103.6 325.864 1108.01 327.554C1100.48 328.744 1093.28 330.322 1086.37 332.231C1077.44 327.28 1068.11 322.903 1059.04 318.652C1040.63 310.019 1023.23 301.866 1009.67 289.565C1008.45 288.462 1007.29 287.355 1006.15 286.245C1013.58 283.612 1021.25 281.071 1028.65 278.636C1029.11 279.194 1029.57 279.752 1030.05 280.309ZM1102.52 368.733C1095.24 371.763 1088.21 375.019 1081.42 378.476C1084.48 365.909 1081.36 353.574 1066.81 342.902C1066.08 342.366 1065.31 341.843 1064.56 341.314C1071.32 338.46 1078.42 335.928 1085.87 333.792C1086.79 334.312 1087.72 334.83 1088.63 335.363C1104.5 344.635 1106.68 356.525 1102.52 368.733ZM1072.55 410.378C1058.3 425.983 1042.83 440.239 1026.2 453.154C1020.33 455.188 1014.63 457.305 1009.05 459.484C1026.2 447.644 1041.38 434.67 1054.4 420.528C1065.71 408.257 1076.8 394.3 1080.86 380.528C1087.61 377.022 1094.58 373.71 1101.81 370.628C1096.51 384.15 1083.94 397.916 1073.97 408.826L1072.55 410.378ZM875.92 530.481C875.725 530.561 875.52 530.637 875.324 530.716C875.25 530.734 875.177 530.752 875.102 530.769C876.392 530.026 877.675 529.285 878.953 528.544C879.396 528.434 879.84 528.325 880.283 528.214C879.075 529.018 877.637 529.778 875.92 530.481ZM161.234 424.68C174.998 409.678 227.1 401.378 261.577 395.886C268.161 394.837 274.377 393.846 279.571 392.932C292.271 390.696 305.198 388.543 318.004 386.442C319.161 388.549 320.502 390.646 322.005 392.735C311.387 394.868 301.036 397.019 290.938 399.268C287.315 400.075 283.048 400.969 278.349 401.953C247.368 408.443 200.553 418.25 191.001 432.891C188.869 436.159 188.414 439.486 189.159 442.794C178.845 440.286 168.451 437.893 157.969 435.641C157.121 431.942 157.958 428.251 161.234 424.68ZM457.324 361.118C475.93 356.944 499.827 351.58 519.649 344.482C473.558 363.307 414.02 374.843 356.036 386.067C345.163 388.171 334.596 390.221 324.268 392.284C322.783 390.217 321.457 388.143 320.316 386.062C325.347 385.238 330.357 384.421 335.321 383.613C374.496 377.237 415.007 370.644 453.264 362.03L457.324 361.118ZM557.712 293.08C556.534 285.219 555.314 277.091 557.426 270.12C564.113 248.058 585.942 226.853 622.307 207.092C625.746 205.224 629.326 203.377 632.97 201.54C637.578 208.326 640.11 215.111 640.576 221.921C635.894 224.823 631.464 227.736 627.381 230.647C606.81 245.309 598.978 262.522 591.399 279.167C584.126 295.146 577.197 310.344 559.98 323.231C559.584 322.617 558.954 321.858 557.98 320.823C557.755 320.584 557.332 320.324 556.762 320.049C560.514 311.851 559.099 302.332 557.712 293.08ZM992.141 190.417C983.036 194.123 973.805 197.748 964.643 201.342C957.84 204.011 950.945 206.718 944.111 209.457C944.129 209.066 944.145 208.679 944.163 208.288C944.961 191.116 945.786 173.36 926.101 163.279C915.836 158.023 901.025 155.407 881.085 155.251C892.217 150.85 903.367 146.495 914.317 142.223C931.595 135.483 949.247 128.576 966.697 121.54C968.065 121.506 969.411 121.486 970.717 121.486C985.737 121.486 996.765 123.713 1003.54 128.122C1022.66 140.57 1005.8 168.104 994.635 186.323C993.76 187.752 992.928 189.114 992.141 190.417ZM869.756 531.979C867.915 532.387 866.05 532.787 864.182 533.183C864.127 533.108 864.052 533.033 863.992 532.958C866.972 532.029 869.894 531.067 872.742 530.061C872.938 530.015 873.136 529.972 873.331 529.925C872.145 530.61 870.952 531.294 869.756 531.979ZM815.388 558.315C815.363 558.311 815.331 558.307 815.305 558.304C817.223 557.939 819.114 557.563 820.954 557.164C819.836 557.656 818.712 558.141 817.584 558.623C816.952 558.524 816.243 558.425 815.388 558.315ZM814.784 559.508C814.966 559.531 815.15 559.555 815.334 559.579C812.71 560.677 810.051 561.742 807.367 562.779C802.635 563.818 797.297 564.685 791.514 565.407C793.997 563.987 796.392 562.506 798.679 560.953C803.019 560.378 807.248 559.739 811.333 559.03C812.605 559.22 813.786 559.378 814.784 559.508ZM609.431 564.526C614.972 564.803 621.24 565.038 627.766 565.236C628.006 565.286 628.245 565.334 628.485 565.384C624.284 566.094 622.038 566.548 620.838 566.876C617.026 566.117 613.225 565.331 609.431 564.526ZM552.163 554.303C553.786 554.388 555.424 554.464 557.073 554.534C557.067 554.605 557.054 554.678 557.054 554.748C555.373 554.608 553.744 554.46 552.163 554.303ZM193.308 433.277C202.511 419.171 250.567 409.105 279.279 403.091C283.995 402.102 288.281 401.205 291.916 400.395C301.959 398.158 312.264 396.016 322.835 393.893C324.997 396.78 327.478 399.646 330.205 402.491C321.051 404.901 311.943 407.347 303.044 409.871C300.297 410.649 297.21 411.492 293.889 412.399C268.788 419.254 230.851 429.614 224.763 443.498C223.571 446.218 223.593 449.038 224.463 451.875C213.657 448.951 202.768 446.129 191.79 443.435C190.821 440.031 191.132 436.612 193.308 433.277ZM553.198 329.753C553.161 329.873 553.125 329.997 553.091 330.123C549.581 332.297 545.809 334.441 541.688 336.549C493.734 361.082 431.928 376.665 372.158 391.736C359.017 395.049 345.638 398.439 332.359 401.921C329.669 399.114 327.227 396.286 325.096 393.441C335.433 391.376 346.015 389.324 356.905 387.216C429.614 373.143 504.77 358.586 553.198 329.753ZM593.768 279.444C601.292 262.915 609.073 245.823 629.361 231.36C632.886 228.846 636.669 226.331 640.645 223.822C640.67 225.828 640.539 227.836 640.207 229.848C639.673 233.09 639.307 236.254 639.011 239.39C634.659 242.631 630.664 245.886 627.115 249.113C614.455 260.62 606.277 272.407 598.372 283.805C587.561 299.39 577.218 314.261 556.52 327.925C556.643 327.745 556.773 327.591 556.901 327.442C578.158 313.646 585.771 297.016 593.768 279.444ZM941.732 208.259C941.697 208.993 941.666 209.721 941.634 210.453C932.487 214.139 923.483 217.881 915.015 221.673C909.504 224.142 904.501 226.561 899.935 228.965C882.299 204.003 863.381 186.59 804.903 186.468C816.365 181.353 828.739 176.34 841.533 171.162C845.375 169.608 849.245 168.042 853.124 166.458C861.349 163.102 869.697 159.767 878.061 156.452C898.907 156.363 914.069 158.87 924.372 164.145C943.331 173.854 942.52 191.344 941.732 208.259ZM900.108 232.915C914.778 254.295 935.702 275.721 967.438 301.795C962.201 305.12 957.57 308.764 953.469 312.651C947.554 307.377 941.613 301.801 935.439 295.996C917.701 279.323 898.95 261.722 876.19 246.983C882.175 241.549 889.578 236.431 898.978 231.283C899.354 231.825 899.73 232.366 900.108 232.915ZM1055.63 393.129C1048.3 397.716 1041.24 402.491 1034.42 407.391C1035.9 393.569 1029.34 381.091 1018.26 368.725C1025.26 363.293 1032.76 358.102 1040.81 353.325C1042.32 354.645 1043.77 355.976 1045.13 357.321C1055.56 367.629 1059.04 379.603 1055.63 393.129ZM1032.15 430.724C1018.1 445.695 1001.72 458.786 983.568 470.218C981.505 471.153 979.459 472.098 977.423 473.051C991.501 463.831 1003.91 453.775 1014.53 442.862C1026.29 430.769 1032.33 419.902 1034.08 409.774C1040.8 404.882 1047.75 400.105 1054.96 395.508C1051.64 406.305 1044.04 418.059 1032.15 430.724ZM799.832 554.548C798.626 554.714 797.414 554.876 796.198 555.034C789.921 554.204 783.349 553.764 776.721 553.543C776.78 553.445 776.834 553.346 776.892 553.248C788.924 552 800.276 550.517 810.919 548.793C810.844 548.864 810.775 548.937 810.698 549.007C807.099 550.862 803.48 552.716 799.832 554.548ZM599.695 558.082C599.904 558.015 600.08 557.953 600.296 557.883C603.42 557.942 606.603 557.989 609.831 558.028C611.896 558.716 613.969 559.39 616.048 560.055C613.282 559.977 610.592 559.894 607.996 559.806C605.232 559.231 602.466 558.656 599.695 558.082ZM600.18 559.513C598.772 559.456 597.396 559.396 596.051 559.334C596.427 559.197 596.829 559.053 597.247 558.907C598.226 559.109 599.203 559.311 600.18 559.513ZM227.138 443.765C232.983 430.43 270.331 420.231 295.046 413.482C298.376 412.572 301.474 411.726 304.231 410.944C313.091 408.431 322.163 405.995 331.283 403.594C334.95 407.321 339.042 411.009 343.464 414.644C334.176 417.712 324.972 420.852 315.967 424.093C278.435 437.602 262.028 449.458 265.05 463.381C252.523 459.683 239.899 456.078 227.163 452.608C226.041 449.6 225.888 446.617 227.138 443.765ZM1031.64 409.392C1024.87 414.334 1018.32 419.388 1011.95 424.486C1014.13 410.727 1008.6 397.999 998.738 385.487C1004.33 380.22 1010.29 375.001 1016.66 369.971C1027.71 382.537 1033.95 395.242 1031.64 409.392ZM763.163 574.676C761.182 574.817 759.012 574.971 756.747 575.127C757.578 574.688 758.384 574.235 759.148 573.761C760.938 573.153 762.714 572.524 764.479 571.877C768.488 571.6 772.489 571.3 776.489 570.98C773.377 572.242 770.128 573.392 766.74 574.422C765.619 574.5 764.439 574.584 763.163 574.676ZM607.426 555.739C608.141 555.535 608.872 555.328 609.629 555.118C611.315 555.123 612.985 555.145 614.674 555.146H615.365C616.239 555.146 617.082 555.135 617.954 555.135C620.495 555.724 623.037 556.326 625.583 556.943C620.751 556.923 615.737 556.886 610.631 556.823C609.56 556.466 608.493 556.103 607.426 555.739ZM606.078 556.761C605.398 556.751 604.718 556.741 604.036 556.73C604.373 556.629 604.73 556.524 605.08 556.421C605.413 556.535 605.746 556.648 606.078 556.761ZM317.377 425.096C326.337 421.872 335.499 418.745 344.748 415.69C350.169 420.076 356.043 424.384 362.176 428.599C354.166 431.841 346.269 435.156 338.604 438.584C310.951 450.951 299.049 462.146 302.113 474.619C290.769 471.101 279.355 467.621 267.861 464.213C264.083 450.295 280.02 438.542 317.377 425.096ZM1008.98 426.868C1003.05 431.672 997.274 436.502 991.614 441.305C994.183 428.508 989.217 416.333 980.159 404.372C985.438 398.644 991.102 392.77 997.211 386.937C1007.01 399.714 1012.15 412.737 1008.98 426.868ZM992.707 454.601C982.805 465.15 970.875 474.471 957.416 482.723C963.934 478.104 969.951 473.171 975.378 467.889C983.733 459.755 988.645 451.937 990.871 444.344C996.52 439.528 1002.29 434.676 1008.2 429.842C1005.81 437.694 1000.88 445.895 992.707 454.601ZM886.923 520.968C886.891 520.712 886.792 520.453 886.734 520.195C890.238 518.92 893.652 517.61 896.939 516.251C896.144 516.706 895.335 517.174 894.535 517.635C892.08 518.775 889.545 519.888 886.923 520.968ZM757.305 572.896C754.79 573.743 752.24 574.535 749.671 575.292C747.962 575.303 746.201 575.307 744.35 575.298C745.596 574.541 746.823 573.744 748.029 572.903C751.405 572.72 754.797 572.514 758.194 572.299C757.895 572.497 757.614 572.703 757.305 572.896ZM654.106 562.835C656.121 562.559 658.187 562.281 660.309 562.001C662.137 562.011 663.938 562.02 665.709 562.026C667.544 563.014 669.408 563.975 671.301 564.909C668.198 564.88 664.915 564.84 661.508 564.79C659.054 564.14 656.586 563.488 654.106 562.835ZM655.924 564.701C651.632 564.627 647.221 564.537 642.813 564.435C645.276 564.073 647.898 563.697 650.65 563.313C652.413 563.775 654.172 564.239 655.924 564.701ZM560.268 552.846C560.482 552.56 560.725 552.268 561.026 551.963C561.521 551.972 562.016 551.981 562.511 551.989C564.766 552.414 567.02 552.846 569.273 553.282C566.537 553.208 563.794 553.143 561.071 553.056C560.802 552.986 560.536 552.915 560.268 552.846ZM340.213 439.506C347.823 436.103 355.668 432.811 363.625 429.588C370.112 434.002 376.859 438.311 383.649 442.492C357.412 456.365 339.223 471.329 342.035 487.17C329.73 483.267 317.36 479.355 304.907 475.484C301.109 462.983 312.618 451.848 340.213 439.506ZM988.49 443.963C984.864 447.055 981.28 450.133 977.737 453.177C975.266 455.301 972.836 457.387 970.42 459.456C973.352 447.999 969.107 436.721 961.193 425.754C962.08 424.738 962.975 423.712 963.886 422.668C968.477 417.403 973.399 411.761 978.714 405.947C987.722 418.244 992.25 430.768 988.49 443.963ZM818.102 541.43C806.172 543.194 793.746 544.753 780.887 546.139C780.898 546.121 780.907 546.103 780.916 546.085C780.993 546.035 781.07 545.986 781.147 545.937C794.24 544.508 806.57 542.798 818.166 540.821C818.298 540.853 818.43 540.887 818.563 540.92C818.41 541.09 818.256 541.26 818.102 541.43ZM741.906 567.491C741.632 567.49 741.37 567.49 741.095 567.49C735.906 567.477 730.553 567.541 725.14 567.642C724.809 567.039 724.468 566.438 724.124 565.838C729.958 565.716 735.971 565.547 742.074 565.321C742.05 566.054 741.993 566.778 741.906 567.491ZM714.842 577.795C716.057 577.814 717.274 577.831 718.492 577.836C719.484 578.215 720.411 578.563 721.297 578.889C721.177 578.887 721.055 578.886 720.937 578.884C718.954 578.555 716.926 578.195 714.842 577.795ZM684.169 569.071C681.894 568.146 679.668 567.168 677.47 566.16C680.666 566.187 683.051 566.2 684.323 566.2H684.64C686.158 566.197 687.742 566.193 689.358 566.189C691.472 567.027 693.548 567.857 695.577 568.672C692.973 568.806 690.36 568.961 687.748 569.117C686.592 569.105 685.403 569.09 684.169 569.071ZM357.15 504.985C350.621 499.787 346.779 494.662 345.165 489.616C346.706 490.106 348.249 490.595 349.79 491.084C359.724 494.238 369.811 497.435 379.929 500.618C381.095 505.144 384.082 509.705 389.255 514.283C392.802 517.421 396.983 520.245 401.65 522.816C394.017 521.192 386.357 519.578 378.675 517.976C370.573 514.21 363.331 509.906 357.15 504.985ZM385.224 443.455C393.643 448.61 402.093 453.571 410.138 458.29C410.821 458.691 411.477 459.077 412.152 459.474C391.559 471.902 377.303 485.3 379.598 499.064C370.025 496.05 360.483 493.027 351.082 490.042C348.966 489.37 346.847 488.697 344.727 488.024C341.138 472.282 359.057 457.337 385.224 443.455ZM967.011 462.36C961.044 467.446 955.19 472.342 949.368 477.035C952.408 467.349 948.878 457.565 942.106 448.142C946.648 442.515 951.057 437.196 955.365 432.37C956.797 430.765 958.258 429.106 959.749 427.404C967.645 438.797 971.389 450.503 967.011 462.36ZM853.954 527.846C852.393 528.517 850.84 529.199 849.296 529.891C841.993 531.649 834.352 533.276 826.386 534.775C826.779 534.278 827.166 533.782 827.551 533.284C836.617 531.576 845.282 529.693 853.61 527.667C853.725 527.726 853.841 527.786 853.954 527.846ZM726.276 575.178C725.064 575.179 723.859 575.184 722.66 575.188C722.125 574.8 721.614 574.399 721.09 574.005C722.639 573.962 724.162 573.93 725.726 573.879C725.916 574.311 726.098 574.745 726.276 575.178ZM719.515 572.816C718.438 571.976 717.388 571.123 716.359 570.26C718.87 570.238 721.404 570.212 723.957 570.18C724.379 571.005 724.779 571.831 725.167 572.661C723.263 572.722 721.395 572.767 719.515 572.816ZM677.133 559.893C683.118 559.184 689.25 558.501 695.364 557.877C697.241 557.842 699.116 557.807 700.971 557.764C701.81 558.738 702.671 559.702 703.552 560.658C695.489 560.768 687.476 560.814 679.569 560.817C678.757 560.507 677.946 560.2 677.133 559.893ZM675.49 560.817C673.518 560.816 671.558 560.812 669.621 560.807C671.075 560.626 672.54 560.446 674.02 560.267C674.51 560.45 675 560.633 675.49 560.817ZM662.462 554.607C663.076 554.593 663.688 554.578 664.302 554.564C675.15 554.592 686.46 554.497 698.048 554.231C698.567 554.883 699.089 555.534 699.626 556.18C698.008 556.337 696.404 556.495 694.815 556.657C686.544 556.808 678.063 556.885 669.37 556.885C669.237 556.885 669.106 556.884 668.974 556.884C666.787 556.1 664.615 555.34 662.462 554.607ZM443.915 478.305C453.526 483.977 463.653 489.871 474.252 495.841C461.911 504.35 453.249 513.204 453.224 521.688C442.715 518.464 432.691 515.392 422.693 512.384C421.392 511.992 420.075 511.583 418.772 511.189C416.752 500.157 427.663 488.956 443.915 478.305ZM930.574 496.187C929.205 496.782 927.827 497.368 926.444 497.949C926.676 497.63 926.918 497.313 927.133 496.991C931.206 493.789 935.163 490.644 939.006 487.59C940.499 486.404 941.968 485.236 943.422 484.083C941.241 487.178 938.306 490.258 934.42 493.307C933.179 494.282 931.885 495.238 930.574 496.187ZM603.087 550.545C600.874 550.094 598.666 549.657 596.468 549.241C600.717 549.199 604.9 549.153 608.992 549.105C611.124 549.12 613.241 549.144 615.384 549.152C614.951 549.587 614.565 550.053 614.28 550.581C613.83 550.589 613.367 550.595 612.914 550.602C609.666 550.592 606.392 550.573 603.087 550.545ZM475.913 496.775C486.069 502.477 496.65 508.24 507.62 513.937C498.208 520.403 491.264 526.954 489.898 532.872C478.312 529.382 466.897 525.882 455.689 522.444C455.171 514.101 463.627 505.287 475.913 496.775ZM924.987 496.404C923.101 497.886 921.188 499.38 919.251 500.882C915.603 502.327 911.912 503.731 908.177 505.086C908.06 501.602 906.467 498.04 903.983 494.55C911.203 486.466 917.896 478.382 924.192 470.57C928.927 478.719 930.629 487.744 924.987 496.404ZM493.532 539.386C492.519 537.978 492.042 536.492 492.028 534.944C499.262 537.116 506.564 539.279 513.928 541.421C507.423 541.089 500.873 540.709 494.302 540.272C494.038 539.979 493.751 539.692 493.532 539.386ZM905.686 505.971C899.671 508.112 893.553 510.142 887.343 512.063C892.656 506.836 897.7 501.523 902.507 496.196C904.606 499.462 905.825 502.763 905.686 505.971ZM805.917 538.233C801.686 538.871 797.398 539.486 793.004 540.06C795.954 539.04 799.046 538.286 802.329 537.906C802.7 537.863 803.077 537.847 803.45 537.813C804.273 537.95 805.096 538.088 805.917 538.233ZM783.64 542.581C783.217 542.81 782.793 543.04 782.375 543.279C782.475 543.08 782.572 542.881 782.672 542.682C782.994 542.649 783.318 542.615 783.64 542.581ZM787.265 540.771C785.968 540.93 784.694 541.098 783.382 541.251C783.6 540.806 783.831 540.364 784.045 539.919C786.735 539.594 789.39 539.254 792.029 538.908C790.396 539.457 788.807 540.075 787.265 540.771ZM780.724 541.545C778.527 541.794 776.327 542.041 774.093 542.275C763.516 543.271 752.859 544.098 742.201 544.785C742.2 544.499 742.195 544.212 742.194 543.926C755.788 542.935 768.848 541.7 781.377 540.231C781.165 540.67 780.939 541.106 780.724 541.545ZM849.817 494.122C848.278 496.685 846.704 499.398 845.062 502.232C842.179 507.206 839.047 512.599 835.525 518.144C822.848 513.37 809.699 510.412 796.003 508.532C799.047 498.591 801.596 488.616 804.096 478.767C821.118 482.305 836.114 487.366 849.817 494.122ZM643.504 545.667C643.414 545.686 643.322 545.705 643.233 545.723C643.209 545.705 643.184 545.687 643.161 545.669C643.273 545.668 643.389 545.668 643.504 545.667ZM651.233 545.62C650.74 545.63 650.243 545.635 649.749 545.644C649.774 545.639 649.8 545.634 649.826 545.628C650.295 545.625 650.763 545.624 651.233 545.62ZM742.159 538.974C742.148 537.3 742.132 535.627 742.121 533.954C753.85 533.897 766.121 534.085 778.399 534.948C766.337 536.529 754.231 537.863 742.159 538.974ZM739.728 539.196C723.78 540.625 707.902 541.671 692.266 542.402C691.468 541.124 690.693 539.838 689.944 538.545C706.328 536.131 724.179 534.166 739.69 533.976C739.702 535.716 739.718 537.456 739.728 539.196ZM689.784 542.516C679.991 542.954 670.299 543.271 660.752 543.48C668.525 542.009 677.761 540.381 687.612 538.892C688.315 540.106 689.036 541.315 689.784 542.516ZM640.296 545.715C639.48 545.708 638.685 545.711 637.866 545.703C637.782 545.703 637.688 545.703 637.603 545.702C638.488 545.696 639.376 545.693 640.258 545.686L640.296 545.715ZM708.515 544.466L708.625 544.664C706.288 544.76 703.9 544.834 701.534 544.917C703.877 544.778 706.19 544.618 708.515 544.466ZM832.962 525.878C834.28 523.975 835.548 522.079 836.765 520.196C837.947 520.668 839.133 521.127 840.306 521.633L842.298 522.488C842.995 522.786 843.715 523.096 844.445 523.411C840.636 524.263 836.809 525.088 832.962 525.878ZM829.967 526.48C815.764 529.327 801.338 531.755 786.819 533.805C790.261 525.878 793.116 517.836 795.623 509.764C809.205 511.645 822.225 514.595 834.738 519.373C833.224 521.725 831.64 524.099 829.967 526.48ZM784.176 534.15C769.959 532.912 755.666 532.657 742.112 532.723C742.058 523.936 741.986 515.15 741.92 506.364C759.927 506.724 777.005 507.338 793.264 509.432C790.689 517.73 787.751 526.001 784.176 534.15ZM739.682 532.743C725.383 532.925 707.612 534.764 689.333 537.458C684.854 529.561 681.261 521.416 678.247 513.28C700.745 508.914 722.503 506.145 739.488 506.333C739.554 515.137 739.627 523.94 739.682 532.743ZM686.999 537.808C675.788 539.5 664.44 541.497 653.628 543.616C649.831 543.68 646.057 543.728 642.314 543.759C641.749 543.762 641.194 543.763 640.632 543.765C633.565 538.369 627.067 532.767 621.108 527.229C638.252 522.19 657.285 517.438 675.941 513.736C678.951 521.832 682.538 529.939 686.999 537.808ZM637.728 543.776C634.304 543.782 630.953 543.775 627.682 543.757L615.913 543.702C607.069 543.663 597.924 543.622 588.568 543.546C584.295 543.499 579.949 543.442 575.537 543.373C586.256 538.497 601.555 533.044 619.003 527.846C624.737 533.173 630.966 538.563 637.728 543.776ZM637.026 547.051C636.687 547.124 636.355 547.198 636.018 547.273C635.611 547.198 635.212 547.133 634.812 547.066C635.551 547.06 636.29 547.057 637.026 547.051ZM642.3 547.21C642.499 547.357 642.706 547.5 642.908 547.646C642.055 547.641 641.207 547.635 640.329 547.633C640.974 547.492 641.645 547.351 642.3 547.21ZM709.29 545.817C709.416 546.036 709.555 546.256 709.681 546.475C704.864 546.67 700.064 546.842 695.289 546.991C695.139 546.775 694.988 546.559 694.841 546.341C699.708 546.191 704.534 546.02 709.29 545.817ZM713.522 546.317L712.552 545.672C721.842 545.25 730.907 544.72 739.764 544.096C739.765 544.376 739.769 544.657 739.77 544.937C731.002 545.486 722.238 545.943 713.522 546.317ZM710.876 544.559L710.539 544.335C719.131 543.758 727.621 543.105 735.967 542.348C737.227 542.254 738.489 542.162 739.751 542.063C739.752 542.352 739.755 542.642 739.757 542.931C730.384 543.584 720.766 544.131 710.876 544.559ZM846.91 522.858C845.871 522.407 844.847 521.968 843.866 521.548L841.882 520.697C840.452 520.08 839.01 519.512 837.568 518.945C841.206 513.241 844.431 507.69 847.393 502.579C848.901 499.977 850.352 497.473 851.77 495.097C853.407 495.93 855.035 496.775 856.636 497.658C863.187 501.27 874.626 507.582 880.623 514.092C869.62 517.328 858.361 520.244 846.91 522.858ZM793.643 508.203C777.237 506.107 760.037 505.493 741.911 505.132C741.828 494.236 741.76 483.34 741.671 472.444C764.413 472.92 784.167 474.821 801.763 478.298C799.253 488.19 796.698 498.212 793.643 508.203ZM739.479 505.102C722.091 504.906 700.248 507.619 677.749 511.939C674.075 501.816 671.263 491.741 668.71 482.213C694.179 476.198 718.66 472.386 737.843 472.386C738.313 472.386 738.773 472.394 739.239 472.399C739.328 483.3 739.396 494.201 739.479 505.102ZM675.443 512.391C656.503 516.112 637.226 520.922 619.853 526.054C611.448 518.157 604.134 510.451 597.832 503.735C619.245 495.743 643.173 488.349 666.404 482.754C668.952 492.26 671.769 502.302 675.443 512.391ZM617.75 526.674C599.801 532.05 584.075 537.728 573.086 542.83C562.684 538.565 552.51 534.082 542.582 529.459C544.508 528.238 546.585 526.989 548.851 525.705C561.178 518.72 577.536 511.391 595.838 504.478C602.119 511.171 609.394 518.828 617.75 526.674ZM570.341 543.284C556.703 543.04 542.501 542.663 527.989 542.066C530.03 538.698 534.427 534.782 541.07 530.428C550.604 534.865 560.368 539.173 570.341 543.284ZM531.743 545.104C531.497 545.035 531.25 544.966 531.006 544.897C531.58 544.925 532.137 544.959 532.712 544.986C532.413 545.024 532.118 545.067 531.82 545.107C531.795 545.106 531.769 545.105 531.743 545.104ZM588.766 545.547C592.956 545.559 597.099 545.566 601.173 545.57C605.578 545.622 609.957 545.663 614.303 545.695C611.538 545.709 608.724 545.724 605.87 545.74C604.812 545.746 603.723 545.752 602.649 545.757C597.978 545.704 593.362 545.629 588.766 545.547ZM630.227 547.658C627.483 547.676 624.662 547.7 621.778 547.73C624.058 547.292 626.916 547.295 630.227 547.658ZM633.405 549.174C635.232 549.17 637.073 549.164 638.92 549.157C640.323 549.469 641.767 549.816 643.25 550.197C638.65 550.218 633.666 550.279 628.286 550.359C629.943 549.968 631.653 549.573 633.405 549.174ZM644.383 549.13L644.974 549.126C645.088 549.206 645.198 549.288 645.311 549.368C644.999 549.287 644.692 549.209 644.383 549.13ZM657.041 547.705C653.37 547.705 649.637 547.686 645.899 547.659C645.584 547.433 645.268 547.208 644.955 546.98C645.093 546.978 645.225 546.974 645.362 546.972C661.519 547.041 677.177 546.855 692.316 546.417C692.463 546.634 692.616 546.85 692.765 547.067C683.814 547.333 674.951 547.531 666.235 547.666C663.185 547.685 660.136 547.705 657.041 547.705ZM742.186 542.759C742.185 542.462 742.182 542.165 742.179 541.868C755.671 540.786 769.167 539.438 782.53 537.778C782.337 538.195 782.15 538.613 781.953 539.03C769.277 540.525 756.005 541.761 742.186 542.759ZM883.349 513.287C883.139 513.35 882.926 513.41 882.716 513.473C876.521 506.808 865.04 500.472 858.426 496.825C856.502 495.764 854.555 494.741 852.582 493.751C852.801 493.389 853.021 493.019 853.239 492.664C858.308 484.379 863.139 476.011 867.822 467.622C869.685 468.764 871.524 469.923 873.319 471.114C881.136 476.3 894.475 485.156 901.345 494.511C895.69 500.821 889.715 507.123 883.349 513.287ZM850.917 492.3C850.815 492.466 850.712 492.64 850.611 492.807C836.754 486.074 821.6 481.025 804.419 477.501C805.757 472.227 807.092 466.978 808.495 461.782C810.107 455.813 811.661 449.815 813.169 443.806C832.234 449.424 850.219 457.091 865.937 466.476C861.119 475.128 856.144 483.759 850.917 492.3ZM806.088 461.615C804.71 466.712 803.4 471.86 802.086 477.031C784.365 473.574 764.494 471.685 741.661 471.212C741.638 468.376 741.622 465.54 741.598 462.704L741.453 445.004C741.421 441.013 741.385 437.022 741.351 433.031C764.679 433.213 788.487 436.759 810.885 443.137C809.337 449.313 807.743 455.481 806.088 461.615ZM739.023 445.009L739.167 462.71C739.19 465.533 739.207 468.356 739.23 471.178C719.711 470.993 694.576 474.81 668.375 480.964C668.104 479.948 667.835 478.938 667.568 477.936C666.415 473.597 665.291 469.377 664.142 465.323C662.362 459.048 660.771 452.765 659.303 446.479C684.982 438.636 712.215 433.117 738.92 433.026C738.954 437.02 738.99 441.014 739.023 445.009ZM661.735 465.498C662.884 469.549 664.006 473.765 665.161 478.1C665.461 479.229 665.764 480.368 666.072 481.514C642.604 487.134 618.427 494.567 596.782 502.617C596.613 502.437 596.438 502.249 596.27 502.071L596.014 501.797C589.001 494.318 582.592 486.901 576.767 479.551C598.991 469.066 626.882 456.589 657.025 447.189C658.458 453.297 660.005 459.401 661.735 465.498ZM593.816 502.326L594.074 502.599C594.306 502.846 594.55 503.106 594.784 503.356C576.169 510.362 559.541 517.8 547.037 524.885C544.786 526.16 542.713 527.406 540.787 528.625C530.506 523.804 520.499 518.837 510.788 513.815C525.539 503.943 545.867 494.261 559.91 487.576L563.873 485.688C567.338 484.03 571.016 482.273 574.854 480.455C580.603 487.682 586.924 494.974 593.816 502.326ZM539.281 529.596C532.26 534.195 527.64 538.358 525.546 541.964C523.636 541.883 521.724 541.797 519.805 541.707C510.485 539.02 501.267 536.289 492.152 533.55C493.085 527.787 499.915 521.28 509.314 514.813C519.015 519.826 529.009 524.784 539.281 529.596ZM542.559 545.411L542.847 545.423C542.728 545.42 542.609 545.418 542.489 545.415C542.512 545.414 542.535 545.412 542.559 545.411ZM574.695 547.053C575.6 547.167 576.507 547.29 577.417 547.414C574.229 547.341 571.068 547.256 567.91 547.168C567.994 547.121 568.092 547.072 568.177 547.024C570.364 547.038 572.538 547.047 574.695 547.053ZM587.21 547.605C586.065 547.416 584.923 547.233 583.786 547.058C590.284 547.049 596.597 547.021 602.668 546.988C607.733 547.046 612.82 547.094 617.974 547.118C618.262 547.119 618.545 547.119 618.831 547.12C618.268 547.312 617.742 547.528 617.267 547.778C615.126 547.802 612.967 547.827 610.777 547.853C610.232 547.86 609.674 547.866 609.125 547.872C601.745 547.822 594.438 547.733 587.21 547.605ZM618.19 549.162C621.296 549.171 624.416 549.179 627.594 549.179C625.761 549.606 623.973 550.031 622.232 550.454C621.292 550.469 620.361 550.484 619.401 550.499C618.57 550.513 617.713 550.526 616.869 550.54C617.217 550.013 617.657 549.555 618.19 549.162ZM650.976 550.206C650.501 550.202 650 550.201 649.515 550.199C648.984 549.834 648.443 549.476 647.918 549.108C653.968 549.063 660.113 548.993 666.326 548.896C675.67 548.84 684.81 548.701 693.734 548.473C693.961 548.796 694.184 549.12 694.415 549.442C683.768 549.819 673.364 550.083 663.297 550.264C659.232 550.261 655.127 550.242 650.976 550.206ZM696.942 549.346C696.718 549.036 696.489 548.727 696.267 548.415C701.094 548.282 705.846 548.119 710.547 547.936C710.712 548.212 710.872 548.488 711.039 548.764C706.299 548.982 701.601 549.174 696.942 549.346ZM713.146 548.097L713.938 548.624C713.786 548.632 713.634 548.639 713.482 548.646C713.372 548.463 713.256 548.281 713.146 548.097ZM715.63 547.718C723.885 547.36 731.944 546.923 739.806 546.407C739.814 546.646 739.825 546.886 739.844 547.14C732.098 547.659 724.401 548.106 716.788 548.487L715.63 547.718ZM742.229 546.25C753.034 545.514 763.453 544.622 773.506 543.583C775.681 543.38 777.853 543.174 780.021 542.957C779.88 543.236 779.747 543.517 779.604 543.796C767.136 545.073 754.646 546.125 742.269 546.979C742.25 546.729 742.236 546.485 742.229 546.25ZM787.954 542.127C795.79 541.274 803.559 540.319 811.237 539.257C811.954 539.405 812.667 539.558 813.38 539.713C804.293 540.992 795.127 542.128 785.932 543.13C786.597 542.779 787.273 542.45 787.954 542.127ZM784.604 538.71C784.803 538.288 784.994 537.864 785.189 537.441C787.912 537.094 790.632 536.738 793.343 536.364C794.866 536.55 796.386 536.751 797.901 536.964C793.537 537.576 789.115 538.162 784.604 538.71ZM902.763 492.924C895.556 483.837 882.853 475.411 875.251 470.368C873.095 468.937 870.883 467.543 868.628 466.181C874.253 456.063 879.651 445.918 884.904 435.837C896.737 443.034 906.875 450.575 914.32 458.081C917.531 461.317 920.597 464.908 923.057 468.718C916.735 476.587 910.017 484.751 902.763 492.924ZM866.731 465.057C850.839 455.706 832.707 448.068 813.496 442.481C816.491 430.495 819.308 418.478 822.033 406.583C843.861 414.319 865.219 424.107 882.988 434.696C877.738 444.78 872.345 454.933 866.731 465.057ZM811.208 441.826C788.694 435.497 764.786 431.978 741.341 431.8C741.223 417.716 741.102 403.633 740.981 389.549C763.383 389.818 791.837 396.097 819.766 405.799C817.032 417.736 814.209 429.795 811.208 441.826ZM738.549 389.534C738.673 403.621 738.792 417.708 738.91 431.795C712.032 431.885 684.717 437.349 658.98 445.141C656.088 432.561 653.795 419.969 651.923 407.389C679.06 397.01 708.146 389.655 738.549 389.534ZM656.701 445.849C626.316 455.242 598.24 467.753 575.815 478.318C569.231 469.92 563.427 461.613 558.411 453.407C563.206 450.854 568.134 448.185 573.204 445.441C596.123 433.032 621.828 419.117 649.617 408.272C651.498 420.793 653.804 433.326 656.701 445.849ZM573.901 479.22C569.799 481.16 565.885 483.032 562.202 484.794L558.246 486.679C544.2 493.364 523.964 503.004 509.101 512.943C498.126 507.238 487.542 501.469 477.382 495.761C492.649 485.461 513.216 475.656 529.83 467.738C535.163 465.195 540.201 462.795 544.382 460.694C548.316 458.717 552.365 456.603 556.492 454.418C561.527 462.59 567.321 470.86 573.901 479.22ZM489.685 534.24C489.527 536.18 489.984 538.048 491.249 539.807C491.315 539.9 491.402 539.987 491.473 540.079C486.394 539.728 481.305 539.343 476.214 538.92C473.61 538.348 471.02 537.782 468.434 537.219C464.886 535.386 461.918 533.33 459.719 530.993C457.563 528.701 456.36 526.343 455.89 523.944C466.968 527.343 478.241 530.796 489.685 534.24ZM465.94 538.015C461.85 537.633 457.764 537.222 453.688 536.784C450.054 535.673 446.61 534.463 443.402 533.131C446.303 533.76 449.211 534.389 452.106 535.016L463.403 537.462C464.243 537.645 465.096 537.832 465.94 538.015ZM564.972 547C564.922 547.029 564.874 547.058 564.825 547.087C563.498 547.049 562.177 547.008 560.856 546.965C562.236 546.98 563.601 546.989 564.972 547ZM589.584 549.3C591.722 549.671 593.871 550.062 596.03 550.471C594.862 550.457 593.685 550.44 592.509 550.423C591.505 550.05 590.499 549.678 589.499 549.3C589.527 549.3 589.555 549.3 589.584 549.3ZM616.239 551.843C616.37 551.843 616.504 551.843 616.635 551.844C616.489 551.881 616.341 551.918 616.197 551.955C616.209 551.916 616.226 551.881 616.239 551.843ZM658.571 553.309C656.8 552.731 655.05 552.176 653.325 551.649C656.637 551.606 659.987 551.555 663.381 551.494C674.467 551.502 685.222 551.384 695.681 551.156C695.958 551.529 696.226 551.906 696.509 552.278C686.029 552.722 675.285 553.072 664.29 553.332C662.373 553.327 660.458 553.322 658.571 553.309ZM699.036 552.165C698.765 551.814 698.504 551.459 698.238 551.106C702.957 550.993 707.59 550.849 712.18 550.688C712.351 550.965 712.525 551.235 712.698 551.511C708.198 551.75 703.632 551.963 699.036 552.165ZM815.016 538.727C815.6 538.643 816.187 538.561 816.77 538.476C817.489 538.605 818.216 538.754 818.946 538.912C818.325 539.004 817.707 539.102 817.084 539.193C816.398 539.032 815.707 538.881 815.016 538.727ZM814.678 536.849C812.854 536.611 811.06 536.48 809.286 536.422C811.112 536.135 812.955 535.855 814.754 535.557C818.059 535.008 821.289 534.427 824.504 533.838C824.107 534.346 823.695 534.849 823.288 535.354C820.46 535.869 817.587 536.367 814.678 536.849ZM802.308 536.334C800.885 536.111 799.459 535.898 798.029 535.7C807.706 534.305 817.28 532.735 826.701 530.973C826.318 531.482 825.93 531.991 825.54 532.499C818.056 533.889 810.298 535.162 802.308 536.334ZM827.839 529.44V529.44ZM945.945 479.791C945.712 479.976 945.478 480.171 945.246 480.355C942.553 482.479 939.791 484.675 936.954 486.929C934.447 488.921 931.89 490.954 929.285 493.015C932.387 485.662 931.174 477.515 925.641 468.77C928.269 465.495 930.831 462.273 933.333 459.123C935.888 455.908 938.391 452.761 940.858 449.692C947.735 459.582 950.701 469.747 945.945 479.791ZM931.078 458.664C928.914 461.387 926.703 464.168 924.444 466.988C922.305 463.901 919.687 460.75 916.492 457.528C908.746 449.719 898.089 441.874 885.65 434.409C888.92 428.123 892.141 421.865 895.333 415.66C896.33 413.722 897.344 411.756 898.35 409.803C900.359 411.401 902.355 413 904.322 414.599C916.926 424.841 930.881 436.191 939.622 447.966C936.827 451.429 933.984 455.008 931.078 458.664ZM892.98 415.35C889.928 421.281 886.849 427.262 883.728 433.266C865.759 422.695 844.267 412.947 822.338 405.249C823.521 400.08 824.691 394.931 825.849 389.825C827.638 381.934 829.444 373.976 831.296 365.981C855.335 377.717 876.963 392.907 896.568 408.386C895.37 410.711 894.165 413.045 892.98 415.35ZM823.434 389.684C822.323 394.58 821.201 399.516 820.07 404.469C792.019 394.815 763.489 388.58 740.97 388.318C740.843 373.685 740.714 358.888 740.59 344.016C740.676 344.016 740.76 344.015 740.846 344.015C773.481 344.015 802.723 352.366 829.092 364.93C827.166 373.232 825.291 381.494 823.434 389.684ZM738.539 388.303C707.974 388.424 678.848 395.666 651.707 405.932C649.849 393.221 648.423 380.525 647.292 367.873C676.03 354.444 706.722 344.54 738.159 344.053C738.283 358.907 738.411 373.687 738.539 388.303ZM649.399 406.807C620.974 417.78 594.766 431.964 571.428 444.599C566.684 447.169 562.075 449.661 557.573 452.063C552.442 443.535 548.197 435.124 544.778 426.83C554.198 421.39 564.09 415.289 574.353 408.953C595.759 395.739 619.578 381.045 644.955 368.977C646.094 381.554 647.534 394.172 649.399 406.807ZM555.659 453.08C551.217 455.438 546.879 457.703 542.667 459.82C538.51 461.909 533.484 464.305 528.164 466.841C511.571 474.749 491.098 484.515 475.737 494.835C465.151 488.869 455.039 482.98 445.444 477.316C462.623 466.312 485.225 455.926 504.739 446.966C514.024 442.701 522.797 438.673 529.548 435.199C533.83 432.996 538.251 430.558 542.772 427.976C546.233 436.229 550.515 444.599 555.659 453.08ZM421.449 513.442C431.862 516.575 442.294 519.773 453.287 523.146C453.621 525.994 454.961 528.796 457.525 531.522C459.066 533.161 460.949 534.671 463.131 536.065L453.062 533.884C448.032 532.794 442.99 531.702 437.939 530.61C433.143 528.197 428.967 525.477 425.601 522.375C422.145 519.189 420.056 515.967 419.102 512.727C419.882 512.962 420.669 513.207 421.449 513.442ZM423.469 522.967C426.015 525.315 429.006 527.448 432.352 529.403C424.065 527.613 415.752 525.824 407.407 524.041C401.213 521.015 395.788 517.585 391.364 513.671C386.761 509.599 383.965 505.531 382.681 501.486C393.947 505.023 405.233 508.517 416.442 511.916C417.286 515.62 419.503 519.312 423.469 522.967ZM436.512 531.639C439.73 533.241 443.222 534.702 446.961 536.034C445.172 535.827 443.385 535.616 441.6 535.397C431.086 533.023 421.414 530.122 412.958 526.568C420.833 528.255 428.688 529.947 436.512 531.639ZM512.528 543.906C513.994 544.093 515.462 544.281 516.93 544.479C510.607 544.157 504.311 543.752 498.075 543.27C497.951 543.196 497.843 543.118 497.721 543.043C502.643 543.367 507.579 543.66 512.528 543.906ZM528.957 546.84C530.563 546.922 532.165 547.006 533.779 547.084C534.261 547.218 534.74 547.355 535.223 547.489C532.536 547.39 529.86 547.277 527.194 547.149C527.775 547.037 528.368 546.941 528.957 546.84ZM545.444 547.6C548.884 547.743 552.331 547.88 555.806 548.002C552.809 547.96 549.812 547.905 546.813 547.836C546.357 547.757 545.901 547.679 545.444 547.6ZM574.528 549.365C578.234 549.365 581.901 549.35 585.544 549.328C586.441 549.672 587.337 550.019 588.239 550.359C580.187 550.225 571.991 550.032 563.682 549.779C563.89 549.632 564.138 549.478 564.362 549.328C567.766 549.353 571.158 549.365 574.528 549.365ZM612.903 551.833C613.191 551.834 613.48 551.836 613.766 551.837C613.693 552.087 613.652 552.359 613.605 552.626C613.488 552.657 613.374 552.686 613.257 552.717C611.995 552.435 610.732 552.158 609.471 551.885C610.635 551.868 611.759 551.851 612.903 551.833ZM616.157 553.366C618.057 552.871 620.048 552.365 622.138 551.848C630.583 551.847 639.465 551.807 648.702 551.706C649.499 552.247 650.296 552.786 651.106 553.318C645.332 553.358 638.706 553.461 631.38 553.577C627.075 553.646 622.571 553.717 617.947 553.78C617.35 553.642 616.753 553.502 616.157 553.366ZM681.837 558.059C679.285 558.35 676.855 558.637 674.526 558.917C673.796 558.645 673.068 558.374 672.34 558.107C675.534 558.101 678.7 558.085 681.837 558.059ZM704.658 561.862C705.614 562.87 706.595 563.868 707.601 564.855C701.399 564.916 695.555 564.942 690.198 564.956C687.744 563.983 685.257 563.009 682.757 562.041C689.989 562.024 697.306 561.969 704.658 561.862ZM708.887 566.073C709.573 566.725 710.26 567.376 710.968 568.017C707.03 568.155 703.068 568.317 699.079 568.508C697.173 567.74 695.234 566.961 693.269 566.177C698.147 566.16 703.384 566.131 708.887 566.073ZM726.451 570.146C731.418 570.075 736.435 569.979 741.446 569.848C741.251 570.6 740.997 571.326 740.692 572.028C736.294 572.238 731.934 572.42 727.62 572.57C727.247 571.76 726.859 570.952 726.451 570.146ZM725.821 568.924C725.81 568.905 725.802 568.887 725.792 568.868C729.24 568.806 732.639 568.766 735.994 568.748C732.59 568.82 729.195 568.877 725.821 568.924ZM723.325 568.958C721.942 568.975 720.564 568.99 719.192 569.004C720.572 568.968 721.933 568.942 723.301 568.913C723.31 568.928 723.317 568.943 723.325 568.958ZM713.675 567.93C712.976 567.307 712.286 566.677 711.609 566.042C714.868 566.003 718.211 565.952 721.623 565.887C721.968 566.487 722.307 567.087 722.638 567.689C719.674 567.753 716.687 567.835 713.675 567.93ZM710.329 564.827C709.307 563.837 708.308 562.836 707.336 561.823C711.234 561.759 715.14 561.68 719.049 561.583C719.683 562.607 720.305 563.636 720.914 564.669C717.304 564.736 713.766 564.789 710.329 564.827ZM706.195 560.622C705.295 559.657 704.415 558.683 703.559 557.699C707.886 557.591 712.155 557.461 716.362 557.309C717.012 558.33 717.658 559.354 718.301 560.383C714.261 560.481 710.222 560.56 706.195 560.622ZM714.45 556.139C714.825 556.11 715.193 556.083 715.565 556.055L715.593 556.099C715.212 556.112 714.833 556.126 714.45 556.139ZM702.075 555.946C701.582 555.355 701.094 554.763 700.615 554.166C705.082 554.054 709.58 553.919 714.112 553.754C714.345 554.122 714.577 554.492 714.81 554.858C710.572 555.182 706.3 555.55 702.075 555.946ZM715.16 551.374C714.999 551.115 714.841 550.854 714.681 550.594C715.383 550.568 716.085 550.542 716.784 550.515L717.85 551.223C716.955 551.274 716.06 551.325 715.16 551.374ZM820.506 537.913C820.762 537.874 821.018 537.836 821.273 537.798C821.207 537.877 821.138 537.957 821.07 538.037C820.881 537.992 820.695 537.956 820.506 537.913ZM843.271 532.646C843.171 532.693 843.072 532.741 842.973 532.788C842.15 532.945 841.318 533.094 840.492 533.248C841.419 533.048 842.355 532.851 843.271 532.646ZM828.597 531.914C828.978 531.408 829.363 530.903 829.737 530.397C836.704 529.058 843.589 527.618 850.356 526.058C850.915 526.322 851.465 526.588 852.013 526.858C844.508 528.671 836.71 530.36 828.597 531.914ZM831.39 528.748C837.113 527.594 842.739 526.372 848.304 525.11C848.328 525.121 848.353 525.133 848.377 525.144C842.786 526.422 837.119 527.622 831.39 528.748ZM850.707 524.549C853.215 523.971 855.731 523.398 858.206 522.798C855.751 523.41 853.288 524.012 850.801 524.592C850.77 524.578 850.738 524.564 850.707 524.549ZM883.082 517.303C883.09 517.316 883.101 517.329 883.108 517.342C882.5 517.516 881.891 517.687 881.286 517.865C881.294 517.859 881.301 517.852 881.308 517.845C881.9 517.665 882.492 517.486 883.082 517.303ZM885.247 516.74C885.226 516.707 885.204 516.676 885.183 516.643C891.902 514.527 898.449 512.268 904.796 509.857C904.788 509.876 904.778 509.893 904.77 509.912C900.439 511.744 895.936 513.504 891.274 515.196C889.246 515.684 887.235 516.196 885.247 516.74ZM900.661 513.027C900.443 513.124 900.225 513.221 900.005 513.318C899.969 513.325 899.933 513.331 899.896 513.338C900.155 513.237 900.403 513.129 900.661 513.027ZM948.044 480.414C953.743 475.899 959.449 471.168 965.239 466.27C962.808 470.928 959.106 475.606 953.812 480.294C949.55 484.067 944.86 487.666 939.812 491.115C943.644 487.586 946.324 484.011 948.044 480.414ZM953.147 431.863C949.144 436.349 945.056 441.262 940.856 446.443C931.897 434.69 918.206 423.553 906.387 413.948C904.021 412.025 901.616 410.099 899.187 408.177C903.682 399.456 908.262 390.631 912.958 381.819C913.88 382.608 914.795 383.391 915.697 384.163L920.142 387.965C934.177 399.954 948.992 412.628 958.554 425.73C956.707 427.842 954.902 429.895 953.147 431.863ZM897.401 406.767C877.671 391.269 855.893 376.127 831.651 364.461C834.425 352.514 837.307 340.487 840.41 328.466C868.339 344.279 892.002 363.932 911.223 380.338C906.507 389.167 901.912 398.018 897.401 406.767ZM829.448 363.415C803.01 351.001 773.662 342.784 740.848 342.784C740.759 342.784 740.67 342.785 740.579 342.785C740.46 328.437 740.347 314.024 740.243 299.596C777.138 299.861 809.875 311.512 838.275 327.268C835.146 339.339 832.24 351.415 829.448 363.415ZM738.148 342.821C706.541 343.299 675.852 353.021 647.153 366.275C646.204 355.434 645.453 344.627 644.82 333.869C670.21 317.304 700.823 299.967 737.812 299.602C737.915 314.041 738.029 328.463 738.148 342.821ZM644.813 367.356C618.746 379.61 594.359 394.662 572.473 408.173C562.659 414.232 553.184 420.078 544.151 425.326C540.921 417.262 538.523 409.317 536.931 401.499C568.738 384.004 597.709 365.138 628.969 344.39C630.639 343.283 632.333 342.15 634.057 340.999C636.796 339.17 639.605 337.295 642.478 335.404C643.113 346.012 643.865 356.667 644.813 367.356ZM542.147 426.477C537.232 429.303 532.44 431.956 527.815 434.336C521.112 437.785 512.365 441.801 503.106 446.053C483.619 455.002 461.098 465.354 443.83 476.364C437.712 472.746 431.808 469.224 426.13 465.838L425.394 465.399C422.175 463.479 418.798 461.492 415.361 459.473C435.226 447.671 460.764 436.737 482.933 427.248C497.228 421.129 510.729 415.35 520.475 410.307C525.301 407.809 530.048 405.283 534.731 402.729C536.392 410.523 538.873 418.443 542.147 426.477ZM423.542 466.196L424.276 466.635C430.049 470.079 436.059 473.662 442.286 477.344C425.956 487.989 414.763 499.225 416.136 510.385C404.881 506.966 393.56 503.455 382.26 499.903C379.251 486.246 393.241 472.865 413.77 460.425C417.116 462.389 420.404 464.325 423.542 466.196ZM406.046 525.086C412.249 528.091 419.21 530.691 426.773 532.936C411.321 529.765 397.018 525.713 384.496 520.526C391.699 522.038 398.885 523.557 406.046 525.086ZM494.357 542.823C494.423 542.872 494.484 542.923 494.553 542.972C494.248 542.904 493.945 542.837 493.64 542.769C493.88 542.786 494.118 542.807 494.357 542.823ZM540.348 548.902C540.359 548.905 540.371 548.908 540.383 548.911C540.092 548.898 539.804 548.887 539.514 548.874C539.791 548.882 540.07 548.893 540.348 548.902ZM546.017 549.055C546.141 549.058 546.265 549.061 546.39 549.064C546.65 549.109 546.911 549.153 547.171 549.198C546.927 549.189 546.685 549.179 546.441 549.169C546.3 549.131 546.158 549.093 546.017 549.055ZM554.638 549.219C556.883 549.254 559.125 549.282 561.364 549.303C561.178 549.436 561.035 549.562 560.863 549.694C559.379 549.646 557.886 549.593 556.395 549.541C555.809 549.434 555.224 549.326 554.638 549.219ZM603.544 551.966C605.861 552.445 608.185 552.936 610.517 553.448C609.979 553.594 609.449 553.739 608.928 553.883C606.6 553.874 604.277 553.861 601.958 553.843C600.272 553.249 598.591 552.648 596.916 552.04C599.15 552.018 601.358 551.994 603.544 551.966ZM658.327 554.703C660.429 555.401 662.556 556.13 664.699 556.883C663.227 556.884 661.629 556.888 659.912 556.893C658.731 556.185 657.557 555.475 656.402 554.749C657.05 554.736 657.681 554.717 658.327 554.703ZM666.74 558.114C667.214 558.114 667.677 558.111 668.151 558.112C669.233 558.502 670.317 558.897 671.402 559.296C669.255 559.559 667.216 559.814 665.362 560.051C664.223 559.418 663.106 558.768 661.989 558.117C663.703 558.113 665.315 558.111 666.74 558.114ZM675.477 562.048C675.994 562.049 676.508 562.049 677.025 562.049C677.592 562.049 678.162 562.047 678.73 562.047C681.265 563.015 683.78 563.991 686.257 564.965C685.717 564.966 685.158 564.968 684.63 564.969C681.775 564.976 678.449 564.965 674.82 564.939C672.868 564.004 670.955 563.031 669.063 562.037C671.254 562.043 673.408 562.047 675.477 562.048ZM713.544 570.283C714.578 571.164 715.639 572.03 716.722 572.889C714.539 572.94 712.385 572.98 710.24 573.014C708.422 572.283 706.543 571.523 704.614 570.744C704.286 570.611 703.95 570.475 703.619 570.341C706.863 570.327 710.178 570.308 713.544 570.283ZM718.262 574.081C718.755 574.458 719.253 574.833 719.756 575.205C718.426 575.214 717.112 575.224 715.808 575.237C714.96 574.902 714.093 574.558 713.2 574.201C714.872 574.169 716.57 574.122 718.262 574.081ZM721.42 576.423C721.508 576.486 721.601 576.548 721.69 576.611C720.904 576.615 720.118 576.613 719.332 576.612C719.183 576.555 719.038 576.5 718.889 576.441C719.732 576.435 720.568 576.428 721.42 576.423ZM723.438 577.828C723.765 578.052 724.081 578.283 724.412 578.505C723.827 578.297 723.207 578.072 722.563 577.834C722.855 577.831 723.146 577.831 723.438 577.828ZM715.249 576.577C714.463 576.565 713.674 576.561 712.892 576.542C712.459 576.532 712.028 576.522 711.6 576.513C712.711 576.499 713.854 576.488 714.993 576.476C715.075 576.508 715.165 576.545 715.249 576.577ZM726.384 577.787C726.682 577.782 726.979 577.776 727.277 577.77C727.363 578.016 727.424 578.265 727.505 578.511C727.134 578.269 726.75 578.033 726.384 577.787ZM724.652 576.581L724.412 576.414C725.194 576.412 725.969 576.408 726.755 576.407C726.774 576.455 726.793 576.503 726.811 576.551C726.093 576.564 725.372 576.572 724.652 576.581ZM729.234 576.413C730.222 576.414 731.206 576.414 732.197 576.419C731.227 576.45 730.244 576.471 729.265 576.495C729.255 576.467 729.245 576.44 729.234 576.413ZM728.755 575.181C728.566 574.715 728.379 574.249 728.176 573.785C732.107 573.647 736.073 573.483 740.073 573.296C739.681 573.983 739.204 574.629 738.667 575.244C735.362 575.205 732.048 575.185 728.755 575.181ZM742.652 573.169C743.355 573.134 744.054 573.1 744.758 573.065C743.657 573.798 742.539 574.497 741.405 575.152C741.89 574.522 742.296 573.857 742.652 573.169ZM743.256 571.906C743.53 571.218 743.749 570.507 743.927 569.781C745.808 569.728 747.688 569.668 749.561 569.603C748.611 570.34 747.652 571.05 746.685 571.738C745.536 571.799 744.401 571.849 743.256 571.906ZM723.427 564.62C722.816 563.581 722.192 562.546 721.556 561.514C728.347 561.331 735.138 561.091 741.896 560.78C742.002 561.886 742.061 562.991 742.072 564.088C735.729 564.324 729.481 564.496 723.427 564.62ZM720.81 560.317C720.163 559.28 719.515 558.248 718.86 557.22C726.529 556.927 734 556.563 741.266 556.127C741.453 557.256 741.624 558.405 741.764 559.569C734.803 559.89 727.807 560.133 720.81 560.317ZM718.091 556.01L718.004 555.873C726.41 555.264 734.281 554.874 741.044 554.814C741.049 554.841 741.054 554.868 741.059 554.895C733.618 555.342 725.962 555.713 718.091 556.01ZM740.739 553.105C740.768 553.262 740.796 553.427 740.825 553.586C733.697 553.655 725.59 554.068 717.243 554.673C717.027 554.336 716.814 553.996 716.598 553.656C724.55 553.348 732.574 552.949 740.623 552.451C740.663 552.671 740.699 552.879 740.739 553.105ZM724.929 552.064C730.147 551.746 735.285 551.396 740.371 551.027C740.381 551.091 740.394 551.16 740.405 551.224C735.233 551.545 730.071 551.825 724.929 552.064ZM720.467 551.077L720.606 551.024L719.676 550.406C726.643 550.117 733.446 549.767 740.103 549.363C740.124 549.504 740.151 549.657 740.174 549.8C733.72 550.269 727.135 550.689 720.467 551.077ZM742.519 549.218C754.728 548.446 766.39 547.471 777.544 546.308C777.429 546.387 777.309 546.462 777.193 546.542C766.005 547.708 754.495 548.747 742.586 549.635C742.564 549.498 742.539 549.351 742.519 549.218ZM823.575 538.214C823.826 537.917 824.085 537.624 824.331 537.326C829.094 536.576 833.809 535.778 838.472 534.933C837.679 535.316 836.885 535.699 836.095 536.085C835.357 536.243 834.62 536.399 833.876 536.554C830.46 537.131 827.024 537.682 823.575 538.214ZM844.277 533.856C847.326 533.271 850.342 532.655 853.34 532.025C849.869 532.934 846.278 533.8 842.618 534.642C843.17 534.38 843.723 534.117 844.277 533.856ZM856.829 529.949C854.337 530.496 851.822 531.025 849.29 531.541C849.748 531.333 850.208 531.128 850.667 530.922C852.713 530.428 854.73 529.921 856.724 529.406C856.951 529.544 857.185 529.68 857.403 529.818C857.211 529.861 857.021 529.907 856.829 529.949ZM854.353 526.298C853.818 526.028 853.277 525.761 852.73 525.498C861.072 523.536 869.245 521.404 877.196 519.078C877.172 519.099 877.149 519.121 877.125 519.142C872.562 520.592 868.095 522.181 863.707 523.873C860.645 524.705 857.526 525.512 854.353 526.298ZM891.184 516.588C891.993 516.389 892.81 516.198 893.626 516.008C891.249 516.969 888.82 517.91 886.33 518.828C886.265 518.663 886.175 518.498 886.1 518.333C887.808 517.757 889.518 517.182 891.184 516.588ZM950.864 485.132C952.602 483.743 954.301 482.339 955.92 480.905C962.784 474.828 967.085 468.778 969.356 462.774C972.804 459.834 976.28 456.856 979.832 453.802C982.313 451.67 984.816 449.519 987.338 447.361C984.808 453.831 980.265 460.465 973.222 467.32C966.605 473.76 959.104 479.679 950.864 485.132ZM961.663 422.17C961.095 422.821 960.537 423.462 959.977 424.103C950.324 411.346 935.909 399.021 922.233 387.338L917.788 383.536C916.488 382.422 915.171 381.295 913.839 380.157C915.896 376.308 917.975 372.466 920.078 368.644C922.139 364.9 924.116 361.007 926.208 356.885C926.381 356.544 926.557 356.199 926.731 355.857C928.813 357.707 930.866 359.521 932.882 361.279L938.245 365.941C953.129 378.854 967.666 391.487 977.502 404.347C971.803 410.549 966.547 416.571 961.663 422.17ZM923.853 356.578C921.764 360.694 919.791 364.582 917.736 368.314C915.842 371.757 913.973 375.22 912.114 378.686C891.984 361.521 868.449 342.095 840.893 326.643C843.693 315.876 846.682 305.123 849.917 294.44C876.844 311.225 899.579 331.572 918.98 348.94C921.022 350.766 923.024 352.556 925.002 354.319C924.618 355.073 924.232 355.831 923.853 356.578ZM838.754 325.456C810.361 309.868 777.743 298.616 740.235 298.365C740.146 285.774 740.066 273.188 740 260.637C781.997 260.758 817.544 274.633 847.84 293.159C844.575 303.871 841.574 314.657 838.754 325.456ZM737.804 298.372C700.607 298.725 670.08 315.52 644.706 331.943C644.1 321.474 643.587 311.053 643.09 300.699C666.778 281.459 696.113 261.192 737.569 260.658C737.635 273.204 737.715 285.786 737.804 298.372ZM642.363 333.466C638.852 335.762 635.436 338.041 632.12 340.256C630.399 341.405 628.703 342.537 627.036 343.644C596.299 364.045 567.771 382.616 536.607 399.846C536.035 396.821 535.54 393.808 535.215 390.822C534.797 386.966 534.475 382.681 534.52 378.135C575.29 355.406 606.715 330.881 630.163 311.4L633.478 308.64C635.845 306.667 638.267 304.648 640.749 302.609C641.243 312.838 641.757 323.127 642.363 333.466ZM532.788 390.89C533.155 394.258 533.727 397.659 534.406 401.076C529.261 403.899 524.056 406.694 518.737 409.446C509.071 414.447 495.615 420.208 481.364 426.307C459.198 435.795 433.701 446.709 413.741 458.522C413.149 458.174 412.575 457.836 411.978 457.486C403.889 452.74 395.388 447.75 386.924 442.564C409.494 430.786 437.822 419.783 463.734 409.722C484.644 401.603 504.395 393.934 517.803 387.078C522.693 384.578 527.427 382.035 532.076 379.475C532.1 383.55 532.407 387.392 532.788 390.89ZM516.074 386.213C502.784 393.009 483.097 400.652 462.255 408.745C436.334 418.81 408.021 429.807 385.35 441.599C378.626 437.457 371.947 433.189 365.528 428.82C383.631 421.538 402.343 414.647 420.651 407.921C455.073 395.276 490.666 382.201 521.639 366.623C526.079 364.39 530.409 362.094 534.677 359.754C532.868 365.934 532.18 371.993 532.092 377.652C526.898 380.539 521.574 383.4 516.074 386.213ZM342.376 488.731C343.839 494.267 347.892 499.907 355.099 505.645C360.257 509.752 366.167 513.414 372.648 516.719C365.291 515.195 357.903 513.691 350.499 512.2C340.349 507.652 331.147 502.452 323.166 496.476C313.846 489.497 307.926 483.135 305.483 477.11C317.855 480.962 330.149 484.851 342.376 488.731ZM377.373 519.036C386.456 523.233 396.603 526.751 407.518 529.724C388.952 525.889 371.64 520.976 356.292 514.689C363.342 516.122 370.364 517.576 377.373 519.036ZM523.628 546.57C523.156 546.677 522.679 546.777 522.213 546.891C517.327 546.62 512.5 546.291 507.746 545.9C507.162 545.77 506.578 545.641 505.993 545.511C511.818 545.894 517.694 546.248 523.628 546.57ZM569.897 552.084C573.512 552.118 577.116 552.135 580.69 552.135C584.799 552.135 588.849 552.111 592.859 552.079C594.453 552.665 596.051 553.245 597.653 553.819C590.77 553.749 583.917 553.647 577.11 553.497C574.707 553.021 572.304 552.55 569.897 552.084ZM653.418 554.81C654.525 555.517 655.647 556.213 656.779 556.904C655.797 556.907 654.802 556.911 653.76 556.916C647.468 556.941 639.726 556.973 631.225 556.958C628.69 556.33 626.151 555.715 623.615 555.109C633.731 555.073 643.7 554.984 653.418 554.81ZM637.767 558.182C643.051 558.182 648.403 558.169 653.779 558.147C655.546 558.139 657.196 558.133 658.789 558.127C660.083 558.895 661.399 559.647 662.724 560.392C661.775 560.515 660.83 560.638 659.887 560.762C655.028 560.732 650.284 560.69 645.691 560.635C642.508 559.809 639.315 558.989 636.113 558.181C636.665 558.181 637.214 558.182 637.767 558.182ZM651.24 561.935C651.118 561.952 650.997 561.969 650.874 561.986C650.802 561.968 650.729 561.949 650.657 561.93C650.852 561.932 651.047 561.934 651.24 561.935ZM673.78 566.124C675.886 567.124 678.038 568.077 680.217 569.003C679.249 568.984 678.267 568.965 677.27 568.943C673.632 567.994 669.94 567.021 666.217 566.036C668.971 566.072 671.496 566.101 673.78 566.124ZM687.748 570.352C689.548 570.37 691.254 570.381 692.824 570.381C693.246 570.381 693.662 570.38 694.065 570.378L695.316 570.373C696.777 570.369 698.262 570.363 699.76 570.357C700.891 570.814 702.009 571.266 703.097 571.705C704.262 572.177 705.365 572.622 706.47 573.068C705.495 573.079 704.49 573.102 703.525 573.109C700.716 573.132 697.998 573.149 695.374 573.16C692.697 572.296 690.082 571.353 687.501 570.368C687.582 570.363 687.665 570.357 687.748 570.352ZM699.324 574.366C700.739 574.357 702.132 574.352 703.563 574.34C705.483 574.326 707.465 574.285 709.421 574.256C710.278 574.6 711.156 574.954 711.97 575.279C709.028 575.316 706.191 575.36 703.479 575.41C702.496 575.188 701.499 574.957 700.5 574.725C700.104 574.612 699.719 574.482 699.324 574.366ZM733.125 578.97C732.518 578.99 731.924 579.014 731.307 579.029C730.909 579.022 730.515 579.016 730.119 579.009C729.986 578.58 729.869 578.149 729.722 577.72C731.869 577.666 733.989 577.593 736.086 577.512C735.252 578.057 734.276 578.522 733.217 578.941C733.188 578.951 733.155 578.96 733.125 578.97ZM740.751 577.311C741.387 577.281 742.028 577.251 742.656 577.22C741.538 577.504 740.416 577.779 739.287 578.044C739.781 577.81 740.265 577.56 740.751 577.311ZM749.911 571.552C750.811 570.886 751.703 570.196 752.589 569.494C755.903 569.367 759.191 569.22 762.441 569.052C761.719 569.697 760.958 570.323 760.16 570.929C756.734 571.154 753.319 571.36 749.911 571.552ZM744.329 567.493C744.42 566.748 744.471 565.992 744.493 565.229C748.137 565.084 751.804 564.918 755.484 564.726C754.393 565.668 753.301 566.589 752.204 567.49C749.656 567.495 747.024 567.496 744.329 567.493ZM744.505 563.996C744.493 562.89 744.423 561.778 744.315 560.666C749.975 560.391 755.607 560.065 761.192 559.679C761.185 559.685 761.178 559.692 761.17 559.698C759.771 560.949 758.381 562.188 756.994 563.407C752.816 563.635 748.646 563.831 744.505 563.996ZM744.188 559.45C744.047 558.274 743.87 557.115 743.68 555.975C750.18 555.568 756.518 555.105 762.688 554.582C764.108 554.579 765.531 554.58 766.96 554.589C765.522 555.829 764.102 557.083 762.691 558.341C756.576 558.78 750.4 559.147 744.188 559.45ZM762.463 553.352C757.984 553.364 753.557 553.423 749.263 553.482C747.224 553.511 745.244 553.533 743.261 553.555C743.228 553.37 743.195 553.177 743.162 552.993C743.119 552.753 743.08 552.533 743.037 552.299C752.931 551.66 762.84 550.862 772.662 549.883C771.462 550.82 770.281 551.781 769.113 552.759C766.918 552.964 764.703 553.162 762.463 553.352ZM742.819 551.074C742.808 551.003 742.796 550.933 742.784 550.862C753.872 550.037 764.647 549.094 775.114 548.027C774.925 548.167 774.731 548.3 774.543 548.44C764.038 549.52 753.423 550.389 742.819 551.074ZM780.17 547.475C790.325 546.392 800.191 545.194 809.771 543.879C800.05 545.433 790.072 546.748 779.962 547.863C780.033 547.734 780.1 547.605 780.17 547.475ZM822.959 540.682C822.556 540.573 822.151 540.467 821.746 540.361C821.804 540.295 821.857 540.228 821.915 540.162C822.308 540.092 822.707 540.025 823.098 539.954C823.619 540.103 824.141 540.249 824.669 540.412C824.097 540.501 823.533 540.594 822.959 540.682ZM859.678 529.298C859.438 529.142 859.179 528.988 858.928 528.833C862.524 527.883 866.059 526.91 869.481 525.893C868.878 526.406 868.275 526.919 867.666 527.429C865.018 528.072 862.355 528.694 859.678 529.298ZM858.369 527.59C861.129 526.44 863.913 525.326 866.734 524.26C869.068 523.614 871.373 522.954 873.642 522.281C873.125 522.739 872.604 523.195 872.082 523.651C867.665 525.023 863.088 526.334 858.369 527.59ZM877.875 521.002C879.933 520.364 881.954 519.71 883.957 519.049C884.035 519.246 884.088 519.441 884.15 519.636C881.649 520.533 879.082 521.404 876.471 522.258C876.939 521.839 877.41 521.422 877.875 521.002ZM978.941 402.785C969.059 390.244 954.863 377.915 940.348 365.32L934.985 360.661C932.573 358.558 930.109 356.378 927.601 354.145C931.162 347.161 934.976 339.913 939.568 332.839C941.826 334.871 944.079 336.877 946.343 338.83C949.356 341.429 952.361 343.996 955.334 346.534C970.97 359.886 985.791 372.55 996.043 385.422C989.918 391.223 984.239 397.071 978.941 402.785ZM925.877 352.606C924.301 351.199 922.712 349.779 921.096 348.333C901.305 330.617 878.072 309.823 850.407 292.797C850.528 292.402 850.638 292.005 850.76 291.611C853.674 282.135 856.718 274.006 860.677 266.735C885.056 281.997 904.887 300.555 923.606 318.088C928.517 322.687 933.253 327.106 937.958 331.377C933.301 338.406 929.449 345.626 925.877 352.606ZM848.357 291.421C848.347 291.456 848.338 291.491 848.326 291.526C817.938 273.182 782.253 259.523 739.993 259.406C739.975 255.997 739.956 252.584 739.94 249.183C739.913 243.561 741.001 238.357 743.038 233.488C792.467 234.098 829.025 247.332 858.779 265.572C854.577 273.1 851.397 281.536 848.357 291.421ZM737.508 249.185C737.525 252.593 737.544 256.012 737.561 259.427C696.003 259.943 666.658 279.446 642.981 298.471C642.706 292.828 642.328 287.37 641.961 282.091C641.75 279.057 641.551 276.059 641.364 273.069C661.862 252.271 686.703 233.582 738.669 233.436C738.952 233.435 739.215 233.435 739.495 233.435C739.892 233.435 740.273 233.451 740.669 233.452C738.602 238.352 737.482 243.571 737.508 249.185ZM639.53 282.135C639.903 287.488 640.291 293.024 640.563 298.749C640.59 299.286 640.615 299.825 640.642 300.363C637.467 302.946 634.389 305.51 631.4 308.002L628.088 310.76C605.051 329.899 574.304 353.918 534.559 376.282C534.749 370.513 535.593 364.363 537.641 358.125C572.3 338.726 601.619 315.377 630.954 284.01L631.42 283.511C633.944 280.812 636.482 278.103 639.073 275.418C639.219 277.645 639.373 279.882 639.53 282.135ZM629.221 282.985L628.756 283.483C600.272 313.94 571.808 336.789 538.451 355.805C539.096 354.093 539.831 352.377 540.678 350.664C542.049 347.893 544.824 344.893 547.505 341.992C548.158 341.286 548.809 340.575 549.451 339.862C583.474 319.498 600.896 297.621 620.607 272.846C622.627 270.304 624.675 267.73 626.767 265.127C629.977 261.128 633.843 257.122 638.308 253.209C638.248 259.779 638.514 266.262 638.915 272.795C635.606 276.163 632.404 279.581 629.221 282.985ZM538.319 350.365C537.128 352.769 536.165 355.176 535.361 357.572C530.333 360.377 525.195 363.1 519.924 365.75C489.085 381.26 453.57 394.307 419.224 406.925C400.914 413.651 382.198 420.542 364.079 427.831C357.99 423.645 352.16 419.368 346.783 415.017C362.688 409.787 378.83 404.768 394.64 399.855C441.704 385.228 490.367 370.103 531.082 349.877C535.532 347.666 539.736 345.439 543.725 343.194C541.538 345.6 539.472 348.036 538.319 350.365ZM302.58 476.206C304.817 482.711 311.025 489.583 321.153 497.167C328.019 502.307 335.799 506.86 344.259 510.946C337.091 509.516 329.905 508.103 322.694 506.716C310.436 501.383 299.287 495.281 289.59 488.285C278.048 479.957 270.928 472.608 268.386 465.797C279.858 469.208 291.254 472.689 302.58 476.206ZM349.217 513.267C361.774 518.868 375.768 523.466 390.781 527.243C368.399 522.647 347.31 516.747 328.571 509.177C335.474 510.521 342.355 511.885 349.217 513.267ZM497.29 544.923C497.151 544.908 497.016 544.892 496.877 544.877C496.977 544.884 497.076 544.89 497.175 544.897C497.212 544.906 497.251 544.914 497.29 544.923ZM558.389 551.909C558.277 552.036 558.207 552.155 558.109 552.279C557.589 552.142 557.068 552.006 556.549 551.869C557.162 551.884 557.775 551.896 558.389 551.909ZM630.598 558.173C633.753 558.955 636.903 559.753 640.047 560.559C633.378 560.461 627.041 560.336 621.043 560.187C618.831 559.497 616.625 558.794 614.428 558.078C619.715 558.129 625.114 558.159 630.598 558.173ZM645.138 561.873C645.904 562.073 646.671 562.271 647.437 562.471C643.204 563.075 639.186 563.674 635.484 564.253C635.214 564.245 634.943 564.238 634.673 564.231C631.604 563.366 628.546 562.479 625.503 561.56C632.049 561.698 638.656 561.799 645.138 561.873ZM660.675 565.957C661.099 566.07 661.527 566.183 661.951 566.295C665.146 567.141 668.32 567.981 671.462 568.807C664.219 568.626 656.589 568.392 649.5 568.156C646.137 567.322 642.789 566.454 639.456 565.551C646.837 565.725 654.13 565.859 660.675 565.957ZM684.054 570.592C684.322 570.698 684.598 570.797 684.867 570.902C684.491 570.806 684.114 570.709 683.737 570.612C683.843 570.606 683.949 570.599 684.054 570.592ZM698.071 575.516C695.669 575.568 693.416 575.622 691.342 575.674C688.658 575.269 685.966 574.847 683.266 574.408C684.182 574.409 685.077 574.412 686.009 574.412C688.411 574.412 690.89 574.405 693.386 574.396C694.961 574.779 696.526 575.154 698.071 575.516ZM706.421 577.639C706.847 577.74 707.28 577.831 707.709 577.929C706.902 577.83 706.092 577.72 705.284 577.618C705.66 577.624 706.038 577.632 706.421 577.639ZM763.378 570.71C764.091 570.119 764.779 569.514 765.431 568.891C766.562 568.827 767.685 568.759 768.804 568.688C767.061 569.377 765.305 570.047 763.538 570.7C763.484 570.703 763.432 570.707 763.378 570.71ZM755.062 567.483C756.207 566.53 757.346 565.553 758.484 564.56C761.376 564.397 764.269 564.22 767.156 564.023C766.21 565.199 765.202 566.345 764.109 567.447C761.217 567.462 758.202 567.475 755.062 567.483ZM759.988 563.239C761.084 562.27 762.182 561.291 763.286 560.305C763.601 560.022 763.919 559.74 764.235 559.458C766.438 559.296 768.633 559.125 770.819 558.943C769.987 560.216 769.129 561.477 768.203 562.707C765.47 562.9 762.73 563.078 759.988 563.239ZM765.736 558.121C767.06 556.944 768.393 555.772 769.742 554.618C770.991 554.633 772.24 554.656 773.488 554.685C772.889 555.674 772.283 556.661 771.661 557.645C769.694 557.811 767.719 557.97 765.736 558.121ZM775.991 554.754C781.043 554.913 786.052 555.202 790.912 555.691C785.482 556.337 779.96 556.905 774.367 557.404C774.917 556.523 775.457 555.639 775.991 554.754ZM772.322 552.458C773.536 551.462 774.766 550.487 776.013 549.543C776.187 549.525 776.363 549.508 776.535 549.49C776.026 550.392 775.501 551.291 774.971 552.188C774.087 552.277 773.214 552.371 772.322 552.458ZM779.238 549.202C791.588 547.86 803.749 546.213 815.513 544.215C814.543 545.23 813.548 546.235 812.529 547.23C801.66 549.046 790.04 550.608 777.667 551.913C778.194 551.01 778.731 550.11 779.238 549.202ZM818.771 543.655C819.969 543.444 821.154 543.223 822.342 543.004C820.386 544.008 818.437 545.013 816.491 546.018C817.26 545.234 818.029 544.45 818.771 543.655ZM828.67 539.78C828.345 539.833 828.017 539.883 827.691 539.935C827.151 539.755 826.612 539.576 826.076 539.409C827.903 539.068 829.708 538.718 831.495 538.363C830.551 538.834 829.609 539.306 828.67 539.78ZM863.518 530.819C863.065 530.919 862.607 531.014 862.154 531.113C862.121 531.086 862.085 531.059 862.052 531.032C862.704 530.844 863.327 530.646 863.972 530.456C863.821 530.577 863.669 530.698 863.518 530.819ZM871.673 526.444C872.42 525.808 873.161 525.167 873.898 524.525C877.521 523.393 881.07 522.231 884.49 521.02C884.53 521.337 884.494 521.647 884.486 521.959C881.032 523.331 877.45 524.66 873.715 525.933C873.038 526.107 872.353 526.273 871.673 526.444ZM994.902 455.13C1004.17 445.26 1009.35 436.037 1011.39 427.245C1017.79 422.072 1024.37 416.939 1031.18 411.91C1029 421.271 1023.08 431.284 1012.35 442.319C1001.91 453.047 990.006 462.686 976.921 471.351C983.553 466.195 989.579 460.799 994.902 455.13ZM997.55 384.007C987.265 371.402 972.737 358.981 957.425 345.906C954.452 343.369 951.449 340.804 948.441 338.207C945.823 335.948 943.216 333.615 940.6 331.247C944.315 325.697 948.573 320.293 953.591 315.236C955.588 316.991 957.586 318.72 959.593 320.4C965.531 325.371 971.481 330.172 977.236 334.814C991.871 346.62 1005.46 357.596 1015.46 368.637C1009.1 373.618 1003.14 378.786 997.55 384.007ZM939.015 329.809C934.666 325.844 930.28 321.75 925.745 317.503C906.68 299.647 886.47 280.741 861.482 265.271C865.038 259.044 869.343 253.451 874.906 248.173C897.278 262.753 915.79 280.125 933.298 296.58C939.754 302.649 945.954 308.463 952.143 313.953C947.066 318.959 942.772 324.311 939.015 329.809ZM859.608 264.125C829.782 246.043 793.113 232.954 743.588 232.265C746.69 225.475 751.669 219.345 758.15 213.675C807.545 214.336 843.784 228.234 873.263 247.1C867.61 252.367 863.227 257.941 859.608 264.125ZM741.206 232.23C740.633 232.226 740.08 232.204 739.502 232.204C739.222 232.204 738.935 232.204 738.655 232.205C686.991 232.35 661.66 250.178 641.208 270.49C640.841 264.045 640.625 257.638 640.76 251.126C665.136 230.921 705.509 213.717 753.935 213.62C754.123 213.619 754.304 213.619 754.494 213.619C754.89 213.619 755.269 213.636 755.662 213.637C749.27 219.322 744.315 225.465 741.206 232.23ZM753.926 212.389C705.944 212.484 665.784 229 640.827 248.766C640.928 245.809 641.127 242.816 641.407 239.791C676.265 213.959 735.413 189.165 798.474 187.776C782.215 195.304 767.798 203.283 757.066 212.431C756.014 212.421 754.989 212.387 753.926 212.389ZM638.331 250.791C632.905 255.322 628.262 259.996 624.515 264.662C622.421 267.268 620.375 269.843 618.351 272.386C599.741 295.78 583.193 316.577 552.721 335.915C554.004 334.165 554.99 332.433 555.364 330.764C555.374 330.714 555.391 330.677 555.401 330.629C578.381 316.289 589.266 300.645 600.665 284.213C608.538 272.863 616.68 261.127 629.238 249.712C632.144 247.07 635.345 244.41 638.796 241.754C638.556 244.798 638.397 247.81 638.331 250.791ZM547.387 339.189C541.847 342.498 535.882 345.767 529.377 348.998C488.861 369.127 440.317 384.214 393.369 398.806C377.559 403.719 361.419 408.738 345.503 413.971C341.121 410.367 337.068 406.714 333.439 403.024C346.715 399.543 360.098 396.152 373.24 392.838C433.189 377.723 495.18 362.092 543.415 337.415C546.557 335.808 549.463 334.176 552.245 332.532C551.228 334.682 549.406 336.937 547.387 339.189ZM265.463 464.928C267.762 472.193 275.194 480.041 287.599 488.992C296.142 495.156 305.795 500.632 316.321 505.505C309.78 504.262 303.223 503.039 296.643 501.84C281.93 495.657 268.445 488.615 256.585 480.536C247.519 474.359 232.691 464.248 227.85 454.197C240.491 457.657 253.025 461.248 265.463 464.928ZM321.434 507.791C337.8 514.884 356.105 520.612 375.609 525.239C349.257 519.848 324.546 512.963 302.455 504.216C308.798 505.39 315.126 506.579 321.434 507.791ZM550.683 551.705C552.114 552.087 553.545 552.467 554.979 552.846C549.672 552.657 544.383 552.453 539.128 552.215C538.083 552.128 537.059 552.033 536.036 551.938C534.526 551.597 533.177 551.234 532.006 550.846C538.127 551.228 544.379 551.507 550.683 551.705ZM578.589 555.112C580.456 555.484 582.32 555.859 584.185 556.236C579.821 556.086 575.536 555.907 571.389 555.692C570.367 555.436 569.349 555.176 568.33 554.917C571.728 555.004 575.155 555.067 578.589 555.112ZM585.521 555.18C588.02 555.196 590.517 555.205 593.005 555.205C595.851 555.205 598.675 555.191 601.487 555.174C601.929 555.33 602.371 555.487 602.815 555.641C601.675 555.984 600.597 556.32 599.579 556.648C596.999 556.596 594.423 556.538 591.854 556.469C589.745 556.037 587.633 555.608 585.521 555.18ZM620.457 561.445C623.353 562.344 626.262 563.222 629.184 564.073C628.942 564.066 628.704 564.058 628.463 564.051C624.079 563.149 619.666 562.233 615.23 561.31C616.961 561.358 618.704 561.403 620.457 561.445ZM673.141 570.087C669.798 570.338 666.465 570.613 663.141 570.897C660.877 570.477 658.606 570.051 656.329 569.616C661.929 569.792 667.666 569.956 673.141 570.087ZM679.451 570.891C682.492 571.677 685.493 572.442 688.452 573.18C683.86 573.186 679.627 573.176 675.766 573.153C673.13 572.7 670.487 572.234 667.836 571.754C671.698 571.442 675.571 571.156 679.451 570.891ZM677.476 575.471C674.253 575.096 671.032 574.715 667.819 574.312C669.004 574.326 670.217 574.339 671.464 574.35C673.464 574.737 675.468 575.111 677.476 575.471ZM749.78 578.062C751.169 577.604 752.483 577.106 753.724 576.571C754.404 576.527 755.102 576.482 755.762 576.437C757.127 576.411 758.462 576.38 759.759 576.343C758.951 576.538 758.107 576.7 757.282 576.881C754.808 577.312 752.304 577.702 749.78 578.062ZM775.133 573.086C777.244 572.296 779.308 571.47 781.303 570.588C782.748 570.466 784.188 570.342 785.629 570.215C782.18 571.236 778.683 572.194 775.133 573.086ZM784.593 569.052C784.955 568.877 785.334 568.715 785.692 568.537C787.461 568.527 789.141 568.519 790.638 568.516C788.633 568.704 786.609 568.874 784.593 569.052ZM780.129 569.447C776.248 569.772 772.355 570.081 768.456 570.365C769.926 569.798 771.387 569.217 772.84 568.626C774.66 568.613 776.439 568.601 778.123 568.589C779.45 568.579 780.742 568.57 782.009 568.561C781.382 568.856 780.768 569.161 780.129 569.447ZM777.091 566.862C780.55 565.391 783.968 563.866 787.349 562.297C789.869 562.033 792.356 561.745 794.823 561.442C792.42 563 789.916 564.489 787.303 565.897C784.011 566.258 780.601 566.578 777.091 566.862ZM772.43 567.213C771.42 567.284 770.403 567.352 769.381 567.417C768.56 567.422 767.721 567.428 766.876 567.432C767.981 566.266 769.001 565.059 769.96 563.822C774.243 563.51 778.504 563.16 782.71 562.759C779.322 564.297 775.896 565.785 772.43 567.213ZM770.944 562.512C771.852 561.268 772.709 560.001 773.534 558.719C781.214 558.051 788.767 557.252 796.142 556.305C796.182 556.311 796.22 556.317 796.26 556.323C792.932 557.968 789.575 559.585 786.187 561.163C781.183 561.681 776.085 562.128 770.944 562.512ZM825.885 542.941C827.086 543.303 828.279 543.679 829.464 544.07C826.424 544.702 823.312 545.31 820.133 545.895C822.045 544.909 823.963 543.924 825.885 542.941ZM833.738 538.97C834.868 538.407 835.999 537.848 837.134 537.291C844.183 536.073 851.16 534.763 858.022 533.338C853.061 534.789 847.934 536.138 842.671 537.397C839.713 537.93 836.758 538.464 833.738 538.97ZM867.51 529.916C867.845 529.642 868.18 529.368 868.513 529.093C870.698 528.41 872.841 527.712 874.939 526.998C876.904 526.494 878.858 525.975 880.807 525.45C877.821 526.673 874.753 527.852 871.585 528.975C870.232 529.295 868.871 529.606 867.51 529.916ZM964.233 481.156C965.966 480.287 967.706 479.422 969.456 478.565C965.634 480.695 961.748 482.762 957.798 484.765C959.979 483.581 962.117 482.374 964.233 481.156ZM1017.05 367.406C1007.04 356.557 993.668 345.755 979.295 334.16C973.547 329.522 967.602 324.725 961.673 319.763C959.407 317.866 957.152 315.916 954.894 313.922C958.972 309.972 963.582 306.274 968.805 302.907C970.318 304.144 971.826 305.379 973.389 306.638C982.7 314.142 994.106 321.354 1005.14 328.329C1017.24 335.982 1029.65 343.859 1039.48 352.211C1031.48 356.928 1024.01 362.048 1017.05 367.406ZM874.546 245.914C845.101 227.189 808.888 213.372 759.572 212.465C770.467 203.342 785.218 195.383 802.14 187.706C802.291 187.705 802.44 187.698 802.589 187.697C803.153 187.694 803.706 187.693 804.261 187.693C862.133 187.693 880.576 205.083 898.061 229.972C888.36 235.213 880.713 240.407 874.546 245.914ZM851.601 165.5C847.72 167.083 843.855 168.647 840.016 170.2C826.657 175.607 813.489 180.938 801.268 186.491C737.617 187.177 677.654 211.578 641.617 237.473C641.887 234.995 642.209 232.495 642.629 229.95C643.047 227.406 643.185 224.867 643.046 222.333C696.854 189.155 787.96 157.909 873.963 156.515C866.464 159.494 858.983 162.487 851.601 165.5ZM225.017 453.419C229.419 464.081 245.132 474.796 254.635 481.27C265.247 488.501 277.124 494.922 290.019 500.635C283.929 499.543 277.819 498.477 271.697 497.429C254.075 490.226 238.295 482.214 224.337 473.371C213.201 466.318 196.561 455.769 192.297 444.925C203.289 447.637 214.193 450.478 225.017 453.419ZM295.274 502.898C320.928 513.657 350.363 521.748 381.916 527.822C381.723 527.802 381.527 527.78 381.333 527.759C341.597 520.583 307.073 511.252 277.532 499.737C283.462 500.77 289.375 501.825 295.274 502.898ZM559.491 554.636C560.39 554.671 561.295 554.701 562.199 554.732C562.92 554.918 563.644 555.1 564.365 555.285C562.696 555.177 561.058 555.063 559.458 554.941C559.448 554.844 559.485 554.736 559.491 554.636ZM570.785 556.916C572.293 557.293 573.805 557.665 575.317 558.037C569.819 557.558 565.637 557.028 562.954 556.456C565.471 556.624 568.086 556.776 570.785 556.916ZM577.597 557.231C581.988 557.412 586.564 557.562 591.303 557.684C592.407 557.91 593.511 558.137 594.613 558.365C593.878 558.643 593.215 558.911 592.61 559.169C589.333 559.005 586.283 558.83 583.446 558.645C581.494 558.178 579.544 557.708 577.597 557.231ZM592.534 560.782C592.722 560.689 592.98 560.579 593.205 560.477C597.811 560.709 602.679 560.908 607.72 561.079C608.808 561.305 609.897 561.531 610.984 561.758C614.269 562.442 617.534 563.12 620.791 563.795C613.554 563.534 607.022 563.235 601.932 562.903C598.793 562.211 595.66 561.503 592.534 560.782ZM631.982 566.1C634.865 566.69 637.737 567.274 640.599 567.848C634.188 567.619 628.73 567.409 625.178 567.269C626.909 566.944 629.229 566.547 631.982 566.1ZM664.992 573.045C661.819 572.998 659.088 572.941 656.852 572.878C656.593 572.843 656.331 572.811 656.073 572.776C657.862 572.608 659.668 572.457 661.468 572.299C662.641 572.553 663.816 572.799 664.992 573.045ZM788.071 567.292C788.253 567.197 788.437 567.102 788.619 567.006C792.727 566.545 796.636 566.015 800.319 565.415C798.524 566.056 796.715 566.682 794.893 567.292C793.213 567.277 790.996 567.279 788.071 567.292ZM800.92 559.378C801.77 558.77 802.605 558.155 803.428 557.531C804.111 557.669 804.797 557.802 805.467 557.953C806.176 558.112 806.853 558.244 807.529 558.375C805.361 558.728 803.159 559.063 800.92 559.378ZM797.182 559.886C795.095 560.158 792.982 560.413 790.848 560.656C793.568 559.363 796.264 558.044 798.944 556.713C799.664 556.828 800.37 556.958 801.08 557.085C799.81 558.038 798.514 558.973 797.182 559.886ZM800.885 555.749C800.96 555.712 801.035 555.675 801.109 555.638C801.866 555.532 802.62 555.424 803.372 555.315C803.072 555.554 802.76 555.787 802.455 556.023C801.934 555.928 801.411 555.838 800.885 555.749ZM804.644 553.853C805.088 553.628 805.534 553.404 805.975 553.179C805.746 553.373 805.514 553.566 805.282 553.759C805.07 553.791 804.856 553.821 804.644 553.853ZM812.699 549.732C813.889 549.119 815.079 548.506 816.263 547.893C821.659 546.957 826.854 545.954 831.871 544.89C833.931 545.612 835.961 546.381 837.96 547.198C828.824 549.588 819.047 551.565 808.813 553.205C810.144 552.065 811.442 550.909 812.699 549.732ZM840.282 546.569C838.387 545.779 836.467 545.032 834.519 544.328C840.225 543.076 845.673 541.738 850.873 540.317C848.106 542.258 845.277 544.154 842.382 545.999C841.692 546.195 840.981 546.378 840.282 546.569ZM832.167 543.498C830.675 542.988 829.169 542.503 827.651 542.039L827.797 541.965C833.151 540.911 838.395 539.773 843.516 538.551C848.008 537.743 852.43 536.905 856.783 536.037C855.901 536.696 855.011 537.351 854.116 538.002C847.277 539.991 839.951 541.821 832.167 543.498ZM860.757 535.26C861.381 535.132 861.981 534.992 862.601 534.863C862.659 535.014 862.734 535.164 862.771 535.315C861.573 535.711 860.356 536.101 859.125 536.487C859.67 536.078 860.218 535.672 860.757 535.26ZM933.561 497.38C952.226 489.613 969.276 480.96 984.603 471.407C987.823 469.943 991.08 468.502 994.374 467.083C975.826 478.618 955.172 488.923 932.488 497.973C932.845 497.775 933.204 497.578 933.561 497.38ZM992.71 466.183C1008.57 455.549 1022.47 443.9 1034.35 431.253C1047.09 417.674 1054.95 405.116 1057.94 393.636C1064.38 389.621 1071.02 385.755 1077.9 382.084C1073.5 395.149 1062.94 408.346 1052.2 420.007C1037.91 435.528 1021.05 449.663 1001.77 462.389C998.716 463.635 995.692 464.897 992.71 466.183ZM1078.56 379.961C1071.64 383.577 1064.95 387.381 1058.48 391.346C1061.16 378.361 1057.45 366.798 1047.29 356.76C1045.78 355.269 1044.16 353.799 1042.48 352.34C1048.86 348.633 1055.59 345.197 1062.7 342.11C1063.4 342.607 1064.12 343.098 1064.81 343.602C1079.58 354.437 1082.23 367.091 1078.56 379.961ZM1041.15 351.231C1031.31 342.94 1019.02 335.14 1007.03 327.559C996.046 320.611 984.685 313.427 975.449 305.983C973.729 304.597 972.064 303.236 970.404 301.876C970.607 301.752 970.793 301.619 970.997 301.495C975.022 299.061 979.9 296.671 985.289 294.33C986.455 295.296 987.592 296.261 988.807 297.232C1000.41 306.505 1015.06 314.492 1029.22 322.215C1040.2 328.206 1051.51 334.382 1061.27 341.1C1054.21 344.163 1047.51 347.565 1041.15 351.231ZM969.131 300.705C969.098 300.725 969.07 300.745 969.038 300.765C937.655 274.942 916.945 253.701 902.406 232.511C901.888 231.756 901.37 231.009 900.852 230.267C905.598 227.737 910.824 225.194 916.625 222.595C924.566 219.038 932.989 215.521 941.563 212.053C941.506 213.507 941.458 214.952 941.437 216.379C941.015 244.296 954.214 268.199 984.001 293.267C978.398 295.69 973.321 298.171 969.131 300.705ZM943.869 216.389C943.895 214.634 943.963 212.85 944.04 211.057C951.381 208.105 958.809 205.188 966.132 202.315C974.38 199.08 982.681 195.818 990.902 192.495C989.651 194.619 988.579 196.539 987.787 198.203C971.867 231.648 976.696 259.645 1003.03 285.858C997.042 288.002 991.239 290.205 985.878 292.463C956.475 267.659 943.45 244.001 943.869 216.389ZM912.833 141.248C901.1 145.826 889.14 150.5 877.213 155.225C790.431 155.86 697.982 187.059 642.881 220.49C642.159 213.836 639.504 207.207 634.894 200.58C719.712 158.356 856.471 125.2 962.424 121.685C945.884 128.331 929.194 134.866 912.833 141.248ZM555.989 321.574C558.575 324.355 558.251 324.552 557.268 325.048C556.586 325.391 555.665 325.87 554.819 326.791C553.975 327.337 553.148 327.887 552.26 328.423C549.883 329.857 547.42 331.246 544.912 332.611C548.984 329.911 552.28 327.032 554.506 323.951C555.067 323.176 555.545 322.379 555.989 321.574ZM189.565 444.26C193.354 455.717 210.831 466.789 222.436 474.14C235.218 482.237 249.538 489.63 265.355 496.361C258.634 495.232 251.896 494.129 245.133 493.064C225.982 485.191 208.589 476.492 193.038 466.943L192.64 466.697C179.757 458.789 162.123 447.956 158.378 437.065C168.857 439.331 179.25 441.738 189.565 444.26ZM270.485 498.523C298.14 509.798 330.324 519.075 367.184 526.398C363.52 526.072 359.846 525.772 356.164 525.491C316.52 517.509 281.248 507.409 250.448 495.206C257.146 496.283 263.827 497.386 270.485 498.523ZM380.699 528.951C402.059 532.803 424.918 536.034 449.289 538.655C447.146 538.685 445.004 538.734 442.868 538.805C416.19 535.818 390.984 532.105 367.286 527.659C371.77 528.06 376.241 528.489 380.699 528.951ZM457.913 539.875C459.561 540.145 461.227 540.4 462.899 540.65C463.538 540.8 464.185 540.944 464.832 541.088C460.699 540.698 456.624 540.28 452.558 539.858C454.341 539.849 456.127 539.857 457.913 539.875ZM557.997 556.094C558.42 556.337 559.018 556.568 559.699 556.791C557.885 556.454 556.08 556.116 554.27 555.779C555.483 555.888 556.726 555.994 557.997 556.094ZM582.862 559.869C584.892 560.354 586.923 560.836 588.96 561.312C588.855 561.447 588.777 561.579 588.761 561.7C588.745 561.807 588.776 561.948 588.893 562.099C582.631 560.989 576.387 559.864 570.168 558.724C573.82 559.158 578.099 559.538 582.862 559.869ZM600.897 564.019C602.082 564.28 603.262 564.548 604.448 564.806C602.664 564.502 600.883 564.195 599.103 563.886C599.674 563.932 600.287 563.975 600.897 564.019ZM630.274 568.702C635.094 568.887 641.329 569.117 648.151 569.349C649.153 569.545 650.15 569.738 651.148 569.932C653.246 570.439 655.353 570.929 657.462 571.408C655.228 571.613 652.989 571.816 650.773 572.036C647.439 571.569 644.11 571.095 640.789 570.605C637.277 569.995 633.772 569.358 630.274 568.702ZM827.389 554.258C822.4 555.574 817.007 556.731 811.297 557.741C809.803 557.506 808.168 557.213 806.45 556.828C805.905 556.705 805.345 556.599 804.794 556.485C805.508 555.926 806.21 555.361 806.906 554.791C817.988 553.091 828.57 551.008 838.438 548.457C836.87 549.411 835.291 550.354 833.687 551.278C831.608 552.286 829.505 553.278 827.389 554.258ZM855.836 538.913C857.016 538.568 858.186 538.218 859.339 537.864C856.396 539.497 853.42 541.122 850.411 542.732C852.246 541.478 854.054 540.205 855.836 538.913ZM864.963 534.569C864.936 534.502 864.923 534.435 864.893 534.368C865.255 534.291 865.612 534.212 865.973 534.134C865.845 534.208 865.715 534.281 865.586 534.354C865.379 534.426 865.172 534.498 864.963 534.569ZM886.236 524.786C886.621 524.617 886.984 524.438 887.366 524.267C886.933 524.563 886.499 524.86 886.062 525.156C886.132 525.034 886.174 524.908 886.236 524.786ZM903.998 514.672C904.679 514.31 905.339 513.941 906.007 513.574C910.168 512.904 914.418 512.374 918.764 511.995C911.959 514.489 905.04 516.839 898.003 519.039C900.491 517.642 902.478 516.183 903.998 514.672ZM909.119 511.818C911.86 510.219 914.487 508.58 916.956 506.885C917.292 506.654 917.577 506.411 917.902 506.178C919.298 505.398 920.689 504.617 922.031 503.816C922.496 503.554 922.961 503.295 923.426 503.033C953.523 491.834 980.311 478.566 1003.55 463.244C1009.72 460.729 1016.05 458.301 1022.55 455.964C992.933 478.375 959.653 496.562 922.927 510.44C918.211 510.729 913.613 511.194 909.119 511.818ZM1063.13 340.304C1053.32 333.557 1042 327.375 1031 321.378C1016.91 313.695 1002.34 305.75 990.86 296.573C989.582 295.552 988.384 294.538 987.162 293.521C992.454 291.283 998.209 289.096 1004.15 286.964C1005.25 288.033 1006.37 289.101 1007.55 290.165C1021.3 302.636 1038.83 310.855 1057.39 319.555C1066.29 323.727 1075.44 328.024 1084.19 332.853C1076.83 334.983 1069.82 337.488 1063.13 340.304ZM1005.03 285.14C979.12 259.246 974.409 231.565 990.153 198.491C991.139 196.42 992.566 193.938 994.248 191.141C1008.91 185.162 1023.24 178.963 1036.38 172.309C1035.75 173.035 1035.17 173.715 1034.7 174.32C1004.39 213.174 1002.12 246.053 1027.68 277.485C1020.24 279.933 1012.53 282.488 1005.03 285.14ZM995.525 189.03C995.991 188.267 996.466 187.491 996.958 186.688C1008.27 168.225 1025.36 140.322 1005.46 127.367C998.069 122.557 986.054 120.206 969.807 120.291C977.436 117.203 985.027 114.096 992.505 110.954C996.241 109.385 1000.29 107.729 1004.54 105.991C1018.78 100.164 1035.32 93.3956 1049.91 85.8901C1064.86 85.9353 1075.36 88.2051 1081.01 92.6742C1099.41 107.227 1066.05 141.523 1046.12 162.014C1043.6 164.604 1041.35 166.925 1039.44 168.954C1025.92 176.085 1010.95 182.69 995.525 189.03ZM1003.01 105.033C998.752 106.775 994.697 108.435 990.953 110.007C982.674 113.485 974.252 116.919 965.793 120.332C859.18 123.23 720.191 156.617 633.986 199.305C628.285 191.531 619.885 183.759 608.761 175.95C671.25 150.897 743.029 133.546 800.553 120.933C876.632 104.25 965.294 87.0605 1046.46 85.8924C1032.39 93.007 1016.64 99.4566 1003.01 105.033ZM632.091 200.25C628.132 202.235 624.247 204.231 620.527 206.253C583.824 226.198 561.785 247.623 555.024 269.933C552.868 277.044 554.098 285.244 555.287 293.173C556.63 302.114 557.988 311.305 554.639 319.199C548.958 317.215 536.897 314.569 521.897 311.67C519.872 306.806 517.483 301.996 515.134 297.321C508.222 283.567 501.692 270.574 504.143 256.215C508.296 231.876 534.613 208.987 584.601 186.239C591.845 182.943 599.3 179.79 606.869 176.727C618.066 184.598 626.475 192.426 632.091 200.25ZM334.574 382.441C329.649 383.243 324.675 384.054 319.681 384.871C319.143 383.824 318.661 382.775 318.218 381.725C318.222 381.725 318.226 381.724 318.231 381.724C340.136 379.331 365.951 376.511 391.766 372.86C372.664 376.236 353.466 379.367 334.574 382.441ZM155.73 436.499C158.998 447.965 177.384 459.266 190.764 467.48L191.162 467.726C205.556 476.564 221.627 484.704 239.278 492.146C232.41 491.086 225.515 490.07 218.604 489.084C198.889 480.918 180.195 471.724 162.863 461.382L161.536 460.591C148 452.522 129.634 441.563 126.564 430.684C136.365 432.488 146.083 434.437 155.73 436.499ZM244.353 494.23C274.38 506.453 308.879 516.694 347.609 524.88C343.096 524.579 338.57 524.314 334.027 524.087C295.348 515.724 257.889 504.915 223.417 491.042C230.418 492.064 237.395 493.133 244.353 494.23ZM356.786 526.783C365.856 528.593 375.129 530.304 384.644 531.894C400.977 534.624 417.989 537.029 435.627 539.116C432.904 539.267 430.189 539.462 427.478 539.684C398.837 536.152 370.102 531.585 341.938 525.76C346.904 526.059 351.853 526.401 356.786 526.783ZM443.594 540.019C453.953 541.176 464.515 542.229 475.295 543.167C478.839 543.786 482.473 544.35 486.195 544.856C487.867 545.253 489.586 545.629 491.348 545.986C472.422 544.555 453.223 542.739 433.954 540.464C437.159 540.267 440.372 540.119 443.594 540.019ZM520.598 551.264C518.471 551.142 516.362 551.003 514.244 550.872C514.662 550.707 515.069 550.528 515.492 550.37C517.134 550.688 518.844 550.984 520.598 551.264ZM861.885 538.275C860.824 539.455 858.894 540.556 856.033 541.603C855.851 541.67 855.661 541.731 855.478 541.798C857.631 540.629 859.768 539.455 861.885 538.275ZM867.207 535.284C869.905 534.348 872.516 533.384 875.04 532.391C871.175 534.845 867.227 537.262 863.197 539.628C864.46 538.605 865.146 537.521 865.263 536.385C865.915 536.018 866.559 535.651 867.207 535.284ZM894.201 521.631C904.323 518.592 914.212 515.257 923.861 511.624C925.86 511.509 927.872 511.414 929.913 511.365C917.205 516.115 904.125 520.354 890.658 524.089C891.848 523.271 893.028 522.452 894.201 521.631ZM1031.28 451.443C1046.83 439.114 1061.34 425.598 1074.76 410.895L1076.17 409.343C1086.58 397.965 1099.78 383.52 1104.77 369.386C1111.63 366.552 1118.71 363.921 1126.04 361.545C1120.69 373.622 1108.61 386.113 1099.01 396.041C1096.96 398.159 1095.01 400.167 1093.26 402.04C1077.7 418.662 1061.32 433.76 1044.05 447.38C1039.71 448.695 1035.46 450.048 1031.28 451.443ZM1105.36 367.549C1109 355.521 1106.33 343.823 1090.47 334.556C1089.67 334.09 1088.86 333.638 1088.06 333.182C1095.16 331.239 1102.58 329.656 1110.35 328.492C1111.53 328.99 1112.68 329.504 1113.77 330.053C1129.32 337.901 1131.15 348.651 1126.74 359.881C1119.38 362.207 1112.25 364.767 1105.36 367.549ZM1065.47 276.712C1074.1 287.585 1083.03 298.827 1094.99 308.198C1103.91 315.188 1113.09 318.173 1122.81 321.333C1126.38 322.495 1130.04 323.688 1133.84 325.118C1125.88 325.387 1118.23 326.073 1110.9 327.125C1105.93 325.121 1100.31 323.453 1094.82 321.828C1087.36 319.614 1079.63 317.324 1073.53 314.189C1054.57 304.457 1042.29 291.343 1032.28 279.814C1031.74 279.195 1031.23 278.574 1030.72 277.954C1030.84 277.914 1030.97 277.873 1031.09 277.833C1041.13 274.528 1050.63 271.399 1058.75 268.368C1060.99 271.086 1063.22 273.876 1065.47 276.712ZM1057.8 267.193C1049.63 270.261 1039.98 273.44 1029.76 276.8C1029.77 276.799 1029.76 276.801 1029.76 276.8C1004.64 245.741 1006.97 213.222 1036.96 174.772C1038.02 173.415 1039.58 171.675 1041.46 169.667C1050.49 164.895 1058.87 159.883 1066.32 154.551C1031.09 196.714 1028.46 231.525 1057.8 267.193ZM1090.06 54.123C1107.12 54.123 1118.91 56.6417 1125.11 61.6215C1145.36 77.8915 1105.04 116.584 1080.95 139.702C1076.28 144.183 1072.35 147.95 1069.56 150.886L1068.71 150.605C1061.73 156.009 1053.73 161.079 1045.05 165.908C1046.09 164.833 1047.18 163.716 1048.3 162.558C1068.46 141.833 1102.2 107.148 1083.06 92.0104C1077.23 87.4039 1066.85 84.9574 1052.22 84.678C1069.7 75.4562 1083.94 65.1591 1087.34 54.1506C1088.25 54.1371 1089.17 54.123 1090.06 54.123ZM817.219 89.7799C896.911 74.7912 995.978 56.1639 1084.86 54.1993C1081.31 65.1456 1066.66 75.4386 1048.88 84.6551C1048.35 84.6569 1047.86 84.6375 1047.31 84.6446C965.479 85.7028 876.162 103.011 799.587 119.803C741.948 132.442 670.025 149.828 607.34 174.949C595.395 166.733 580.415 158.475 562.382 150.132C642.607 124.258 731.867 105.834 817.219 89.7799ZM465.318 299.729C463.739 298.257 462.144 296.781 460.541 295.302C439.846 276.171 418.445 256.388 422.622 233.968C428.769 200.931 486.201 176.637 535.546 159.162C543.666 156.286 551.933 153.525 560.267 150.819C578.434 159.2 593.48 167.487 605.445 175.727C597.809 178.815 590.286 181.997 582.977 185.323C532.506 208.29 505.928 231.445 501.721 256.11C499.235 270.676 506.118 284.376 512.775 297.624C514.993 302.039 517.259 306.574 519.204 311.153C506.035 308.638 490.87 305.956 475.891 303.364C471.844 302.665 468.778 302.134 467.677 301.923C467.627 301.877 467.579 301.831 467.529 301.785L465.318 299.729ZM317.28 377.683C366.955 372.426 423.261 366.469 464.166 351.813C504.133 337.496 488.171 321.008 469.418 303.542C470.811 303.786 472.665 304.107 475.106 304.529C484.385 306.135 502.846 309.33 519.786 312.586C520.099 313.355 520.432 314.122 520.722 314.892C536.478 356.622 399.544 371.582 317.725 380.519C317.368 379.593 317.05 378.665 316.772 377.736C316.944 377.718 317.108 377.701 317.28 377.683ZM108.003 410.665C138.416 395.017 199.183 389.401 248.008 384.889C261.347 383.657 273.945 382.492 284.819 381.227C294.361 380.117 304.14 379.074 314.39 377.989C314.67 378.92 314.99 379.85 315.349 380.78C300.163 382.439 286.998 383.892 276.803 385.303C270.089 386.233 261.941 387.216 253.314 388.256C210.392 393.43 151.607 400.517 130.532 416.343C125.126 420.402 123.237 424.628 123.715 428.866C114.675 427.237 105.566 425.727 96.3835 424.35C96.2223 419.674 99.4871 415.047 108.003 410.665ZM133.989 456.824L132.102 455.738C117.066 447.096 98.3037 436.297 96.5137 425.654C105.727 427.045 114.869 428.568 123.942 430.213C126.56 441.632 145.654 453.025 159.684 461.388L161.01 462.178C177.212 471.847 194.606 480.509 212.897 488.278C206.344 487.364 199.778 486.481 193.187 485.643C171.846 476.826 152.04 467.222 133.989 456.824ZM197.766 487.514C204.354 488.373 210.921 489.269 217.471 490.202C251.35 504.202 288.215 515.181 326.358 523.74C322.342 523.578 318.317 523.439 314.277 523.339C271.747 513.598 232.709 501.617 197.766 487.514ZM333.419 525.295C362.403 531.549 392.057 536.44 421.649 540.219C418.979 540.492 416.316 540.809 413.658 541.158C381.124 536.78 350.024 531.302 320.558 524.758C324.858 524.901 329.144 525.083 333.419 525.295ZM427.391 540.942C453.203 544.116 478.927 546.455 504.077 548.137C505.386 548.321 506.71 548.497 508.05 548.665C509.593 549.08 511.204 549.475 512.9 549.841C512.217 550.111 511.528 550.373 510.86 550.664C479.009 548.64 448.159 545.695 418.503 541.821C421.457 541.48 424.42 541.191 427.391 540.942ZM806.485 566.037C810.117 564.617 813.667 563.119 817.133 561.543C818.719 561.018 819.76 560.595 820.102 560.16C823.763 558.426 827.333 556.611 830.814 554.72C833.03 554.098 835.181 553.451 837.214 552.759C838.87 552.195 840.591 551.369 842.253 550.569C843.069 550.177 843.884 549.784 844.691 549.424L845.704 548.972L844.71 548.51C844.363 548.348 844.01 548.197 843.661 548.038C845.159 547.272 846.649 546.502 848.129 545.726C851.332 544.742 854.447 543.704 857.458 542.601C858.196 542.33 858.868 542.051 859.504 541.768C843.225 551.072 825.599 559.475 806.485 566.037ZM883.837 528.686C884.987 527.925 886.131 527.162 887.266 526.396C903.411 522.081 919.008 517.062 934.077 511.32C935.841 511.319 937.62 511.34 939.416 511.391C922.178 517.884 903.696 523.731 883.837 528.686ZM942.316 510.277C940.589 510.202 938.875 510.152 937.177 510.124C976.895 494.655 1012.95 474.136 1045.78 448.291C1050.29 446.928 1054.89 445.608 1059.59 444.338C1029.07 467.975 990.721 491.686 942.316 510.277ZM1123.69 386.247C1120.28 389.448 1117.07 392.472 1114.39 395.204C1100.27 409.587 1083.16 425.824 1062.36 442.18C1057.69 443.401 1053.14 444.678 1048.66 445.99C1065.04 432.863 1080.63 418.41 1095.46 402.567C1097.21 400.699 1099.15 398.695 1101.19 396.582C1111.17 386.267 1123.77 373.228 1128.91 360.651C1136.13 358.398 1143.58 356.384 1151.3 354.641C1145.93 365.324 1133.87 376.677 1123.69 386.247Z" fill="white"/>
</svg>
