<svg width="1201" height="640" viewBox="0 0 1201 640" fill="none" xmlns="http://www.w3.org/2000/svg">
<rect width="1200.23" height="638.879" transform="matrix(1 -0.000934228 0.00119951 0.999999 0 1.12128)" fill="#FF7F50"/>
<path d="M610.453 622.64C609.367 622.64 608.292 622.638 607.205 622.635C533.765 622.401 461.619 614.304 392.771 598.569C326.385 583.397 266.319 561.913 214.241 534.714C162.062 507.463 120.961 476.068 92.0796 441.403C62.0281 405.333 46.791 367.499 46.791 328.95C46.791 290.402 62.0281 252.569 92.0796 216.499C120.961 181.833 162.062 150.439 214.241 123.187C266.319 95.9887 326.385 74.5047 392.771 59.3327C461.619 43.5974 533.765 35.5005 607.205 35.2668C680.737 35.0222 752.86 42.7377 821.55 58.1683C887.567 72.9986 947.363 94.2283 999.277 121.269C1051.76 148.604 1093.11 180.263 1122.19 215.365C1152.35 251.767 1167.64 289.983 1167.64 328.95C1167.64 367.918 1152.35 406.134 1122.19 442.536C1093.11 477.638 1051.76 509.296 999.277 536.632C947.364 563.673 887.567 584.902 821.55 599.733C753.875 614.935 682.864 622.64 610.453 622.64ZM610.462 37.1262C609.378 37.1262 608.312 37.1281 607.227 37.1317C305.368 38.0921 50.3496 171.729 50.3496 328.95C50.3496 486.172 305.368 619.81 607.227 620.77C608.303 620.774 609.385 620.775 610.46 620.775C753.805 620.776 890.877 590.465 996.769 535.309C1103.1 479.926 1164.08 404.711 1164.08 328.95C1164.08 253.19 1103.1 177.975 996.768 122.591C890.883 67.4392 753.797 37.1262 610.462 37.1262Z" fill="white"/>
<path d="M610.435 596.026C609.356 596.026 608.283 596.024 607.204 596.02C540.54 595.787 475.001 588.402 412.409 574.069C352.057 560.249 297.427 540.696 250.037 515.954C202.546 491.159 165.131 462.613 138.831 431.109C111.456 398.317 97.5762 363.946 97.5762 328.95C97.5762 293.954 111.456 259.583 138.831 226.792C165.131 195.288 202.546 166.742 250.037 141.947C297.427 117.204 352.057 97.6518 412.409 83.8318C475.001 69.4994 540.54 62.1134 607.204 61.8809C673.977 61.6611 739.472 68.6427 801.905 82.6704C861.889 96.1482 916.25 115.447 963.476 140.031C1011.27 164.91 1048.94 193.72 1075.44 225.659C1102.92 258.783 1116.85 293.535 1116.85 328.95C1116.85 364.365 1102.92 399.118 1075.44 432.242C1048.94 464.181 1011.27 492.991 963.476 517.87C916.249 542.454 861.889 561.753 801.905 575.231C740.482 589.032 676.076 596.025 610.435 596.026ZM610.442 63.7403C609.371 63.7403 608.3 63.7421 607.227 63.7457C332.896 64.703 101.135 186.152 101.135 328.95C101.135 471.748 332.896 593.197 607.227 594.155C608.291 594.159 609.379 594.161 610.442 594.161C740.381 594.165 864.736 566.642 960.968 516.547C1057.77 466.154 1113.3 397.777 1113.3 328.95C1113.3 260.123 1057.77 191.747 960.968 141.354C864.741 91.2626 740.373 63.7403 610.442 63.7403Z" fill="white"/>
<path d="M602.314 569.422C544.012 569.422 486.88 563.266 432.42 551.112C378.847 539.156 330.194 521.961 287.813 500.001C244.368 477.491 210.097 451.349 185.952 422.303C161.009 392.297 148.361 360.889 148.361 328.951C148.361 297.012 161.008 265.605 185.952 235.599C210.096 206.553 244.367 180.412 287.812 157.901C330.193 135.942 378.845 118.746 432.419 106.79C488.411 94.294 547.234 88.1366 607.235 88.4948C667.41 88.8517 726.47 95.5596 782.776 108.431C837.178 120.868 886.356 138.418 928.945 160.593C971.693 182.85 1005.35 208.495 1028.98 236.816C1053.59 266.313 1066.07 297.312 1066.07 328.951C1066.07 360.589 1053.59 391.588 1028.98 421.086C1005.35 449.406 971.693 475.051 928.945 497.309C886.356 519.484 837.178 537.034 782.776 549.47C726.471 562.342 667.41 569.05 607.235 569.407C605.594 569.417 603.953 569.422 602.314 569.422ZM602.325 90.345C486.786 90.345 376.167 114.744 290.314 159.228C202.362 204.798 151.92 266.66 151.92 328.951C151.92 391.241 202.363 453.104 290.315 498.675C377.368 543.78 489.946 568.248 607.195 567.542C854.001 566.078 1062.51 456.816 1062.51 328.951C1062.51 201.085 854.001 91.8238 607.195 90.3597C605.577 90.3499 603.941 90.345 602.325 90.345Z" fill="white"/>
<path d="M607.215 542.793C552.895 542.793 499.87 537.065 449.612 525.769C401.161 514.878 357.477 499.338 319.774 479.581C282.071 459.823 252.417 436.931 231.635 411.54C210.079 385.203 199.148 357.416 199.148 328.95C199.148 300.485 210.079 272.698 231.635 246.361C252.417 220.97 282.071 198.079 319.774 178.321C357.477 158.563 401.161 143.023 449.612 132.133C499.87 120.836 552.895 115.108 607.215 115.108C661.536 115.108 714.561 120.836 764.818 132.133C813.27 143.023 856.954 158.563 894.657 178.321C932.359 198.079 962.013 220.97 982.795 246.361C1004.35 272.698 1015.28 300.485 1015.28 328.95C1015.28 357.416 1004.35 385.203 982.795 411.54C962.013 436.931 932.359 459.823 894.657 479.581C856.954 499.338 813.27 514.878 764.818 525.769C714.561 537.065 661.536 542.793 607.215 542.793ZM607.215 116.973C387.949 116.973 202.707 214.047 202.707 328.95C202.707 443.854 387.949 540.928 607.215 540.928C826.481 540.928 1011.72 443.854 1011.72 328.95C1011.72 214.046 826.481 116.973 607.215 116.973Z" fill="white"/>
<path d="M607.215 516.179C559.569 516.179 513.093 511.169 469.079 501.288C426.645 491.761 388.403 478.163 355.416 460.871C322.435 443.582 296.499 423.541 278.329 401.304C259.487 378.245 249.934 353.902 249.934 328.95C249.934 304.026 259.497 279.697 278.357 256.64C296.543 234.408 322.495 214.366 355.492 197.068C388.494 179.769 426.739 166.163 469.163 156.628C513.174 146.737 559.621 141.722 607.215 141.722C654.705 141.722 701.092 146.74 745.086 156.639C787.497 166.18 825.748 179.792 858.777 197.096C891.81 214.403 917.795 234.446 936.011 256.671C954.912 279.731 964.495 304.049 964.495 328.95C964.495 353.878 954.921 378.211 936.037 401.273C917.835 423.502 891.864 443.545 858.845 460.843C825.831 478.139 787.583 491.743 745.162 501.277C701.165 511.166 654.753 516.179 607.215 516.179ZM607.215 143.587C415.477 143.587 253.492 228.473 253.492 328.95C253.492 429.428 415.477 514.315 607.215 514.315C798.952 514.315 960.937 429.428 960.937 328.95C960.937 228.473 798.952 143.587 607.215 143.587Z" fill="white"/>
<path d="M610.314 489.575C609.275 489.575 608.237 489.572 607.196 489.566C530.245 489.125 452.411 471.318 393.652 440.708C364.827 425.692 342.067 408.531 326.006 389.701C309.228 370.031 300.721 349.592 300.721 328.951C300.721 244.324 443.934 169.27 607.196 168.336C647.324 168.111 686.662 172.216 724.114 180.55C760.056 188.549 792.648 200.052 820.986 214.741C849.883 229.719 872.662 247.117 888.691 266.45C905.293 286.474 913.711 307.502 913.711 328.951C913.711 370.69 879.742 412.235 820.515 442.936C792.091 457.669 759.487 469.219 723.609 477.264C687.163 485.436 649.062 489.575 610.314 489.575ZM607.236 487.701C684.96 488.168 759.813 471.777 818.013 441.61C876.569 411.257 910.152 370.195 910.152 328.951C910.152 287.408 876.74 246.263 818.483 216.066C761.336 186.445 687.542 170.192 610.383 170.192C609.332 170.192 608.287 170.195 607.236 170.201C445.847 171.125 304.279 245.307 304.279 328.951C304.279 412.595 445.847 486.777 607.236 487.701Z" fill="white"/>
<path d="M606.961 461.646C551.771 461.646 492.007 447.228 442.317 421.844C416.416 408.613 394.678 393.077 379.452 376.913C363.672 360.162 355.321 343.116 355.303 327.619C355.263 294.477 386.4 258.748 438.593 232.043C488.564 206.476 549.823 192.829 611.056 193.618C680.638 194.513 745.007 208.508 792.304 233.024C840.079 257.788 866.508 291.381 866.721 327.615C866.824 344.99 859.762 362.106 845.731 378.49C832.358 394.106 813.324 408.335 789.157 420.783C740.404 445.895 675.489 460.779 611.056 461.62C609.695 461.637 608.328 461.646 606.961 461.646ZM606.03 195.451C547.403 195.451 489.013 208.853 441.08 233.378C389.559 259.738 358.823 294.968 358.861 327.618C358.897 357.854 391.827 393.448 444.8 420.509C495.04 446.173 555.57 460.48 610.968 459.755C745.719 457.997 863.567 396.253 863.163 327.621C862.729 254.134 754.31 197.326 610.969 195.483C609.324 195.461 607.674 195.451 606.03 195.451Z" fill="white"/>
<path d="M636.769 426.047H636.558C589.079 426.017 538.057 413.425 496.576 391.501C455.979 370.044 431.703 342.814 431.637 318.66C431.565 292.333 454.759 265.072 495.274 243.866C534.984 223.082 586.452 211.177 636.565 211.271C692.39 211.35 744.144 222.442 782.295 242.505C820.329 262.506 841.349 289.551 841.483 318.657C841.608 345.688 819.238 372.966 780.11 393.495C740.676 414.185 688.437 426.047 636.769 426.047ZM636.562 424.182H636.769C687.502 424.182 738.818 412.521 777.592 392.177C816.056 371.995 838.047 345.2 837.925 318.661C837.652 259.647 749.2 213.294 636.555 213.136H636.125C587.116 213.136 536.723 224.808 497.789 245.185C457.939 266.043 435.124 292.822 435.196 318.658C435.26 342.331 459.151 369.071 499.103 390.188C539.921 411.762 590.024 424.153 636.562 424.182Z" fill="white"/>
<path d="M679.072 385.454C678.187 385.454 677.307 385.449 676.422 385.441C597.122 384.641 522.23 345.386 522.318 304.666C522.408 263.175 595.86 224.676 676.423 223.894C715.692 223.518 753.594 231.654 783.102 246.819C813.247 262.312 830.557 283.397 830.593 304.666C830.628 325.634 813.189 346.644 782.746 362.307C753.669 377.267 716.944 385.454 679.072 385.454ZM679.064 225.746C678.205 225.746 677.349 225.75 676.489 225.758C597.752 226.523 525.965 264.134 525.877 304.668C525.791 344.447 598.986 382.795 676.49 383.576C677.349 383.585 678.212 383.589 679.07 383.589C716.008 383.589 751.844 375.592 780.252 360.976C810.017 345.662 827.069 325.138 827.034 304.668C826.999 283.895 810.078 263.295 780.61 248.15C752.436 233.671 716.464 225.746 679.064 225.746Z" fill="white"/>
<path d="M718.411 343.838C691.203 343.838 665.584 338.273 646.193 328.139C626.489 317.842 615.713 304.181 615.847 289.672C615.978 275.61 627.497 261.631 647.451 251.32C667.128 241.152 693.295 235.376 719.215 235.516C744.795 235.639 770.941 241.755 790.95 252.296C810.872 262.791 822.389 276.414 822.549 289.67C822.896 318.302 774.608 343.613 719.212 343.836C718.945 343.837 718.678 343.838 718.411 343.838ZM719.185 341.971C772.687 341.756 819.326 317.322 818.991 289.682C818.662 262.558 771.09 237.629 719.182 237.381C694.178 237.232 668.958 242.826 649.95 252.648C630.665 262.614 619.532 276.111 619.406 289.68C619.276 303.688 629.681 316.876 648.706 326.818C667.609 336.697 692.636 342.107 719.185 341.971Z" fill="white"/>
<path d="M753.361 305.27H753.275C724.35 305.24 700.77 292.884 700.713 277.726C700.687 270.71 706.496 263.635 716.65 258.314C726.665 253.066 739.635 250.178 753.182 250.178H753.282C779.756 250.205 805.792 263.848 805.844 277.722C805.87 284.71 800.268 291.501 790.07 296.846C779.851 302.201 766.475 305.27 753.361 305.27ZM753.183 252.043C740.585 252.043 728.51 254.737 719.167 259.633C709.677 264.606 704.247 271.199 704.272 277.722C704.325 291.856 726.311 303.378 753.282 303.405H753.361C765.539 303.405 777.997 300.536 787.554 295.527C797.077 290.536 802.309 284.214 802.285 277.726C802.236 264.789 777.961 252.068 753.275 252.043H753.183Z" fill="white"/>
<path d="M608.992 621.702H605.434C605.434 606.218 604.19 590.505 602.874 573.868C600.261 540.843 597.559 506.694 605.449 475.205C615.223 436.197 651.957 401.23 687.481 367.414C718.958 337.45 751.506 306.466 765.454 272.645L768.932 273.039C754.874 307.126 722.198 338.231 690.598 368.313C655.233 401.978 618.664 436.789 608.977 475.448C601.127 506.777 603.823 540.844 606.429 573.791C607.69 589.714 608.992 606.18 608.992 621.702Z" fill="white"/>
<path d="M778.151 607.662C769.91 594.371 760.313 580.843 750.153 566.52C726.86 533.685 702.774 499.732 694.682 467.26C685.825 431.711 707.741 397.06 728.935 363.549C747.492 334.209 766.68 303.87 765.414 272.862L768.971 272.822C770.251 304.152 750.965 334.645 732.313 364.136C711.245 397.447 689.459 431.893 698.211 467.018C706.251 499.281 730.265 533.133 753.488 565.87C763.662 580.211 773.272 593.758 781.536 607.085L778.151 607.662Z" fill="white"/>
<path d="M934.138 566.339C919.698 555.924 902.99 545.158 885.302 533.759C841.308 505.409 795.816 476.093 774.782 445.917C753.934 416.008 760.757 384.991 767.356 354.995C773.289 328.025 779.424 300.138 765.476 273.085L768.911 272.599C783.038 299.997 776.863 328.065 770.892 355.208C764.34 384.989 757.566 415.783 778.124 445.277C798.954 475.159 844.254 504.352 888.063 532.583C905.783 544.001 922.52 554.786 937.016 565.243L934.138 566.339Z" fill="white"/>
<path d="M1058.12 501.78C1038.79 494.418 1017.26 487.098 994.462 479.348C936.078 459.496 875.706 438.969 838.107 413.337C805.584 391.164 801.008 364.877 796.584 339.456C792.683 317.048 788.65 293.877 765.658 273.313L768.729 272.37C792.122 293.293 796.192 316.675 800.128 339.286C804.708 365.601 809.034 390.456 840.929 412.2C878.156 437.579 938.267 458.017 996.399 477.783C1019.23 485.547 1040.8 492.881 1060.21 500.271L1058.12 501.78Z" fill="white"/>
<path d="M1137.97 420.303C1112.74 416.008 1084.61 412.305 1054.83 408.386C989.731 399.818 922.417 390.958 873.352 374.46C835.797 361.831 824.556 341.608 813.684 322.051C804.043 304.706 794.073 286.77 766.002 273.535L768.382 272.149C797.207 285.738 807.32 303.934 817.101 321.529C828.281 341.642 838.841 360.639 875.274 372.89C923.849 389.224 990.876 398.046 1055.7 406.577C1085.54 410.505 1113.72 414.214 1139.07 418.529L1137.97 420.303Z" fill="white"/>
<path d="M984.963 333.34C951.295 333.34 918.581 332.295 888.463 329.064C852.217 325.174 839.575 312.479 827.35 300.2C814.871 287.667 803.084 275.829 767 273.77L767.386 271.916C805.36 274.083 818.143 286.922 830.505 299.338C842.345 311.229 854.588 323.526 889.176 327.237C946.899 333.429 1014.55 331.523 1079.97 329.678C1110.26 328.825 1138.86 328.018 1165.86 328.018V329.883C1138.96 329.883 1110.4 330.688 1080.17 331.541C1048.51 332.433 1016.32 333.34 984.963 333.34Z" fill="white"/>
<path d="M870.201 284.224C854.444 284.225 839.506 280.799 825.019 277.476C805.194 272.93 786.472 268.636 768.014 273.669L766.371 272.015C786.336 266.569 805.82 271.038 826.446 275.768C841.828 279.296 857.744 282.94 874.177 282.281C930.693 280 994.589 266.624 1056.38 253.686C1085.27 247.637 1112.56 241.924 1137.97 237.599L1139.07 239.372C1113.77 243.679 1086.54 249.381 1057.7 255.418C995.661 268.407 931.509 281.838 874.45 284.139C873.028 284.197 871.61 284.224 870.201 284.224Z" fill="white"/>
<path d="M768.183 273.617L766.203 272.068C823.924 251.819 880.933 228.186 936.065 205.331C975.882 188.825 1017.05 171.757 1058.12 156.121L1060.21 157.63C1019.2 173.244 978.061 190.299 938.273 206.793C883.087 229.671 826.022 253.327 768.183 273.617Z" fill="white"/>
<path d="M768.565 273.437L765.82 272.249C781.144 262.518 777.446 251.492 773.53 239.818C770.119 229.648 766.591 219.132 774.801 208.41C796.331 180.29 840.034 152.568 882.298 125.759C901.187 113.777 919.027 102.461 934.137 91.5628L937.015 92.6592C921.842 103.604 903.966 114.942 885.041 126.947C842.951 153.646 799.427 181.254 778.103 209.105C770.272 219.333 773.71 229.583 777.035 239.495C781.097 251.604 784.934 263.042 768.565 273.437Z" fill="white"/>
<path d="M765.421 272.932C762.319 255.978 745.746 244.562 729.718 233.521C710.887 220.549 693.1 208.296 696.08 188.15C700.672 157.121 725.694 123.264 749.893 90.5208C760.378 76.3335 770.281 62.9322 778.151 50.2401L781.536 50.8168C773.635 63.5576 763.714 76.9818 753.211 91.1941C729.106 123.811 704.179 157.539 699.629 188.295C696.752 207.732 714.141 219.711 732.551 232.392C748.88 243.64 765.765 255.272 768.964 272.753L765.421 272.932Z" fill="white"/>
<path d="M765.556 273.209C749.437 253.463 717.373 242.372 686.365 231.646C650.061 219.089 615.771 207.228 605.475 182.776C592.868 152.835 597.238 117.358 601.464 83.0491C603.505 66.4803 605.433 50.8301 605.433 36.1995H608.992C608.992 50.8902 607.06 66.5696 605.015 83.1694C600.805 117.349 596.452 152.691 608.95 182.375C618.935 206.088 652.641 217.747 688.326 230.09C719.772 240.967 752.289 252.215 768.828 272.476L765.556 273.209Z" fill="white"/>
<path d="M765.845 273.451C734.91 254.663 691.498 244.861 649.517 235.381C601.771 224.601 552.399 213.453 522.857 189.024C490.482 162.252 472.616 126.757 455.338 92.4312C447.9 77.6538 440.874 63.6959 432.889 50.8168L436.274 50.2401C444.29 63.169 451.328 77.1518 458.779 91.9553C475.988 126.145 493.782 161.498 525.863 188.026C554.817 211.968 601.5 222.509 650.925 233.669C693.276 243.232 737.069 253.12 768.539 272.234L765.845 273.451Z" fill="white"/>
<path d="M766.207 273.619C721.38 257.972 667.695 251.461 615.777 245.164C556.508 237.976 495.221 230.544 446.95 209.474C397.961 188.09 359.602 157.335 322.505 127.594C307.116 115.255 292.58 103.601 277.41 92.6592L280.289 91.5628C295.51 102.542 310.07 114.215 325.484 126.573C362.437 156.2 400.647 186.836 449.228 208.041C496.848 228.826 557.716 236.209 616.58 243.348C668.808 249.682 722.814 256.232 768.179 272.067L766.207 273.619Z" fill="white"/>
<path d="M766.598 273.721C709.002 263.02 646.971 261.413 586.982 259.858C519.698 258.114 450.123 256.311 386.488 241.674C326.564 227.89 270.327 204.763 215.941 182.396C194.637 173.635 174.515 165.36 154.213 157.63L156.305 156.121C176.66 163.871 196.808 172.157 218.138 180.929C272.35 203.224 328.406 226.277 387.919 239.967C450.954 254.466 520.196 256.26 587.158 257.996C647.403 259.556 709.699 261.171 767.787 271.963L766.598 273.721Z" fill="white"/>
<path d="M416.533 287.236C391.847 287.236 367.196 286.348 342.707 284.129C281.502 278.582 218.925 266.49 158.409 254.796C129.662 249.242 102.508 243.995 75.3594 239.372L76.4588 237.599C103.674 242.233 132.126 247.73 159.639 253.047C220.006 264.711 282.429 276.773 343.314 282.291C417.41 289.008 493.366 283.421 566.818 278.019C632.54 273.186 700.498 268.187 767.381 271.915L767.004 273.769C700.559 270.069 632.821 275.048 567.313 279.866C517.775 283.509 467.094 287.235 416.533 287.236Z" fill="white"/>
<path d="M229.115 331.082C198.717 331.082 168.37 330.78 138.507 330.482C108.948 330.188 78.3824 329.883 48.5684 329.883V328.018C78.4165 328.018 108.999 328.323 138.574 328.618C201.156 329.242 265.87 329.887 328.629 327.72C408.933 324.948 487.451 311.794 563.385 299.074C629.326 288.027 697.513 276.604 766.967 271.918L767.421 273.767C698.288 278.432 630.258 289.829 564.468 300.85C488.331 313.605 409.602 326.794 328.863 329.581C295.937 330.718 262.495 331.082 229.115 331.082Z" fill="white"/>
<path d="M76.4588 420.303L75.3594 418.529C102.612 413.889 130.47 409.303 157.41 404.867C218.828 394.756 282.336 384.301 343.49 372.416C420.763 357.397 496.124 338.072 569.003 319.383C633.018 302.968 699.211 285.994 766.536 271.976L767.849 273.708C700.652 287.7 634.521 304.659 570.567 321.059C497.609 339.767 422.168 359.113 344.727 374.164C283.489 386.066 219.936 396.528 158.476 406.647C131.545 411.081 103.695 415.665 76.4588 420.303Z" fill="white"/>
<path d="M156.305 501.78L154.213 500.271C285.233 450.387 419.646 400.615 549.634 352.483C620.661 326.182 694.106 298.986 766.16 272.083L768.225 273.601C696.165 300.508 622.717 327.705 551.687 354.006C421.709 402.135 287.306 451.903 156.305 501.78Z" fill="white"/>
<path d="M280.289 566.339L277.41 565.243C292.997 554 308.645 542.421 323.777 531.223C362.927 502.25 403.411 472.291 447.409 444.759C498.489 412.795 556.488 383.33 612.577 354.836C664.367 328.525 717.921 301.319 765.846 272.233L768.54 273.452C720.512 302.6 666.9 329.836 615.054 356.175C559.03 384.636 501.098 414.066 450.137 445.956C406.232 473.43 365.79 503.359 326.681 532.301C311.543 543.503 295.889 555.088 280.289 566.339Z" fill="white"/>
<path d="M436.274 607.662L432.889 607.085C441.64 592.972 450.015 578.316 458.114 564.143C476.707 531.605 495.933 497.96 521.814 466.896C553.436 428.941 602.328 395.451 649.611 363.063C691.329 334.488 734.467 304.939 765.602 272.424L768.783 273.261C737.497 305.932 694.255 335.552 652.437 364.197C605.284 396.496 556.524 429.895 525.075 467.643C499.28 498.603 480.086 532.193 461.523 564.678C453.418 578.861 445.037 593.528 436.274 607.662Z" fill="white"/>
</svg>
