<svg width="203" height="299" viewBox="0 0 403 399" fill="none" xmlns="http://www.w3.org/2000/svg">
<path d="M201.505 399C257.162 399 305.069 386.115 343.884 360.687C370.852 343.027 403 312.561 403 267.693C403 222.824 370.852 192.345 343.884 174.685C305.059 149.271 257.162 136.438 201.505 136.438C145.848 136.438 97.9406 149.337 59.1161 174.685C32.1477 192.345 4.35888e-05 222.824 4.60983e-05 267.693C4.86079e-05 312.561 32.1477 343.027 59.1161 360.687C97.9213 386.115 145.838 399 201.505 399ZM201.505 137.691C257.017 137.691 304.779 150.537 343.468 175.872C370.186 193.374 402.034 223.51 402.034 267.693C402.034 311.875 370.147 342.011 343.468 359.5C304.818 384.835 257.017 397.681 201.505 397.681C145.993 397.681 98.2208 384.835 59.5413 359.5C32.8144 342.011 0.966313 311.875 0.966311 267.693C0.966308 223.51 32.853 193.374 59.5413 175.872C98.2208 150.537 145.993 137.691 201.505 137.691Z" fill="#EA9191"/>
<path d="M201.505 392.775C254.282 392.775 299.909 380.509 337.11 356.295C383.655 325.961 393.424 291.393 393.424 267.693C393.424 243.992 383.655 209.385 337.11 179.09C299.909 154.876 254.282 142.597 201.505 142.597C148.302 142.597 102.675 154.876 65.8896 179.09C40.1967 195.998 9.57575 225.093 9.57576 267.693C9.57576 310.292 40.1967 339.387 65.8897 356.295C102.675 380.509 148.302 392.775 201.505 392.775ZM201.505 143.916C254.137 143.916 299.629 156.155 336.695 180.277C382.786 210.269 392.458 244.375 392.458 267.693C392.458 291.01 382.795 325.103 336.695 355.108C299.629 379.23 254.137 391.456 201.505 391.456C148.447 391.456 102.946 379.23 66.3051 355.108C40.8634 338.358 10.542 309.607 10.542 267.693C10.542 225.779 40.8634 197.027 66.3051 180.277C102.965 156.155 148.457 143.916 201.505 143.916V143.916Z" fill="#EA9191"/>
<path d="M201.505 386.563C251.683 386.563 295.01 374.878 330.279 351.85C354.726 335.892 383.858 308.327 383.858 267.693C383.858 227.058 354.726 199.48 330.279 183.522C295.01 160.494 251.683 148.822 201.505 148.822C151.327 148.822 107.99 160.494 72.7213 183.522C48.2844 199.48 19.1516 227.045 19.1516 267.693C19.1516 308.34 48.2844 335.892 72.7213 351.85C107.99 374.878 151.317 386.563 201.505 386.563ZM201.505 150.141C251.538 150.141 294.721 161.774 329.864 184.722C354.02 200.549 382.892 227.731 382.892 267.693C382.892 307.655 354.059 334.876 329.825 350.703C294.682 373.651 251.5 385.284 201.466 385.284C151.433 385.284 108.241 373.651 73.0981 350.703C48.9415 334.876 20.0792 307.694 20.0792 267.732C20.0792 227.77 48.9125 200.549 73.0981 184.762C108.28 161.774 151.472 150.141 201.505 150.141Z" fill="#EA9191"/>
<path d="M201.505 380.338C249.393 380.338 290.459 369.286 323.573 347.485C346.705 332.238 374.273 306.059 374.273 267.693C374.273 229.326 346.696 203.068 323.563 187.887C290.449 166.1 249.383 155.047 201.495 155.047C153.926 155.047 112.86 166.1 79.4173 187.887C37.5104 215.215 28.7078 246.366 28.7078 267.693C28.7078 289.019 37.5104 320.171 79.4173 347.485C112.869 369.286 153.965 380.338 201.505 380.338ZM201.505 156.366C249.248 156.366 290.179 167.366 323.158 189.074C346.039 204.136 373.307 230.012 373.307 267.693C373.307 305.373 346.029 331.236 323.148 346.298C290.16 368.006 249.238 379.019 201.495 379.019C154.071 379.019 113.14 368.006 79.8328 346.298C38.3801 319.274 29.674 288.636 29.674 267.693C29.674 246.749 38.3704 216.098 79.8328 189.074C113.15 167.379 154.081 156.366 201.505 156.366V156.366Z" fill="#EA9191"/>
<path d="M201.505 374.113C227.275 374.113 266.602 368.969 299.697 354.514C319.186 346.008 334.55 335.127 345.382 322.189C358.204 306.85 364.707 288.518 364.707 267.693C364.707 246.868 358.204 228.522 345.382 213.197C334.55 200.258 319.186 189.378 299.697 180.871C266.602 166.363 227.275 161.259 201.505 161.259C175.735 161.259 136.282 166.271 103.613 180.343C60.2661 198.992 38.2933 228.39 38.2933 267.693C38.2933 306.995 60.2661 336.38 103.613 355.042C136.272 369.167 175.599 374.113 201.505 374.113ZM201.505 162.578C227.198 162.578 266.419 167.722 299.407 182.124C342.096 200.773 363.741 229.603 363.741 267.693C363.741 305.782 342.096 334.613 299.407 353.261C266.419 367.664 227.198 372.794 201.505 372.794C175.667 372.794 136.466 367.809 103.912 353.789C61.0198 335.325 39.2692 306.309 39.2692 267.693C39.2692 229.076 61.0198 200.061 103.912 181.596C136.466 167.577 175.667 162.578 201.505 162.578Z" fill="#EA9191"/>
<path d="M201.505 367.848C225.806 367.848 262.872 362.982 294.034 349.384C334.617 331.632 355.141 304.146 355.141 267.614C355.141 231.081 334.579 203.635 294.034 185.843C262.872 172.206 225.806 167.379 201.505 167.379C177.203 167.379 140.021 172.1 109.285 185.342C68.5275 202.909 47.8591 230.579 47.8591 267.587C47.8591 304.595 68.5275 332.212 109.285 349.832C140.021 363.179 177.078 367.848 201.505 367.848ZM201.505 168.698C225.729 168.698 262.689 173.538 293.735 187.162C333.835 204.716 354.175 231.78 354.175 267.614C354.175 303.447 333.883 330.524 293.735 348.065C262.689 361.649 225.729 366.529 201.505 366.529C177.281 366.529 140.215 361.821 109.574 348.619C69.2715 331.249 48.8254 304.001 48.8254 267.64C48.8254 231.278 69.2715 204.017 109.574 186.648C140.215 173.512 177.155 168.803 201.505 168.803L201.505 168.698Z" fill="#EA9191"/>
<path d="M201.505 361.676C224.251 361.676 258.978 357.113 288.227 344.306C326.279 327.649 345.565 301.904 345.565 267.693C345.565 233.481 326.24 207.723 288.227 191.079C258.978 178.273 224.251 173.71 201.505 173.71C178.759 173.71 143.906 178.128 115.072 190.552C76.8277 207.024 57.4348 232.98 57.4348 267.693C57.4348 302.406 76.8277 328.361 115.072 344.834C143.906 357.297 178.624 361.676 201.505 361.676ZM201.505 175.028C224.173 175.028 258.785 179.565 287.937 192.332C325.535 208.792 344.599 234.14 344.599 267.693C344.599 301.245 325.535 326.594 287.937 343.053C258.785 355.807 224.164 360.357 201.505 360.357C178.846 360.357 144.099 355.978 115.314 343.568C77.5234 327.293 58.3527 301.759 58.3527 267.693C58.3527 233.626 77.5717 208.093 115.314 191.805C144.099 179.433 178.701 175.028 201.505 175.028V175.028Z" fill="#EA9191"/>
<path d="M201.505 355.451C222.763 355.451 255.229 351.204 282.488 339.281C317.998 323.745 335.999 299.715 335.999 267.693C335.999 235.67 317.978 211.812 282.439 196.223C255.036 184.208 222.666 179.935 201.505 179.935C180.344 179.935 147.887 184.208 120.513 196.223C85.0121 211.799 67.0106 235.789 67.0106 267.693C67.0106 299.596 84.9927 323.758 120.464 339.281C147.694 351.204 180.179 355.451 201.505 355.451ZM201.505 181.253C222.589 181.253 254.852 185.513 282.14 197.489C317.234 212.88 335.033 236.501 335.033 267.693C335.033 336.063 247.683 354.132 201.505 354.132C155.327 354.132 67.9672 336.063 67.9672 267.693C67.9672 236.475 85.7368 212.854 120.802 197.476C148.07 185.513 180.373 181.253 201.505 181.253Z" fill="#EA9191"/>
<path d="M201.505 349.226C221.458 349.226 251.799 345.269 277.115 334.085C309.833 319.656 326.395 297.315 326.395 267.693C326.395 200.799 236.223 186.146 201.476 186.146C182.779 186.146 151.849 190.169 126.204 201.511C93.2542 216.019 76.5475 238.334 76.5475 267.693C76.5475 297.592 93.1866 320.012 125.991 334.362C151.066 345.322 181.465 349.226 201.505 349.226ZM201.505 187.465C235.981 187.465 325.457 201.881 325.457 267.693C325.457 331.144 244.378 347.907 201.505 347.907C181.532 347.907 151.259 344.016 126.32 333.096C93.9596 318.957 77.5428 296.945 77.5428 267.693C77.5428 238.967 94.0273 217.127 126.523 202.764C152.032 191.475 182.875 187.465 201.505 187.465Z" fill="#EA9191"/>
<path d="M201.505 343.014C219.787 343.014 247.547 339.466 270.641 329.522C301.301 316.333 316.848 295.521 316.848 267.693C316.848 239.864 301.31 219 270.651 205.824C247.605 195.906 219.816 192.371 201.505 192.371C183.194 192.371 155.395 195.906 132.349 205.824C101.699 219.013 86.1523 239.825 86.1523 267.693C86.1523 295.56 101.699 316.32 132.369 329.522C155.453 339.466 183.214 343.014 201.505 343.014ZM201.505 193.69C219.748 193.69 247.422 197.212 270.361 207.077C300.566 220.068 315.882 240.458 315.882 267.745C315.882 295.033 300.566 315.304 270.351 328.321C247.364 338.213 219.709 341.747 201.505 341.747C183.3 341.747 155.636 338.213 132.659 328.321C102.443 315.304 87.1185 294.927 87.1185 267.745C87.1185 240.563 102.434 220.121 132.639 207.077C155.578 197.212 183.252 193.756 201.505 193.756L201.505 193.69Z" fill="#EA9191"/>
<path d="M201.505 336.789C224.83 336.789 307.282 320.237 307.282 267.693C307.282 221.835 271.694 198.597 201.505 198.597C131.315 198.597 95.7278 221.835 95.7278 267.693C95.7278 320.237 178.179 336.789 201.505 336.789ZM201.505 199.916C271.076 199.916 306.315 222.719 306.315 267.693C306.315 319.235 224.618 335.47 201.505 335.47C178.392 335.47 96.6941 319.235 96.6941 267.693C96.6941 222.772 131.953 199.916 201.505 199.916Z" fill="#EA9191"/>
<path d="M201.505 328.44C220.878 328.44 241.006 315.251 260.447 302.511C263.346 300.585 266.331 298.66 269.259 296.787C270.969 295.692 273.018 294.584 275.182 293.411C284.739 288.241 297.822 281.158 297.677 265.714C297.513 248.397 293.59 234.523 286.014 224.473C268.621 201.366 235.237 202.052 210.877 202.527C207.544 202.527 204.404 202.659 201.476 202.659C198.78 202.659 195.891 202.659 192.847 202.553C167.917 202.158 133.779 201.59 116.348 225.159C108.956 235.156 105.236 248.793 105.265 265.727C105.265 280.908 117.826 287.819 127.866 293.424C129.982 294.584 131.982 295.692 133.663 296.774C136.562 298.647 139.461 300.572 142.437 302.485C161.985 315.251 182.15 328.44 201.505 328.44ZM222.424 203.727C244.774 203.727 270.834 206.167 285.367 225.462C292.749 235.261 296.575 248.819 296.74 265.767C296.875 280.275 284.671 286.869 274.854 292.145C272.67 293.318 270.612 294.439 268.882 295.547C265.984 297.433 262.998 299.359 260.06 301.284C240.687 313.972 220.656 327.082 201.505 327.082C182.353 327.082 162.303 313.959 142.901 301.258C139.97 299.332 137.045 297.429 134.127 295.547C132.398 294.439 130.388 293.331 128.262 292.158C118.474 286.75 106.289 280.024 106.26 265.78C106.26 249.215 109.855 235.881 117.053 226.148C134.204 202.962 168.111 203.516 192.866 203.925C195.91 203.925 198.799 204.03 201.505 204.03C204.404 204.03 207.583 203.964 210.916 203.898C214.578 203.806 218.443 203.727 222.424 203.727Z" fill="#EA9191"/>
<path d="M201.505 308.697C215.467 308.697 232.155 297.235 248.291 286.144C253.036 282.886 257.954 279.549 262.64 276.542C264.293 275.487 266.361 274.419 268.554 273.285C277.067 268.893 287.667 263.419 288.131 252.539C288.768 237.701 285.918 225.634 279.656 216.665C264.196 194.561 230.763 195.023 208.617 195.326C206.104 195.326 203.727 195.392 201.505 195.392C199.282 195.392 197.166 195.392 194.809 195.392C172.449 195.128 138.659 194.719 123.189 217.008C116.995 225.95 114.193 237.912 114.87 252.618C115.372 263.578 125.856 268.959 134.272 273.285C136.533 274.432 138.659 275.527 140.369 276.621C144.891 279.497 149.665 282.767 154.274 285.933C170.642 297.09 187.562 308.697 201.505 308.697ZM217.207 196.592C238.513 196.592 265.675 198.583 278.951 217.602C285.019 226.306 287.783 238.031 287.164 252.486C286.739 262.509 276.468 267.825 268.216 272.085C266.003 273.219 263.916 274.3 262.225 275.369C257.519 278.349 252.611 281.726 247.857 284.996C231.826 296.009 215.245 307.417 201.476 307.417C187.707 307.417 170.942 295.877 154.68 284.719C150.061 281.541 145.288 278.27 140.746 275.382C138.997 274.274 136.881 273.179 134.591 272.005C126.426 267.825 116.232 262.602 115.807 252.499C115.14 238.203 117.855 226.57 123.866 217.905C139.036 196.025 172.575 196.434 194.77 196.697C197.128 196.697 199.369 196.697 201.476 196.697C203.582 196.697 206.085 196.697 208.597 196.632C211.341 196.605 214.211 196.566 217.207 196.566L217.207 196.592Z" fill="#EA9191"/>
<path d="M201.505 278.798C213.97 278.798 229.7 268.247 244.909 257.999C248.716 255.44 252.311 253.027 255.867 250.758C257.268 249.875 258.911 248.951 260.65 247.989C268.235 243.768 277.675 238.519 278.555 229.036C279.666 217.166 277.695 207.209 272.699 199.48C258.679 177.785 224.598 177.93 204.21 177.93L199.253 177.93C178.962 177.93 144.988 177.838 130.774 199.322C125.653 207.051 123.518 217.048 124.426 229.01C125.141 238.532 134.533 243.689 142.08 247.844C143.906 248.859 145.635 249.809 147.114 250.745C150.689 253.027 154.303 255.454 158.129 258.025C173.29 268.247 189.021 278.798 201.505 278.798ZM207.515 179.249C227.922 179.249 258.959 180.212 271.974 200.351C276.806 207.789 278.671 217.378 277.598 228.878C276.786 237.583 267.636 242.674 260.292 246.762C258.534 247.738 256.872 248.661 255.461 249.558C251.895 251.827 248.291 254.253 244.484 256.812C229.372 266.98 213.738 277.479 201.505 277.479C189.272 277.479 173.657 266.928 158.583 256.852C154.718 254.28 151.133 251.84 147.549 249.558C146.041 248.609 144.302 247.646 142.456 246.643C135.151 242.687 126.03 237.609 125.402 228.891C124.532 217.312 126.581 207.671 131.509 200.219C145.432 179.17 179.087 179.249 199.273 179.249L207.515 179.249Z" fill="#EA9191"/>
<path d="M201.505 241.486C213.95 241.486 267.936 221.387 268.989 197.963C269.443 187.861 267.327 179.341 262.718 172.641C249.19 153.095 216.994 153.095 201.505 153.095C184.837 153.095 153.81 153.095 140.36 172.549C135.722 179.262 133.596 187.808 134.011 197.964C135.055 222.442 188.219 241.486 201.505 241.486ZM201.505 154.441C216.859 154.441 248.852 154.441 262.012 173.564C266.438 179.987 268.457 188.177 268.023 197.911C267.056 220.701 213.776 240.22 201.505 240.22C188.818 240.22 135.963 221.215 134.978 197.911L134.494 197.911L134.978 197.911C134.562 188.138 136.611 179.908 141.055 173.485C154.226 154.388 186.161 154.388 201.505 154.388L201.505 154.441Z" fill="#EA9191"/>
<path d="M201.505 199.467C214.617 199.467 258.311 187.821 259.413 162.103C259.629 158.441 259.273 154.758 258.369 151.298C257.464 147.837 256.032 144.678 254.166 142.03C248.369 133.563 234.445 123.487 201.505 123.487C168.565 123.487 154.68 133.576 148.834 142.03C146.968 144.679 145.536 147.837 144.631 151.298C143.727 154.758 143.371 158.441 143.587 162.103C144.698 187.821 188.383 199.467 201.505 199.467ZM201.505 124.806C216.231 124.806 242.571 127.166 253.461 142.927C255.236 145.446 256.599 148.452 257.46 151.744C258.322 155.036 258.661 158.54 258.456 162.024C257.432 185.764 215.738 198.148 201.505 198.148C187.272 198.148 145.568 185.724 144.553 162.024C144.347 158.541 144.685 155.037 145.545 151.745C146.404 148.453 147.766 145.448 149.539 142.927C160.439 127.166 186.769 124.806 201.505 124.806V124.806Z" fill="#EA9191"/>
<path d="M201.505 155.509C210.317 155.509 235.421 152.423 245.538 138.297C246.928 136.484 248.028 134.298 248.77 131.876C249.511 129.454 249.878 126.849 249.847 124.225C249.422 97.7684 214.801 91.9785 201.534 91.9785C188.267 91.9785 153.607 97.7684 153.221 124.225C153.192 126.849 153.56 129.453 154.301 131.874C155.043 134.295 156.142 136.482 157.53 138.297C167.579 152.383 192.683 155.509 201.505 155.509ZM201.505 93.2974C211.154 93.4022 220.741 95.4283 229.961 99.3115C242.339 104.904 248.707 113.292 248.881 124.251C248.908 126.7 248.564 129.129 247.871 131.388C247.177 133.646 246.149 135.684 244.851 137.374C234.957 151.13 210.201 154.19 201.505 154.19C192.808 154.19 168.043 151.17 158.149 137.374C156.853 135.682 155.826 133.643 155.133 131.386C154.439 129.128 154.094 126.699 154.119 124.251C154.303 113.292 160.671 104.904 173.048 99.3115C182.267 95.413 191.854 93.3736 201.505 93.2578L201.505 93.2974Z" fill="#EA9191"/>
<path d="M200.954 112.237L201.505 112.237C208.529 112.105 230.28 109.071 237.817 97.2541C238.753 95.8918 239.458 94.2653 239.882 92.4899C240.306 90.7144 240.439 88.8335 240.271 86.9801C239.45 77.959 231.15 71.6811 224.338 68.0015C215.757 63.359 206.491 61.196 201.505 61.1433C192.055 61.0246 164.101 69.7819 162.729 86.9933C162.563 89.0344 162.73 91.1002 163.218 93.0429C163.705 94.9855 164.502 96.7569 165.55 98.2301C173.242 109.757 193.581 112.237 200.954 112.237ZM201.311 62.4622L201.476 62.4622C206.375 62.4622 215.496 64.6515 223.961 69.228C233.256 74.2397 238.696 80.6099 239.295 87.1515C239.438 88.8184 239.314 90.5077 238.93 92.1021C238.546 93.6964 237.912 95.1575 237.073 96.3837C230.309 106.935 210.172 110.733 201.476 110.891C193.031 111.036 173.338 107.937 166.246 97.3069C165.294 95.9705 164.57 94.3638 164.126 92.6015C163.682 90.8392 163.528 88.9648 163.675 87.112C164.217 80.3066 169.724 73.8177 179.184 68.8455C187.233 64.6383 196.355 62.4622 201.311 62.4622Z" fill="#EA9191"/>
<path d="M202.413 72.4988C209.448 72.4988 223.671 69.3862 228.821 61.4202C229.57 60.3536 230.128 59.0658 230.453 57.6568C230.779 56.2479 230.861 54.7557 230.696 53.2959C229.362 41.9008 208.008 33.8293 201.505 33.8293C195.002 33.8293 173.628 41.9008 172.324 53.2959C172.154 54.6987 172.213 56.1353 172.497 57.5033C172.781 58.8712 173.282 60.1367 173.966 61.2092C178.904 69.3598 193.601 72.1427 201.505 72.4856L202.413 72.4988ZM201.505 35.1482C208.655 35.1482 228.56 43.4835 229.739 53.5069C229.883 54.7743 229.81 56.0701 229.525 57.2923C229.24 58.5145 228.751 59.6296 228.096 60.5497C222.927 68.5553 208.008 71.4437 201.514 71.1008C193.784 70.7579 179.406 68.0937 174.691 60.3123C174.098 59.3833 173.662 58.2869 173.414 57.1014C173.167 55.9159 173.115 54.6705 173.261 53.4542V53.4542C174.42 43.4835 194.345 35.1482 201.505 35.1482V35.1482Z" fill="#EA9191"/>
<path d="M201.505 38.9202C206.104 38.9202 221.13 37.997 221.13 25.9424C221.13 20.9175 210.163 12.7537 201.505 12.7537C192.847 12.7537 181.87 20.9571 181.87 25.9424C181.87 37.997 196.896 38.9202 201.505 38.9202ZM201.505 14.033C210.404 14.033 220.163 22.3947 220.163 25.9029C220.163 36.7309 205.882 37.5617 201.505 37.5617C197.128 37.5617 182.837 36.7309 182.837 25.9029C182.837 22.3947 192.615 14.033 201.505 14.033V14.033Z" fill="#EA9191"/>
<path d="M201.505 14.3099C206.143 14.3099 211.554 12.5162 211.554 7.46494C211.554 4.29963 206.104 0.540833 201.505 0.540834C196.905 0.540835 191.446 4.29964 191.446 7.46494C191.446 12.5162 196.867 14.3099 201.505 14.3099ZM201.505 1.85971C206.191 1.85971 210.588 5.71083 210.588 7.46494C210.588 11.2765 206.027 12.991 201.505 12.991C196.983 12.991 192.412 11.2765 192.412 7.46494C192.412 5.71083 196.809 1.85971 201.505 1.85971Z" fill="#EA9191"/>
<path d="M201.022 0.685913L201.988 0.685913L201.988 398.341L201.022 398.341L201.022 0.685913Z" fill="#EA9191"/>
<path d="M139.78 392.326C142.679 386.537 145.829 380.76 149.162 374.653C157.53 359.341 166.188 343.502 170.894 326.805C179.59 296.101 181.213 259.357 182.817 223.827C183.378 211.39 183.909 199.638 184.75 188.323C185.938 171.837 186.605 154.506 187.311 136.161C189.098 89.2748 190.953 40.7929 201.969 0.923214L201.07 0.461609C189.997 40.5159 188.142 89.1034 186.344 136.082C185.639 154.414 184.982 171.691 183.784 188.191C182.962 199.533 182.431 211.297 181.851 223.8C180.247 259.225 178.595 295.877 169.995 326.383C165.328 342.921 156.719 358.682 148.389 373.862C145.046 379.982 141.886 385.732 138.988 391.575L139.78 392.326Z" fill="#EA9191"/>
<path d="M83.6108 373.941C88.1909 369.853 93.2735 365.804 98.6749 361.531C115.411 348.236 134.427 333.175 142.853 311.717C155.588 279.431 160.902 240.893 166.043 203.635C167.096 196.025 168.082 188.837 169.145 181.649C171.386 166.482 173.57 151.025 175.677 136.082C177.831 120.77 180.063 104.943 182.363 89.4067C183.165 83.9861 183.89 78.2754 184.653 72.2613C187.784 47.6247 191.301 19.6645 201.882 1.09468L201.118 0.290161C190.393 19.1633 186.837 47.2422 183.725 72.0107C182.962 78.038 182.247 83.7487 181.445 89.1561C179.145 104.706 176.913 120.532 174.749 135.844C172.642 150.787 170.468 166.179 168.227 181.398C167.164 188.599 166.178 195.787 165.125 203.397C159.984 240.563 154.68 278.995 142.022 311.11C133.692 332.212 114.841 347.194 98.2014 360.396C92.8 364.683 87.6981 368.745 83.0987 372.847L83.6108 373.941Z" fill="#EA9191"/>
<path d="M39.0371 345.111C45.057 342.262 52.0334 339.637 59.4156 336.855C81.9779 328.348 107.555 318.707 120.561 297.855C138.195 269.579 146.65 226.254 154.042 188.019C155.491 180.568 156.863 173.512 158.264 166.799C160.748 154.85 163.183 142.663 165.54 130.872C168.855 114.334 172.304 97.2278 175.889 80.5044C176.855 76.1521 177.735 71.4305 178.701 66.432C183.117 43.5231 188.615 14.9958 201.795 1.21348L201.205 0.17157C187.765 14.244 182.218 42.9955 177.764 66.1154C176.797 71.1008 175.899 75.8092 174.962 80.1351C171.348 96.8717 167.917 113.991 164.613 130.543C162.255 142.32 159.782 154.507 157.327 166.456C155.936 173.182 154.564 180.225 153.105 187.703C145.703 225.792 137.316 268.959 119.817 297.011C107.014 317.559 81.5914 327.134 59.1644 335.588C51.7628 338.385 44.7671 341.022 38.7183 343.871L39.0371 345.111Z" fill="#EA9191"/>
<path d="M10.3971 308.71L63.5417 297.499C66.8366 296.8 70.5084 296.312 74.3832 295.785C85.4759 294.294 98.0469 292.593 106.212 285.352C126.301 267.561 136.166 222.89 144.022 187.004C145.722 179.288 147.326 171.995 148.901 165.612C151.8 154.019 154.583 142.188 157.318 130.754C161.473 113.371 165.763 95.3813 170.275 77.827C171.241 74.2792 172.121 70.3754 173.106 66.2473C178.904 41.9931 186.054 11.804 201.756 1.27939L201.331 0.0924073C185.262 10.8676 178.005 41.3469 172.179 65.8516C171.212 69.9665 170.246 73.8572 169.367 77.3918C164.845 94.9592 160.555 113.001 156.4 130.345C153.665 141.779 150.844 153.61 147.983 165.189C146.399 171.599 144.795 178.893 143.094 186.621C135.248 222.31 125.479 266.717 105.69 284.218C97.7184 291.274 85.2729 292.949 74.2865 294.439C70.4215 294.954 66.7207 295.455 63.3871 296.154L10.2425 307.378L10.3971 308.71Z" fill="#EA9191"/>
<path d="M87.2924 270.502C91.9403 270.653 96.581 269.92 101.081 268.326C124.213 259.094 135.741 204.927 143.365 169.054C145.056 161.075 146.524 154.164 147.906 148.717C149.066 144.167 150.206 139.616 151.356 135.066C157.598 110.258 164.062 84.5929 171.454 59.8903C172.217 57.2525 173 54.6148 173.802 51.7133C179.406 31.9301 186.363 7.37259 201.592 1.31894L201.321 6.10721e-05C185.648 6.22516 178.585 31.1651 172.903 51.1857C172.101 54.0213 171.328 56.7646 170.555 59.3364C163.154 84.0785 156.69 109.757 150.438 134.512C149.298 139.067 148.151 143.617 146.998 148.163C145.606 153.649 144.099 160.56 142.437 168.566C134.871 204.175 123.431 257.959 100.81 266.928C92.6165 270.185 81.949 269.038 71.6389 267.917C66.8076 267.402 62.2662 266.914 58.2078 266.914L0.434888 266.914L0.434888 268.233L58.2562 268.233C62.2758 268.233 66.8076 268.721 71.6099 269.236C76.8857 269.922 82.2485 270.502 87.2924 270.502Z" fill="#EA9191"/>
<path d="M97.4284 247.316C100.361 247.412 103.285 246.833 106.077 245.601C126.764 235.486 138.359 187.122 146.032 155.126C147.655 148.361 149.182 141.938 150.573 136.886C153.018 127.944 155.404 118.791 157.733 109.929C163.018 89.6969 168.497 68.7795 174.913 48.8909C175.59 46.7719 176.279 44.5737 176.981 42.2965C182.006 25.9688 188.267 5.64488 201.611 1.41128L201.389 0.0924073C187.571 4.51065 181.204 25.1511 176.092 41.7953C175.387 44.0638 174.701 46.2795 174.024 48.3897C167.599 68.3311 162.12 89.2749 156.815 109.533C154.506 118.383 152.109 127.536 149.674 136.464C148.273 141.582 146.776 147.978 145.114 154.757C137.499 186.503 125.991 234.496 105.748 244.441C97.4671 248.503 83.8235 244.203 72.895 240.761C68.827 239.442 64.9813 238.282 61.8119 237.609L10.397 226.728L10.252 228.047L61.6283 238.902C64.759 239.561 68.5854 240.761 72.6341 242.04C80.4802 244.414 89.679 247.316 97.4284 247.316Z" fill="#EA9191"/>
<path d="M109.439 223.721C113.222 223.89 116.981 222.832 120.406 220.635C139.48 207.248 149.24 164.952 156.361 134.077C157.694 128.287 158.96 122.827 160.149 118.145C161.695 112.065 163.318 103.637 165.212 93.8646C171.976 58.9276 182.16 6.11971 201.592 1.33218L201.418 0.0133057C181.387 4.94591 171.087 58.2417 164.275 93.5085C162.39 103.242 160.767 111.656 159.231 117.684C158.042 122.379 156.776 127.852 155.443 133.642C148.37 164.306 138.688 206.299 119.971 219.435C105.864 229.313 77.021 212.221 55.9565 199.731C49.2892 195.774 43.5399 192.372 39.0372 190.248L38.7183 191.488C43.1824 193.598 48.9221 197.001 55.57 200.944C72.3153 210.902 93.9307 223.721 109.439 223.721Z" fill="#EA9191"/>
<path d="M137.973 206.945C139.561 206.979 141.137 206.58 142.611 205.771C157.578 197.199 164.951 151.302 169.357 123.882C170.323 117.842 171.164 112.645 171.918 108.807C173.097 102.754 174.188 94.8405 175.445 85.6084C179.744 54.1664 185.629 11.1314 201.698 1.20024L201.302 6.10893e-05C184.769 10.1422 178.836 53.5729 174.498 85.2919C173.242 94.524 172.159 102.437 170.98 108.385C170.227 112.25 169.386 117.472 168.41 123.513C164.052 150.695 156.738 196.17 142.234 204.466C131.248 210.757 109.091 187.584 94.433 172.245C90.1235 167.735 86.3937 163.831 83.6108 161.352L83.0794 162.446C85.8333 164.912 89.5534 168.803 93.8436 173.301C107.642 187.835 125.943 206.945 137.973 206.945Z" fill="#EA9191"/>
<path d="M170.179 201.129C170.301 201.149 170.424 201.149 170.546 201.129C179.242 198.61 183.291 151.447 185.861 110.641C186.132 106.381 186.325 103.308 186.46 102.002C187.252 94.1547 187.736 85.6084 188.257 76.5741C189.765 50.1966 191.465 20.2185 201.891 1.13434L201.118 0.343018C190.489 19.7437 188.808 49.88 187.291 76.4686C186.779 85.4897 186.325 94.0097 185.504 101.817C185.368 103.136 185.165 106.249 184.895 110.535C183.552 131.967 179.435 197.199 170.343 199.836C165.879 201.155 150.138 166.06 143.423 151.038C141.683 147.16 140.437 144.444 139.78 143.125L138.988 143.876C139.625 145.195 140.92 148.07 142.592 151.79C154.139 177.442 165.434 201.129 170.179 201.129Z" fill="#EA9191"/>
<path d="M201.022 0.685913L201.988 0.685913L201.988 202.065L201.022 202.065L201.022 0.685913Z" fill="#EA9191"/>
<path d="M232.831 201.129C237.663 201.129 249.258 176.36 259.79 153.016C261.723 148.783 263.201 145.446 264.022 143.784L263.22 143.032C262.389 144.694 260.882 148.044 258.969 152.265C252.398 166.851 237.015 201.063 232.657 199.744C224.357 197.331 221.961 157.659 220.666 136.346C220.347 130.938 220.086 126.665 219.806 123.988C218.84 114.241 218.25 103.202 217.671 91.5039C216.076 59.3629 214.26 22.9223 201.891 0.250802L201.118 1.04213C213.313 23.463 215.12 59.6267 216.704 91.5962C217.284 103.308 217.835 114.373 218.849 124.173C219.12 126.81 219.381 131.07 219.709 136.451C221.11 159.624 223.458 198.439 232.464 201.076C232.584 201.114 232.708 201.132 232.831 201.129V201.129Z" fill="#EA9191"/>
<path d="M264.931 206.945C276.874 206.945 295.291 187.782 309.185 173.327C313.476 168.869 317.176 165.018 319.921 162.552L319.389 161.457C316.616 163.937 312.896 167.801 308.596 172.272C293.861 187.61 271.588 210.796 260.766 204.571C247.779 197.106 241.363 159.571 237.527 137.15C236.725 132.415 236.02 128.34 235.382 125.135C233.102 113.859 230.889 102.371 228.744 91.2532C226.377 78.9745 223.913 66.2869 221.391 53.8499C220.84 51.2121 220.299 48.06 219.729 44.7892C216.888 28.4615 212.965 6.1065 201.679 0.0924234L201.321 1.31897C212.163 7.08246 215.989 29.0154 218.791 45.0925C219.362 48.3765 219.903 51.4891 220.463 54.206C222.995 66.643 225.439 79.2646 227.807 91.5829C229.952 102.701 232.174 114.202 234.445 125.478C235.092 128.657 235.788 132.732 236.59 137.44C240.716 161.589 246.958 198.109 260.389 205.798C261.833 206.586 263.376 206.976 264.931 206.945V206.945Z" fill="#EA9191"/>
<path d="M293.513 223.708C308.973 223.708 330.714 210.862 347.527 200.905C354.146 196.948 359.856 193.611 364.282 191.514L363.973 190.275C359.508 192.385 353.778 195.774 347.14 199.705C325.998 212.208 297.049 229.353 283.038 219.488C266.138 207.618 257.113 170.821 250.523 143.995C249.47 139.669 248.465 135.594 247.518 131.993C245.992 126.177 244.194 117.341 242.107 107.093C234.02 67.3552 221.816 7.30675 201.621 0.0793069L201.379 1.39818C221.023 8.4278 233.15 68.041 241.18 107.489C243.267 117.75 245.045 126.612 246.61 132.468C247.576 136.069 248.543 140.144 249.615 144.457C256.253 171.494 265.346 208.528 282.594 220.701C286.007 222.873 289.75 223.903 293.513 223.708V223.708Z" fill="#EA9191"/>
<path d="M305.939 247.25C313.514 247.25 321.988 244.612 329.728 242.133C333.903 240.814 337.855 239.495 341.323 238.822L392.7 227.968L392.555 226.649L341.178 237.504C337.623 238.255 333.661 239.508 329.458 240.827C318.578 244.269 306.267 248.16 297.184 244.335C277.676 236.079 264.689 182.783 256.93 150.946C255.538 145.209 254.331 140.25 253.287 136.438C251.528 129.949 249.567 120.994 247.296 110.628C238.291 69.5445 224.676 7.46497 201.563 0.0660662L201.341 1.38494C223.913 8.61239 237.421 70.2567 246.369 111.05C248.639 121.442 250.611 130.411 252.379 136.926C253.413 140.751 254.621 145.697 256.012 151.434C263.839 183.522 276.922 237.161 296.895 245.667C299.834 246.814 302.883 247.348 305.939 247.25Z" fill="#EA9191"/>
<path d="M316.8 270.647C322.597 270.647 328.714 270.001 334.463 269.407C339.594 268.853 344.454 268.352 348.512 268.352L402.517 268.352L402.517 267.033L348.512 267.033C344.415 267.033 339.545 267.548 334.386 268.088C323.283 269.249 310.693 270.581 302.151 267.06C281.077 258.368 271.356 214.595 264.264 182.651C262.679 175.503 261.181 168.75 259.722 163.185C256.756 151.816 253.838 140.197 251.026 128.894C246.417 110.535 241.643 91.5434 236.532 73.0791C235.711 70.138 234.86 66.8804 233.962 63.4249C227.758 39.6852 219.255 7.00338 201.669 0.0133331L201.399 1.33221C218.501 8.13761 226.918 40.371 233.053 63.9129C233.952 67.3816 234.812 70.6524 235.624 73.5935C240.755 92.0578 245.518 111.023 250.118 129.369C252.939 140.606 255.857 152.238 258.814 163.66C260.263 169.199 261.761 175.938 263.346 183.087C270.496 215.333 280.304 259.489 301.871 268.378C306.743 270.096 311.77 270.859 316.8 270.647V270.647Z" fill="#EA9191"/>
<path d="M392.632 308.71L392.777 307.391L339.632 296.167C336.154 295.442 332.395 294.941 328.404 294.426C317.65 293.015 305.456 291.419 297.329 284.218C277.888 267.007 267.249 219.29 259.481 184.458C257.906 177.442 256.427 170.808 255.036 165.163C252.137 153.583 249.354 141.766 246.629 130.332C242.474 112.936 238.175 94.9329 233.652 77.3655C232.744 73.8309 231.817 69.9402 230.841 65.8253C225.043 41.3205 217.767 10.8413 201.698 0.0660661L201.273 1.25306C216.975 11.8041 224.154 41.9668 229.923 66.221C230.889 70.349 231.855 74.2529 232.744 77.8007C237.257 95.355 241.556 113.41 245.711 130.74C248.436 142.175 251.267 153.992 254.128 165.585C255.509 171.204 257.026 177.824 258.553 184.841C266.37 219.87 277.067 267.851 296.807 285.326C305.127 292.699 317.447 294.321 328.317 295.732C332.289 296.26 336.047 296.748 339.487 297.473L392.632 308.71Z" fill="#EA9191"/>
<path d="M363.973 345.111L364.282 343.858C358.233 341.009 351.247 338.371 343.845 335.575C321.399 327.095 295.967 317.493 283.183 296.998C265.549 268.721 257.307 226.108 250.04 188.507C248.543 180.765 247.142 173.459 245.673 166.442C243.189 154.572 240.754 142.36 238.406 130.595C235.092 114.017 231.643 96.8848 228.038 80.1219C227.072 75.796 226.193 71.0876 225.236 66.1022C220.782 42.9955 215.235 14.244 201.795 0.158347L201.205 1.20026C214.385 14.9957 219.883 43.5098 224.299 66.4187C225.265 71.4173 226.174 76.1389 227.111 80.4912C230.734 97.2277 234.165 114.36 237.469 130.925C239.827 142.689 242.301 154.863 244.745 166.785C246.204 173.802 247.644 181.095 249.103 188.837C256.398 226.57 264.67 269.288 282.449 297.842C295.416 318.641 321.012 328.308 343.594 336.828C350.976 339.637 357.953 342.262 363.973 345.111Z" fill="#EA9191"/>
<path d="M319.389 373.941L319.921 372.834C315.379 368.771 310.316 364.749 304.963 360.489C288.276 347.181 269.288 332.093 261.008 311.136C248.446 279.18 243.016 240.326 237.817 202.738C236.793 195.339 235.827 188.362 234.802 181.425C232.561 166.258 230.387 150.801 228.28 135.844C226.116 120.546 223.884 104.719 221.584 89.1826C220.792 83.7884 220.067 78.0777 219.304 72.0372C216.173 47.2687 212.627 19.1898 201.911 0.316667L201.147 1.12118C211.699 19.6646 215.236 47.6248 218.347 72.235C219.11 78.2755 219.825 83.9862 220.627 89.3804C222.927 104.904 225.159 120.73 227.314 136.029C229.42 150.985 231.604 166.442 233.846 181.623C234.87 188.547 235.836 195.524 236.861 202.909C241.837 238.849 247.489 279.563 260.157 311.69C268.564 333.017 287.638 348.21 304.47 361.597C309.823 365.883 314.867 369.906 319.389 373.941Z" fill="#EA9191"/>
<path d="M263.22 392.326L264.022 391.575C261.123 385.798 257.973 380.021 254.64 373.902C246.291 358.629 237.663 342.816 233.015 326.33C224.512 296.167 222.705 257.168 221.12 222.772C220.55 210.572 220.019 199.032 219.236 188.191C218.047 171.731 217.381 154.414 216.675 136.082C214.878 89.1034 213.023 40.5159 201.949 0.461617L201.051 0.923223C212.066 40.7929 213.921 89.288 215.719 136.161C216.414 154.506 217.081 171.771 218.27 188.323C219.062 199.164 219.593 210.664 220.154 222.851C221.748 257.353 223.555 296.457 232.107 326.805C236.803 343.462 245.48 359.341 253.857 374.693C257.191 380.799 260.341 386.563 263.22 392.326Z" fill="#EA9191"/>
</svg>
