<svg width="1201" height="640" viewBox="0 0 1201 640" fill="none" xmlns="http://www.w3.org/2000/svg">
<rect width="1200.23" height="638.879" transform="matrix(1 -0.000934228 0.00119951 0.999999 0 1.12131)" fill="#DCA5DC"/>
<path d="M1110.62 423.047C1111.08 422.962 1111.54 422.88 1112 422.794L1111.35 421.209C1110.79 421.313 1110.23 421.416 1109.67 421.519C1098.86 404.196 1078.33 389.809 1055.71 376.66C1018.27 354.896 986.083 329.091 954.957 304.135C931.067 284.982 906.47 265.323 879.493 247.44L879.439 246.831C879.157 246.842 878.892 246.842 878.611 246.853C873.027 243.167 867.378 239.53 861.569 236.02C825.044 213.945 780.797 201.535 733.065 194.663C732.669 194.284 732.269 193.904 731.829 193.534C731.179 192.835 730.525 192.142 729.882 191.435C728.931 189.262 727.976 187.07 727.012 184.853C721.896 173.094 716.472 160.65 710.308 148.396C706.949 137.844 702.921 127.658 698.015 118.243C696.13 106.379 687.104 88.4381 673.749 74.0935C670.806 70.1599 667.328 66.2789 663.402 62.6749C650.491 50.8169 635.293 44.1793 620.498 43.878L619.943 40.8288L618.506 43.8576C600.827 43.951 575.095 46.9767 554.591 53.5758C536.737 56.4509 519.298 60.9392 507.614 67.9463C496.662 70.3553 487.032 73.5269 479.828 77.6755C475.475 80.1826 472.107 82.9791 469.692 86.0315C459.566 88.2373 452.705 90.8643 448.103 93.4961C445.466 95.0035 443.329 96.6513 441.655 98.4208C435.516 100.914 429.356 103.522 423.157 106.256C420.502 106.953 418.203 107.813 416.309 108.859C415.485 109.313 414.761 109.81 414.083 110.329C402.632 115.55 391.023 121.149 379.134 127.104C360.215 136.579 341.578 145.778 322.93 154.589L322.479 154.711L322.431 154.825C313.65 158.969 304.866 163.026 296.049 166.982C294.064 166.69 292.914 166.518 292.767 166.496L291.115 166.249L291.294 167.386C291.297 167.413 291.663 167.854 292.346 168.64C286.118 171.41 279.868 174.127 273.59 176.791C265.989 176.629 261.214 176.986 259.402 177.977L258.75 178.425L258.984 178.954C259.134 179.29 260.28 180.173 262.289 181.511C257.153 183.622 251.991 185.694 246.801 187.725C236.725 186.741 229.11 186.693 225.501 188.369C223.268 189.407 222 191.359 221.732 194.173C221.706 194.434 221.727 194.733 221.72 195.009C209.124 194.51 198.114 195.05 189.821 197.553C187.406 198.282 185.637 199.7 184.359 201.598C172.28 201.85 161.179 202.903 151.858 205.333C149.922 205.838 148.197 206.533 146.656 207.387C134.315 207.975 122.471 209.175 111.518 211.363C102.584 213.147 95.6347 217.119 90.8645 223.168C75.9188 242.121 85.7609 276.821 93.0566 292.52C107.553 323.732 138.186 354.328 189.462 388.809C294.923 459.728 440.044 498.608 620.796 504.368C692.887 506.667 761.519 526.382 843.335 568.296C847.159 570.255 850.926 572.234 854.656 574.194C879.172 587.074 902.712 599.443 930.809 599.442C942.033 599.441 953.99 597.466 967.018 592.76C1026.12 571.414 1076.56 523.532 1101.79 489.014C1121.14 462.533 1121.23 441.182 1110.62 423.047ZM953.095 305.195C984.283 330.201 1016.53 356.058 1054.12 377.907C1078.44 392.041 1097.47 406.117 1107.58 421.906C1073.42 428.209 1039.11 433.559 1005.79 436.273C1003.25 415.563 995.814 396.745 985.242 383.627C981.035 378.408 976.759 373.044 972.407 367.579C963.686 356.634 954.681 345.334 945.285 334.018C953.353 334.435 961.627 334.668 970.167 334.668C975.114 334.668 980.154 334.598 985.265 334.46L985.165 332.816C970.749 333.206 956.996 333.039 943.862 332.306C918.888 302.352 891.106 272.4 858.44 248.655C860.856 248.715 863.282 248.767 865.779 248.767C869.633 248.767 873.612 248.68 877.667 248.534C904.612 266.387 929.209 286.044 953.095 305.195ZM985.528 516.46C978.258 527.348 969.13 536.513 958.392 543.825C933.653 537.572 910.575 529.581 889.174 519.862C898.035 513.585 904.633 505.047 908.714 496.748C918.618 476.605 925.136 457.056 928.285 438.54C939.111 439.43 950.162 439.842 961.392 439.842C975.209 439.842 989.303 439.205 1003.58 438.096C1006.39 463.9 1001.54 492.492 985.528 516.46ZM138.629 223.567C153.383 220.092 167.699 216.245 181.677 212.078C181.292 230.562 194.511 259.485 194.698 259.889C200.829 273.147 210.798 286.193 224.801 299.254C211.575 307.567 197.859 315.631 183.578 323.385C165.621 306.469 153.41 289.764 146.721 272.95C141.185 259.023 135.739 238.262 138.629 223.567ZM147.693 208.993C151.677 208.814 155.712 208.692 159.792 208.628C157.251 209.086 154.716 209.561 152.167 209.999L152.766 211.594C158.335 210.635 163.88 209.619 169.414 208.569C173.563 208.578 177.741 208.631 181.939 208.712C181.873 209.216 181.81 209.721 181.77 210.247C167.888 214.407 153.685 218.257 139.042 221.732C140.446 216.229 143.171 211.735 147.693 208.993ZM195.661 203.22C198.226 203.261 200.817 203.323 203.443 203.413C199.462 204.732 195.454 206.021 191.421 207.287C189.181 207.223 186.943 207.166 184.707 207.116C184.823 206.536 184.962 205.981 185.122 205.45C188.637 204.723 192.15 203.987 195.661 203.22ZM185.826 203.577C185.886 203.452 185.945 203.328 186.009 203.207C186.55 203.199 187.099 203.197 187.645 203.192C187.039 203.32 186.433 203.451 185.826 203.577ZM274.357 178.411C276.39 178.469 278.612 178.561 281.027 178.687C276.579 180.084 272.143 181.453 267.728 182.777C267.19 182.445 266.674 182.127 266.2 181.829C268.926 180.7 271.645 179.56 274.357 178.411ZM285.922 178.972C291.016 179.292 296.753 179.724 303.014 180.245C307.96 185.419 314.175 191.679 321.132 198.154C309.403 196.759 296.979 194.874 285.323 193.078C278.926 189.454 273.673 186.384 269.714 183.989C275.092 182.371 280.494 180.698 285.922 178.972ZM296.541 168.739C299.006 169.101 302.479 169.608 306.818 170.235C304.195 171.128 301.559 172.042 298.952 172.909C297.572 171.407 296.442 170.153 295.57 169.176C295.894 169.031 296.217 168.884 296.541 168.739ZM310.62 170.783C322.487 172.488 339.383 174.873 359.253 177.561C362.533 179.623 365.789 181.665 368.941 183.623C368.054 183.957 367.166 184.291 366.276 184.62C341.477 182.125 320.78 180.09 304.381 178.715C302.869 177.126 301.478 175.643 300.248 174.315C303.685 173.17 307.155 171.972 310.62 170.783ZM325.966 155.163C334.735 151.009 343.507 146.769 352.305 142.455C352.224 142.647 352.123 142.822 352.083 143.051C351.548 146.043 353.189 149.024 356.958 151.907C356.975 151.921 356.998 151.935 357.016 151.949C349.614 154.814 342.297 157.573 335.057 160.234C330.501 157.486 327.726 155.943 325.966 155.163ZM331.974 160.583C328.799 159.415 326.54 158.288 325.342 157.217C325.081 156.983 324.883 156.76 324.755 156.547C326.255 157.247 328.802 158.689 331.974 160.583ZM383.463 130.977C383.863 128.443 385.342 126.702 387.986 125.654C390.083 124.821 392.813 124.467 395.965 124.467C400.28 124.467 405.383 125.14 410.698 126.153C411.154 127.257 411.737 128.343 412.428 129.412C411.306 129.881 410.191 130.346 409.066 130.816C404.026 132.922 398.978 135.033 393.911 137.141C391.412 138.18 388.964 139.167 386.488 140.184C384.003 137.215 382.964 134.134 383.463 130.977ZM411.821 118.912C411.953 115.977 413.269 113.525 415.701 111.577C418.587 110.263 421.463 108.971 424.33 107.707C427.98 106.77 432.413 106.182 437.612 105.939C437.519 106.417 437.422 106.894 437.383 107.383C437.119 110.544 437.618 113.575 438.805 116.478C437.576 117.639 436.355 118.802 435.146 119.968C430.018 122.083 424.88 124.216 419.727 126.365C417.392 125.807 415.056 125.291 412.74 124.828C412.068 122.903 411.731 120.934 411.821 118.912ZM466.843 90.7435C466.505 91.5148 466.228 92.3019 465.998 93.0999C461.241 96.7314 456.623 100.515 452.13 104.398C447.98 104.191 444.126 104.126 440.568 104.201C441.172 102.589 442.139 101.064 443.439 99.6221C451.26 96.4567 459.049 93.493 466.843 90.7435ZM695.948 122.539C694.241 119.277 692.363 115.917 690.307 112.527C689.806 110.575 689.275 108.678 688.71 106.845C691.195 110.587 693.493 114.518 695.626 118.597C695.841 120.023 695.95 121.343 695.948 122.539ZM926.163 436.681C905.146 434.802 885.021 431.062 866.14 424.941C872.65 407.939 877.237 389.859 877.474 372.248C877.679 357.114 874.939 339.619 869.058 321.847C879.51 324.923 890.49 327.434 902.025 329.389C912.084 348.074 919.374 366.391 923.84 382.115C928.556 398.713 929.288 417.094 926.163 436.681ZM184.233 211.31C186.805 210.534 189.366 209.747 191.916 208.948C199.03 209.153 206.162 209.411 213.244 209.671C217.462 209.827 221.706 209.978 225.957 210.122C233.613 226.886 250.561 250.4 268.444 269.721C255.05 279.446 241.126 288.936 226.598 298.123C212.848 285.264 203.048 272.429 197.024 259.398C191.354 247.128 183.733 225.194 184.233 211.31ZM184.353 209.47C184.376 209.229 184.413 209.004 184.442 208.769C185.139 208.784 185.836 208.799 186.532 208.816C185.809 209.038 185.077 209.251 184.353 209.47ZM511.127 68.9099C517.071 67.6937 523.366 66.6893 529.881 65.8795C527.253 68.0892 525.172 70.4769 523.771 73.0546C515.232 74.7856 506.801 76.7849 498.443 79.0464C500.322 75.9916 503.112 73.2555 506.621 70.8112C508.11 70.1544 509.613 69.5212 511.127 68.9099ZM552.32 63.8221C550.418 65.4723 548.54 67.2425 546.685 69.1202C539.944 70.0712 533.291 71.1863 526.71 72.4676C528.316 69.9363 530.613 67.5964 533.488 65.4487C539.666 64.7535 545.981 64.2215 552.32 63.8221ZM562.387 58.6683C562.505 58.6676 562.622 58.666 562.742 58.6652C561.028 59.6696 559.447 60.732 558.042 61.8588C557.989 61.862 557.935 61.8651 557.882 61.8675C559.372 60.7116 560.875 59.65 562.387 58.6683ZM381.702 180.552C409.934 184.259 441.878 188.235 472.966 191.639C472.827 191.706 472.688 191.764 472.549 191.832C466.71 192.295 460.877 192.778 455.051 193.275C427.898 190.829 400.748 188.099 375.715 185.572C374.91 185.079 374.094 184.576 373.272 184.068C373.384 183.96 373.5 183.851 373.615 183.743C376.328 182.7 379.022 181.633 381.702 180.552ZM376.975 180.526C377.157 180.352 377.341 180.177 377.522 180.002C377.722 180.028 377.917 180.054 378.116 180.08C377.738 180.231 377.354 180.376 376.975 180.526ZM495.764 87.3262C495.837 86.099 496.049 84.9165 496.365 83.7685C503.816 83.0811 512.254 82.5672 521.817 82.2792C521.981 83.9113 522.408 85.4925 523.123 87.0132C514.439 89.7885 505.854 92.7036 497.343 95.7442C496.15 93.1634 495.582 90.3637 495.764 87.3262ZM525.637 74.4199C531.952 73.1597 538.327 72.0423 544.785 71.089C542.052 73.9876 539.374 77.1066 536.755 80.4062C532.371 80.4305 528.178 80.4949 524.175 80.5992C524.181 80.1512 524.178 79.7039 524.228 79.2472C524.411 77.5665 524.909 75.9626 525.637 74.4199ZM643.23 55.397C645.219 56.5513 647.15 57.795 648.956 59.1839C651.947 61.483 654.507 63.972 656.603 66.5598C656.598 66.5575 656.594 66.5551 656.589 66.5535C651.303 64.3761 645.463 63.0963 639.11 62.7031C638.529 62.1201 637.913 61.545 637.22 60.9886C635.417 59.5417 633.329 58.3129 631.067 57.2858C635.447 55.7101 639.507 55.084 643.23 55.397ZM681.672 99.7155C679.243 96.4818 676.643 93.3078 673.864 90.2586C673.704 89.7218 673.54 89.1859 673.375 88.6523C676.308 91.3587 679.063 94.2714 681.647 97.3669C681.707 98.1814 681.721 98.9677 681.672 99.7155ZM719.039 195.847C719.242 197.007 719.442 198.164 719.638 199.317C713.493 198.557 707.29 197.888 701.031 197.311C699.871 196.523 698.719 195.695 697.575 194.827C697.571 194.81 697.568 194.794 697.564 194.776C697.562 193.921 697.563 193.071 697.559 192.215C702.852 192.692 708.11 193.23 713.338 193.818C715.3 194.464 717.198 195.142 719.039 195.847ZM742.286 209.8C742.471 209.991 742.629 210.191 742.806 210.384C741.224 210.03 739.635 209.685 738.036 209.354C737.837 208.941 737.638 208.534 737.438 208.116C737.441 208.107 737.443 208.099 737.445 208.091C738.701 208.314 739.961 208.53 741.211 208.767C741.571 209.111 741.946 209.448 742.286 209.8ZM835.374 355.878C831.739 372.79 825.926 387.973 817.794 401.793C814.253 399.422 810.785 396.923 807.397 394.276C798.802 387.563 791.233 380.355 784.495 372.775C794.162 360.523 801.068 348.099 805.929 334.562C810.179 322.726 812.21 309.353 811.337 295.767C818.959 300.695 826.954 305.146 835.354 309.111C838.585 325.651 838.37 341.929 835.374 355.878ZM776.867 436.155C774.027 431.087 771.519 425.902 769.093 420.789C766.039 414.357 762.884 407.705 759.051 401.442C758.764 400.974 758.469 400.524 758.181 400.061C768.024 391.38 776.256 382.943 783.142 374.449C789.762 381.804 797.177 388.809 805.556 395.353C809.221 398.215 812.978 400.903 816.816 403.447C812.711 410.212 808.047 416.65 802.783 422.795C797.963 428.422 793.429 432.003 789.787 434.881C786.171 437.739 783.442 439.93 782.502 442.629C780.594 440.501 778.717 438.34 776.867 436.155ZM723.692 362.522C723.808 362.622 723.926 362.718 724.042 362.819C723.797 362.943 723.562 363.074 723.316 363.198C723.453 362.975 723.559 362.745 723.692 362.522ZM724.697 360.714C725.062 360.017 725.397 359.311 725.721 358.602C726.128 359.505 726.536 360.406 726.949 361.303C726.632 361.472 726.307 361.636 725.987 361.804C725.56 361.436 725.126 361.077 724.697 360.714ZM489.415 171.936C493.69 172.493 497.969 173.02 502.231 173.514C499.726 175.36 497.213 177.123 494.698 178.835C492.045 178.615 489.403 178.371 486.77 178.108C486.978 177.621 487.186 177.132 487.405 176.625C488.028 175.166 488.701 173.596 489.415 171.936ZM502.114 143.704C513.444 144.43 524.859 144.761 536.112 144.892C534.207 146.683 532.29 148.464 530.354 150.227C520.588 149.013 510.699 147.501 501.206 145.623C501.507 144.986 501.807 144.348 502.114 143.704ZM498.825 145.154C494.851 144.336 490.968 143.443 487.196 142.487C491.304 142.899 495.437 143.245 499.588 143.533C499.331 144.075 499.077 144.615 498.825 145.154ZM536.285 84.7478C539.345 83.8305 542.412 82.9211 545.504 82.043C548.438 82.0642 551.453 82.1034 554.554 82.1607C555.234 82.8395 555.978 83.5072 556.845 84.1514C558.394 85.3034 560.207 86.3525 562.195 87.3168C554.611 90.9467 547.138 94.6606 539.76 98.431C536.63 96.9919 533.812 95.3841 531.457 93.5777C531.127 93.3243 530.842 93.0606 530.534 92.8017C532.415 90.0389 534.333 87.3466 536.285 84.7478ZM528.799 91.2002C527.752 90.1283 526.879 89.0164 526.187 87.8669C528.325 87.1897 530.456 86.5047 532.608 85.8463C531.322 87.5962 530.052 89.3797 528.799 91.2002ZM538.05 82.4338C538.157 82.2965 538.262 82.1568 538.37 82.0195C538.741 82.0187 539.103 82.0156 539.476 82.0156C539.001 82.1544 538.525 82.2933 538.05 82.4338ZM583.43 68.4171C583.484 68.0593 583.592 67.6984 583.741 67.3359C590.456 67.0212 597.28 66.8604 604.24 66.8729C597.322 68.0727 590.492 69.3666 583.781 70.7908C583.444 70.0257 583.303 69.2363 583.43 68.4171ZM681.001 102.944C679.325 101.023 677.61 99.1427 675.837 97.3222C675.687 96.751 675.535 96.1797 675.382 95.6085C677.354 97.9978 679.233 100.442 681.01 102.915C681.007 102.925 681.005 102.934 681.001 102.944ZM691.824 185.961C691.368 183.748 690.916 181.556 690.456 179.383C690.963 179.493 691.456 179.608 691.958 179.719C692.066 180.238 692.178 180.767 692.286 181.286C692.67 183.132 693.065 185.01 693.451 186.866C692.954 186.763 692.449 186.665 691.949 186.563L691.824 185.961ZM803.56 334.174C798.868 347.244 792.234 359.269 783.026 371.115C774.079 360.787 766.668 349.778 760.377 338.36C768.422 329.759 775.159 319.923 780.658 308.749C785.814 298.269 788.628 288.399 789.145 279.161C795.39 284.55 801.932 289.524 808.778 294.101C809.932 308.116 807.942 321.971 803.56 334.174ZM345.939 206.594C343.958 208.379 341.963 210.162 339.96 211.941C338.029 210.382 336.12 208.796 334.237 207.192C338.14 207.007 342.036 206.792 345.939 206.594ZM349.164 206.427C355.972 206.075 362.762 205.72 369.548 205.336C382.976 205.124 396.423 204.835 409.841 204.492C427.09 210.632 445.865 214.837 465.324 217.788C459.058 230.6 452.72 243.455 446.234 256.319C417.679 250.537 390.555 242.286 366.725 230.026C358.469 225.779 349.861 219.812 341.569 213.231C344.118 210.967 346.65 208.7 349.164 206.427ZM482.81 192.699C492.772 193.756 502.59 194.743 512.113 195.633C505.846 195.906 499.587 196.195 493.333 196.506C488.53 196.133 483.693 195.744 478.837 195.341L480.021 192.91C480.951 192.838 481.88 192.769 482.81 192.699ZM493.749 181.769C515.369 184.138 536.287 185.944 553.854 187.149C540.301 187.565 526.718 188.191 513.131 188.994C504.503 188.155 495.619 187.232 486.62 186.239C488.997 184.81 491.375 183.335 493.749 181.769ZM518.933 111.403C519.322 111.196 519.708 110.987 520.097 110.78C533.147 111.112 546.162 111.19 558.985 111.249C562.481 111.266 565.934 111.285 569.366 111.306C566.032 114.869 562.569 118.519 559.011 122.207C544.794 120.142 530.107 117.006 518.461 112.226C518.617 111.951 518.775 111.677 518.933 111.403ZM576.12 82.8065C582.041 83.0505 588.26 83.3636 594.707 83.7309C592.289 86.3603 589.722 89.1718 587.015 92.1394C586.892 92.2744 586.762 92.4164 586.638 92.5522C579.565 91.405 572.393 89.6865 566.494 87.2784C569.681 85.7687 572.892 84.2809 576.12 82.8065ZM564.298 86.3046C562.185 85.3183 560.259 84.2417 558.647 83.0443C558.282 82.7728 557.956 82.4934 557.628 82.2149C562.245 82.3177 567.094 82.4722 572.082 82.6582C569.473 83.8627 566.879 85.0781 564.298 86.3046ZM621.204 65.433C621.207 65.4589 621.209 65.4848 621.212 65.5107C621.094 65.5037 620.974 65.4974 620.856 65.4911C620.972 65.4715 621.087 65.4526 621.204 65.433ZM640.62 71.8674C640.566 72.1208 640.473 72.3617 640.376 72.6018C635.431 70.5067 630.214 68.7624 624.69 67.4253C630.357 67.9511 635.693 68.9209 640.697 70.3231C640.734 70.8544 640.728 71.3754 640.62 71.8674ZM666.812 110.001C662.151 104.616 657.243 99.3545 652.01 94.273C652.405 94.2008 652.83 94.1396 653.209 94.0603C660.37 98.0661 665.75 103.272 670.135 109.382C669.086 109.612 667.97 109.816 666.812 110.001ZM671.168 110.866C673.983 115.028 676.389 119.577 678.601 124.438C675.203 120.067 671.703 115.738 668.062 111.476C669.137 111.291 670.179 111.09 671.168 110.866ZM786.77 274.282C780.466 268.529 774.478 262.323 768.776 255.676C769.538 248.098 768.322 241.099 765.133 234.705C766.594 235.879 768.005 237.068 769.311 238.288C780.47 248.701 786.291 260.739 786.77 274.282ZM735.992 343.446C733.345 335.382 730.832 327.319 728.419 319.264C727.885 316.283 727.263 313.329 726.581 310.425C731.92 308.121 736.924 305.239 741.485 301.844C745.988 314.177 751.235 326.376 757.663 338.156C752.462 343.624 746.727 348.584 740.409 353.036C739.036 349.743 737.566 346.544 735.992 343.446ZM730.033 332.927C730.029 332.821 730.029 332.715 730.023 332.609C730.084 332.805 730.143 333 730.204 333.195C730.148 333.105 730.089 333.017 730.033 332.927ZM708.32 304.085C708.046 300.365 707.802 296.63 707.564 292.956C707.079 285.457 706.589 277.921 705.856 270.502C710.657 276.823 714.717 283.749 717.942 291.244C719.63 297.456 721.379 303.678 723.181 309.907C720.283 311.053 717.293 312.021 714.228 312.799C712.703 311.233 711.15 309.698 709.542 308.222C709.131 306.847 708.719 305.471 708.32 304.085ZM493.167 198.165C500.63 198.744 508.008 199.281 515.268 199.768C502.16 200.123 489.085 200.516 476.122 200.913C476.432 200.275 476.744 199.634 477.055 198.996C482.417 198.705 487.789 198.433 493.167 198.165ZM614.605 110.634C613.047 110.564 611.546 110.497 610.11 110.436C610.187 109.408 610.264 108.378 610.341 107.352C610.624 103.53 610.906 99.7657 611.203 96.0636L611.863 96.0628C615.878 96.0573 619.713 96.051 623.362 96.0236C623.533 101.011 623.619 106.012 623.65 111.021C620.464 110.896 617.418 110.761 614.605 110.634ZM611.858 94.4166L611.34 94.4173C611.606 91.1727 611.89 87.9783 612.205 84.8451C614.797 85.0256 617.371 85.2013 620.041 85.4014L620.719 85.4517C621.375 85.5011 621.997 85.5686 622.637 85.6266C622.727 85.8118 622.819 85.9994 622.911 86.1869C623.063 88.9121 623.191 91.6427 623.293 94.3773C619.67 94.4048 615.863 94.4119 611.858 94.4166ZM612.624 80.8189C612.963 80.8213 613.292 80.8252 613.634 80.8252C615.775 80.8252 617.994 80.7875 620.209 80.6934C620.722 81.7221 621.247 82.7885 621.787 83.8886C621.515 83.8666 621.259 83.836 620.985 83.8156L620.31 83.7654C617.613 83.5637 614.994 83.3809 612.376 83.1989C612.459 82.4063 612.537 81.6044 612.624 80.8189ZM612.823 79.1703C613.218 75.797 613.665 72.5029 614.177 69.2936C615.664 71.7834 617.412 75.1112 619.394 79.0605C617.353 79.1405 615.164 79.1766 612.823 79.1703ZM625.625 91.7636C626.036 92.611 626.455 93.4718 626.878 94.3412C626.506 94.3459 626.116 94.3483 625.739 94.353C625.708 93.4891 625.662 92.6275 625.625 91.7636ZM627.66 90.6784C626.864 89.04 626.094 87.4565 625.346 85.9225C625.345 85.9123 625.345 85.9021 625.344 85.8919C632.775 86.7322 639.14 88.1917 644.652 90.1887C645.759 91.1908 646.835 92.2085 647.912 93.227C642.84 93.8846 636.602 94.171 629.421 94.2989C628.819 93.063 628.232 91.8546 627.66 90.6784ZM625.238 84.2025C625.161 82.9281 625.069 81.657 624.981 80.385C627.332 80.1739 629.605 79.8687 631.709 79.4395C635.032 81.9614 638.208 84.5712 641.287 87.2391C636.527 85.8801 631.223 84.8482 625.238 84.2025ZM624.868 78.7082C624.756 77.2236 624.63 75.7421 624.502 74.2606C626.317 75.5043 628.088 76.7739 629.83 78.0616C628.334 78.3245 626.678 78.5387 624.868 78.7082ZM622.442 78.902C622.264 78.9137 622.082 78.9239 621.902 78.9349C619.975 75.0869 618.264 71.8124 616.778 69.2685C618.526 70.3396 620.247 71.4287 621.931 72.5406C622.124 74.6561 622.285 76.7786 622.442 78.902ZM617.869 67.7196C619.1 67.9416 620.31 68.1943 621.514 68.4564C621.569 68.99 621.626 69.5228 621.678 70.0571C620.437 69.2607 619.144 68.4948 617.869 67.7196ZM610.383 79.1421C607.584 79.0903 604.892 78.902 602.35 78.5967C605.956 74.7605 609.11 71.5268 611.771 69.0378C611.243 72.3217 610.786 75.6919 610.383 79.1421ZM610.186 80.7828C610.104 81.5228 610.031 82.2792 609.953 83.0254C606.174 82.7688 602.494 82.5366 598.879 82.32C599.585 81.5581 600.271 80.8181 600.948 80.0931C603.843 80.4776 606.934 80.7177 610.186 80.7828ZM609.782 84.6725C609.461 87.8637 609.171 91.117 608.899 94.4213L608.374 94.4221H608.222C603.114 94.4221 596.271 93.9638 589.148 92.9367C592.083 89.7218 594.846 86.6938 597.437 83.8831C601.442 84.1193 605.57 84.3861 609.782 84.6725ZM608.225 96.0675H608.379L608.763 96.0667C608.468 99.7414 608.191 103.477 607.909 107.27C607.832 108.29 607.756 109.315 607.679 110.338C607.072 110.314 606.421 110.286 605.844 110.265C600.132 110.06 588.45 109.442 575.65 107.647C579.945 103.013 584.007 98.5698 587.811 94.4024C595.434 95.552 602.789 96.0675 608.225 96.0675ZM578.875 109.741C577.174 109.723 575.468 109.704 573.75 109.691C573.925 109.501 574.106 109.309 574.282 109.12C575.831 109.344 577.363 109.551 578.875 109.741ZM620.714 112.918C621.723 112.996 622.689 113.1 623.664 113.196C623.677 117.858 623.632 122.525 623.551 127.192C618.034 126.814 613.054 126.483 608.841 126.256C609.259 121.591 609.623 116.913 609.975 112.247C613.61 112.433 617.204 112.645 620.714 112.918ZM623.528 128.845C623.437 133.455 623.304 138.065 623.147 142.671C617.522 142.113 612.167 141.674 607.228 141.387C607.788 136.922 608.266 132.421 608.685 127.898C612.921 128.127 617.949 128.462 623.528 128.845ZM623.093 144.329C623.089 144.46 623.087 144.591 623.082 144.721C622.377 144.655 621.709 144.56 620.993 144.503C616.48 144.148 611.777 143.899 606.933 143.718C606.964 143.488 606.99 143.256 607.021 143.026C611.995 143.315 617.407 143.762 623.093 144.329ZM620.712 146.138C621.504 146.2 622.243 146.303 623.019 146.378C622.87 150.429 622.702 154.475 622.522 158.514C615.583 157.26 609.568 156.283 605.062 155.696C605.681 152.286 606.234 148.839 606.716 145.358C611.542 145.537 616.226 145.785 620.712 146.138ZM749.638 230.048C748.692 228.595 747.737 227.156 746.809 225.671C746.076 224.498 745.349 223.26 744.623 222C746.337 222.835 748.01 223.685 749.626 224.555C749.831 226.335 749.83 228.168 749.638 230.048ZM744.565 226.31C746.053 228.694 747.568 231.034 749.105 233.335C748.098 238.011 745.965 242.97 742.65 248.21C740.749 251.215 736.549 255.513 731.252 258.862C729.709 250.685 728.328 241.015 726.816 230.416C726.405 227.535 725.985 224.588 725.55 221.59C727.766 220.702 729.856 219.241 731.796 217.17C731.971 216.984 732.127 216.798 732.294 216.612C735.341 217.802 738.272 219.039 741.084 220.321C742.235 222.408 743.393 224.434 744.565 226.31ZM725.821 307.275C724.397 301.553 722.551 296.083 720.315 290.872C718.011 282.392 715.813 273.934 713.686 265.501C714.381 265.563 715.076 265.618 715.768 265.618C720.561 265.618 725.236 264.179 729.427 262.063C730.137 265.549 730.887 268.737 731.703 271.556C734.439 280.993 737.404 290.488 740.786 299.917C736.329 303.374 731.409 306.305 726.154 308.655C726.041 308.195 725.934 307.731 725.821 307.275ZM540.417 201.263C530.485 201.364 520.503 201.457 510.488 201.545C518.391 201.325 526.301 201.121 534.205 200.934C536.292 201.049 538.361 201.159 540.417 201.263ZM559.345 200.412C566.105 200.296 572.828 200.207 579.522 200.137C581.873 200.192 584.133 200.225 586.308 200.238L586.343 200.829C584.765 200.842 583.164 200.858 581.58 200.872C574.537 200.834 567.108 200.677 559.345 200.412ZM724.393 230.574C725.975 241.658 727.414 251.726 729.048 260.157C724.305 262.755 718.89 264.452 713.533 263.847C713.437 263.836 713.355 263.822 713.26 263.811C712.089 259.149 710.934 254.493 709.806 249.85C706.654 236.859 703.737 223.725 700.933 210.654C705.708 216.472 711.737 221.502 718.211 222.443C718.95 222.55 719.68 222.604 720.399 222.604C721.355 222.604 722.289 222.497 723.208 222.307C723.613 225.112 724.008 227.873 724.393 230.574ZM700.48 259.73C700.053 259.321 699.741 258.877 699.48 258.417C699.293 256.507 699.123 254.597 698.972 252.689C699.184 251.538 699.486 250.333 699.814 249.069C699.896 248.758 699.972 248.442 700.053 248.129C700.963 252.332 701.692 256.636 702.292 261.009C701.576 260.616 700.964 260.192 700.48 259.73ZM701.142 242.252C701.196 241.523 701.217 240.786 701.179 240.039C700.677 230.329 699.653 220.26 697.592 210.441C697.588 209.117 697.584 207.795 697.581 206.476C700.673 221.006 703.891 235.647 707.405 250.117C708.483 254.555 709.586 259.004 710.703 263.46C708.423 263.101 706.495 262.654 704.896 262.116C704.005 255.302 702.817 248.64 701.142 242.252ZM661.863 192.692C669.435 193.577 677.005 194.671 684.43 195.983C678.423 195.571 672.381 195.223 666.308 194.937C664.874 194.161 663.405 193.404 661.863 192.692ZM693.239 202.776C693.266 202.871 693.292 202.966 693.32 203.061C692.143 202.959 690.967 202.865 689.789 202.772C688.482 202.507 687.156 202.254 685.829 202.002C688.309 202.235 690.78 202.492 693.239 202.776ZM692.694 200.796C689.567 200.545 686.436 200.317 683.301 200.111C680.036 199.831 676.759 199.59 673.475 199.383C672.19 198.475 670.862 197.59 669.471 196.745C676.982 197.127 684.447 197.597 691.846 198.182C692.133 199.052 692.43 199.917 692.694 200.796ZM669.52 199.149C669.098 199.126 668.675 199.106 668.252 199.084C657.907 197.597 647.061 196.425 635.771 195.589C645.602 195.782 655.403 196.077 665.131 196.525C666.651 197.365 668.121 198.236 669.52 199.149ZM649.1 198.409C640.312 198.235 631.605 198.225 623.104 198.277C623.131 197.666 623.154 197.056 623.18 196.446C632.08 196.901 640.726 197.561 649.1 198.409ZM721.164 208.684C721.284 209.443 721.401 210.2 721.517 210.954C716.101 209.204 710.406 207.579 704.445 206.084C710.094 206.811 715.674 207.676 721.164 208.684ZM699.435 203.623C699.43 203.599 699.425 203.577 699.42 203.553C700.129 203.649 700.84 203.746 701.546 203.847C700.842 203.774 700.139 203.693 699.435 203.623ZM623.293 193.751C623.356 192.381 623.417 191.023 623.482 189.656C633.7 190.127 644.5 190.859 655.431 191.985C657.625 192.835 659.689 193.764 661.682 194.736C648.966 194.197 636.142 193.895 623.293 193.751ZM591.908 195.684C592.17 195.684 592.436 195.682 592.696 195.682C602.281 195.682 611.637 195.908 620.749 196.334C620.721 196.983 620.696 197.633 620.668 198.283C610.335 198.26 600.188 198.32 590.331 198.391C590.864 197.493 591.407 196.601 591.908 195.684ZM670.08 201.017C671.001 201.154 671.909 201.299 672.822 201.442C672.909 201.506 673.001 201.566 673.087 201.631C656.23 200.697 639.305 200.52 623.007 200.58C623.016 200.365 623.025 200.151 623.034 199.936C638.452 199.994 654.252 200.264 670.08 201.017ZM718.724 220.834C712.103 219.871 705.553 213.606 700.702 206.891C708.153 208.679 715.198 210.671 721.807 212.851C722.204 215.471 722.59 218.062 722.962 220.614C721.582 220.969 720.168 221.047 718.724 220.834ZM724.388 213.729C726.351 214.404 728.272 215.096 730.153 215.806C730.006 215.968 729.895 216.127 729.742 216.29C728.315 217.811 726.82 218.941 725.277 219.719C724.988 217.742 724.692 215.746 724.388 213.729ZM724.094 211.791C723.959 210.916 723.823 210.036 723.686 209.155C727.013 209.798 730.303 210.5 733.549 211.262C732.963 212.289 732.201 213.335 731.352 214.389C728.991 213.499 726.582 212.628 724.094 211.791ZM690.922 195.508C679.705 193.307 668.06 191.653 656.522 190.444C655.569 190.08 654.58 189.736 653.589 189.394C665.608 189.893 677.555 190.582 689.37 191.521C689.916 192.838 690.437 194.164 690.922 195.508ZM648.758 189.693C645.169 189.372 641.619 189.103 638.095 188.858C640.96 188.939 643.822 189.031 646.679 189.132C647.363 189.325 648.091 189.49 648.758 189.693ZM623.616 186.872C623.645 186.251 623.675 185.632 623.706 185.011C629.077 185.528 634.083 186.271 638.745 187.226C633.709 187.08 628.665 186.963 623.616 186.872ZM621.051 189.546C620.986 190.94 620.922 192.326 620.858 193.724C611.557 193.632 602.249 193.618 592.963 193.643C593.762 192.098 594.523 190.53 595.241 188.935C603.067 188.979 611.77 189.152 621.051 189.546ZM589.296 195.678C589.044 196.131 588.816 196.598 588.556 197.046L588.474 195.674C588.757 195.676 589.019 195.676 589.296 195.678ZM595.638 200.751L588.88 200.808C588.998 200.623 589.102 200.43 589.219 200.244C589.41 200.243 589.605 200.244 589.793 200.243C595.035 200.212 600.454 200.15 605.999 200.086C610.771 200.031 615.648 199.976 620.598 199.938C620.589 200.155 620.581 200.373 620.572 200.59C619.624 200.595 618.678 200.6 617.737 200.606C610.226 200.629 602.837 200.69 595.638 200.751ZM682.193 203.874C684.794 204.065 687.39 204.28 689.977 204.515C691.316 204.788 692.637 205.071 693.952 205.357C694.396 207.089 694.788 208.835 695.158 210.589C695.173 215.648 695.212 220.73 695.307 225.831C691.412 217.519 686.137 210.01 678.911 203.661C680.006 203.728 681.099 203.801 682.193 203.874ZM697.779 227.521C697.971 229.369 698.142 231.214 698.285 233.051C698.153 232.685 698.025 232.316 697.888 231.952C697.845 230.473 697.811 228.997 697.779 227.521ZM698.686 242.46C698.625 243.136 698.535 243.809 698.415 244.477C698.345 243.23 698.281 241.984 698.223 240.739C698.383 241.308 698.533 241.884 698.686 242.46ZM702.576 263.133C702.578 263.148 702.579 263.162 702.581 263.178C702.562 263.157 702.543 263.135 702.525 263.114C702.541 263.121 702.559 263.126 702.576 263.133ZM705.133 263.987C706.864 264.477 708.861 264.884 711.143 265.207C712.407 270.227 713.694 275.254 715.017 280.292C712.201 275.393 708.997 270.78 705.43 266.471C705.336 265.64 705.234 264.813 705.133 263.987ZM734.092 271.239C733.207 268.189 732.401 264.707 731.638 260.864C737.813 257.259 742.681 252.349 744.889 248.856C747.733 244.362 749.723 240.065 750.916 235.959C755.79 243.065 760.904 249.765 766.276 256.065C765.475 263.253 762.879 270.976 758.452 279.218C754.526 286.526 749.144 292.975 742.728 298.336C739.532 289.325 736.705 280.255 734.092 271.239ZM733.502 215.199C734.423 214.059 735.211 212.931 735.845 211.82C736.159 211.897 736.467 211.978 736.78 212.056C737.744 214.014 738.71 215.92 739.681 217.755C737.672 216.883 735.622 216.026 733.502 215.199ZM723.21 206.139C723.201 206.082 723.192 206.025 723.184 205.968C723.562 206.107 723.941 206.248 724.317 206.39C723.95 206.303 723.579 206.224 723.21 206.139ZM720.67 205.563C720.246 205.469 719.827 205.37 719.402 205.279C719.82 205.335 720.234 205.397 720.652 205.454C720.658 205.49 720.664 205.526 720.67 205.563ZM698.946 201.333C698.769 200.488 698.582 199.637 698.405 198.793C699.063 198.942 699.722 199.092 700.374 199.247C701.83 200.191 703.299 201.075 704.783 201.891C702.842 201.693 700.896 201.511 698.946 201.333ZM694.525 196.235C694.271 195.646 694.048 195.085 693.85 194.547C694.277 194.887 694.701 195.239 695.13 195.567C695.132 195.834 695.131 196.1 695.131 196.366C694.928 196.324 694.728 196.278 694.525 196.235ZM688.272 189.785C674.804 188.738 661.178 188.002 647.469 187.507C640.467 185.575 632.606 184.162 623.786 183.332C623.826 182.489 623.866 181.642 623.906 180.801C644.788 181.712 666.2 183.58 685.37 187.016C686.332 187.96 687.297 188.89 688.272 189.785ZM623.986 179.158C624.013 178.574 624.041 177.98 624.07 177.397C624.179 175.144 624.29 172.885 624.399 170.625C639.702 171.742 658.245 173.623 675.78 176.581C678.251 179.53 680.778 182.347 683.36 185C664.656 181.81 644.072 180.038 623.986 179.158ZM624.477 168.992C624.614 166.13 624.749 163.262 624.879 160.391C638.637 162.917 655.191 166.451 670.561 170.073C671.76 171.639 672.97 173.185 674.197 174.692C657.091 171.884 639.263 170.08 624.477 168.992ZM624.941 158.956C625.123 154.854 625.293 150.745 625.445 146.63C640.682 148.395 652.764 152.615 662.331 158.595C664.528 161.852 666.786 165.032 669.094 168.122C653.97 164.658 638.038 161.368 624.941 158.956ZM622.46 159.952C622.326 162.912 622.19 165.867 622.049 168.817C614.425 168.284 607.721 167.947 602.472 167.763C603.341 164.304 604.118 160.793 604.793 157.224C609.516 157.769 615.591 158.721 622.46 159.952ZM621.969 170.452C621.858 172.751 621.747 175.05 621.634 177.342C621.607 177.909 621.58 178.487 621.552 179.054C613.999 178.749 606.567 178.562 599.336 178.473C600.336 175.5 601.254 172.479 602.063 169.395C607.353 169.574 614.186 169.912 621.969 170.452ZM621.474 180.696C621.435 181.497 621.398 182.304 621.359 183.107C621.235 183.097 621.117 183.082 620.993 183.072C613.82 182.511 606.141 182.164 598.117 181.924C598.342 181.318 598.583 180.723 598.798 180.111C606.174 180.198 613.761 180.386 621.474 180.696ZM620.712 184.707C620.907 184.722 621.085 184.748 621.28 184.765C621.247 185.453 621.214 186.14 621.181 186.83C612.883 186.693 604.577 186.621 596.28 186.599C596.704 185.594 597.099 184.573 597.495 183.552C605.655 183.791 613.453 184.139 620.712 184.707ZM593.754 186.593C592.602 186.592 591.45 186.586 590.299 186.586C589.12 186.586 587.935 186.587 586.759 186.588C582.142 186.595 577.516 186.641 572.887 186.708C553.333 185.803 527.226 183.822 499.832 180.911C522.121 182.518 544.798 182.773 566.222 183.015C576.16 183.126 585.818 183.236 595.017 183.477C594.607 184.523 594.192 185.566 593.754 186.593ZM592.618 188.917H592.708C591.976 190.521 591.205 192.1 590.391 193.652C589.712 193.654 589.032 193.656 588.354 193.659L588.068 188.859C589.718 188.894 591.246 188.913 592.618 188.917ZM586.033 195.636L586.199 198.424C583.975 198.441 581.733 198.469 579.5 198.493C567.781 198.217 553.946 197.426 538.789 196.263C552.042 195.833 565.291 195.543 578.51 195.407C581.202 195.514 583.715 195.591 586.033 195.636ZM552.625 198.891C546.584 199.007 540.528 199.138 534.463 199.281C525.49 198.784 516.237 198.186 506.811 197.511C512.722 197.243 518.635 196.983 524.554 196.754C534.391 197.604 543.803 198.326 552.625 198.891ZM445.679 203.49C454.568 203.5 463.449 203.482 472.322 203.447C470.252 207.697 468.176 211.952 466.092 216.215C448.178 213.507 430.857 209.74 414.814 204.369C425.143 204.096 435.435 203.796 445.679 203.49ZM474.894 203.432C498.532 203.328 522.079 203.096 545.34 202.86C557.469 202.738 569.461 202.62 581.343 202.52C583.068 202.528 584.767 202.529 586.444 202.523L586.559 204.43L587.792 202.519C588.098 202.517 588.417 202.519 588.722 202.517C592.809 202.485 596.986 202.442 601.237 202.398C606.611 202.342 612.105 202.287 617.679 202.251C618.618 202.247 619.559 202.245 620.501 202.243C620.173 210.285 619.915 218.312 619.772 226.278C604.532 225.148 587.804 224.539 570.105 223.9C537.212 222.711 501.877 221.429 468.484 216.572C470.627 212.185 472.763 207.806 474.894 203.432ZM622.938 202.24C640.053 202.232 657.75 202.484 675.386 203.458C684.97 211.36 691.25 221.259 695.465 232.364C695.663 239.105 695.996 245.873 696.531 252.655C696.266 254.162 696.18 255.609 696.449 256.962C677.916 239.755 652.419 229.017 622.205 226.477C622.348 218.446 622.606 210.351 622.938 202.24ZM703.033 266.952C703.958 275.211 704.523 283.652 705.069 292.056C702.733 282.556 701.126 273.028 700.025 263.507C701.056 264.63 702.056 265.782 703.033 266.952ZM723.673 311.616C724.439 314.252 725.225 316.888 726.014 319.526C726.563 322.589 727.005 325.676 727.298 328.762C723.732 323.561 719.828 318.706 715.588 314.209C718.347 313.488 721.046 312.623 723.673 311.616ZM743.438 300.337C750.55 294.651 756.485 287.702 760.74 279.779C764.768 272.279 767.294 265.196 768.376 258.533C774.195 265.162 780.326 271.312 786.756 277.039C786.588 286.711 783.817 297.114 778.346 308.229C773.139 318.813 766.815 328.178 759.309 336.413C753.013 324.704 747.863 312.584 743.438 300.337ZM766.495 253.014C761.296 246.762 756.344 240.126 751.624 233.094C752.115 230.648 752.298 228.277 752.176 225.982C755.095 227.646 757.854 229.366 760.411 231.149C764.783 237.709 766.815 245.008 766.495 253.014ZM751.957 223.73C751.841 222.93 751.687 222.14 751.493 221.359C752.471 222.183 753.444 223.008 754.338 223.872C755.277 224.782 756.16 225.709 756.992 226.654C755.369 225.66 753.697 224.684 751.957 223.73ZM749.254 222.296C747.27 221.266 745.232 220.256 743.11 219.278C742.117 217.465 741.13 215.586 740.145 213.635C743.012 215.239 745.689 216.947 748.165 218.761C748.617 219.916 748.993 221.091 749.254 222.296ZM746.441 215.229C746.2 215.073 745.951 214.922 745.707 214.768C745.903 214.844 746.1 214.918 746.297 214.995C746.344 215.074 746.394 215.151 746.441 215.229ZM734.182 208.577C734.04 208.511 733.9 208.443 733.756 208.377C734.126 208.339 734.497 208.293 734.867 208.245C734.818 208.395 734.802 208.54 734.748 208.691C734.559 208.654 734.372 208.613 734.182 208.577ZM730.544 206.976C730.471 206.944 730.395 206.915 730.321 206.884C730.483 206.91 730.643 206.934 730.803 206.96C730.717 206.964 730.632 206.972 730.544 206.976ZM709.959 202.444C708.888 201.941 707.821 201.418 706.762 200.841C709.284 201.508 711.771 202.203 714.2 202.944C712.787 202.774 711.376 202.602 709.959 202.444ZM693.921 191.906C694.119 191.923 694.317 191.94 694.515 191.957C694.552 192.137 694.589 192.315 694.626 192.495C694.392 192.3 694.156 192.105 693.921 191.906ZM692.69 190.134L692.315 188.326C692.817 188.431 693.322 188.533 693.821 188.639C693.934 189.18 694.048 189.722 694.161 190.264C693.67 190.222 693.182 190.176 692.69 190.134ZM679.264 177.186C680.205 177.354 681.14 177.524 682.071 177.698C683.627 180.008 685.033 182.404 686.317 184.866C683.922 182.441 681.569 179.878 679.264 177.186ZM677.665 175.276C676.483 173.855 675.313 172.405 674.157 170.926C675.302 171.2 676.439 171.474 677.564 171.748C678.683 173.069 679.735 174.432 680.74 175.823C679.718 175.637 678.694 175.455 677.665 175.276ZM672.598 168.93C670.981 166.811 669.397 164.632 667.833 162.424C670.716 164.661 673.322 167.084 675.695 169.656C674.67 169.413 673.636 169.172 672.598 168.93ZM625.508 144.975C625.513 144.844 625.518 144.713 625.523 144.582C635.293 145.599 645.669 146.916 655.69 148.302C657.081 150.555 658.503 152.785 659.945 154.993C650.696 150.034 639.364 146.536 625.508 144.975ZM625.577 142.924C625.735 138.289 625.863 133.651 625.954 129.012C626.336 129.038 626.706 129.064 627.091 129.09C633.414 129.526 639.46 129.928 645.22 130.279C648.188 135.684 651.313 141.115 654.572 146.466C644.914 145.143 634.964 143.896 625.577 142.924ZM627.339 127.454C626.881 127.422 626.442 127.392 625.991 127.36C626.073 122.723 626.102 118.087 626.093 113.455C630.11 113.932 633.853 114.57 637.327 115.367C639.547 119.7 641.872 124.123 644.298 128.58C638.262 128.206 632.44 127.805 627.339 127.454ZM634.364 113.009C634.958 113.023 635.548 113.035 636.142 113.046C636.203 113.168 636.267 113.292 636.33 113.414C635.675 113.279 635.037 113.135 634.364 113.009ZM626.092 111.113C626.063 106.065 625.959 101.025 625.789 95.9969C626.417 95.9898 627.058 95.9843 627.675 95.9757C630.046 100.842 632.586 106.015 635.294 111.374C632.173 111.313 629.083 111.221 626.092 111.113ZM630.216 95.9286C637.693 95.7811 644.192 95.4523 649.489 94.6959C654.727 99.7508 659.633 104.996 664.3 110.364C656.642 111.344 647.232 111.544 637.907 111.417C635.134 105.958 632.569 100.75 630.216 95.9286ZM650.501 92.83C650.374 92.7099 650.244 92.5922 650.116 92.4721C650.338 92.5781 650.572 92.6762 650.789 92.7837C650.696 92.8001 650.595 92.8143 650.501 92.83ZM646.186 88.8132C642.38 85.3857 638.403 82.0556 634.217 78.8494C637.335 77.9863 639.869 76.7535 641.442 75.0335C648.902 78.4312 655.714 82.6723 661.97 87.5766C660.555 89.6936 657.759 91.1609 653.738 92.1638C651.405 90.9295 648.902 89.805 646.186 88.8132ZM632.422 77.5327C629.795 75.5695 627.077 73.6611 624.283 71.7983C624.197 70.8716 624.128 69.9402 624.035 69.0143C629.438 70.3333 634.544 72.058 639.387 74.1296C638.066 75.5742 635.768 76.7112 632.422 77.5327ZM599.793 78.2476C596.556 77.7328 593.673 77.0046 591.231 76.1156C597.065 73.6188 602.978 71.1965 608.969 68.8534C606.332 71.3762 603.256 74.5541 599.793 78.2476ZM598.408 79.729C597.675 80.5176 596.918 81.3345 596.151 82.1646C590.371 81.8304 584.782 81.5424 579.418 81.3078C582.543 79.8985 585.685 78.5018 588.854 77.131C591.522 78.2295 594.763 79.1052 598.408 79.729ZM585.306 94.0109C581.489 98.1924 577.423 102.639 573.117 107.28C562.339 105.651 551.011 103.164 541.931 99.3828C549.306 95.6203 556.776 91.9166 564.355 88.2985C570.446 90.8981 577.912 92.7648 585.306 94.0109ZM571.755 108.742C571.468 109.051 571.179 109.361 570.89 109.671C566.965 109.645 563.012 109.623 559.004 109.604C547.143 109.549 535.12 109.482 523.063 109.21C528.617 106.267 534.215 103.341 539.867 100.444C549.122 104.418 560.706 107.027 571.755 108.742ZM572.224 111.326C584.477 111.416 596.292 111.599 607.546 112.122C607.195 116.79 606.826 121.467 606.408 126.133C605.309 126.081 604.253 126.036 603.295 126.004C594.372 125.713 578.458 124.885 561.563 122.571C565.236 118.76 568.795 114.998 572.224 111.326ZM603.176 127.648C604.123 127.68 605.167 127.724 606.255 127.775C605.837 132.296 605.363 136.796 604.804 141.256C603.454 141.19 602.112 141.127 600.843 141.089C588.435 140.718 568.223 139.714 547.256 137.032C551.677 132.692 555.984 128.34 560.151 124.034C577.555 126.482 593.989 127.349 603.176 127.648ZM600.733 142.733C601.972 142.771 603.286 142.833 604.604 142.897C604.571 143.145 604.534 143.39 604.502 143.638C592.162 143.24 578.902 143.269 565.101 143.307C557.177 143.332 549.034 143.35 540.789 143.288C542.462 141.696 544.123 140.1 545.765 138.498C567.267 141.311 588.044 142.352 600.733 142.733ZM565.11 144.953C578.848 144.914 592.027 144.885 604.271 145.278C603.797 148.686 603.271 152.067 602.667 155.405C600.974 155.216 599.552 155.097 598.52 155.073C586.145 154.783 560.301 153.802 533.003 150.55C535.04 148.689 537.058 146.809 539.062 144.92C547.904 144.999 556.635 144.979 565.11 144.953ZM598.434 156.717C599.546 156.743 600.866 156.83 602.366 156.969C601.681 160.598 600.904 164.173 600.017 167.685C598.673 167.647 597.441 167.62 596.358 167.604C576.763 167.325 548.197 165.84 519.381 162.476C523.396 159.116 527.369 155.651 531.283 152.112C557.433 155.268 582.896 156.354 598.434 156.717ZM596.306 169.249C597.288 169.264 598.39 169.286 599.591 169.319C598.773 172.416 597.865 175.459 596.854 178.44C596.039 178.432 595.196 178.412 594.387 178.407C578.857 178.301 543.96 176.528 506.913 172.416C510.516 169.69 514.1 166.857 517.651 163.922C547.078 167.428 576.328 168.965 596.306 169.249ZM594.363 180.052C594.992 180.057 595.647 180.072 596.279 180.078C596.07 180.666 595.876 181.266 595.659 181.849C586.269 181.597 576.415 181.483 566.263 181.369C544.14 181.12 520.673 180.838 497.715 179.077C500.159 177.391 502.595 175.638 505.024 173.833C542.818 178.106 578.56 179.944 594.363 180.052ZM573.855 188.336C578.218 188.549 582.168 188.704 585.624 188.8L585.916 193.675C583.206 193.69 580.487 193.741 577.775 193.77C563.331 193.231 544.724 191.909 524.144 190.033C540.754 189.163 557.343 188.563 573.855 188.336ZM556.23 194.137C545.694 194.383 535.154 194.697 524.618 195.104C514.196 194.202 503.311 193.159 492.181 192.017C499.576 191.494 506.975 191.009 514.373 190.577C529.527 192.049 543.767 193.263 556.23 194.137ZM480.533 197.152C479.647 197.198 478.768 197.251 477.882 197.298L478.054 196.946C478.882 197.015 479.706 197.083 480.533 197.152ZM475.247 197.445C470.802 197.688 466.359 197.932 461.929 198.185C463.773 197.53 465.623 196.82 467.479 196.046C470.187 196.281 472.892 196.511 475.59 196.739L475.247 197.445ZM474.419 199.142C474.119 199.758 473.818 200.377 473.517 200.993C471.55 201.054 469.572 201.114 467.61 201.175C461.447 201.365 455.254 201.555 449.043 201.744C451.214 201.33 453.398 200.814 455.595 200.203C461.855 199.838 468.131 199.487 474.419 199.142ZM436.506 201.336C438.749 201.2 440.995 201.067 443.244 200.933C440.962 201.188 438.709 201.34 436.506 201.336ZM467.713 218.146C501.349 223.058 536.892 224.347 569.976 225.543C587.734 226.184 604.517 226.794 619.754 227.932C619.699 231.394 619.635 234.865 619.635 238.285V273.378C608.442 272.571 596.916 271.867 584.73 271.126C540.591 268.444 492.919 265.538 448.571 256.79C455.075 243.888 461.43 230.995 467.713 218.146ZM622.069 238.285C622.069 234.933 622.135 231.53 622.187 228.136C653.093 230.791 678.959 242.26 697.247 260.608C698.503 272.579 700.509 284.575 703.727 296.524C704.428 299.133 705.153 301.717 705.895 304.287C705.915 304.548 705.937 304.805 705.957 305.065C684.505 286.93 656.277 276.249 622.069 273.568V238.285ZM710.781 312.285C711.138 312.639 711.489 313.001 711.842 313.36C711.617 313.41 711.389 313.455 711.163 313.502C711.035 313.097 710.906 312.692 710.781 312.285ZM713.22 314.793C718.555 320.404 723.359 326.582 727.62 333.316C727.895 339.849 727.354 346.302 725.541 352.415C720.403 340.489 715.779 328.061 711.672 315.126C712.189 315.019 712.706 314.91 713.22 314.793ZM730.101 337.404C731.33 339.518 732.517 341.672 733.644 343.887C734.869 347.618 736.118 351.349 737.4 355.08C734.699 356.867 731.895 358.566 728.993 360.184C728.303 358.68 727.616 357.177 726.945 355.657C729.106 349.835 730.022 343.676 730.101 337.404ZM754.758 394.763C753.862 392.558 752.977 390.354 752.106 388.148C750.836 380.947 748.026 373.362 745.598 366.82C744.904 364.949 744.249 363.187 743.689 361.578C742.893 359.294 742.038 357.067 741.154 354.867C747.577 350.436 753.426 345.51 758.727 340.073C765.107 351.49 772.632 362.492 781.696 372.818C774.925 381.286 766.807 389.684 757.086 398.324C756.319 397.121 755.541 395.936 754.758 394.763ZM789.201 276.467C789.301 261.691 783.355 248.587 771.286 237.323C768.654 234.866 765.703 232.503 762.47 230.23C760.751 227.694 758.733 225.252 756.333 222.93C754.533 221.188 752.511 219.558 750.39 217.979C750.167 217.436 749.915 216.9 749.652 216.367C756.525 219.277 762.997 222.672 768.927 226.674C794.009 243.598 805.909 267.666 808.534 291.535C801.791 286.914 795.348 281.9 789.201 276.467ZM723.156 204.116C723.061 204.081 722.965 204.047 722.869 204.013C722.725 203.125 722.579 202.234 722.431 201.34C725.762 201.773 729.079 202.229 732.369 202.724C732.833 203.742 733.298 204.736 733.762 205.733C730.251 205.146 726.71 204.616 723.156 204.116ZM720.266 203.08C716.76 201.899 713.115 200.822 709.396 199.805C712.928 200.181 716.436 200.591 719.928 201.028C720.041 201.714 720.154 202.396 720.266 203.08ZM685.187 178.296C686.089 178.474 686.989 178.654 687.881 178.838C688.353 181.055 688.815 183.304 689.283 185.565C688.044 183.075 686.689 180.644 685.187 178.296ZM687.515 177.128C686.319 176.884 685.113 176.647 683.901 176.414C683.012 175.12 682.078 173.854 681.098 172.614C683.057 173.099 684.968 173.58 686.84 174.058C687.068 175.075 687.293 176.098 687.515 177.128ZM679.431 170.548C675.302 165.725 670.379 161.392 664.55 157.68C662.562 154.739 660.622 151.749 658.728 148.724C666.417 149.805 673.777 150.901 680.398 151.91C682.893 158.244 684.77 165.091 686.429 172.269C684.149 171.697 681.816 171.122 679.431 170.548ZM657.574 146.884C654.216 141.441 651.022 135.921 647.988 130.45C655.175 130.873 661.779 131.191 667.716 131.365C672.926 136.755 676.719 143.093 679.666 150.112C672.888 149.083 665.376 147.971 657.574 146.884ZM647.042 128.747C644.694 124.474 642.455 120.248 640.32 116.121C651.404 119.085 659.68 123.731 665.999 129.665C659.903 129.46 653.4 129.126 647.042 128.747ZM639.255 114.057C639.088 113.731 638.925 113.41 638.759 113.086C640.13 113.102 641.499 113.113 642.863 113.113C651.003 113.113 658.919 112.794 665.584 111.865C670.632 117.75 675.402 123.771 680.012 129.85C676.732 129.9 673.082 129.863 669.2 129.761C662.154 122.699 652.612 117.262 639.255 114.057ZM673.495 110.272C674.507 109.985 675.463 109.673 676.347 109.33C677.193 112.769 678.071 116.193 678.884 119.642C677.238 116.349 675.465 113.217 673.495 110.272ZM672.486 108.792C668.173 102.707 662.889 97.4901 655.93 93.3879C659.514 92.367 662.141 90.9397 663.729 88.9772C667.165 91.784 670.428 94.7948 673.538 97.9719C673.603 98.2199 673.668 98.4718 673.729 98.7111C674.491 101.659 675.187 104.635 675.919 107.597C674.899 108.042 673.748 108.438 672.486 108.792ZM676.89 101.525C677.906 102.642 678.905 103.776 679.887 104.927C679.412 105.473 678.814 105.976 678.102 106.44C677.695 104.803 677.306 103.159 676.89 101.525ZM672.486 93.9873C670.019 91.6333 667.456 89.3876 664.794 87.2533C665.102 86.5565 665.341 85.8212 665.439 85.0083C665.442 84.9942 665.442 84.9801 665.443 84.9659C667.645 87.0328 669.755 89.1922 671.771 91.423C672.022 92.3034 672.26 93.1579 672.486 93.9873ZM663.13 82.8567C663.126 83.5339 663.095 84.2079 663.014 84.8733C662.978 85.1723 662.869 85.436 662.794 85.7169C656.601 80.9743 649.872 76.854 642.515 73.5332C642.742 73.0836 642.922 72.612 643.032 72.1067C643.105 71.7677 643.129 71.417 643.146 71.0646C646.133 72.0031 648.999 73.0946 651.755 74.3257C655.782 76.843 659.572 79.7196 663.13 82.8567ZM639.981 68.3559C634.868 67.0346 629.437 66.1196 623.657 65.6653C623.635 65.4636 623.611 65.262 623.588 65.0603C624.633 64.912 625.665 64.7849 626.687 64.6758C631.337 65.4401 635.767 66.694 639.981 68.3559ZM632.977 64.2529C634.592 64.2105 636.176 64.2254 637.726 64.2929C638.26 64.8916 638.722 65.4982 639.12 66.1079C637.12 65.4016 635.073 64.7802 632.977 64.2529ZM620.066 63.9272C619.273 64.0653 618.472 64.2176 617.667 64.3769C617.939 64.1925 618.213 64.0041 618.484 63.8244C619.015 63.859 619.551 63.8919 620.066 63.9272ZM615.117 63.775C615.125 63.7256 615.135 63.6754 615.144 63.6259C615.203 63.6291 615.263 63.633 615.323 63.6361C615.253 63.6832 615.186 63.7271 615.117 63.775ZM612.647 63.8127C612.535 63.6997 612.421 63.5875 612.308 63.4761C612.437 63.4823 612.574 63.4878 612.703 63.4941C612.685 63.5992 612.667 63.7075 612.647 63.8127ZM610.092 64.2097C608.95 63.8684 607.818 63.5475 606.687 63.2328C607.519 63.2642 608.359 63.2948 609.169 63.3293C609.476 63.6181 609.785 63.91 610.092 64.2097ZM605.259 68.3975C599.744 70.5828 594.299 72.8372 588.92 75.1512C587.826 74.6294 586.822 74.0817 586.033 73.4791C585.535 73.0993 585.108 72.7085 584.75 72.3083C591.477 70.8849 598.325 69.5949 605.259 68.3975ZM584.211 74.5706C584.929 75.1183 585.784 75.626 586.706 76.1117C582.91 77.7603 579.15 79.4403 575.415 81.143C568.59 80.8692 562.067 80.6659 555.904 80.5451C555.587 80.1833 555.287 79.8177 555.028 79.4458C564.002 77.0501 573.125 74.8342 582.429 72.8239C582.917 73.4281 583.485 74.0166 584.211 74.5706ZM553.094 80.5004C552.469 80.4902 551.851 80.4815 551.232 80.4729C551.74 80.334 552.25 80.1975 552.76 80.0594C552.862 80.2077 552.983 80.3536 553.094 80.5004ZM529.628 94.6661C531.949 96.4465 534.686 98.0433 537.721 99.4777C531.995 102.418 526.322 105.386 520.696 108.372C523.492 103.629 526.4 98.9692 529.404 94.477C529.484 94.539 529.548 94.6049 529.628 94.6661ZM515.717 111.023C515.434 110.896 515.135 110.775 514.858 110.644C515.356 110.66 515.855 110.669 516.354 110.683C516.142 110.797 515.93 110.91 515.717 111.023ZM517.6 113.736C529.228 118.442 543.617 121.579 557.606 123.664C553.418 127.982 549.097 132.345 544.662 136.689C532.455 135.049 520.098 132.83 508.959 129.82C511.683 124.492 514.568 119.088 517.6 113.736ZM506.626 129.165C502.134 127.886 497.86 126.474 493.907 124.911C500.883 121.117 507.906 117.309 514.991 113.511C512.064 118.711 509.271 123.967 506.626 129.165ZM543.162 138.151C541.403 139.862 539.627 141.565 537.837 143.262C526.27 143.145 514.527 142.833 502.881 142.1C504.566 138.587 506.331 134.994 508.176 131.354C519.137 134.307 531.209 136.51 543.162 138.151ZM528.619 151.786C524.686 155.33 520.703 158.807 516.675 162.161C509.401 161.282 502.138 160.274 495.009 159.142C496.68 155.396 498.487 151.423 500.421 147.295C509.577 149.115 519.12 150.59 528.619 151.786ZM514.928 163.592C511.347 166.536 507.735 169.379 504.106 172.101C499.445 171.571 494.759 171.001 490.078 170.395C491.363 167.413 492.78 164.158 494.32 160.69C501.107 161.773 508.01 162.74 514.928 163.592ZM490.782 181.441C488.384 182.998 485.985 184.493 483.587 185.903C483.521 185.895 483.456 185.888 483.39 185.881C484.025 184.468 484.762 182.776 485.591 180.852C487.324 181.052 489.054 181.248 490.782 181.441ZM484.558 187.474C491.167 188.206 497.711 188.902 504.131 189.557C497.031 190.013 489.933 190.51 482.84 191.041C482.235 190.977 481.63 190.912 481.025 190.848L481.95 188.95C482.818 188.463 483.688 187.98 484.558 187.474ZM477.36 193.111L476.374 195.134C474.482 194.975 472.59 194.815 470.694 194.653C471.584 194.252 472.473 193.85 473.364 193.423C474.696 193.318 476.028 193.213 477.36 193.111ZM467.011 194.335C466.214 194.266 465.418 194.197 464.62 194.128C465.82 194.029 467.019 193.935 468.217 193.838C467.814 194.015 467.414 194.164 467.011 194.335ZM463.662 195.713C460.77 196.833 457.896 197.78 455.042 198.584C445.423 199.146 435.85 199.722 426.32 200.303C423.786 199.792 421.318 199.091 418.925 198.195C430.897 197.069 442.923 195.973 454.984 194.94C457.878 195.201 460.771 195.46 463.662 195.713ZM415.683 196.837C415.354 196.685 415.015 196.557 414.689 196.398L414.055 196.989C409.072 197.461 404.102 197.936 399.142 198.411C397.68 197.781 396.229 197.138 394.794 196.475C391.289 194.85 385.593 191.567 378.989 187.567C400.214 189.708 422.86 191.979 445.681 194.09C435.65 194.976 425.646 195.897 415.683 196.837ZM415.081 198.555C416.908 199.362 418.776 200.06 420.687 200.646C419.763 200.702 418.831 200.759 417.909 200.815C414.227 201.041 410.486 201.264 406.779 201.49C405.304 200.929 403.842 200.353 402.393 199.762C406.614 199.357 410.845 198.955 415.081 198.555ZM401.988 201.522C396.861 201.453 391.744 201.368 386.628 201.272C387.699 201.169 388.791 201.066 389.86 200.964C392.768 200.684 395.684 200.404 398.6 200.125C399.72 200.602 400.851 201.064 401.988 201.522ZM383.828 202.862C378.957 203.148 374.075 203.43 369.183 203.706C365.947 203.756 362.71 203.81 359.475 203.85C363.811 203.444 368.117 203.04 372.429 202.629C376.223 202.721 380.026 202.787 383.828 202.862ZM309.808 206.569C308.78 206.015 307.777 205.473 306.776 204.933C311.716 205.286 316.507 205.527 321.107 205.628C317.336 205.948 313.576 206.264 309.808 206.569ZM331.36 207.314C333.696 209.324 336.075 211.311 338.483 213.252C336.494 215.013 334.492 216.771 332.481 218.525C325.471 214.897 318.848 211.408 312.676 208.106C318.897 207.862 325.124 207.603 331.36 207.314ZM340.093 214.541C348.42 221.141 357.031 227.108 365.25 231.336C389.327 243.723 416.679 252.051 445.444 257.882C443.517 261.697 441.577 265.513 439.622 269.328C424.308 262.766 409.624 256.147 396.051 249.811C373.635 239.349 352.741 228.984 334.414 219.527C336.316 217.868 338.211 216.206 340.093 214.541ZM447.781 258.352C492.361 267.156 540.209 270.073 584.51 272.765C596.78 273.511 608.38 274.219 619.635 275.033V323.018C568.458 319.33 500.573 295.331 441.735 270.235C443.767 266.274 445.78 262.313 447.781 258.352ZM622.069 275.227C656.605 277.983 684.922 289.112 706.187 307.997C706.379 310.361 706.581 312.712 706.813 315.018L706.91 315.987L708.309 315.762C708.649 315.707 708.981 315.63 709.32 315.57C713.757 329.535 718.792 342.919 724.427 355.712C723.974 356.891 723.463 358.052 722.901 359.198C696.653 337.754 663.629 326.099 622.069 323.21V275.227ZM727.716 362.979C727.812 363.187 727.913 363.389 728.009 363.595C727.829 363.434 727.651 363.27 727.471 363.11C727.553 363.067 727.633 363.023 727.716 362.979ZM729.764 361.882C732.624 360.313 735.381 358.66 738.049 356.933C741.472 366.821 745.089 376.705 748.954 386.571C743.865 379.796 738.436 373.585 732.642 367.928C731.667 365.928 730.707 363.912 729.764 361.882ZM750.109 391.892C750.358 394.475 750.356 396.969 749.989 399.282C744.919 391.166 740.146 382.755 735.687 374.033C740.792 379.509 745.59 385.463 750.109 391.892ZM752.767 396.09C753.367 397.561 753.984 399.03 754.595 400.5C753.771 401.217 752.954 401.932 752.108 402.653C752.011 402.503 751.918 402.35 751.823 402.2C752.411 400.289 752.71 398.24 752.767 396.09ZM755.418 402.463C757.36 407.091 759.348 411.714 761.405 416.33C758.597 412.415 755.866 408.423 753.218 404.351C753.965 403.719 754.689 403.091 755.418 402.463ZM760.87 409.325C762.956 413.3 764.895 417.334 766.774 421.292C767.732 423.309 768.703 425.339 769.693 427.37C769.124 426.646 768.554 425.92 767.991 425.189C765.539 419.911 763.163 414.623 760.87 409.325ZM811.14 293.299C809.134 271.057 799.24 248.466 778.395 231.298C782.516 233.291 786.839 235.131 791.352 236.822C815.727 255.555 829.413 281.365 834.872 306.801C826.571 302.781 818.667 298.284 811.14 293.299ZM764.404 221.217C771.735 224.363 778.646 228.012 785.014 232.263C777.59 229.016 770.763 225.304 764.404 221.217ZM747.919 213.349C747.917 213.344 747.915 213.34 747.911 213.336C748.916 213.585 749.922 213.831 750.918 214.091C751.059 214.201 751.194 214.315 751.334 214.424C750.203 214.056 749.064 213.697 747.919 213.349ZM722.143 199.631C721.989 198.719 721.833 197.806 721.674 196.889C724.523 198.066 727.201 199.322 729.692 200.659C727.186 200.3 724.671 199.956 722.143 199.631ZM697.548 190.561C697.547 190.196 697.542 189.829 697.539 189.464C699.963 190.021 702.331 190.611 704.642 191.232C702.283 190.998 699.919 190.774 697.548 190.561ZM694.699 181.056C694.647 180.808 694.594 180.555 694.543 180.306C694.702 180.344 694.856 180.382 695.016 180.42C695.026 181.193 695.041 181.965 695.05 182.736C694.934 182.18 694.814 181.613 694.699 181.056ZM694.179 178.572C693.99 177.66 693.795 176.734 693.604 175.82C694.046 175.938 694.495 176.057 694.928 176.173C694.947 177.037 694.966 177.9 694.98 178.762C694.712 178.699 694.45 178.633 694.179 178.572ZM691.598 177.997C691.095 177.887 690.599 177.773 690.093 177.665C689.881 176.681 689.668 175.703 689.453 174.73C689.972 174.864 690.488 174.998 690.998 175.131C691.197 176.085 691.399 177.047 691.598 177.997ZM689.046 172.932C687.399 165.685 685.55 158.756 683.105 152.323C684.2 152.49 685.237 152.651 686.28 152.812C687.753 159.691 689.203 166.529 690.624 173.336C690.102 173.202 689.575 173.067 689.046 172.932ZM682.411 150.53C679.542 143.432 675.862 136.988 670.816 131.446C672.771 131.487 674.662 131.514 676.436 131.514C678.123 131.514 679.714 131.492 681.225 131.451C681.391 131.67 681.557 131.888 681.722 132.107C683.151 138.438 684.549 144.753 685.905 151.066C684.762 150.89 683.612 150.714 682.411 150.53ZM687.28 146.029C687.729 147.195 688.167 148.346 688.628 149.527C688.883 150.179 689.197 150.89 689.54 151.627C689.168 151.57 688.831 151.517 688.451 151.459C688.062 149.649 687.674 147.841 687.28 146.029ZM684.093 131.342C686.974 131.196 689.44 130.952 691.448 130.593C692.124 135.014 692.65 139.44 693.099 143.865C690.215 139.888 687.303 135.905 684.331 131.937C684.251 131.739 684.172 131.539 684.093 131.342ZM683.65 129.751C682.022 122.591 680.325 115.451 678.566 108.32C679.6 107.777 680.514 107.186 681.251 106.523C683.881 109.692 686.384 112.984 688.788 116.367C689.12 117.817 689.444 119.283 689.743 120.796C690.287 123.543 690.74 126.295 691.178 129.047C689.247 129.402 686.679 129.627 683.65 129.751ZM692.319 121.522C692.774 122.208 693.233 122.892 693.68 123.584C694.238 124.649 694.777 125.701 695.3 126.74C695.213 126.967 695.124 127.191 695.02 127.393C694.813 127.797 694.292 128.14 693.523 128.433C693.15 126.128 692.764 123.823 692.319 121.522ZM670.264 86.4859C669.135 85.3551 667.981 84.2448 666.797 83.1628C667.89 83.9812 668.958 84.827 670.006 85.6965C670.094 85.9609 670.18 86.2238 670.264 86.4859ZM653.808 73.2351C650.197 70.976 646.394 68.9876 642.389 67.3453C641.977 66.3935 641.403 65.437 640.675 64.4906C645.971 64.9756 650.866 66.1235 655.321 67.9581C656.511 68.4485 657.667 68.9931 658.798 69.5761C660.579 72.3107 661.839 75.1151 662.525 77.8968C659.751 76.1846 656.847 74.6263 653.808 73.2351ZM635.358 62.0487C635.576 62.2237 635.767 62.4073 635.972 62.587C633.03 62.5399 629.983 62.6773 626.835 62.9943C625.672 62.813 624.494 62.6663 623.304 62.5431C623.241 62.0205 623.192 61.4947 623.127 60.9729C625.046 59.894 626.911 58.9806 628.728 58.2093C631.194 59.2255 633.442 60.5116 635.358 62.0487ZM622.86 59.023C622.743 58.1293 622.614 57.2387 622.489 56.3473C623.789 56.6094 625.065 56.9224 626.292 57.3179C625.166 57.828 624.019 58.4071 622.86 59.023ZM620.575 60.2973C619.594 60.8694 618.606 61.4681 617.605 62.1131C616.902 62.0707 616.162 62.0315 615.435 61.9907C615.839 59.8305 616.305 57.7299 616.825 55.6575C617.896 55.7062 618.955 55.7996 620.004 55.9361C620.209 57.3862 620.389 58.8425 620.575 60.2973ZM613.007 61.8612C612.175 61.8188 611.338 61.778 610.478 61.7396C608.336 59.7873 606.164 58.0814 603.967 56.6133C607.234 55.9997 610.728 55.6332 614.346 55.605C613.839 57.6506 613.406 59.7332 613.007 61.8612ZM607.252 61.6062C604.74 61.5089 602.127 61.4273 599.429 61.3614C597.251 60.8474 595.091 60.375 592.954 59.9552C595.404 58.8614 598.23 57.9119 601.319 57.1759C603.311 58.4392 605.29 59.9168 607.252 61.6062ZM590.479 61.2138H590.425C590.43 61.2115 590.433 61.2091 590.438 61.2068L590.479 61.2138ZM598.92 62.9903C601.747 63.6604 604.61 64.4122 607.508 65.2502C599.779 65.1757 592.215 65.3075 584.789 65.6308C585.531 64.6829 586.524 63.7405 587.791 62.8342C591.621 62.8522 595.344 62.9048 598.92 62.9903ZM581.979 65.75C572.877 66.2091 563.988 66.9733 555.257 68.0075C556.29 66.3911 557.682 64.8618 559.391 63.4298C567.955 63.0209 576.441 62.8342 584.514 62.8263C583.429 63.7632 582.586 64.7449 581.979 65.75ZM581.231 67.4473C581.152 67.7133 581.049 67.9785 581.009 68.2469C580.847 69.2928 581.031 70.3161 581.474 71.3024C572.195 73.3112 563.096 75.5216 554.147 77.9094C553.384 76.3008 553.108 74.6137 553.364 72.8513C553.515 71.8101 553.823 70.8002 554.26 69.8186C563.073 68.7404 572.043 67.9354 581.231 67.4473ZM551.868 78.5261C549.562 79.1507 547.244 79.7612 544.956 80.4085C543.17 80.3983 541.388 80.3881 539.662 80.3905C542.461 76.8948 545.324 73.6133 548.24 70.6025C549.364 70.4471 550.485 70.2847 551.614 70.1387C551.311 70.9697 551.065 71.8156 550.938 72.6913C550.644 74.7291 550.965 76.6759 551.868 78.5261ZM535.48 82.0305C535.099 82.5225 534.721 83.0215 534.343 83.5206C531.334 84.4277 528.347 85.3653 525.363 86.3085C524.77 84.9887 524.402 83.6226 524.253 82.2133C527.844 82.1207 531.576 82.0572 535.48 82.0305ZM523.972 88.5637C524.903 90.0907 526.091 91.5635 527.602 92.9618C524.108 98.1391 520.747 103.552 517.537 109.067C515.465 109.008 513.393 108.939 511.322 108.865C505.407 105.649 500.835 101.819 498.207 97.2979C506.714 94.2557 515.295 91.3399 523.972 88.5637ZM507.404 108.709C496.192 108.246 485.005 107.504 473.93 106.337C481.261 103.507 488.614 100.738 496.017 98.0692C498.442 102.151 502.392 105.671 507.404 108.709ZM510.541 110.483C511.581 111.029 512.649 111.56 513.757 112.073C506.34 116.046 498.994 120.032 491.699 123.999C486.527 121.81 481.944 119.354 478.228 116.577C474.597 113.863 471.921 110.925 470.154 107.794C470.276 107.746 470.397 107.698 470.518 107.65C483.752 109.145 497.145 109.99 510.541 110.483ZM476.42 117.681C480.114 120.442 484.63 122.891 489.707 125.082C489.62 125.129 489.533 125.176 489.447 125.223C482.397 129.058 475.386 132.868 468.384 136.635C461.471 133.979 455.446 130.952 450.757 127.481C447.12 124.79 444.419 121.898 442.581 118.842C451.063 115.367 459.539 111.955 468.031 108.63C469.903 111.852 472.675 114.882 476.42 117.681ZM490.973 126.504C491.277 126.339 491.584 126.173 491.887 126.008C496.202 127.75 500.903 129.305 505.846 130.707C503.933 134.499 502.098 138.255 500.348 141.929C492.493 141.392 484.704 140.648 477.058 139.632C474.871 138.95 472.751 138.237 470.698 137.494C477.438 133.864 484.187 130.195 490.973 126.504ZM475.86 141.153C482.751 143.326 490.249 145.191 498.052 146.805C496.123 150.948 494.31 154.953 492.62 158.761C476.851 156.178 461.883 152.927 449.203 148.901C454.978 145.89 460.739 142.837 466.501 139.749C469.59 140.272 472.718 140.728 475.86 141.153ZM491.934 160.308C490.407 163.763 488.986 167.035 487.675 170.082C466.748 167.31 446.082 163.763 428.712 159.323C434.865 156.28 440.981 153.172 447.076 150.01C460.126 154.235 475.619 157.626 491.934 160.308ZM487.013 171.622C486.332 173.205 485.68 174.729 485.064 176.168C484.815 176.749 484.576 177.31 484.339 177.863C461.833 175.481 440.185 171.36 421.233 164.018C420.871 163.878 420.477 163.72 420.056 163.549C422.196 162.52 424.33 161.484 426.459 160.439C444.233 165.07 465.497 168.755 487.013 171.622ZM420.021 165.445C431.699 169.969 444.358 173.294 457.585 175.746C441.052 173.433 425.065 170.809 410.805 167.91C413.174 166.811 415.535 165.701 417.888 164.58C418.673 164.908 419.398 165.204 420.021 165.445ZM483.176 180.57C482.342 182.507 481.6 184.209 480.969 185.608C452.033 182.341 422.275 178.404 396.571 174.312C400.507 172.597 404.417 170.849 408.3 169.067C430.567 173.654 457.057 177.511 483.176 180.57ZM480.327 187.001C480.194 187.287 480.063 187.564 479.942 187.812L479.833 188.036C478.437 188.809 477.044 189.552 475.65 190.268C444.849 186.919 413.079 182.984 384.821 179.286C387.876 178.033 390.913 176.758 393.931 175.46C420.224 179.663 450.788 183.675 480.327 187.001ZM373.778 187.041C374.055 187.069 374.34 187.098 374.618 187.126C382.502 191.952 389.291 195.92 393.421 197.832C394.107 198.151 394.809 198.45 395.502 198.76C393.508 198.951 391.508 199.142 389.518 199.334C383.82 199.882 378.052 200.431 372.296 200.979C366.742 200.845 361.212 200.67 355.679 200.498C360.678 195.912 365.61 191.314 370.479 186.708C371.578 186.818 372.673 186.929 373.778 187.041ZM358.89 202.243C356.998 202.421 355.098 202.593 353.203 202.77C353.45 202.544 353.695 202.317 353.942 202.091C355.59 202.144 357.24 202.194 358.89 202.243ZM349.826 203.081C346.446 203.394 343.082 203.714 339.695 204.019C336.657 204.034 333.625 204.04 330.594 204.043C329.224 202.837 327.875 201.631 326.545 200.425C332.869 201.092 338.94 201.599 344.438 201.799C346.624 201.879 348.826 201.928 351.016 202.001C350.62 202.362 350.222 202.721 349.826 203.081ZM327.622 204.051C326.879 204.05 326.132 204.057 325.39 204.056C320.389 204.051 315.06 203.821 309.559 203.465C314.18 202.4 318.74 201.278 323.236 200.093C324.673 201.411 326.135 202.731 327.622 204.051ZM306.163 206.722C302.115 206.861 297.907 206.887 293.601 206.842C296.726 206.239 299.823 205.609 302.887 204.951C303.959 205.533 305.061 206.128 306.163 206.722ZM286.337 208.342C285.885 208.372 285.424 208.393 284.97 208.42L285.535 208.322C285.804 208.33 286.067 208.334 286.337 208.342ZM270.305 209.036C256.431 209.34 242.03 209.009 227.697 208.533C227.105 207.172 226.584 205.865 226.131 204.612C231.893 204.994 237.683 205.412 243.442 205.833C254.694 206.656 266.136 207.484 277.233 208.001C274.94 208.361 272.632 208.708 270.305 209.036ZM264.533 210.755L264.736 211.48C266.708 211.228 268.651 210.949 270.599 210.676C276.689 210.539 282.684 210.285 288.53 209.867C295.356 209.378 302.207 208.834 309.059 208.282C315.844 211.926 323.184 215.797 330.982 219.832C311.847 236.458 291.661 252.781 270.112 268.508C252.591 249.563 236.026 226.635 228.445 210.205C240.549 210.602 252.683 210.872 264.533 210.755ZM332.918 220.831C351.052 230.185 371.581 240.368 393.458 250.601C407.56 257.197 422.85 264.098 438.803 270.927C426.95 293.993 414.513 317.029 401.063 339.815C366.421 329.331 333.167 315.621 303.271 297.508C293.692 291.704 282.432 281.656 271.456 269.949C293.227 254.083 313.608 237.611 332.918 220.831ZM440.915 271.833C500.106 297.05 568.178 321.028 619.635 324.675V373.512C553.385 369.595 475.426 361.985 403.294 340.48C416.701 317.771 429.099 294.816 440.915 271.833ZM622.069 324.865C663.284 327.769 695.971 339.485 721.923 361.026C721.122 362.47 720.259 363.894 719.257 365.272L717.2 368.096L721.039 366.313C722.564 365.605 724.055 364.87 725.532 364.123C727.199 365.601 728.832 367.127 730.442 368.69C736.166 380.425 742.436 391.626 749.23 402.305C748.575 404.262 747.614 406.054 746.198 407.576C745.149 408.429 744.086 409.284 743.006 410.144L744.747 411.288C746.115 410.458 747.277 409.515 748.257 408.476C749.363 407.575 750.413 406.685 751.484 405.792C756.017 412.719 760.775 419.423 765.766 425.895C769.463 433.85 773.327 441.782 777.412 449.68C776.504 448.441 775.61 447.216 774.735 446.013C768.585 437.577 763.272 430.29 758.938 426.367C722.678 393.528 680.424 377.256 622.069 373.666V324.865ZM772.082 433.817C772.907 434.817 773.741 435.809 774.577 436.798C777.545 442.09 780.917 447.255 785.083 452.06L787.242 451.302C786.942 450.857 786.674 450.435 786.427 450.025C799.554 463.84 813.937 476.395 829.574 487.678C829.158 487.918 828.724 488.128 828.238 488.267C825.728 488.985 821.691 488.433 815.137 486.48C805.456 483.596 795.413 472.988 786.228 461.353C781.234 452.22 776.533 443.036 772.082 433.817ZM784.552 444.89C784.459 441.646 787.187 439.469 791.637 435.951C795.344 433.022 799.96 429.376 804.889 423.619C810.051 417.594 814.651 411.296 818.707 404.685C832.56 413.622 847.484 420.578 863.279 425.851C856.035 444.421 846.529 461.644 837.891 475.39C836.641 477.382 835.644 479.194 834.767 480.792C833.459 483.177 832.411 485.066 831.172 486.389C814.134 474.075 798.593 460.235 784.552 444.89ZM819.683 403.034C828.081 388.925 834.066 373.414 837.784 356.114C840.722 342.438 840.996 326.541 838.015 310.333C846.983 314.419 856.402 317.974 866.297 321.009C872.405 339.055 875.247 356.869 875.039 372.233C874.806 389.585 870.309 407.411 863.91 424.2C848.218 418.927 833.407 411.974 819.683 403.034ZM837.598 308.087C832.572 283.25 819.792 257.9 797.048 238.839C802.027 240.494 807.263 241.952 812.752 243.219C838.583 263.587 855.9 291.427 865.586 318.93C855.789 315.842 846.471 312.229 837.598 308.087ZM792.691 235.357C790.945 234.028 789.163 232.723 787.309 231.467C778.34 225.4 768.324 220.51 757.567 216.567C757.086 216.219 756.605 215.872 756.13 215.521C773.485 220.465 789.517 227.194 803.332 236.38C805.364 237.731 807.334 239.142 809.273 240.58C803.439 239.074 797.932 237.318 792.691 235.357ZM805.039 235.207C789.756 225.045 771.852 217.833 752.47 212.722C751.547 211.995 750.647 211.25 749.745 210.507C776.295 216.242 800.941 225.006 821.591 238.381C824.752 240.428 827.836 242.577 830.859 244.797C824.991 243.979 819.403 242.949 814.069 241.727C811.165 239.457 808.157 237.279 805.039 235.207ZM747.712 211.522C747.249 211.409 746.791 211.289 746.325 211.179C745.866 210.61 745.368 210.051 744.856 209.496C745.066 209.538 745.275 209.579 745.485 209.622C746.225 210.257 746.957 210.898 747.712 211.522ZM742.697 207.338C742.472 207.131 742.255 206.921 742.024 206.717C742.061 206.706 742.098 206.697 742.135 206.685C742.387 206.914 742.631 207.149 742.886 207.376C742.823 207.364 742.76 207.35 742.697 207.338ZM737.864 206.037C737.87 205.989 737.874 205.939 737.878 205.891C737.927 205.928 737.981 205.964 738.03 206.002C737.974 206.014 737.919 206.026 737.864 206.037ZM721.319 194.856C721.313 194.825 721.307 194.795 721.303 194.764C723.967 195.097 726.621 195.447 729.267 195.812C729.765 196.938 730.262 198.045 730.759 199.153C727.842 197.615 724.69 196.183 721.319 194.856ZM728.475 194.012C725.991 193.674 723.495 193.356 720.994 193.047C720.727 191.566 720.454 190.081 720.171 188.593C723.185 189.999 725.851 191.495 728.072 193.097C728.206 193.403 728.341 193.707 728.475 194.012ZM718.483 192.73C716.979 192.55 715.465 192.389 713.955 192.218C708.82 190.546 703.316 189.064 697.526 187.753C697.51 185.507 697.495 183.263 697.462 181.009C704.924 182.86 711.738 184.985 717.49 187.405C717.832 189.185 718.163 190.96 718.483 192.73ZM716.782 183.793C716.095 183.387 715.345 182.845 714.531 182.159C715.364 182.481 716.036 182.776 716.632 183.057C716.682 183.302 716.732 183.548 716.782 183.793ZM697.428 179.342C697.415 178.509 697.394 177.674 697.377 176.84C702.201 178.164 706.457 179.411 709.854 180.517C711.378 182.05 712.825 183.33 714.146 184.287C709.09 182.459 703.45 180.814 697.428 179.342ZM697.342 175.12C697.261 171.547 697.145 167.967 696.99 164.38C700.267 169.239 704.009 174.151 707.55 178.075C704.524 177.132 701.076 176.139 697.342 175.12ZM694.893 174.456C694.348 174.311 693.782 174.163 693.227 174.016C691.787 167.117 690.319 160.182 688.826 153.205C689.377 153.29 689.9 153.371 690.431 153.453C691.511 155.568 692.851 157.907 694.37 160.343C694.618 165.059 694.781 169.763 694.893 174.456ZM693.228 153.886C693.477 153.926 693.727 153.964 693.969 154.002C694.001 154.47 694.026 154.939 694.057 155.408C693.769 154.892 693.491 154.384 693.228 153.886ZM692.93 152.152C692.729 152.121 692.499 152.085 692.295 152.054C691.786 151.009 691.336 150.014 690.982 149.107C690.066 146.759 689.178 144.438 688.305 142.15C687.998 141.346 687.693 140.55 687.389 139.756C689.443 142.564 691.478 145.373 693.503 148.175C693.623 149.549 693.757 150.923 693.86 152.297C693.55 152.249 693.246 152.201 692.93 152.152ZM696.28 152.016C696.458 152.261 696.635 152.508 696.813 152.753C696.652 152.728 696.486 152.702 696.322 152.677C696.306 152.457 696.296 152.236 696.28 152.016ZM697.121 149.426C696.715 148.866 696.307 148.303 695.902 147.742C695.382 141.848 694.715 135.949 693.805 130.057C694.897 129.74 695.765 129.368 696.383 128.93C702.303 141.079 705.661 150.998 706.688 154.218C705.242 154.033 702.809 153.671 699.863 153.222C698.949 151.958 698.036 150.694 697.121 149.426ZM683.677 102.446C683.843 101.836 683.96 101.194 684.039 100.527C684.659 102.142 685.257 103.8 685.818 105.526C685.12 104.496 684.408 103.469 683.677 102.446ZM672.136 84.8459C671.206 82.1191 670.196 79.4583 669.087 76.9113C673.643 81.2215 677.556 86.6224 680.828 93.1783C678.11 90.2036 675.215 87.4204 672.136 84.8459ZM668.768 82.1599C667.651 81.3188 666.509 80.5035 665.344 79.7165C664.958 77.1239 664.074 74.496 662.75 71.9019C663.51 72.3978 664.263 72.9063 664.993 73.4508C666.436 76.2796 667.684 79.2347 668.768 82.1599ZM660.777 68.5505C658.486 65.1231 655.418 61.8188 651.662 58.8033C653.665 59.9615 655.568 61.1824 657.368 62.4418C659.456 64.5675 661.299 67.0534 662.929 69.7425C662.227 69.3211 661.502 68.935 660.777 68.5505ZM640.077 53.7045C636.487 53.8748 632.685 54.7411 628.68 56.3128C626.638 55.565 624.485 54.9741 622.243 54.5794C622.026 53.1019 621.795 51.6275 621.558 50.1554C627.571 50.2229 633.217 51.2296 638.425 52.8869C638.984 53.1427 639.527 53.4314 640.077 53.7045ZM621.28 48.4919C621.262 48.3891 621.246 48.2863 621.229 48.1835C622.167 48.2793 623.103 48.4181 624.04 48.5657C623.122 48.517 622.2 48.4974 621.28 48.4919ZM619.117 50.1405C619.337 51.5003 619.54 52.8649 619.742 54.2302C618.917 54.1369 618.084 54.0741 617.247 54.0317C617.606 52.7268 618.017 51.4329 618.464 50.1476C618.691 50.1452 618.902 50.1429 619.117 50.1405ZM614.781 53.9493C610.388 53.954 606.016 54.4586 601.93 55.3225C598.75 53.4267 595.52 52.0433 592.246 51.1519C601.882 50.5368 610.203 50.2849 615.922 50.1852C615.5 51.4313 615.123 52.686 614.781 53.9493ZM599.26 55.9495C595.774 56.8542 592.566 58.0194 589.847 59.3808C583.022 58.1716 576.405 57.4348 569.982 57.1272C574.857 54.9568 580.425 53.1544 586.169 51.7342C590.58 52.1422 594.952 53.5491 599.26 55.9495ZM587.506 60.6865C587.235 60.8529 586.978 61.0232 586.719 61.1926C578.714 61.1738 570.265 61.3206 561.696 61.6909C563.21 60.6395 564.88 59.6429 566.689 58.7068C573.408 58.8708 580.339 59.5056 587.506 60.6865ZM556.074 63.5906C554.535 65.0799 553.302 66.6681 552.41 68.3505C551.674 68.443 550.934 68.5301 550.2 68.6267C552.022 66.84 553.862 65.1631 555.721 63.6126C555.838 63.6055 555.956 63.5969 556.074 63.5906ZM522.86 74.9747C522.328 76.3125 521.954 77.6928 521.798 79.1272C521.741 79.6474 521.742 80.1567 521.736 80.6667C512.479 80.95 504.238 81.4396 496.921 82.0972C497.043 81.7825 497.16 81.4671 497.299 81.1587C505.74 78.8306 514.243 76.7582 522.86 74.9747ZM494.305 82.3467C493.671 82.4087 493.025 82.4683 492.406 82.5327C493.091 82.3349 493.777 82.1372 494.463 81.9426C494.412 82.0783 494.351 82.2102 494.305 82.3467ZM483.264 85.2869C486.531 84.8216 490.033 84.3923 493.816 84.011C493.56 85.0632 493.395 86.1453 493.328 87.2603C493.129 90.6172 493.806 93.6868 495.166 96.5109C486.737 99.5468 478.371 102.697 470.034 105.936C469.892 105.921 469.749 105.91 469.608 105.893C469.472 105.878 469.345 105.865 469.209 105.849C467.981 102.995 467.446 99.9972 467.71 96.8491C467.793 95.847 467.983 94.8709 468.231 93.9089C471.347 91.5454 474.522 89.2511 477.761 87.0398C479.593 86.4427 481.428 85.8605 483.264 85.2869ZM466.533 105.558C462.503 105.128 458.67 104.794 455.055 104.565C458.425 101.679 461.865 98.8508 465.382 96.1036C465.356 96.3233 465.298 96.5344 465.279 96.7557C465.024 99.8214 465.457 102.756 466.533 105.558ZM466.693 107.251C458.36 110.516 450.045 113.861 441.723 117.269C441.641 117.104 441.569 116.938 441.494 116.771C445.321 113.172 449.236 109.606 453.252 106.118C457.427 106.354 461.909 106.733 466.693 107.251ZM440.475 119.706C442.418 122.847 445.216 125.821 448.959 128.592C453.643 132.057 459.546 135.093 466.285 137.762C466.175 137.822 466.064 137.881 465.954 137.94C459.118 136.749 452.432 135.312 445.986 133.544C444.039 133.011 441.806 132.369 439.369 131.667C436.208 130.759 432.736 129.761 429.112 128.774C431.653 126.248 434.231 123.718 436.849 121.194C438.059 120.695 439.266 120.203 440.475 119.706ZM426.794 128.151C425.427 127.788 424.046 127.429 422.653 127.078C425.669 125.821 428.674 124.576 431.682 123.33C430.037 124.938 428.409 126.546 426.794 128.151ZM425.388 129.551C423.621 131.317 421.875 133.076 420.141 134.826C418.302 133.278 416.796 131.678 415.563 130.038C417.044 129.419 418.526 128.8 420.003 128.184C421.819 128.625 423.62 129.085 425.388 129.551ZM427.708 130.171C431.57 131.215 435.224 132.265 438.414 133.182C440.867 133.886 443.111 134.533 445.068 135.07C451.064 136.714 457.265 138.063 463.589 139.211C457.972 142.216 452.355 145.185 446.725 148.114C437.028 144.878 428.811 141.157 422.817 136.893C422.455 136.635 422.145 136.368 421.801 136.108C423.749 134.14 425.715 132.159 427.708 130.171ZM421.052 138.026C427.009 142.264 435.11 145.968 444.63 149.206C438.453 152.404 432.254 155.544 426.014 158.617C418.571 156.634 411.796 154.479 405.931 152.141C406.462 151.609 406.998 151.077 407.529 150.545C410.456 147.61 413.427 144.597 416.447 141.532C417.756 140.205 419.074 138.867 420.402 137.523C420.627 137.689 420.821 137.86 421.052 138.026ZM423.761 159.722C421.781 160.689 419.797 161.651 417.808 162.604C415.167 161.475 411.872 160.004 408.231 158.377C406.242 157.489 404.273 156.615 402.318 155.749C403.078 154.992 403.836 154.235 404.593 153.477C410.237 155.722 416.691 157.801 423.761 159.722ZM406.889 159.75C410.155 161.21 413.145 162.544 415.65 163.627C413.049 164.863 410.439 166.085 407.818 167.292C402.931 166.268 398.265 165.21 393.87 164.121C396.245 161.782 398.608 159.444 400.957 157.108C403.078 158.047 405.075 158.94 406.889 159.75ZM405.326 168.444C401.339 170.261 397.322 172.038 393.279 173.783C390.578 173.345 387.928 172.907 385.331 172.467C387.725 170.142 390.107 167.815 392.473 165.489C396.547 166.504 400.839 167.489 405.326 168.444ZM390.613 174.926C387.508 176.247 384.379 177.542 381.235 178.816C380.506 178.72 379.784 178.625 379.059 178.53C380.692 176.96 382.316 175.39 383.936 173.82C386.122 174.19 388.354 174.558 390.613 174.926ZM376.44 178.184C370.924 177.454 365.571 176.738 360.412 176.04C358.825 175.042 357.245 174.047 355.688 173.067C351.303 170.306 347.527 167.936 344.269 165.904C354.169 168.371 366.912 170.898 381.413 173.388C379.762 174.987 378.105 176.585 376.44 178.184ZM374.903 179.656C373.917 180.601 372.937 181.545 371.946 182.489C371.694 182.586 371.444 182.685 371.192 182.781C368.764 181.276 366.29 179.731 363.81 178.175C367.42 178.661 371.127 179.155 374.903 179.656ZM367.773 186.435C362.832 191.103 357.828 195.762 352.752 200.407C350.027 200.319 347.289 200.255 344.571 200.156C339.396 199.968 333.69 199.501 327.739 198.885C341.219 195.185 354.176 190.967 366.745 186.331C367.089 186.366 367.43 186.4 367.773 186.435ZM324.017 198.109C317.19 191.797 311.048 185.655 306.094 180.506C322.342 181.893 341.823 183.822 362.715 185.925C350.247 190.439 337.389 194.529 324.017 198.109ZM303.717 203.048C303.553 203.034 303.386 203.019 303.224 203.006C298.246 200.297 293.641 197.751 289.443 195.398C299.052 196.869 309.022 198.339 318.628 199.52C313.73 200.766 308.763 201.945 303.717 203.048ZM285.274 206.667C271.83 206.242 257.62 205.214 243.705 204.197C237.665 203.756 231.59 203.314 225.549 202.918C224.986 201.162 224.58 199.533 224.351 198.052C225.345 197.695 226.332 197.327 227.322 196.967C240.187 197.739 254.34 199.381 268.288 201.009C278.236 202.17 288.352 203.349 298.125 204.236C293.901 205.103 289.612 205.907 285.274 206.667ZM223.077 202.761C219.572 202.539 216.081 202.334 212.622 202.159C215.785 201.074 218.934 199.975 222.068 198.858C222.298 200.072 222.642 201.38 223.077 202.761ZM223.641 204.447C224.095 205.725 224.623 207.061 225.221 208.451C221.262 208.314 217.309 208.173 213.378 208.028C207.838 207.825 202.27 207.622 196.703 207.445C200.613 206.193 204.495 204.911 208.358 203.61C213.391 203.831 218.497 204.116 223.641 204.447ZM269.794 271.158C280.79 282.876 292.05 292.92 301.645 298.733C331.777 316.989 365.279 330.795 400.161 341.346C392.411 354.423 384.317 367.414 375.8 380.278C335.355 366.565 299.413 349.692 268.17 329.684C252.3 319.522 238.971 309.483 228.043 299.464C242.534 290.306 256.428 280.848 269.794 271.158ZM402.391 342.011C474.88 363.611 553.151 371.239 619.635 375.165V422.481C526.908 417.717 446.091 403.83 377.978 381.02C386.514 368.129 394.626 355.113 402.391 342.011ZM622.069 375.319C679.561 378.891 721.221 394.961 756.989 427.351C761.187 431.153 766.452 438.377 772.549 446.74C776.127 451.649 779.968 456.915 783.986 462.006C790.08 473.15 796.611 484.219 803.601 495.199C802.798 494.435 802.005 493.679 801.231 492.94C795.892 487.848 791.28 483.45 787.302 480.412C738.969 443.491 689.494 426.179 622.069 422.619V375.319ZM791.777 471.281C799.001 479.263 806.598 485.735 814.152 487.986C819.206 489.491 822.912 490.213 825.783 490.213C827.069 490.213 828.19 490.068 829.186 489.782C829.967 489.559 830.637 489.242 831.26 488.872C847.868 500.693 865.868 511.103 885.259 520.083C877.71 524.923 868.626 528.058 858.221 527.823C841.241 527.482 824.246 514.219 810.288 501.453C803.726 491.472 797.569 481.409 791.777 471.281ZM832.9 487.615C834.43 486.115 835.594 484.016 837.049 481.364C837.92 479.782 838.903 477.99 840.132 476.033C848.76 462.304 858.25 445.121 865.514 426.577C884.521 432.702 904.757 436.445 925.874 438.326C922.745 456.735 916.259 476.181 906.403 496.229C902.527 504.116 895.938 512.673 887.039 518.893C867.587 509.908 849.544 499.474 832.9 487.615ZM868.37 319.786C858.993 292.552 842.178 264.873 817.103 244.189C822.357 245.272 827.867 246.162 833.619 246.871C862.666 268.982 885.157 298.57 900.993 327.474C889.576 325.47 878.71 322.913 868.37 319.786ZM837.435 247.311C843.039 247.907 848.88 248.326 854.983 248.551C887.843 272.098 915.787 302.067 940.902 332.113C927.949 331.3 915.604 329.928 903.846 327.974C888.242 299.226 866.082 269.688 837.435 247.311ZM834.85 245.33C831.095 242.493 827.246 239.765 823.274 237.193C801.401 223.026 775.166 213.974 746.97 208.197C746.107 207.453 745.267 206.691 744.421 205.932C745.168 205.669 745.915 205.412 746.659 205.109C781.518 211.497 813.549 221.893 840.367 238.728C844.476 241.308 848.503 244.005 852.467 246.785C846.334 246.494 840.465 246.007 834.85 245.33ZM742.946 204.622C742.868 204.551 742.789 204.481 742.711 204.411C742.895 204.442 743.077 204.475 743.259 204.507C743.155 204.544 743.05 204.586 742.946 204.622ZM740.671 205.339C740.595 205.361 740.519 205.378 740.443 205.4C739.693 204.798 738.911 204.209 738.1 203.632C738.387 203.679 738.676 203.721 738.963 203.768C739.524 204.299 740.102 204.815 740.671 205.339ZM734.965 201.442C734.896 201.431 734.828 201.42 734.759 201.409C734.563 201.288 734.357 201.173 734.157 201.054C733.598 199.82 733.037 198.568 732.476 197.308C732.712 197.553 732.948 197.798 733.186 198.043C733.984 199.149 734.587 200.28 734.965 201.442ZM719.774 186.515C719.741 186.349 719.709 186.183 719.677 186.017C719.773 185.988 719.884 185.964 719.964 185.932C720.702 185.633 721.121 185.214 721.212 184.739C722.392 186.146 723.584 187.539 724.79 188.92C723.228 188.089 721.556 187.287 719.774 186.515ZM718.953 182.375C718.922 182.221 718.89 182.067 718.859 181.913C719.057 182.156 719.254 182.401 719.453 182.644C719.304 182.557 719.12 182.465 718.953 182.375ZM716.239 181.122C714.914 180.575 713.375 179.999 711.599 179.394C706.864 174.524 701.152 166.965 696.786 160.007C696.685 158.134 696.557 156.258 696.43 154.382C697.047 154.478 697.63 154.567 698.186 154.653C703.884 162.524 709.585 170.295 715.539 177.798C715.777 178.906 716.011 180.014 716.239 181.122ZM701.238 155.119C705.518 155.766 707.293 155.995 708.134 155.995C708.692 155.995 708.847 155.895 709.065 155.754L709.55 155.442L709.418 155C709.216 154.306 708.111 150.6 706.022 145.048C706.675 146.307 707.32 147.567 707.956 148.831C710.456 156.696 712.59 164.765 714.442 172.866C709.957 167.065 705.592 161.124 701.238 155.119ZM667.009 72.5249C666.171 70.9014 665.284 69.347 664.339 67.8734C665.342 68.7412 666.313 69.6051 667.214 70.4534C668.647 71.8022 670.027 73.1833 671.357 74.5878C672.908 76.6507 674.294 78.7286 675.53 80.7915C672.941 77.6206 670.104 74.864 667.009 72.5249ZM646.939 54.2946C644.531 53.2015 642.099 52.2458 639.643 51.4588C633.71 48.7697 627.315 47.0787 620.949 46.5098C620.891 46.185 620.843 45.857 620.785 45.5321C631.087 45.8193 641.644 49.3864 651.444 55.8286C650.022 55.1758 648.521 54.6602 646.939 54.2946ZM616.52 48.5296C612.343 48.597 606.669 48.7485 600.029 49.0718C605.581 48.2973 610.902 47.8971 615.504 47.8971C615.933 47.8971 616.337 47.9097 616.752 47.9159C616.673 48.1207 616.596 48.3248 616.52 48.5296ZM577.559 52.3156C573.36 53.6504 569.383 55.2087 565.834 56.9868C565.606 56.9821 565.378 56.975 565.15 56.9719C568.868 54.8509 572.639 53.3004 576.449 52.4239C576.82 52.3878 577.19 52.3509 577.559 52.3156ZM561.498 56.9648C556.832 57.0135 552.273 57.2897 547.814 57.7746C550.149 56.8361 552.601 55.9573 555.141 55.1334C559.548 54.4272 563.985 53.8206 568.37 53.2996C566.053 54.3118 563.763 55.5485 561.498 56.9648ZM558.805 58.735C557.331 59.763 555.87 60.8764 554.42 62.0558C548.363 62.4089 542.303 62.8875 536.346 63.5019C538.143 62.365 540.102 61.2876 542.195 60.2659C547.577 59.4303 553.114 58.9155 558.805 58.735ZM532.406 63.9296C528.257 64.4067 524.178 64.9559 520.203 65.5845C525.479 63.8464 530.911 62.3995 536.508 61.2837C535.045 62.1303 533.687 63.0162 532.406 63.9296ZM495.362 79.8969C491.266 81.0386 487.183 82.2423 483.111 83.5057C488.427 80.1119 493.912 76.9599 499.588 74.1194C497.832 75.9163 496.411 77.8403 495.362 79.8969ZM471.209 89.2283C470.657 89.6269 470.107 90.0255 469.559 90.4288C469.683 90.1778 469.787 89.9219 469.925 89.674C470.353 89.5265 470.781 89.375 471.209 89.2283ZM443.332 105.795C445.541 105.795 447.899 105.863 450.333 105.966C447.051 108.842 443.837 111.765 440.684 114.714C439.925 112.383 439.606 109.974 439.814 107.475C439.859 106.923 439.954 106.382 440.073 105.847C441.139 105.82 442.208 105.795 443.332 105.795ZM417.042 127.486C416.2 127.837 415.357 128.19 414.514 128.541C414.135 127.94 413.819 127.33 413.521 126.717C414.691 126.962 415.865 127.217 417.042 127.486ZM395.184 138.542C400.254 136.433 405.305 134.322 410.347 132.216C411.393 131.779 412.431 131.346 413.475 130.909C414.873 132.743 416.631 134.521 418.741 136.241C417.29 137.709 415.85 139.171 414.421 140.621C411.403 143.682 408.435 146.692 405.508 149.626C404.956 150.179 404.398 150.733 403.846 151.286C398.482 149.021 393.962 146.594 390.531 143.988C389.488 143.196 388.592 142.392 387.776 141.579C390.248 140.565 392.691 139.58 395.184 138.542ZM388.712 145.082C392.262 147.778 396.946 150.289 402.505 152.625C401.763 153.367 401.022 154.108 400.277 154.849C392.291 151.335 384.697 148.114 377.986 145.584C380.533 144.557 383.123 143.485 385.691 142.434C386.586 143.328 387.567 144.214 388.712 145.082ZM398.915 156.209C396.465 158.646 393.996 161.086 391.517 163.526C378.086 160.083 367.398 156.332 360.984 152.318C365.789 150.446 370.643 148.52 375.525 146.561C383.143 149.379 391.611 152.993 398.915 156.209ZM359.195 151.112C359.061 151.014 358.913 150.916 358.784 150.817C355.492 148.301 354.052 145.754 354.499 143.248C354.648 142.42 355.198 142.148 355.662 142.003C356.164 141.845 356.786 141.772 357.519 141.772C360.881 141.772 366.524 143.347 373.019 145.649C368.38 147.505 363.765 149.335 359.195 151.112ZM358.766 153.168C365.305 157.42 376.3 161.338 390.118 164.897C387.696 167.277 385.257 169.657 382.806 172.037C365.024 168.982 349.944 165.895 339.562 162.985C338.642 162.418 337.794 161.898 336.977 161.4C344.163 158.752 351.42 156.015 358.766 153.168ZM337.994 164.241C342.98 167.313 348.648 170.884 354.026 174.271C354.636 174.654 355.245 175.039 355.856 175.422C339.252 173.166 324.901 171.145 314.097 169.599C320.419 167.407 326.797 165.132 333.228 162.786C334.69 163.267 336.274 163.752 337.994 164.241ZM301.317 178.462C297.301 178.134 293.561 177.851 290.1 177.613C292.759 176.756 295.418 175.9 298.093 175.015C299.073 176.077 300.157 177.236 301.317 178.462ZM280.151 192.283C270.776 190.841 261.924 189.508 254.109 188.544C258.494 187.3 262.894 186.01 267.304 184.696C270.667 186.761 274.994 189.322 280.151 192.283ZM249.903 189.709C259.561 190.797 271.175 192.586 283.099 194.424C283.461 194.48 283.837 194.537 284.201 194.594C288.54 197.054 293.343 199.733 298.609 202.618C288.826 201.733 278.68 200.552 268.702 199.388C255.653 197.866 242.92 196.388 231.209 195.545C233.607 194.66 235.996 193.765 238.378 192.863C242.211 191.843 246.056 190.782 249.903 189.709ZM207.842 201.941C205.968 201.861 204.11 201.794 202.26 201.736C208.706 200.28 215.153 198.758 221.605 197.161C217.049 198.789 212.461 200.381 207.842 201.941ZM182.207 207.064C180.637 207.033 179.071 207.009 177.506 206.987C179.151 206.66 180.801 206.351 182.444 206.016C182.356 206.357 182.279 206.709 182.207 207.064ZM226.253 300.59C237.237 310.639 250.603 320.7 266.496 330.878C297.942 351.015 334.109 367.993 374.809 381.784C366.625 394.089 358.037 406.272 348.991 418.303C305.327 402.53 265.831 383.06 230.72 359.897C212.682 347.998 197.509 336.308 185.008 324.719C199.296 316.964 213.02 308.902 226.253 300.59ZM376.989 382.524C445.407 405.425 526.554 419.363 619.635 424.132V466.879C517.834 462.58 428.038 446.557 351.139 419.08C360.197 407.035 368.794 394.84 376.989 382.524ZM622.069 424.27C688.706 427.818 737.649 444.965 785.48 481.502C789.371 484.475 793.944 488.837 799.241 493.891C802.04 496.559 805.027 499.406 808.169 502.283C816.361 514.736 825.183 527.063 834.701 539.233C834.26 538.94 833.818 538.647 833.375 538.353C829.181 535.568 824.843 532.688 820.568 530.053C753.988 489.04 694.553 470.153 622.069 466.995V424.27ZM814.731 508.096C827.694 519.152 842.729 529.158 858.151 529.469C858.516 529.476 858.877 529.479 859.242 529.479C870.165 529.479 879.601 526.154 887.405 521.067C908.756 530.789 931.772 538.798 956.435 545.091C942.878 553.884 926.88 559.832 908.845 562.611C880.68 566.945 859.925 555.671 840.485 543.038C831.285 531.527 822.714 519.872 814.731 508.096ZM928.577 436.881C931.732 417.12 930.995 398.567 926.234 381.805C921.829 366.301 914.692 348.286 904.867 329.87C916.768 331.778 929.264 333.101 942.369 333.867C952.046 345.494 961.303 357.114 970.262 368.36C974.619 373.826 978.895 379.192 983.1 384.414C993.551 397.379 1000.9 415.982 1003.4 436.459C977.677 438.459 952.561 438.857 928.577 436.881ZM875.276 246.942C868.586 247.138 862.175 247.126 856.031 246.916C851.458 243.659 846.793 240.518 842.023 237.523C815.404 220.814 783.779 210.377 749.392 203.9C751.637 202.842 753.87 201.606 756.091 200.195C794.428 207.5 829.86 219.061 859.949 237.246C865.159 240.395 870.244 243.647 875.276 246.942ZM753.351 199.677C750.995 201.107 748.631 202.324 746.261 203.336C744.35 202.99 742.441 202.646 740.514 202.324C738.757 200.653 737.031 198.955 735.343 197.225C735.212 197.047 735.093 196.868 734.954 196.692C734.931 196.663 734.901 196.635 734.878 196.606C741.102 197.528 747.259 198.552 753.351 199.677ZM724.675 185.317C724.728 185.44 724.78 185.559 724.833 185.681C722.47 182.915 720.154 180.104 717.881 177.248C716.759 172.048 715.525 166.849 714.164 161.691C717.878 169.696 721.341 177.653 724.675 185.317ZM697.965 126.183C698.139 125.516 698.255 124.787 698.32 124.005C699.912 127.365 701.402 130.812 702.8 134.327C701.238 131.58 699.629 128.864 697.965 126.183ZM693.536 110.291C691.246 106.526 688.787 102.922 686.144 99.5067C685.318 97.4062 684.446 95.3864 683.515 93.4695C683.016 91.281 682.209 88.9584 681.158 86.5659C686.976 94.8183 691.138 103.163 693.536 110.291ZM617.758 45.5101C617.644 45.7667 617.528 46.0233 617.418 46.2799C608.998 46.079 597.406 47.2921 586.238 49.9318C585.899 49.9577 585.563 49.9836 585.223 50.0102C583.589 49.9239 581.948 49.9459 580.296 50.1028C578.765 50.2496 577.241 50.5101 575.727 50.8569C572.822 51.148 569.871 51.4729 566.896 51.8385C584.278 47.6484 603.546 45.6498 617.758 45.5101ZM541.723 58.5648C535.443 59.5315 529.372 60.9172 523.486 62.6537C530.251 60.2903 537.821 58.3717 545.693 56.8142C544.33 57.3783 543.004 57.9614 541.723 58.5648ZM481.407 78.9287C486.769 75.8394 493.529 73.308 501.193 71.2326C493.132 75.0712 485.448 79.5329 478.095 84.4379C476.369 84.7235 474.708 85.0185 473.128 85.3253C475.273 83.0231 478.016 80.8817 481.407 78.9287ZM449.677 94.7524C453.773 92.4101 459.718 90.0734 468.282 88.0513C468.191 88.1957 468.082 88.3353 467.995 88.4805C461.2 90.8424 454.408 93.3667 447.602 96.0455C448.255 95.6046 448.944 95.1722 449.677 94.7524ZM439.467 101.246C438.861 102.226 438.395 103.241 438.051 104.285C435.512 104.391 433.133 104.572 430.927 104.834C433.78 103.609 436.625 102.419 439.467 101.246ZM410.055 124.317C403.055 123.055 396.456 122.432 391.306 123.125C397.914 119.891 404.45 116.769 410.925 113.772C410.001 115.301 409.471 116.993 409.386 118.862C409.302 120.72 409.542 122.538 410.055 124.317ZM380.584 128.427C381.199 128.118 381.808 127.819 382.422 127.513C381.742 128.478 381.24 129.55 381.042 130.801C380.484 134.333 381.637 137.758 384.403 141.038C381.43 142.255 378.448 143.478 375.505 144.662C367.529 141.77 361.032 140.039 356.905 140.195C364.764 136.324 372.648 132.401 380.584 128.427ZM322.363 156.866C322.569 157.311 322.895 157.759 323.399 158.21C324.72 159.389 327.181 160.618 330.609 161.88C323.769 164.366 317.008 166.742 310.289 169.052C305.866 168.416 302.194 167.883 299.363 167.468C307.046 164.006 314.708 160.47 322.363 156.866ZM293.593 170.057C294.449 171.021 295.516 172.208 296.799 173.609C292.991 174.868 289.192 176.107 285.413 177.311C282.695 177.147 280.177 177.017 277.866 176.924C283.126 174.673 288.366 172.382 293.593 170.057ZM261.839 178.921C263.376 178.516 266.143 178.338 269.925 178.34C268.075 179.117 266.219 179.889 264.363 180.656C263.223 179.916 262.353 179.32 261.839 178.921ZM265.34 183.477C261.539 184.606 257.741 185.73 253.959 186.807C257.353 185.452 260.734 184.081 264.105 182.692C264.502 182.946 264.899 183.201 265.34 183.477ZM226.88 189.726C228.499 188.972 231.258 188.647 234.889 188.647C237.339 188.647 240.203 188.801 243.367 189.064C241.355 189.842 239.336 190.611 237.316 191.376C232.923 192.545 228.535 193.689 224.155 194.789C224.164 194.624 224.147 194.437 224.162 194.278C224.378 191.994 225.294 190.462 226.88 189.726ZM190.815 199.055C197.607 197.005 206.651 196.369 216.942 196.551C209.729 198.304 202.519 199.993 195.306 201.571C192.535 201.53 189.799 201.522 187.11 201.551C188.071 200.385 189.284 199.517 190.815 199.055ZM152.734 206.868C161.515 204.579 171.989 203.544 183.422 203.262C183.285 203.556 183.155 203.858 183.035 204.168C178.396 205.12 173.748 206.035 169.092 206.919C163.235 206.911 157.441 206.989 151.736 207.185C152.07 207.079 152.387 206.959 152.734 206.868ZM93.0141 223.941C97.4661 218.297 103.922 214.595 112.207 212.941C122.138 210.957 132.849 209.808 144.012 209.184C139.963 212.41 137.594 217.026 136.396 222.342C120.939 225.952 105.014 229.166 88.4945 231.924C89.6278 229.048 91.1086 226.358 93.0141 223.941ZM95.3777 292.027C89.2153 278.76 81.1857 251.773 88.2039 232.701L88.5363 233.614C104.914 230.893 120.699 227.719 136.029 224.166C132.773 243.051 142.718 269.219 144.372 273.377C151.145 290.409 163.508 307.314 181.68 324.418C168.583 331.479 155.024 338.284 140.95 344.788L142.325 346.146C156.417 339.633 169.993 332.82 183.109 325.752C195.679 337.395 210.917 349.134 229.018 361.075C264.311 384.358 304.008 403.926 347.89 419.773C339.904 430.341 331.561 440.789 322.795 451.087L324.907 451.908C333.685 441.594 342.04 431.131 350.039 420.55C427.268 448.141 517.433 464.225 619.635 468.528V502.677C440.102 496.793 295.951 458.098 191.179 387.642C140.197 353.358 109.754 322.975 95.3777 292.027ZM1099.6 488.286C1074.53 522.585 1024.47 570.147 965.872 591.309C921.614 607.289 891.28 591.35 856.15 572.895C852.412 570.931 848.638 568.948 844.805 566.985C763.013 525.083 694.258 505.259 622.069 502.771V468.644C693.884 471.797 752.837 490.558 818.927 531.27C823.17 533.884 827.491 536.753 831.669 539.527C833.943 541.037 836.226 542.551 838.526 544.049C848.217 556.161 858.579 568.119 869.755 579.878L871.805 578.989C862.022 568.695 852.864 558.247 844.228 547.677C859.569 557.22 876.054 565.216 896.611 565.215C900.7 565.214 904.952 564.898 909.387 564.215C928.248 561.309 944.93 555.041 958.974 545.74C978.405 550.583 998.844 554.373 1020.3 557.095L1020.75 555.478C999.819 552.822 979.858 549.145 960.865 544.454C971.476 537.092 980.524 527.955 987.748 517.137C1003.93 492.914 1008.83 464.007 1005.96 437.913C1039.56 435.178 1074.13 429.785 1108.54 423.43C1119.54 441.774 1118.47 462.479 1099.6 488.286Z" fill="white"/>
</svg>
