<svg width="403" height="400" viewBox="0 0 403 400" fill="none" xmlns="http://www.w3.org/2000/svg">
<path d="M202.024 399.058H200.996C200.996 304.082 192.29 258.167 172.789 250.167C162.458 245.923 148.663 252.559 130.643 270.422L129.913 269.699C147.954 251.836 154.646 238.146 150.369 227.968C142.29 208.629 95.8878 200.038 0 200.038V199.02C95.9083 199.02 142.29 190.409 150.369 171.09C154.646 160.861 147.954 147.201 129.913 129.358L130.643 128.636C148.684 146.509 162.51 153.135 172.789 148.891C192.32 140.891 200.996 94.945 200.996 0H202.024C202.024 94.9755 210.721 140.891 230.221 148.891C240.501 153.135 254.347 146.509 272.367 128.636L273.087 129.358C255.046 147.222 248.354 160.912 252.631 171.09C260.71 190.429 307.112 199.02 403 199.02V200.038C307.092 200.038 260.71 208.649 252.631 227.968C248.354 238.146 255.046 251.857 273.087 269.699L272.367 270.422C254.316 252.559 240.501 245.933 230.221 250.167C210.762 258.167 202.024 304.082 202.024 399.058ZM166.426 247.917C168.757 247.902 171.067 248.349 173.221 249.23C190.419 256.274 199.393 291.583 201.551 362.324C203.7 291.583 212.684 256.274 229.872 249.23C238.691 245.607 249.783 249.454 263.609 260.966C251.983 247.276 248.108 236.283 251.757 227.561C258.881 210.532 294.54 201.636 365.973 199.488C294.53 197.361 258.881 188.465 251.757 171.446C248.108 162.713 251.983 151.721 263.609 138.03C249.783 149.542 238.691 153.39 229.872 149.776C212.684 142.723 203.7 107.414 201.551 36.6731C199.393 107.414 190.419 142.723 173.221 149.776C164.401 153.39 153.309 149.542 139.483 138.03C151.11 151.721 154.985 162.713 151.336 171.446C144.212 188.465 108.562 197.361 37.1195 199.488C108.562 201.616 144.212 210.512 151.336 227.54C154.985 236.263 151.11 247.256 139.483 260.946C149.969 252.233 158.85 247.917 166.426 247.917Z" fill="#FF00D6"/>
<path d="M202.024 382.905H200.996C200.996 295.634 193.009 253.444 175.092 246.106C165.614 242.218 152.96 248.304 136.389 264.712L135.659 263.989C152.23 247.582 158.377 235.042 154.45 225.657C147.029 207.926 104.42 200.018 16.2931 200.018V199C104.42 199 147.029 191.091 154.45 173.36C158.377 163.976 152.23 151.436 135.659 135.028L136.389 134.315C152.96 150.713 165.624 156.8 175.092 152.912C193.05 145.542 200.996 103.383 200.996 16.1228H202.024C202.024 103.383 210.001 145.573 227.918 152.912C237.396 156.8 250.061 150.713 266.621 134.315L267.351 135.028C250.78 151.436 244.633 163.976 248.56 173.36C255.982 191.091 298.59 199 386.717 199V200.018C298.59 200.018 255.982 207.926 248.56 225.657C244.633 235.042 250.78 247.582 267.351 263.989L266.621 264.712C250.091 248.345 237.437 242.238 227.96 246.106C210.042 253.434 202.024 295.634 202.024 382.905ZM169.232 243.958C171.379 243.944 173.507 244.352 175.493 245.159C191.2 251.602 199.454 283.664 201.51 347.809C203.566 283.685 211.79 251.602 227.518 245.159C235.566 241.861 245.661 245.302 258.212 255.663C247.748 243.225 244.283 233.271 247.614 225.27C254.162 209.718 286.543 201.524 351.325 199.488C286.563 197.453 254.162 189.31 247.655 173.727C244.325 165.767 247.789 155.772 258.253 143.344C245.702 153.695 235.638 157.125 227.559 153.838C211.851 147.395 203.597 115.333 201.551 51.1877C199.495 115.312 191.272 147.395 175.534 153.838C167.485 157.136 157.39 153.695 144.839 143.344C155.304 155.772 158.768 165.736 155.437 173.727C148.93 189.31 116.55 197.453 51.7679 199.488C116.529 201.524 148.93 209.667 155.437 225.25C158.768 233.21 155.304 243.205 144.839 255.643C154.327 247.826 162.417 243.958 169.274 243.958H169.232Z" fill="#FF00D6"/>
<path d="M202.024 366.741H200.996C200.996 287.186 193.718 248.732 177.353 242.034C168.739 238.502 157.205 244.07 142.105 258.992L141.375 258.279C156.476 243.327 162.078 231.917 158.501 223.377C151.747 207.224 112.901 200.017 32.5657 200.017V199C112.901 199 151.747 191.793 158.501 175.65C162.078 167.11 156.445 155.69 141.375 140.748L142.105 140.025C157.195 154.967 168.729 160.515 177.353 156.983C193.667 150.285 200.996 111.831 200.996 32.2759H202.024C202.024 111.831 209.292 150.285 225.606 156.983C234.23 160.515 245.764 154.947 260.854 140.025L261.584 140.748C246.483 155.69 240.881 167.11 244.458 175.65C251.212 191.793 290.059 199 370.393 199V200.017C290.059 200.017 251.212 207.224 244.458 223.377C240.881 231.907 246.514 243.327 261.584 258.279L260.854 258.992C245.764 244.05 234.23 238.502 225.606 242.034C209.333 248.732 202.024 287.186 202.024 366.741ZM172.121 239.988C174.082 239.981 176.024 240.358 177.837 241.098C192.074 246.93 199.598 275.776 201.551 333.376C203.494 275.776 211.019 246.93 225.256 241.098C232.524 238.115 241.621 241.149 252.918 250.37C243.605 239.174 240.583 230.176 243.554 222.98C249.444 208.893 278.566 201.432 336.748 199.508C278.566 197.585 249.444 190.124 243.554 176.037C240.542 168.841 243.605 159.823 252.918 148.647C241.611 157.868 232.524 160.861 225.256 157.919C211.019 152.087 203.494 123.251 201.551 65.641C199.598 123.251 192.074 152.087 177.837 157.919C170.569 160.901 161.471 157.919 150.174 148.647C159.487 159.843 162.51 168.841 159.549 176.037C153.649 190.124 124.527 197.585 66.3341 199.488C124.506 201.412 153.628 208.873 159.529 222.96C162.53 230.156 159.467 239.174 150.154 250.35C158.675 243.429 165.943 239.988 172.121 239.988Z" fill="#FF00D6"/>
<path d="M202.024 350.588H200.996C200.996 278.738 194.428 244.009 179.718 237.973C171.946 234.787 161.543 239.795 147.923 253.241L147.203 252.518C160.824 239.032 165.881 228.741 162.623 221.046C156.527 206.471 121.453 199.977 48.9 199.977V198.959C121.453 198.959 156.527 192.465 162.623 177.889C165.851 170.194 160.793 159.904 147.203 146.417L147.923 145.695C161.543 159.181 171.946 164.189 179.718 160.963C194.428 154.927 200.996 120.249 200.996 48.3579H202.024C202.024 120.198 208.583 154.927 223.293 160.963C231.064 164.148 241.467 159.141 255.087 145.695L255.817 146.417C242.197 159.904 237.139 170.194 240.398 177.889C246.494 192.465 281.568 198.959 354.121 198.959V199.977C281.568 199.977 246.494 206.471 240.398 221.046C237.18 228.741 242.238 239.032 255.817 252.518L255.087 253.241C241.467 239.754 231.064 234.746 223.293 237.973C208.624 244.009 202.024 278.738 202.024 350.588ZM174.958 236.029C176.74 236.022 178.505 236.368 180.149 237.047C192.906 242.278 199.681 267.918 201.551 319.035C203.381 267.918 210.186 242.278 222.943 237.047C229.44 234.38 237.561 237.047 247.614 245.118C239.442 235.184 236.769 227.143 239.463 220.69C244.746 208.058 270.64 201.351 322.275 199.498C270.64 197.687 244.746 190.938 239.463 178.317C236.769 171.874 239.462 163.843 247.614 153.888C237.581 162.031 229.471 164.627 222.943 161.96C210.186 156.728 203.412 131.089 201.551 79.9723C199.711 131.089 192.906 156.728 180.149 161.96C173.653 164.627 165.532 161.96 155.478 153.888C163.651 163.833 166.323 171.864 163.63 178.317C158.346 190.938 132.452 197.656 80.818 199.498C132.452 201.32 158.346 208.058 163.63 220.69C166.323 227.123 163.63 235.164 155.478 245.118C163.024 239.042 169.469 236.029 174.958 236.029Z" fill="#FF00D6"/>
<path d="M202.024 334.425H200.996C200.996 270.3 195.147 239.296 182.02 233.912C175.112 231.072 165.84 235.54 153.7 247.571L152.97 246.849C165.11 234.818 169.623 225.647 166.765 218.797C161.369 205.809 130.067 200.018 65.3061 200.018V199C130.067 199 161.379 193.208 166.817 180.22C169.675 173.37 165.162 164.199 153.022 152.168L153.751 151.446C165.892 163.477 175.164 167.945 182.072 165.105C195.188 159.731 200.996 128.727 200.996 64.5928H202.024C202.024 128.717 207.873 159.731 220.99 165.105C227.908 167.945 237.17 163.477 249.321 151.446L250.04 152.168C237.9 164.199 233.387 173.37 236.245 180.22C241.683 193.208 272.994 199 337.766 199V200.018C273.005 200.018 241.683 205.809 236.245 218.797C233.387 225.647 237.9 234.818 250.04 246.849L249.321 247.571C237.17 235.54 227.898 231.072 220.99 233.912C207.914 239.296 202.024 270.29 202.024 334.425ZM177.806 232.059C179.403 232.052 180.986 232.36 182.462 232.965C193.77 237.586 199.824 260.071 201.551 304.764C203.268 260.071 209.343 237.586 220.63 232.965C226.377 230.604 233.511 232.864 242.3 239.856C235.248 231.143 232.966 224.08 235.34 218.4C240.059 207.234 262.674 201.208 307.904 199.488C262.756 197.788 240.059 191.763 235.381 180.587C233.007 174.907 235.289 167.843 242.351 159.131C233.552 166.123 226.407 168.373 220.671 166.032C209.364 161.4 203.309 138.916 201.593 94.2224C199.866 138.916 193.79 161.4 182.503 166.032C176.757 168.383 169.623 166.123 160.834 159.131C167.886 167.843 170.168 174.907 167.793 180.587C163.116 191.783 140.419 197.788 95.2813 199.488C140.419 201.188 163.126 207.214 167.793 218.39C170.168 224.069 167.886 231.133 160.834 239.846C167.351 234.655 172.985 232.059 177.806 232.059Z" fill="#FF00D6"/>
<path d="M202.024 318.271H200.996C200.996 262.605 195.702 234.512 184.333 229.851C178.268 227.367 170.137 231.286 159.467 241.861L158.737 241.139C169.407 230.573 173.375 222.512 170.867 216.517C166.159 205.259 137.787 200.017 81.5683 200.017V199C137.787 199 166.159 193.758 170.867 182.51C173.375 176.505 169.407 168.454 158.737 157.879L159.467 157.166C170.137 167.731 178.268 171.66 184.333 169.166C195.743 164.515 200.996 136.382 200.996 80.7561H202.024C202.024 136.412 207.308 164.515 218.677 169.166C224.742 171.66 232.873 167.731 243.543 157.166L244.273 157.879C233.603 168.454 229.635 176.505 232.143 182.51C236.851 193.758 265.223 199 321.442 199V200.017C265.223 200.017 236.851 205.259 232.143 216.517C229.635 222.512 233.603 230.573 244.273 241.139L243.543 241.861C232.873 231.286 224.742 227.357 218.677 229.851C207.349 234.512 202.024 262.595 202.024 318.271ZM180.612 228.11C182.022 228.102 183.42 228.372 184.724 228.904C194.561 232.975 199.907 252.315 201.51 290.637C203.104 252.284 208.449 232.935 218.287 228.904C223.262 226.868 229.43 228.751 236.995 234.655C231.033 227.164 229.131 221.056 231.198 216.12C235.309 206.389 254.841 201.086 293.543 199.509C254.8 197.931 235.268 192.628 231.198 182.897C229.142 177.961 231.033 171.864 236.995 164.362C229.43 170.276 223.262 172.159 218.287 170.113C208.449 166.042 203.104 146.703 201.51 108.381C199.907 146.733 194.561 166.082 184.724 170.113C179.748 172.149 173.581 170.276 166.015 164.362C171.977 171.864 173.879 177.961 171.813 182.897C167.701 192.628 148.17 197.931 109.467 199.509C148.211 201.086 167.742 206.389 171.813 216.12C173.868 221.056 171.977 227.164 166.015 234.655C171.658 230.278 176.5 228.11 180.653 228.11H180.612Z" fill="#FF00D6"/>
<path d="M202.024 302.108H200.996C200.996 254.055 196.432 229.84 186.605 225.769C181.393 223.642 174.393 227.031 165.193 236.131L164.463 235.418C173.663 226.308 177.086 219.377 174.927 214.216C170.877 204.527 146.381 199.967 97.8307 199.967V198.949C146.371 198.949 170.816 194.44 174.927 184.699C177.086 179.549 173.663 172.607 164.463 163.507L165.193 162.785C174.475 172.006 181.465 175.365 186.687 173.238C196.473 169.166 201.079 144.972 201.079 96.8992H202.107C202.107 144.962 206.66 169.166 216.447 173.238C221.658 175.375 228.659 171.986 237.859 162.876L238.589 163.599C229.388 172.698 225.965 179.64 228.124 184.79C232.174 194.491 256.67 199.04 305.221 199.04V200.058C256.681 200.058 232.236 204.577 228.124 214.308C225.965 219.469 229.388 226.4 238.589 235.51L237.859 236.222C228.659 227.113 221.648 223.733 216.447 225.861C206.619 229.8 202.024 254.055 202.024 302.108ZM183.521 224.151C184.752 224.143 185.971 224.378 187.109 224.843C195.486 228.283 200.112 244.528 201.582 276.651C203.042 244.528 207.668 228.283 216.046 224.843C220.271 223.112 225.482 224.629 231.845 229.474C226.942 223.174 225.41 218.023 227.158 213.84C230.632 205.534 247.049 200.954 279.481 199.509C247.049 198.063 230.632 193.483 227.158 185.187C225.41 180.994 226.942 175.844 231.845 169.543C225.482 174.398 220.271 175.905 216.046 174.174C207.668 170.734 203.042 154.489 201.582 122.366C200.112 154.489 195.486 170.734 187.109 174.174C182.884 175.905 177.672 174.398 171.309 169.543C176.212 175.844 177.744 180.994 175.996 185.187C172.522 193.483 156.105 198.063 123.673 199.509C156.105 200.954 172.522 205.534 175.996 213.84C177.744 218.023 176.212 223.174 171.309 229.474C175.955 225.952 179.995 224.151 183.521 224.151Z" fill="#FF00D6"/>
<path d="M202.024 286.005H200.996C200.996 245.546 197.162 225.138 188.959 221.769C184.6 219.977 178.731 222.787 171.001 230.482L170.281 229.759C178.001 222.115 180.879 216.303 179.07 211.987C175.678 203.845 155.057 200.068 114.206 200.068V199.051C155.057 199.051 175.678 195.264 179.07 187.131C180.879 182.816 178.042 177.004 170.281 169.36L171.001 168.637C178.731 176.291 184.6 179.131 188.949 177.35C197.172 173.981 200.996 153.573 200.996 113.114H202.024C202.024 153.573 205.848 173.981 214.062 177.35C218.42 179.131 224.29 176.332 232.01 168.637L232.74 169.36C225.009 177.004 222.131 182.816 223.94 187.131C227.343 195.274 247.953 199.051 288.804 199.051V200.068C247.953 200.068 227.343 203.855 223.94 211.987C222.131 216.303 224.968 222.166 232.74 229.759L232.01 230.482C224.279 222.838 218.41 219.988 214.062 221.769C205.889 225.087 202.024 245.495 202.024 286.005ZM186.296 220.242C187.354 220.23 188.403 220.431 189.38 220.832C196.319 223.682 200.215 236.894 201.541 262.89C202.857 236.894 206.753 223.682 213.692 220.832C217.187 219.397 221.442 220.568 226.613 224.395C222.748 219.306 221.576 215.051 223.015 211.601C225.893 204.72 239.236 200.862 265.49 199.559C239.236 198.257 225.893 194.399 223.015 187.518C221.576 184.068 222.748 179.854 226.613 174.724C221.473 178.551 217.187 179.722 213.692 178.286C206.753 175.447 202.857 162.235 201.541 136.229C200.215 162.235 196.319 175.447 189.38 178.286C185.896 179.722 181.63 178.551 176.459 174.724C180.324 179.813 181.496 184.068 180.057 187.518C177.179 194.399 163.836 198.257 137.582 199.559C163.836 200.862 177.179 204.72 180.057 211.601C181.496 215.051 180.324 219.275 176.459 224.395C180.221 221.565 183.521 220.191 186.338 220.191L186.296 220.242Z" fill="#FF00D6"/>
<path d="M202.024 269.791H200.996C200.996 236.945 197.912 220.374 191.262 217.657C187.756 216.222 183.038 218.532 176.778 224.721L176.048 223.998C182.298 217.809 184.631 213.117 183.182 209.646C180.427 203.081 163.702 200.017 130.52 200.017V199C163.702 199 180.427 195.946 183.182 189.371C184.631 185.9 182.298 181.228 176.048 175.019L176.778 174.296C183.028 180.485 187.756 182.795 191.262 181.36C197.912 178.643 200.996 162.072 200.996 129.257H202.024C202.024 162.103 205.108 178.673 211.749 181.391C215.244 182.836 219.972 180.515 226.233 174.327L226.962 175.05C220.712 181.238 218.379 185.93 219.828 189.401C222.583 195.966 239.308 199.03 272.491 199.03V200.048C239.308 200.048 222.583 203.102 219.828 209.677C218.379 213.148 220.712 217.82 226.962 224.029L226.233 224.751C219.993 218.563 215.254 216.252 211.749 217.687C205.108 220.374 202.024 236.945 202.024 269.791ZM189.144 216.232C190.005 216.227 190.858 216.393 191.652 216.72C197.183 218.98 200.349 229.22 201.51 249.292C202.672 229.26 205.828 219.021 211.358 216.72C214.113 215.58 217.444 216.425 221.453 219.265C218.585 215.285 217.742 211.987 218.883 209.26C221.175 203.794 231.516 200.659 251.777 199.509C231.547 198.358 221.206 195.223 218.883 189.758C217.742 187.03 218.585 183.732 221.453 179.752C217.444 182.602 214.103 183.437 211.358 182.307C205.828 180.037 202.672 169.798 201.51 149.736C200.349 169.767 197.183 180.007 191.652 182.307C188.908 183.427 185.567 182.602 181.558 179.752C184.426 183.732 185.269 187.03 184.127 189.758C181.845 195.223 171.494 198.358 151.233 199.509C171.453 200.659 181.804 203.794 184.127 209.26C185.269 211.987 184.426 215.285 181.558 219.265C184.456 217.239 186.975 216.232 189.185 216.232H189.144Z" fill="#FF00D6"/>
<path d="M202.024 253.638H200.996C200.996 228.395 198.632 215.672 193.574 213.596C190.922 212.507 187.314 214.278 182.544 219L181.815 218.288C186.595 213.555 188.383 209.982 187.283 207.366C185.227 202.348 172.337 200.018 146.844 200.018V199C172.337 199 185.186 196.669 187.283 191.651C188.383 189.035 186.595 185.462 181.815 180.729L182.544 180.017C187.314 184.74 190.922 186.511 193.574 185.432C198.632 183.396 200.996 170.632 200.996 145.379H202.024C202.024 170.632 204.378 183.355 209.436 185.432C212.088 186.511 215.696 184.74 220.466 180.017L221.196 180.729C216.416 185.462 214.627 189.035 215.727 191.651C217.783 196.669 230.673 199 256.167 199V200.018C230.673 200.018 217.824 202.348 215.727 207.366C214.627 209.982 216.416 213.555 221.196 218.288L220.466 219C215.696 214.278 212.078 212.507 209.436 213.596C204.419 215.672 202.024 228.395 202.024 253.638ZM191.991 212.272C192.668 212.268 193.339 212.396 193.965 212.649C198.077 214.339 200.523 221.708 201.51 235.978C202.487 221.728 204.923 214.339 209.045 212.649C211.101 211.814 213.517 212.344 216.405 214.267C214.462 211.397 213.938 208.995 214.781 206.98C216.488 202.908 223.92 200.486 238.342 199.509C223.951 198.491 216.488 196.129 214.781 192.048C213.938 190.012 214.462 187.62 216.405 184.76C213.506 186.674 211.081 187.203 209.045 186.368C204.933 184.679 202.487 177.319 201.51 163.039C200.482 177.289 198.087 184.679 193.965 186.368C191.909 187.203 189.493 186.674 186.605 184.76C188.548 187.62 189.072 190.032 188.229 192.048C186.523 196.119 179.091 198.531 164.668 199.509C179.06 200.526 186.523 202.898 188.229 206.98C189.072 209.015 188.548 211.397 186.605 214.267C188.175 213.085 190.064 212.391 192.032 212.272H191.991Z" fill="#FF00D6"/>
<path d="M202.024 237.474H200.996C200.996 219.835 199.372 211.01 195.856 209.524C194.068 208.791 191.59 210.023 188.291 213.29L187.561 212.578C190.871 209.3 192.104 206.847 191.364 205.076C189.925 201.626 180.951 199.987 163.137 199.987V198.969C180.951 198.969 189.925 197.361 191.364 193.88C192.115 192.109 190.871 189.656 187.561 186.388L188.291 185.666C191.59 188.933 194.068 190.165 195.856 189.432C199.352 187.997 200.996 179.121 200.996 161.482H202.024C202.024 179.121 203.648 187.997 207.164 189.432C208.953 190.165 211.43 188.933 214.73 185.666L215.46 186.388C212.16 189.656 210.916 192.109 211.656 193.88C213.095 197.33 222.069 198.969 239.884 198.969V199.987C222.069 199.987 213.095 201.595 211.656 205.076C210.916 206.847 212.16 209.3 215.46 212.578L214.73 213.29C211.43 210.023 208.953 208.791 207.164 209.524C203.689 210.959 202.024 219.845 202.024 237.474ZM194.829 208.303C195.326 208.304 195.818 208.401 196.278 208.588C199.053 209.728 200.729 214.186 201.51 222.95C202.281 214.186 203.957 209.718 206.732 208.588C208.079 208.038 209.641 208.293 211.471 209.371C210.381 207.56 210.125 206.013 210.68 204.689C211.821 201.941 216.333 200.272 225.184 199.509C216.333 198.745 211.821 197.076 210.68 194.328C210.125 193.004 210.381 191.457 211.471 189.646C209.641 190.724 208.079 190.979 206.732 190.429C203.957 189.289 202.281 184.831 201.51 176.067C200.729 184.831 199.053 189.3 196.278 190.429C194.942 190.979 193.369 190.724 191.549 189.646C192.577 191.457 192.896 193.004 192.341 194.328C191.19 197.076 186.677 198.745 177.836 199.509C186.677 200.272 191.2 201.941 192.341 204.689C192.896 206.013 192.629 207.56 191.549 209.371C192.525 208.729 193.658 208.36 194.829 208.303V208.303Z" fill="#FF00D6"/>
<path d="M202.024 221.321H200.996C200.996 217.677 200.996 206.613 198.19 205.463C197.265 205.086 195.887 205.799 194.078 207.58L193.359 206.857C195.157 205.076 195.877 203.712 195.486 202.786C194.335 200.017 183.151 200.017 179.481 200.017V199C183.151 199 194.335 199 195.486 196.231C195.877 195.315 195.157 193.941 193.359 192.16L194.078 191.437C195.877 193.218 197.265 193.941 198.19 193.554C200.996 192.404 200.996 181.34 200.996 177.696H202.024C202.024 181.34 202.024 192.404 204.82 193.554C205.745 193.941 207.123 193.218 208.932 191.437L209.652 192.16C207.853 193.941 207.133 195.315 207.524 196.231C208.675 199 219.859 199 223.529 199V200.017C219.859 200.017 208.675 200.017 207.524 202.786C207.133 203.712 207.853 205.076 209.652 206.857L208.932 207.58C207.123 205.799 205.745 205.086 204.82 205.463C202.024 206.613 202.024 217.677 202.024 221.321ZM197.655 204.343C197.973 204.343 198.287 204.405 198.581 204.527C200.03 205.117 200.976 207.163 201.51 211.041C202.034 207.163 202.98 205.117 204.43 204.527C204.794 204.387 205.184 204.326 205.574 204.347C205.964 204.368 206.344 204.471 206.691 204.649C206.514 204.303 206.411 203.924 206.39 203.537C206.369 203.15 206.429 202.762 206.568 202.399C207.164 200.974 209.24 200.028 213.157 199.509C209.24 198.989 207.164 198.053 206.568 196.618C206.429 196.255 206.369 195.868 206.39 195.48C206.411 195.093 206.514 194.714 206.691 194.368C206.345 194.547 205.964 194.65 205.574 194.671C205.184 194.692 204.794 194.631 204.43 194.491C202.98 193.9 202.034 191.854 201.51 187.976C200.976 191.854 200.03 193.9 198.581 194.491C198.216 194.63 197.826 194.691 197.437 194.67C197.047 194.649 196.666 194.546 196.319 194.368C196.496 194.714 196.599 195.093 196.62 195.48C196.642 195.868 196.581 196.255 196.442 196.618C195.846 198.053 193.77 198.989 189.853 199.509C193.77 200.028 195.846 200.974 196.442 202.399C196.581 202.762 196.642 203.15 196.62 203.537C196.599 203.924 196.496 204.303 196.319 204.649C196.751 204.451 197.221 204.347 197.697 204.343H197.655Z" fill="#FF00D6"/>
</svg>
