<svg width="299" height="300" viewBox="0 0 403 400" fill="none" xmlns="http://www.w3.org/2000/svg">
<path d="M325.924 333.438L324.875 332.297C337.523 318.035 343.241 317.725 360.219 316.796L362.952 316.65C364.888 316.536 366.72 316.454 368.449 316.373C387.391 315.46 394.484 315.118 398.384 294.597C402.891 271.011 402.108 228.714 398.576 205.52C395.932 188.014 385.13 178.365 373.694 168.145C365.42 160.762 356.864 153.117 351.708 142.229C340.375 118.301 354.087 79.6228 366.188 45.4754C371.685 29.9909 376.871 15.3539 378.895 4.1073L380.373 4.41699C378.319 15.8266 373.118 30.4962 367.592 46.0785C355.608 79.8836 342.015 118.204 353.052 141.479C358.061 152.058 366.498 159.604 374.654 166.89C385.795 176.833 397.32 187.134 400.069 205.243C403.615 228.584 404.398 271.158 399.862 294.89C395.71 316.65 387.761 317.041 368.537 317.97L363.055 318.247L360.322 318.394C343.744 319.323 338.173 319.633 325.924 333.438Z" fill="#800080"/>
<path d="M320.117 334.873L319.083 333.715C331.938 319.6 337.375 319.046 355.372 317.416L359.524 317.057C378.733 315.427 385.145 314.857 389.076 294.808C394.04 269.984 395.237 227.981 391.647 205.031C388.869 187.102 377.743 177.436 365.966 167.151C357.322 159.621 348.398 151.813 343.093 140.534C331.893 116.737 345.812 79.3457 358.076 46.3556C363.986 30.5125 369.527 15.5659 371.581 3.97693L373.059 4.28662C370.99 16.0711 365.39 31.0993 359.48 47.0075C347.319 79.6065 333.548 116.688 344.423 139.817C349.595 150.786 358.401 158.48 366.912 165.896C378.393 175.92 390.258 186.287 393.139 204.77C396.744 227.948 395.533 270.196 390.553 295.167C386.312 316.356 379.028 317.025 359.524 318.687L355.535 319.046C337.449 320.741 332.588 321.181 320.117 334.873Z" fill="#800080"/>
<path d="M316.674 338.328L315.581 337.22C327.017 323.349 331.76 322.11 348.088 319.551H348.575C369.439 316.291 373.797 315.59 378.038 295.591C383.845 268.355 389.312 228.062 385.677 204.167C382.855 185.57 370.901 175.48 358.179 164.788C348.9 156.98 339.311 148.912 333.711 137.225C322.392 113.558 337.05 77.6997 349.964 46.0624C356.377 30.3823 362.42 15.5824 364.636 3.89563L366.114 4.22162C363.868 16.0876 357.78 30.9691 351.338 46.7306C338.542 78.0256 324.033 113.558 335.085 136.459C340.522 147.869 349.979 155.79 359.125 163.5C371.492 173.899 384.244 184.689 387.199 203.906C390.878 228.03 385.367 268.583 379.545 295.966C375.112 317.057 370.03 317.84 348.841 321.165H348.354C332.056 323.708 327.8 324.816 316.674 338.328Z" fill="#800080"/>
<path d="M315.211 343.234L313.837 342.615C318.964 328.646 329.411 324.995 339.488 321.426C349.831 317.824 359.539 314.417 364.459 300.872C367.488 292.543 368.774 282.144 370 272.071C370.762 264.866 371.896 257.715 373.398 250.653C373.975 248.208 374.61 245.764 375.245 243.188C378.629 229.855 382.116 216.066 379.752 202.863C376.324 183.728 363.336 173.003 349.595 161.642C338.084 152.139 326.19 142.311 320.738 127.152C312.256 103.518 326.471 74.5865 340.212 46.6003C347.881 30.9854 355.136 16.218 357.766 3.48816L359.243 3.84675C356.554 16.8863 349.27 31.6537 341.512 47.3826C327.933 75.0918 313.896 103.632 322.112 126.549C327.401 141.219 339.133 150.998 350.481 160.338C363.779 171.373 377.669 182.799 381.2 202.537C383.638 216.131 380.092 230.116 376.679 243.628C376.043 246.138 375.408 248.616 374.832 251.061C373.342 258.046 372.222 265.121 371.478 272.25C370.222 282.405 368.936 292.918 365.833 301.426C360.647 315.688 350.127 319.356 339.946 322.942C329.766 326.527 320.073 329.967 315.211 343.234Z" fill="#800080"/>
<path d="M315.064 349.526L313.586 349.167C316.098 337.155 322.112 333.634 329.071 329.608C331.795 328.072 334.439 326.369 336.991 324.506C345.65 317.986 346.374 315.59 349.063 306.789C349.476 305.452 349.934 303.953 350.466 302.274C352.964 294.515 354.899 286.17 356.643 278.102C358.607 268.675 361.074 259.384 364.031 250.278C364.873 247.85 365.774 245.389 366.69 242.846C371.655 229.203 376.797 215.137 374.477 201.054C371.093 180.582 356.628 169.205 341.305 157.143C328.613 147.119 315.507 136.867 309.597 120.909C300.938 97.5523 316.526 70.3811 331.583 44.0737C340.035 29.2901 348.014 15.4029 351.057 3.21094L352.535 3.63472C349.432 16.1364 341.409 30.1703 332.898 45.0191C318.034 70.9679 302.652 97.7968 311.03 120.372C316.763 135.84 329.692 146.011 342.207 155.856C357.086 167.559 372.482 179.669 375.984 200.793C378.378 215.3 373.162 229.627 368.109 243.481C367.193 245.992 366.291 248.469 365.464 250.898C362.533 259.964 360.101 269.217 358.179 278.607C356.362 286.757 354.471 295.102 351.974 302.926C351.442 304.556 350.984 306.088 350.57 307.424C347.895 316.177 346.994 319.111 337.922 325.957C335.332 327.863 332.643 329.599 329.869 331.156C322.895 335.036 317.428 338.247 315.064 349.526Z" fill="#800080"/>
<path d="M315.876 356.698L314.399 356.567C315.138 345.956 320.457 336.209 325.584 326.788C329.603 319.421 333.77 311.793 335.765 303.741C338.336 293.472 343.995 280.758 349.994 267.311C360.337 243.954 372.157 217.484 369.394 198.854C366.114 176.931 349.196 164.201 332.839 151.878C318.861 141.349 304.396 130.477 298.013 113.819C289.147 90.5435 306.228 65.3445 322.806 40.9931C332.115 27.3178 340.907 14.4087 344.423 2.65674L345.827 3.17832C342.222 15.1747 333.371 28.1817 323.988 41.9711C307.661 65.9639 290.772 90.7717 299.372 113.183C305.593 129.483 319.866 140.143 333.667 150.542C350.289 163.044 367.473 175.985 370.857 198.576C373.724 217.728 361.814 244.443 351.309 268.012C345.398 281.394 339.725 294.091 337.198 304.164C335.129 312.428 330.933 320.154 326.855 327.619C321.58 337.35 316.586 346.478 315.876 356.698Z" fill="#800080"/>
<path d="M315.729 364.407C315.344 346.217 316.63 318.541 320.398 300.758C323.471 286.186 332.617 271.843 342.31 256.651C354.811 237.092 367.725 216.783 366.04 196.343C364.164 173.622 344.467 159.034 325.421 144.951C311.739 134.813 297.584 124.349 290.595 111.016C276.883 84.9365 295.634 61.5794 313.778 39.0372C323.501 26.9756 333.533 14.588 337.848 2.15149L339.222 2.72197C334.789 15.3704 324.683 27.9536 314.886 40.113C297.155 62.215 278.686 85.0832 291.866 110.201C298.692 123.24 312.079 133.02 326.234 143.598C345.576 157.893 365.567 172.693 367.518 196.197C369.246 217.174 356.17 237.679 343.507 257.532C333.918 272.576 324.845 286.871 321.831 301.051C318.093 318.72 316.822 346.217 317.206 364.309L315.729 364.407Z" fill="#800080"/>
<path d="M318.61 372.231H317.132C317.221 361.522 313.837 351.384 310.572 341.588C306.449 329.184 302.179 316.373 304.824 302.241C307.986 285.436 320.546 269.479 332.691 254.076C347.585 235.169 362.982 215.609 361.593 194.175C360.041 170.427 338.129 154.666 316.925 139.426C301.263 128.146 286.443 117.503 279.129 103.811C264.575 76.6074 284.729 56.1352 304.248 36.3314C315.019 25.3781 326.16 14.0663 331.332 1.7439L332.676 2.42848C327.328 15.028 316.083 26.4539 305.164 37.5212C285.231 57.7652 266.407 76.9008 280.355 102.964C287.507 116.329 302.164 126.875 317.694 138.04C339.193 153.508 361.415 169.482 363.011 194.045C364.489 216.163 348.856 235.967 333.755 255.119C321.742 270.376 309.301 286.088 306.228 302.551C303.672 316.226 307.705 328.255 311.916 341.001C315.271 350.944 318.699 361.212 318.61 372.231Z" fill="#800080"/>
<path d="M318.196 379.957C315.788 370.943 310.498 361.832 304.898 352.248C295.781 336.552 286.355 320.301 289.576 303.659C293.077 285.583 308.164 269.121 322.762 253.131C340.138 234.142 358.12 214.517 356.983 191.975C356.303 178.3 341.069 164.543 330.992 155.448L327.446 152.188C321.979 147.103 315.271 142.001 308.237 136.573C293.284 125.164 276.322 112.271 267.87 96.7211C252.474 68.4578 273.943 50.6098 294.688 33.365C306.509 23.5853 318.728 13.3655 324.742 1.18982L326.042 1.9722C319.881 14.4576 307.528 24.7915 295.575 34.6689C274.416 52.2561 254.439 68.8978 269.126 95.8898C277.43 111.13 294.245 123.941 309.021 135.237C316.157 140.681 322.895 145.815 328.406 150.933L331.938 154.193C342.281 163.467 357.751 177.485 358.534 191.894C359.701 215.169 341.483 235.055 323.87 254.288C309.434 270.033 294.511 286.333 291.098 303.936C287.995 319.926 297.259 335.883 306.213 351.303C311.857 361.082 317.206 370.243 319.674 379.468L318.196 379.957Z" fill="#800080"/>
<path d="M318.462 386.786C314.753 376.681 306.642 367.064 297.924 356.893C285.483 342.224 272.613 327.098 273.706 309.967C275.184 287.311 294.097 269.414 312.389 252.104C331.967 233.604 352.195 214.468 349.772 190.166C347.083 163.125 323.456 147.689 300.613 132.759C280.548 119.72 259.802 106.109 252.828 84.6268C245.972 63.4374 250.316 56.3146 267.811 44.0085C272.968 40.39 277.873 37.3909 282.587 34.4896C296.372 26.0628 308.282 18.7932 318.048 0.928955L319.304 1.76023C309.405 19.9993 297.333 27.383 283.355 35.9891C278.627 38.8741 273.736 41.8569 268.579 45.4591C251.572 57.4066 247.612 63.9427 254.188 84.1378C260.984 105.066 281.508 118.464 301.337 131.406C324.491 146.532 348.442 162.18 351.205 190.084C353.717 215.332 333.179 234.745 313.335 253.522C295.264 270.522 276.573 288.109 275.169 310.081C274.12 326.511 286.768 341.392 298.988 355.72C307.735 366.005 315.995 375.735 319.807 386.118L318.462 386.786Z" fill="#800080"/>
<path d="M317.413 392.491C309.124 373.682 301.012 366.151 289.797 355.72C286.236 352.46 282.188 348.662 277.77 344.18C269.894 336.209 259.507 324.099 260.157 311.108C261.354 287.392 282.454 269.169 302.859 251.566C324.372 233.033 346.713 213.702 344.305 188.454C341.616 160.452 316.659 144.446 292.516 128.961C271.372 115.416 249.518 101.399 242.278 79.2642C238.067 75.4827 235.747 71.3426 235.393 66.9744C235.009 62.2475 236.87 57.1947 241.052 51.9137L241.214 51.767L258.088 39.8032C263.703 36.5433 268.963 33.8375 274.061 31.3111C288.393 24.1557 300.79 17.9945 311.281 0.505127L312.522 1.4016C301.78 19.331 289.221 25.5411 274.667 32.7944C269.599 35.3208 264.324 37.9287 258.842 41.2049L242.101 53.0709C238.274 57.9608 236.516 62.5898 236.856 66.8277C237.181 70.7885 239.382 74.6025 243.372 78.1395L243.534 78.2699V78.4981C250.582 100.193 272.273 114.112 293.255 127.56C317.723 143.24 343.005 159.458 345.768 188.275C348.265 214.436 325.643 233.914 303.775 252.837C283.636 270.229 262.802 288.223 261.635 311.206C261.014 323.496 271.121 335.231 278.774 342.973C283.207 347.439 287.197 351.123 290.743 354.481C302.105 365.027 310.321 372.655 318.743 391.774L317.413 392.491Z" fill="#800080"/>
<path d="M314.65 396.615C305.208 376.909 295.796 369.101 282.793 358.327C278.508 354.774 273.662 350.765 268.417 345.94C261.649 339.73 247.553 326.772 248.233 311.955C249.356 287.506 272.037 269.055 294.038 251.24C317.088 232.528 340.936 213.164 338.483 187.264C335.75 158.577 309.789 142.148 284.67 126.256C262.654 112.336 239.885 97.9271 232.408 75.1893C228.079 71.4078 225.7 67.2678 225.33 62.8995C224.946 58.189 226.911 53.1198 231.152 47.8877L231.329 47.7084L248.913 36.6736C254.823 33.593 260.438 31.2785 265.816 29.0455C280.592 22.9332 293.284 17.6359 304.307 0.26062L305.519 1.18969C294.23 19.005 281.301 24.3676 266.348 30.5288C260.984 32.7455 255.444 35.0437 249.592 38.0754L232.172 49.0124C228.271 53.9022 226.468 58.4823 226.808 62.7039C227.133 66.6647 229.379 70.4788 233.487 74.0158L233.649 74.1461L233.723 74.3743C240.948 96.672 263.555 110.967 285.438 124.789C310.867 140.892 337.154 157.534 339.976 187.053C342.532 213.882 318.329 233.522 294.939 252.511C273.263 270.098 250.863 288.37 249.784 311.988C249.149 325.989 262.846 338.589 269.436 344.587C274.652 349.363 279.484 353.372 283.754 356.909C296.417 367.406 306.42 375.703 316.039 395.751L314.65 396.615Z" fill="#800080"/>
<path d="M309.715 398.799C299.978 378.409 289.28 370.177 275.731 359.681C270.928 355.981 265.476 351.775 259.64 346.641C251.395 339.453 237.609 327.44 238.333 312.314C239.545 287.376 263.142 268.876 285.955 250.979C309.877 232.235 334.612 212.839 332.056 186.547C329.234 157.469 302.682 140.811 276.986 124.707C254.424 110.559 231.108 95.9387 223.498 72.8097C219.169 69.012 216.775 64.8719 216.421 60.4873C216.022 55.7605 217.972 50.7077 222.213 45.4103L222.42 45.231L240.431 34.7505C246.681 31.8003 252.473 29.7302 258.088 27.7091C273.012 22.3466 285.911 17.7175 297.111 0L298.323 0.92907C286.842 19.0867 273.721 23.7483 258.546 29.2413C252.961 31.2461 247.199 33.3161 241.052 36.2011L223.217 46.5839C219.331 51.4737 217.529 56.0865 217.883 60.3244C218.223 64.3014 220.469 68.1155 224.577 71.6525L224.754 71.7992L224.828 72.0274C232.216 94.6999 255.325 109.223 277.725 123.273C303.731 139.572 330.623 156.459 333.519 186.352C336.178 213.605 311.074 233.278 286.812 252.3C264.279 269.968 241.007 288.158 239.811 312.396C239.131 326.658 252.533 338.361 260.497 345.337C266.304 350.406 271.49 354.399 276.514 358.279C290.226 368.841 301.056 377.17 310.971 397.919L309.715 398.799Z" fill="#800080"/>
<path d="M302.209 399.06C292.472 378.881 281.73 370.422 268.136 359.713C263.156 355.785 258.014 351.743 252.281 346.673C243.549 338.948 230.369 327.261 231.019 312.445C232.127 287.474 255.754 268.925 278.597 250.979C302.519 232.202 327.254 212.79 324.757 186.482C321.979 157.322 295.323 140.844 269.525 124.772C246.947 110.787 223.543 96.1179 215.918 73.0542C211.619 69.2564 209.254 65.1 208.885 60.6992C208.486 55.956 210.363 50.9195 214.574 45.5895L214.781 45.4102L232.881 34.9134C239.205 31.9632 245.071 29.8931 250.745 27.8883C265.742 22.6073 278.686 18.1086 289.812 0.179199L291.038 1.10827C279.617 19.4126 266.451 24.0742 251.144 29.4531C245.499 31.4416 239.678 33.4953 233.413 36.3966L215.49 46.7794C211.648 51.6693 209.89 56.2983 210.244 60.5525C210.584 64.5458 212.815 68.3762 216.894 71.9621L217.071 72.1088V72.3207C224.459 95.0096 247.686 109.435 270.145 123.371C296.269 139.572 323.264 156.328 326.116 186.336C328.702 213.572 303.613 233.278 279.351 252.332C256.788 270.033 233.457 288.354 232.393 312.542C231.773 326.527 244.613 337.888 253.079 345.418C258.768 350.471 263.895 354.514 268.86 358.458C282.616 369.281 293.476 377.838 303.376 398.359L302.209 399.06Z" fill="#800080"/>
<path d="M292.649 399.06C283.296 379.5 273.204 370.519 260.423 359.11C255.99 355.182 251.557 351.139 246.504 346.25C238.776 338.703 225.818 326.038 226.394 312.021C227.384 287.376 250.287 268.697 272.436 250.653C295.678 231.713 319.718 212.121 317.25 186.091C314.502 157.127 287.98 141.17 262.329 125.783C239.825 112.238 216.524 98.2368 208.915 75.3849C204.615 71.5871 202.236 67.4471 201.867 63.0462C201.468 58.3194 203.344 53.2665 207.555 47.9529L207.747 47.7736L225.877 36.8367C232.113 33.7561 237.949 31.523 243.608 29.3552C258.738 23.5689 271.8 18.565 282.912 0.717041L284.123 1.64611C272.746 19.9178 259.462 25.0033 244.096 30.9852C238.481 33.1367 232.674 35.3534 226.542 38.3688L208.589 49.2243C204.763 54.1141 202.989 58.7432 203.359 62.981C203.728 67.2189 205.93 70.7885 210.008 74.3907L210.171 74.5374L210.244 74.7655C217.632 97.161 240.712 111.048 263.053 124.495C289.029 140.126 315.906 156.312 318.728 186.124C321.284 213.067 296.904 232.936 273.322 252.153C251.454 269.984 228.832 288.419 227.887 312.281C227.355 325.598 239.958 337.937 247.494 345.304C252.474 350.194 256.995 354.187 261.369 358.099C274.268 369.639 284.478 378.734 293.979 398.555L292.649 399.06Z" fill="#800080"/>
<path d="M281.272 399.027C276.543 388.074 266.348 377.154 255.562 365.581C239.456 348.32 222.804 330.456 223.72 311.075C224.858 287.017 246.475 268.24 267.382 250.067C289.546 230.849 312.36 210.948 309.715 185.39C306.76 156.882 280.548 141.871 255.192 127.348C232.896 114.585 209.845 101.383 202.147 78.9546C197.862 75.2221 195.498 71.0983 195.114 66.73C194.715 62.0032 196.592 56.9504 200.832 51.5878L201.01 51.4085L219.184 39.7544C225.345 36.4945 231.167 33.9844 236.782 31.6047C252.075 25.0849 265.284 19.4779 276.351 1.36914L277.563 2.28191C266.245 20.8144 252.843 26.5192 237.314 33.1368C231.714 35.5165 225.936 38.0267 219.878 41.2866L201.867 52.8592C197.995 57.749 196.222 62.427 196.592 66.6811C196.931 70.6419 199.163 74.4234 203.226 77.9115L203.388 78.0582V78.2701C210.776 100.242 233.679 113.33 255.798 125.995C281.508 140.664 308.09 155.937 311.119 185.309C313.837 211.795 290.654 231.958 268.269 251.452C247.583 269.381 226.276 287.947 225.168 311.255C224.281 329.901 240.697 347.489 256.566 364.505C267.456 376.176 277.74 387.21 282.572 398.424L281.272 399.027Z" fill="#800080"/>
<path d="M268.491 398.962C264.752 388.253 256.67 377.056 247.982 365.206C234.817 347.13 221.208 328.451 222.627 309.885C224.385 286.887 244.111 268.012 263.186 249.757C284.788 229.089 305.194 209.579 302.224 184.559C298.914 156.687 273.115 142.914 248.159 129.581C226.128 117.812 203.359 105.637 195.572 83.7629C191.317 80.0955 188.953 76.0369 188.568 71.7013C188.14 66.9581 190.046 61.8238 194.346 56.445L194.508 56.2983L212.727 43.6825C218.844 40.1455 224.621 37.3746 230.221 34.7014C245.706 27.2852 259.064 20.8958 270.116 2.33069L271.357 3.22716C260.098 22.1997 246.534 28.6869 230.842 36.1847C225.272 38.8578 219.509 41.6124 213.495 45.1005L195.395 57.6511C191.465 62.6551 189.662 67.3493 190.046 71.6035C190.386 75.5153 192.617 79.2316 196.636 82.6708L196.813 82.8012L196.887 83.0131C204.379 104.431 226.971 116.492 248.795 128.163C274.135 141.756 300.273 155.66 303.686 184.38C306.76 210.23 285.099 230.947 264.161 250.995C245.307 269.023 225.744 287.686 224.104 310.016C222.73 327.945 236.146 346.364 249.134 364.195C257.837 376.143 266.053 387.438 269.82 398.424L268.491 398.962Z" fill="#800080"/>
<path d="M254.69 398.881C252.075 388.074 246.282 376.632 240.15 364.521C230.694 345.842 220.942 326.527 222.7 308.468C224.828 286.838 242.441 267.866 259.462 249.512C279.365 228.144 298.16 207.835 294.821 183.695C291.009 156.654 265.727 144.283 241.259 132.335C219.464 121.724 197.05 110.788 189.159 89.5982C184.919 86.0286 182.569 82.0515 182.17 77.7648C181.727 73.0053 183.648 67.8221 188.081 62.3455L188.228 62.2151L206.506 48.5235C212.549 44.6605 218.327 41.5636 223.882 38.5808C239.574 30.1377 253.124 22.8681 264.087 3.66736L265.328 4.54753C254.143 24.1069 240.416 31.5069 224.532 40.0478C218.992 43.0306 213.244 46.1112 207.289 49.8275L189.13 63.4375C185.111 68.523 183.219 73.2172 183.678 77.5366C184.032 81.3996 186.248 85.0506 190.253 88.3757L190.415 88.5061L190.489 88.718C198.084 109.484 220.321 120.355 241.835 130.852C266.658 142.995 292.324 155.53 296.254 183.451C299.771 208.438 279.823 229.92 260.541 250.702C243.697 268.844 226.291 287.604 224.207 308.663C222.479 326.218 232.142 345.288 241.48 363.739C247.657 375.947 253.508 387.487 256.167 398.473L254.69 398.881Z" fill="#800080"/>
<path d="M240.269 398.783C238.939 387.944 235.703 376.453 232.29 364.277C226.852 344.913 221.223 324.897 223.498 306.919C226.01 287.131 241.229 268.191 255.887 249.871C273.248 228.225 291.186 205.862 287.3 182.717C282.867 156.638 258.162 145.782 234.255 135.302C212.83 125.93 190.696 116.231 182.747 95.58C174.132 73.2171 183.338 65.4259 200.359 53.5599C206.27 49.4199 212.032 45.9807 217.573 42.6556C233.487 33.1041 247.213 24.8566 258.118 4.9386L259.389 5.78617C248.277 26.0301 234.373 34.408 218.282 44.0573C212.756 47.3172 207.053 50.8216 201.143 54.9291C182.968 67.5938 176.334 74.7655 184.106 94.928C191.878 115.09 213.658 124.528 234.787 133.77C259.078 144.413 284.197 155.415 288.748 182.407C292.767 206.319 274.578 228.991 256.995 250.865C242.456 269.023 227.443 287.783 224.961 307.082C222.73 324.702 228.3 344.571 233.694 363.739C237.136 375.964 240.387 387.52 241.732 398.506L240.269 398.783Z" fill="#800080"/>
<path d="M227.059 398.669H225.582C225.582 388.319 224.917 377.659 224.208 366.347C222.922 345.777 221.592 324.49 224.621 305.305C227.37 287.8 239.988 269.137 252.193 251.093C267.944 227.785 284.227 203.695 279.838 181.69C274.829 156.556 250.671 147.298 227.325 138.334C206.299 130.282 184.564 121.936 176.452 102.035C167.661 80.4868 177.487 71.6036 194.257 58.8737C200.167 54.4239 205.841 50.6261 211.353 46.9587C227.473 36.2337 241.407 26.9919 252.267 6.30786L253.537 7.12284C242.485 28.1655 228.419 37.5214 212.165 48.3442C206.669 52.0116 200.98 55.7931 195.144 60.2265C178.521 72.826 169.522 80.9595 177.841 101.366C185.687 120.632 207.127 128.847 227.842 136.801C251.587 145.913 276.144 155.318 281.331 181.348C285.867 204.069 269.362 228.47 253.419 252.071C241.318 270.001 228.803 288.468 226.114 305.583C223.158 324.571 224.444 345.761 225.729 366.249C226.394 377.561 227.059 388.27 227.059 398.669Z" fill="#800080"/>
<path d="M212.476 398.783L210.998 398.571C213.82 374.546 217.898 350.162 221.829 326.576C223.099 318.948 224.37 311.336 225.596 303.757C228.138 288.012 238.052 270.62 248.543 252.202C262.669 227.41 277.282 201.787 272.377 180.712C266.762 156.556 243.165 148.814 220.366 141.333C199.68 134.568 178.403 127.576 170.128 108.457C160.672 86.648 172.788 76.7216 188.125 64.1547C193.947 59.379 199.621 55.2552 205.117 51.2619C221.444 39.3795 235.541 29.1109 246.371 7.69336L247.657 8.47573C236.678 30.2355 222.42 40.602 205.945 52.5984C200.463 56.5918 194.804 60.7481 189.026 65.4424C172.108 79.2969 162.962 88.0987 171.473 107.723C179.466 126.191 200.478 133.085 220.794 139.752C244.007 147.364 268.077 155.236 273.825 180.288C278.878 202.032 264.102 227.981 249.814 253.049C239.397 271.337 229.556 288.598 227.059 304.034C225.833 311.613 224.562 319.241 223.291 326.853C219.361 350.39 215.298 374.839 212.476 398.783Z" fill="#800080"/>
<path d="M198.365 398.864L196.887 398.473C200.33 382.972 205.649 368.156 210.791 353.813C216.701 337.318 222.819 320.268 226.01 302.257C230.059 279.438 238.126 260.775 246.696 240.955C247.967 238.005 249.253 235.022 250.553 231.974C251.691 229.301 253.02 226.432 254.424 223.384C260.689 209.905 268.476 193.116 264.93 179.751C258.768 156.508 235.703 150.183 213.392 144.071C193.149 138.529 172.226 132.808 163.76 114.422C154.097 93.4612 166.39 82.6872 181.934 69.0608C187.697 64.008 193.356 59.5745 198.823 55.2715C215.342 42.2319 229.601 31.0668 240.417 8.94836L241.717 9.71444C230.738 32.1751 215.652 44.0411 199.68 56.608C194.228 60.8948 188.583 65.312 182.85 70.3485C167.823 83.5022 155.958 93.9012 165.119 113.689C173.275 131.406 193.873 137.046 213.791 142.49C236.501 148.716 259.994 155.138 266.392 179.294C270.101 193.279 262.166 210.377 255.783 224.134C254.38 227.149 253.05 230.018 251.927 232.675C250.627 235.723 249.341 238.706 248.07 241.656C239.205 262.226 231.566 280.009 227.562 302.583C224.326 320.725 218.179 337.855 212.239 354.416C207.082 368.694 201.734 383.461 198.365 398.864Z" fill="#800080"/>
<path d="M185.081 398.93L183.692 398.408C188.435 382.891 196.015 368.808 203.344 355.182C212.431 338.328 221.814 320.953 225.508 300.986C230.354 275.086 237.254 254.777 245.765 230.898C246.755 228.111 247.937 225.112 249.193 221.934C254.527 208.438 261.176 191.649 257.423 178.87C250.819 156.377 228.197 151.324 206.314 146.434C186.441 141.985 165.873 137.388 157.244 119.687C147.388 99.4756 160.095 87.691 174.812 74.0484L175.551 73.3801C181.269 68.0828 186.899 63.3559 192.336 58.7921C209.018 44.8071 223.365 32.7129 234.225 10.024L235.54 10.7738C224.592 33.805 209.358 46.6327 193.223 60.096C187.8 64.6436 182.185 69.3541 176.511 74.6189L175.772 75.3035C160.997 89.0276 149.25 99.8668 158.544 118.905C166.848 135.938 187.061 140.469 206.609 144.837C228.906 149.808 251.956 154.959 258.827 178.365C262.757 191.731 255.99 208.845 250.553 222.586C249.297 225.748 248.129 228.73 247.139 231.485C238.658 255.266 231.787 275.494 226.956 301.279C223.188 321.458 213.731 339.013 204.585 355.98C197.301 369.574 189.78 383.575 185.081 398.93Z" fill="#800080"/>
<path d="M173.024 398.979L171.665 398.375C177.427 382.435 186.943 368.613 196.134 355.247C207.673 338.475 219.612 321.149 223.631 299.959C228 276.332 233.614 253.006 240.446 230.1C241.333 227.149 242.411 223.955 243.564 220.581C248.115 207.15 253.789 190.427 249.947 178.202C243.047 156.214 220.779 152.123 199.236 148.325C179.644 144.805 159.342 141.153 150.595 123.974C140.577 104.414 153.683 91.7171 167.557 78.3353L169.035 76.9172C174.694 71.4243 180.309 66.4693 185.731 61.6935C201.837 47.4804 217.056 33.9844 227.857 10.9532L229.172 11.703C218.223 35.1254 202.886 48.6539 186.647 62.9649C181.24 67.7406 175.64 72.7446 170.01 78.1397L168.532 79.5577C154.555 93.07 142.483 104.74 151.91 123.191C160.332 139.687 180.235 143.272 199.488 146.728C221.459 150.689 244.17 154.78 251.351 177.697C255.37 190.492 249.592 207.509 244.967 221.184C243.815 224.542 242.736 227.704 241.865 230.654C235.046 253.499 229.446 276.766 225.094 300.334C220.942 321.833 208.959 339.322 197.301 356.225C188.169 369.509 178.713 383.25 173.024 398.979Z" fill="#800080"/>
<path d="M162.578 398.995L161.218 398.359C167.572 381.717 178.55 367.96 189.159 354.66C202.842 337.497 215.756 321.279 219.908 299.242L221.533 290.571C225.375 269.919 229.01 250.425 234.344 229.529C235.156 226.351 236.176 222.911 237.299 219.293C241.421 205.373 246.164 189.595 242.441 177.599C235.718 155.741 213.554 152.514 192.055 149.385C172.64 146.565 152.545 143.647 143.709 126.891C133.588 107.707 146.502 94.8628 160.169 81.2527L162.164 79.2642C167.794 73.6409 173.394 68.5228 178.802 63.5678C195.055 48.7842 210.289 34.7992 221.105 11.491L222.42 12.2407C211.456 35.8098 196.06 49.9414 179.747 64.8391C174.339 69.729 168.754 74.8796 163.154 80.4866L161.159 82.4752C147.95 95.6125 135.464 108.033 144.98 126.076C153.461 142.131 173.187 145 192.262 147.771C214.16 151.031 236.811 154.291 243.815 177.11C247.642 189.612 242.869 205.667 238.673 219.831C237.594 223.449 236.575 226.856 235.718 230.002C230.413 250.832 226.852 270.31 222.937 290.929L221.311 299.617C217.1 322.029 203.433 339.159 190.282 355.72C179.732 368.938 168.843 382.597 162.578 398.995Z" fill="#800080"/>
<path d="M154.082 398.978L152.722 398.375C159.12 380.642 170.956 366.836 182.422 353.47C196.562 336.959 209.934 321.377 213.938 299.063C214.667 295.042 215.376 291.049 216.066 287.083C219.553 267.523 222.848 248.893 227.281 229.399C228.064 225.96 229.113 222.194 230.236 218.185C234.063 204.412 238.407 188.846 234.831 177.436C227.946 155.481 205.959 152.693 184.712 149.988C165.429 147.526 145.497 145 136.558 128.26C126.377 109.157 139.675 95.7104 152.589 82.6872L154.953 80.3074C160.553 74.6026 166.153 69.3868 171.561 64.3502C187.815 49.2243 203.093 35.0112 213.953 11.7192L215.268 12.469C204.275 35.9892 188.849 50.3653 172.507 65.589C167.114 70.6255 161.529 75.8251 155.958 81.4973L153.594 83.8933C140.562 97.047 128.268 109.467 137.814 127.348C146.383 143.386 165.887 145.88 184.86 148.276C206.58 151.047 229.024 153.9 236.205 176.833C239.944 188.764 235.54 204.656 231.64 218.674C230.531 222.651 229.497 226.4 228.684 229.79C224.252 249.251 220.972 267.784 217.484 287.392C216.785 291.358 216.076 295.352 215.357 299.372C211.264 322.192 197.123 338.638 183.456 354.595C172.182 367.846 160.361 381.538 154.082 398.978Z" fill="#800080"/>
<path d="M147.226 397.234L145.852 396.631C152.264 378.702 164.247 364.913 175.832 351.596C190.002 335.296 203.388 319.91 207.452 297.531C208.826 289.919 210.156 282.225 211.426 274.793C213.983 259.96 216.613 244.623 219.834 229.399C220.573 225.862 221.607 221.999 222.686 217.908C226.232 204.509 230.236 189.351 226.749 178.17C220.011 156.54 198.483 153.215 177.664 149.988C158.81 147.07 139.247 144.055 130.47 127.543C120.334 108.587 133.026 95.6942 146.472 82.0352L148.541 79.8185C153.963 74.2767 159.371 69.1913 164.602 64.2688C180.575 49.2244 195.631 35.0276 206.55 12.0127L207.851 12.7788C196.887 36.1196 181.683 50.4795 165.607 65.5728C160.391 70.4626 154.998 75.5643 149.59 81.0899L147.477 83.2414C134.474 96.4277 122.21 108.88 131.755 126.712C140.222 142.539 159.371 145.505 177.871 148.374C199.133 151.634 221.105 155.073 228.108 177.632C231.743 189.302 227.665 204.738 224.06 218.38C222.981 222.472 221.962 226.318 221.223 229.79C218.016 244.981 215.312 260.286 212.83 275.103C211.559 282.551 210.244 290.245 208.855 297.922C204.703 320.741 190.548 337.041 176.851 352.786C165.415 365.923 153.535 379.582 147.226 397.234Z" fill="#800080"/>
<path d="M141.301 392.426L139.941 391.823C146.398 373.893 158.573 360.365 170.335 347.26C184.727 331.238 198.32 316.096 202.31 293.716C203.595 286.43 205.856 276.993 208.22 267.001C215.372 237.108 224.267 199.897 218.149 179.685C211.737 158.496 191.124 154.242 171.177 150.134C153.136 146.418 134.474 142.571 126.008 126.256C116.137 107.218 128.653 94.3737 141.892 80.7637L143.458 79.1337C148.644 73.7875 153.801 68.8814 158.751 64.1545C174.162 49.485 188.716 35.6304 199.251 13.0883L200.566 13.838C189.898 36.6573 175.241 50.6097 159.726 65.3933C154.761 70.1038 149.634 74.9937 144.477 80.3236L142.896 81.9535C129.598 95.6614 117.999 107.511 127.293 125.441C135.42 141.088 153.742 144.87 171.458 148.521C191.804 152.71 212.83 157.045 219.553 179.147C225.803 199.831 216.849 237.304 209.653 267.409C207.26 277.368 205.014 286.773 203.743 294.01C199.68 316.829 185.288 332.9 171.369 348.401C159.726 361.408 147.654 374.839 141.301 392.426Z" fill="#800080"/>
<path d="M136.144 385.124L134.785 384.488C141.567 366.95 153.727 353.519 165.474 340.48C180.885 323.479 195.439 307.408 198.631 282.991C199.606 275.591 201.586 265.926 203.654 255.706C208.811 230.36 215.239 198.821 210.762 180.728C205.767 160.566 185.244 154.274 165.4 148.13C150.506 143.549 135.11 138.823 126.569 128.195C112.237 110.364 121.619 97.4219 136.425 81.0572C142.483 74.3744 148.541 68.474 154.407 62.7529C168.621 48.9309 182.052 35.8588 191.996 14.6042L193.311 15.354C183.234 36.8856 169.67 50.0393 155.382 63.9754C149.546 69.6802 143.561 75.5643 137.459 82.2145C122.787 98.5139 114.172 110.315 127.677 127.12C135.922 137.388 151.112 142.05 165.799 146.565C186.042 152.775 206.979 159.197 212.18 180.256C216.76 198.739 210.289 230.491 205.088 256.016C203.019 266.203 201.054 275.836 200.093 283.187C196.828 308.125 181.432 325.142 166.523 341.588C154.865 354.562 142.808 367.879 136.144 385.124Z" fill="#800080"/>
<path d="M131.563 375.915L130.204 375.263C136.986 358.377 149.413 345.418 161.47 332.884C177.546 316.145 192.72 300.285 195.306 276.146C195.882 270.62 196.784 263.905 197.818 256.798C201.216 232.349 205.472 201.787 201.231 183.565C196.621 163.696 177.959 156.084 159.859 148.716C146.191 143.126 132.066 137.307 124.087 126.288C110.789 107.854 119.964 94.8792 133.307 79.8348C138.966 73.4454 144.596 67.8873 150.048 62.4922C163.213 49.4526 175.64 37.1465 184.697 16.7233L186.027 17.4404C176.881 38.1245 164.351 50.4795 151.082 63.682C145.645 69.0609 140.045 74.619 134.415 80.9595C121.59 95.4171 112.769 107.87 125.298 125.261C133.011 135.987 146.945 141.659 160.42 147.168C178.831 154.682 197.862 162.441 202.664 183.141C206.964 201.69 202.664 232.365 199.266 257.026C198.291 264.117 197.36 270.832 196.769 276.325C194.124 301.1 178.092 317.791 162.489 334.09C150.565 346.494 138.198 359.338 131.563 375.915Z" fill="#800080"/>
<path d="M127.367 365.385L126.052 364.684C133.277 348.238 145.778 335.932 157.879 324.033C173.113 309.054 187.43 294.89 191.863 273.342C195.72 254.353 195.513 206.514 190.208 187.183C184.904 167.852 168.902 159.246 153.402 150.917C139.572 143.468 125.328 135.774 118.309 120.567C111.291 105.36 119.979 91.6517 128.209 81.22C134.422 73.4963 141.08 66.2225 148.142 59.4439C159.401 48.2462 169.123 38.5643 177.516 18.9886L178.846 19.6732C170.335 39.5586 160.509 49.3383 149.132 60.6664C142.115 67.3902 135.501 74.6098 129.332 82.2795C121.412 92.3363 113.079 105.702 119.639 119.768C126.392 134.438 140.458 142.066 154.067 149.401C169.847 157.893 186.175 166.678 191.642 186.661C196.99 206.221 197.197 254.483 193.326 273.652C188.893 295.721 174.295 310.032 158.869 325.207C146.871 337.057 134.474 349.249 127.367 365.385Z" fill="#800080"/>
<path d="M123.422 354.122L122.107 353.356C131.859 333.243 140.739 323.496 156.948 309.25L161.647 305.159C177.25 291.63 187.549 282.698 189.647 260.531C191.346 242.601 185.85 208.584 181.417 190.133C176.733 170.721 163.198 160.974 148.91 150.64C138.272 142.963 127.278 135.041 120.437 122.816C109.016 102.442 120.216 88.7017 132.08 74.1626L132.967 73.0705C137.4 67.6265 141.389 63.2908 145.246 59.0041C155.131 48.1323 162.977 39.5425 170.365 21.5153L171.709 22.1835C164.203 40.5693 156.313 49.257 146.31 60.2428C142.468 64.4644 138.493 68.8326 134.105 74.2278L133.203 75.3361C121.22 90.0056 110.877 102.703 121.723 122.05C128.387 133.949 139.247 141.789 149.797 149.352C163.73 159.393 178.137 169.792 182.953 189.807C187.386 208.372 192.957 242.667 191.243 260.775C189.071 283.595 178.565 292.739 162.666 306.512L157.982 310.603C141.818 324.62 133.041 334.27 123.422 354.122Z" fill="#800080"/>
<path d="M119.506 342.68L118.221 341.881C128.327 322.061 137.03 313.031 153.963 299.046C155.87 297.416 157.79 295.933 159.667 294.434C174.088 282.845 186.544 272.853 187.017 252.381C187.283 241.2 182.097 226.302 177.531 213.05C175.078 205.976 172.773 199.31 171.384 193.605C166.833 174.942 155.589 163.761 143.665 151.944C134.504 142.848 125.033 133.444 119.063 120.371C108.203 96.6231 125.21 75.9228 141.64 55.9071C150.668 44.9212 159.194 34.5384 163.065 23.9275L164.439 24.5306C160.465 35.4186 151.865 45.8992 142.734 56.9991C126.628 76.5585 109.976 96.9002 120.378 119.638C126.215 132.433 135.597 141.74 144.655 150.721C156.209 162.131 168.148 174.046 172.729 193.181C174.103 198.805 176.393 205.438 178.831 212.464C183.456 225.797 188.687 240.922 188.421 252.43C187.933 273.619 175.196 283.92 160.465 295.754C158.588 297.253 156.682 298.769 154.776 300.35C138.094 314.189 129.495 323.121 119.506 342.68Z" fill="#800080"/>
<path d="M115.472 331.678L114.217 330.814C126.126 309.625 136.498 300.823 153.816 287.131C155.293 285.942 156.963 284.686 158.721 283.366C169.98 274.891 185.391 263.302 185.539 247.899C185.628 238.266 178.875 227.361 172.344 216.815C167.734 209.367 163.376 202.342 161.44 195.903C157.007 181.136 148.142 168.325 139.631 155.953C130.44 142.637 120.94 128.863 117.127 112.792C111.749 89.9729 123.762 74.4884 136.498 58.026C144.034 48.2463 151.836 38.1569 155.84 26.3235L157.229 26.894C153.136 38.9882 145.246 49.2079 137.621 59.0854C125.151 75.2219 113.374 90.4619 118.561 112.385C122.299 128.13 131.283 141.17 140.813 154.959C149.427 167.444 158.322 180.37 162.844 195.382C164.72 201.608 169.005 208.552 173.556 215.886C180.22 226.644 187.105 237.777 187.017 247.915C186.854 264.214 171.074 276.048 159.563 284.703C157.805 286.023 156.15 287.278 154.673 288.452C137.518 302.013 127.234 310.717 115.472 331.678Z" fill="#800080"/>
<path d="M111.173 321.556L109.828 320.888C114.026 310.489 120.097 301.14 127.671 293.409C135.245 285.679 144.166 279.728 153.89 275.917C171.783 268.941 181.225 255.478 181.964 235.87C180.131 227.899 174.103 223.27 167.72 218.348C161.337 213.425 154.998 208.568 151.747 200.043V199.783C150.808 182.878 145.029 166.738 135.243 153.688C124.827 139.261 117.23 122.612 112.931 104.789C111.143 85.6374 121.457 71.6362 131.43 58.0913C138.198 48.9473 145.157 39.5099 148.541 28.4915L150.018 29.0293C146.472 40.3249 139.454 49.8601 132.657 59.0856C122.417 72.989 112.739 86.1101 114.453 104.463C118.705 122.03 126.2 138.439 136.469 152.661C146.384 165.951 152.239 182.358 153.195 199.538C156.298 207.557 162.548 212.366 168.591 217.011C175.241 222.129 181.52 226.954 183.456 235.593V235.707V235.821C182.702 256.228 172.921 270.229 154.377 277.45C144.844 281.193 136.1 287.032 128.673 294.614C121.247 302.195 115.293 311.361 111.173 321.556V321.556Z" fill="#800080"/>
<path d="M106.356 313.146L105.026 312.445C114.187 291.141 129.273 276.39 149.856 268.583C167.971 262.193 177.546 249.023 178.329 229.464C175.758 221.477 169.227 219.456 162.312 217.305C155.072 215.055 146.871 212.496 142.453 202.635L142.364 202.309C141.893 185.2 137.303 168.537 129.066 154.03C120.285 138.158 114.099 120.708 110.789 102.475C109.577 84.1868 117.748 72.0274 126.407 59.1508C132.243 50.4632 138.227 41.4659 141.33 30.3496L142.808 30.8223C139.69 42.2319 133.573 51.3107 127.648 60.1614C119.167 72.7771 111.143 84.7084 112.311 102.279C115.582 120.269 121.678 137.49 130.322 153.166C138.679 167.855 143.345 184.731 143.842 202.065C147.994 211.209 155.471 213.474 162.711 215.772C169.951 218.071 176.984 220.222 179.777 229.122V229.268V229.431C179.008 249.789 169.094 263.481 150.299 270.18C130.145 277.776 115.354 292.25 106.356 313.146Z" fill="#800080"/>
<path d="M100.859 306.903L99.5591 306.153C110.153 283.855 126.747 268.566 148.851 260.743C168.34 254.011 175.979 241.183 172.212 221.624C164.49 217.118 155.521 215.956 147.063 218.364H146.945H146.827C141.818 217.973 138.227 216.31 136.144 213.393C134.06 210.475 133.573 206.791 134.297 201.983C133.135 189.28 130.411 176.811 126.2 164.918C118.742 146.459 112.697 127.344 108.129 107.772C105.528 86.5828 112.99 73.8855 120.895 60.4059C125.86 51.9464 131.002 43.1773 134.031 31.7677L135.509 32.2241C132.406 43.8619 127.219 52.7288 122.21 61.3024C114.453 74.5212 107.139 87.0066 109.651 107.462C114.197 126.923 120.212 145.929 127.633 164.282C131.915 176.362 134.683 189.029 135.863 201.934V202.065C135.183 206.514 135.701 209.97 137.341 212.35C138.981 214.729 142.335 216.327 146.856 216.702C155.759 214.241 165.175 215.568 173.231 220.418L173.527 220.597V220.956C177.605 241.395 169.419 255.299 149.235 262.291C127.574 269.985 111.276 284.996 100.859 306.903Z" fill="#800080"/>
<path d="M94.5354 303.398L93.2351 302.649C103.888 280.286 120.6 265.16 142.926 257.793C162.548 251.273 170.291 238.494 166.567 218.82C157.895 214.992 148.237 214.888 139.498 218.527H139.276C133.928 218.723 130.115 217.419 127.914 214.632C125.712 211.844 125.21 208.112 125.978 203.091C124.675 190.281 122.235 177.643 118.694 165.358C112.378 146.141 107.181 126.498 103.135 106.55C100.948 85.9146 107.671 73.5107 114.778 60.3896C119.211 52.1257 123.865 43.6011 126.717 32.4197L128.195 32.8598C125.239 44.2694 120.6 52.8755 116.093 61.2208C109.104 74.0974 102.514 86.2731 104.642 106.289C108.679 126.146 113.851 145.7 120.127 164.837C123.714 177.27 126.189 190.061 127.515 203.026V203.254C126.791 207.867 127.323 211.404 129.081 213.556C130.839 215.707 134.356 217.06 139.173 216.816C148.35 213.029 158.485 213.215 167.542 217.337L167.912 217.5L168 217.924C172.049 238.527 163.789 252.414 143.414 259.211C121.412 266.627 104.997 281.443 94.5354 303.398Z" fill="#800080"/>
<path d="M87.4873 303.023L86.187 302.274C96.7812 280.009 113.404 264.997 135.582 257.662C154.998 251.142 162.799 238.298 159.386 218.641C150.532 214.883 140.728 214.883 131.874 218.641H131.652C126.288 218.886 122.447 217.614 120.201 214.843C117.955 212.072 117.393 208.323 118.103 203.287C116.541 190.508 114.146 177.871 110.936 165.472C105.41 146.174 100.593 126.353 96.7517 106.55C94.6683 86.0285 101.184 73.1845 108.04 59.5745C112.148 51.4247 116.389 43.112 119.211 32.5173L120.688 32.99C117.733 43.7477 113.537 52.1908 109.4 60.3731C102.632 73.7387 96.2493 86.3545 98.2588 106.289C102.13 125.946 106.888 145.733 112.414 164.967C115.65 177.489 118.065 190.252 119.639 203.157V203.385C118.974 208.014 119.551 211.534 121.353 213.719C123.156 215.903 126.687 217.19 131.534 216.978C140.835 213.079 151.127 213.184 160.361 217.272L160.731 217.435L160.819 217.859C164.543 238.461 156.224 252.365 136.07 259.194C114.217 266.431 97.8894 281.182 87.4873 303.023Z" fill="#800080"/>
<path d="M81.6361 304.425L80.321 303.676C85.0652 293.191 91.7092 283.891 99.842 276.352C107.975 268.813 117.424 263.195 127.604 259.846C146.177 253.082 153.668 240.482 150.506 221.314C142.124 216.834 132.571 215.788 123.555 218.364H123.452H123.422C118.236 218.169 114.556 216.587 112.266 213.686C109.976 210.785 109.429 207.166 110.02 202.13C108.232 189.677 106.016 177.11 103.46 164.804C98.909 145.929 94.89 126.614 91.5211 107.43C89.7037 87.3652 95.5401 73.201 101.702 58.0262C105.378 49.5518 108.446 40.772 110.877 31.7677L112.355 32.2078C109.916 41.2943 106.823 50.1514 103.105 58.6944C97.0177 73.5759 91.2847 87.6423 93.043 107.185C96.3971 126.272 100.431 145.554 104.952 164.413C107.538 176.817 109.754 189.465 111.557 201.999V202.228C111.01 206.759 111.646 210.263 113.448 212.627C115.251 214.99 118.738 216.539 123.422 216.734C132.833 214.088 142.791 215.244 151.496 219.994L151.836 220.173V220.581C155.293 240.629 147.285 254.353 128.017 261.33C118.023 264.627 108.749 270.153 100.771 277.566C92.7928 284.979 86.2799 294.121 81.6361 304.425V304.425Z" fill="#800080"/>
<path d="M77.1295 307.049L75.7997 306.348C79.9565 296.301 85.9767 287.327 93.4719 280.005C100.967 272.683 109.771 267.176 119.314 263.839C136.735 256.733 143.62 244.28 140.37 225.764C132.693 220.147 123.509 217.588 114.335 218.51H114.143C104.553 216.685 100.224 210.687 101.273 200.728C92.319 180.5 89.7037 141.479 87.9749 115.628C87.8271 113.265 87.6646 111.015 87.5169 108.913C86.1575 89.3535 90.6198 73.054 95.3333 55.7766C97.5348 47.7083 99.766 39.3793 101.495 30.5939L102.972 30.9199C101.273 39.7705 98.9976 48.1484 96.7813 56.2492C92.0974 73.3963 87.6794 89.5817 89.024 108.782C89.1717 110.885 89.3195 113.134 89.482 115.514C91.2256 141.332 93.8409 180.337 102.78 200.271L102.869 200.483V200.728C101.835 209.921 105.617 215.218 114.409 217.027C123.985 216.089 133.563 218.811 141.537 224.737L141.803 224.916V225.242C145.32 244.59 137.932 258.135 119.861 265.534C110.504 268.776 101.867 274.145 94.5064 281.296C87.1462 288.446 81.2266 297.219 77.1295 307.049V307.049Z" fill="#800080"/>
<path d="M73.7014 310.635L72.3273 310.016C75.6672 300.534 80.8473 291.974 87.5042 284.934C94.1612 277.895 102.134 272.548 110.862 269.267C126.806 261.639 132.864 249.301 129.317 231.583C122.421 224.558 113.705 220.09 104.391 218.804H104.243C95.274 215.251 91.2255 208.47 92.2007 198.658C85.6993 180.517 85.3447 152.188 85.0492 129.402C84.9606 122.719 84.8867 116.362 84.665 110.82C83.8376 90.2176 86.4233 69.7455 88.9205 49.9579C89.7922 43.0632 90.6936 35.9404 91.4471 28.8827L92.9247 29.0783C92.1711 36.136 91.2698 43.2751 90.398 50.2676C87.96 69.8759 85.3152 90.2828 86.1426 110.788C86.3643 116.378 86.4381 122.702 86.5268 129.418C86.8223 152.139 87.1769 180.419 93.6339 198.283V198.479V198.674C92.6735 207.851 96.264 213.931 104.627 217.272C114.29 218.618 123.322 223.289 130.44 230.621L130.618 230.801V231.045C134.4 249.512 127.899 262.911 111.321 270.848C102.802 274.058 95.0215 279.282 88.5236 286.154C82.0257 293.027 76.9671 301.382 73.7014 310.635V310.635Z" fill="#800080"/>
<path d="M71.0714 314.906L69.5939 314.449C71.5947 306.097 75.3792 298.395 80.6309 291.986C85.8826 285.577 92.4489 280.649 99.7808 277.613C113.256 270.588 119.713 258.77 118.989 242.552C116.98 232.104 109.621 227.019 101.835 221.624C93.7227 216.017 85.3301 210.214 82.3306 197.778C77.9865 179.848 79.5675 157.322 81.1042 135.546C81.843 125.196 82.5818 115.417 82.5818 106.615C82.5818 94.162 82.168 81.5462 81.7691 69.3542C81.311 55.4344 80.8382 41.042 80.986 26.8289H82.4636C82.3158 41.0094 82.7886 55.3855 83.2467 69.2075C83.6456 81.4321 84.0593 94.0479 84.0593 106.533C84.0593 115.4 83.3501 125.212 82.5818 135.595C81.1042 157.225 79.4788 179.604 83.749 197.272C86.6008 209.073 94.757 214.713 102.618 220.092C110.478 225.471 118.31 230.947 120.452 242.194C121.28 259.276 114.542 271.533 100.431 278.965C93.2857 281.925 86.8894 286.734 81.7802 292.988C76.671 299.243 72.9984 306.759 71.0714 314.906Z" fill="#800080"/>
<path d="M68.9436 319.649L67.4661 319.355C70.1257 303.235 78.2228 291.549 91.5506 284.654C103.105 277.091 108.203 265.665 106.607 250.751C104.864 239.015 97.7416 231.86 90.2503 224.297C82.4635 216.441 74.4107 208.323 72.5194 194.599C70.2144 178.3 73.4798 160.925 76.6566 144.071C78.8286 132.498 81.0893 120.534 81.3996 109.304C81.8724 92.206 78.6365 75.4828 75.4893 59.3137C73.0608 47.8452 71.2354 36.2315 70.0223 24.5306L71.4998 24.3839C72.7009 36.0199 74.5165 47.5687 76.9373 58.9714C80.0846 75.2709 83.3352 92.0593 82.8476 109.353C82.5226 120.763 80.2619 132.759 78.0751 144.413C74.9278 161.104 71.6772 178.349 73.9526 194.322C75.8144 207.492 83.6751 215.414 91.2846 223.074C98.6725 230.507 106.267 238.184 108.099 250.507C109.769 266.17 104.435 278.118 92.2746 286.072C86.1339 289.043 80.7744 293.68 76.6951 299.551C72.6158 305.422 69.9493 312.336 68.9436 319.649V319.649Z" fill="#800080"/>
<path d="M66.9932 324.799L65.5895 324.294C68.3674 314.726 74.1299 306.56 79.7152 298.671C88.2703 286.545 96.3527 275.086 94.092 259.276C92.2893 246.611 85.3891 237.076 78.7104 227.85C71.1748 217.435 63.3879 206.661 62.59 191.29C61.7922 175.92 66.7863 161.56 71.6033 147.657C75.5779 136.247 79.6856 124.365 80.4687 112.124C81.7247 93.2165 75.2676 74.6351 69.0175 56.7872C65.0871 45.4917 61.009 33.8049 58.9257 22.1671L60.4032 21.8574C62.4571 33.2671 66.5056 44.9701 70.4212 56.2004C76.7305 74.2765 83.2466 92.972 81.9611 112.254C81.1336 124.723 76.9964 136.703 72.9774 148.244C68.2196 161.984 63.2845 176.213 64.1119 191.193C64.9394 206.172 72.5341 216.62 79.922 226.823C86.7189 236.212 93.7521 245.926 95.6139 259.015C97.978 275.542 89.3194 287.8 80.9415 299.666C75.3711 307.457 69.6972 315.509 66.9932 324.799Z" fill="#800080"/>
<path d="M65.0576 329.673L63.58 329.396C65.1315 319.877 69.0323 311.874 72.7853 304.148C77.5579 294.368 82.0645 285.11 81.9907 273.179C81.902 257.809 74.7948 244.704 67.9241 232.023C60.6988 218.706 53.2222 204.933 53.695 188.373C54.1088 173.508 60.2998 161.3 66.2692 149.482C71.027 140.045 75.9621 130.314 77.9421 119.263C81.8577 97.7479 71.7067 76.0533 61.9399 55.1085C56.5024 43.4543 50.8729 31.409 47.9473 19.7875L49.4248 19.3474C52.2913 30.757 57.6402 42.2482 63.2993 54.375C73.1991 75.5643 83.4534 97.4708 79.464 119.573C77.4249 130.868 72.4307 140.762 67.6434 150.248C61.4819 162.441 55.675 173.948 55.2613 188.406C54.8032 204.477 62.1616 218.054 69.2835 231.175C76.2576 244.036 83.4682 257.336 83.5569 273.147C83.6308 285.485 78.8286 295.346 74.1743 304.898C70.3917 312.542 66.5647 320.415 65.0576 329.673Z" fill="#800080"/>
<path d="M61.3637 334.286C60.7136 324.376 63.1811 315.607 65.56 307.131C67.8207 299.079 70.1553 290.831 69.8302 281.459C69.2835 265.91 62.9743 251.322 56.8719 237.206C49.8238 220.907 42.5394 204.069 44.2386 185.765C45.6423 170.672 53.3996 160.061 60.9057 149.792C67.0524 141.382 73.4207 132.694 76.2577 121.545C81.769 99.9157 67.9389 75.9065 54.5816 52.5657C47.4449 40.1292 40.6924 28.3936 37.2496 17.5381L38.6386 17.0002C42.037 27.6764 48.7304 39.3468 55.8228 51.7018C69.3722 75.2872 83.3648 99.6712 77.6761 121.985C74.721 133.395 68.2935 142.278 62.0582 150.819C54.3452 161.365 47.0607 171.324 45.7014 185.928C44.0465 203.857 50.932 219.684 58.2165 236.456C64.3779 250.718 70.7611 265.453 71.3078 281.345C71.6329 290.929 69.2687 299.389 66.9637 307.555C64.5257 316.291 62.2059 324.522 62.8413 334.123L61.3637 334.286Z" fill="#800080"/>
<path d="M58.4086 338.442C57.7436 329.66 57.6153 320.838 58.0244 312.037C58.5328 302.159 58.2757 292.251 57.2561 282.421C55.6455 270.033 50.9025 256.814 45.8787 242.813C38.4909 222.357 30.9404 201.217 33.6149 182.261C35.7869 166.792 45.5537 157.925 54.9954 149.352C61.8218 143.158 68.8846 136.752 73.0071 127.886C82.9955 106.435 63.6097 76.5585 46.588 50.2837C38.1806 37.4397 30.3346 25.3618 26.7885 15.5496L28.1626 14.9628C31.6201 24.5795 39.4365 36.6085 47.7109 49.3384C65.0577 76.0369 84.7242 106.387 74.3073 128.635C70.0371 137.796 62.8709 144.299 55.9263 150.607C46.2629 159.376 37.1463 167.656 35.0481 182.505C32.4476 201.038 39.9684 221.966 47.2381 242.21C52.2914 256.309 57.0788 269.609 58.7041 282.193C59.7349 292.114 59.9969 302.115 59.4872 312.086C59.0776 320.811 59.206 329.557 59.8714 338.263L58.4086 338.442Z" fill="#800080"/>
<path d="M54.6111 341.735C53.7394 331.336 51.8924 320.79 50.1046 310.603C48.8043 303.186 47.4449 295.526 46.4845 287.946C45.0069 275.934 40.5742 262.242 36.1414 247.736C28.7535 224.216 21.0406 199.897 24.6311 180.093C27.5863 163.989 38.5499 156.361 49.1884 148.977C56.8718 143.647 64.8064 138.154 69.6824 129.418C79.3162 112.336 69.2244 97.7153 59.4724 83.5673C58.0982 81.5625 56.7241 79.5903 55.4386 77.618C51.5821 71.7665 47.8734 66.4692 44.2829 61.3186C33.8512 46.4534 24.838 33.6095 17.0659 13.8708L18.4253 13.2351C26.1235 32.7945 35.0776 45.5407 45.4502 60.3243C49.0407 65.4586 52.7642 70.7723 56.6354 76.6238C57.9209 78.5634 59.2803 80.5356 60.6544 82.5242C70.2439 96.4276 81.1041 112.189 70.9975 130.233C65.9442 139.214 57.8618 144.821 50.0454 150.232C39.1852 157.763 28.9309 164.902 26.1383 180.305C22.6364 199.668 30.2311 223.775 37.5895 247.133C42.1847 261.721 46.4549 275.477 48.0655 287.653C49.0259 295.183 50.3705 302.844 51.6708 310.228C53.6553 320.569 55.1643 331.014 56.1922 341.523L54.6111 341.735Z" fill="#800080"/>
<path d="M49.6464 343.951C49.1884 334.286 46.2628 325.533 43.1599 316.242C40.5741 308.484 37.8849 300.448 36.762 291.793C35.2844 280.155 31.3097 266.382 27.1134 251.794C19.7255 225.878 11.983 199.098 16.0759 178.626C19.4448 161.837 31.3097 155.236 42.7757 148.847C51.124 144.201 59.7531 139.409 65.1462 130.705C75.6075 113.754 64.2449 98.2857 54.2121 84.6594C52.5868 82.4589 51.0649 80.3726 49.6316 78.3026C45.3171 72.0762 41.1651 66.5017 37.1609 61.1066C25.9756 46.0948 16.3271 33.1367 7.99353 12.8602L9.33813 12.1919C17.583 32.2565 27.1873 45.1494 38.2986 60.0798C42.3176 65.4749 46.4844 71.0656 50.7989 77.3083C52.2765 79.362 53.7541 81.4321 55.3499 83.6325C65.6929 97.7152 77.5135 113.672 66.3578 131.618C60.7578 140.681 51.9662 145.571 43.4554 150.297C31.7678 156.817 20.7303 162.929 17.5239 178.984C13.5049 199.016 21.144 225.585 28.5171 251.289C32.7282 265.958 36.7028 279.797 38.2248 291.565C39.3182 300.057 41.9778 308.011 44.5488 315.704C47.5039 324.669 50.6512 333.944 51.124 343.854L49.6464 343.951Z" fill="#800080"/>
<path d="M44.7263 344.831H43.2487C43.2487 338.198 41.2835 334.318 39.1558 330.162C38.0349 328.067 37.0475 325.888 36.2006 323.642C32.3442 312.917 30.2164 307.017 28.3695 293.667C26.8032 282.388 23.1536 268.909 19.2824 254.63C12.2196 228.551 4.22587 199.212 8.28921 178.023C11.6876 160.452 24.0106 154.535 35.9347 148.814C44.6671 144.625 53.6656 140.306 59.3395 131.422C70.111 114.504 58.2609 98.8235 47.7996 84.9201C46.1595 82.7359 44.5933 80.6822 43.16 78.6448C38.5352 72.125 34.0729 66.3387 29.7732 60.7153C18.2924 45.8502 8.39264 33.0062 0 12.3548L1.34459 11.6865C9.64857 32.1261 19.4892 44.8885 30.8961 59.6559C35.2107 65.2629 39.6729 71.0655 44.3273 77.5853C45.8049 79.5901 47.2825 81.6439 48.9373 83.8117C59.1917 97.4218 71.958 114.357 60.5511 132.286C54.6408 141.544 45.4503 145.978 36.5257 150.216C24.4096 156.035 12.9731 161.511 9.73723 178.267C5.74777 198.951 13.6971 228.209 20.7009 254.027C24.5869 268.354 28.2513 281.883 29.8323 293.276C31.6645 306.446 33.6296 311.939 37.5748 322.892C38.419 325.093 39.4066 327.223 40.5299 329.265C42.6724 333.683 44.7706 337.758 44.7263 344.831Z" fill="#800080"/>
</svg>
