<svg width="403" height="400" viewBox="0 0 403 400" fill="none" xmlns="http://www.w3.org/2000/svg">
<path d="M202.024 399.06H200.996C200.996 304.084 192.29 258.169 172.789 250.168C162.458 245.924 148.663 252.56 130.643 270.424L129.913 269.701C147.954 251.838 154.646 238.147 150.369 227.969C142.29 208.63 95.8878 200.039 0 200.039V199.021C95.9083 199.021 142.29 190.41 150.369 171.091C154.646 160.862 147.954 147.202 129.913 129.359L130.643 128.636C148.684 146.51 162.51 153.136 172.789 148.892C192.32 140.891 200.996 94.9455 200.996 0H202.024C202.024 94.976 210.721 140.891 230.221 148.892C240.501 153.136 254.347 146.51 272.367 128.636L273.087 129.359C255.046 147.222 248.354 160.913 252.631 171.091C260.71 190.43 307.112 199.021 403 199.021V200.039C307.092 200.039 260.71 208.65 252.631 227.969C248.354 238.147 255.046 251.858 273.087 269.701L272.367 270.424C254.316 252.56 240.501 245.934 230.221 250.168C210.762 258.169 202.024 304.084 202.024 399.06ZM166.426 247.919C168.757 247.903 171.067 248.35 173.221 249.232C190.419 256.275 199.393 291.585 201.551 362.326C203.7 291.585 212.684 256.275 229.872 249.232C238.691 245.608 249.783 249.456 263.609 260.968C251.983 247.278 248.108 236.285 251.757 227.562C258.881 210.533 294.54 201.637 365.973 199.489C294.53 197.362 258.881 188.466 251.757 171.447C248.108 162.714 251.983 151.721 263.609 138.031C249.783 149.543 238.691 153.391 229.872 149.777C212.684 142.724 203.7 107.414 201.551 36.6733C199.393 107.414 190.419 142.724 173.221 149.777C164.401 153.391 153.309 149.543 139.483 138.031C151.11 151.721 154.985 162.714 151.336 171.447C144.212 188.466 108.562 197.362 37.1195 199.489C108.562 201.617 144.212 210.513 151.336 227.541C154.985 236.264 151.11 247.257 139.483 260.947C149.969 252.235 158.85 247.919 166.426 247.919Z" fill="#FF0000"/>
<path d="M202.024 382.906H200.996C200.996 295.636 193.009 253.445 175.092 246.107C165.614 242.219 152.96 248.305 136.389 264.713L135.659 263.99C152.23 247.583 158.377 235.043 154.45 225.658C147.029 207.927 104.42 200.018 16.2931 200.018V199C104.42 199 147.029 191.092 154.45 173.361C158.377 163.976 152.23 151.436 135.659 135.028L136.389 134.316C152.96 150.713 165.624 156.8 175.092 152.912C193.05 145.543 200.996 103.383 200.996 16.1226H202.024C202.024 103.383 210.001 145.573 227.918 152.912C237.396 156.8 250.061 150.713 266.621 134.316L267.351 135.028C250.78 151.436 244.633 163.976 248.56 173.361C255.982 191.092 298.59 199 386.717 199V200.018C298.59 200.018 255.982 207.927 248.56 225.658C244.633 235.043 250.78 247.583 267.351 263.99L266.621 264.713C250.091 248.346 237.437 242.239 227.96 246.107C210.042 253.435 202.024 295.636 202.024 382.906ZM169.232 243.959C171.379 243.945 173.507 244.353 175.493 245.16C191.2 251.603 199.454 283.666 201.51 347.811C203.566 283.686 211.79 251.603 227.518 245.16C235.566 241.862 245.661 245.303 258.212 255.664C247.748 243.226 244.284 233.272 247.614 225.271C254.162 209.718 286.543 201.525 351.325 199.489C286.563 197.453 254.162 189.31 247.655 173.727C244.325 165.768 247.789 155.772 258.253 143.344C245.702 153.696 235.638 157.126 227.559 153.838C211.851 147.395 203.597 115.333 201.551 51.1876C199.495 115.312 191.272 147.395 175.534 153.838C167.485 157.136 157.39 153.696 144.839 143.344C155.304 155.772 158.768 165.737 155.437 173.727C148.93 189.31 116.55 197.453 51.7679 199.489C116.529 201.525 148.93 209.668 155.437 225.251C158.768 233.211 155.304 243.206 144.839 255.644C154.327 247.827 162.417 243.959 169.274 243.959H169.232Z" fill="#FF0000"/>
<path d="M202.024 366.743H200.996C200.996 287.188 193.718 248.733 177.353 242.036C168.739 238.504 157.205 244.071 142.105 258.993L141.375 258.281C156.476 243.328 162.078 231.918 158.501 223.379C151.747 207.225 112.9 200.019 32.5657 200.019V199.001C112.9 199.001 151.747 191.794 158.501 175.651C162.078 167.112 156.445 155.691 141.375 140.749L142.105 140.026C157.195 154.969 168.729 160.516 177.353 156.984C193.667 150.286 200.996 111.832 200.996 32.2764H202.024C202.024 111.832 209.292 150.286 225.606 156.984C234.23 160.516 245.764 154.948 260.854 140.026L261.584 140.749C246.483 155.691 240.881 167.112 244.458 175.651C251.212 191.794 290.058 199.001 370.393 199.001V200.019C290.058 200.019 251.212 207.225 244.458 223.379C240.881 231.908 246.514 243.328 261.584 258.281L260.854 258.993C245.764 244.051 234.23 238.504 225.606 242.036C209.333 248.733 202.024 287.188 202.024 366.743ZM172.121 239.99C174.082 239.982 176.024 240.359 177.836 241.099C192.074 246.932 199.598 275.778 201.551 333.378C203.494 275.778 211.019 246.932 225.256 241.099C232.524 238.117 241.621 241.15 252.918 250.372C243.605 239.176 240.583 230.178 243.554 222.982C249.444 208.894 278.566 201.434 336.748 199.51C278.566 197.586 249.444 190.125 243.554 176.038C240.542 168.842 243.605 159.824 252.918 148.648C241.611 157.869 232.524 160.862 225.256 157.92C211.019 152.088 203.494 123.252 201.551 65.6416C199.598 123.252 192.074 152.088 177.836 157.92C170.569 160.903 161.471 157.92 150.174 148.648C159.487 159.844 162.51 168.842 159.549 176.038C153.649 190.125 124.527 197.586 66.334 199.489C124.506 201.413 153.628 208.874 159.529 222.961C162.53 230.157 159.467 239.176 150.154 250.352C158.675 243.43 165.943 239.99 172.121 239.99Z" fill="#FF0000"/>
<path d="M202.024 350.59H200.996C200.996 278.74 194.428 244.01 179.718 237.974C171.946 234.789 161.543 239.796 147.923 253.242L147.203 252.52C160.824 239.033 165.881 228.743 162.623 221.048C156.527 206.472 121.453 199.978 48.8999 199.978V198.96C121.453 198.96 156.527 192.466 162.623 177.891C165.85 170.196 160.793 159.905 147.203 146.418L147.923 145.696C161.543 159.182 171.946 164.19 179.718 160.964C194.428 154.928 200.996 120.249 200.996 48.3584H202.024C202.024 120.199 208.583 154.928 223.293 160.964C231.064 164.149 241.467 159.142 255.087 145.696L255.817 146.418C242.197 159.905 237.139 170.196 240.398 177.891C246.494 192.466 281.567 198.96 354.121 198.96V199.978C281.567 199.978 246.494 206.472 240.398 221.048C237.18 228.743 242.238 239.033 255.817 252.52L255.087 253.242C241.467 239.756 231.064 234.748 223.293 237.974C208.624 244.01 202.024 278.74 202.024 350.59ZM174.958 236.03C176.74 236.024 178.505 236.37 180.149 237.048C192.906 242.28 199.681 267.92 201.551 319.036C203.381 267.92 210.186 242.28 222.943 237.048C229.44 234.381 237.561 237.048 247.614 245.12C239.442 235.186 236.769 227.145 239.462 220.691C244.746 208.06 270.64 201.352 322.275 199.5C270.64 197.688 244.746 190.939 239.462 178.318C236.769 171.875 239.462 163.844 247.614 153.89C237.581 162.032 229.471 164.628 222.943 161.961C210.186 156.729 203.412 131.09 201.551 79.973C199.711 131.09 192.906 156.729 180.149 161.961C173.653 164.628 165.532 161.961 155.478 153.89C163.651 163.834 166.323 171.865 163.63 178.318C158.346 190.939 132.452 197.657 80.8179 199.5C132.452 201.322 158.346 208.06 163.63 220.691C166.323 227.124 163.63 235.165 155.478 245.12C163.024 239.043 169.469 236.03 174.958 236.03Z" fill="#FF0000"/>
<path d="M202.024 334.426H200.996C200.996 270.301 195.147 239.297 182.02 233.913C175.112 231.073 165.84 235.541 153.7 247.572L152.97 246.85C165.11 234.819 169.623 225.648 166.765 218.798C161.369 205.81 130.067 200.018 65.3062 200.018V199C130.067 199 161.379 193.209 166.817 180.221C169.675 173.371 165.162 164.2 153.022 152.169L153.752 151.446C165.892 163.477 175.164 167.946 182.072 165.106C195.188 159.732 200.996 128.728 200.996 64.5928H202.024C202.024 128.718 207.873 159.732 220.99 165.106C227.908 167.946 237.17 163.477 249.321 151.446L250.04 152.169C237.9 164.2 233.387 173.371 236.245 180.221C241.683 193.209 272.994 199 337.766 199V200.018C273.005 200.018 241.683 205.81 236.245 218.798C233.387 225.648 237.9 234.819 250.04 246.85L249.321 247.572C237.17 235.541 227.898 231.073 220.99 233.913C207.915 239.297 202.024 270.291 202.024 334.426ZM177.806 232.06C179.403 232.053 180.986 232.361 182.462 232.966C193.77 237.587 199.825 260.072 201.551 304.766C203.268 260.072 209.343 237.587 220.63 232.966C226.377 230.605 233.511 232.864 242.3 239.857C235.248 231.144 232.966 224.08 235.34 218.401C240.059 207.235 262.674 201.209 307.904 199.489C262.756 197.789 240.059 191.763 235.382 180.587C233.007 174.908 235.289 167.844 242.351 159.131C233.552 166.124 226.407 168.373 220.671 166.032C209.364 161.401 203.309 138.916 201.593 94.2225C199.866 138.916 193.79 161.401 182.503 166.032C176.757 168.383 169.623 166.124 160.834 159.131C167.886 167.844 170.168 174.908 167.793 180.587C163.116 191.784 140.419 197.789 95.2814 199.489C140.419 201.189 163.126 207.215 167.793 218.391C170.168 224.07 167.886 231.134 160.834 239.847C167.351 234.656 172.985 232.06 177.806 232.06Z" fill="#FF0000"/>
<path d="M202.024 318.273H200.996C200.996 262.606 195.702 234.513 184.333 229.852C178.268 227.368 170.137 231.287 159.467 241.862L158.737 241.14C169.407 230.574 173.375 222.513 170.867 216.518C166.159 205.26 137.787 200.018 81.5684 200.018V199C137.787 199 166.159 193.759 170.867 182.511C173.375 176.506 169.407 168.455 158.737 157.879L159.467 157.167C170.137 167.732 178.268 171.661 184.333 169.167C195.743 164.516 200.996 136.382 200.996 80.7563H202.024C202.024 136.413 207.308 164.516 218.677 169.167C224.742 171.661 232.873 167.732 243.543 157.167L244.273 157.879C233.603 168.455 229.635 176.506 232.143 182.511C236.851 193.759 265.223 199 321.442 199V200.018C265.223 200.018 236.851 205.26 232.143 216.518C229.635 222.513 233.603 230.574 244.273 241.14L243.543 241.862C232.873 231.287 224.742 227.358 218.677 229.852C207.349 234.513 202.024 262.596 202.024 318.273ZM180.612 228.111C182.022 228.103 183.42 228.373 184.724 228.905C194.561 232.976 199.907 252.316 201.51 290.638C203.104 252.285 208.449 232.936 218.287 228.905C223.262 226.869 229.43 228.752 236.995 234.656C231.033 227.165 229.131 221.057 231.198 216.121C235.31 206.39 254.841 201.087 293.543 199.509C254.8 197.932 235.268 192.629 231.198 182.898C229.142 177.961 231.033 171.864 236.995 164.363C229.43 170.277 223.262 172.16 218.287 170.114C208.449 166.042 203.104 146.703 201.51 108.381C199.907 146.734 194.561 166.083 184.724 170.114C179.748 172.149 173.581 170.277 166.015 164.363C171.977 171.864 173.879 177.961 171.813 182.898C167.701 192.629 148.17 197.932 109.467 199.509C148.211 201.087 167.742 206.39 171.813 216.121C173.869 221.057 171.977 227.165 166.015 234.656C171.658 230.279 176.5 228.111 180.653 228.111H180.612Z" fill="#FF0000"/>
<path d="M202.024 302.11H200.996C200.996 254.057 196.432 229.842 186.605 225.77C181.393 223.643 174.393 227.033 165.193 236.132L164.463 235.42C173.663 226.31 177.086 219.378 174.927 214.218C170.877 204.528 146.381 199.968 97.8307 199.968V198.95C146.371 198.95 170.816 194.441 174.927 184.7C177.086 179.55 173.663 172.608 164.463 163.508L165.193 162.786C174.475 172.007 181.465 175.366 186.687 173.239C196.473 169.168 201.079 144.973 201.079 96.8999H202.107C202.107 144.963 206.66 169.168 216.447 173.239C221.658 175.376 228.659 171.987 237.859 162.877L238.589 163.6C229.389 172.7 225.965 179.641 228.124 184.792C232.174 194.492 256.671 199.042 305.221 199.042V200.059C256.681 200.059 232.236 204.579 228.124 214.309C225.965 219.47 229.389 226.402 238.589 235.511L237.859 236.224C228.659 227.114 221.648 223.735 216.447 225.862C206.619 229.801 202.024 254.057 202.024 302.11ZM183.521 224.152C184.752 224.144 185.971 224.38 187.109 224.844C195.487 228.285 200.112 244.53 201.582 276.653C203.042 244.53 207.668 228.285 216.046 224.844C220.271 223.114 225.482 224.63 231.845 229.475C226.942 223.175 225.41 218.025 227.158 213.841C230.632 205.536 247.049 200.955 279.481 199.51C247.049 198.064 230.632 193.484 227.158 185.189C225.41 180.995 226.942 175.845 231.845 169.544C225.482 174.399 220.271 175.906 216.046 174.175C207.668 170.735 203.042 154.49 201.582 122.367C200.112 154.49 195.487 170.735 187.109 174.175C182.884 175.906 177.672 174.399 171.309 169.544C176.212 175.845 177.744 180.995 175.996 185.189C172.522 193.484 156.106 198.064 123.674 199.51C156.106 200.955 172.522 205.536 175.996 213.841C177.744 218.025 176.212 223.175 171.309 229.475C175.955 225.954 179.995 224.152 183.521 224.152Z" fill="#FF0000"/>
<path d="M202.024 286.007H200.996C200.996 245.547 197.162 225.139 188.959 221.77C184.6 219.979 178.731 222.788 171.001 230.483L170.281 229.76C178.001 222.116 180.879 216.304 179.07 211.989C175.678 203.846 155.057 200.07 114.206 200.07V199.052C155.057 199.052 175.678 195.265 179.07 187.133C180.879 182.817 178.042 177.005 170.281 169.361L171.001 168.638C178.731 176.292 184.6 179.132 188.949 177.351C197.172 173.982 200.996 153.574 200.996 113.114H202.024C202.024 153.574 205.848 173.982 214.062 177.351C218.42 179.132 224.29 176.333 232.01 168.638L232.74 169.361C225.009 177.005 222.131 182.817 223.94 187.133C227.343 195.275 247.953 199.052 288.804 199.052V200.07C247.953 200.07 227.343 203.856 223.94 211.989C222.131 216.304 224.968 222.167 232.74 229.76L232.01 230.483C224.279 222.839 218.41 219.989 214.062 221.77C205.889 225.088 202.024 245.496 202.024 286.007ZM186.297 220.243C187.354 220.231 188.403 220.432 189.38 220.834C196.319 223.684 200.215 236.896 201.541 262.892C202.857 236.896 206.753 223.684 213.692 220.834C217.187 219.399 221.442 220.569 226.613 224.396C222.748 219.307 221.576 215.052 223.015 211.602C225.893 204.721 239.236 200.863 265.49 199.561C239.236 198.258 225.893 194.4 223.015 187.519C221.576 184.069 222.748 179.855 226.613 174.725C221.473 178.552 217.187 179.723 213.692 178.287C206.753 175.448 202.857 162.236 201.541 136.23C200.215 162.236 196.319 175.448 189.38 178.287C185.896 179.723 181.63 178.552 176.459 174.725C180.324 179.814 181.496 184.069 180.057 187.519C177.179 194.4 163.836 198.258 137.582 199.561C163.836 200.863 177.179 204.721 180.057 211.602C181.496 215.052 180.324 219.276 176.459 224.396C180.221 221.567 183.521 220.193 186.338 220.193L186.297 220.243Z" fill="#FF0000"/>
<path d="M202.024 269.792H200.996C200.996 236.946 197.912 220.376 191.261 217.658C187.756 216.223 183.038 218.533 176.778 224.722L176.048 223.999C182.298 217.811 184.631 213.118 183.182 209.647C180.427 203.082 163.702 200.019 130.52 200.019V199.001C163.702 199.001 180.427 195.947 183.182 189.372C184.631 185.901 182.298 181.229 176.048 175.02L176.778 174.297C183.028 180.486 187.756 182.796 191.261 181.361C197.912 178.644 200.996 162.073 200.996 129.257H202.024C202.024 162.103 205.108 178.674 211.749 181.392C215.244 182.837 219.972 180.516 226.233 174.328L226.962 175.051C220.712 181.239 218.379 185.931 219.828 189.402C222.583 195.967 239.308 199.031 272.491 199.031V200.049C239.308 200.049 222.583 203.103 219.828 209.678C218.379 213.149 220.712 217.821 226.962 224.03L226.233 224.752C219.993 218.564 215.254 216.253 211.749 217.689C205.108 220.376 202.024 236.946 202.024 269.792ZM189.144 216.233C190.005 216.228 190.858 216.394 191.652 216.722C197.182 218.981 200.349 229.221 201.51 249.293C202.672 229.262 205.828 219.022 211.358 216.722C214.113 215.582 217.443 216.426 221.453 219.266C218.585 215.286 217.742 211.989 218.883 209.261C221.175 203.795 231.516 200.66 251.777 199.51C231.547 198.359 221.206 195.224 218.883 189.759C217.742 187.031 218.585 183.733 221.453 179.753C217.443 182.603 214.103 183.438 211.358 182.308C205.828 180.038 202.672 169.798 201.51 149.737C200.349 169.768 197.182 180.008 191.652 182.308C188.907 183.428 185.567 182.603 181.558 179.753C184.426 183.733 185.268 187.031 184.127 189.759C181.845 195.224 171.494 198.359 151.233 199.51C171.453 200.66 181.804 203.795 184.127 209.261C185.268 211.989 184.426 215.286 181.558 219.266C184.456 217.241 186.975 216.233 189.185 216.233H189.144Z" fill="#FF0000"/>
<path d="M202.024 253.639H200.996C200.996 228.396 198.632 215.673 193.574 213.596C190.922 212.507 187.314 214.278 182.544 219.001L181.815 218.289C186.595 213.556 188.383 209.983 187.283 207.367C185.227 202.349 172.337 200.018 146.844 200.018V199C172.337 199 185.186 196.67 187.283 191.652C188.383 189.036 186.595 185.463 181.815 180.73L182.544 180.017C187.314 184.74 190.922 186.511 193.574 185.432C198.632 183.397 200.996 170.633 200.996 145.38H202.024C202.024 170.633 204.378 183.356 209.436 185.432C212.088 186.511 215.696 184.74 220.466 180.017L221.196 180.73C216.416 185.463 214.627 189.036 215.727 191.652C217.783 196.67 230.673 199 256.167 199V200.018C230.673 200.018 217.824 202.349 215.727 207.367C214.627 209.983 216.416 213.556 221.196 218.289L220.466 219.001C215.696 214.278 212.078 212.507 209.436 213.596C204.419 215.673 202.024 228.396 202.024 253.639ZM191.991 212.273C192.668 212.269 193.339 212.397 193.965 212.65C198.077 214.34 200.523 221.709 201.51 235.979C202.487 221.729 204.923 214.34 209.045 212.65C211.101 211.815 213.517 212.345 216.405 214.268C214.462 211.398 213.938 208.996 214.781 206.98C216.488 202.909 223.92 200.487 238.342 199.509C223.95 198.492 216.488 196.13 214.781 192.049C213.938 190.013 214.462 187.621 216.405 184.761C213.506 186.674 211.08 187.204 209.045 186.369C204.933 184.679 202.487 177.32 201.51 163.04C200.482 177.29 198.087 184.679 193.965 186.369C191.909 187.204 189.493 186.674 186.605 184.761C188.548 187.621 189.072 190.033 188.229 192.049C186.523 196.12 179.09 198.532 164.668 199.509C179.06 200.527 186.523 202.899 188.229 206.98C189.072 209.016 188.548 211.398 186.605 214.268C188.175 213.086 190.064 212.392 192.032 212.273H191.991Z" fill="#FF0000"/>
<path d="M202.024 237.475H200.996C200.996 219.836 199.372 211.011 195.856 209.525C194.068 208.792 191.59 210.024 188.291 213.291L187.561 212.579C190.871 209.301 192.104 206.848 191.364 205.077C189.925 201.627 180.951 199.988 163.137 199.988V198.97C180.951 198.97 189.925 197.362 191.364 193.881C192.115 192.11 190.871 189.657 187.561 186.389L188.291 185.667C191.59 188.934 194.068 190.166 195.856 189.433C199.352 187.998 200.996 179.122 200.996 161.482H202.024C202.024 179.122 203.648 187.998 207.164 189.433C208.953 190.166 211.43 188.934 214.73 185.667L215.46 186.389C212.16 189.657 210.916 192.11 211.656 193.881C213.095 197.331 222.069 198.97 239.884 198.97V199.988C222.069 199.988 213.095 201.596 211.656 205.077C210.916 206.848 212.16 209.301 215.46 212.579L214.73 213.291C211.43 210.024 208.953 208.792 207.164 209.525C203.689 210.96 202.024 219.846 202.024 237.475ZM194.828 208.304C195.326 208.305 195.818 208.402 196.278 208.589C199.053 209.729 200.729 214.187 201.51 222.951C202.281 214.187 203.957 209.719 206.732 208.589C208.079 208.039 209.641 208.294 211.471 209.372C210.381 207.561 210.124 206.014 210.68 204.69C211.821 201.942 216.333 200.273 225.184 199.509C216.333 198.746 211.821 197.077 210.68 194.329C210.124 193.005 210.381 191.458 211.471 189.646C209.641 190.725 208.079 190.98 206.732 190.43C203.957 189.29 202.281 184.832 201.51 176.068C200.729 184.832 199.053 189.3 196.278 190.43C194.942 190.98 193.369 190.725 191.549 189.646C192.577 191.458 192.896 193.005 192.341 194.329C191.19 197.077 186.677 198.746 177.836 199.509C186.677 200.273 191.2 201.942 192.341 204.69C192.896 206.014 192.629 207.561 191.549 209.372C192.525 208.73 193.658 208.361 194.828 208.304V208.304Z" fill="#FF0000"/>
<path d="M202.024 221.322H200.996C200.996 217.678 200.996 206.614 198.19 205.464C197.265 205.087 195.887 205.8 194.078 207.581L193.359 206.858C195.158 205.077 195.877 203.713 195.486 202.787C194.335 200.018 183.151 200.018 179.481 200.018V199C183.151 199 194.335 199 195.486 196.232C195.877 195.316 195.158 193.942 193.359 192.16L194.078 191.438C195.877 193.219 197.265 193.942 198.19 193.555C200.996 192.405 200.996 181.341 200.996 177.697H202.024C202.024 181.341 202.024 192.405 204.82 193.555C205.745 193.942 207.123 193.219 208.932 191.438L209.652 192.16C207.853 193.942 207.133 195.316 207.524 196.232C208.675 199 219.859 199 223.529 199V200.018C219.859 200.018 208.675 200.018 207.524 202.787C207.133 203.713 207.853 205.077 209.652 206.858L208.932 207.581C207.123 205.8 205.745 205.087 204.82 205.464C202.024 206.614 202.024 217.678 202.024 221.322ZM197.655 204.344C197.973 204.344 198.288 204.406 198.581 204.527C200.03 205.118 200.976 207.164 201.51 211.042C202.035 207.164 202.98 205.118 204.43 204.527C204.794 204.388 205.184 204.327 205.574 204.348C205.964 204.369 206.345 204.472 206.691 204.65C206.514 204.304 206.411 203.925 206.39 203.538C206.369 203.15 206.429 202.763 206.568 202.4C207.164 200.975 209.241 200.029 213.157 199.509C209.241 198.99 207.164 198.054 206.568 196.619C206.429 196.256 206.369 195.868 206.39 195.481C206.411 195.094 206.514 194.715 206.691 194.369C206.345 194.548 205.964 194.651 205.574 194.672C205.184 194.693 204.794 194.632 204.43 194.491C202.98 193.901 202.035 191.855 201.51 187.977C200.976 191.855 200.03 193.901 198.581 194.491C198.216 194.631 197.827 194.692 197.437 194.671C197.047 194.65 196.666 194.547 196.319 194.369C196.497 194.715 196.599 195.094 196.62 195.481C196.642 195.868 196.581 196.256 196.442 196.619C195.846 198.054 193.77 198.99 189.853 199.509C193.77 200.029 195.846 200.975 196.442 202.4C196.581 202.763 196.642 203.15 196.62 203.538C196.599 203.925 196.497 204.304 196.319 204.65C196.751 204.452 197.221 204.348 197.697 204.344H197.655Z" fill="#FF0000"/>
</svg>
