<svg width="1201" height="641" viewBox="0 0 1201 641" fill="none" xmlns="http://www.w3.org/2000/svg">
<rect width="1200.23" height="638.821" transform="matrix(1 -0.000982835 0.00114019 0.999999 0 2.11682)" fill="#F1DD95"/>
<path d="M381.42 614.301C361.083 614.301 343.652 610.445 330.23 602.772C306.581 589.37 293.972 564.567 292.665 529.025C292.433 521.884 296.093 507.913 300.771 490.233C313.176 443.162 331.944 372.022 292.636 359.447C276.686 354.361 243.247 362.311 211.115 370.021C178.983 377.732 148.798 384.892 135.579 379.403C133.381 378.412 131.601 377.095 130.395 375.568C129.19 374.042 128.596 372.351 128.665 370.646C127.387 355.261 126.66 302.278 171.372 267.011C187.961 253.977 210.534 245.22 232.44 236.793C250.452 229.872 269.075 222.712 284.327 213.166C326.191 186.968 360.299 151.04 388.131 119.353C393.622 113.111 399.287 105.217 405.272 96.8823C427.7 65.6726 455.59 26.6974 505.764 27.4501C557.331 28.2395 603.873 49.664 648.904 70.3724C676.678 83.2235 705.382 96.3682 734.696 104.391C745.231 107.108 756.117 109.245 767.234 110.78C791.231 114.451 811.946 117.683 823.247 138.318C832.921 156.089 834.432 173.878 835.914 191.08C837.976 215.075 839.923 237.766 862.061 260.843C875.309 274.704 898.057 287.224 922.17 300.479C959.938 321.224 998.868 342.704 1001.11 370.517C1002.47 387.499 1020.13 399.891 1037.22 412.026C1056.71 425.795 1076.87 440.023 1071.64 460.713C1063.45 493.097 985.678 524.858 934.198 545.878C922.577 550.651 912.466 554.764 904.361 558.362C896.255 561.96 886.726 566.715 876.761 571.654C834.519 592.619 781.935 618.725 736.933 612.281C710.204 608.463 688.183 595.612 666.888 583.183C641.612 568.496 617.731 554.488 588.011 556.141C557.709 557.83 527.901 570.314 496.351 583.513C462.882 597.521 428.281 612.006 390.949 614.025C387.637 614.227 384.47 614.301 381.42 614.301ZM279.737 356.032C284.596 355.939 289.422 356.568 293.827 357.868C335.052 371.049 316.081 442.997 303.502 490.582C298.998 508.115 295.454 522.012 295.454 528.988C296.732 563.998 309.051 588.36 332.031 601.395C346.964 609.876 366.632 613.511 390.484 612.208C427.061 610.243 461.343 595.887 494.52 582.008C526.478 568.661 556.489 556.067 587.488 554.342C618.486 552.616 642.861 566.807 668.602 581.879C689.606 594.143 711.337 606.829 737.31 610.556C780.889 616.798 832.95 591.004 874.698 570.258C884.692 565.302 894.135 560.62 902.414 556.93C910.694 553.24 920.659 549.164 932.367 544.391C983.383 523.554 1060.52 492.069 1068.51 460.474C1073.5 440.647 1054.71 427.429 1034.78 413.311C1017.35 401.011 999.333 388.307 997.938 370.682C995.759 343.603 957.265 322.399 919.991 301.911C895.703 288.564 872.781 275.952 859.301 261.853C836.901 238.409 834.839 214.432 832.863 191.264C831.411 174.19 829.958 156.529 820.342 139.015C809.68 119.225 790.679 116.287 766.566 112.616C755.277 111.06 744.225 108.885 733.533 106.117C703.958 97.9287 675.08 84.7105 647.19 71.8595C602.537 51.3162 556.344 30.0019 505.676 29.2859C457.508 28.4965 429.995 66.8476 407.915 97.6349C401.902 106.025 396.295 113.937 390.687 120.253C362.739 152.05 328.486 188.18 286.39 214.469C270.876 224.181 252.108 231.377 234.096 238.335C212.394 246.67 189.936 255.299 173.667 268.15C129.449 302.921 130.176 355.316 131.454 370.554C131.35 371.974 131.805 373.388 132.778 374.67C133.752 375.951 135.213 377.06 137.032 377.897C149.147 382.891 180.116 375.492 210.069 368.332C235.432 362.292 261.463 356.032 279.853 356.032H279.737Z" fill="white"/>
<path d="M385.139 604.626C364.424 604.626 347.109 600.642 333.629 592.729C306.32 576.757 299.609 547.824 298.766 526.381C298.389 516.376 302.136 501.12 306.494 483.459C317.185 440.004 331.857 380.522 287.523 367.635C275.466 364.147 248.825 369.471 223.056 374.629C193.771 380.651 163.237 386.654 149.699 380.871C147.485 379.866 145.674 378.547 144.412 377.02C143.151 375.493 142.474 373.8 142.436 372.077C139.095 344.246 148.246 305.087 184.329 278.651C201.122 266.295 223.521 258.566 245.165 251.113C264.368 244.504 284.182 237.656 300.364 227.595C341.589 201.802 369.741 166.7 392.867 135.802C397.341 129.818 402.105 122.089 407.16 113.901C427.497 80.8552 455.387 35.638 506.723 37.2902C552.422 38.7589 595.332 56.8605 636.848 74.3562C660.09 84.1046 683.941 94.2019 707.939 101.178C720.63 104.54 733.871 107.003 747.421 108.522C774.439 112.193 799.976 115.663 810.464 136.059C819.412 153.372 822.666 170.592 825.804 187.243C830.655 213.055 835.246 237.417 859.272 262.091C871.619 274.759 891.23 286.949 912.321 299.855C947.417 321.518 983.732 343.915 987.044 370.572C988.932 385.773 1003.89 397.853 1018.36 409.529C1035.21 423.114 1052.61 437.159 1048.61 455.884C1041.31 490.123 972.314 518.854 921.967 539.82C911.072 544.355 900.817 548.632 892.217 552.506C884.693 555.92 876.21 560.18 867.261 564.677C825.92 585.423 774.468 611.253 728.479 601.229C704.423 595.997 683.971 584.835 664.186 574.04C640.276 560.987 617.702 548.669 591.003 547.659C560.731 546.558 529.993 559.794 497.6 573.82C463.958 588.287 429.24 603.304 390.717 604.626C388.828 604.626 386.969 604.626 385.139 604.626ZM277.384 364.716C281.284 364.626 285.169 365.07 288.772 366.019C335.082 379.458 320.73 437.306 309.399 483.771C305.071 501.34 301.323 516.523 301.701 526.363C302.514 547.475 309.051 575.931 335.576 591.426C349.695 599.687 368.201 603.469 390.542 602.753C428.31 601.486 462.65 586.634 495.886 572.241C529.122 557.848 559.83 544.593 591.09 545.878C618.777 546.906 641.729 559.427 665.987 572.682C685.568 583.367 705.818 594.418 729.321 599.54C773.829 609.215 824.584 583.752 865.373 563.264C874.35 558.766 882.804 554.488 890.445 551.055C899.161 547.145 909.387 542.867 920.282 538.315C970.165 517.551 1038.52 489.095 1045.64 455.701C1049.48 437.746 1033.21 424.62 1016.01 410.722C1001.25 398.826 986.027 386.526 984.052 370.774C980.827 344.797 944.918 322.656 910.201 301.232C889.138 288.234 869.237 275.97 856.715 263.101C832.341 238.096 827.518 212.376 822.84 187.519C819.703 170.996 816.478 153.812 807.617 136.684C797.623 117.37 774.033 114.158 746.607 110.449C732.845 108.891 719.399 106.373 706.515 102.941C682.344 95.9092 658.288 85.7569 635.017 75.9718C593.85 58.6046 551.26 40.6682 506.374 39.2546C457.188 37.6941 429.676 82.1953 409.659 114.708C404.604 122.915 399.81 130.662 395.278 136.739C372.036 167.765 343.768 203.05 302.311 229.046C285.954 239.29 265.937 246.193 246.559 252.912C225.148 260.255 202.981 267.948 186.537 280.046C151.152 306.06 142.058 344.668 145.341 372.133C145.361 373.567 145.913 374.978 146.953 376.254C147.992 377.529 149.49 378.633 151.326 379.476C163.702 384.763 193.423 378.815 222.184 373.05C243.16 368.736 263.235 364.716 277.384 364.716Z" fill="white"/>
<path d="M389.816 594.804C369.479 594.804 352.716 591.132 339.497 583.899C318.667 572.48 306.988 552.341 304.635 524.05C303.879 514.393 306.843 500.184 310.271 483.661C318.987 442.134 329.649 390.455 288.191 377.622C274.217 373.308 249.581 377.622 225.758 381.716C200.744 386.067 177.095 390.179 164.516 384.965C162.101 383.9 160.087 382.513 158.616 380.901C157.145 379.29 156.253 377.493 156.003 375.639C150.193 350.158 163.644 312.027 200.54 288.418C217.333 277.678 238.308 271.234 258.645 264.992C278.982 258.75 299.318 252.527 316.11 242.08C356.29 217.021 380.926 182.213 401.524 148.342C404.429 143.513 407.683 137.455 411.082 131.048C428.978 97.323 455.997 46.3595 508.524 48.5258C549.865 50.1965 589.173 65.1771 627.173 79.5702C652.216 89.0983 678.131 98.9569 704.656 105.125C716.772 107.741 729.33 109.454 742.075 110.229C764.997 112.065 784.84 113.736 798.436 132.259C805.409 141.769 806.803 153.647 808.169 165.158C808.837 170.812 809.447 176.173 810.696 181.112C818.947 213.661 833.473 239.859 856.454 263.523C868.075 275.53 885.245 287.206 903.402 299.561C935.65 321.463 968.973 344.118 972.924 370.444C974.987 384.103 987.45 395.999 999.565 407.491C1015.92 423.023 1032.83 439.105 1022.81 459.263C1006.89 491.317 949.915 516.009 904.158 535.855C895.006 539.82 886.349 543.565 878.388 547.2C871.822 550.193 864.443 553.883 856.657 557.793C821.794 575.252 774.003 599.173 733.243 592.289C717.903 589.682 704.656 581.274 691.844 573.123C686.44 569.535 680.717 566.146 674.703 562.97C649.137 550.284 627.347 540.481 598.963 539.471C568.691 538.388 537.518 551.184 504.514 564.751C471.511 578.318 437.491 592.289 400.304 594.437C396.701 594.694 393.215 594.804 389.816 594.804ZM273.403 373.969C278.956 373.845 284.481 374.523 289.557 375.951C332.903 389.353 322.008 441.749 313.234 483.863C309.835 500.276 306.872 514.467 307.627 523.958C309.835 551.735 321.194 571.434 341.415 582.522C356.202 590.637 375.929 594.033 400.042 592.656C436.503 590.563 470.262 576.684 502.917 563.282C536.327 549.55 567.936 536.552 599.138 537.709C628.364 538.755 650.531 548.724 676.475 561.575C682.606 564.785 688.427 568.224 693.906 571.874C706.457 579.842 719.414 588.085 733.998 590.545C773.335 597.209 820.458 573.618 854.856 556.398C862.671 552.469 870.05 548.779 876.674 545.75C884.693 542.078 893.35 538.407 902.502 534.368C947.91 514.669 1004.33 490.215 1020.05 458.767C1029.63 439.435 1013.86 424.436 997.154 408.556C984.865 396.88 972.169 384.8 970.048 370.682C966.184 344.98 933.181 322.546 901.281 300.92C883.008 288.491 865.75 276.76 853.955 264.588C830.713 240.722 816.187 214.304 807.849 181.515C806.571 176.467 805.932 171.088 805.264 165.397C803.927 154.069 802.562 142.338 795.793 133.141C782.864 115.516 764.707 114.029 741.697 112.138C728.744 111.349 715.98 109.606 703.668 106.943C676.882 100.701 650.851 90.8057 625.662 81.2409C586.209 66.2603 548.964 52.0874 508.553 50.4168C458.263 48.3055 431.68 98.4979 414.075 131.69C410.646 138.116 407.451 144.192 404.487 149.058C383.744 183.113 358.962 218.141 318.376 243.439C301.294 254.105 280.376 260.512 260.272 266.699C240.168 272.886 219.308 279.238 202.865 289.776C166.636 312.945 153.476 350.359 159.286 375.437C159.471 377.024 160.211 378.565 161.452 379.949C162.693 381.333 164.404 382.526 166.462 383.442C178.083 388.197 202.08 384.029 225.38 379.972C242.027 376.979 259.371 373.969 273.403 373.969Z" fill="white"/>
<path d="M752.708 582.595C744.475 582.602 736.338 581.481 728.856 579.309C709.624 573.802 693.645 564.769 678.189 556.031C656.981 544.061 636.964 532.752 611.107 531.852C584.757 530.953 547.425 542.225 507.885 554.176C450.564 571.58 391.327 589.406 351.699 575.491C328.952 567.486 315.529 549.935 310.649 521.81C309.138 513.071 311.084 499.78 313.292 484.505C318.899 445.861 325.872 397.743 283.95 386.691C271.457 383.405 251.585 386.599 232.353 389.72C210.825 393.208 190.488 396.494 178.722 391.464C176.081 390.23 173.898 388.645 172.328 386.822C170.757 384.998 169.836 382.98 169.629 380.908C163.818 353.37 181.569 320.563 212.917 301.195C230.348 290.437 251.905 284.47 272.764 278.706C293.624 272.941 315.035 267.011 332.293 256.327C375.377 229.633 395.656 190.731 413.639 156.419C415.556 152.747 417.706 148.231 419.943 143.458C434.905 111.808 459.948 58.8432 512.039 61.0095C547.715 62.5149 581.038 73.6402 616.308 85.4448C643.588 94.6241 671.827 104.005 701.169 108.503C711.434 109.906 721.899 110.644 732.401 110.706C754.713 111.275 774.033 111.771 786.845 129.432C800.383 148.139 806.687 168.297 812.788 187.794C819.819 210.32 827.082 233.69 845.559 255.188C856.628 268.039 873.682 281.221 891.752 295.082C923.129 319.168 955.667 344.081 959.008 370.517C960.752 383.772 971.152 395.393 981.204 406.628C994.075 420.985 1007.35 435.818 1002.3 454.012C993.842 484.487 932.832 511.438 888.266 531.118C879.783 534.881 871.764 538.461 864.879 541.656C857.994 544.85 851.341 548.338 843.99 552.139C817.117 566.073 785.131 582.595 752.708 582.595ZM608.057 529.943C609.161 529.943 610.207 529.943 611.282 529.943C638.126 530.861 658.521 542.39 680.106 554.58C695.417 563.209 711.221 572.149 730.047 577.547C768.658 588.562 807.646 568.459 842.015 550.67C849.394 546.851 856.367 543.326 863.02 540.114C869.673 536.901 877.982 533.321 886.494 529.557C930.624 510.061 991.082 483.367 999.333 453.626C1004.21 436.094 991.75 422.196 978.561 407.473C968.363 396.072 957.788 384.268 956.016 370.609C952.646 344.797 920.485 320.068 889.399 296.201C871.241 282.286 854.101 269.122 842.916 256.033C824.235 234.204 816.914 210.779 809.825 188.106C803.782 168.719 797.536 148.672 784.114 130.166C771.912 113.552 754.48 113.111 732.139 112.615C721.462 112.532 710.825 111.776 700.385 110.357C670.665 105.804 642.28 96.3131 614.826 87.1338C579.963 75.4394 546.786 64.3875 511.719 62.9188C461.924 60.881 437.317 112.946 422.616 144.064C420.35 148.837 418.229 153.353 416.283 157.08C398.299 191.594 377.905 230.698 334.326 257.722C316.691 268.627 294.96 274.648 273.926 280.45C252.893 286.251 231.975 292.071 214.95 302.59C184.213 321.5 166.753 353.645 172.505 380.651C173.435 385.039 175.991 388.086 180.349 389.922C191.04 394.493 211.667 391.152 231.655 387.921C251.643 384.69 271.66 381.44 285.083 384.983C328.952 396.568 321.892 445.402 316.198 484.652C313.99 499.89 312.072 513.035 313.554 521.59C318.289 549.128 331.247 566.183 353.123 573.875C391.356 587.332 449.983 569.616 506.635 552.469C544.955 540.903 581.242 529.943 608.057 529.943Z" fill="white"/>
<path d="M753.841 573.086C747.713 573.099 741.648 572.305 736.032 570.754C724.615 567.596 714.185 559.923 704.075 552.506C698.866 548.42 693.144 544.608 686.963 541.105C667.149 530.953 646.29 525.206 626.592 524.454C601.578 523.499 564.072 534.294 524.386 545.713C465.933 562.548 399.665 581.622 357.045 567.229C335.111 559.886 321.427 544.612 315.268 520.745C313.06 512.154 314.077 499.541 315.268 484.946C318.173 451.313 321.456 409.474 284.124 398.844C273.287 395.76 256.35 397.743 239.964 399.67C220.645 401.947 202.4 404.077 191.621 398.954C186.566 396.568 183.719 392.859 182.906 387.627C178.577 360.089 196.676 330.55 229.012 312.357C246.443 302.609 267.273 297.358 287.436 292.273C308.702 286.912 330.637 281.386 348.126 270.591C388.015 245.954 403.877 211.073 419.188 177.348C420.379 174.704 421.599 172.079 422.79 169.472C424.301 166.168 425.986 162.129 427.758 157.943C441.18 125.981 463.551 72.4837 515.903 74.4664C546.727 75.623 576.419 83.8293 607.853 92.5129C633.332 99.5443 659.683 106.833 686.556 109.954C697.811 111.045 709.233 111.279 720.576 110.651C742.075 109.935 760.668 109.311 775.776 125.724C792.742 144.247 800.441 166.939 807.908 188.859C814.531 208.392 821.359 228.587 834.723 246.009C845.588 260.219 862.322 274.667 880.015 289.978C910.113 315.992 941.257 342.887 944.889 370.48C946.487 382.579 954.505 393.796 962.32 404.646C974.087 421.168 986.259 438.095 975.22 457.886C959.56 486.011 909.387 509.161 869.063 527.777C862.293 530.898 855.931 533.835 850.004 536.662C844.571 539.269 838.616 542.427 832.311 545.842C808.982 558.234 781.063 573.086 753.841 573.086ZM623.484 522.563C624.626 522.563 625.73 522.563 626.796 522.563C647.132 523.334 668.515 529.227 688.822 539.618C695.124 543.191 700.954 547.084 706.254 551.257C716.131 558.601 726.329 565.944 737.165 569.01C768.019 577.547 802.562 559.17 830.307 544.391C836.64 541.013 842.625 537.819 848.145 535.212C853.665 532.605 860.463 529.429 867.232 526.308C907.237 507.858 957.004 484.891 972.372 457.298C983.006 438.187 971.617 422.27 959.56 405.417C951.687 394.402 943.553 383.056 941.926 370.627C938.352 343.567 907.47 316.873 877.633 291.061C859.853 275.677 843.032 261.155 832.05 246.817C818.541 229.174 811.713 208.888 805.002 189.244C797.594 167.453 789.953 144.927 773.045 126.66C758.896 111.202 741.988 111.771 720.576 112.487C709.009 113.129 697.361 112.882 685.888 111.753C658.666 108.595 632.17 101.27 606.546 94.2019C575.344 85.5734 545.885 77.4405 515.583 76.3023C465.672 74.4664 443.592 127.009 430.431 158.42C428.63 162.661 426.974 166.663 425.434 169.986C424.243 172.593 423.052 175.218 421.832 177.862C406.405 211.807 390.455 246.927 350.014 271.895C332.118 282.91 309.893 288.564 288.365 293.925C268.436 298.937 247.692 304.132 230.813 313.679C199.146 331.45 181.424 360.383 185.637 387.352C186.392 392.052 188.861 395.338 193.219 397.394C202.981 402.039 221.458 399.872 239.296 397.78C256.117 395.797 273.52 393.759 285.17 397.082C324.332 408.226 320.817 450.762 318.028 484.946C316.837 499.431 315.791 511.952 318.028 520.36C324.042 543.62 337.202 558.399 358.294 565.522C399.665 579.493 465.236 560.602 523.079 543.951C561.544 533.027 597.859 522.563 623.484 522.563Z" fill="white"/>
<path d="M400.042 565.191C386.171 565.424 372.417 563.534 359.95 559.684C339.614 552.965 325.785 539.746 319.277 520.396C316.372 512.153 316.575 499.743 316.662 486.598C316.866 458.546 317.098 423.628 288.859 412.687C279.156 408.923 263.468 409.804 248.186 410.63C231.452 411.567 214.137 412.466 204.288 407.216C199.407 404.517 196.676 400.845 196.182 395.521C194.84 381.483 198.957 367.451 208.174 354.651C217.391 341.85 231.427 330.67 249.058 322.087C265.617 314.028 284.85 309.511 303.443 305.142C324.623 300.167 346.499 295.026 363.872 284.672C389.322 269.49 404.545 233.47 420.786 195.339C443.301 142.21 466.659 87.3358 520.667 88.8595C546.814 89.5755 572.642 95.1932 600.096 101.141C625.749 106.649 652.39 112.45 678.799 113.772C689.69 114.183 700.62 113.789 711.367 112.597C731.006 110.761 746.52 109.403 765.026 123.172C777.141 132.167 782.457 149.663 786.67 163.707C788.384 169.417 790.011 174.814 791.87 178.927C803.28 204.85 818.472 230.048 837.25 254.197C846.721 266.259 859.185 278.706 872.374 291.906C898.231 317.791 924.988 344.558 930.857 370.499C932.716 378.815 937.655 387.848 942.855 397.412C952.094 414.339 961.652 431.871 955.696 448.082C944.279 479.292 893.205 503.745 852.183 523.444C846.373 526.253 840.562 528.952 835.42 531.559C830.278 534.165 824.467 537.323 818.628 540.609C795.386 553.644 768.948 568.423 740.186 561.208L739.838 561.116L739.605 560.951C727.984 552.469 716.364 544.012 704.743 535.579C688.009 523.83 665.551 517 644.808 517.367C621.072 517.753 584.902 527.428 546.582 537.672C497.629 550.762 443.621 565.191 400.042 565.191ZM267.564 408.06C276.28 408.06 284.182 408.758 290.254 411.108C319.916 422.582 319.655 458.069 319.451 486.58C319.451 499.633 319.277 511.952 322.008 519.993C328.487 539.049 341.299 551.496 361.228 558.032C406.87 573.031 480.546 553.332 545.565 536.001C584.147 525.684 620.578 515.954 644.837 515.55V516.468V515.55C666.51 515.201 689.723 522.232 707.038 534.367C718.659 542.776 730.192 551.184 741.639 559.592C768.571 566.201 794.137 551.882 816.71 539.251C822.521 535.946 828.157 532.825 833.619 530.072C839.08 527.318 844.542 524.747 850.353 522.012C891.026 502.515 941.635 478.227 952.82 447.715C958.631 432 949.16 414.669 940.066 398.037C934.808 388.398 929.84 379.292 927.922 370.792C922.112 345.256 895.558 318.654 869.818 292.915C856.599 279.697 844.106 267.213 834.548 255.041C815.682 230.781 800.422 205.466 788.965 179.422C787.077 175.237 785.45 169.803 783.707 164.056C779.552 150.214 774.352 132.994 762.731 124.365C745.3 111.367 731.18 112.652 711.686 114.415C700.728 115.625 689.584 116.025 678.479 115.608C651.577 114.268 624.878 108.485 599.05 102.885C571.828 96.974 546.088 91.393 520.464 90.6954H518.488C468.112 90.6954 445.451 144.192 423.488 195.945C407.218 234.333 391.82 270.61 365.79 286.123C347.981 296.752 325.814 301.948 304.373 306.978C285.983 311.311 266.954 315.772 250.743 323.666C233.545 332.05 219.849 342.962 210.846 355.453C201.844 367.944 197.807 381.636 199.088 395.338C199.611 400.093 201.993 403.489 206.147 405.765C215.066 410.575 231.771 409.657 247.925 408.758C254.519 408.427 261.23 408.06 267.564 408.06Z" fill="white"/>
<path d="M410.065 556.636C395.607 556.841 381.245 555.095 367.939 551.514C347.777 545.768 333.077 534.9 324.041 519.203C318.928 510.262 318.231 497.613 317.214 484.212C315.703 461.374 314.018 435.47 289.15 425.464C280.666 422.031 267.68 422.086 255.158 422.123C233.224 422.215 210.563 422.288 209.314 404.297C205.915 354.545 254.49 340.262 305.913 325.024C331.45 317.479 357.887 309.677 378.544 297.138C403.993 281.625 417.241 246.119 431.273 208.521C450.593 156.713 470.668 103.106 525.955 103.638C547.86 103.84 569.94 107.2 593.356 110.743C620.549 114.874 648.555 119.151 676.184 117.921C685.505 117.385 694.709 116.222 703.639 114.451C721.854 111.22 736.264 108.668 754.683 122.254C766.304 130.809 771.534 144.119 776.153 155.868C777.722 159.889 779.233 163.689 780.889 167.177C796.315 199.195 810.261 223.318 826.065 245.403C835.362 258.383 847.389 271.601 860.114 285.59C885.361 313.367 911.45 342.061 916.824 370.48C918.706 378.79 921.404 387.019 924.901 395.117C932.338 414.063 940.066 433.67 929.607 452.176C914.703 478.576 875.134 498.623 840.213 516.321C833.677 519.625 827.488 522.746 821.562 525.886C817.494 528.015 812.846 530.842 808.082 533.835C790.447 544.722 768.512 558.289 748.263 552.818H747.885L747.624 552.579C738.908 544.538 730.018 536.497 720.896 528.713C706.195 516.853 685.83 510.226 665.028 510.556C640.13 510.978 602.798 520.286 563.345 530.145C512.358 542.665 456.316 556.636 410.065 556.636ZM259.487 420.232C271.108 420.232 282.526 420.562 290.689 423.904C316.836 434.478 318.58 460.878 320.119 484.175C320.991 497.43 321.804 509.877 326.772 518.616C335.488 534.037 349.433 544.318 369.131 549.825C418.81 563.998 494.985 545.015 562.212 528.254C601.956 518.322 639.52 508.959 664.941 508.537C686.701 508.17 707.938 515.072 723.046 527.428C732.139 535.23 741.087 543.234 749.657 551.294C768.047 555.975 789.023 543.014 805.903 532.568C810.783 529.557 815.403 526.712 819.557 524.527C825.513 521.388 831.701 518.248 838.238 514.944C872.868 497.393 912.089 477.529 926.731 451.607C936.87 433.615 929.288 414.302 921.938 395.613C918.426 387.44 915.71 379.138 913.803 370.756V370.756C908.486 342.722 882.543 314.174 857.441 286.563C844.687 272.537 832.631 259.282 823.276 246.174C807.413 224.015 793.439 199.819 777.983 167.728C776.269 164.185 774.759 160.384 773.19 156.327C768.629 144.78 763.486 131.69 752.33 123.465C735.131 110.761 722.174 113.074 704.278 116.25C695.138 118.052 685.72 119.234 676.184 119.775C648.207 121.005 619.881 116.709 592.455 112.542C569.214 109.017 547.279 105.694 525.635 105.492H524.909C472.411 105.492 452.801 158.09 433.83 208.961C419.711 246.835 406.376 282.598 380.287 298.478C359.369 311.219 332.699 319.094 306.93 326.713C256.408 341.62 208.704 355.72 212.016 404.168C213.12 420.416 233.456 420.342 254.955 420.25L259.487 420.232Z" fill="white"/>
<path d="M418.636 548.118C380.577 548.118 348.358 540.132 329.677 517.294C322.443 508.445 320.439 496.751 318.347 484.359C315.209 466 311.985 446.944 290.341 437.893C282.729 434.699 272.009 433.946 261.666 433.23C242.433 431.89 222.591 430.513 222.416 413.476C221.952 367.414 270.091 352.526 321.194 336.774C346.441 328.971 372.559 320.894 392.459 308.667C416.98 293.576 428.542 259.099 440.802 222.565C457.856 171.693 475.665 119.078 531.562 118.857C549.072 119.066 566.541 120.004 583.856 121.666C610.497 123.814 638.038 126.036 664.127 123.227C673.441 122.113 682.573 120.46 691.407 118.288C709.304 114.231 723.365 110.945 744.776 121.464C758.925 128.404 765.113 144.321 770.372 157.098C772.202 161.725 773.945 166.112 775.862 169.564L780.249 177.586C790.941 197.12 802.009 217.333 814.909 236.738C823.886 250.25 835.245 263.964 847.418 278.485C872.49 308.575 898.405 339.693 902.966 370.499C904.012 377.548 905.871 384.782 907.702 391.776C913.222 413.237 918.945 435.415 902.734 456.619C886.029 478.429 851.718 497.008 821.387 513.347C816.652 515.917 812.003 518.414 807.588 520.855C807.326 521.002 806.542 521.535 805.321 522.324C779.174 539.857 763.225 546.796 755.526 544.226L755.09 544.061L754.887 543.767C749.765 536.162 743.895 528.767 737.31 521.626C725.399 509.804 706.805 503.268 686.439 503.58C660.728 504.039 622.089 512.906 581.183 522.287C528.453 534.367 468.518 548.118 418.636 548.118ZM532.579 120.693H531.417C477.728 120.895 460.326 172.777 443.504 222.951C431.157 259.668 419.507 294.549 394.319 309.97C373.982 322.417 347.835 330.55 322.327 338.426C272.212 353.921 224.857 368.553 225.322 413.458C225.322 428.879 242.375 429.98 261.957 431.412C272.677 432.147 283.746 432.918 291.939 436.351C314.716 445.879 318.086 465.339 321.223 484.083C323.315 496.31 325.261 507.839 332.263 516.376C350.305 538.406 381.652 546.172 418.81 546.172C468.199 546.172 527.756 532.495 580.079 520.47C621.188 511.034 660.06 502.111 686.265 501.652C707.677 501.304 727.171 508.17 739.692 520.58C746.21 527.692 752.031 535.049 757.124 542.61C761.685 543.73 773.422 540.775 803.026 520.947C804.334 520.084 805.176 519.515 805.467 519.368C809.912 516.908 814.531 514.412 819.296 511.841C849.365 495.594 883.414 477.18 899.858 455.719C915.691 435.029 910.026 413.127 904.564 391.96C902.763 384.928 900.874 377.658 899.829 370.572C895.325 340.115 869.527 309.163 844.629 279.238C832.485 264.68 821.039 250.929 812.003 237.344C799.046 217.884 787.977 197.652 777.286 178.082L772.87 170.041C770.953 166.516 769.18 162.11 767.321 157.447C762.324 144.927 756.107 129.34 742.772 122.804C722.697 112.983 709.885 115.883 692.163 119.904C683.169 122.112 673.871 123.789 664.389 124.916C637.835 127.78 610.09 125.54 583.275 123.374C566.482 121.808 549.55 120.913 532.579 120.693V120.693Z" fill="white"/>
<path d="M429.095 539.673C391.908 539.673 359.369 532.917 336.738 514.155C326.627 505.801 323.054 495.043 319.568 484.652C315.006 470.883 310.649 457.886 292.665 449.771C285.664 446.595 276.803 445.328 268.203 444.08C251.876 441.675 234.88 439.252 235.461 422.876C237.03 380.192 287.436 363.357 336.186 347.073C360.677 338.904 385.981 330.459 405.098 318.819C429.008 304.261 439.118 271.087 449.838 235.783C464.858 186.38 480.401 135.307 536.995 134.169C548.354 133.93 559.859 134.169 572.061 134.315C599.341 134.738 627.58 135.178 653.407 130.644C662.272 128.954 670.861 126.734 679.061 124.016C697.334 118.398 713.139 113.533 734.609 124.255C763.283 138.575 780.773 177.091 794.863 208.043C800.877 221.28 806.484 233.746 812.294 242.429C819.557 253.536 828.302 264.918 837.599 276.98C861.102 307.584 885.448 339.234 888.76 370.444C889.079 373.546 889.428 376.575 889.777 379.531C893.815 415.257 896.778 441.087 860.724 472.572C841.695 489.095 816.449 503.782 792.074 517.918C782.37 523.517 772.376 529.319 763.022 535.047L760.756 536.442L760.552 534.441C758.693 515.513 742.249 496.696 709.769 496.696H708.055C679.264 497.265 638.707 505.875 595.768 515.054C540.162 526.932 480.14 539.673 429.095 539.673ZM548.5 135.949C544.694 135.949 540.946 135.949 537.198 136.059C482.871 137.143 467.473 187.464 452.743 236.169C441.936 271.693 431.738 305.234 407.16 320.196C387.753 332.001 362.274 340.519 337.609 348.762C287.378 365.523 239.935 381.367 238.425 422.967C237.902 437.783 252.253 439.857 268.842 442.244C277.732 443.511 286.884 444.833 294.35 448.229C313.263 456.821 317.912 470.773 322.415 484.267C325.814 494.474 329.329 505.012 339.033 513.035C391.617 556.545 499.663 533.596 594.983 513.365C638.155 504.186 678.915 495.557 708.113 495.007C733.156 494.456 759.564 506.022 763.312 532.495C772.028 527.189 781.179 521.865 790.098 516.688C814.386 502.607 839.487 488.067 858.371 471.618C893.844 440.665 890.939 415.147 886.93 379.825C886.581 376.851 886.232 373.822 885.913 370.646C882.63 339.803 858.429 308.226 835.042 277.88C825.746 265.781 816.972 254.381 809.651 243.219C803.84 234.48 798.233 221.923 792.219 208.631C778.245 177.954 760.872 139.75 732.953 125.797C712.906 115.773 698.613 120.179 680.484 125.797C672.121 128.56 663.368 130.822 654.337 132.553C628.19 137.124 599.632 136.665 572.119 136.225C563.926 136.078 556.111 135.949 548.442 135.949H548.5Z" fill="white"/>
<path d="M441.355 530.384C404.633 530.384 371.426 524.711 345.482 509.161C334.559 502.589 328.603 494.052 322.851 485.791C316.11 476.134 309.748 467.01 296.122 460.603C289.871 457.919 283.015 455.845 275.786 454.453C261.26 451.185 247.402 448.082 248.535 432.275C251.44 392.896 300.364 374.684 347.835 357.005C372.297 347.936 397.573 338.536 415.934 326.401C436.968 312.467 446.497 281.79 456.607 249.295C471.598 201.086 487.112 151.242 542.631 149.425H543.154C578.627 148.25 618.864 146.928 652.565 137.492C659.453 135.475 666.103 133.15 672.466 130.534C689.113 124.035 702.273 118.913 724.76 128.11C755.439 140.649 772.202 177.366 785.77 206.869C790.738 217.737 795.444 227.999 800.151 235.471C807.065 246.486 815.2 257.74 823.828 269.692C847.825 302.902 872.636 337.27 874.786 370.48L875.076 374.556C877.284 407.803 879.202 436.516 846.954 466.092C836.814 475.418 823.712 483.533 811.132 491.39C794.66 501.671 777.606 512.282 767.554 525.372L764.91 524.582C767.901 520.725 769.262 516.444 768.86 512.156C768.458 507.867 766.306 503.718 762.615 500.11C759.024 496.734 754.087 494.016 748.303 492.231C742.518 490.445 736.091 489.655 729.67 489.94C696.957 490.692 654.424 498.991 609.393 507.784C554.02 518.689 494.056 530.384 441.355 530.384ZM702.012 125.044C692.308 125.044 683.999 128.276 674.035 132.168C667.521 134.817 660.726 137.178 653.698 139.236C619.532 148.819 579.005 150.159 543.299 151.334H542.776C489.523 153.17 474.242 202.206 459.454 249.718C449.257 282.469 439.641 313.404 418.026 327.723C399.432 340.079 373.895 349.441 349.317 358.621C302.543 375.988 254.171 393.943 251.469 432.33C250.423 446.76 262.073 449.386 276.774 452.69C284.299 454.132 291.432 456.293 297.924 459.097C312.159 465.798 318.957 475.62 325.552 485.001C331.363 493.097 337.173 501.524 347.545 507.784C409.339 544.96 515.177 524.307 608.58 506.077C653.785 497.246 696.492 488.912 729.612 488.141C736.531 487.862 743.446 488.732 749.669 490.664C755.891 492.596 761.206 495.524 765.084 499.156C770.682 504.524 772.928 511.013 771.389 517.367C781.615 507.234 795.531 498.568 809.157 490.142C821.591 482.358 834.548 474.28 844.542 465.101C876.238 436.002 874.321 407.583 872.142 374.666L871.852 370.591C869.731 337.765 845.036 303.545 821.301 270.5C812.585 258.53 804.508 247.239 797.565 236.206C792.8 228.642 788.094 218.343 783.039 207.419C769.704 178.229 753.086 141.879 723.336 129.707C717.105 126.866 709.69 125.244 702.012 125.044V125.044Z" fill="white"/>
<path d="M456.201 519.075C421.599 519.075 388.334 514.852 357.423 503.488C344.756 498.807 335.575 492.198 326.685 485.791C319.227 479.952 310.638 474.728 301.119 470.241C296.387 468.267 291.436 466.512 286.303 464.99C272.096 460.529 259.836 456.674 261.521 441.216C265.472 405.6 312.246 385.608 357.394 366.295C381.798 355.867 407.044 345.09 424.214 332.129C441.384 319.168 451.436 291.575 461.72 262.532C478.28 215.699 495.421 167.288 547.686 164.515C584.437 162.569 616.54 156.933 643.094 147.772C649.836 145.365 656.319 142.679 662.501 139.731C679.496 131.966 691.756 126.366 715.725 136.812C749.28 151.499 767.757 188.694 782.545 218.636C787.28 228.22 791.754 237.252 796.17 244.339C801.981 253.518 808.227 262.697 814.967 272.446C837.163 304.61 860.144 337.876 860.376 370.609C860.579 402.975 858.575 430.054 831.324 459.005C826.559 464.072 816.943 470.314 806.745 476.923C798.105 482.338 789.902 488.024 782.167 493.96L782.341 494.272C786.293 502.387 780.889 510.795 768.542 515.697L766.798 516.376L766.334 515.146C763.864 508.629 769.762 501.194 778.913 493.648C775.427 488.141 766.188 482.743 749.861 483.147C708.955 484.12 664.07 491.922 616.569 500.184C563.142 509.528 508.175 519.075 456.201 519.075ZM692.279 132.957C682.576 132.957 674.587 136.629 664.505 141.218C658.21 144.202 651.621 146.931 644.779 149.388C617.847 158.677 585.367 164.387 548.238 166.351C498.094 168.995 481.185 216.746 464.858 262.936C454.486 292.199 444.696 319.847 426.742 333.323C409.31 346.467 383.802 357.317 359.224 367.818C314.571 386.893 268.407 406.628 264.572 441.345C263.003 455.572 273.287 458.84 287.814 463.375C293.07 464.931 298.139 466.728 302.979 468.754C312.723 473.319 321.51 478.649 329.126 484.616C337.842 490.894 346.848 497.467 359.137 501.928C435.021 529.925 527.175 513.916 616.308 498.403C663.982 490.123 709.043 482.284 750.297 481.311C767.176 480.907 777.141 486.231 781.441 492.014C788.471 486.507 797.042 480.999 805.177 475.638C815.229 469.121 824.729 462.953 829.319 458.069C856.221 429.448 858.139 403.765 857.935 370.609C857.703 338.261 834.868 305.179 812.759 273.18C806.019 263.413 799.628 254.179 793.933 245.018C789.488 237.876 784.985 228.807 780.221 219.206C765.52 189.538 747.188 152.601 714.446 138.336C705.585 134.499 698.584 132.957 692.279 132.957V132.957ZM780.395 495.759C773.045 502.02 768.251 508.078 769.21 513.365C773.68 511.494 777.143 508.807 779.141 505.663C781.139 502.519 781.576 499.065 780.395 495.759V495.759Z" fill="white"/>
<path d="M458.989 505.636C429.806 505.756 400.741 503.284 372.646 498.293C350.972 494.329 330.194 488.622 310.823 481.311C284.966 471.104 272.88 460.364 274.885 449.349C281.131 414.963 324.07 394.604 365.586 374.886C389.583 363.504 414.423 351.718 431.767 337.38C446.613 325.135 456.491 300.534 466.95 274.483C484.381 231.157 504.02 182.048 552.886 179.019C582.781 177.183 612.356 169.637 643.355 156.125C648.904 153.702 653.64 151.242 657.881 149.076C673.424 140.98 683.709 135.619 708.229 146.652C739.838 160.862 757.966 194.036 772.551 220.693C776.298 227.559 779.843 234.039 783.271 239.547C788.297 247.625 793.817 255.849 799.656 264.57C822.143 298.147 847.622 336.168 846.779 370.609C846.14 395.889 843.525 425.06 820.487 451.387C814.949 456.98 808.712 462.284 801.835 467.248C797.506 470.59 793.12 474.041 788.82 477.548C791.047 478.576 792.884 479.906 794.195 481.44C795.969 484.12 796.617 487.045 796.077 489.931C795.537 492.816 793.827 495.565 791.112 497.91C788.397 500.256 784.77 502.118 780.581 503.317C776.393 504.516 771.785 505.012 767.205 504.755L765.898 504.645V503.837C766.217 495.594 774.439 486.672 784.578 478.025C779.799 476.592 774.516 475.96 769.239 476.189V476.189C719.588 476.905 669.066 483.991 620.229 490.876C567.529 498.146 513.637 505.636 458.989 505.636ZM684.174 142.228C675.458 142.228 668.834 145.716 659.682 150.489C655.441 152.674 650.647 155.171 645.011 157.631C613.606 171.345 583.565 178.927 553.177 180.854C506.344 183.81 486.908 232.258 469.739 274.979C459.222 301.213 449.402 325.997 434.062 338.555C416.486 353.095 391.501 364.954 367.242 376.41C326.307 395.889 283.833 416.028 277.761 449.624C273.636 472.352 338.538 490.288 373.459 496.585C457.072 511.676 539.667 500.11 619.59 488.93C668.543 482.064 719.211 474.977 769.151 474.243C775.077 474.028 780.988 474.8 786.292 476.483C790.592 472.903 795.008 469.396 799.511 466.018C806.266 461.13 812.415 455.919 817.901 450.432C840.62 424.546 843.177 395.632 843.816 370.572C844.658 336.554 819.296 298.698 796.925 265.286C791.115 256.565 785.537 248.304 780.511 240.226C777.054 234.719 773.509 228.183 769.732 221.298C755.206 194.88 737.339 162.019 706.486 148.139C697.131 143.935 690.187 142.228 684.174 142.228ZM768.832 502.956C772.794 503.102 776.746 502.582 780.287 501.45C783.828 500.319 786.832 498.615 788.994 496.512C791.425 494.504 792.949 492.117 793.404 489.605C793.859 487.094 793.229 484.551 791.58 482.247C790.464 480.941 788.907 479.807 787.019 478.925C777.46 487.131 769.645 495.392 768.832 502.956Z" fill="white"/>
<path d="M423.836 494.694C367.068 494.694 320.381 490.197 299.579 477.511C295.126 474.873 291.76 471.587 289.775 467.94C287.79 464.292 287.246 460.393 288.191 456.582C294.466 424.381 334.994 402.736 374.186 381.807C397.428 369.379 421.541 356.528 437.81 341.676C450.158 330.403 459.948 308.85 470.291 286.031C489.378 243.806 510.964 196.074 557.186 192.806C582.52 190.97 607.621 183.443 636.208 169.068C641.263 166.535 645.563 164.056 649.369 161.872C665.842 152.417 674.935 147.185 701.808 159.668C734.783 174.924 753.725 208.245 768.948 235.03C772.26 240.869 775.398 246.394 778.477 251.315C781.063 255.5 783.707 259.704 786.38 263.964C808.866 299.671 832.079 336.59 832.689 370.572C833.125 395.026 825.252 417.845 807.907 442.446C802.929 449.07 797.231 455.468 790.854 461.594C789.052 463.43 787.28 465.266 785.566 466.955H785.711C800.238 467.101 805.496 470.443 807.21 473.196C809.709 477.254 806.397 482.835 798.756 487.443C791.115 492.051 778.158 496.071 766.014 492.675L764.939 492.363L765.2 491.629C768.278 483.602 773.379 475.94 780.308 468.937C768.222 469.543 744.37 471.93 713.168 475.032C635.366 482.798 516.251 494.694 423.836 494.694ZM675.661 154.161C667.149 154.161 660.699 157.833 651.316 163.23C647.481 165.433 643.123 167.93 638.039 170.574C608.986 185.26 583.391 192.861 557.506 194.715C513.288 197.873 491.935 245.018 473.08 286.508C462.679 309.493 452.743 331.193 440.193 342.722C423.691 357.758 399.519 370.682 376.045 383.111C337.289 403.801 297.197 425.207 291.067 456.71C290.175 460.242 290.668 463.858 292.501 467.241C294.335 470.624 297.454 473.671 301.584 476.116C355.186 508.849 587.778 485.625 712.732 473.141C745.706 469.855 770.517 467.377 782.109 466.955C784.172 464.788 786.292 462.659 788.384 460.547C794.695 454.495 800.326 448.17 805.235 441.62C822.404 417.276 830.22 394.695 829.784 370.535C829.174 336.884 806.048 300.13 783.678 264.569L775.746 251.92C772.696 246.964 769.558 241.438 766.217 235.581C751.139 209.035 732.342 175.989 700.094 161.064C689.432 156.217 681.849 154.161 675.661 154.161ZM768.309 491.28C778.797 493.776 790.098 490.123 796.751 486.121C803.404 482.119 806.571 477.217 804.479 473.876C802.387 470.534 795.996 468.901 785.653 468.79H783.794C776.78 475.721 771.553 483.312 768.309 491.28Z" fill="white"/>
<path d="M355.04 489.518C336.883 489.518 319.48 487.792 309.574 481.366C302.688 476.905 300.015 470.535 301.613 462.42C307.424 432 345.947 408.483 382.96 385.736C404.691 372.426 427.148 358.657 441.965 343.952C452.569 333.451 461.633 315.074 471.221 295.632C491.121 255.244 513.695 209.604 560.556 205.675C583.217 203.84 601.375 194.275 618.951 185.077C643.152 172.428 665.987 160.495 695.708 172.703C726.271 185.261 746.2 219.059 760.727 243.751C763.399 248.304 765.956 252.6 768.28 256.272C789.488 289.85 815.868 331.634 818.57 370.554C819.674 386.489 814.531 405.288 803.288 426.437C795.153 437.073 787.019 447.648 778.884 458.161C785.704 458.231 792.504 458.642 799.221 459.391C803.931 460.172 808.476 461.306 812.759 462.769C815.083 463.467 817.437 464.201 819.645 464.77L820.894 465.119L820.458 465.927C814.648 476.501 795.706 485.369 781.208 484.175C775.921 483.735 766.915 481.458 765.811 471.104V470.865L766.101 470.608C768.852 467.047 771.602 463.485 774.352 459.923C744.021 460.125 707.997 465.247 670.229 470.608C641.496 474.684 611.746 478.906 584.641 480.724C533.944 484.138 482.173 485.424 432.116 486.654C423.923 486.837 415.74 487.039 407.567 487.259C402.599 487.388 396.411 487.755 389.903 488.159C379.154 488.783 366.923 489.518 355.04 489.518ZM670.984 169.417C653.553 169.417 638.039 177.532 620.898 186.509C603.002 195.854 584.524 205.51 561.021 207.493C516.019 211.275 493.736 256.382 474.097 296.183C464.422 315.753 455.329 334.222 444.521 344.944C429.501 359.814 406.899 373.675 385.051 387.058C348.329 409.584 310.329 432.863 304.489 462.641C303.037 470.168 305.419 476.042 311.636 480.081C327.063 490.087 363.175 487.902 389.526 486.305C396.091 485.901 402.309 485.534 407.364 485.405C415.527 485.185 423.72 485.001 431.913 484.799C481.912 483.569 533.596 482.284 584.263 478.888C611.194 477.052 640.828 472.866 669.502 468.809C707.909 463.301 744.661 458.143 775.543 458.143H775.747C784.094 447.348 792.413 436.547 800.703 425.74C811.771 404.921 816.856 386.342 815.752 370.664C813.079 332.111 786.699 290.437 765.665 256.988C763.312 253.316 760.785 248.983 758.083 244.43C743.702 219.977 723.975 186.509 694.168 174.282C687.369 171.25 679.302 169.557 670.984 169.417V169.417ZM769.006 471.251C769.791 477.897 774.236 481.733 781.848 482.376C794.485 483.404 811.801 475.473 817.524 466.147C815.635 465.615 813.66 465.027 811.713 464.44C807.653 463.055 803.354 461.971 798.901 461.209V461.209C791.881 460.418 784.766 460.013 777.635 459.997C774.71 463.742 771.834 467.493 769.006 471.251Z" fill="white"/>
<path d="M349.491 489.15C338.713 489.15 329.155 487.865 322.967 484.322C316.779 480.779 313.67 474.61 315.21 466.569C320.817 437.581 357.248 411.824 392.489 386.893C412.825 372.39 432.32 358.712 445.655 344.668C454.37 335.489 462.621 320.325 471.424 304.279C491.761 267.085 517.123 220.803 563.171 217.461C584.292 215.938 600.939 206.446 617.354 197.267C639.782 184.6 660.932 172.63 689.839 184.6C713.575 194.421 734.899 227.687 747.653 247.57C749.483 250.434 751.11 252.967 752.505 255.06C776.24 290.547 801.894 331.689 804.654 370.719C806.222 392.4 795.27 414.78 785.799 429.779L785.595 429.981C778.291 436.091 772.898 443.026 769.704 450.414C782.804 449.708 795.995 450.116 808.924 451.625C813.313 452.461 817.512 453.652 821.417 455.169C823.538 455.903 825.746 456.656 827.75 457.28L829.377 457.757L828.273 458.657C816.013 468.827 797.303 474.592 782.748 472.719C776.124 471.856 767.525 469.048 764.097 460.401V460.254V460.107C764.473 457.539 765.104 454.988 765.985 452.47C739.838 453.792 710.437 457.629 681.53 461.392C654.54 464.899 626.679 468.534 601.52 470.167C577.552 471.746 553.09 472.995 529.441 474.188C495.305 475.932 460.006 477.731 425.492 480.54C419.682 480.999 411.867 482.229 402.715 483.643C386.301 486.029 366.284 489.132 349.491 489.15ZM666.307 181.405C649.631 181.405 635.221 189.538 619.271 198.552C602.682 207.915 585.541 217.59 563.491 219.206C519.273 222.4 494.259 268.076 474.184 304.775C465.294 320.986 456.927 336.297 448.037 345.568C434.557 359.796 415.121 373.546 394.523 388.105C359.66 412.834 323.49 438.389 317.999 466.79C316.546 474.133 318.841 479.641 324.768 482.963C339.759 491.353 375.639 485.772 401.844 481.697C411.082 480.265 419.043 479.035 425.086 478.557C459.687 475.748 495.014 473.949 529.18 472.205C552.828 470.994 577.261 469.745 601.2 468.185C626.214 466.551 654.017 462.934 680.891 459.428C711.396 455.462 740.826 451.625 766.682 450.377C769.897 442.579 775.504 435.256 783.184 428.824C792.539 414.009 803.317 391.942 801.777 370.627C798.872 332.074 773.48 291.024 749.861 255.666C748.466 253.591 746.956 251.039 744.98 248.157C733.185 229.798 711.251 195.56 688.27 186.032C681.837 183.147 674.192 181.537 666.307 181.405V181.405ZM766.973 459.942C769.413 465.945 775.078 469.69 783.329 470.755C796.199 472.426 813.427 467.193 824.874 458.253C823.276 457.739 821.649 457.17 820.022 456.619C816.386 455.196 812.482 454.068 808.401 453.259C795.401 451.804 782.15 451.464 769.006 452.249C768.055 454.782 767.376 457.352 766.973 459.942V459.942Z" fill="white"/>
<path d="M354.663 487.131C346.906 487.131 340.311 486.176 335.633 483.789C329.823 480.76 327.557 475.712 329.039 468.772C335.081 440.335 369.305 412.191 402.367 384.947C419.972 370.462 436.619 356.766 448.647 343.401C456.055 335.177 463.551 322.601 471.482 309.273C492.458 274.042 518.547 230.221 564.449 227.761C587.226 226.549 602.537 217.351 617.353 208.447C636.412 196.992 654.424 186.178 684.319 197.836C748.234 222.73 789.982 331.413 790.563 370.645C790.563 377.787 784.055 390.344 777.054 403.691C770.343 416.395 763.022 430.329 761.278 440.408C778.896 440.323 796.492 441.214 813.863 443.07C818.06 443.77 822.108 444.787 825.92 446.099C827.982 446.723 830.045 447.366 831.992 447.935L834.229 448.541L832.369 449.496C819.993 455.866 793.178 463.65 774.875 460.162C771.117 459.494 767.699 458.22 764.954 456.466C762.209 454.712 760.232 452.538 759.216 450.156C758.118 447.549 757.754 444.839 758.141 442.152C682.605 442.152 586.18 454.287 499.024 465.247C479.355 467.726 460.762 470.057 442.807 472.205C434.831 473.481 426.983 475.056 419.304 476.923C399.055 481.384 373.518 487.131 354.663 487.131ZM660.002 194.66C644.575 194.66 632.606 201.838 619.329 209.787C604.803 218.471 588.475 228.33 564.653 229.596C520.522 231.965 494.782 275.181 474.126 309.915C466.136 323.317 458.612 335.966 451.087 344.319C438.943 357.776 422.267 371.527 404.604 386.067C371.775 413.109 337.783 441.142 331.973 469.011C330.636 475.289 332.496 479.769 337.551 482.357C352.28 489.939 392.053 481.072 418.374 475.198C426.196 473.3 434.19 471.7 442.313 470.406C460.268 468.258 478.861 465.926 498.53 463.448C585.861 452.433 682.431 440.316 758.431 440.316C760.087 430.164 767.321 416.45 774.381 403.048C781.441 389.647 787.832 377.493 787.745 370.645C787.193 332.845 744.806 223.538 682.895 199.396C676.13 196.47 668.195 194.809 660.002 194.605V194.66ZM761.075 442.17C760.696 444.633 761 447.118 761.976 449.514C762.872 451.604 764.608 453.512 767.016 455.053C769.424 456.594 772.421 457.715 775.717 458.308C790.708 461.172 814.241 455.774 828.651 448.908C827.314 448.541 825.978 448.119 824.641 447.715C821.06 446.486 817.268 445.519 813.34 444.832C796.076 442.97 778.589 442.061 761.075 442.115V442.17Z" fill="white"/>
<path d="M363.291 481.495C358.007 481.713 352.754 480.836 348.329 478.998C343.71 476.74 341.879 473.031 342.896 467.983C348.707 438.701 381.565 407.601 413.29 377.53C427.264 364.275 440.454 351.736 450.738 339.932C456.549 333.359 462.359 324.308 469.274 313.807C490.22 281.918 518.924 238.262 564.507 236.114C584.844 235.159 599.021 226.604 612.734 218.343C631.356 207.107 648.962 196.514 678.421 208.557C738.734 233.213 777.199 335.232 776.414 369.985C776.414 372.334 773.19 379.164 768.745 388.472C762.498 401.671 753.87 419.993 752.562 430.403C772.97 430.197 793.354 431.366 813.369 433.891C816.67 434.501 819.849 435.351 822.84 436.424C824.438 436.938 826.065 437.471 827.576 437.893L830.19 438.627L827.721 439.527C815.734 443.641 802.528 446.141 788.936 446.87C776.966 447.421 760.784 446.485 751.662 438.774C749.906 436.806 749.165 434.541 749.541 432.294C665.58 432.808 557.273 448.376 473.283 460.456L459.57 462.438C452.096 463.9 444.762 465.634 437.607 467.634C415.091 473.38 383.715 481.495 363.291 481.495ZM653.814 205.051C638.968 205.051 627.463 211.991 614.768 219.738C600.677 228.238 586.122 237.013 564.739 238.096C520.958 240.153 492.661 283.222 472.005 314.67C465.061 325.208 459.076 334.295 453.324 340.96C442.981 352.838 429.733 365.395 415.73 378.705C384.209 408.593 351.612 439.508 345.801 468.35C344.901 472.793 346.324 475.859 350.13 477.694C364.453 484.652 409.571 472.995 436.532 466.037C443.835 463.989 451.324 462.217 458.96 460.731L472.673 458.767C556.924 446.668 665.348 431.064 749.715 430.549C750.79 421.076 757.763 405.527 766.014 388.086C770.023 379.568 773.509 372.206 773.538 370.095C774.206 335.654 736.38 234.572 676.881 210.246C670.159 207.117 662.125 205.309 653.785 205.051H653.814ZM752.592 432.22C752.231 434.078 752.779 435.962 754.16 437.618C768.687 449.955 805.815 444.631 823.886 438.774L821.62 438.04C818.863 437.048 815.939 436.254 812.904 435.672C792.991 433.177 772.716 432.02 752.417 432.22H752.592Z" fill="white"/>
<path d="M373.14 471.636C368.669 471.821 364.222 471.101 360.444 469.58C356.812 467.854 355.331 465.082 356.057 461.374C361.867 430.807 394.464 396.641 423.226 366.515C434.004 355.224 444.172 344.484 452.772 334.369C456.752 329.669 461.255 323.482 466.485 316.322C488.07 286.71 520.667 241.988 563.432 240.74C579.759 240.281 592.978 233.011 605.79 226.053C624.413 215.827 643.558 205.271 671.826 216.727C729.233 240.098 762.15 331.744 761.278 365.799C760.129 370.606 758.361 375.346 755.991 379.972C750.877 391.666 742.917 409.823 744.689 419.351C765.294 419.156 785.88 420.213 806.164 422.508C809.02 422.896 811.827 423.417 814.56 424.069L818.744 424.969L822.317 425.666L818.947 426.676C801.516 431.835 760.842 436.975 745.241 425.464C743.748 424.267 742.749 422.854 742.336 421.352C659.043 421.958 557.854 436.755 473.602 450.726C469.971 451.331 462.388 453.351 452.801 455.903C428.223 462.42 393.68 471.636 373.14 471.636ZM648.003 213.588C632.925 213.588 620.549 220.38 607.679 227.43C594.809 234.48 580.893 242.117 563.548 242.631C522.556 243.824 490.395 287.94 469.128 317.149C463.87 324.345 459.367 330.55 455.329 335.305C446.613 345.531 436.503 356.197 425.724 367.506C397.108 397.486 364.714 431.467 358.904 461.649C358.323 464.715 359.369 466.845 362.158 468.166C375.522 474.537 423.168 461.833 451.61 454.232C458.523 452.255 465.592 450.502 472.789 448.982C607.33 426.639 688.444 419.828 741.755 419.369C740.012 409.511 747.42 392.584 753.173 379.476C755.445 375.001 757.174 370.422 758.344 365.78C759.186 332.974 725.863 240.942 670.228 218.269C663.697 215.378 655.974 213.751 648.003 213.588V213.588ZM745.27 421.334C745.625 422.406 746.371 423.412 747.449 424.271C761.104 434.35 796.17 430.55 814.269 425.96L813.63 425.813C811.028 425.19 808.358 424.687 805.641 424.308C785.707 422.128 765.498 421.114 745.27 421.278V421.334Z" fill="white"/>
<path d="M385.167 459.005C380.926 459.195 376.696 458.554 373.053 457.17C371.241 456.271 369.857 455.074 369.052 453.71C368.247 452.347 368.053 450.869 368.491 449.441C373.256 417.552 404.167 383.35 431.448 353.021C439.669 343.842 447.455 335.269 454.399 326.897C457.101 323.648 460.209 319.792 463.579 315.349C484.497 288.491 519.563 243.549 561.369 241.915C575.896 241.383 588.068 235.765 599.951 230.349C618.602 221.812 637.922 212.982 664.97 224.842C718.891 248.598 745.677 328.935 745.241 357.978C745.241 362.054 744.835 366.295 744.457 370.829C743.382 384.304 742.249 398.147 748.873 406.757C763.669 406.857 778.439 407.563 793.09 408.868C795.734 409.088 798.523 409.474 801.254 409.823L805.263 410.355L810.028 410.924L805.554 412.099C782.021 418.231 765.462 418.929 754.916 414.21C751.722 412.767 749.089 410.884 747.217 408.703C663.982 408.354 566.192 423.243 486.676 437.159C483.771 437.691 476.682 439.6 467.879 442.024C443.795 448.743 406.55 459.005 385.167 459.005ZM639.113 220.931C625.459 220.931 613.78 226.274 601.636 231.818C589.492 237.362 576.825 243.163 561.544 243.733C521.422 245.22 486.821 289.629 466.165 316.065C462.679 320.527 459.686 324.382 456.985 327.65C449.983 336.058 442.197 344.705 433.975 353.847C406.84 383.937 376.103 418.103 371.367 449.514C370.986 450.625 371.099 451.781 371.693 452.853C372.288 453.926 373.342 454.874 374.738 455.591C388.625 461.924 439.408 447.898 466.717 440.371C475.956 437.82 482.638 435.965 485.892 435.396C617.353 412.393 694.69 406.5 745.677 406.757C739.373 397.688 740.477 384.047 741.552 370.756C741.929 366.276 742.278 362.054 742.336 358.015C742.859 329.247 716.421 249.828 663.314 226.439C656.364 223.04 647.896 221.113 639.113 220.931V220.931ZM750.645 408.758C752.201 410.318 754.224 411.671 756.601 412.742C765.607 416.762 779.843 416.413 799.947 411.548C797.506 411.218 795.008 410.906 792.713 410.704C778.767 409.514 764.717 408.876 750.645 408.795V408.758Z" fill="white"/>
<path d="M397.922 442.813C393.542 442.977 389.186 442.299 385.429 440.867C383.512 439.945 382.024 438.713 381.124 437.301C380.224 435.889 379.945 434.349 380.316 432.844C383.541 400.827 412.738 367.414 438.42 337.93C444.725 330.734 450.651 323.941 456.142 317.277L459.803 312.798C479.82 288.307 517.094 242.686 558.581 240.226C569.708 239.565 580.341 235.912 591.613 232.038C611.805 225.117 632.693 217.957 657.126 228.807C706.283 250.672 728.159 317.975 728.449 347.477C728.449 349.9 728.449 352.305 728.449 354.71C728.449 370.352 728.217 385.167 739.518 392.547C751.575 392.547 763.486 392.914 775.136 393.63C777.867 393.796 780.685 394.016 783.503 394.236L787.745 394.567L794.631 395.081L787.978 396.347C766.101 400.552 750.616 400.313 740.622 395.613C739.818 395.233 739.052 394.822 738.327 394.383H738.037C656.69 394.383 567.703 408.648 496.496 421.737C492.835 422.417 485.689 424.381 476.624 426.86C452.337 433.487 418.403 442.813 397.922 442.813ZM631.153 225.044C618.051 225.044 605.733 229.284 592.95 233.654C581.939 237.436 570.55 241.364 558.813 242.062C519.011 244.43 482.202 289.445 462.447 313.66L458.786 318.14C453.266 324.822 447.34 331.633 441.035 338.83C415.44 368.204 386.417 401.378 383.221 432.991C382.882 434.178 383.063 435.4 383.744 436.526C384.425 437.652 385.58 438.639 387.085 439.38C401.059 445.604 447.63 432.826 475.433 425.189C484.585 422.692 491.819 420.709 495.77 419.993C566.483 406.995 654.715 392.859 735.742 392.584C725.428 384.323 725.428 369.911 725.428 354.71C725.428 352.305 725.428 349.9 725.428 347.495C725.137 318.305 703.639 251.792 655.325 230.312C648.35 226.987 639.889 225.143 631.153 225.044V225.044ZM742.859 394.401C750.994 398.073 763.196 398.459 780.046 395.815L774.788 395.448C764.387 394.824 753.725 394.493 742.859 394.401Z" fill="white"/>
<path d="M411.431 423.133C406.589 423.305 401.776 422.564 397.602 421.003C395.57 420.054 393.965 418.785 392.946 417.323C391.927 415.862 391.529 414.257 391.792 412.668C392.634 382.524 419.885 350.837 443.911 322.895C448.937 317.039 453.702 311.513 458.147 306.097L458.467 305.73C476.334 283.92 513.666 238.574 555.269 236.169C565.47 235.285 575.443 233.557 584.931 231.029C604.716 226.402 625.14 221.629 648.643 232.516C692.396 252.802 709.856 311.072 711.105 334.534C711.105 336.26 711.28 338.022 711.338 339.785C711.919 354.288 712.529 369.287 725.602 376.08C734.977 376.08 744.215 376.355 753.318 376.906C756.078 377.071 758.925 377.328 761.801 377.567L766.072 377.934L773.364 378.521L766.276 379.733C747.595 382.928 733.998 382.34 724.731 377.897H724.586H723.946C654.86 377.897 578.278 390.895 505.037 404.462C501.086 405.197 494.404 406.922 485.95 409.107C463.289 414.963 431.68 423.133 411.431 423.133ZM618.487 227.706C607.418 227.706 596.784 230.184 585.832 232.754C576.103 235.341 565.875 237.1 555.414 237.986C515.293 240.3 478.484 285.058 461.052 306.574L460.733 306.941C456.259 312.449 451.523 317.956 446.468 323.758C422.587 351.534 395.51 383.001 394.697 412.705C394.454 413.998 394.759 415.308 395.581 416.502C396.403 417.695 397.712 418.729 399.374 419.498C413.9 425.776 458.321 414.284 484.846 407.436C493.387 405.233 500.128 403.489 504.224 402.718C576.855 389.28 652.594 376.392 721.361 376.08C709.595 368.314 709.013 353.848 708.432 339.822C708.432 338.077 708.287 336.315 708.2 334.589C706.98 311.402 689.839 253.812 646.929 234.003C638.818 229.966 628.811 227.75 618.487 227.706ZM730.076 377.952C736.991 380.119 746.113 380.504 757.734 379.091C756.107 378.962 754.509 378.834 752.911 378.742C745.416 378.301 737.804 378.026 730.076 377.952Z" fill="white"/>
<path d="M424.911 401.598C419.431 401.798 413.983 400.947 409.281 399.156C406.968 398.065 405.142 396.614 403.982 394.944C402.821 393.274 402.364 391.443 402.657 389.628C403.877 353.59 485.775 233.58 551.259 230.313C559.555 229.777 567.779 228.863 575.867 227.577C597.075 224.548 617.121 221.684 639.055 232.644C676.387 251.333 690.594 296.22 693.093 319.792C693.093 321.188 693.354 322.638 693.499 324.125C694.719 337.27 696.114 352.195 709.739 358.529C715.986 358.529 722.174 358.768 728.246 359.116C731.151 359.282 734.056 359.594 737.107 359.906C738.617 360.071 740.012 360.236 741.552 360.365L748.699 361.044L741.697 362.164C727.607 364.422 716.828 363.835 708.781 360.328H706.718C648.613 360.328 582.461 372.371 523.398 383.148L510.586 385.479C507.681 386.012 502.393 387.315 495.798 388.986C475.811 394.016 445.509 401.598 424.911 401.598ZM604.483 226.696C595.032 226.936 585.65 227.829 576.506 229.358C568.285 230.669 559.925 231.601 551.492 232.148C524.299 233.525 489.349 257.722 455.619 298.551C427.7 332.276 406.23 371.453 405.591 389.665C405.3 391.177 405.643 392.711 406.587 394.113C407.53 395.514 409.04 396.735 410.966 397.651C426.363 404.407 470.843 393.3 494.753 387.315C501.435 385.645 506.722 384.304 509.802 383.754L522.643 381.422C581.386 370.701 647.045 358.731 705.265 358.529C693.122 351.185 691.814 336.884 690.739 324.217C690.739 322.748 690.478 321.316 690.333 319.902C687.863 296.642 673.947 252.38 637.399 234.094C628.171 229.23 616.499 226.607 604.483 226.696V226.696ZM715.23 360.457C720.99 361.735 727.175 362.051 733.185 361.374C731.412 361.209 729.64 361.044 727.984 360.952C723.801 360.695 719.617 360.457 715.23 360.457Z" fill="white"/>
<path d="M438.333 377.236C432.14 377.468 425.981 376.508 420.669 374.483C418.265 373.362 416.34 371.88 415.067 370.172C413.794 368.464 413.213 366.583 413.377 364.697C413 347.22 430.809 312.706 455.561 282.598C473.196 261.192 508.553 225.044 547.076 223.226C582.897 221.537 611.95 226.696 633.419 238.574C658.143 252.251 672.088 274.208 674.848 303.839V305.216C675.894 316.8 677.346 332.753 690.856 339.216C691.782 339.647 692.753 340.04 693.761 340.391C696.221 340.391 698.661 340.446 701.082 340.556C704.394 340.666 707.997 340.96 711.454 341.253C713.197 341.4 714.969 341.547 716.683 341.657L725.718 342.3L716.799 343.475C708.884 344.797 700.488 344.349 693.035 342.208C644.75 341.676 591.845 351.149 540.539 360.328C531.359 361.98 522.294 363.596 513.404 365.138C510.238 365.689 505.473 366.717 499.982 367.91C482.841 371.655 457.246 377.236 438.333 377.236ZM560.004 224.75C555.85 224.75 551.637 224.86 547.279 225.062C484.584 228.018 415.585 332.203 416.283 364.587C416.108 366.187 416.573 367.788 417.634 369.245C418.695 370.701 420.318 371.966 422.354 372.922C437.316 379.568 475.985 371.086 499.082 366.111C504.631 364.899 509.453 363.853 512.707 363.302C521.568 361.76 530.632 360.144 539.813 358.492C589.725 349.57 641.176 340.354 688.59 340.28C674.645 333.066 673.163 317.02 672.088 305.252V303.875C669.386 274.759 655.761 253.224 631.647 239.877C613.228 229.854 589.202 224.75 560.004 224.75V224.75Z" fill="white"/>
<path d="M456.81 348.523C444.085 348.523 434.324 347.422 428.891 344.76C427.372 344.058 426.134 343.141 425.277 342.083C424.419 341.024 423.966 339.854 423.952 338.665C422.964 307.217 475.869 219.866 542.631 215.424C570.492 213.588 594.286 217.645 613.344 227.485C637.109 239.73 652.39 260.935 656.428 287.151L656.748 289.152C658.956 303.839 661.455 320.673 689.81 322.803L689.461 324.639C687.572 324.51 685.655 324.327 683.65 324.162C679.961 323.831 676.126 323.501 672.727 323.409C662.791 323.115 634.407 327.374 601.549 332.276C551.637 339.73 492.632 348.523 456.81 348.523ZM555.385 216.856C551.231 216.862 547.081 217.003 542.95 217.278C480.139 221.445 425.841 306.849 426.741 338.628C426.749 339.542 427.097 340.443 427.759 341.256C428.42 342.07 429.375 342.773 430.547 343.31C450.215 352.948 537.285 339.968 600.851 330.459C635.278 325.336 662.442 321.279 672.814 321.555H674.441C657.649 315.294 655.499 301.103 653.727 289.262L653.436 287.261C649.485 261.559 634.552 240.795 611.397 228.844C595.547 220.8 575.708 216.554 555.385 216.856Z" fill="white"/>
<path d="M470.785 324.327C457.915 324.327 447.543 323.134 441.238 320.214C439.267 319.327 437.639 318.169 436.477 316.827C435.315 315.485 434.648 313.995 434.527 312.467C432.988 298.092 445.161 272.721 464.074 250.746C474.678 238.409 503.178 209.512 538.244 207.566C571.277 205.73 593.85 216.195 606.982 225.282C624.473 237.964 635.304 253.763 637.981 270.499V270.499C640.682 285.884 642.455 296.036 663.953 303.765L669.764 305.821L663.169 305.473C661.077 305.362 658.927 305.216 656.748 305.069C652.691 304.736 648.608 304.54 644.517 304.481C634.523 304.481 612.298 307.822 586.413 311.696C547.483 317.461 501.725 324.327 470.785 324.327ZM544.694 209.218C542.631 209.218 540.568 209.218 538.506 209.402C485.398 212.339 434.353 283.497 437.433 312.357C437.517 313.615 438.059 314.844 439.017 315.949C439.974 317.054 441.321 318.004 442.953 318.727C463.289 328.219 534.119 317.589 585.774 309.805C611.688 305.913 634.058 302.554 644.401 302.554C648.323 302.554 652.71 302.866 656.952 303.141H657.213C639.317 295.192 637.487 284.782 635.046 270.591C628.016 229.927 584.437 209.218 544.694 209.218Z" fill="white"/>
<path d="M484.817 300.13C470.785 300.13 459.164 298.845 452.249 295.522C450.107 294.521 448.357 293.222 447.133 291.726C445.909 290.23 445.244 288.577 445.19 286.894C444.347 274.263 455.271 253.261 472.353 234.663C491.935 213.312 514.421 200.7 534.002 200.094C552.683 199.507 573.02 204.831 589.783 214.671C608.202 225.466 619.097 239.859 619.678 254.179C619.565 263.048 624.752 271.617 634.204 278.173C636.644 280.009 638.242 281.203 637.458 282.451C636.47 284.048 632.722 284.47 617.121 285.609C612.037 285.976 601.869 287.444 589.027 289.372C559.336 293.741 516.251 300.13 484.817 300.13ZM536.791 201.893H534.148C491.528 203.215 446.526 262.972 448.095 286.784C448.097 288.193 448.624 289.582 449.633 290.839C450.643 292.095 452.106 293.184 453.905 294.017C475.172 304.243 545.856 293.796 588.069 287.555C601.026 285.627 611.311 284.122 616.511 283.736C624.558 283.167 633.71 282.506 634.523 281.717C633.739 280.832 632.761 280.023 631.618 279.312C621.791 272.423 616.42 263.452 616.569 254.179C616.017 240.373 605.442 226.439 587.517 215.974C572.41 206.979 554.019 201.893 536.791 201.893Z" fill="white"/>
<path d="M496.467 276.392C482.783 276.392 470.988 275.144 463.783 271.748C461.548 270.727 459.694 269.409 458.354 267.887C457.014 266.364 456.219 264.674 456.026 262.936C454.167 249.112 471.889 223.189 493.997 207.456C506.374 198.644 518.837 193.852 529.993 193.632C563.316 192.898 598.847 215.295 601.607 238.794C602.268 245.301 604.736 251.683 608.899 257.648C610.73 260.439 611.805 262.146 610.526 263.615C608.87 265.451 604.135 266.075 591.003 267.287C586.355 267.727 579.673 268.608 571.945 269.618C550.853 272.482 520.726 276.392 496.467 276.392ZM531.33 195.449H530.022C519.68 195.651 507.943 200.223 496.118 208.649C474.445 224.089 457.043 249.35 458.873 262.752C459.02 264.233 459.685 265.674 460.821 266.973C461.956 268.271 463.534 269.394 465.439 270.261C484.439 279.201 538.796 272.097 571.306 267.929C579.063 266.919 585.832 266.093 590.509 265.579C600.648 264.606 606.895 263.927 607.941 262.77C608.551 262.073 607.534 260.531 606.139 258.401C601.876 252.225 599.34 245.628 598.644 238.904C595.826 214.487 559.83 195.449 531.388 195.449H531.33Z" fill="white"/>
<path d="M508.843 254.583C494.956 254.583 482.318 253.352 474.678 249.699C472.556 248.728 470.79 247.479 469.502 246.038C468.213 244.596 467.432 242.996 467.211 241.346C465.613 231.083 476.508 214.653 493.126 202.279C504.311 193.944 516.106 189.116 526.304 188.694C537.489 188.235 551.201 192.255 563.026 199.433C575.373 206.924 583.014 216.25 583.943 225.007C584.466 229.927 585.425 233.672 586.18 236.665C588.621 246.174 588.417 247.827 567.645 250.176L565.408 250.433C551.579 251.994 528.918 254.583 508.843 254.583ZM528.047 190.493H526.478C517.094 190.878 506.141 195.468 495.334 203.435C479.442 215.258 468.606 231.469 470.116 241.126C470.291 242.525 470.948 243.883 472.042 245.104C473.136 246.325 474.641 247.38 476.45 248.194C494.114 256.639 543.706 251.003 564.885 248.579L567.151 248.322C585.686 246.229 585.57 245.697 583.304 236.922C582.549 233.892 581.561 230.11 581.038 225.08C579.15 207.364 549.168 190.493 528.047 190.493V190.493Z" fill="white"/>
<path d="M515.147 236.297C504.224 236.297 493.533 235.269 486.618 231.946C484.401 230.892 482.562 229.554 481.22 228.02C479.878 226.486 479.064 224.789 478.832 223.042C475.927 206.226 497.861 187.812 523.137 185.866C527.635 185.475 532.212 185.66 536.594 186.411C540.977 187.162 545.075 188.462 548.645 190.236C558.319 195.027 564.943 203.417 566.831 213.257C569.737 228.936 569.737 231.965 547.802 234.204C537.022 235.448 526.103 236.148 515.147 236.297V236.297ZM527.872 187.519C526.426 187.52 524.98 187.575 523.544 187.684C500.127 189.52 479.065 207.236 481.766 222.84C481.939 224.341 482.624 225.8 483.772 227.119C484.92 228.437 486.505 229.582 488.419 230.478C502.074 237.032 532.666 233.892 547.395 232.313C566.657 230.349 566.948 228.862 563.984 213.404C562.212 204.041 555.995 196.11 546.931 191.612C541.505 188.911 534.779 187.467 527.872 187.519Z" fill="white"/>
<path d="M521.335 220.325C513.52 220.325 503.904 219.573 497.396 216.378C495.554 215.481 494.031 214.348 492.924 213.055C491.818 211.761 491.155 210.336 490.976 208.87C490.425 203.348 493.182 197.897 498.7 193.602C504.217 189.306 512.09 186.479 520.754 185.683C524.51 185.407 528.316 185.703 531.853 186.547C535.391 187.39 538.559 188.755 541.091 190.529C546.382 194.36 549.598 199.158 550.272 204.225C552.015 214.708 547.657 218.508 532.288 219.848C528.659 220.166 524.999 220.326 521.335 220.325ZM523.572 187.427C522.737 187.421 521.903 187.452 521.074 187.519C506.838 188.473 492.196 197.726 493.852 208.704C494.01 209.922 494.566 211.106 495.486 212.181C496.407 213.255 497.67 214.197 499.198 214.946C506.693 218.618 521.074 219.004 532.027 218.031C544.374 216.947 549.255 214.818 547.512 204.427C546.93 199.751 543.987 195.317 539.115 191.778C537.156 190.402 534.758 189.303 532.079 188.553C529.401 187.803 526.502 187.42 523.572 187.427V187.427Z" fill="white"/>
<path d="M520.638 207.511C516.018 207.586 511.5 206.645 507.855 204.849C506.656 204.214 505.676 203.43 504.976 202.546C504.277 201.662 503.872 200.696 503.788 199.709C503.602 196.962 505.114 194.277 508.003 192.221C510.893 190.166 514.934 188.901 519.273 188.693C527.523 188.345 534.235 192.512 534.845 198.405C535.426 203.692 530.923 206.997 522.468 207.438C521.887 207.487 521.277 207.511 520.638 207.511ZM520.231 190.529H519.476C515.9 190.69 512.564 191.725 510.177 193.415C507.79 195.105 506.54 197.317 506.693 199.58C506.743 200.316 507.026 201.038 507.525 201.703C508.024 202.368 508.729 202.964 509.598 203.454C513.176 205.137 517.627 205.904 522.062 205.602C529.005 205.235 532.288 202.866 531.823 198.534C531.446 193.889 526.478 190.529 520.231 190.529Z" fill="white"/>
<path d="M589.172 555.48L586.267 555.021C598.295 525.317 650.909 511.658 701.75 498.458C756.572 484.23 808.372 470.792 810.464 438.995C812.265 411.31 755.032 376.098 717.148 352.709C707.648 346.871 699.455 341.823 693.034 337.49C680.803 329.229 667.788 320.82 655.266 312.687C601.258 277.806 545.42 241.695 517.442 196.679L520.144 196.019C547.889 240.667 603.553 276.631 657.358 311.402C669.938 319.535 682.953 327.925 695.126 336.241C701.489 340.537 709.652 345.568 719.152 351.387C759.68 376.337 815.199 410.502 813.34 438.995C811.161 472.04 758.547 485.625 702.941 500.092C652.797 513.182 600.852 526.657 589.172 555.48Z" fill="white"/>
<path d="M672.465 582.999H669.56C671.071 551.147 712.122 530.732 751.836 510.979C791.551 491.225 829.551 472.297 827.082 443.291C824.176 409.584 755.642 366.864 710.262 338.647C700.181 332.368 691.466 326.934 684.522 322.289C672.378 314.156 659.624 305.95 647.306 298.001C599.37 267.14 549.807 235.214 517.559 197.028L520.115 196.166C552.073 234.186 601.462 266.02 649.369 296.789C661.716 304.738 674.47 312.963 686.643 321.096C693.557 325.722 702.244 331.138 712.296 337.398C757.995 365.707 827.111 408.721 830.016 443.07C832.543 473.05 794.223 492.124 753.637 512.3C714.446 531.852 673.918 552.01 672.465 582.999Z" fill="white"/>
<path d="M742.104 613.309C728.682 578.428 750.819 550.394 772.434 523.205C791.26 499.449 809.011 476.997 805.351 450.248C799.54 407.73 744.341 366.423 700.007 333.231L687.369 323.739C667.614 308.759 646.376 294.035 625.836 279.807C588.068 253.72 549.197 226.751 517.617 196.937L520.057 195.908C551.492 225.613 590.364 252.545 627.986 278.522C648.526 292.768 669.793 307.492 689.606 322.583C693.674 325.649 697.886 328.825 702.244 332.074C746.81 365.468 802.3 407.014 808.227 450.101C811.974 477.382 793.207 501.102 775.049 524.05C753.754 550.945 731.761 578.74 744.922 612.887L742.104 613.309Z" fill="white"/>
<path d="M821.998 592.766C817.901 589.443 813.805 586.267 809.854 583.165C787.513 565.742 768.222 550.688 764.91 526.143C763.196 513.549 766.334 501.12 769.355 489.114C772.376 477.107 775.427 464.972 773.829 452.635C763.428 372.904 664.68 302.627 577.552 240.63C556.198 225.429 536.036 211.073 517.704 197.01L519.97 195.835C538.244 209.879 558.406 224.217 579.731 239.4C667.149 301.617 766.246 372.151 776.734 452.488C778.361 465.045 775.253 477.419 772.231 489.389C769.21 501.359 766.13 513.622 767.815 525.978C771.04 549.972 790.069 564.824 812.12 582.008C816.1 585.111 820.167 588.305 824.264 591.628L821.998 592.766Z" fill="white"/>
<path d="M933.704 544.354C915.633 537.69 895.122 532.495 875.279 527.465C848.726 520.727 821.271 513.751 798.698 503.139C770.168 489.719 764.997 474.61 758.46 455.407C757.53 452.727 756.601 449.899 755.555 447.072C716.712 340.941 604.861 252.526 517.791 197.065L519.854 195.78C607.185 251.406 719.617 340.097 758.373 446.742C759.419 449.624 760.378 452.415 761.278 455.113C767.931 474.592 772.754 488.673 800.412 501.689C822.695 512.153 849.975 519.075 876.354 525.776C896.284 530.824 917.028 536.056 935.156 542.776L933.704 544.354Z" fill="white"/>
<path d="M1049.65 483.459C1031.09 481.807 1008.8 480.852 985.213 479.787C902.763 476.281 800.179 471.93 756.978 433.45C725.951 405.802 702.389 373.473 679.612 342.227C640.13 288.087 599.312 232.075 518.023 197.028L519.65 195.523C601.607 230.863 642.6 287.096 682.343 341.455C705.091 372.665 728.594 404.884 759.477 432.386C801.864 470.149 903.692 474.482 985.504 477.952C1009.15 478.961 1031.52 479.898 1050.17 481.623L1049.65 483.459Z" fill="white"/>
<path d="M1064.18 436.333C1042.8 435.378 1017.9 435.341 991.547 435.305C913.803 435.305 825.687 435.103 769.791 412.246C731.761 396.678 706.253 365.413 683.767 337.839C676.475 328.898 669.589 320.453 662.675 312.981C660.176 310.301 657.678 307.602 655.18 304.885C617.964 264.625 579.498 223.006 517.995 197.194L519.622 195.651C581.677 221.702 620.317 263.578 657.678 303.967L665.173 312.045C672.146 319.572 679.031 328.035 686.353 336.994C708.665 364.367 733.969 395.411 771.36 410.704C826.559 433.285 914.21 433.377 991.547 433.469C1017.93 433.469 1042.85 433.469 1064.35 434.497L1064.18 436.333Z" fill="white"/>
<path d="M1012.14 396.696C987.509 395.228 960.635 395.301 932.222 395.375C879.405 395.522 824.729 395.668 780.279 385.718C733.94 375.345 703.203 344.117 676.068 316.561C670.432 310.833 665.115 305.418 659.828 300.387C653.407 294.274 646.987 287.922 640.77 281.772C607.795 249.075 573.717 215.259 518.169 197.322L519.505 195.707C575.751 213.955 610.061 247.974 643.239 280.872C649.427 287.022 655.848 293.374 662.239 299.469C667.556 304.518 672.872 309.934 678.538 315.68C705.411 342.979 735.858 373.913 781.237 384.066C825.281 393.924 879.637 393.777 932.309 393.631C960.81 393.631 987.741 393.484 1012.52 394.952L1012.14 396.696Z" fill="white"/>
<path d="M789.982 354.233C786.271 354.248 782.563 354.101 778.884 353.792C734.056 349.717 699.92 320.178 672.495 296.44C667.73 292.309 663.227 288.417 658.927 284.874C651.635 278.889 644.401 272.702 637.574 266.717C604.018 237.656 572.322 210.21 518.459 197.285L519.505 195.559C574.298 208.686 606.255 236.352 640.072 265.634C646.958 271.601 654.105 277.788 661.368 283.754C665.696 287.316 670.083 291.208 674.993 295.357C702.07 318.819 735.829 348.009 779.581 351.975C795.647 353.425 816.158 351.002 836.03 348.652C849.251 346.86 862.66 345.676 876.151 345.109C888.353 344.87 900.7 344.925 912.641 344.962C936.144 345.072 960.432 345.182 984.284 342.997L984.69 344.833C960.606 347.036 936.231 346.926 912.641 346.816C900.7 346.816 888.382 346.724 876.238 346.963C862.892 347.528 849.629 348.707 836.553 350.488C820.458 352.323 804.218 354.233 789.982 354.233Z" fill="white"/>
<path d="M743.557 303.16C706.021 303.16 677.201 283.351 651.461 265.635C648.323 263.487 645.273 261.375 642.222 259.338C636.121 255.244 630.282 251.186 624.646 247.258C593.472 225.576 566.541 206.869 518.401 197.304L519.273 195.468C568.168 205.198 595.332 224.071 626.766 245.954C632.402 249.865 638.242 253.922 644.198 257.997C647.103 260.035 650.328 262.165 653.465 264.331C681.82 283.828 713.952 305.932 756.892 300.369C768.919 298.809 779.087 294.861 788.849 291.08C800.47 286.527 812.788 281.9 828.447 280.927C845.704 279.954 861.218 283.718 876.238 287.371C884.854 289.615 893.72 291.456 902.763 292.879L902.153 294.715C892.959 293.272 883.948 291.401 875.192 289.115C859.824 285.443 845.298 281.772 828.709 282.8C813.718 283.663 801.835 288.307 790.36 292.677C780.308 296.569 770.023 300.589 757.385 302.205C752.837 302.812 748.205 303.132 743.557 303.16V303.16Z" fill="white"/>
<path d="M685.568 259.962C674.819 259.962 663.343 257.226 649.253 251.829C631.397 244.764 614.731 236.564 599.515 227.357C577.087 214.506 557.738 203.491 518.488 197.322L519.186 195.486C559.161 201.765 578.743 212.982 601.462 225.961C616.561 235.097 633.111 243.224 650.85 250.213C680.92 261.724 697.741 260.824 722.813 246.376C734.4 239.457 744.934 231.866 754.277 223.703C766.275 213.753 775.746 205.914 788.878 205.565C801.399 205.271 816.507 211.844 838.063 226.971L835.826 228.275C814.938 213.588 800.441 207.217 788.936 207.474C777.431 207.731 768.599 214.965 756.514 224.897C747.077 233.145 736.436 240.816 724.73 247.808C710.466 255.959 698.554 259.962 685.568 259.962Z" fill="white"/>
<path d="M645.302 235.838C640.928 235.811 636.573 235.478 632.315 234.847L631.85 234.737C612.851 227.167 594.69 218.789 577.493 209.659C562.561 198.442 542.95 194.33 519.127 197.322L518.546 195.486C543.502 192.347 564.042 196.68 579.556 208.337C596.529 217.341 614.447 225.609 633.187 233.085C663.837 237.289 672.465 226.163 684.406 210.779L687.05 207.383C692.105 200.975 695.765 192.072 699.833 182.654C707.125 165.397 715.405 145.936 734.114 137.712C758.954 126.88 785.334 136.684 808.604 145.331C814.415 147.497 819.993 149.553 825.368 151.242L824.089 152.894C818.598 151.15 813.049 149.094 807.152 146.909C783.503 138.134 759.07 129.065 735.741 139.217C717.932 146.983 709.798 166.186 702.651 183.131C698.612 192.641 694.836 201.636 689.664 208.209L687.021 211.587C676.678 224.915 668.224 235.838 645.302 235.838Z" fill="white"/>
<path d="M627.086 223.042C619.883 222.847 612.734 222.164 605.762 221.005H605.442C586.391 214.901 569.081 206.835 554.223 197.138L518.866 197.396V195.56L555.501 195.284L555.937 195.578C570.626 205.222 587.773 213.24 606.662 219.297C639.172 223.979 642.484 222.363 656.603 195.266C660.315 187.499 663.227 179.588 665.319 171.583C669.793 156.437 674.412 140.796 687.66 128.955C714.272 105.089 750.413 109.495 788.675 114.084L799.889 115.388L799.366 117.224L788.152 115.92C750.82 111.459 715.521 107.236 690.042 130.056C677.172 141.567 672.611 157.007 668.195 171.951C666.106 180.016 663.195 187.988 659.479 195.817C648.672 216.176 643.82 223.042 627.086 223.042Z" fill="white"/>
<path d="M603.931 222.602C594.78 222.602 586.5 217.26 576.855 211.146C561.805 201.545 544.752 190.658 519.389 197.267L518.285 195.578C545.449 188.492 564.013 200.333 578.917 209.861C588.795 216.158 597.307 221.629 605.994 220.656C613.635 219.811 621.392 213.9 629.672 202.591C640.014 188.492 645.011 175.329 649.456 163.708C659.566 137.143 667.585 116.159 730.512 103.436L731.384 105.272C670.025 117.683 662.588 137.198 652.274 164.222C647.8 175.934 642.745 189.189 632.315 203.454C623.6 215.515 615.262 221.574 606.517 222.547C605.659 222.61 604.794 222.628 603.931 222.602V222.602Z" fill="white"/>
<path d="M588.882 234.884L587.953 234.205C583.011 230.343 578.469 226.283 574.356 222.051C559.249 207.364 540.452 189.006 519.738 197.194L518.227 195.651C541.469 186.472 560.992 205.675 576.796 221.041C580.613 224.935 584.754 228.698 589.202 232.314C611.921 219.591 608.783 198.754 605.733 178.578C604.832 172.501 603.96 166.773 603.844 161.358C602.647 127.266 607.116 93.1895 617.179 59.6877L620.084 60.0366C610.067 93.418 605.617 127.371 606.807 161.339C606.807 166.663 607.795 172.354 608.696 178.413C611.601 198.387 615.116 221.023 590.015 234.315L588.882 234.884Z" fill="white"/>
<path d="M558.435 243.127L557.302 241.456C546.553 225.539 536.414 209.2 527.088 192.898L519.825 197.102L517.849 195.743L528.366 189.685L529.092 190.97C538.244 207.089 548.238 223.244 558.813 239.014C571.451 223.538 561.718 201.875 553.206 182.672C550.707 177.164 548.354 171.859 546.727 167.086L544.141 159.54C528.831 115.021 514.392 72.9794 504.282 28.4965L507.187 28.2395C517.268 72.6489 531.707 114.672 546.989 159.155L549.603 166.7C551.201 171.418 553.554 176.65 556.024 182.176C565.059 202.371 575.315 225.337 559.917 241.566L558.435 243.127Z" fill="white"/>
<path d="M527.32 250.599C513.433 209.659 492.051 168.995 471.395 129.652C459.454 106.98 447.136 83.5356 436.387 60.312L439.292 59.798C450.012 82.9849 462.33 106.41 474.155 129.083C489.756 158.732 505.735 189.134 518.634 219.848C516.765 212.06 516.355 204.161 517.414 196.312L520.319 196.533C517.646 210.632 524.008 231.634 530.197 250.232L527.32 250.599Z" fill="white"/>
<path d="M503.526 275.438L501.057 274.226C483.451 265.487 473.138 253.077 470.436 237.362C442.313 199.084 414.249 160.256 387.056 121.703L389.699 120.95C416.921 159.503 444.899 198.46 473.167 236.756V237.05C475.636 251.572 484.788 263.137 500.214 271.509C499.895 268.553 499.314 264.918 498.675 260.843C494.927 237.637 489.262 202.572 518.198 195.596L519.244 197.322C492.37 203.784 498.123 239.381 501.551 260.641C502.364 265.763 503.09 270.169 503.294 273.492L503.526 275.438Z" fill="white"/>
<path d="M475.578 314.762L473.69 314.119C424.969 297.597 390.716 253.793 360.386 215.203C349.753 201.618 339.671 188.767 329.881 178.321L332.35 177.385C342.228 187.886 352.338 200.755 363 214.396C392.634 252.214 426.16 295.026 473.08 311.825C473.719 307.272 473.864 300.295 474.038 291.63C474.648 260.971 475.578 214.634 499.982 200.021C502.438 198.479 505.375 197.278 508.606 196.494C511.838 195.71 515.293 195.361 518.75 195.468V197.304C515.678 197.195 512.605 197.5 509.735 198.2C506.865 198.899 504.263 199.977 502.103 201.361C478.57 215.424 477.612 263.138 477.06 291.649C476.856 301.25 476.711 308.832 475.869 313.367L475.578 314.762Z" fill="white"/>
<path d="M438.478 353.315C410.123 353.315 344.959 296 284.153 239.015C276.454 231.818 270.905 226.604 268 224.126L270.324 223.043C273.229 225.539 278.836 230.771 286.564 237.986C321.746 271.032 415.178 358.492 441.761 351.075C452.627 348.028 457.537 299.102 459.193 283.02C459.628 278.798 459.89 276.264 460.064 275.511C461.11 271.454 461.982 266.718 462.969 261.724C467.879 235.031 474.59 198.497 518.808 195.505L519.098 197.34C477.176 200.168 470.639 235.894 465.875 261.926C464.945 266.956 464.073 271.693 462.969 275.787C462.795 276.466 462.505 279.257 462.127 283.13C458.844 315.827 453.992 349.68 443.01 352.746C441.581 353.138 440.036 353.332 438.478 353.315Z" fill="white"/>
<path d="M400.885 388.398C376.975 388.398 300.16 329.522 229.302 273.675C214.776 262.201 204.201 253.903 200.25 251.205L202.37 249.938C206.496 252.692 216.896 260.953 231.655 272.537C277.354 308.557 384.412 392.878 403.063 386.36C425.172 378.43 431.448 347.697 436.009 325.263C437.403 318.379 438.623 312.412 440.105 307.969C442.313 301.268 444.202 294.347 446.206 287.022C455.735 252.031 466.543 212.376 518.401 195.67L519.737 197.322C469.186 213.588 458.495 252.765 449.053 287.279C447.049 294.623 445.16 301.544 442.923 308.281C441.471 312.687 440.279 318.599 438.885 325.447C434.237 348.266 427.874 379.513 404.487 387.866C403.39 388.255 402.141 388.44 400.885 388.398Z" fill="white"/>
<path d="M360.473 421.701C331.159 421.701 303.182 396.77 282.41 378.283C277.413 373.84 273.113 370.003 269.365 367.029C227.472 333.984 191.273 309.934 152.023 289.28L153.882 287.885C193.277 308.612 229.593 332.662 271.631 365.964C275.437 368.975 279.766 372.83 284.792 377.292C305.128 395.448 335.953 422.876 365.412 419.682C398.328 416.12 411.605 372.739 419.565 346.835C421.454 340.629 423.11 335.25 424.708 331.285C428.281 322.399 431.477 313.036 434.585 303.967C448.618 262.936 463.144 220.509 517.995 195.743L519.68 197.249C465.759 221.592 451.349 263.67 437.433 304.353C434.324 313.44 431.099 322.822 427.526 331.725C425.928 335.654 424.301 340.997 422.413 347.183C413.697 375.272 400.798 417.717 365.906 421.499C364.106 421.657 362.29 421.724 360.473 421.701Z" fill="white"/>
<path d="M335.837 455.646C310.561 455.646 284.153 435.984 266.286 422.6C263.7 420.673 261.318 418.929 259.197 417.386C251.789 412.081 244.671 406.794 237.815 401.69C206.932 378.815 177.763 357.097 131.628 342.796L132.907 341.143C179.594 355.628 208.937 377.457 240.022 400.57C246.879 405.674 253.997 410.961 261.376 416.248C263.497 417.754 265.879 419.534 268.494 421.48C286.099 434.607 315.587 456.582 340.834 453.516C376.743 449.184 398.212 395.466 407.393 372.518C408.729 369.214 409.775 366.607 410.588 364.789C416.718 351.351 421.628 337.251 426.858 322.454C443.505 275.089 460.704 226.127 517.908 195.78L519.767 197.175C463.318 227.191 446.236 275.842 429.705 322.913C424.475 337.802 419.537 351.865 413.377 365.358C412.564 367.194 411.547 369.728 410.211 373.032C400.914 396.311 379.096 450.817 341.357 455.389C339.534 455.583 337.686 455.669 335.837 455.646V455.646Z" fill="white"/>
<path d="M325.116 479.953C287.552 479.953 254.926 453.883 223.259 428.548C198.245 408.611 174.626 389.83 149.35 383.313L150.425 381.624C176.572 388.215 200.279 407.326 225.525 427.52C260.388 455.297 296.238 484.01 337.638 477.089C379.037 470.167 398.648 415.202 410.588 382.303C412.854 376.006 414.801 370.554 416.544 366.57C422.354 353.223 427.119 339.564 432.203 325.079C448.647 278.192 465.642 229.615 517.791 195.78L519.883 197.065C468.286 230.606 451.378 278.834 435.05 325.483C430.169 339.344 425.172 353.664 419.333 367.066C417.619 371.013 415.672 376.428 413.523 382.707C401.524 416.028 381.565 471.765 338.51 478.869C334.137 479.591 329.636 479.955 325.116 479.953V479.953Z" fill="white"/>
<path d="M333.019 486.874C325.756 486.88 318.634 485.608 312.45 483.202C277.325 469.837 265.966 422.362 257.599 387.737C255.636 378.116 252.901 368.563 249.406 359.116L252.311 358.621C255.847 368.158 258.61 377.802 260.591 387.517C268.726 421.811 279.998 468.772 313.96 481.623C324.158 485.515 336.011 486.011 349.23 483.11C392.111 473.656 410.53 423.133 422.703 389.702C425.085 383.148 427.177 377.475 429.153 372.793C436.154 356.399 441.936 339.564 447.543 323.225C462.534 279.679 478.019 234.645 517.617 195.817L520.057 196.808C480.721 235.361 465.294 280.229 450.332 323.611C444.725 339.932 438.914 356.803 431.913 373.179C429.937 377.842 427.874 383.478 425.492 390.032C413.145 423.849 394.522 474.959 350.131 484.744C344.657 486.058 338.872 486.778 333.019 486.874V486.874Z" fill="white"/>
<path d="M343.448 486.525C338.27 486.584 333.172 485.712 328.748 484.01C301.09 473.123 306.872 429.944 310.677 401.396C311.52 395.007 312.275 389.463 312.479 385.314H315.384C315.181 389.518 314.425 395.081 313.583 401.506C309.806 429.613 304.141 472.132 330.288 482.412C340.921 486.598 356.435 484.909 376.278 477.346C425.492 458.675 442.139 411.916 454.312 377.787C455.213 375.217 456.113 372.72 456.985 370.297C464.451 349.772 469.332 328.769 474.067 308.446C482.783 270.885 491.877 232.038 517.646 196L520.319 196.771C494.84 232.552 485.805 271.27 477.089 308.759C472.353 329.118 467.444 350.157 459.977 370.756C459.077 373.161 458.205 375.657 457.275 378.227C445.015 412.687 428.223 459.868 377.933 478.961C364.54 483.991 353.036 486.525 343.448 486.525Z" fill="white"/>
<path d="M295.716 502.736L295.483 500.9C371.746 497.228 407.916 481.623 430.925 468.497C505.241 426.052 503.875 363.504 502.539 303.012C501.755 266.295 500.912 228.44 517.443 196.147L520.348 196.698C503.934 228.715 504.776 266.46 505.56 302.994C506.897 363.89 508.291 426.841 432.93 469.855C388.422 495.245 336.128 500.771 295.716 502.736Z" fill="white"/>
<path d="M313.67 590.214L311.316 589.131C334.791 568.937 360.328 547.531 391.588 528.731C407.889 519.307 424.967 510.434 442.749 502.148C470.058 488.93 498.297 475.271 518.488 458.712C555.646 428.2 556.256 391.06 551.782 358.731C549.487 341.804 541.498 322.565 533.043 302.205C517.617 265.029 501.696 226.604 517.442 196.129L520.348 196.716C504.863 226.678 520.696 264.827 536.007 301.727C544.49 322.179 552.479 341.492 554.804 358.639C559.249 391.299 558.697 428.879 520.929 459.868C500.592 476.648 472.121 490.38 444.666 503.654C426.971 511.904 409.972 520.734 393.738 530.108C362.507 548.761 337.057 570.038 313.67 590.214Z" fill="white"/>
<path d="M391.123 613.53L388.596 612.649C415.498 581.769 451.261 555.26 504.543 526.712C514.683 521.204 526.042 515.862 538.099 510.189C573.165 493.465 612.908 474.519 629.468 450.671C662.878 402.461 620.055 355.683 578.627 310.429C544.694 273.345 509.598 235.012 517.384 196.386L520.29 196.606C512.62 234.627 547.454 272.684 581.3 309.511C623.077 355.151 666.277 402.351 632.257 451.405C615.407 475.693 575.344 494.786 539.987 511.658C527.989 517.367 516.745 522.783 506.577 528.181C453.411 556.508 417.851 582.853 391.123 613.53Z" fill="white"/>
<path d="M491.47 583.44L488.971 582.504C519.331 550.229 561.892 531.246 614.361 509.785C621.595 506.829 630.223 503.653 639.346 500.275C678.944 485.588 728.188 467.432 736.758 442.795C747.13 412.833 703.348 377.291 671.39 351.332C665.841 346.834 660.583 342.575 656.109 338.738C644.488 328.714 631.502 318.544 618.98 308.63C575.576 274.428 530.69 239.051 517.297 196.643L520.202 196.276C533.334 238.28 577.987 273.492 621.188 307.529C633.739 317.405 646.696 327.631 658.404 337.673C662.849 341.492 668.079 345.751 673.627 350.249C705.934 376.483 750.209 412.411 739.518 443.217C730.802 468.643 680.832 487.076 640.74 501.964C631.618 505.324 623.047 508.5 615.843 511.437C563.781 532.66 521.51 551.514 491.47 583.44Z" fill="white"/>
</svg>
