<svg width="1142" height="689" viewBox="0 0 1142 689" fill="none" xmlns="http://www.w3.org/2000/svg">
<rect width="1140.77" height="687.294" transform="matrix(1 -0.00105741 0.00105977 0.999999 0 1.20654)" fill="#F1DD95"/>
<path d="M362.524 659.842C343.194 659.842 326.627 655.695 313.87 647.438C291.393 633.02 279.409 606.335 278.166 568.096C277.945 560.413 281.424 545.382 285.87 526.361C297.661 475.718 315.499 399.18 278.138 385.65C262.979 380.179 231.196 388.732 200.656 397.027C170.116 405.323 141.427 413.026 128.863 407.12C126.773 406.054 125.081 404.638 123.936 402.995C122.79 401.353 122.225 399.534 122.291 397.699C121.076 381.147 120.385 324.144 162.882 286.201C178.649 272.177 200.104 262.756 220.924 253.69C238.044 246.243 255.744 238.54 270.241 228.269C310.031 200.084 342.449 161.43 368.902 127.338C374.121 120.623 379.506 112.13 385.194 103.162C406.511 69.5846 433.019 27.6519 480.707 28.4617C529.72 29.3111 573.956 52.3612 616.756 74.6411C643.154 88.4672 670.436 102.609 698.297 111.241C708.311 114.164 718.658 116.463 729.224 118.114C752.032 122.065 771.72 125.541 782.462 147.742C791.657 166.861 793.093 186.001 794.501 204.508C796.461 230.323 798.311 254.736 819.353 279.564C831.944 294.477 853.565 307.947 876.484 322.208C912.381 344.527 949.382 367.637 951.508 397.56C952.806 415.831 969.595 429.163 985.831 442.219C1004.36 457.033 1023.52 472.34 1018.55 494.6C1010.77 529.442 936.846 563.612 887.916 586.228C876.87 591.364 867.261 595.788 859.557 599.659C851.853 603.53 842.796 608.646 833.325 613.959C793.175 636.516 743.196 664.603 700.424 657.67C675.02 653.561 654.089 639.735 633.849 626.363C609.825 610.562 587.127 595.492 558.879 597.269C530.079 599.086 501.748 612.518 471.76 626.719C439.95 641.789 407.063 657.373 371.581 659.546C368.433 659.763 365.423 659.842 362.524 659.842ZM265.878 381.976C270.497 381.876 275.084 382.552 279.27 383.952C318.453 398.133 300.422 475.54 288.466 526.736C284.186 545.599 280.817 560.551 280.817 568.057C282.032 605.723 293.74 631.933 315.582 645.957C329.775 655.082 348.469 658.993 371.139 657.591C405.904 655.477 438.487 640.032 470.021 625.099C500.395 610.74 528.919 597.19 558.382 595.334C587.845 593.477 611.013 608.745 635.478 624.961C655.442 638.155 676.096 651.804 700.782 655.813C742.202 662.529 791.684 634.778 831.364 612.458C840.863 607.125 849.837 602.089 857.707 598.119C865.577 594.148 875.048 589.764 886.176 584.628C934.664 562.21 1007.98 528.336 1015.57 494.344C1020.32 473.012 1002.45 458.791 983.512 443.602C966.944 430.368 949.824 416.7 948.498 397.738C946.427 368.605 909.84 345.791 874.413 323.749C851.328 309.389 829.542 295.82 816.729 280.651C795.44 255.428 793.479 229.632 791.602 204.706C790.221 186.337 788.84 167.335 779.7 148.492C769.566 127.2 751.508 124.04 728.589 120.09C717.859 118.416 707.354 116.076 697.193 113.097C669.083 104.288 641.636 90.0671 615.127 76.2409C572.686 54.1389 528.781 31.2072 480.624 30.4369C434.842 29.5876 408.692 70.8487 387.707 103.972C381.991 112.999 376.661 121.512 371.332 128.306C344.768 162.516 312.213 201.387 272.202 229.672C257.456 240.12 239.618 247.863 222.498 255.349C201.871 264.316 180.526 273.599 165.063 287.425C123.036 324.835 123.727 381.206 124.942 397.6C124.843 399.128 125.275 400.649 126.2 402.028C127.126 403.407 128.515 404.6 130.243 405.501C141.758 410.873 171.193 402.913 199.662 395.21C223.768 388.712 248.51 381.976 265.989 381.976H265.878Z" fill="white"/>
<path d="M366.058 649.433C346.37 649.433 329.913 645.147 317.1 636.634C291.144 619.45 284.766 588.322 283.965 565.252C283.606 554.487 287.168 538.073 291.31 519.072C301.471 472.32 315.416 408.325 273.279 394.459C261.819 390.706 236.498 396.434 212.005 401.985C184.172 408.463 155.15 414.922 142.283 408.7C140.178 407.619 138.457 406.2 137.258 404.557C136.059 402.914 135.416 401.092 135.379 399.239C132.204 369.296 140.902 327.165 175.197 298.723C191.158 285.43 212.447 277.115 233.019 269.096C251.271 261.985 270.103 254.618 285.484 243.794C324.666 216.043 351.423 178.278 373.403 145.036C377.656 138.597 382.184 130.281 386.989 121.472C406.318 85.919 432.826 37.2707 481.618 39.0483C525.054 40.6285 565.838 60.1036 605.297 78.9269C627.387 89.415 650.058 100.278 672.866 107.784C684.928 111.401 697.514 114.05 710.392 115.685C736.072 119.635 760.344 123.368 770.312 145.312C778.817 163.938 781.91 182.465 784.892 200.38C789.503 228.15 793.866 254.361 816.702 280.907C828.437 294.536 847.076 307.651 867.123 321.536C900.48 344.843 934.996 368.94 938.144 397.619C939.939 413.974 954.159 426.97 967.91 439.532C983.926 454.149 1000.47 469.259 996.656 489.405C989.725 526.242 924.144 557.154 876.291 579.71C865.936 584.589 856.188 589.191 848.015 593.358C840.863 597.032 832.8 601.614 824.295 606.454C785.002 628.773 736.1 656.563 692.388 645.779C669.525 640.15 650.085 628.141 631.281 616.527C608.555 602.483 587.1 589.23 561.724 588.144C532.951 586.959 503.736 601.2 472.948 616.29C440.972 631.854 407.975 648.011 371.36 649.433C369.565 649.433 367.798 649.433 366.058 649.433ZM263.642 391.319C267.349 391.222 271.042 391.7 274.466 392.721C318.481 407.179 304.84 469.417 294.071 519.408C289.957 538.31 286.395 554.645 286.754 565.232C287.527 587.946 293.74 618.561 318.95 635.232C332.37 644.12 349.96 648.189 371.194 647.418C407.091 646.056 439.73 630.076 471.319 614.591C502.908 599.106 532.095 584.845 561.807 586.228C588.122 587.334 609.936 600.805 632.993 615.065C651.604 626.561 670.85 638.451 693.189 643.962C735.492 654.371 783.732 626.976 822.501 604.933C831.033 600.094 839.068 595.491 846.331 591.798C854.614 587.591 864.334 582.989 874.689 578.09C922.101 555.751 987.074 525.136 993.839 489.208C997.484 469.891 982.021 455.768 965.674 440.816C951.646 428.017 937.177 414.784 935.3 397.837C932.235 369.888 898.105 346.068 865.107 323.018C845.088 309.033 826.173 295.839 814.272 281.993C791.105 255.092 786.521 227.42 782.075 200.676C779.093 182.899 776.028 164.412 767.606 145.984C758.107 125.205 735.685 121.748 709.619 117.759C696.538 116.082 683.758 113.373 671.513 109.68C648.539 102.115 625.675 91.1926 603.557 80.665C564.43 61.98 523.949 42.6826 481.287 41.1618C434.538 39.4829 408.389 87.3608 389.364 122.341C384.559 131.17 380.003 139.505 375.695 146.043C353.605 179.423 326.737 217.386 287.334 245.354C271.787 256.376 252.762 263.802 234.344 271.031C213.994 278.932 192.925 287.208 177.296 300.224C143.663 328.212 135.02 369.75 138.141 399.298C138.16 400.842 138.684 402.36 139.672 403.732C140.66 405.104 142.084 406.292 143.829 407.199C155.592 412.887 183.84 406.488 211.177 400.286C231.114 395.644 250.194 391.319 263.642 391.319Z" fill="white"/>
<path d="M370.503 638.866C351.174 638.866 335.242 634.916 322.678 627.134C302.879 614.848 291.779 593.181 289.542 562.744C288.824 552.354 291.641 537.067 294.899 519.29C303.183 474.612 313.317 419.011 273.913 405.205C260.631 400.563 237.216 405.205 214.573 409.609C190.798 414.29 168.321 418.715 156.365 413.105C154.07 411.96 152.156 410.467 150.758 408.733C149.359 406.999 148.512 405.066 148.274 403.071C142.752 375.656 155.536 334.632 190.605 309.231C206.565 297.677 226.502 290.744 245.831 284.028C265.16 277.313 284.489 270.617 300.449 259.378C338.638 232.417 362.054 194.968 381.631 158.527C384.393 153.332 387.485 146.814 390.716 139.92C407.726 103.637 433.406 48.8062 483.33 51.1369C522.623 52.9343 559.984 69.0516 596.101 84.5369C619.904 94.788 644.535 105.395 669.745 112.031C681.261 114.845 693.197 116.688 705.311 117.522C727.097 119.497 745.957 121.295 758.88 141.224C765.507 151.455 766.832 164.235 768.13 176.619C768.765 182.702 769.345 188.47 770.533 193.783C778.375 228.803 792.181 256.988 814.023 282.448C825.068 295.366 841.387 307.928 858.646 321.221C889.296 344.784 920.968 369.158 924.723 397.482C926.684 412.177 938.53 424.976 950.044 437.341C965.591 454.05 981.661 471.353 972.135 493.04C957.003 527.527 902.854 554.092 859.363 575.444C850.665 579.71 842.437 583.74 834.871 587.65C828.63 590.87 821.617 594.84 814.216 599.047C781.081 617.831 735.657 643.567 696.916 636.16C682.337 633.356 669.745 624.31 657.568 615.54C652.432 611.68 646.992 608.034 641.276 604.617C616.977 590.969 596.267 580.421 569.289 579.335C540.516 578.17 510.888 591.937 479.519 606.533C448.151 621.129 415.816 636.161 380.472 638.471C377.048 638.748 373.734 638.866 370.503 638.866ZM259.858 401.274C265.136 401.141 270.387 401.871 275.211 403.407C316.41 417.826 306.055 474.197 297.716 519.507C294.485 537.165 291.668 552.433 292.386 562.645C294.485 592.529 305.282 613.723 324.5 625.653C338.555 634.383 357.304 638.037 380.223 636.556C414.877 634.304 446.964 619.372 478.001 604.953C509.756 590.179 539.799 576.195 569.455 577.439C597.234 578.565 618.302 589.29 642.961 603.116C648.788 606.569 654.32 610.27 659.528 614.197C671.457 622.769 683.773 631.637 697.634 634.284C735.022 641.454 779.81 616.073 812.504 597.546C819.932 593.319 826.946 589.349 833.242 586.09C840.863 582.14 849.091 578.189 857.79 573.844C900.949 552.651 954.573 526.341 969.512 492.507C978.624 471.708 963.63 455.571 947.753 438.486C936.072 425.924 924.005 412.928 921.99 397.739C918.317 370.086 886.949 345.95 856.63 322.682C839.261 309.311 822.859 296.689 811.648 283.594C789.558 257.917 775.751 229.494 767.826 194.218C766.611 188.786 766.004 182.999 765.369 176.876C764.099 164.689 762.801 152.068 756.367 142.172C744.079 123.211 726.821 121.611 704.952 119.576C692.64 118.728 680.509 116.852 668.806 113.987C643.347 107.271 618.606 96.6249 594.666 86.3343C557.167 70.217 521.767 54.9687 483.358 53.1713C435.56 50.8999 410.294 104.901 393.56 140.612C390.302 147.525 387.264 154.063 384.448 159.297C364.732 195.936 341.178 233.622 302.603 260.84C286.367 272.316 266.485 279.209 247.377 285.865C228.269 292.522 208.443 299.356 192.814 310.693C158.381 335.62 145.872 375.874 151.394 402.854C151.571 404.561 152.274 406.219 153.453 407.708C154.632 409.197 156.259 410.48 158.215 411.466C169.26 416.582 192.068 412.098 214.214 407.733C230.036 404.513 246.521 401.274 259.858 401.274Z" fill="white"/>
<path d="M715.417 625.732C707.592 625.739 699.858 624.532 692.747 622.196C674.467 616.27 659.28 606.553 644.59 597.151C624.433 584.273 605.407 572.106 580.832 571.138C555.787 570.17 520.304 582.298 482.723 595.156C428.242 613.881 371.94 633.059 334.276 618.088C312.655 609.476 299.897 590.593 295.258 560.334C293.823 550.932 295.673 536.632 297.771 520.199C303.1 478.621 309.728 426.852 269.882 414.962C258.008 411.426 239.121 414.863 220.841 418.221C200.38 421.974 181.051 425.509 169.868 420.097C167.357 418.769 165.283 417.064 163.79 415.103C162.297 413.141 161.422 410.969 161.225 408.74C155.702 379.113 172.574 343.816 202.368 322.978C218.936 311.404 239.425 304.985 259.251 298.783C279.077 292.581 299.428 286.201 315.83 274.705C356.78 245.987 376.054 204.133 393.146 167.217C394.969 163.267 397.012 158.408 399.138 153.272C413.359 119.221 437.161 62.2372 486.672 64.5679C520.58 66.1875 552.252 78.157 585.774 90.8573C611.703 100.733 638.543 110.826 666.432 115.665C676.188 117.175 686.134 117.969 696.116 118.036C717.323 118.648 735.685 119.181 747.863 138.182C760.73 158.309 766.722 179.996 772.521 200.973C779.203 225.208 786.107 250.352 803.668 273.481C814.189 287.307 830.398 301.489 847.573 316.401C877.395 342.315 908.322 369.118 911.497 397.561C913.154 411.821 923.039 424.324 932.593 436.412C944.826 451.858 957.445 467.817 952.64 487.391C944.605 520.179 886.618 549.174 844.26 570.348C836.197 574.397 828.575 578.249 822.031 581.685C815.487 585.122 809.163 588.875 802.177 592.964C776.635 607.955 746.234 625.732 715.417 625.732ZM577.932 569.084C578.982 569.084 579.976 569.084 580.997 569.084C606.512 570.071 625.896 582.475 646.413 595.59C660.965 604.874 675.986 614.493 693.879 620.3C730.577 632.151 767.634 610.523 800.3 591.383C807.313 587.275 813.94 583.483 820.264 580.026C826.587 576.57 834.485 572.718 842.575 568.669C884.519 547.693 941.982 518.974 949.824 486.976C954.463 468.113 942.617 453.161 930.081 437.321C920.389 425.055 910.337 412.355 908.653 397.659C905.45 369.889 874.882 343.283 845.336 317.606C828.078 302.634 811.787 288.472 801.156 274.389C783.401 250.905 776.442 225.702 769.704 201.308C763.961 180.451 758.024 158.882 745.267 138.972C733.67 121.097 717.102 120.623 695.867 120.09C685.719 120 675.609 119.186 665.686 117.66C637.438 112.762 610.46 102.55 584.366 92.6744C551.231 80.0926 519.697 68.2022 486.368 66.622C439.039 64.4296 415.651 120.445 401.679 153.924C399.525 159.06 397.509 163.919 395.659 167.928C378.567 205.061 359.182 247.132 317.763 276.207C301.002 287.939 280.347 294.418 260.356 300.659C240.364 306.901 220.482 313.162 204.301 324.48C175.087 344.824 158.491 379.409 163.959 408.464C164.842 413.184 167.272 416.463 171.414 418.438C181.576 423.356 201.181 419.761 220.179 416.285C239.176 412.809 258.202 409.313 270.959 413.125C312.655 425.588 305.945 478.128 300.532 520.357C298.434 536.75 296.611 550.893 298.02 560.097C302.521 589.724 314.836 608.074 335.629 616.349C371.967 630.827 427.69 611.767 481.535 593.319C517.957 580.876 552.446 569.084 577.932 569.084Z" fill="white"/>
<path d="M716.494 615.5C710.67 615.514 704.905 614.66 699.567 612.991C688.715 609.594 678.802 601.338 669.193 593.358C664.243 588.963 658.804 584.861 652.929 581.092C634.097 570.17 614.271 563.987 595.549 563.178C571.775 562.151 536.126 573.765 498.407 586.05C442.85 604.162 379.864 624.684 339.356 609.199C318.508 601.298 305.503 584.865 299.649 559.188C297.55 549.944 298.517 536.375 299.649 520.672C302.41 484.487 305.53 439.473 270.048 428.037C259.748 424.719 243.65 426.852 228.076 428.926C209.713 431.375 192.372 433.666 182.128 428.156C177.323 425.588 174.617 421.598 173.844 415.969C169.73 386.341 186.933 354.561 217.666 334.987C234.234 324.499 254.032 318.85 273.195 313.379C293.408 307.611 314.256 301.666 330.879 290.052C368.792 263.545 383.868 226.017 398.42 189.734C399.552 186.889 400.712 184.065 401.844 181.26C403.28 177.705 404.882 173.359 406.566 168.856C419.323 134.469 440.585 76.9123 490.344 79.0455C519.641 80.2898 547.862 89.1188 577.739 98.4613C601.956 106.026 627 113.868 652.542 117.225C663.24 118.4 674.096 118.652 684.877 117.976C705.311 117.206 722.983 116.534 737.342 134.192C753.468 154.121 760.785 178.534 767.882 202.118C774.178 223.134 780.667 244.86 793.369 263.605C803.696 278.892 819.601 294.437 836.417 310.91C865.024 338.898 894.625 367.834 898.077 397.521C899.596 410.537 907.217 422.605 914.645 434.279C925.828 452.055 937.398 470.266 926.905 491.558C912.022 521.818 864.334 546.725 826.007 566.753C819.573 570.111 813.526 573.271 807.893 576.313C802.729 579.117 797.069 582.515 791.077 586.188C768.904 599.521 742.367 615.5 716.494 615.5ZM592.595 561.143C593.681 561.143 594.73 561.143 595.743 561.143C615.072 561.973 635.395 568.313 654.696 579.493C660.686 583.337 666.227 587.525 671.264 592.015C680.652 599.916 690.345 607.816 700.644 611.115C729.969 620.299 762.801 600.528 789.171 584.628C795.191 580.994 800.879 577.557 806.126 574.752C811.372 571.947 817.834 568.53 824.268 565.173C862.291 545.322 909.592 520.613 924.199 490.926C934.305 470.365 923.481 453.24 912.022 435.108C904.538 423.257 896.807 411.051 895.26 397.679C891.864 368.565 862.512 339.846 834.153 312.075C817.254 295.523 801.266 279.9 790.828 264.474C777.988 245.492 771.499 223.667 765.121 202.533C758.079 179.087 750.817 154.852 734.746 135.199C721.299 118.568 705.228 119.181 684.877 119.951C673.883 120.641 662.812 120.376 651.907 119.161C626.034 115.764 600.851 107.883 576.496 100.278C546.84 90.9952 518.84 82.2452 490.04 81.0206C442.601 79.0455 421.615 135.575 409.107 169.37C407.395 173.932 405.821 178.238 404.357 181.813C403.225 184.618 402.093 187.442 400.933 190.287C386.271 226.807 371.111 264.592 332.674 291.454C315.664 303.305 294.54 309.389 274.079 315.156C255.137 320.549 235.421 326.138 219.378 336.409C189.28 355.529 172.436 386.657 176.44 415.673C177.158 420.729 179.505 424.264 183.647 426.477C192.925 431.474 210.486 429.143 227.441 426.891C243.429 424.758 259.969 422.566 271.042 426.141C308.264 438.13 304.923 483.895 302.272 520.672C301.14 536.256 300.146 549.727 302.272 558.773C307.988 583.798 320.496 599.699 340.543 607.362C379.864 622.393 442.187 602.069 497.164 584.154C533.724 572.402 568.24 561.143 592.595 561.143Z" fill="white"/>
<path d="M380.223 607.007C367.039 607.257 353.966 605.224 342.117 601.081C322.788 593.852 309.645 579.631 303.459 558.813C300.698 549.944 300.891 536.592 300.974 522.45C301.167 492.27 301.388 454.702 274.548 442.93C265.326 438.881 250.415 439.829 235.89 440.718C219.985 441.725 203.528 442.693 194.167 437.044C189.528 434.14 186.933 430.19 186.463 424.462C185.187 409.359 189.1 394.262 197.86 380.49C206.621 366.718 219.962 354.69 236.719 345.456C252.458 336.785 270.738 331.926 288.41 327.225C308.54 321.872 329.333 316.342 345.845 305.202C370.034 288.867 384.503 250.115 399.939 209.09C421.339 151.929 443.54 92.8915 494.872 94.5309C519.724 95.3012 544.272 101.345 570.366 107.745C594.748 113.67 620.07 119.912 645.17 121.334C655.521 121.776 665.91 121.352 676.124 120.07C694.79 118.095 709.536 116.633 727.125 131.447C738.64 141.125 743.693 159.948 747.697 175.058C749.326 181.201 750.872 187.008 752.639 191.432C763.484 219.322 777.923 246.433 795.771 272.414C804.773 285.391 816.619 298.783 829.155 312.984C853.731 340.834 879.162 369.632 884.74 397.541C886.507 406.488 891.201 416.206 896.144 426.497C904.925 444.708 914.01 463.57 908.349 481.011C897.497 514.589 848.954 540.898 809.964 562.092C804.441 565.114 798.919 568.017 794.031 570.822C789.144 573.627 783.621 577.024 778.071 580.559C755.981 594.583 730.853 610.483 703.516 602.721L703.185 602.622L702.964 602.444C691.919 593.319 680.873 584.22 669.828 575.147C653.923 562.506 632.578 555.159 612.863 555.554C590.303 555.969 555.925 566.378 519.503 577.399C472.975 591.482 421.643 607.007 380.223 607.007ZM254.308 437.953C262.592 437.953 270.103 438.703 275.874 441.231C304.067 453.576 303.818 491.756 303.625 522.43C303.625 536.474 303.459 549.727 306.055 558.378C312.213 578.88 324.39 592.272 343.332 599.304C386.712 615.441 456.739 594.247 518.537 575.602C555.207 564.501 589.833 554.033 612.89 553.598V554.586V553.598C633.489 553.223 655.552 560.788 672.01 573.844C683.055 582.89 694.017 591.936 704.897 600.983C730.494 608.093 754.793 592.687 776.249 579.098C781.771 575.542 787.128 572.185 792.319 569.222C797.511 566.259 802.702 563.494 808.224 560.551C846.883 539.575 894.984 513.443 905.615 480.616C911.138 463.709 902.136 445.063 893.493 427.168C888.495 416.799 883.774 407.002 881.951 397.857C876.428 370.382 851.19 341.762 826.725 314.07C814.161 299.849 802.288 286.418 793.203 273.323C775.271 247.222 760.767 219.986 749.878 191.966C748.083 187.462 746.537 181.616 744.88 175.434C740.932 160.541 735.989 142.014 724.944 132.731C708.376 118.746 694.956 120.129 676.428 122.025C666.012 123.327 655.421 123.758 644.866 123.309C619.296 121.867 593.92 115.645 569.372 109.621C543.499 103.261 519.034 97.2567 494.679 96.5061H492.801C444.921 96.5061 423.382 154.062 402.507 209.742C387.044 251.043 372.409 290.072 347.668 306.762C330.741 318.198 309.672 323.788 289.294 329.2C271.815 333.861 253.728 338.661 238.32 347.154C221.974 356.174 208.957 367.914 200.4 381.353C191.844 394.792 188.007 409.523 189.224 424.265C189.721 429.38 191.986 433.034 195.934 435.484C204.412 440.659 220.289 439.671 235.642 438.703C241.91 438.348 248.289 437.953 254.308 437.953Z" fill="white"/>
<path d="M389.75 597.802C376.008 598.023 362.358 596.145 349.711 592.292C330.548 586.11 316.576 574.417 307.988 557.529C303.128 547.91 302.465 534.301 301.499 519.882C300.063 495.311 298.461 467.442 274.825 456.677C266.762 452.984 254.419 453.043 242.518 453.082C221.67 453.181 200.132 453.26 198.944 433.903C195.714 380.377 241.882 365.01 290.757 348.616C315.029 340.498 340.157 332.104 359.79 318.613C383.979 301.923 396.57 263.723 409.907 223.272C428.27 167.533 447.351 109.858 499.898 110.431C520.718 110.648 541.704 114.263 563.96 118.075C589.806 122.519 616.425 127.121 642.685 125.798C651.544 125.221 660.291 123.97 668.779 122.065C686.092 118.588 699.788 115.843 717.295 130.459C728.34 139.663 733.311 153.983 737.701 166.624C739.192 170.95 740.628 175.039 742.202 178.791C756.864 213.238 770.119 239.192 785.14 262.953C793.976 276.918 805.408 291.139 817.502 306.189C841.498 336.074 866.295 366.945 871.403 397.521C873.192 406.462 875.756 415.314 879.079 424.028C886.148 444.411 893.493 465.506 883.553 485.416C869.387 513.819 831.778 535.387 798.588 554.428C792.375 557.983 786.493 561.341 780.86 564.718C776.994 567.01 772.576 570.051 768.048 573.271C751.287 584.984 730.439 599.58 711.193 593.694H710.834L710.585 593.437C702.301 584.786 693.852 576.135 685.181 567.76C671.209 555.001 651.852 547.87 632.081 548.226C608.417 548.68 572.934 558.694 535.436 569.301C486.975 582.771 433.71 597.802 389.75 597.802ZM246.632 451.048C257.677 451.048 268.529 451.403 276.288 454.998C301.14 466.375 302.797 494.778 304.26 519.843C305.089 534.104 305.862 547.495 310.584 556.897C318.867 573.488 332.122 584.549 350.843 590.475C398.061 605.723 470.463 585.3 534.359 567.266C572.134 556.581 607.837 546.508 631.999 546.053C652.681 545.658 672.866 553.085 687.224 566.378C695.867 574.772 704.372 583.384 712.518 592.055C729.997 597.091 749.934 583.147 765.977 571.908C770.616 568.669 775.006 565.607 778.955 563.257C784.615 559.879 790.497 556.502 796.71 552.947C829.625 534.064 866.902 512.693 880.819 484.803C890.456 465.447 883.249 444.668 876.263 424.561C872.926 415.767 870.344 406.836 868.531 397.817V397.817C863.478 367.656 838.82 336.943 814.962 307.236C802.84 292.146 791.381 277.885 782.489 263.783C767.413 239.942 754.131 213.91 739.441 179.384C737.811 175.572 736.376 171.483 734.884 167.118C730.549 154.694 725.662 140.611 715.058 131.763C698.712 118.095 686.396 120.583 669.387 124C660.699 125.939 651.748 127.21 642.685 127.793C616.093 129.116 589.171 124.494 563.104 120.011C541.014 116.218 520.166 112.643 499.594 112.426H498.904C449.007 112.426 430.369 169.014 412.337 223.746C398.917 264.494 386.243 302.97 361.447 320.055C341.565 333.763 316.217 342.236 291.724 350.433C243.705 366.471 198.364 381.641 201.512 433.765C202.562 451.245 221.891 451.166 242.324 451.068L246.632 451.048Z" fill="white"/>
<path d="M397.896 588.638C361.723 588.638 331.1 580.046 313.345 555.475C306.469 545.954 304.564 533.373 302.576 520.04C299.594 500.289 296.528 479.786 275.957 470.049C268.722 466.612 258.533 465.802 248.703 465.032C230.423 463.59 211.563 462.109 211.398 443.779C210.956 394.222 256.711 378.204 305.282 361.257C329.277 352.862 354.102 344.172 373.016 331.017C396.322 314.781 407.312 277.688 418.964 238.382C435.173 183.65 452.1 127.042 505.227 126.805C521.87 127.029 538.474 128.039 554.931 129.827C580.252 132.138 606.429 134.528 631.225 131.506C640.078 130.307 648.757 128.529 657.154 126.193C674.163 121.828 687.528 118.292 707.879 129.61C721.326 137.076 727.208 154.2 732.206 167.948C733.946 172.925 735.602 177.646 737.425 181.359L741.594 189.99C751.756 211.006 762.276 232.753 774.537 253.63C783.069 268.167 793.866 282.922 805.436 298.545C829.266 330.918 853.896 364.397 858.232 397.541C859.226 405.125 860.993 412.907 862.732 420.433C867.979 443.522 873.419 467.382 858.011 490.195C842.133 513.66 809.522 533.649 780.694 551.228C776.193 553.993 771.775 556.679 767.578 559.306C767.33 559.464 766.584 560.037 765.424 560.887C740.573 579.749 725.413 587.216 718.096 584.45L717.682 584.273L717.488 583.956C712.621 575.775 707.041 567.819 700.782 560.136C689.461 547.416 671.789 540.384 652.432 540.72C627.995 541.214 591.269 550.754 552.39 560.847C502.273 573.844 445.307 588.638 397.896 588.638ZM506.194 128.78H505.089C454.061 128.997 437.52 184.816 421.532 238.797C409.797 278.3 398.724 315.828 374.784 332.419C355.455 345.811 330.603 354.561 306.359 363.034C258.726 379.705 213.717 395.447 214.159 443.759C214.159 460.351 230.368 461.536 248.979 463.076C259.168 463.867 269.689 464.696 277.476 468.39C299.124 478.641 302.327 499.577 305.309 519.744C307.298 532.899 309.148 545.303 315.802 554.487C332.95 578.189 362.744 586.544 398.061 586.544C445.003 586.544 501.61 571.829 551.341 558.892C590.413 548.739 627.36 539.14 652.266 538.646C672.617 538.271 691.145 545.658 703.047 559.01C709.241 566.661 714.774 574.577 719.614 582.712C723.95 583.917 735.105 580.737 763.243 559.405C764.486 558.477 765.286 557.865 765.562 557.707C769.787 555.06 774.178 552.374 778.706 549.608C807.286 532.128 839.648 512.317 855.277 489.228C870.326 466.968 864.942 443.404 859.75 420.63C858.038 413.065 856.243 405.244 855.249 397.62C850.969 364.852 826.449 331.55 802.785 299.355C791.242 283.692 780.363 268.898 771.775 254.282C759.46 233.345 748.939 211.579 738.778 190.524L734.581 181.872C732.758 178.08 731.074 173.34 729.307 168.323C724.557 154.852 718.648 138.083 705.974 131.052C686.893 120.484 674.716 123.605 657.872 127.931C649.324 130.306 640.487 132.111 631.474 133.323C606.236 136.404 579.865 133.995 554.378 131.664C538.418 129.98 522.324 129.017 506.194 128.78V128.78Z" fill="white"/>
<path d="M407.836 579.552C372.492 579.552 341.565 572.283 320.055 552.097C310.445 543.11 307.049 531.536 303.736 520.356C299.4 505.543 295.258 491.558 278.166 482.828C271.511 479.411 263.089 478.048 254.916 476.705C239.397 474.118 223.244 471.511 223.796 453.892C225.287 407.97 273.196 389.857 319.53 372.338C342.808 363.548 366.859 354.462 385.028 341.94C407.754 326.277 417.363 290.586 427.552 252.603C441.828 199.452 456.601 144.503 510.391 143.278C521.188 143.021 532.122 143.278 543.72 143.436C569.648 143.89 596.488 144.364 621.036 139.486C629.461 137.667 637.625 135.28 645.418 132.355C662.787 126.311 677.808 121.077 698.214 132.612C725.468 148.018 742.091 189.457 755.484 222.759C761.2 236.999 766.529 250.411 772.051 259.753C778.955 271.703 787.266 283.949 796.102 296.926C818.441 329.852 841.581 363.904 844.729 397.481C845.033 400.82 845.364 404.079 845.695 407.259C849.534 445.695 852.35 473.486 818.082 507.36C799.996 525.136 776 540.938 752.833 556.146C743.61 562.171 734.111 568.412 725.22 574.575L723.066 576.076L722.873 573.923C721.106 553.559 705.477 533.313 674.605 533.313H672.976C645.612 533.926 607.064 543.189 566.252 553.065C513.401 565.844 456.352 579.552 407.836 579.552ZM521.326 145.194C517.708 145.194 514.146 145.194 510.584 145.312C458.948 146.478 444.313 200.617 430.313 253.018C420.041 291.237 410.349 327.324 386.989 343.421C368.543 356.122 344.327 365.286 320.883 374.155C273.14 392.188 228.048 409.234 226.613 453.991C226.115 469.93 239.756 472.162 255.523 474.73C263.973 476.093 272.671 477.515 279.768 481.169C297.744 490.413 302.162 505.424 306.442 519.942C309.672 530.924 313.014 542.261 322.236 550.892C372.216 597.704 474.908 573.014 565.507 551.248C606.539 541.372 645.28 532.089 673.031 531.496C696.834 530.904 721.934 543.347 725.496 571.829C733.78 566.121 742.478 560.393 750.955 554.823C774.04 539.673 797.897 524.03 815.846 506.333C849.561 473.031 846.8 445.577 842.989 407.575C842.658 404.375 842.326 401.116 842.023 397.699C838.902 364.516 815.901 330.543 793.672 297.894C784.836 284.877 776.497 272.612 769.539 260.603C764.016 251.201 758.687 237.691 752.971 223.391C739.689 190.386 723.177 149.282 696.64 134.271C677.588 123.487 664.002 128.227 646.771 134.271C638.823 137.244 630.503 139.677 621.92 141.54C597.068 146.458 569.925 145.964 543.775 145.49C535.988 145.332 528.56 145.194 521.271 145.194H521.326Z" fill="white"/>
<path d="M419.489 569.558C384.586 569.558 353.025 563.455 328.366 546.725C317.984 539.654 312.323 530.469 306.856 521.581C300.45 511.192 294.403 501.375 281.452 494.482C275.51 491.594 268.994 489.364 262.123 487.865C248.316 484.349 235.145 481.011 236.222 464.005C238.983 421.638 285.484 402.044 330.603 383.024C353.853 373.266 377.877 363.153 395.328 350.098C415.32 335.106 424.377 302.101 433.986 267.141C448.234 215.273 462.98 161.647 515.748 159.692H516.245C549.961 158.428 588.205 157.006 620.236 146.853C626.782 144.684 633.103 142.182 639.15 139.367C654.973 132.375 667.481 126.865 688.854 136.76C718.013 150.251 733.946 189.754 746.841 221.495C751.563 233.188 756.036 244.229 760.51 252.268C767.081 264.119 774.813 276.226 783.014 289.085C805.822 324.815 829.404 361.791 831.447 397.521L831.723 401.906C833.822 437.676 835.644 468.568 804.994 500.388C795.357 510.422 782.904 519.152 770.947 527.606C755.291 538.666 739.082 550.083 729.528 564.166L727.015 563.316C729.858 559.166 731.151 554.56 730.769 549.947C730.387 545.333 728.342 540.869 724.834 536.988C721.42 533.355 716.728 530.431 711.23 528.51C705.733 526.589 699.624 525.738 693.52 526.045C662.428 526.855 622.003 535.783 579.203 545.244C526.572 556.976 469.579 569.558 419.489 569.558ZM667.233 133.462C658.01 133.462 650.113 136.938 640.642 141.125C634.451 143.976 627.993 146.516 621.312 148.73C588.84 159.04 550.32 160.482 516.383 161.746H515.886C465.272 163.721 450.747 216.478 436.692 267.595C427 302.832 417.86 336.113 397.316 351.52C379.644 364.813 355.372 374.886 332.011 384.762C287.554 403.447 241.579 422.764 239.011 464.064C238.017 479.589 249.09 482.414 263.062 485.969C270.215 487.52 276.994 489.845 283.164 492.862C296.694 500.072 303.156 510.639 309.424 520.732C314.947 529.442 320.469 538.508 330.327 545.244C389.06 585.241 489.654 563.02 578.43 543.407C621.395 533.906 661.986 524.939 693.465 524.109C700.042 523.809 706.614 524.745 712.529 526.824C718.443 528.903 723.494 532.053 727.181 535.96C732.501 541.736 734.636 548.717 733.173 555.554C742.892 544.651 756.119 535.328 769.07 526.262C780.888 517.888 793.203 509.197 802.702 499.321C832.828 468.015 831.005 437.439 828.934 402.025L828.658 397.64C826.643 362.324 803.172 325.507 780.612 289.954C772.328 277.076 764.651 264.929 758.052 253.058C753.523 244.92 749.05 233.839 744.245 222.087C731.571 190.682 715.776 151.574 687.501 138.479C681.579 135.421 674.53 133.676 667.233 133.462V133.462Z" fill="white"/>
<path d="M433.599 557.391C400.712 557.391 369.095 552.848 339.715 540.622C327.676 535.585 318.95 528.475 310.501 521.581C303.411 515.299 295.248 509.679 286.201 504.852C281.704 502.728 276.997 500.84 272.119 499.203C258.616 494.403 246.963 490.255 248.565 473.624C252.32 435.306 296.777 413.797 339.688 393.018C362.882 381.799 386.878 370.205 403.197 356.26C419.517 342.315 429.071 312.629 438.846 281.382C454.585 230.995 470.877 178.91 520.553 175.928C555.483 173.834 585.995 167.77 611.234 157.914C617.642 155.324 623.804 152.434 629.679 149.263C645.833 140.908 657.485 134.884 680.266 146.122C712.159 161.924 729.721 201.941 743.776 234.155C748.277 244.466 752.529 254.184 756.726 261.808C762.249 271.684 768.186 281.559 774.592 292.048C795.688 326.652 817.53 362.442 817.751 397.659C817.944 432.482 816.039 461.615 790.138 492.764C785.61 498.215 776.47 504.931 766.777 512.041C758.565 517.867 750.769 523.984 743.417 530.371L743.583 530.707C747.338 539.437 742.202 548.483 730.466 553.757L728.81 554.487L728.368 553.164C726.021 546.152 731.626 538.153 740.324 530.035C737.011 524.109 728.23 518.302 712.711 518.737C673.832 519.784 631.17 528.178 586.023 537.066C535.243 547.12 482.999 557.391 433.599 557.391ZM657.982 141.975C648.76 141.975 641.166 145.925 631.584 150.863C625.601 154.073 619.338 157.009 612.835 159.652C587.238 169.647 556.367 175.789 521.077 177.903C473.417 180.747 457.346 232.121 441.828 281.816C431.97 313.3 422.665 343.046 405.6 357.544C389.032 371.686 364.788 383.359 341.427 394.657C298.986 415.179 255.109 436.412 251.464 473.763C249.973 489.07 259.748 492.586 273.555 497.464C278.551 499.138 283.369 501.072 287.968 503.252C297.23 508.163 305.581 513.898 312.82 520.317C321.104 527.072 329.664 534.143 341.344 538.943C413.469 569.064 501.058 551.841 585.774 535.151C631.087 526.243 673.915 517.809 713.125 516.762C729.169 516.327 738.64 522.055 742.727 528.277C749.409 522.352 757.555 516.426 765.286 510.659C774.84 503.647 783.87 497.01 788.233 491.756C813.802 460.964 815.625 433.331 815.432 397.659C815.211 362.857 793.507 327.265 772.493 292.838C766.087 282.33 760.012 272.395 754.6 262.539C750.375 254.855 746.095 245.098 741.567 234.768C727.595 202.849 710.171 163.109 679.051 147.762C670.629 143.634 663.974 141.975 657.982 141.975V141.975ZM741.733 532.306C734.746 539.042 730.19 545.56 731.102 551.248C735.35 549.235 738.642 546.344 740.541 542.961C742.439 539.578 742.855 535.862 741.733 532.306V532.306Z" fill="white"/>
<path d="M436.25 542.932C408.513 543.061 380.887 540.402 354.185 535.032C333.585 530.767 313.836 524.627 295.424 516.762C270.849 505.78 259.362 494.225 261.267 482.374C267.204 445.379 308.016 423.475 347.475 402.261C370.283 390.015 393.892 377.335 410.377 361.909C424.487 348.734 433.876 322.267 443.816 294.24C460.384 247.626 479.05 194.79 525.495 191.531C553.909 189.556 582.019 181.438 611.482 166.901C616.756 164.294 621.257 161.647 625.289 159.316C640.062 150.606 649.837 144.838 673.142 156.709C703.185 171.997 720.415 207.688 734.277 236.367C737.839 243.755 741.208 250.727 744.466 256.652C749.243 265.343 754.49 274.192 760.04 283.574C781.412 319.7 805.629 360.605 804.828 397.659C804.221 424.857 801.736 456.243 779.839 484.566C774.575 490.584 768.647 496.291 762.111 501.632C757.997 505.227 753.827 508.94 749.74 512.713C751.858 513.819 753.603 515.25 754.849 516.9C756.535 519.784 757.152 522.931 756.638 526.035C756.125 529.14 754.499 532.097 751.919 534.62C749.339 537.144 745.891 539.147 741.91 540.438C737.929 541.728 733.55 542.261 729.196 541.984L727.954 541.866V540.997C728.257 532.128 736.072 522.529 745.709 513.226C741.166 511.685 736.145 511.004 731.129 511.251V511.251C683.939 512.021 635.92 519.645 589.502 527.052C539.412 534.874 488.19 542.932 436.25 542.932ZM650.278 151.949C641.995 151.949 635.699 155.702 627.001 160.837C622.969 163.188 618.413 165.874 613.056 168.521C583.207 183.275 554.655 191.432 525.772 193.506C481.259 196.686 462.786 248.811 446.467 294.773C436.471 322.998 427.138 349.663 412.558 363.173C395.853 378.816 372.105 391.576 349.049 403.901C310.142 424.857 269.772 446.525 264.001 482.67C260.08 507.123 321.767 526.42 354.958 533.195C434.428 549.431 512.932 536.987 588.895 524.959C635.423 517.571 683.58 509.947 731.046 509.157C736.678 508.926 742.296 509.757 747.338 511.567C751.425 507.715 755.622 503.943 759.902 500.308C766.323 495.049 772.166 489.442 777.381 483.539C798.974 455.69 801.404 424.581 802.012 397.62C802.813 361.02 778.706 320.292 757.444 284.344C751.922 274.962 746.62 266.074 741.843 257.383C738.557 251.458 735.188 244.426 731.599 237.019C717.792 208.597 700.81 173.241 671.485 158.309C662.594 153.786 655.994 151.949 650.278 151.949ZM730.743 540.049C734.508 540.205 738.264 539.647 741.63 538.429C744.996 537.211 747.851 535.378 749.906 533.116C752.216 530.955 753.665 528.388 754.097 525.685C754.53 522.983 753.931 520.247 752.364 517.769C751.303 516.364 749.823 515.143 748.028 514.194C738.944 523.023 731.516 531.911 730.743 540.049Z" fill="white"/>
<path d="M402.838 531.16C348.883 531.16 304.508 526.321 284.738 512.673C280.504 509.835 277.305 506.3 275.419 502.375C273.532 498.451 273.015 494.256 273.913 490.156C279.878 455.512 318.398 432.224 355.648 409.708C377.738 396.336 400.657 382.51 416.12 366.531C427.856 354.403 437.161 331.215 446.991 306.663C465.133 261.235 485.65 209.88 529.582 206.365C553.66 204.389 577.518 196.291 604.689 180.826C609.494 178.1 613.581 175.433 617.198 173.083C632.854 162.911 641.497 157.282 667.039 170.713C698.38 187.126 716.384 222.976 730.853 251.793C734.001 258.074 736.983 264.02 739.91 269.313C742.367 273.816 744.88 278.339 747.421 282.922C768.793 321.339 790.856 361.059 791.436 397.62C791.85 423.929 784.367 448.48 767.882 474.947C763.15 482.074 757.734 488.957 751.673 495.548C749.961 497.523 748.277 499.499 746.647 501.316H746.785C760.592 501.474 765.59 505.069 767.219 508.031C769.594 512.396 766.446 518.401 759.184 523.359C751.921 528.316 739.606 532.642 728.064 528.988L727.042 528.652L727.291 527.862C730.216 519.226 735.064 510.983 741.649 503.449C730.162 504.101 707.492 506.668 677.836 510.006C603.888 518.361 490.675 531.16 402.838 531.16ZM642.187 164.787C634.097 164.787 627.967 168.738 619.048 174.545C615.403 176.915 611.261 179.601 606.429 182.445C578.816 198.247 554.489 206.424 529.886 208.419C487.859 211.816 467.563 262.538 449.642 307.177C439.757 331.906 430.313 355.252 418.384 367.656C402.7 383.833 379.726 397.738 357.415 411.11C320.579 433.37 282.473 456.4 276.647 490.294C275.799 494.094 276.267 497.984 278.01 501.623C279.753 505.263 282.717 508.542 286.643 511.172C337.589 546.389 558.658 521.403 677.422 507.972C708.762 504.436 732.344 501.77 743.361 501.316C745.322 498.985 747.338 496.694 749.326 494.422C755.324 487.911 760.676 481.106 765.341 474.058C781.661 447.868 789.089 423.573 788.674 397.58C788.094 361.375 766.114 321.833 744.853 283.574L737.314 269.965C734.415 264.632 731.433 258.687 728.257 252.386C713.926 223.825 696.06 188.272 665.41 172.214C655.276 167 648.069 164.787 642.187 164.787ZM730.245 527.487C740.214 530.173 750.955 526.242 757.278 521.936C763.602 517.631 766.612 512.357 764.623 508.762C762.635 505.167 756.56 503.409 746.73 503.291H744.963C738.297 510.748 733.329 518.915 730.245 527.487Z" fill="white"/>
<path d="M337.451 525.591C320.193 525.591 303.653 523.734 294.237 516.821C287.692 512.021 285.152 505.168 286.671 496.438C292.193 463.709 328.808 438.407 363.987 413.935C384.641 399.615 405.986 384.801 420.069 368.98C430.148 357.682 438.763 337.911 447.875 316.994C466.79 273.54 488.245 224.438 532.785 220.211C554.323 218.236 571.581 207.945 588.287 198.05C611.289 184.441 632.993 171.602 661.241 184.737C690.29 198.247 709.232 234.61 723.038 261.176C725.579 266.074 728.009 270.696 730.218 274.646C750.375 310.772 775.448 355.727 778.016 397.6C779.065 414.745 774.178 434.97 763.491 457.724C755.76 469.167 748.028 480.544 740.297 491.855C746.778 491.93 753.242 492.373 759.626 493.178C764.102 494.018 768.422 495.238 772.493 496.813C774.702 497.563 776.939 498.353 779.038 498.966L780.225 499.341L779.811 500.21C774.288 511.587 756.285 521.127 742.506 519.843C737.48 519.369 728.92 516.92 727.871 505.78V505.523L728.147 505.247C730.761 501.415 733.375 497.583 735.989 493.751C707.161 493.969 672.921 499.479 637.024 505.247C609.715 509.632 581.439 514.174 555.676 516.13C507.492 519.804 458.285 521.186 410.708 522.51C402.921 522.707 395.144 522.924 387.375 523.161C382.653 523.3 376.772 523.695 370.586 524.129C360.37 524.801 348.745 525.591 337.451 525.591ZM637.742 181.201C621.174 181.201 606.429 189.932 590.137 199.59C573.128 209.644 555.566 220.033 533.227 222.166C490.454 226.235 469.275 274.765 450.609 317.586C441.414 338.642 432.771 358.512 422.499 370.047C408.223 386.046 386.74 400.958 365.975 415.357C331.072 439.592 294.955 464.637 289.404 496.675C288.024 504.773 290.288 511.093 296.197 515.439C310.86 526.203 345.183 523.853 370.228 522.134C376.468 521.7 382.377 521.305 387.182 521.167C394.941 520.93 402.728 520.732 410.515 520.515C458.037 519.191 507.16 517.809 555.317 514.155C580.914 512.18 609.08 507.676 636.334 503.311C672.838 497.386 707.769 491.835 737.121 491.835H737.314C745.249 480.221 753.155 468.601 761.034 456.974C771.554 434.575 776.387 414.587 775.337 397.719C772.797 356.24 747.724 311.404 727.733 275.417C725.496 271.466 723.094 266.805 720.526 261.907C706.857 235.597 688.108 199.59 659.777 186.436C653.315 183.173 645.648 181.352 637.742 181.201V181.201ZM730.908 505.938C731.654 513.088 735.879 517.216 743.113 517.908C755.125 519.014 771.582 510.481 777.022 500.447C775.227 499.874 773.349 499.242 771.499 498.61C767.64 497.121 763.554 495.954 759.322 495.134V495.134C752.65 494.283 745.887 493.847 739.109 493.83C736.33 497.86 733.596 501.896 730.908 505.938Z" fill="white"/>
<path d="M332.177 525.196C321.933 525.196 312.848 523.813 306.966 520.001C301.085 516.189 298.13 509.552 299.594 500.901C304.923 469.713 339.55 442.002 373.044 415.179C392.373 399.575 410.902 384.86 423.576 369.75C431.86 359.874 439.702 343.56 448.069 326.297C467.398 286.28 491.504 236.486 535.27 232.891C555.345 231.252 571.167 221.04 586.769 211.164C608.086 197.536 628.188 184.658 655.663 197.536C678.223 208.103 698.491 243.893 710.613 265.284C712.352 268.365 713.899 271.091 715.224 273.343C737.784 311.522 762.166 355.786 764.789 397.778C766.281 421.104 755.871 445.182 746.869 461.319L746.675 461.536C739.733 468.111 734.607 475.572 731.571 483.52C744.023 482.761 756.56 483.199 768.849 484.823C773.02 485.722 777.011 487.004 780.722 488.635C782.738 489.425 784.837 490.235 786.742 490.907L788.288 491.42L787.239 492.388C775.586 503.331 757.803 509.533 743.969 507.518C737.674 506.59 729.5 503.568 726.242 494.265V494.107V493.949C726.6 491.186 727.199 488.441 728.037 485.732C703.185 487.154 675.241 491.282 647.766 495.331C622.113 499.104 595.632 503.015 571.72 504.772C548.939 506.471 525.689 507.814 503.212 509.098C470.767 510.974 437.217 512.91 404.413 515.932C398.89 516.426 391.462 517.749 382.764 519.27C367.163 521.838 348.137 525.176 332.177 525.196ZM633.297 194.099C617.447 194.099 603.751 202.849 588.591 212.547C572.824 222.62 556.532 233.029 535.574 234.768C493.547 238.204 469.773 287.346 450.692 326.83C442.242 344.271 434.29 360.744 425.84 370.718C413.028 386.026 394.555 400.82 374.977 416.483C341.842 443.088 307.463 470.582 302.245 501.138C300.864 509.039 303.045 514.964 308.678 518.539C322.927 527.566 357.029 521.561 381.936 517.176C390.717 515.636 398.283 514.312 404.026 513.799C436.913 510.777 470.49 508.841 502.963 506.965C525.44 505.661 548.663 504.318 571.416 502.639C595.191 500.881 621.616 496.99 647.158 493.218C676.152 488.951 704.124 484.823 728.699 483.48C731.755 475.091 737.084 467.212 744.384 460.292C753.275 444.352 763.519 420.611 762.056 397.679C759.295 356.201 735.161 312.036 712.711 273.994C711.386 271.762 709.95 269.017 708.072 265.916C696.862 246.164 676.014 209.328 654.172 199.076C648.057 195.973 640.791 194.241 633.297 194.099V194.099ZM728.975 493.771C731.295 500.23 736.679 504.259 744.522 505.404C756.754 507.202 773.129 501.573 784.008 491.954C782.489 491.401 780.943 490.788 779.397 490.196C775.941 488.665 772.23 487.451 768.352 486.581C755.996 485.015 743.401 484.65 730.908 485.495C730.004 488.219 729.358 490.984 728.975 493.771V493.771Z" fill="white"/>
<path d="M337.092 523.023C329.719 523.023 323.451 521.996 319.006 519.428C313.483 516.169 311.329 510.737 312.737 503.271C318.481 472.676 351.009 442.397 382.433 413.085C399.166 397.501 414.988 382.766 426.42 368.387C433.461 359.538 440.585 346.009 448.124 331.669C468.06 293.765 492.857 246.618 536.485 243.972C558.134 242.668 572.686 232.772 586.769 223.193C604.883 210.868 622.003 199.234 650.417 211.776C711.165 238.56 750.845 355.489 751.397 397.699C751.397 405.382 745.212 418.892 738.557 433.252C732.178 446.92 725.22 461.911 723.563 472.755C740.308 472.664 757.032 473.622 773.543 475.619C777.532 476.372 781.379 477.466 785.002 478.878C786.963 479.549 788.923 480.241 790.773 480.853L792.899 481.505L791.132 482.532C779.369 489.386 753.882 497.76 736.486 494.008C732.915 493.288 729.666 491.918 727.057 490.031C724.448 488.145 722.568 485.805 721.603 483.243C720.559 480.437 720.213 477.522 720.581 474.631C648.787 474.631 557.14 487.687 474.301 499.479C455.607 502.145 437.935 504.654 420.87 506.965C413.289 508.337 405.829 510.032 398.531 512.041C379.285 516.84 355.013 523.023 337.092 523.023ZM627.304 208.359C612.642 208.359 601.265 216.082 588.646 224.635C574.84 233.977 559.321 244.584 536.679 245.947C494.735 248.495 470.269 294.99 450.637 332.36C443.043 346.779 435.891 360.388 428.74 369.375C417.197 383.853 401.347 398.647 384.559 414.29C353.356 443.384 321.049 473.545 315.526 503.528C314.256 510.283 316.023 515.102 320.828 517.887C334.828 526.045 372.63 516.505 397.647 510.184C405.081 508.142 412.679 506.421 420.4 505.029C437.465 502.718 455.138 500.21 473.832 497.543C556.836 485.692 648.622 472.656 720.857 472.656C722.431 461.733 729.307 446.979 736.017 432.56C742.727 418.142 748.802 405.066 748.719 397.699C748.194 357.03 707.907 239.429 649.063 213.455C642.633 210.307 635.091 208.52 627.304 208.3V208.359ZM723.37 474.651C723.009 477.3 723.299 479.974 724.226 482.552C725.078 484.8 726.728 486.853 729.017 488.511C731.305 490.169 734.154 491.375 737.287 492.013C751.535 495.094 773.902 489.287 787.598 481.9C786.328 481.505 785.057 481.05 783.787 480.616C780.383 479.294 776.779 478.254 773.046 477.515C756.637 475.511 740.016 474.533 723.37 474.592V474.651Z" fill="white"/>
<path d="M345.293 516.959C340.27 517.193 335.278 516.25 331.072 514.273C326.682 511.843 324.942 507.853 325.909 502.422C331.431 470.918 362.661 437.458 392.815 405.105C406.097 390.845 418.633 377.354 428.408 364.654C433.931 357.583 439.453 347.845 446.025 336.547C465.934 302.239 493.216 255.269 536.54 252.958C555.869 251.931 569.345 242.727 582.378 233.839C600.078 221.751 616.811 210.354 644.811 223.311C702.135 249.838 738.695 359.598 737.949 396.987C737.949 399.516 734.884 406.863 730.66 416.877C724.723 431.079 716.522 450.791 715.279 461.99C734.676 461.768 754.05 463.026 773.073 465.743C776.211 466.399 779.232 467.314 782.075 468.469C783.594 469.022 785.14 469.594 786.576 470.049L789.061 470.839L786.714 471.807C775.321 476.233 762.769 478.923 749.851 479.707C738.474 480.3 723.094 479.292 714.423 470.997C712.754 468.879 712.05 466.442 712.407 464.024C632.606 464.577 529.665 481.327 449.836 494.323L436.802 496.457C429.698 498.029 422.728 499.895 415.927 502.046C394.527 508.229 364.705 516.959 345.293 516.959ZM621.423 219.539C607.312 219.539 596.378 227.005 584.311 235.34C570.919 244.485 557.084 253.926 536.761 255.092C495.149 257.304 468.253 303.641 448.621 337.476C442.021 348.813 436.333 358.59 430.866 365.76C421.035 378.539 408.444 392.049 395.134 406.369C365.174 438.525 334.192 471.787 328.67 502.817C327.814 507.596 329.167 510.895 332.784 512.87C346.397 520.356 389.28 507.814 414.905 500.328C421.847 498.125 428.965 496.219 436.222 494.62L449.256 492.506C529.333 479.49 632.385 462.701 712.573 462.148C713.595 451.956 720.222 435.226 728.064 416.462C731.875 407.298 735.188 399.377 735.216 397.106C735.851 360.052 699.899 251.299 643.347 225.128C636.958 221.761 629.322 219.817 621.395 219.539H621.423ZM715.307 463.945C714.964 465.945 715.485 467.971 716.798 469.752C730.604 483.025 765.894 477.298 783.069 470.997L780.915 470.207C778.295 469.14 775.516 468.285 772.631 467.659C753.704 464.975 734.434 463.73 715.141 463.945H715.307Z" fill="white"/>
<path d="M354.654 506.352C350.405 506.552 346.178 505.777 342.587 504.14C339.136 502.283 337.727 499.301 338.418 495.311C343.94 462.425 374.922 425.667 402.259 393.254C412.503 381.107 422.168 369.552 430.341 358.669C434.124 353.613 438.404 346.957 443.375 339.254C463.891 307.394 494.873 259.279 535.519 257.936C551.038 257.442 563.601 249.621 575.779 242.135C593.479 231.133 611.676 219.776 638.543 232.101C693.106 257.245 724.392 355.845 723.563 392.484C722.471 397.656 720.791 402.756 718.538 407.732C713.678 420.314 706.112 439.849 707.796 450.1C727.38 449.89 746.946 451.028 766.225 453.497C768.94 453.913 771.608 454.475 774.206 455.176L778.182 456.144L781.578 456.894L778.375 457.981C761.807 463.531 723.149 469.061 708.321 456.677C706.901 455.389 705.952 453.869 705.56 452.253C626.393 452.904 530.217 468.824 450.14 483.855C446.688 484.507 439.481 486.68 430.369 489.425C407.008 496.437 374.176 506.352 354.654 506.352ZM615.9 228.723C601.569 228.723 589.806 236.031 577.574 243.616C565.341 251.201 552.114 259.417 535.629 259.97C496.668 261.254 466.1 308.717 445.887 340.142C440.889 347.885 436.609 354.561 432.771 359.677C424.487 370.678 414.878 382.154 404.634 394.321C377.435 426.575 346.646 463.136 341.124 495.607C340.571 498.906 341.566 501.197 344.216 502.619C356.918 509.473 402.204 495.805 429.237 487.628C435.807 485.5 442.526 483.615 449.367 481.979C577.242 457.941 654.338 450.613 705.007 450.119C703.351 439.513 710.392 421.302 715.859 407.199C718.019 402.384 719.662 397.458 720.774 392.464C721.575 357.168 689.903 258.153 637.024 233.76C630.816 230.649 623.476 228.899 615.9 228.723V228.723ZM708.349 452.233C708.686 453.387 709.395 454.469 710.42 455.393C723.398 466.237 756.727 462.148 773.929 457.21L773.322 457.052C770.849 456.382 768.311 455.841 765.728 455.433C746.782 453.087 727.575 451.996 708.349 452.174V452.233Z" fill="white"/>
<path d="M366.086 492.763C362.055 492.967 358.034 492.277 354.571 490.788C352.849 489.821 351.534 488.533 350.769 487.066C350.004 485.599 349.819 484.01 350.236 482.473C354.764 448.164 384.145 411.367 410.073 378.737C417.888 368.861 425.288 359.637 431.887 350.63C434.455 347.134 437.41 342.986 440.613 338.207C460.494 309.31 493.823 260.958 533.558 259.2C547.365 258.627 558.935 252.583 570.228 246.757C587.956 237.572 606.319 228.072 632.026 240.831C683.276 266.39 708.735 352.823 708.321 384.07C708.321 388.455 707.934 393.017 707.575 397.896C706.554 412.394 705.477 427.286 711.773 436.55C725.835 436.658 739.874 437.417 753.799 438.821C756.312 439.058 758.963 439.473 761.559 439.849L765.369 440.421L769.898 441.034L765.645 442.298C743.279 448.895 727.539 449.645 717.516 444.569C714.48 443.017 711.978 440.99 710.199 438.644C631.087 438.268 538.142 454.287 462.565 469.259C459.804 469.831 453.067 471.886 444.7 474.493C421.809 481.722 386.409 492.763 366.086 492.763ZM607.451 236.624C594.473 236.624 583.372 242.372 571.83 248.337C560.288 254.302 548.248 260.543 533.724 261.155C495.59 262.755 462.703 310.535 443.071 338.977C439.757 343.777 436.913 347.924 434.345 351.44C427.69 360.486 420.29 369.789 412.475 379.626C386.685 411.999 357.47 448.756 352.97 482.552C352.607 483.747 352.714 484.99 353.279 486.144C353.845 487.298 354.846 488.318 356.173 489.089C369.372 495.904 417.639 480.813 443.595 472.715C452.376 469.97 458.727 467.975 461.82 467.363C586.769 442.614 660.274 436.273 708.735 436.55C702.743 426.793 703.792 412.117 704.814 397.817C705.173 392.998 705.504 388.455 705.56 384.109C706.057 353.159 680.929 267.713 630.452 242.549C623.847 238.893 615.798 236.82 607.451 236.624V236.624ZM713.457 438.703C714.936 440.381 716.859 441.837 719.118 442.989C727.678 447.315 741.208 446.939 760.316 441.705C757.997 441.35 755.622 441.014 753.44 440.797C740.186 439.516 726.832 438.83 713.457 438.742V438.703Z" fill="white"/>
<path d="M378.207 475.342C374.045 475.519 369.905 474.789 366.334 473.249C364.511 472.257 363.097 470.931 362.242 469.412C361.386 467.892 361.121 466.236 361.474 464.617C364.539 430.17 392.29 394.222 416.7 362.501C422.692 354.758 428.325 347.45 433.544 340.281L437.023 335.461C456.048 309.112 491.476 260.03 530.907 257.383C541.483 256.672 551.589 252.741 562.303 248.574C581.494 241.127 601.348 233.424 624.57 245.097C671.292 268.622 692.084 341.031 692.36 372.772C692.36 375.379 692.36 377.967 692.36 380.554C692.36 397.383 692.139 413.322 702.881 421.262C714.34 421.262 725.661 421.657 736.734 422.428C739.33 422.605 742.008 422.842 744.687 423.079L748.718 423.435L755.263 423.988L748.939 425.351C728.147 429.874 713.429 429.617 703.93 424.561C703.166 424.152 702.437 423.71 701.749 423.237H701.473C624.156 423.237 539.578 438.584 471.898 452.667C468.419 453.398 461.626 455.512 453.011 458.178C429.927 465.308 397.675 475.342 378.207 475.342ZM599.884 241.048C587.431 241.048 575.723 245.611 563.573 250.312C553.108 254.381 542.284 258.608 531.128 259.358C493.298 261.906 458.313 310.337 439.536 336.389L436.057 341.209C430.81 348.398 425.177 355.726 419.185 363.469C394.858 395.072 367.273 430.763 364.235 464.775C363.913 466.051 364.085 467.367 364.732 468.578C365.379 469.79 366.477 470.851 367.908 471.649C381.19 478.344 425.453 464.597 451.879 456.381C460.577 453.694 467.453 451.561 471.208 450.791C538.418 436.807 622.279 421.598 699.291 421.302C689.489 412.414 689.489 396.908 689.489 380.554C689.489 377.967 689.489 375.379 689.489 372.792C689.212 341.387 668.779 269.826 622.858 246.717C616.229 243.14 608.187 241.155 599.884 241.048V241.048ZM706.056 423.257C713.788 427.207 725.385 427.622 741.401 424.778L736.403 424.383C726.518 423.711 716.384 423.356 706.056 423.257Z" fill="white"/>
<path d="M391.048 454.169C386.446 454.354 381.871 453.556 377.904 451.878C375.972 450.856 374.447 449.491 373.478 447.918C372.51 446.346 372.132 444.62 372.381 442.91C373.182 410.478 399.083 376.387 421.919 346.325C426.696 340.024 431.225 334.079 435.449 328.252L435.753 327.857C452.735 304.392 488.218 255.606 527.76 253.018C537.456 252.067 546.935 250.208 555.953 247.488C574.757 242.51 594.169 237.375 616.508 249.088C658.093 270.913 674.688 333.605 675.876 358.847C675.876 360.704 676.041 362.6 676.097 364.496C676.649 380.1 677.229 396.237 689.655 403.545C698.564 403.545 707.345 403.842 715.997 404.434C718.621 404.612 721.327 404.888 724.06 405.145L728.119 405.54L735.05 406.172L728.313 407.476C710.558 410.913 697.635 410.281 688.826 405.501H688.688H688.081C622.417 405.501 549.629 419.485 480.017 434.081C476.261 434.871 469.91 436.728 461.875 439.079C440.337 445.379 410.294 454.169 391.048 454.169ZM587.846 243.913C577.325 243.913 567.219 246.579 556.809 249.344C547.562 252.127 537.84 254.02 527.898 254.974C489.764 257.462 454.779 305.617 438.211 328.766L437.907 329.161C433.655 335.086 429.154 341.012 424.349 347.253C401.651 377.137 375.916 410.992 375.143 442.95C374.912 444.34 375.202 445.75 375.983 447.034C376.764 448.318 378.008 449.431 379.588 450.258C393.395 457.013 435.615 444.648 460.826 437.281C468.944 434.911 475.35 433.034 479.244 432.205C548.276 417.747 620.263 403.881 685.623 403.545C674.44 395.19 673.888 379.626 673.335 364.536C673.335 362.659 673.197 360.763 673.114 358.907C671.955 333.96 655.663 271.999 614.879 250.687C607.169 246.344 597.658 243.961 587.846 243.913ZM693.907 405.56C700.479 407.891 709.149 408.305 720.194 406.785C718.648 406.646 717.129 406.508 715.611 406.409C708.487 405.935 701.252 405.639 693.907 405.56Z" fill="white"/>
<path d="M403.86 431C398.651 431.215 393.473 430.299 389.004 428.373C386.806 427.199 385.071 425.638 383.968 423.841C382.865 422.045 382.431 420.074 382.709 418.122C383.868 379.35 461.709 250.233 523.949 246.718C531.834 246.142 539.651 245.158 547.337 243.775C567.495 240.516 586.548 237.434 607.395 249.226C642.878 269.333 656.381 317.626 658.756 342.987C658.756 344.488 659.004 346.049 659.142 347.648C660.302 361.791 661.627 377.849 674.578 384.663C680.515 384.663 686.396 384.92 692.167 385.295C694.929 385.473 697.69 385.809 700.589 386.144C702.025 386.322 703.351 386.5 704.814 386.638L711.607 387.369L704.952 388.574C691.56 391.003 681.315 390.371 673.667 386.599H671.706C616.48 386.599 553.605 399.556 497.468 411.15L485.291 413.658C482.53 414.231 477.504 415.634 471.236 417.431C452.238 422.843 423.438 431 403.86 431ZM574.536 242.826C565.553 243.085 556.636 244.045 547.945 245.69C540.132 247.101 532.186 248.104 524.17 248.693C498.324 250.174 465.106 276.207 433.047 320.134C406.511 356.418 386.105 398.568 385.498 418.162C385.221 419.789 385.547 421.439 386.444 422.947C387.34 424.455 388.776 425.768 390.606 426.754C405.241 434.022 447.516 422.073 470.242 415.634C476.593 413.836 481.618 412.394 484.545 411.802L496.75 409.293C552.584 397.758 614.989 384.88 670.325 384.663C658.783 376.762 657.541 361.376 656.519 347.747C656.519 346.167 656.27 344.626 656.132 343.106C653.785 318.08 640.559 270.459 605.822 250.786C597.051 245.553 585.957 242.731 574.536 242.826V242.826ZM679.797 386.737C685.271 388.113 691.149 388.453 696.862 387.724C695.177 387.547 693.493 387.369 691.919 387.27C687.943 386.994 683.966 386.737 679.797 386.737Z" fill="white"/>
<path d="M416.617 404.79C410.731 405.039 404.878 404.006 399.829 401.827C397.544 400.621 395.713 399.027 394.504 397.19C393.294 395.352 392.742 393.328 392.898 391.299C392.539 372.496 409.466 335.363 432.992 302.97C449.753 279.94 483.358 241.049 519.973 239.093C554.02 237.276 581.633 242.826 602.039 255.606C625.537 270.321 638.791 293.944 641.415 325.823V327.304C642.409 339.767 643.789 356.931 656.629 363.884C657.51 364.348 658.432 364.771 659.391 365.148C661.729 365.148 664.048 365.207 666.349 365.326C669.497 365.444 672.921 365.76 676.207 366.076C677.864 366.234 679.548 366.393 681.177 366.511L689.765 367.202L681.288 368.466C673.764 369.889 665.785 369.407 658.7 367.104C612.808 366.531 562.524 376.723 513.76 386.598C505.034 388.376 496.419 390.114 487.969 391.773C484.96 392.366 480.431 393.472 475.212 394.756C458.921 398.785 434.594 404.79 416.617 404.79ZM532.261 240.733C528.312 240.733 524.308 240.851 520.166 241.068C460.577 244.248 394.997 356.339 395.659 391.181C395.493 392.902 395.935 394.625 396.943 396.192C397.952 397.759 399.495 399.119 401.43 400.148C415.651 407.298 452.404 398.173 474.356 392.82C479.63 391.517 484.214 390.391 487.307 389.798C495.729 388.139 504.344 386.401 513.07 384.623C560.509 375.024 609.411 365.109 654.476 365.03C641.221 357.267 639.813 340.004 638.791 327.344V325.862C636.223 294.536 623.273 271.367 600.354 257.008C582.848 246.224 560.012 240.733 532.261 240.733V240.733Z" fill="white"/>
<path d="M434.179 373.898C422.085 373.898 412.807 372.713 407.643 369.849C406.2 369.094 405.023 368.107 404.208 366.969C403.393 365.83 402.962 364.571 402.949 363.291C402.01 329.457 452.293 235.479 515.748 230.699C542.229 228.724 564.844 233.089 582.958 243.676C605.545 256.85 620.07 279.663 623.908 307.868L624.212 310.021C626.31 325.823 628.685 343.935 655.635 346.226L655.304 348.201C653.509 348.063 651.687 347.865 649.781 347.688C646.274 347.332 642.63 346.977 639.399 346.878C629.955 346.562 602.977 351.144 571.747 356.418C524.308 364.437 468.226 373.898 434.179 373.898ZM527.87 232.239C523.922 232.246 519.978 232.398 516.052 232.694C456.352 237.177 404.744 329.062 405.6 363.252C405.607 364.236 405.939 365.204 406.567 366.079C407.195 366.955 408.103 367.711 409.217 368.289C427.911 378.658 510.667 364.694 571.084 354.462C603.806 348.952 629.624 344.587 639.482 344.883H641.028C625.068 338.148 623.024 322.88 621.34 310.14L621.064 307.987C617.308 280.335 603.115 257.996 581.108 245.137C566.042 236.483 547.187 231.915 527.87 232.239Z" fill="white"/>
<path d="M447.461 347.866C435.228 347.866 425.371 346.582 419.379 343.441C417.505 342.486 415.958 341.24 414.853 339.797C413.748 338.353 413.115 336.75 413 335.106C411.536 319.641 423.106 292.344 441.082 268.701C451.161 255.428 478.249 224.339 511.578 222.245C542.974 220.27 564.429 231.528 576.911 241.306C593.535 254.949 603.829 271.947 606.374 289.954V289.954C608.942 306.506 610.626 317.428 631.06 325.744L636.582 327.956L630.314 327.581C628.326 327.462 626.283 327.304 624.212 327.146C620.355 326.788 616.474 326.577 612.586 326.514C603.088 326.514 581.964 330.109 557.361 334.276C520.359 340.478 476.869 347.866 447.461 347.866ZM517.708 224.023C515.748 224.023 513.787 224.023 511.827 224.22C461.35 227.381 412.834 303.938 415.761 334.988C415.842 336.341 416.357 337.664 417.267 338.852C418.177 340.041 419.457 341.064 421.008 341.841C440.337 352.053 507.657 340.617 556.753 332.242C581.384 328.055 602.646 324.44 612.476 324.44C616.204 324.44 620.373 324.776 624.405 325.072H624.653C607.644 316.52 605.904 305.321 603.585 290.053C596.902 246.303 555.483 224.023 517.708 224.023Z" fill="white"/>
<path d="M460.798 321.833C447.461 321.833 436.416 320.45 429.844 316.875C427.808 315.797 426.144 314.4 424.981 312.791C423.818 311.182 423.186 309.403 423.134 307.592C422.333 294.003 432.716 271.407 448.952 251.398C467.563 228.427 488.936 214.858 507.547 214.206C525.302 213.574 544.631 219.302 560.564 229.889C578.07 241.503 588.425 256.988 588.978 272.394C588.87 281.936 593.801 291.155 602.784 298.21C605.104 300.185 606.622 301.469 605.877 302.812C604.938 304.53 601.376 304.984 586.548 306.209C581.715 306.604 572.051 308.184 559.846 310.258C531.625 314.959 490.675 321.833 460.798 321.833ZM510.198 216.142H507.685C467.177 217.564 424.404 281.855 425.895 307.473C425.897 308.989 426.398 310.484 427.358 311.836C428.317 313.188 429.708 314.359 431.418 315.255C451.631 326.257 518.813 315.018 558.935 308.303C571.25 306.229 581.025 304.609 585.968 304.194C593.617 303.582 602.315 302.871 603.088 302.022C602.343 301.07 601.413 300.199 600.327 299.434C590.986 292.023 585.881 282.372 586.023 272.394C585.498 257.541 575.447 242.55 558.41 231.291C544.051 221.613 526.572 216.142 510.198 216.142Z" fill="white"/>
<path d="M471.871 296.294C458.865 296.294 447.654 294.951 440.806 291.296C438.682 290.199 436.92 288.781 435.646 287.142C434.372 285.504 433.617 283.686 433.434 281.816C431.666 266.943 448.51 239.053 469.524 222.126C481.287 212.645 493.133 207.49 503.736 207.253C535.408 206.463 569.179 230.56 571.802 255.842C572.43 262.843 574.776 269.709 578.733 276.127C580.473 279.129 581.494 280.966 580.279 282.546C578.705 284.522 574.205 285.193 561.723 286.497C557.305 286.971 550.954 287.919 543.609 289.005C523.562 292.087 494.928 296.294 471.871 296.294ZM505.006 209.209H503.764C493.934 209.426 482.778 214.344 471.54 223.41C450.94 240.021 434.4 267.199 436.14 281.618C436.279 283.211 436.912 284.762 437.991 286.159C439.07 287.556 440.569 288.764 442.38 289.697C460.439 299.316 512.103 291.672 543.002 287.188C550.375 286.102 556.808 285.213 561.254 284.66C570.891 283.613 576.828 282.882 577.822 281.638C578.402 280.887 577.435 279.228 576.11 276.937C572.058 270.292 569.648 263.195 568.986 255.961C566.307 229.691 532.095 209.209 505.062 209.209H505.006Z" fill="white"/>
<path d="M483.634 272.829C470.435 272.829 458.423 271.506 451.161 267.575C449.144 266.53 447.466 265.187 446.241 263.636C445.017 262.085 444.274 260.363 444.064 258.588C442.546 247.547 452.901 229.869 468.695 216.557C479.326 207.589 490.537 202.395 500.229 201.94C510.86 201.447 523.894 205.772 535.132 213.495C546.868 221.554 554.13 231.588 555.013 241.009C555.51 246.303 556.422 250.332 557.14 253.552C559.459 263.783 559.266 265.56 539.522 268.089L537.396 268.365C524.253 270.044 502.714 272.829 483.634 272.829ZM501.886 203.876H500.395C491.476 204.291 481.066 209.229 470.794 217.801C455.689 230.521 445.39 247.962 446.826 258.351C446.991 259.856 447.616 261.317 448.656 262.631C449.696 263.945 451.126 265.08 452.845 265.956C469.634 275.041 516.769 268.978 536.899 266.37L539.053 266.094C556.67 263.842 556.56 263.269 554.406 253.828C553.688 250.569 552.749 246.5 552.252 241.088C550.457 222.028 521.961 203.876 501.886 203.876V203.876Z" fill="white"/>
<path d="M489.626 253.156C479.243 253.156 469.082 252.05 462.51 248.475C460.403 247.341 458.655 245.901 457.379 244.251C456.104 242.6 455.331 240.775 455.11 238.895C452.348 220.803 473.196 200.992 497.22 198.898C501.495 198.477 505.845 198.677 510.01 199.484C514.176 200.292 518.071 201.691 521.464 203.599C530.659 208.754 536.955 217.781 538.749 228.368C541.511 245.236 541.511 248.495 520.663 250.904C510.417 252.242 500.039 252.995 489.626 253.156V253.156ZM501.72 200.676C500.345 200.677 498.971 200.737 497.606 200.854C475.35 202.829 455.331 221.889 457.899 238.678C458.063 240.293 458.713 241.863 459.805 243.281C460.896 244.699 462.403 245.932 464.222 246.895C477.2 253.946 506.277 250.568 520.276 248.87C538.584 246.756 538.86 245.157 536.043 228.526C534.359 218.452 528.45 209.92 519.835 205.08C514.678 202.174 508.285 200.62 501.72 200.676Z" fill="white"/>
<path d="M495.508 235.973C488.08 235.973 478.94 235.163 472.755 231.726C471.003 230.76 469.555 229.542 468.504 228.15C467.453 226.759 466.822 225.225 466.652 223.648C466.129 217.707 468.749 211.843 473.993 207.221C479.237 202.599 486.72 199.558 494.955 198.701C498.525 198.405 502.142 198.724 505.505 199.631C508.867 200.538 511.877 202.007 514.284 203.916C519.313 208.037 522.37 213.199 523.01 218.65C524.667 229.929 520.525 234.017 505.918 235.459C502.468 235.802 498.99 235.973 495.508 235.973ZM497.634 200.578C496.84 200.572 496.047 200.605 495.259 200.676C481.729 201.703 467.812 211.658 469.386 223.47C469.535 224.78 470.065 226.054 470.939 227.21C471.814 228.366 473.015 229.379 474.467 230.185C481.591 234.136 495.259 234.55 505.669 233.504C517.405 232.338 522.044 230.047 520.387 218.868C519.835 213.837 517.037 209.066 512.407 205.259C510.544 203.778 508.265 202.596 505.719 201.789C503.174 200.983 500.418 200.57 497.634 200.578V200.578Z" fill="white"/>
<path d="M494.845 222.186C490.454 222.266 486.159 221.254 482.695 219.322C481.556 218.639 480.624 217.795 479.959 216.844C479.294 215.892 478.91 214.853 478.829 213.791C478.653 210.836 480.09 207.947 482.836 205.736C485.583 203.524 489.424 202.163 493.547 201.94C501.389 201.565 507.768 206.049 508.348 212.389C508.9 218.077 504.62 221.633 496.585 222.107C496.032 222.159 495.452 222.186 494.845 222.186ZM494.458 203.916H493.74C490.342 204.088 487.171 205.202 484.902 207.02C482.634 208.839 481.446 211.218 481.591 213.653C481.638 214.444 481.907 215.221 482.381 215.937C482.856 216.653 483.526 217.293 484.352 217.821C487.752 219.631 491.983 220.457 496.198 220.132C502.798 219.737 505.918 217.189 505.476 212.527C505.117 207.53 500.395 203.916 494.458 203.916Z" fill="white"/>
<path d="M559.984 596.558L557.223 596.064C568.655 564.106 618.662 549.411 666.984 535.21C719.09 519.902 768.324 505.444 770.312 471.234C772.024 441.449 717.626 403.565 681.619 378.401C672.59 372.12 664.803 366.689 658.7 362.027C647.075 353.139 634.705 344.093 622.804 335.343C571.471 297.815 518.399 258.963 491.808 210.532L494.376 209.821C520.746 257.857 573.652 296.551 624.792 333.96C636.748 342.71 649.119 351.737 660.689 360.684C666.736 365.306 674.495 370.718 683.524 376.979C722.045 403.822 774.813 440.58 773.046 471.234C770.975 506.787 720.968 521.403 668.116 536.968C620.456 551.05 571.084 565.548 559.984 596.558Z" fill="white"/>
<path d="M639.15 626.166H636.389C637.825 591.897 676.842 569.933 714.589 548.68C752.336 527.428 788.454 507.064 786.107 475.856C783.345 439.592 718.206 393.63 675.075 363.272C665.493 356.517 657.209 350.67 650.61 345.673C639.068 336.923 626.945 328.094 615.238 319.542C569.676 286.339 522.568 251.991 491.918 210.908L494.348 209.979C524.722 250.885 571.664 285.134 617.198 318.238C628.934 326.791 641.056 335.639 652.625 344.389C659.197 349.367 667.454 355.194 677.008 361.929C720.443 392.386 786.134 438.664 788.895 475.619C791.298 507.874 754.876 528.396 716.301 550.103C679.051 571.138 640.531 592.825 639.15 626.166Z" fill="white"/>
<path d="M705.339 658.776C692.581 621.248 713.622 591.087 734.167 561.835C752.06 536.276 768.931 512.12 765.452 483.342C759.929 437.597 707.465 393.156 665.327 357.445L653.316 347.233C634.539 331.116 614.354 315.275 594.831 299.968C558.935 271.901 521.988 242.885 491.973 210.809L494.293 209.703C524.17 241.661 561.116 270.636 596.875 298.585C616.397 313.912 636.61 329.753 655.442 345.989C659.308 349.287 663.312 352.704 667.454 356.2C709.812 392.129 762.553 436.827 768.186 483.184C771.748 512.535 753.91 538.054 736.652 562.743C716.411 591.679 695.508 621.583 708.017 658.321L705.339 658.776Z" fill="white"/>
<path d="M781.274 636.674C777.381 633.099 773.488 629.681 769.732 626.343C748.498 607.599 730.163 591.403 727.015 564.995C725.386 551.445 728.368 538.073 731.24 525.156C734.111 512.238 737.011 499.182 735.492 485.909C725.607 400.128 631.75 324.519 548.939 257.818C528.643 241.463 509.48 226.017 492.056 210.888L494.21 209.624C511.579 224.734 530.742 240.16 551.01 256.494C634.097 323.432 728.285 399.318 738.253 485.751C739.8 499.261 736.845 512.574 733.973 525.452C731.102 538.33 728.175 551.524 729.776 564.817C732.841 590.633 750.928 606.612 771.886 625.099C775.669 628.437 779.535 631.874 783.428 635.449L781.274 636.674Z" fill="white"/>
<path d="M887.446 584.589C870.271 577.419 850.776 571.829 831.916 566.417C806.678 559.168 780.584 551.663 759.129 540.246C732.013 525.808 727.097 509.552 720.885 488.892C720.001 486.008 719.117 482.967 718.123 479.925C681.205 365.741 574.895 270.617 492.139 210.947L494.099 209.564C577.104 269.412 683.966 364.832 720.802 479.569C721.796 482.67 722.707 485.673 723.563 488.576C729.886 509.532 734.47 524.682 760.758 538.686C781.937 549.944 807.865 557.391 832.938 564.6C851.881 570.032 871.596 575.661 888.827 582.89L887.446 584.589Z" fill="white"/>
<path d="M997.65 519.073C980.005 517.295 958.826 516.268 936.404 515.122C858.038 511.35 760.537 506.669 719.477 465.269C689.986 435.523 667.592 400.741 645.943 367.123C608.417 308.876 569.621 248.614 492.36 210.908L493.906 209.288C571.802 247.31 610.764 307.809 648.539 366.294C670.16 399.872 692.499 434.536 721.851 464.124C762.139 504.753 858.922 509.414 936.68 513.147C959.157 514.234 980.419 515.241 998.147 517.098L997.65 519.073Z" fill="white"/>
<path d="M1011.46 468.37C991.133 467.343 967.468 467.304 942.423 467.264C868.531 467.264 784.781 467.047 731.654 442.456C695.508 425.707 671.264 392.07 649.892 362.403C642.961 352.784 636.416 343.698 629.845 335.659C627.47 332.775 625.095 329.872 622.72 326.948C587.348 283.633 550.789 238.856 492.332 211.085L493.878 209.426C552.86 237.454 589.585 282.507 625.095 325.961L632.219 334.652C638.846 342.75 645.391 351.855 652.349 361.494C673.556 390.944 697.607 424.344 733.145 440.797C785.609 465.091 868.918 465.19 942.423 465.289C967.496 465.289 991.188 465.289 1011.62 466.395L1011.46 468.37Z" fill="white"/>
<path d="M962.001 425.726C938.586 424.146 913.044 424.225 886.038 424.304C835.838 424.462 783.87 424.62 741.622 413.915C697.58 402.755 668.365 369.158 642.575 339.51C637.218 333.348 632.164 327.521 627.139 322.109C621.036 315.532 614.934 308.698 609.025 302.081C577.684 266.903 545.294 230.521 492.498 211.224L493.768 209.485C547.227 229.118 579.838 265.718 611.372 301.113C617.253 307.73 623.356 314.564 629.431 321.122C634.484 326.553 639.537 332.38 644.922 338.562C670.464 367.933 699.402 401.214 742.533 412.137C784.395 422.744 836.059 422.586 886.121 422.428C913.209 422.428 938.807 422.27 962.36 423.85L962.001 425.726Z" fill="white"/>
<path d="M750.845 380.041C747.318 380.057 743.793 379.899 740.297 379.566C697.69 375.182 665.245 343.401 639.178 317.862C634.649 313.418 630.369 309.231 626.283 305.419C619.352 298.98 612.476 292.324 605.987 285.884C574.094 254.618 543.968 225.089 492.774 211.184L493.768 209.327C545.846 223.45 576.22 253.215 608.362 284.719C614.906 291.138 621.699 297.795 628.602 304.214C632.716 308.046 636.886 312.233 641.553 316.697C667.288 341.94 699.374 373.345 740.959 377.611C756.229 379.171 775.724 376.564 794.611 374.036C807.177 372.109 819.922 370.835 832.745 370.224C844.342 369.967 856.078 370.026 867.427 370.066C889.766 370.184 912.85 370.303 935.52 367.953L935.907 369.928C913.016 372.298 889.849 372.179 867.427 372.061C856.078 372.061 844.37 371.962 832.828 372.219C820.143 372.827 807.536 374.095 795.108 376.011C779.811 377.986 764.375 380.041 750.845 380.041Z" fill="white"/>
<path d="M706.719 325.092C671.043 325.092 643.651 303.78 619.186 284.72C616.204 282.409 613.305 280.137 610.405 277.945C604.607 273.54 599.056 269.175 593.699 264.948C564.071 241.622 538.473 221.495 492.719 211.204L493.547 209.229C540.02 219.697 565.838 240.002 595.715 263.546C601.072 267.753 606.622 272.118 612.283 276.503C615.044 278.695 618.109 280.987 621.091 283.317C648.042 304.294 678.582 328.075 719.394 322.09C730.825 320.411 740.49 316.164 749.768 312.096C760.813 307.197 772.521 302.22 787.404 301.173C803.806 300.126 818.552 304.175 832.828 308.106C841.017 310.52 849.443 312.501 858.038 314.031L857.458 316.006C848.72 314.455 840.155 312.441 831.834 309.982C817.226 306.032 803.42 302.081 787.653 303.188C773.405 304.116 762.111 309.113 751.204 313.814C741.65 318.001 731.875 322.327 719.863 324.065C715.54 324.718 711.137 325.062 706.719 325.092V325.092Z" fill="white"/>
<path d="M651.604 278.616C641.387 278.616 630.48 275.673 617.088 269.866C600.116 262.266 584.276 253.443 569.814 243.537C548.497 229.711 530.107 217.86 492.802 211.224L493.464 209.249C531.46 216.004 550.071 228.072 571.664 242.036C586.015 251.865 601.746 260.609 618.606 268.128C647.186 280.512 663.174 279.545 687.004 264C698.017 256.556 708.029 248.389 716.909 239.607C728.313 228.901 737.315 220.467 749.796 220.092C761.697 219.776 776.056 226.847 796.544 243.123L794.418 244.525C774.565 228.724 760.786 221.87 749.851 222.146C738.916 222.423 730.522 230.205 719.035 240.891C710.066 249.765 699.952 258.018 688.826 265.541C675.268 274.31 663.947 278.616 651.604 278.616Z" fill="white"/>
<path d="M613.332 252.663C609.176 252.633 605.036 252.275 600.989 251.596L600.548 251.478C582.49 243.334 565.228 234.319 548.884 224.497C534.691 212.429 516.052 208.004 493.409 211.224L492.857 209.249C516.576 205.871 536.099 210.533 550.844 223.075C566.976 232.762 584.007 241.657 601.818 249.7C630.949 254.223 639.15 242.254 650.499 225.702L653.012 222.048C657.817 215.154 661.296 205.575 665.162 195.442C672.093 176.876 679.962 155.939 697.745 147.09C721.354 135.437 746.427 145.984 768.545 155.287C774.067 157.618 779.369 159.83 784.478 161.647L783.263 163.425C778.044 161.549 772.77 159.336 767.164 156.986C744.687 147.545 721.465 137.787 699.292 148.71C682.365 157.065 674.633 177.725 667.84 195.956C664.002 206.187 660.412 215.866 655.497 222.937L652.985 226.571C643.154 240.911 635.119 252.663 613.332 252.663Z" fill="white"/>
<path d="M596.019 238.896C589.173 238.686 582.378 237.951 575.751 236.703H575.447C557.34 230.137 540.888 221.459 526.766 211.026L493.161 211.303V209.327L527.981 209.031L528.395 209.347C542.356 219.723 558.653 228.35 576.607 234.866C607.506 239.903 610.654 238.165 624.074 209.011C627.602 200.655 630.369 192.144 632.358 183.532C636.61 167.237 641.001 150.408 653.592 137.669C678.886 111.991 713.236 116.732 749.602 121.67L760.261 123.072L759.764 125.047L749.105 123.645C713.623 118.845 680.073 114.302 655.856 138.854C643.624 151.238 639.289 167.849 635.091 183.927C633.106 192.605 630.339 201.182 626.807 209.604C616.535 231.509 611.924 238.896 596.019 238.896Z" fill="white"/>
<path d="M574.011 238.422C565.313 238.422 557.444 232.674 548.276 226.097C533.973 215.767 517.764 204.054 493.658 211.164L492.608 209.347C518.427 201.723 536.071 214.463 550.237 224.714C559.625 231.489 567.716 237.375 575.972 236.328C583.234 235.419 590.607 229.059 598.477 216.892C608.307 201.723 613.056 187.561 617.281 175.058C626.89 146.478 634.511 123.902 694.321 110.214L695.15 112.189C636.831 125.541 629.762 146.537 619.959 175.612C615.707 188.213 610.902 202.474 600.989 217.821C592.705 230.798 584.781 237.316 576.469 238.362C575.653 238.43 574.832 238.45 574.011 238.422V238.422Z" fill="white"/>
<path d="M559.708 251.635L558.824 250.905C554.128 246.75 549.811 242.382 545.902 237.829C531.543 222.028 513.677 202.276 493.989 211.085L492.553 209.426C514.644 199.55 533.2 220.21 548.221 236.743C551.848 240.932 555.784 244.98 560.012 248.87C581.605 235.182 578.623 212.764 575.724 191.057C574.868 184.519 574.039 178.357 573.929 172.53C572.791 135.852 577.039 99.1893 586.603 63.1455L589.364 63.5208C579.844 99.4352 575.614 135.965 576.745 172.51C576.745 178.238 577.684 184.361 578.54 190.879C581.301 212.369 584.643 236.723 560.785 251.023L559.708 251.635Z" fill="white"/>
<path d="M530.769 260.504L529.693 258.706C519.476 241.582 509.839 224.003 500.975 206.463L494.072 210.987L492.194 209.525L502.19 203.007L502.88 204.389C511.578 221.731 521.077 239.113 531.128 256.08C543.14 239.429 533.89 216.122 525.799 195.462C523.424 189.536 521.188 183.828 519.641 178.693L517.184 170.575C502.632 122.677 488.908 77.4458 479.299 29.5876L482.06 29.311C491.642 77.0902 505.365 122.302 519.89 170.16L522.375 178.278C523.894 183.354 526.13 188.983 528.478 194.928C537.065 216.655 546.813 241.365 532.178 258.825L530.769 260.504Z" fill="white"/>
<path d="M501.196 268.543C487.997 224.497 467.674 180.747 448.041 138.419C436.692 114.026 424.984 88.803 414.767 63.8172L417.528 63.2642C427.718 88.2105 439.425 113.414 450.664 137.807C465.492 169.706 480.679 202.414 492.939 235.459C491.163 227.08 490.774 218.581 491.78 210.137L494.541 210.374C492.001 225.544 498.048 248.139 503.929 268.148L501.196 268.543Z" fill="white"/>
<path d="M478.581 295.267L476.234 293.963C459.5 284.561 449.698 271.209 447.13 254.302C420.4 213.12 393.726 171.345 367.88 129.866L370.393 129.057C396.267 170.535 422.858 212.448 449.725 253.65V253.966C452.072 269.589 460.77 282.033 475.433 291.04C475.129 287.86 474.577 283.949 473.969 279.564C470.407 254.598 465.023 216.872 492.525 209.367L493.519 211.223C467.977 218.176 473.445 256.474 476.703 279.347C477.476 284.858 478.167 289.598 478.36 293.173L478.581 295.267Z" fill="white"/>
<path d="M452.017 337.575L450.222 336.884C403.915 319.107 371.36 271.98 342.532 230.462C332.425 215.846 322.844 202.019 313.538 190.781L315.885 189.773C325.274 201.071 334.883 214.917 345.017 229.593C373.182 270.281 405.047 316.342 449.642 334.415C450.25 329.516 450.388 322.011 450.554 312.688C451.134 279.703 452.017 229.85 475.212 214.127C477.546 212.469 480.338 211.176 483.409 210.333C486.481 209.49 489.764 209.113 493.05 209.229V211.204C490.131 211.087 487.21 211.415 484.482 212.168C481.754 212.92 479.281 214.08 477.228 215.569C454.861 230.699 453.95 282.033 453.425 312.708C453.232 323.038 453.094 331.195 452.293 336.074L452.017 337.575Z" fill="white"/>
<path d="M416.756 379.053C389.805 379.053 327.869 317.389 270.075 256.079C262.758 248.337 257.484 242.727 254.723 240.061L256.932 238.896C259.693 241.582 265.022 247.211 272.367 254.973C305.807 290.526 394.61 384.623 419.876 376.643C430.203 373.365 434.87 320.727 436.444 303.424C436.858 298.881 437.106 296.156 437.272 295.346C438.266 290.981 439.094 285.885 440.033 280.512C444.7 251.793 451.079 212.488 493.105 209.268L493.382 211.243C453.536 214.285 447.323 252.722 442.795 280.729C441.911 286.141 441.083 291.237 440.033 295.642C439.868 296.373 439.591 299.375 439.233 303.543C436.112 338.72 431.501 375.142 421.063 378.441C419.705 378.863 418.236 379.072 416.756 379.053Z" fill="white"/>
<path d="M381.024 416.798C358.299 416.798 285.29 353.455 217.942 293.37C204.136 281.026 194.084 272.098 190.329 269.194L192.345 267.832C196.266 270.794 206.151 279.683 220.179 292.146C263.614 330.899 365.368 421.618 383.095 414.606C404.109 406.073 410.073 373.009 414.408 348.873C415.734 341.466 416.894 335.046 418.302 330.267C420.4 323.057 422.195 315.611 424.101 307.73C433.158 270.083 443.43 227.42 492.719 209.446L493.989 211.223C445.942 228.723 435.781 270.873 426.807 308.006C424.901 315.907 423.106 323.353 420.98 330.602C419.6 335.343 418.467 341.703 417.142 349.07C412.724 373.621 406.677 407.239 384.448 416.226C383.406 416.644 382.218 416.843 381.024 416.798Z" fill="white"/>
<path d="M342.615 452.628C314.753 452.628 288.162 425.805 268.419 405.915C263.669 401.135 259.583 397.007 256.02 393.808C216.203 358.255 181.797 332.38 144.492 310.159L146.259 308.658C183.702 330.958 218.218 356.833 258.174 392.662C261.792 395.901 265.906 400.049 270.683 404.849C290.012 424.383 319.309 453.892 347.309 450.455C378.594 446.624 391.214 399.95 398.78 372.081C400.574 365.405 402.148 359.618 403.667 355.351C407.063 345.791 410.101 335.718 413.055 325.961C426.393 281.816 440.199 236.17 492.332 209.525L493.934 211.145C442.684 237.335 428.988 282.606 415.762 326.376C412.807 336.153 409.742 346.246 406.346 355.825C404.827 360.052 403.28 365.8 401.486 372.456C393.202 402.676 380.942 448.342 347.778 452.411C346.068 452.58 344.341 452.653 342.615 452.628Z" fill="white"/>
<path d="M319.199 489.149C295.176 489.149 270.076 467.995 253.094 453.596C250.636 451.522 248.372 449.646 246.356 447.986C239.315 442.278 232.55 436.59 226.033 431.099C196.68 406.488 168.957 383.122 125.107 367.736L126.322 365.958C170.696 381.542 198.586 405.027 228.131 429.894C234.648 435.385 241.413 441.073 248.427 446.762C250.443 448.381 252.707 450.297 255.192 452.391C271.926 466.513 299.953 490.156 323.948 486.858C358.078 482.196 378.484 424.403 387.21 399.713C388.48 396.158 389.474 393.353 390.247 391.398C396.074 376.94 400.74 361.771 405.71 345.851C421.533 294.892 437.88 242.214 492.25 209.564L494.017 211.066C440.365 243.359 424.128 295.701 408.417 346.345C403.446 362.363 398.752 377.493 392.898 392.01C392.125 393.985 391.158 396.711 389.888 400.266C381.052 425.312 360.315 483.954 324.445 488.872C322.713 489.082 320.956 489.174 319.199 489.149V489.149Z" fill="white"/>
<path d="M309.01 515.3C273.306 515.3 242.297 487.253 212.199 459.995C188.424 438.545 165.974 418.339 141.951 411.327L142.973 409.51C167.825 416.601 190.357 437.162 214.352 458.889C247.488 488.773 281.562 519.665 320.911 512.219C360.259 504.772 378.898 445.636 390.247 410.241C392.401 403.466 394.251 397.6 395.908 393.314C401.43 378.954 405.959 364.259 410.791 348.675C426.42 298.23 442.574 245.967 492.139 209.564L494.127 210.947C445.086 247.033 429.016 298.921 413.497 349.11C408.858 364.022 404.109 379.428 398.559 393.847C396.929 398.094 395.079 403.92 393.036 410.676C381.632 446.525 362.662 506.491 321.739 514.135C317.583 514.911 313.305 515.302 309.01 515.3V515.3Z" fill="white"/>
<path d="M316.52 522.746C309.618 522.753 302.848 521.385 296.97 518.796C263.586 504.417 252.79 453.339 244.837 416.088C242.971 405.736 240.372 395.458 237.05 385.295L239.812 384.761C243.172 395.022 245.798 405.399 247.681 415.851C255.413 452.747 266.127 503.271 298.406 517.097C308.098 521.285 319.365 521.818 331.928 518.697C372.685 508.525 390.192 454.169 401.762 418.201C404.026 411.15 406.014 405.046 407.892 400.01C414.546 382.372 420.041 364.259 425.371 346.68C439.619 299.829 454.337 251.379 491.973 209.604L494.293 210.671C456.905 252.149 442.242 300.422 428.022 347.095C422.692 364.654 417.17 382.806 410.515 400.424C408.637 405.441 406.677 411.505 404.412 418.556C392.677 454.939 374.977 509.928 332.784 520.455C327.582 521.869 322.084 522.644 316.52 522.746V522.746Z" fill="white"/>
<path d="M326.434 522.371C321.512 522.435 316.666 521.496 312.462 519.665C286.174 507.952 291.669 461.496 295.286 430.783C296.087 423.909 296.805 417.944 296.998 413.48H299.76C299.566 418.003 298.848 423.988 298.048 430.901C294.458 461.141 289.073 506.886 313.925 517.946C324.031 522.45 338.777 520.633 357.636 512.495C404.413 492.408 420.235 442.1 431.805 405.382C432.661 402.617 433.517 399.93 434.345 397.323C441.442 375.241 446.081 352.645 450.582 330.78C458.866 290.368 467.508 248.574 492.001 209.801L494.541 210.631C470.325 249.127 461.737 290.783 453.453 331.116C448.952 353.02 444.286 375.656 437.189 397.817C436.333 400.405 435.505 403.091 434.621 405.856C422.969 442.93 407.008 493.691 359.21 514.233C346.481 519.645 335.546 522.371 326.434 522.371Z" fill="white"/>
<path d="M281.065 539.812L280.844 537.837C353.328 533.886 387.706 517.097 409.576 502.975C480.21 457.309 478.912 390.015 477.642 324.934C476.896 285.43 476.096 244.703 491.807 209.959L494.569 210.552C478.967 244.999 479.768 285.608 480.514 324.914C481.784 390.43 483.109 458.158 411.481 504.437C369.178 531.753 319.475 537.698 281.065 539.812Z" fill="white"/>
<path d="M298.13 633.929L295.894 632.763C318.205 611.036 342.477 588.006 372.188 567.78C387.682 557.641 403.913 548.094 420.815 539.18C446.771 524.959 473.611 510.264 492.802 492.448C528.119 459.62 528.699 419.663 524.446 384.88C522.265 366.669 514.671 345.969 506.636 324.065C491.973 284.068 476.841 242.728 491.808 209.94L494.569 210.572C479.851 242.807 494.9 283.851 509.452 323.551C517.515 345.555 525.109 366.333 527.318 384.781C531.543 419.92 531.018 460.351 495.121 493.692C475.792 511.745 448.731 526.519 422.637 540.8C405.818 549.676 389.661 559.176 374.232 569.262C344.548 589.329 320.359 612.221 298.13 633.929Z" fill="white"/>
<path d="M371.746 659.013L369.344 658.065C394.913 624.843 428.905 596.321 479.547 565.607C489.184 559.682 499.981 553.934 511.44 547.831C544.769 529.837 582.544 509.454 598.283 483.796C630.038 431.928 589.336 381.601 549.96 332.913C517.708 293.015 484.352 251.774 491.752 210.216L494.513 210.453C487.224 251.359 520.331 292.304 552.501 331.926C592.208 381.028 633.269 431.81 600.934 484.586C584.918 510.718 546.84 531.259 513.235 549.411C501.831 555.554 491.145 561.381 481.48 567.188C430.948 597.664 397.15 626.008 371.746 659.013Z" fill="white"/>
<path d="M467.121 626.64L464.747 625.633C493.602 590.909 534.055 570.486 583.924 547.396C590.8 544.216 599.001 540.799 607.671 537.165C645.308 521.364 692.112 501.829 700.258 475.323C710.115 443.088 668.503 404.849 638.128 376.92C632.854 372.081 627.856 367.498 623.604 363.37C612.559 352.586 600.216 341.644 588.315 330.978C547.061 294.18 504.399 256.119 491.669 210.493L494.431 210.098C506.912 255.289 549.353 293.173 590.413 329.793C602.342 340.419 614.657 351.421 625.785 362.225C630.01 366.333 634.981 370.915 640.255 375.755C670.96 403.98 713.042 442.634 702.881 475.777C694.597 503.133 647.103 522.963 608.997 538.982C600.326 542.597 592.18 546.014 585.332 549.174C535.85 572.007 495.673 592.292 467.121 626.64Z" fill="white"/>
</svg>
