<?xml version="1.0" standalone="no"?>
<!DOCTYPE svg PUBLIC "-//W3C//DTD SVG 20010904//EN"
 "http://www.w3.org/TR/2001/REC-SVG-20010904/DTD/svg10.dtd">
<svg version="1.0" xmlns="http://www.w3.org/2000/svg"
 width="362.000000pt" height="362.000000pt" viewBox="0 0 362.000000 362.000000"
 preserveAspectRatio="xMidYMid meet">
<metadata>
Created by potrace 1.14, written by Peter Selinger 2001-2017
</metadata>
<g transform="translate(0.000000,362.000000) scale(0.100000,-0.100000)"
fill="#000000" stroke="none">
<path d="M2642 3490 c-64 -15 -122 -92 -122 -160 0 -54 25 -95 118 -191 110
-115 138 -149 214 -264 275 -414 370 -960 237 -1357 -91 -275 -305 -518 -563
-643 -299 -145 -631 -148 -925 -9 -261 123 -408 290 -499 564 -51 153 -68 382
-36 491 56 190 208 323 399 351 68 10 91 9 155 -6 41 -9 93 -26 114 -39 78
-44 142 -174 155 -312 10 -98 29 -138 86 -174 24 -15 57 -42 73 -59 68 -73
194 -56 236 33 38 79 7 285 -64 430 -47 95 -180 266 -274 352 -79 73 -207 142
-322 175 -102 29 -285 31 -384 5 -139 -37 -294 -128 -385 -228 -89 -96 -167
-242 -201 -374 -23 -92 -23 -302 0 -440 64 -371 255 -683 574 -938 156 -125
191 -147 323 -212 205 -101 374 -139 609 -138 237 0 410 42 623 151 423 215
711 634 768 1117 7 59 9 162 6 255 -20 555 -239 1043 -667 1483 -131 135 -169
156 -248 137z"/>
<path d="M1200 3326 c-308 -55 -578 -199 -793 -425 -375 -395 -491 -940 -331
-1566 91 -356 305 -723 562 -965 182 -171 223 -197 293 -185 74 13 119 70 119
152 -1 68 -10 82 -193 279 -112 122 -156 183 -231 326 -136 257 -206 534 -206
819 0 346 103 603 334 835 137 136 269 219 436 274 359 116 801 25 1026 -212
179 -189 287 -440 301 -703 10 -185 -30 -300 -141 -410 -100 -99 -216 -142
-356 -132 -90 7 -142 24 -217 74 -73 48 -107 119 -124 255 -13 107 -18 120
-68 169 -20 20 -45 51 -56 70 -25 43 -77 69 -136 69 -60 0 -107 -31 -137 -90
-21 -40 -23 -54 -17 -125 12 -161 52 -278 140 -410 61 -92 102 -134 235 -239
109 -87 194 -134 300 -168 65 -20 95 -23 220 -23 132 1 152 3 225 29 213 74
363 205 460 401 69 139 80 192 80 390 0 189 -18 298 -77 464 -79 224 -247 472
-455 671 -193 185 -418 305 -688 366 -96 22 -404 28 -505 10z"/>
</g>
</svg>
